<?xml version="1.0" encoding="UTF-8" standalone="no"?>
<!-- Created with Inkscape (http://www.inkscape.org/) -->

<svg
   xmlns:dc="http://purl.org/dc/elements/1.1/"
   xmlns:cc="http://creativecommons.org/ns#"
   xmlns:rdf="http://www.w3.org/1999/02/22-rdf-syntax-ns#"
   xmlns:svg="http://www.w3.org/2000/svg"
   xmlns="http://www.w3.org/2000/svg"
   xmlns:sodipodi="http://sodipodi.sourceforge.net/DTD/sodipodi-0.dtd"
   xmlns:inkscape="http://www.inkscape.org/namespaces/inkscape"
   width="210mm"
   height="297mm"
   viewBox="0 0 744.09448819 1052.3622047"
   id="svg4161"
   version="1.1"
   inkscape:version="0.91 r13725"
   sodipodi:docname="backgroundHouse.svg">
  <defs
     id="defs4163" />
  <sodipodi:namedview
     id="base"
     pagecolor="#ffffff"
     bordercolor="#666666"
     borderopacity="1.0"
     inkscape:pageopacity="0.0"
     inkscape:pageshadow="2"
     inkscape:zoom="1"
     inkscape:cx="256.85714"
     inkscape:cy="723"
     inkscape:document-units="px"
     inkscape:current-layer="layer2"
     showgrid="false"
     inkscape:window-width="1920"
     inkscape:window-height="1017"
     inkscape:window-x="-8"
     inkscape:window-y="-8"
     inkscape:window-maximized="1" />
  <metadata
     id="metadata4166">
    <rdf:RDF>
      <cc:Work
         rdf:about="">
        <dc:format>image/svg+xml</dc:format>
        <dc:type
           rdf:resource="http://purl.org/dc/dcmitype/StillImage" />
        <dc:title></dc:title>
      </cc:Work>
    </rdf:RDF>
  </metadata>
  <g
     inkscape:label="Layer 1"
     inkscape:groupmode="layer"
     id="layer1">
    <rect
       style="opacity:1;fill:#552200;fill-opacity:1;stroke:none;stroke-opacity:1"
       id="rect4709"
       width="303"
       height="271"
       x="111"
       y="373.36221"
       ry="12.3499" />
    <rect
       style="opacity:1;fill:#803300;fill-opacity:1;stroke:none;stroke-opacity:1"
       id="rect4709-8"
       width="284"
       height="254"
       x="124.5"
       y="388.86221"
       ry="11.575183" />
  </g>
  <g
     inkscape:groupmode="layer"
     id="layer2"
     inkscape:label="Layer 2">
    <path
       style="opacity:1;fill:#552200;fill-opacity:1;stroke:none;stroke-opacity:1"
       d="M 257.50977 187.11719 L 75.435547 377.30469 C 145.51984 365.28093 6.0277625 390.67235 93.195312 379.76953 C 114.43393 377.11302 384.94569 385.16826 464.06055 378.1582 C 464.12735 377.41261 464.16305 376.68848 464.07812 376.05273 C 464.01443 375.57557 463.98342 375.17002 463.95117 374.76172 L 454.31445 366.00195 C 453.26449 365.66191 452.21984 365.30472 451.16602 364.97852 C 452.74658 365.40858 453.26058 365.55607 454.07227 365.7832 L 453.12695 364.92188 C 451.55516 364.17518 449.61794 363.18273 447.66211 361.91211 C 447.05709 361.51906 446.91904 360.67667 446.54688 360.05859 C 446.06084 359.25141 445.71402 358.56139 445.42969 357.92578 L 257.50977 187.11719 z M 457.28711 359.86914 C 457.16476 359.87414 457.08417 359.87295 456.96484 359.87695 C 456.87274 360.57984 456.8032 361.25968 456.77539 361.89258 C 457.51659 361.81968 458.29396 361.78068 459.08008 361.74805 C 459.06638 361.48921 459.05407 361.23221 459.04297 360.97656 C 458.67639 360.74452 458.29998 360.50539 457.96289 360.29492 C 457.87789 360.33512 457.79202 360.37382 457.70703 360.41406 C 457.63283 360.44916 457.68683 360.25152 457.67773 360.16992 C 457.69093 360.16092 457.7036 360.15013 457.7168 360.14062 C 457.57815 360.05383 457.43266 359.96061 457.28711 359.86914 z M 459.44531 361.23047 C 459.42741 361.38457 459.40121 361.57575 459.38281 361.73242 C 459.67245 361.72132 459.96012 361.70131 460.24609 361.69141 C 460.02043 361.56569 459.79244 361.44464 459.57227 361.31055 C 459.54427 361.29355 459.47797 361.25067 459.44531 361.23047 z M 412.02148 383.86133 C 408.86283 384.18367 405.79952 384.4797 402.59375 384.81836 C 401.9463 384.88656 401.29617 384.94947 400.64844 385.01758 C 401.77226 385.09448 402.8674 385.15395 403.99609 385.23242 C 406.67528 384.7805 409.35978 384.33452 412.02148 383.86133 z M 385.98828 386.52734 C 383.42126 386.78987 380.85852 387.06043 378.29102 387.32227 C 379.763 387.39847 380.87255 387.46876 380.83398 387.53516 C 380.78428 387.62246 380.64437 387.676 380.49609 387.72461 C 382.3183 387.31666 384.15351 386.92178 385.98828 386.52734 z M 380.04688 387.82031 C 379.41195 387.90871 378.56589 387.92238 378.03906 388.08398 C 377.61968 388.21254 377.26183 388.37485 376.87305 388.52148 C 377.93699 388.29298 378.98988 388.05643 380.04688 387.82031 z M 211.99414 432.29102 C 207.79871 433.14877 206.30321 433.46682 198.91797 434.96289 C 200.90201 434.84216 201.44816 434.80436 203.58789 434.67383 C 204.84066 434.59763 206.104 434.54789 207.35938 434.47852 C 208.71838 433.7335 210.26619 433.00413 211.99414 432.29102 z M 394.50781 504.32617 C 384.39245 504.90319 374.28649 505.52272 364.18359 506.14648 C 375.93055 505.54621 385.75776 504.9515 394.50781 504.32617 z "
       id="path4734" />
    <path
       inkscape:connector-curvature="0"
       style="opacity:1;fill:#803300;fill-opacity:1;stroke:none;stroke-opacity:1"
       d="M 256.39068,185.84756 94.31295,367.0929 c 62.38721,-11.45844 -61.785,12.73914 15.80928,2.34894 18.90607,-2.5316 259.70859,5.1449 330.13458,-1.53556 0.0595,-0.71054 0.0912,-1.40062 0.0157,-2.00648 -0.0567,-0.45473 -0.0843,-0.84121 -0.11301,-1.23031 l -8.57836,-8.34791 c -0.93464,-0.32405 -1.86456,-0.66444 -2.80265,-0.97531 1.40698,0.40984 1.86453,0.5504 2.58707,0.76685 l -0.8415,-0.82082 c -1.39917,-0.7116 -3.12363,-1.65738 -4.86466,-2.86826 -0.53857,-0.37457 -0.66146,-1.17735 -0.99275,-1.76637 -0.43266,-0.76923 -0.74139,-1.42681 -0.99449,-2.03253 L 256.39068,185.84756 Z m 177.83659,164.62956 c -0.10891,0.005 -0.18065,0.004 -0.28688,0.008 -0.082,0.66984 -0.14388,1.31771 -0.16864,1.92086 0.6598,-0.0695 1.35179,-0.10664 2.05158,-0.13774 -0.0122,-0.24667 -0.0231,-0.49158 -0.033,-0.73521 -0.32632,-0.22113 -0.66139,-0.44902 -0.96146,-0.64959 -0.0757,0.0383 -0.1521,0.0752 -0.22776,0.11353 -0.0661,0.0335 -0.018,-0.15489 -0.0261,-0.23266 0.0118,-0.009 0.0231,-0.0189 0.0348,-0.0279 -0.12343,-0.0827 -0.25294,-0.17155 -0.3825,-0.25872 z m 1.92117,1.29733 c -0.0159,0.14685 -0.0392,0.32904 -0.0556,0.47835 0.25783,-0.0106 0.5139,-0.0296 0.76847,-0.0391 -0.20088,-0.1198 -0.40383,-0.23516 -0.59982,-0.36295 -0.0249,-0.0162 -0.0839,-0.0571 -0.11302,-0.0763 z m -42.21545,21.56681 c -2.81175,0.30718 -5.53863,0.58929 -8.39232,0.91203 -0.57635,0.065 -1.15508,0.12495 -1.73167,0.18985 1.0004,0.0733 1.97526,0.12996 2.97999,0.20474 2.38495,-0.43067 4.77462,-0.85568 7.144,-1.30662 z m -23.17408,2.54066 c -2.2851,0.25018 -4.56638,0.50802 -6.8519,0.75755 1.31032,0.0726 2.29801,0.1396 2.26368,0.20288 -0.0442,0.0832 -0.16879,0.13422 -0.30079,0.18055 1.62209,-0.38877 3.25574,-0.76509 4.88901,-1.14098 z m -5.28888,1.23218 c -0.5652,0.0842 -1.31834,0.0973 -1.78731,0.25127 -0.37332,0.12251 -0.69187,0.27719 -1.03795,0.41693 0.94709,-0.21776 1.88435,-0.44319 2.82526,-0.6682 z m -149.59617,42.3798 c -3.73467,0.81742 -5.06592,1.12052 -11.64007,2.54624 1.76614,-0.11505 2.25231,-0.15107 4.15704,-0.27547 1.11518,-0.0726 2.23978,-0.12001 3.35728,-0.18612 1.20975,-0.70999 2.58757,-1.40507 4.12575,-2.08465 z m 162.46891,68.64823 c -9.00443,0.54989 -18.00049,1.14029 -26.99383,1.73472 10.45684,-0.57205 19.20477,-1.13879 26.99383,-1.73472 z"
       id="path4734-7" />
    <path
       style="opacity:1;fill:#552200;fill-opacity:1;stroke:none;stroke-opacity:1"
       id="path4982"
       sodipodi:type="arc"
       sodipodi:cx="259"
       sodipodi:cy="-643.36218"
       sodipodi:rx="37"
       sodipodi:ry="91.5"
       sodipodi:start="0"
       sodipodi:end="3.1389398"
       d="m 296,-643.36218 a 37,91.5 0 0 1 -36.95092,91.49992 37,91.5 0 0 1 -37.04895,-91.25719 L 259,-643.36218 Z"
       transform="scale(1,-1)" />
  </g>
</svg>
