<?xml version="1.0" encoding="UTF-8" standalone="no"?>
<!-- Created with Inkscape (http://www.inkscape.org/) -->

<svg
   xmlns:dc="http://purl.org/dc/elements/1.1/"
   xmlns:cc="http://creativecommons.org/ns#"
   xmlns:rdf="http://www.w3.org/1999/02/22-rdf-syntax-ns#"
   xmlns:svg="http://www.w3.org/2000/svg"
   xmlns="http://www.w3.org/2000/svg"
   xmlns:sodipodi="http://sodipodi.sourceforge.net/DTD/sodipodi-0.dtd"
   xmlns:inkscape="http://www.inkscape.org/namespaces/inkscape"
   width="744.09448819"
   height="1052.3622047"
   id="svg6388"
   version="1.1"
   inkscape:version="0.48.5 r10040"
   sodipodi:docname="New document 23">
  <defs
     id="defs6390" />
  <sodipodi:namedview
     id="base"
     pagecolor="#ffffff"
     bordercolor="#666666"
     borderopacity="1.0"
     inkscape:pageopacity="0.0"
     inkscape:pageshadow="2"
     inkscape:zoom="1"
     inkscape:cx="260"
     inkscape:cy="640"
     inkscape:document-units="px"
     inkscape:current-layer="layer7"
     showgrid="false"
     inkscape:window-width="1920"
     inkscape:window-height="1017"
     inkscape:window-x="-8"
     inkscape:window-y="-8"
     inkscape:window-maximized="1" />
  <metadata
     id="metadata6393">
    <rdf:RDF>
      <cc:Work
         rdf:about="">
        <dc:format>image/svg+xml</dc:format>
        <dc:type
           rdf:resource="http://purl.org/dc/dcmitype/StillImage" />
        <dc:title></dc:title>
      </cc:Work>
    </rdf:RDF>
  </metadata>
  <g
     inkscape:groupmode="layer"
     id="layer7"
     inkscape:label="string">
    <path
       style="fill:#502d16;fill-opacity:1;stroke:none"
       id="path7117"
       d="m 558.76062,400.02207 c 2.27477,1.99413 4.37944,4.30722 6.48241,6.62902 2.65311,3.05534 4.48622,6.97382 6.01136,11.21383 1.65207,4.96412 1.93061,10.42319 2.13234,15.8043 0.1882,7.20875 -1.39628,14.03049 -3.36065,20.59326 -1.8607,5.40163 -3.92051,10.74292 -6.66846,15.3863 -1.63312,2.75959 -3.18846,4.82511 -4.99669,7.36593 -5.30381,7.27891 -11.29375,13.46505 -16.73111,20.54305 -3.14248,3.9903 -5.76294,8.67071 -7.72295,13.91732 -0.9889,2.67687 -1.23699,5.60833 -1.33249,8.56674 0.11382,3.95123 0.85075,7.812 1.34971,11.6933 0.386,4.77771 1.54557,9.3218 2.49351,13.91741 0.95569,3.59477 1.7354,7.27485 2.67226,10.87786 0.61726,2.34363 1.16779,4.71999 1.77097,7.07013 0.7508,1.85378 1.12643,3.89674 1.6128,5.89013 0.5061,1.72051 0.71425,3.54134 0.83346,5.38022 0.1681,2.01388 0.0184,3.97739 -0.4553,5.88748 -0.37175,1.61812 -0.82348,3.19045 -1.25991,4.77585 -0.45474,1.89785 -1.24462,3.53284 -2.08992,5.12708 -1.17807,2.24065 -2.42551,4.40047 -3.74466,6.48244 -1.4269,2.06059 -2.90634,4.04838 -4.39283,6.02534 -1.23753,1.57476 -2.52845,3.069 -3.85925,4.48814 -0.91312,0.91528 -1.83296,1.81632 -2.76452,2.69533 0,0 -9.95262,5.35086 -9.95262,5.35086 l 0,0 c 0.99714,-0.74037 1.85066,-1.74965 2.81572,-2.55206 1.34078,-1.4123 2.67422,-2.82369 3.92876,-4.38692 1.54771,-1.86846 2.92802,-3.97656 4.44246,-5.8933 1.32843,-2.02131 2.62867,-4.08746 3.73408,-6.36045 0.85519,-1.45735 1.7464,-2.96228 2.18521,-4.76025 0.50785,-1.53177 0.91197,-3.12363 1.27818,-4.72758 0.51238,-1.72704 0.87112,-3.39792 0.66735,-5.30246 -0.0851,-1.72286 -0.23388,-3.43725 -0.70775,-5.05064 -0.49353,-1.98153 -0.79643,-4.05431 -1.58668,-5.88219 -0.61825,-2.34868 -1.12475,-4.75376 -1.7224,-7.11335 -0.92964,-3.65038 -1.6664,-7.39225 -2.64448,-11.02076 -0.90133,-4.65913 -2.14869,-9.22183 -2.54294,-14.04094 -0.49772,-3.97388 -1.25781,-7.89065 -1.54466,-11.90827 0.0777,-3.13509 0.22831,-6.29489 1.20441,-9.18162 1.93754,-5.48116 4.61098,-10.3893 7.83809,-14.53621 5.4286,-7.1328 11.42978,-13.32618 16.8036,-20.536 1.66361,-2.2978 3.46385,-4.69135 4.99784,-7.1687 2.78134,-4.49182 4.83933,-9.71158 6.71061,-15.01017 2.02201,-6.5436 3.53916,-12.69515 3.44836,-19.92691 -0.18133,-5.17932 -0.40559,-10.44784 -1.95753,-15.24808 -1.46234,-4.04593 -3.25026,-7.7511 -5.80259,-10.6349 -2.14628,-2.30887 -4.2993,-4.59428 -6.61891,-6.56316 0,0 9.04581,-7.8764 9.04581,-7.8764 z"
       inkscape:connector-curvature="0" />
  </g>
  <g
     inkscape:label="Layer 1"
     inkscape:groupmode="layer"
     id="layer1">
    <path
       sodipodi:type="arc"
       style="fill:#ff2013;fill-opacity:1;stroke:none"
       id="path6396"
       sodipodi:cx="297.5"
       sodipodi:cy="294.86218"
       sodipodi:rx="71.5"
       sodipodi:ry="82.5"
       d="m 226.01309,296.4406 a 71.5,82.5 0 1 1 0.11223,3.30397"
       sodipodi:start="3.1224592"
       sodipodi:end="9.3655629"
       sodipodi:open="true"
       transform="matrix(0.76923163,0,0,0.87878831,92.153589,0.740741)" />
    <path
       sodipodi:type="arc"
       style="fill:#ff414a;fill-opacity:1;stroke:none"
       id="path6396-8"
       sodipodi:cx="297.5"
       sodipodi:cy="294.86218"
       sodipodi:rx="71.5"
       sodipodi:ry="82.5"
       d="m 226.01309,296.4406 a 71.5,82.5 0 1 1 0.11223,3.30397"
       sodipodi:start="3.1224592"
       sodipodi:end="9.3655629"
       sodipodi:open="true"
       transform="matrix(0.69930182,0,0,0.82424304,117.95771,15.824091)" />
    <path
       sodipodi:type="arc"
       style="fill:#20ff2f;fill-opacity:1;stroke:none"
       id="path6396-7"
       sodipodi:cx="297.5"
       sodipodi:cy="294.86218"
       sodipodi:rx="71.5"
       sodipodi:ry="82.5"
       d="m 226.01309,296.4406 a 71.5,82.5 0 1 1 0.11223,3.30397"
       sodipodi:start="3.1224592"
       sodipodi:end="9.3655629"
       sodipodi:open="true"
       transform="matrix(0.76923163,0,0,0.87878831,179.15359,27.24076)" />
    <path
       sodipodi:type="arc"
       style="fill:#74ff2f;fill-opacity:1;stroke:none"
       id="path6396-8-4"
       sodipodi:cx="297.5"
       sodipodi:cy="294.86218"
       sodipodi:rx="71.5"
       sodipodi:ry="82.5"
       d="m 226.01309,296.4406 a 71.5,82.5 0 1 1 0.11223,3.30397"
       sodipodi:start="3.1224592"
       sodipodi:end="9.3655629"
       sodipodi:open="true"
       transform="matrix(0.69930182,0,0,0.82424304,204.95771,42.32411)" />
    <path
       sodipodi:type="arc"
       style="fill:#4a8cff;fill-opacity:1;stroke:none"
       id="path6396-7-7"
       sodipodi:cx="297.5"
       sodipodi:cy="294.86218"
       sodipodi:rx="71.5"
       sodipodi:ry="82.5"
       d="m 226.01309,296.4406 a 71.5,82.5 0 1 1 0.11223,3.30397"
       sodipodi:start="3.1224592"
       sodipodi:end="9.3655629"
       sodipodi:open="true"
       transform="matrix(0.76923163,0,0,0.87878831,205.15359,90.24076)" />
    <path
       sodipodi:type="arc"
       style="fill:#4affff;fill-opacity:1;stroke:none"
       id="path6396-8-4-9"
       sodipodi:cx="297.5"
       sodipodi:cy="294.86218"
       sodipodi:rx="71.5"
       sodipodi:ry="82.5"
       d="m 226.01309,296.4406 a 71.5,82.5 0 1 1 0.11223,3.30397"
       sodipodi:start="3.1224592"
       sodipodi:end="9.3655629"
       sodipodi:open="true"
       transform="matrix(0.69930182,0,0,0.82424304,230.95771,105.32411)" />
    <path
       sodipodi:type="arc"
       style="fill:#ffc42f;fill-opacity:1;stroke:none"
       id="path6396-7-3"
       sodipodi:cx="297.5"
       sodipodi:cy="294.86218"
       sodipodi:rx="71.5"
       sodipodi:ry="82.5"
       d="m 226.01309,296.4406 a 71.5,82.5 0 1 1 0.11223,3.30397"
       sodipodi:start="3.1224592"
       sodipodi:end="9.3655629"
       sodipodi:open="true"
       transform="matrix(0.76923163,0,0,0.87878831,9.153589,60.24076)" />
    <path
       sodipodi:type="arc"
       style="fill:#ffec2f;fill-opacity:1;stroke:none"
       id="path6396-8-4-1"
       sodipodi:cx="297.5"
       sodipodi:cy="294.86218"
       sodipodi:rx="71.5"
       sodipodi:ry="82.5"
       d="m 226.01309,296.4406 a 71.5,82.5 0 1 1 0.11223,3.30397"
       sodipodi:start="3.1224592"
       sodipodi:end="9.3655629"
       sodipodi:open="true"
       transform="matrix(0.69930182,0,0,0.82424304,34.957709,75.32411)" />
    <path
       sodipodi:type="arc"
       style="fill:#a200ff;fill-opacity:1;stroke:none"
       id="path6396-7-9"
       sodipodi:cx="297.5"
       sodipodi:cy="294.86218"
       sodipodi:rx="71.5"
       sodipodi:ry="82.5"
       d="m 226.01309,296.4406 a 71.5,82.5 0 1 1 0.11223,3.30397"
       sodipodi:start="3.1224592"
       sodipodi:end="9.3655629"
       sodipodi:open="true"
       transform="matrix(0.76923163,0,0,0.87878831,126.15359,89.24076)" />
    <path
       sodipodi:type="arc"
       style="fill:#ff00ff;fill-opacity:1;stroke:none"
       id="path6396-8-4-8"
       sodipodi:cx="297.5"
       sodipodi:cy="294.86218"
       sodipodi:rx="71.5"
       sodipodi:ry="82.5"
       d="m 226.01309,296.4406 a 71.5,82.5 0 1 1 0.11223,3.30397"
       sodipodi:start="3.1224592"
       sodipodi:end="9.3655629"
       sodipodi:open="true"
       transform="matrix(0.69930182,0,0,0.82424304,151.95771,104.32411)" />
    <path
       sodipodi:type="arc"
       style="fill:#ff7100;fill-opacity:1;stroke:none"
       id="path6396-7-3-3"
       sodipodi:cx="297.5"
       sodipodi:cy="294.86218"
       sodipodi:rx="71.5"
       sodipodi:ry="82.5"
       d="m 226.01309,296.4406 a 71.5,82.5 0 1 1 0.11223,3.30397"
       sodipodi:start="3.1224592"
       sodipodi:end="9.3655629"
       sodipodi:open="true"
       transform="matrix(0.76923163,0,0,0.87878831,43.65359,117.99077)" />
    <path
       sodipodi:type="arc"
       style="fill:#ff9600;fill-opacity:1;stroke:none"
       id="path6396-8-4-1-8"
       sodipodi:cx="297.5"
       sodipodi:cy="294.86218"
       sodipodi:rx="71.5"
       sodipodi:ry="82.5"
       d="m 226.01309,296.4406 a 71.5,82.5 0 1 1 0.11223,3.30397"
       sodipodi:start="3.1224592"
       sodipodi:end="9.3655629"
       sodipodi:open="true"
       transform="matrix(0.69930182,0,0,0.82424304,69.45771,133.07411)" />
  </g>
</svg>
