<?xml version="1.0" encoding="UTF-8" standalone="no"?>
<!-- Created with Inkscape (http://www.inkscape.org/) -->

<svg
   xmlns:dc="http://purl.org/dc/elements/1.1/"
   xmlns:cc="http://creativecommons.org/ns#"
   xmlns:rdf="http://www.w3.org/1999/02/22-rdf-syntax-ns#"
   xmlns:svg="http://www.w3.org/2000/svg"
   xmlns="http://www.w3.org/2000/svg"
   xmlns:sodipodi="http://sodipodi.sourceforge.net/DTD/sodipodi-0.dtd"
   xmlns:inkscape="http://www.inkscape.org/namespaces/inkscape"
   width="744.09448819"
   height="1052.3622047"
   id="svg7119"
   version="1.1"
   inkscape:version="0.48.5 r10040"
   sodipodi:docname="New document 32">
  <defs
     id="defs7121">
    <inkscape:perspective
       sodipodi:type="inkscape:persp3d"
       inkscape:vp_x="0 : 526.18109 : 1"
       inkscape:vp_y="0 : 1000 : 0"
       inkscape:vp_z="744.09448 : 526.18109 : 1"
       inkscape:persp3d-origin="372.04724 : 350.78739 : 1"
       id="perspective7129" />
  </defs>
  <sodipodi:namedview
     id="base"
     pagecolor="#ffffff"
     bordercolor="#666666"
     borderopacity="1.0"
     inkscape:pageopacity="0.0"
     inkscape:pageshadow="2"
     inkscape:zoom="1"
     inkscape:cx="209"
     inkscape:cy="770.08843"
     inkscape:document-units="px"
     inkscape:current-layer="layer1"
     showgrid="false"
     inkscape:window-width="1920"
     inkscape:window-height="1017"
     inkscape:window-x="-8"
     inkscape:window-y="-8"
     inkscape:window-maximized="1" />
  <metadata
     id="metadata7124">
    <rdf:RDF>
      <cc:Work
         rdf:about="">
        <dc:format>image/svg+xml</dc:format>
        <dc:type
           rdf:resource="http://purl.org/dc/dcmitype/StillImage" />
        <dc:title></dc:title>
      </cc:Work>
    </rdf:RDF>
  </metadata>
  <g
     inkscape:label="Layer 1"
     inkscape:groupmode="layer"
     id="layer1">
    <rect
       style="fill:#502d16;fill-opacity:1;stroke:none"
       id="rect7145"
       width="444"
       height="23"
       x="-89.699646"
       y="416.02228"
       ry="9"
       transform="matrix(0.89100653,-0.4539905,0.4539905,0.89100653,0,0)" />
    <rect
       style="fill:#803300;fill-opacity:1;stroke:none"
       id="rect7145-9"
       width="436"
       height="20"
       x="-93.531601"
       y="419.56625"
       ry="7.826087"
       transform="matrix(0.89100653,-0.4539905,0.4539905,0.89100653,0,0)" />
    <path
       sodipodi:type="arc"
       style="fill:#806600;fill-opacity:1;stroke:none"
       id="path7169"
       sodipodi:cx="114"
       sodipodi:cy="430.86218"
       sodipodi:rx="53"
       sodipodi:ry="56.5"
       d="m 61.009701,431.94316 a 53,56.5 0 0 0 0.08319,2.26272"
       sodipodi:start="3.1224592"
       sodipodi:end="3.0823776"
       sodipodi:open="true" />
    <rect
       style="fill:#806600;fill-opacity:1;stroke:none"
       id="rect7171"
       width="98.861343"
       height="109.63525"
       x="-261.08868"
       y="370.8949"
       ry="5.4903879"
       transform="matrix(0.8423807,-0.53888288,0.58324972,0.8122929,0,0)" />
    <path
       transform="translate(5.20736,2.69833)"
       sodipodi:type="arc"
       style="fill:#aa8800;fill-opacity:1;stroke:none"
       id="path7169-3"
       sodipodi:cx="114"
       sodipodi:cy="430.86218"
       sodipodi:rx="53"
       sodipodi:ry="56.5"
       d="m 61.009701,431.94316 a 53,56.5 0 1 1 0.08319,2.26272"
       sodipodi:start="3.1224592"
       sodipodi:end="9.3655629"
       sodipodi:open="true" />
    <rect
       style="fill:#aa8800;fill-opacity:1;stroke:none"
       id="rect7171-4"
       width="98.861343"
       height="109.63525"
       x="-258.42877"
       y="375.98138"
       ry="5.4903879"
       transform="matrix(0.8423807,-0.53888288,0.58324972,0.8122929,0,0)" />
    <path
       style="fill:#806600;fill-opacity:1;stroke:none"
       id="path7196"
       d="m 84.919965,388.64448 c 0.411498,3.05311 1.16932,5.96012 2.028547,8.83115 0.650574,2.68931 1.341032,5.35188 2.401774,7.80703 1.066042,2.41137 2.220892,4.72749 3.224475,7.18805 0.787945,2.67523 1.973829,5.08952 3.233658,7.40674 1.391645,2.59302 2.94111,4.99914 4.497671,7.41638 1.67825,2.53247 3.68482,4.61537 5.44776,7.02972 1.19586,1.5727 2.3057,3.17158 3.68329,4.45616 1.12226,1.41179 2.4021,2.52838 3.62032,3.76491 1.18391,0.82021 1.84145,2.40875 2.72082,3.66963 1.08117,0.95825 1.99334,2.16103 2.88043,3.41841 1.2192,1.2783 2.21104,2.88141 3.37212,4.23918 1.15626,1.04268 2.33364,2.08154 3.34752,3.36686 1.06315,0.94749 2.11206,1.84591 3.0291,3.0514 1.15509,1.08625 2.33781,2.05781 3.36362,3.37097 1.02009,1.2445 2.10255,2.34348 3.28048,3.31219 0.91989,1.17106 1.9917,2.04672 2.991,3.06835 1.10329,0.73913 2.26425,1.42268 3.4531,1.90899 1.2946,0.6367 2.66501,1.05014 3.96603,1.68014 1.54588,0.73445 3.17913,0.93613 4.80526,1.0627 0.84977,0.0545 1.70051,0.0642 2.55103,0.0762 0,0 -10.32098,9.93834 -10.32098,9.93834 l 0,0 c -0.86616,-0.0306 -1.73283,-0.059 -2.59656,-0.158 -1.69746,-0.22255 -3.37596,-0.60313 -4.98729,-1.37563 -1.35217,-0.50011 -2.65902,-1.14749 -3.99725,-1.70561 -1.2574,-0.65518 -2.55747,-1.27249 -3.66547,-2.3173 -1.02593,-0.93477 -1.96463,-1.99419 -2.94975,-3.00235 -1.1896,-1.09047 -2.33152,-2.23636 -3.38474,-3.55609 -1.06364,-1.24299 -2.30341,-2.15539 -3.37654,-3.38107 -0.94729,-1.12226 -2.05903,-1.93065 -3.02363,-3.02257 -1.06039,-1.21398 -2.22571,-2.24393 -3.32902,-3.38586 -1.1423,-1.43682 -2.22133,-2.96185 -3.41382,-4.32959 -0.92539,-1.23817 -1.93305,-2.32575 -2.93105,-3.45686 -0.79343,-1.22487 -1.47637,-2.58167 -2.57124,-3.37861 -1.2453,-1.17653 -2.398988,-2.48451 -3.586498,-3.76238 -1.413636,-1.36632 -2.539903,-3.09715 -3.767293,-4.74146 -1.783042,-2.42401 -3.752708,-4.60147 -5.456613,-7.13493 -1.609234,-2.42591 -3.152494,-4.90306 -4.569338,-7.53457 -1.293242,-2.37463 -2.54744,-4.82129 -3.348021,-7.57215 -0.996537,-2.44843 -2.130992,-4.76291 -3.189823,-7.16307 -1.09747,-2.52414 -1.868708,-5.23161 -2.502484,-8.02001 -0.852503,-2.92484 -1.60997,-5.876 -2.133174,-8.9404 0,0 11.202579,-8.12499 11.202579,-8.12499 z"
       inkscape:connector-curvature="0" />
    <path
       style="fill:#806600;fill-opacity:1;stroke:none"
       id="path7198"
       d="m 21.605883,458.21668 c -3.790862,2.18257 -15.1438553,8.764 -11.372587,6.54773 21.72089,-12.76473 15.635429,-8.84585 2.858308,-1.71271 -0.458922,0.2562 0.875425,-0.58229 1.302857,-0.88815 0.411673,-0.29459 1.930243,-1.45969 2.358064,-1.7866 1.54968,-1.2169 3.089943,-2.45673 4.497257,-3.83789 1.161366,-0.92564 2.367811,-1.79813 3.563684,-2.68219 5.648097,-3.96391 11.856429,-7.20193 17.786455,-10.63644 -22.015501,12.55872 -12.509467,7.45569 -7.814277,4.19675 0.223441,-0.15094 0.446881,-0.30188 0.670321,-0.45282 0,0 13.788596,-5.54539 13.788596,-5.54539 l 0,0 c -0.207645,0.19923 -0.415289,0.39845 -0.622933,0.59767 -5.793433,3.57382 -11.073072,7.95432 -17.543096,10.52092 21.815739,-12.67323 12.347026,-7.28504 7.549721,-4.17823 -1.178182,0.90506 -2.298659,1.87652 -3.606496,2.57478 -1.576855,1.24843 -2.909726,2.80248 -4.548072,3.99592 -1.227453,0.88055 -2.363478,2.00287 -3.657099,2.77883 -4.627114,2.77551 -9.365594,5.36435 -13.963862,8.18739 -1.494454,0.9175 36.475965,-21.20734 -2.783966,1.6545 0,0 11.537125,-9.33407 11.537125,-9.33407 z"
       inkscape:connector-curvature="0" />
    <path
       style="fill:#806600;fill-opacity:1;stroke:none"
       id="path7200"
       d="m 40.722747,482.59145 c 1.311979,-0.67215 2.834446,-0.83378 4.17977,-1.39679 0.875902,-0.36657 1.656818,-0.92804 2.486582,-1.38963 -3.839996,2.20061 -7.679993,4.40123 -11.519989,6.60184 1.825651,-1.21443 3.511455,-2.63578 5.036095,-4.2098 1.296758,-1.47182 2.604968,-2.88741 4.158475,-4.09356 1.42564,-1.28637 2.70405,-2.66338 4.240649,-3.82538 4.933563,-3.75872 10.5489,-6.23878 15.864052,-9.55593 3.91216,-2.44155 -7.984765,4.61616 -11.988988,6.9036 -0.237272,0.13554 0.458006,-0.29818 0.687009,-0.44728 1.330088,-0.77721 2.463596,-1.82724 3.673126,-2.77231 0.678112,-0.43795 1.302685,-0.94784 1.957194,-1.41919 0,0 13.778323,-5.58828 13.778323,-5.58828 l 0,0 c -0.597884,0.60759 -1.273631,1.01171 -1.896753,1.59202 -1.363623,0.76372 -2.448381,1.85698 -3.642752,2.83931 -5.167421,2.82777 -2.129852,1.15682 -14.118356,8.22374 -3.953483,2.33048 7.918666,-4.64114 11.890309,-6.94053 0.269949,-0.15629 -0.53381,0.32458 -0.784193,0.51061 -1.670632,1.24124 0.174516,0.0834 -1.641504,1.16061 -0.731129,0.56486 -1.557901,1.04836 -2.268752,1.63196 -0.867112,0.71188 -0.500731,0.58955 -1.268715,1.44783 -0.220266,0.24616 -0.477802,0.45624 -0.716702,0.68436 -1.449979,1.29085 -3.176476,2.26479 -4.217025,3.9835 -1.633802,1.53509 -3.141742,3.19738 -4.954488,4.54719 -7.141547,4.13289 -13.007155,8.40141 -20.70422,10.5751 0,0 11.770853,-9.06299 11.770853,-9.06299 z"
       inkscape:connector-curvature="0" />
    <path
       style="fill:#806600;fill-opacity:1;stroke:none"
       id="path7202"
       d="m 49.834667,517.54231 c 2.464691,-1.90323 5.148808,-3.4845 7.646922,-5.3452 2.337719,-1.76765 4.169289,-4.00935 5.848888,-6.38378 1.260329,-1.71324 2.285211,-3.58162 3.518182,-5.3125 0.901857,-1.26466 1.915512,-2.45843 3.044511,-3.5255 1.303632,-1.05215 2.65602,-2.01975 3.878156,-3.17053 1.614195,-1.36947 3.274216,-2.68368 4.898518,-4.04058 1.308893,-1.05948 2.533618,-2.21326 3.802706,-3.3191 0.199823,-0.20234 0.399646,-0.40468 0.59947,-0.60701 0,0 13.750214,-5.637 13.750214,-5.637 l 0,0 c -0.210145,0.17883 -0.420289,0.35766 -0.630434,0.53649 -1.098927,1.32745 -2.575904,2.26021 -3.749542,3.51914 -1.701828,1.23789 -3.250225,2.66713 -4.899198,3.97865 -1.33133,1.00234 -2.35421,2.38461 -3.879716,3.1328 -1.178353,0.97685 -2.192329,2.04735 -3.199161,3.19567 -1.178811,1.78858 -2.411976,3.54624 -3.595154,5.32885 -1.602136,2.52653 -3.43514,4.86991 -5.694678,6.84048 -2.417303,1.91499 -4.991218,3.57621 -7.573611,5.2527 0,0 -13.766073,5.55642 -13.766073,5.55642 z"
       inkscape:connector-curvature="0" />
  </g>
</svg>
