<?xml version="1.0" encoding="UTF-8" standalone="no"?>
<!-- Created with Inkscape (http://www.inkscape.org/) -->

<svg
   xmlns:dc="http://purl.org/dc/elements/1.1/"
   xmlns:cc="http://creativecommons.org/ns#"
   xmlns:rdf="http://www.w3.org/1999/02/22-rdf-syntax-ns#"
   xmlns:svg="http://www.w3.org/2000/svg"
   xmlns="http://www.w3.org/2000/svg"
   xmlns:sodipodi="http://sodipodi.sourceforge.net/DTD/sodipodi-0.dtd"
   xmlns:inkscape="http://www.inkscape.org/namespaces/inkscape"
   width="744.09448819"
   height="1052.3622047"
   id="svg5452"
   version="1.1"
   inkscape:version="0.48.5 r10040"
   sodipodi:docname="New document 22">
  <defs
     id="defs5454" />
  <sodipodi:namedview
     id="base"
     pagecolor="#ffffff"
     bordercolor="#666666"
     borderopacity="1.0"
     inkscape:pageopacity="0.0"
     inkscape:pageshadow="2"
     inkscape:zoom="0.98994949"
     inkscape:cx="217.4162"
     inkscape:cy="520"
     inkscape:document-units="px"
     inkscape:current-layer="layer1"
     showgrid="false"
     inkscape:window-width="1920"
     inkscape:window-height="1017"
     inkscape:window-x="-8"
     inkscape:window-y="-8"
     inkscape:window-maximized="1" />
  <metadata
     id="metadata5457">
    <rdf:RDF>
      <cc:Work
         rdf:about="">
        <dc:format>image/svg+xml</dc:format>
        <dc:type
           rdf:resource="http://purl.org/dc/dcmitype/StillImage" />
        <dc:title></dc:title>
      </cc:Work>
    </rdf:RDF>
  </metadata>
  <g
     inkscape:label="Layer 1"
     inkscape:groupmode="layer"
     id="layer1">
    <rect
       style="fill:#008000;fill-opacity:1;fill-rule:nonzero;stroke:none"
       id="rect5505"
       width="77.569656"
       height="356.58383"
       x="226.9929"
       y="346.26556"
       rx="7.485033"
       ry="43.358238" />
    <rect
       style="fill:#008000;fill-opacity:1;fill-rule:nonzero;stroke:none"
       id="rect5505-0"
       width="62.378731"
       height="295.06479"
       x="422.04648"
       y="-423.62167"
       rx="6.0191951"
       ry="35.87793"
       transform="matrix(-0.01099025,0.99993961,-0.99997474,-0.00710713,0,0)" />
    <rect
       style="fill:#008000;fill-opacity:1;fill-rule:nonzero;stroke:none"
       id="rect5505-0-0"
       width="51.615398"
       height="104.30529"
       x="128.66307"
       y="378.47485"
       rx="4.9805942"
       ry="12.682835"
       transform="matrix(0.99998978,0.00452144,-0.01524965,0.99988372,0,0)" />
    <rect
       style="fill:#008000;fill-opacity:1;fill-rule:nonzero;stroke:none"
       id="rect5505-0-0-1"
       width="51.615398"
       height="104.30529"
       x="374.29288"
       y="377.8237"
       rx="4.9805942"
       ry="12.682835"
       transform="matrix(0.99998978,0.00452144,-0.01524965,0.99988372,0,0)" />
    <rect
       style="fill:#00bb00;fill-opacity:1;fill-rule:nonzero;stroke:none"
       id="rect5505-4"
       width="76.256981"
       height="357.59399"
       x="222.17703"
       y="346.77063"
       rx="7.3583674"
       ry="43.481068" />
    <rect
       style="fill:#00bb00;fill-opacity:1;fill-rule:nonzero;stroke:none"
       id="rect5505-0-6"
       width="62.555294"
       height="290.07184"
       x="422.77234"
       y="-415.47369"
       rx="6.0362325"
       ry="35.270821"
       transform="matrix(-0.01077377,0.99994196,-0.99997372,-0.00724994,0,0)" />
    <rect
       style="fill:#00bb00;fill-opacity:1;fill-rule:nonzero;stroke:none"
       id="rect5505-0-0-0"
       width="50.741955"
       height="104.6003"
       x="121.46383"
       y="379.09256"
       rx="4.8963118"
       ry="12.718705"
       transform="matrix(0.99998936,0.0046123,-0.0149493,0.99988825,0,0)" />
    <rect
       style="fill:#00bb00;fill-opacity:1;fill-rule:nonzero;stroke:none"
       id="rect5505-0-0-1-7"
       width="50.741955"
       height="104.6003"
       x="366.97742"
       y="378.42093"
       rx="4.8963118"
       ry="12.718705"
       transform="matrix(0.99998936,0.0046123,-0.0149493,0.99988825,0,0)" />
    <path
       sodipodi:type="arc"
       style="fill:#008000;fill-opacity:1;fill-rule:nonzero;stroke:none"
       id="path6096"
       sodipodi:cx="251.52798"
       sodipodi:cy="528.09302"
       sodipodi:rx="6.0609155"
       sodipodi:ry="160.61426"
       d="m 257.5889,528.09302 a 6.0609155,160.61426 0 1 1 -12.12183,0 6.0609155,160.61426 0 1 1 12.12183,0 z" />
    <path
       transform="translate(23.233511,-1.286817e-6)"
       sodipodi:type="arc"
       style="fill:#008000;fill-opacity:1;fill-rule:nonzero;stroke:none"
       id="path6096-1"
       sodipodi:cx="251.52798"
       sodipodi:cy="528.09302"
       sodipodi:rx="6.0609155"
       sodipodi:ry="160.61426"
       d="m 257.5889,528.09302 a 6.0609155,160.61426 0 1 1 -12.12183,0 6.0609155,160.61426 0 1 1 12.12183,0 z" />
    <path
       transform="matrix(1,0,0,0.24842769,-118.18785,299.42037)"
       sodipodi:type="arc"
       style="fill:#008000;fill-opacity:1;fill-rule:nonzero;stroke:none"
       id="path6096-7"
       sodipodi:cx="251.52798"
       sodipodi:cy="528.09302"
       sodipodi:rx="6.0609155"
       sodipodi:ry="160.61426"
       d="m 257.5889,528.09302 a 6.0609155,160.61426 0 1 1 -12.12183,0 6.0609155,160.61426 0 1 1 12.12183,0 z" />
    <path
       transform="matrix(1,0,0,0.24842769,-100.0051,299.92544)"
       sodipodi:type="arc"
       style="fill:#008000;fill-opacity:1;fill-rule:nonzero;stroke:none"
       id="path6096-7-7"
       sodipodi:cx="251.52798"
       sodipodi:cy="528.09302"
       sodipodi:rx="6.0609155"
       sodipodi:ry="160.61426"
       d="m 257.5889,528.09302 a 6.0609155,160.61426 0 1 1 -12.12183,0 6.0609155,160.61426 0 1 1 12.12183,0 z" />
    <rect
       style="fill:#00bb00;fill-opacity:1;fill-rule:nonzero;stroke:none"
       id="rect5505-0-0-0-7"
       width="50.741955"
       height="104.6003"
       x="364.90988"
       y="377.0661"
       rx="4.8963118"
       ry="12.718705"
       transform="matrix(0.99998936,0.0046123,-0.0149493,0.99988825,0,0)" />
    <path
       transform="matrix(1,0,0,0.24842769,125.28589,298.51699)"
       sodipodi:type="arc"
       style="fill:#008000;fill-opacity:1;fill-rule:nonzero;stroke:none"
       id="path6096-7-73"
       sodipodi:cx="251.52798"
       sodipodi:cy="528.09302"
       sodipodi:rx="6.0609155"
       sodipodi:ry="160.61426"
       d="m 257.5889,528.09302 a 6.0609155,160.61426 0 1 1 -12.12183,0 6.0609155,160.61426 0 1 1 12.12183,0 z" />
    <path
       transform="matrix(1,0,0,0.24842769,143.46864,299.02206)"
       sodipodi:type="arc"
       style="fill:#008000;fill-opacity:1;fill-rule:nonzero;stroke:none"
       id="path6096-7-7-3"
       sodipodi:cx="251.52798"
       sodipodi:cy="528.09302"
       sodipodi:rx="6.0609155"
       sodipodi:ry="160.61426"
       d="m 257.5889,528.09302 a 6.0609155,160.61426 0 1 1 -12.12183,0 6.0609155,160.61426 0 1 1 12.12183,0 z" />
  </g>
</svg>
