<?xml version="1.0" encoding="UTF-8" standalone="no"?>
<!-- Created with Inkscape (http://www.inkscape.org/) -->

<svg
   xmlns:dc="http://purl.org/dc/elements/1.1/"
   xmlns:cc="http://creativecommons.org/ns#"
   xmlns:rdf="http://www.w3.org/1999/02/22-rdf-syntax-ns#"
   xmlns:svg="http://www.w3.org/2000/svg"
   xmlns="http://www.w3.org/2000/svg"
   xmlns:sodipodi="http://sodipodi.sourceforge.net/DTD/sodipodi-0.dtd"
   xmlns:inkscape="http://www.inkscape.org/namespaces/inkscape"
   width="744.09448819"
   height="1052.3622047"
   id="svg9721"
   version="1.1"
   inkscape:version="0.48.5 r10040"
   sodipodi:docname="New document 67">
  <defs
     id="defs9723" />
  <sodipodi:namedview
     id="base"
     pagecolor="#ffffff"
     bordercolor="#666666"
     borderopacity="1.0"
     inkscape:pageopacity="0.0"
     inkscape:pageshadow="2"
     inkscape:zoom="1"
     inkscape:cx="260"
     inkscape:cy="754.28571"
     inkscape:document-units="px"
     inkscape:current-layer="layer15"
     showgrid="false"
     inkscape:window-width="1920"
     inkscape:window-height="1017"
     inkscape:window-x="-8"
     inkscape:window-y="-8"
     inkscape:window-maximized="1" />
  <metadata
     id="metadata9726">
    <rdf:RDF>
      <cc:Work
         rdf:about="">
        <dc:format>image/svg+xml</dc:format>
        <dc:type
           rdf:resource="http://purl.org/dc/dcmitype/StillImage" />
        <dc:title></dc:title>
      </cc:Work>
    </rdf:RDF>
  </metadata>
  <g
     inkscape:label="Layer 1"
     inkscape:groupmode="layer"
     id="layer1">
    <rect
       style="fill:#550000;fill-opacity:1;stroke:none"
       id="rect9729"
       width="460"
       height="36"
       x="96"
       y="320.36218"
       ry="1.1236925" />
    <rect
       style="fill:#800000;fill-opacity:1;stroke:none"
       id="rect9729-9"
       width="437"
       height="29"
       x="107"
       y="323.36218"
       ry="0.90519673" />
  </g>
  <g
     inkscape:groupmode="layer"
     id="layer15"
     inkscape:label="fringe">
    <path
       style="fill:#bc9600;fill-opacity:1;stroke:none"
       d="m 96.04204,351.1006 c 0,0 -30,12 -37,7 -7,-5 19,-20 37,-7 z"
       id="path10257"
       inkscape:connector-curvature="0" />
    <path
       style="fill:#bc9600;fill-opacity:1;stroke:none"
       d="m 96.12611,338.57744 c 0,0 -30,12 -37,7 -7,-5 19,-20 37,-7 z"
       id="path10257-7"
       inkscape:connector-curvature="0" />
    <path
       style="fill:#bc9600;fill-opacity:1;stroke:none"
       d="m 96.12611,326.57744 c 0,0 -30,12 -37,7 -7,-5 19,-20 37,-7 z"
       id="path10257-3"
       inkscape:connector-curvature="0" />
    <path
       style="fill:#bc9600;fill-opacity:1;stroke:none"
       d="m 594.04203,347.1006 c 0,0 -30,12 -37,7 -7,-5 19,-20 37,-7 z"
       id="path10257-72"
       inkscape:connector-curvature="0" />
    <path
       style="fill:#bc9600;fill-opacity:1;stroke:none"
       d="m 594.12611,334.57744 c 0,0 -30.00001,12 -37.00001,7 -7,-5 19,-20 37.00001,-7 z"
       id="path10257-7-6"
       inkscape:connector-curvature="0" />
    <path
       style="fill:#bc9600;fill-opacity:1;stroke:none"
       d="m 594.12611,322.57744 c 0,0 -30.00001,12 -37.00001,7 -7,-5 19,-20 37.00001,-7 z"
       id="path10257-3-0"
       inkscape:connector-curvature="0" />
  </g>
</svg>
