<?xml version="1.0" encoding="UTF-8" standalone="no"?>
<!-- Created with Inkscape (http://www.inkscape.org/) -->

<svg
   xmlns:dc="http://purl.org/dc/elements/1.1/"
   xmlns:cc="http://creativecommons.org/ns#"
   xmlns:rdf="http://www.w3.org/1999/02/22-rdf-syntax-ns#"
   xmlns:svg="http://www.w3.org/2000/svg"
   xmlns="http://www.w3.org/2000/svg"
   xmlns:sodipodi="http://sodipodi.sourceforge.net/DTD/sodipodi-0.dtd"
   xmlns:inkscape="http://www.inkscape.org/namespaces/inkscape"
   width="744.09448819"
   height="1052.3622047"
   id="svg4295"
   version="1.1"
   inkscape:version="0.48.5 r10040"
   sodipodi:docname="cow.svg">
  <defs
     id="defs4297" />
  <sodipodi:namedview
     id="base"
     pagecolor="#ffffff"
     bordercolor="#666666"
     borderopacity="1.0"
     inkscape:pageopacity="0.0"
     inkscape:pageshadow="2"
     inkscape:zoom="2.8"
     inkscape:cx="205.48766"
     inkscape:cy="534.56007"
     inkscape:document-units="px"
     inkscape:current-layer="layer3"
     showgrid="false"
     inkscape:window-width="1920"
     inkscape:window-height="1017"
     inkscape:window-x="-8"
     inkscape:window-y="-8"
     inkscape:window-maximized="1" />
  <metadata
     id="metadata4300">
    <rdf:RDF>
      <cc:Work
         rdf:about="">
        <dc:format>image/svg+xml</dc:format>
        <dc:type
           rdf:resource="http://purl.org/dc/dcmitype/StillImage" />
        <dc:title></dc:title>
      </cc:Work>
    </rdf:RDF>
  </metadata>
  <g
     inkscape:groupmode="layer"
     id="layer3"
     inkscape:label="leg">
    <path
       sodipodi:type="arc"
       style="fill:#2d2d2d;fill-opacity:1;fill-rule:nonzero;stroke:none"
       id="path5222"
       sodipodi:cx="156.82619"
       sodipodi:cy="598.29858"
       sodipodi:rx="12.374369"
       sodipodi:ry="35.355339"
       d="m 169.20056,598.29858 a 12.374369,35.355339 0 1 1 -24.74874,0 12.374369,35.355339 0 1 1 24.74874,0 z"
       transform="matrix(1.0408163,0,0,1.0857143,-12.461984,-50.272583)" />
    <path
       sodipodi:type="arc"
       style="fill:#2d2d2d;fill-opacity:1;fill-rule:nonzero;stroke:none"
       id="path5222-0"
       sodipodi:cx="156.82619"
       sodipodi:cy="598.29858"
       sodipodi:rx="12.374369"
       sodipodi:ry="35.355339"
       d="m 169.20056,598.29858 a 12.374369,35.355339 0 1 1 -24.74874,0 12.374369,35.355339 0 1 1 24.74874,0 z"
       transform="matrix(1.0408163,0,0,1.0857143,27.431606,-48.461467)" />
    <path
       sodipodi:type="arc"
       style="fill:#2d2d2d;fill-opacity:1;fill-rule:nonzero;stroke:none"
       id="path5222-9"
       sodipodi:cx="156.82619"
       sodipodi:cy="598.29858"
       sodipodi:rx="12.374369"
       sodipodi:ry="35.355339"
       d="m 169.20056,598.29858 a 12.374369,35.355339 0 1 1 -24.74874,0 12.374369,35.355339 0 1 1 24.74874,0 z"
       transform="matrix(1.0408163,0,0,1.0857143,100.30617,-48.930649)" />
    <path
       sodipodi:type="arc"
       style="fill:#2d2d2d;fill-opacity:1;fill-rule:nonzero;stroke:none"
       id="path5222-7"
       sodipodi:cx="156.82619"
       sodipodi:cy="598.29858"
       sodipodi:rx="12.374369"
       sodipodi:ry="35.355339"
       d="m 169.20056,598.29858 a 12.374369,35.355339 0 1 1 -24.74874,0 12.374369,35.355339 0 1 1 24.74874,0 z"
       transform="matrix(1.0408163,0,0,1.0857143,137.5444,-50.864297)" />
    <path
       sodipodi:type="arc"
       style="fill:#cccccc;fill-opacity:1;fill-rule:nonzero;stroke:none"
       id="path5222-3"
       sodipodi:cx="156.82619"
       sodipodi:cy="598.29858"
       sodipodi:rx="12.374369"
       sodipodi:ry="35.355339"
       d="m 169.20056,598.29858 a 12.374369,35.355339 0 1 1 -24.74874,0 12.374369,35.355339 0 1 1 24.74874,0 z"
       transform="matrix(1.0408163,0,0,1.0857143,-13.598405,-54.060662)" />
    <path
       sodipodi:type="arc"
       style="fill:#cccccc;fill-opacity:1;fill-rule:nonzero;stroke:none"
       id="path5222-0-7"
       sodipodi:cx="156.82619"
       sodipodi:cy="598.29858"
       sodipodi:rx="12.374369"
       sodipodi:ry="35.355339"
       d="m 169.20056,598.29858 a 12.374369,35.355339 0 1 1 -24.74874,0 12.374369,35.355339 0 1 1 24.74874,0 z"
       transform="matrix(1.0408163,0,0,1.0857143,26.295184,-52.249538)" />
    <path
       sodipodi:type="arc"
       style="fill:#cccccc;fill-opacity:1;fill-rule:nonzero;stroke:none"
       id="path5222-9-2"
       sodipodi:cx="156.82619"
       sodipodi:cy="598.29858"
       sodipodi:rx="12.374369"
       sodipodi:ry="35.355339"
       d="m 169.20056,598.29858 a 12.374369,35.355339 0 1 1 -24.74874,0 12.374369,35.355339 0 1 1 24.74874,0 z"
       transform="matrix(1.0408163,0,0,1.0857143,99.169746,-52.71872)" />
    <path
       sodipodi:type="arc"
       style="fill:#cccccc;fill-opacity:1;fill-rule:nonzero;stroke:none"
       id="path5222-7-6"
       sodipodi:cx="156.82619"
       sodipodi:cy="598.29858"
       sodipodi:rx="12.374369"
       sodipodi:ry="35.355339"
       d="m 169.20056,598.29858 a 12.374369,35.355339 0 1 1 -24.74874,0 12.374369,35.355339 0 1 1 24.74874,0 z"
       transform="matrix(1.0408163,0,0,1.0857143,136.40798,-54.652371)" />
    <path
       style="fill:#2d2d2d;fill-opacity:1;stroke:none"
       d="m 201.29115,617.12758 -22.50001,1.07143 c 0,0 11.49423,47.85714 22.50001,-1.07143 z"
       id="path5764"
       inkscape:connector-curvature="0"
       sodipodi:nodetypes="ccc" />
    <path
       style="fill:#2d2d2d;fill-opacity:1;stroke:none"
       d="m 161.46973,615.22107 -22.50001,1.07143 c 0,0 11.49423,47.85714 22.50001,-1.07143 z"
       id="path5764-6"
       inkscape:connector-curvature="0"
       sodipodi:nodetypes="ccc" />
    <path
       style="fill:#2d2d2d;fill-opacity:1;stroke:none"
       d="m 273.96973,615.75678 -22.50001,1.07143 c 0,0 11.49423,47.85714 22.50001,-1.07143 z"
       id="path5764-8"
       inkscape:connector-curvature="0"
       sodipodi:nodetypes="ccc" />
    <path
       style="fill:#2d2d2d;fill-opacity:1;stroke:none"
       d="m 311.29116,615.0425 -22.50001,1.07143 c 0,0 11.49423,47.85714 22.50001,-1.07143 z"
       id="path5764-5"
       inkscape:connector-curvature="0"
       sodipodi:nodetypes="ccc" />
    <path
       sodipodi:type="arc"
       style="fill:#ffc1aa;fill-opacity:1;stroke:none"
       id="path5858"
       sodipodi:cx="395.72726"
       sodipodi:cy="498.79858"
       sodipodi:rx="24.496199"
       sodipodi:ry="27.274118"
       d="m 420.22346,498.79858 a 24.496199,27.274118 0 1 1 -48.99239,0 24.496199,27.274118 0 1 1 48.99239,0 z"
       transform="matrix(0.94845361,0,0,0.75,-123.80097,208.28977)" />
    <path
       style="fill:none;stroke:none"
       d="m 294.17231,449.96561 c 0,0 28.7284,6.30717 36.62871,30.74746 7.90031,24.44028 -6.4639,32.32424 -4.30926,35.47783"
       id="path5860"
       inkscape:connector-curvature="0" />
    <path
       style="fill:none;stroke:none"
       d="m 295.69976,445.98706 c 0,0 29.10732,3.6569 38.83576,27.28937 9.72844,23.63246 -3.9872,32.80315 -1.60063,35.74864"
       id="path5860-6"
       inkscape:connector-curvature="0" />
    <path
       style="fill:none;stroke:none"
       d="m 294.17231,450.75401 2.51374,-5.12458"
       id="path5880"
       inkscape:connector-curvature="0" />
    <path
       style="fill:#2d2d2d;fill-opacity:1;stroke:none"
       id="path5912"
       d="m 321.75251,459.90846 c 0.62966,1.23331 1.29036,2.44969 1.9062,3.69023 0.52203,1.03404 1.02026,2.07316 1.42204,3.16028 0.26957,0.87939 0.59599,1.73873 0.89317,2.60877 0.39658,0.89826 0.74886,1.81491 1.12274,2.72307 0.3834,0.95512 0.84512,1.87665 1.2086,2.83964 0.33425,0.9585 0.75479,1.87701 1.17993,2.79722 0.45729,1.00659 0.95463,1.99441 1.44589,2.98473 0.36275,0.78655 0.59971,1.6269 0.81908,2.46324 0.17437,0.71227 0.1936,1.4457 0.3279,2.16468 0.17038,0.68784 0.17059,1.40097 0.2854,2.09595 0.14722,0.69251 0.31425,1.38094 0.4489,2.07598 0.13534,0.88562 0.20959,1.77478 0.41958,2.64743 0.20859,0.81242 0.44895,1.61713 0.72144,2.41043 0.25251,0.63567 0.5313,1.25531 0.76828,1.89864 0.26759,0.73962 0.59357,1.45412 0.86882,2.19112 0.44006,0.98339 0.76834,2.00853 1.18184,3.00315 0.39598,1.04301 0.9464,2.01698 1.4819,2.99281 0.43272,0.792 0.89081,1.57574 1.38284,2.33335 0.57289,0.79228 1.07467,1.63022 1.70153,2.3826 0.45278,0.63 0.99577,1.14992 1.62345,1.59842 0.64227,0.39092 1.27593,0.79679 1.94312,1.14675 0.54206,0.48544 1.24085,0.59399 1.88374,0.85705 0.512,0.24364 0.97345,0.50332 1.53983,0.60672 0.65875,0.0889 1.29528,0.28791 1.9164,0.51918 0.61531,0.15752 1.09091,0.60431 1.59329,0.96763 0.641,0.39131 0.99247,0.99225 1.36415,1.61478 0.3682,0.5746 0.44578,1.24245 0.57394,1.89495 0.23461,0.68319 0.50957,1.3602 0.82955,2.00815 0.31229,0.42716 0.75882,0.7045 1.26667,0.83457 0.63316,0.11186 1.27962,0.10516 1.92039,0.10833 0.71326,-3.4e-4 1.42651,-0.005 2.13977,-0.007 0.48168,0.0476 0.88641,-0.0221 1.32635,-0.20799 0,0 -4.1946,3.23787 -4.1946,3.23787 l 0,0 c -0.47048,0.0912 -0.93811,0.10004 -1.41739,0.086 -0.71528,0.003 -1.4306,0.008 -2.14586,2.2e-4 -0.68025,-0.0148 -1.37289,-0.025 -2.02548,-0.24055 -0.59852,-0.25106 -1.12592,-0.6384 -1.4779,-1.19336 -0.33378,-0.68871 -0.61761,-1.40482 -0.89242,-2.11898 -0.14013,-0.59139 -0.15492,-1.21762 -0.49449,-1.74616 -0.3339,-0.57392 -0.65932,-1.08784 -1.25754,-1.4306 -0.46393,-0.35136 -0.93347,-0.69337 -1.50726,-0.84078 -0.61206,-0.21696 -1.24905,-0.34287 -1.88514,-0.46848 -0.55413,-0.16286 -1.03753,-0.45517 -1.57414,-0.66072 -0.68047,-0.22673 -1.32353,-0.50283 -1.90859,-0.92832 -0.67793,-0.3761 -1.34642,-0.7657 -1.98681,-1.20351 -0.65143,-0.48399 -1.21128,-1.0607 -1.68466,-1.72199 -0.61775,-0.782 -1.14726,-1.6232 -1.7316,-2.42942 -0.4991,-0.76892 -0.96861,-1.56241 -1.39164,-2.37496 -0.53869,-0.99388 -1.1002,-1.98184 -1.49736,-3.04329 -0.4304,-0.99403 -0.75975,-2.02321 -1.20693,-3.00945 -0.29034,-0.73093 -0.62059,-1.44401 -0.89213,-2.18183 -0.24896,-0.64229 -0.50298,-1.2791 -0.76567,-1.91511 -0.2869,-0.80491 -0.51611,-1.63062 -0.73399,-2.4565 -0.23449,-0.87871 -0.32716,-1.77184 -0.43705,-2.67234 -0.13524,-0.6948 -0.32621,-1.37594 -0.46833,-2.06939 -0.14247,-0.69053 -0.10663,-1.40811 -0.27789,-2.09682 -0.14157,-0.71095 -0.18193,-1.4268 -0.311,-2.13976 -0.19528,-0.8065 -0.42372,-1.61343 -0.74478,-2.37869 -0.48305,-0.99914 -0.98817,-1.98778 -1.45062,-2.99685 -0.42726,-0.93354 -0.87924,-1.85327 -1.20373,-2.83028 -0.34823,-0.9623 -0.82298,-1.87238 -1.20075,-2.82329 -0.37359,-0.91782 -0.73982,-1.8381 -1.13565,-2.74621 -0.31252,-0.86292 -0.63788,-1.7218 -0.89025,-2.60481 -0.38146,-1.07539 -0.86202,-2.10492 -1.37045,-3.12564 -0.59103,-1.23908 -1.23857,-2.45105 -1.93647,-3.63271 0,0 4.59184,-2.64838 4.59184,-2.64838 z"
       inkscape:connector-curvature="0" />
    <path
       style="fill:#2d2d2d;fill-opacity:1;stroke:none"
       id="path5914"
       d="m 356.42269,524.77612 c -1.12708,-0.46427 -2.10826,-1.15853 -2.99969,-1.97941 -0.61248,-0.621 -1.18299,-1.29145 -1.65069,-2.02929 -0.43799,-0.60508 -0.74082,-1.29043 -1.16793,-1.90066 -0.39069,-0.56304 -0.76284,-1.03434 -1.42633,-1.25442 -0.52057,-0.31158 -1.10181,-0.39939 -1.69482,-0.4496 -0.43626,-0.0226 -0.21632,-0.0136 -0.65984,-0.0269 0,0 4.30358,-3.09588 4.30358,-3.09588 l 0,0 c 0.45874,0.0293 0.23063,0.0105 0.68433,0.0562 0.62605,0.0953 1.22001,0.2701 1.78009,0.57292 0.68742,0.34666 1.14595,0.88282 1.58008,1.51009 0.42679,0.61993 0.73005,1.31278 1.178,1.92102 0.43969,0.69738 0.97154,1.34072 1.55314,1.92354 0.86485,0.78348 1.81834,1.43394 2.93375,1.81104 0,0 -4.41367,2.94134 -4.41367,2.94134 z"
       inkscape:connector-curvature="0" />
    <path
       style="fill:#2d2d2d;fill-opacity:1;stroke:none"
       id="path5916"
       d="m 354.65668,526.06304 c -1.29296,-0.0376 -2.58745,0.029 -3.87738,-0.0728 -0.54681,-0.10457 -1.67212,-0.0915 -2.13649,-0.42374 -0.014,-0.01 -0.24918,-0.31113 -0.29764,-0.37291 -0.18917,-0.3758 -0.44225,-0.69029 -0.7884,-0.93027 -0.52095,-0.42536 -0.80465,-1.05036 -1.03616,-1.66651 -0.30876,-0.69809 -0.63266,-1.37659 -0.82757,-2.1178 -0.15224,-0.71832 -0.21155,-1.45674 -0.17568,-2.18968 0.0181,-0.31789 0.11863,-0.59888 0.25098,-0.88308 0,0 4.88416,-2.09725 4.88416,-2.09725 l 0,0 c -0.23506,0.17172 -0.34825,0.32386 -0.37985,0.62809 -0.13657,0.66184 -0.008,1.36077 0.0801,2.02312 0.16943,0.73105 0.49003,1.38815 0.80445,2.06546 0.18789,0.52972 0.42767,1.05994 0.89164,1.40252 0.35343,0.29138 0.6616,0.62324 0.87365,1.03339 0.3981,0.4997 1.55219,0.34617 2.11753,0.47284 1.3009,0.0565 2.60373,0.024 3.90548,0.0126 0,0 -4.28882,3.116 -4.28882,3.116 z"
       inkscape:connector-curvature="0" />
  </g>
  <g
     inkscape:groupmode="layer"
     id="layer2"
     inkscape:label="fluff"
     sodipodi:insensitive="true"
     style="display:inline">
    <rect
       style="fill:#2d2d2d;fill-opacity:1;stroke:none"
       id="rect5115"
       width="207.85715"
       height="142.85715"
       x="122.14285"
       y="445.93362"
       ry="37.574478" />
    <rect
       style="fill:#cccccc;fill-opacity:1;stroke:none"
       id="rect5115-5"
       width="197.85715"
       height="132.85716"
       x="126.78571"
       y="450.93362"
       ry="34.944263" />
    <path
       sodipodi:type="arc"
       style="fill:#2d2d2d;fill-opacity:1;stroke:none"
       id="path5135"
       sodipodi:cx="293.57144"
       sodipodi:cy="432.00504"
       sodipodi:rx="31.428572"
       sodipodi:ry="28.928572"
       d="m 325.00001,432.00504 a 31.428572,28.928572 0 1 1 -62.85714,0 31.428572,28.928572 0 1 1 62.85714,0 z"
       transform="translate(-137.85714,46.428571)" />
    <path
       sodipodi:type="arc"
       style="fill:#2d2d2d;fill-opacity:1;stroke:none"
       id="path5135-1"
       sodipodi:cx="293.57144"
       sodipodi:cy="432.00504"
       sodipodi:rx="31.428572"
       sodipodi:ry="28.928572"
       d="m 325.00001,432.00504 a 31.428572,28.928572 0 1 1 -62.85714,0 31.428572,28.928572 0 1 1 62.85714,0 z"
       transform="matrix(0.69318182,0,0,1,-59.569815,55.357148)" />
    <path
       sodipodi:type="arc"
       style="fill:#2d2d2d;fill-opacity:1;stroke:none"
       id="path5135-7"
       sodipodi:cx="293.57144"
       sodipodi:cy="432.00504"
       sodipodi:rx="31.428572"
       sodipodi:ry="28.928572"
       d="m 325.00001,432.00504 a 31.428572,28.928572 0 1 1 -62.85714,0 31.428572,28.928572 0 1 1 62.85714,0 z"
       transform="matrix(1.3977273,0,0,1,-138.5471,43.928576)" />
    <path
       sodipodi:type="arc"
       style="fill:#2d2d2d;fill-opacity:1;stroke:none"
       id="path5135-11"
       sodipodi:cx="293.57144"
       sodipodi:cy="432.00504"
       sodipodi:rx="31.428572"
       sodipodi:ry="28.928572"
       d="m 325.00001,432.00504 a 31.428572,28.928572 0 1 1 -62.85714,0 31.428572,28.928572 0 1 1 62.85714,0 z"
       transform="translate(-50.000013,43.214291)" />
    <path
       sodipodi:type="arc"
       style="fill:#2d2d2d;fill-opacity:1;stroke:none"
       id="path5135-5"
       sodipodi:cx="293.57144"
       sodipodi:cy="432.00504"
       sodipodi:rx="31.428572"
       sodipodi:ry="28.928572"
       d="m 325.00001,432.00504 a 31.428572,28.928572 0 1 1 -62.85714,0 31.428572,28.928572 0 1 1 62.85714,0 z"
       transform="matrix(0.73863636,0,0,0.7654321,80.657457,162.04881)" />
    <path
       sodipodi:type="arc"
       style="fill:#2d2d2d;fill-opacity:1;stroke:none"
       id="path5135-2"
       sodipodi:cx="293.57144"
       sodipodi:cy="432.00504"
       sodipodi:rx="31.428572"
       sodipodi:ry="28.928572"
       d="m 325.00001,432.00504 a 31.428572,28.928572 0 1 1 -62.85714,0 31.428572,28.928572 0 1 1 62.85714,0 z"
       transform="matrix(0.81818182,0,0,0.92592593,-73.76624,146.64323)" />
    <path
       sodipodi:type="arc"
       style="fill:#2d2d2d;fill-opacity:1;stroke:none"
       id="path5135-76"
       sodipodi:cx="293.57144"
       sodipodi:cy="432.00504"
       sodipodi:rx="31.428572"
       sodipodi:ry="28.928572"
       d="m 325.00001,432.00504 a 31.428572,28.928572 0 1 1 -62.85714,0 31.428572,28.928572 0 1 1 62.85714,0 z"
       transform="translate(-105.00001,124.64286)" />
    <path
       sodipodi:type="arc"
       style="fill:#2d2d2d;fill-opacity:1;stroke:none"
       id="path5135-14"
       sodipodi:cx="293.57144"
       sodipodi:cy="432.00504"
       sodipodi:rx="31.428572"
       sodipodi:ry="28.928572"
       d="m 325.00001,432.00504 a 31.428572,28.928572 0 1 1 -62.85714,0 31.428572,28.928572 0 1 1 62.85714,0 z"
       transform="matrix(0.80681818,0,0,0.88888889,-25.787349,171.57199)" />
    <path
       sodipodi:type="arc"
       style="fill:#2d2d2d;fill-opacity:1;stroke:none"
       id="path5135-23"
       sodipodi:cx="293.57144"
       sodipodi:cy="432.00504"
       sodipodi:rx="31.428572"
       sodipodi:ry="28.928572"
       d="m 325.00001,432.00504 a 31.428572,28.928572 0 1 1 -62.85714,0 31.428572,28.928572 0 1 1 62.85714,0 z"
       transform="translate(3.5714114,122.5)" />
    <path
       sodipodi:type="arc"
       style="fill:#2d2d2d;fill-opacity:1;stroke:none"
       id="path5135-22"
       sodipodi:cx="293.57144"
       sodipodi:cy="432.00504"
       sodipodi:rx="31.428572"
       sodipodi:ry="28.928572"
       d="m 325.00001,432.00504 a 31.428572,28.928572 0 1 1 -62.85714,0 31.428572,28.928572 0 1 1 62.85714,0 z"
       transform="matrix(0.67045455,0,0,0.85185186,76.387976,192.21504)" />
    <path
       sodipodi:type="arc"
       style="fill:#483737;fill-opacity:1;stroke:none;display:inline"
       id="path5802-7"
       sodipodi:cx="138.3909"
       sodipodi:cy="409.40009"
       sodipodi:rx="5.0507627"
       sodipodi:ry="7.0710678"
       d="m 143.44166,409.40009 a 5.0507627,7.0710678 0 1 1 -10.10152,0 5.0507627,7.0710678 0 1 1 10.10152,0 z"
       transform="matrix(-0.84029666,0.54212686,0.6002119,0.93032848,-34.483053,-40.440981)"
       inkscape:transform-center-x="-8.5862966"
       inkscape:transform-center-y="15.657364" />
    <path
       sodipodi:type="arc"
       style="fill:#483737;fill-opacity:1;stroke:none;display:inline"
       id="path5802"
       sodipodi:cx="138.3909"
       sodipodi:cy="409.40009"
       sodipodi:rx="5.0507627"
       sodipodi:ry="7.0710678"
       d="m 143.44166,409.40009 a 5.0507627,7.0710678 0 1 1 -10.10152,0 5.0507627,7.0710678 0 1 1 10.10152,0 z"
       transform="matrix(0.84029666,0.54212686,-0.6002119,0.93032848,272.87905,-37.915597)" />
  </g>
  <g
     inkscape:label="Layer 1"
     inkscape:groupmode="layer"
     id="layer1"
     style="display:inline"
     sodipodi:insensitive="true">
    <path
       sodipodi:type="arc"
       style="fill:#2d2d2d;fill-opacity:1;fill-rule:nonzero;stroke:none"
       id="path5386-5"
       sodipodi:cx="175.26146"
       sodipodi:cy="499.05112"
       sodipodi:rx="26.263966"
       sodipodi:ry="20.455589"
       d="m 201.52542,499.05112 a 26.263966,20.455589 0 1 1 -52.52793,0 26.263966,20.455589 0 1 1 52.52793,0 z"
       transform="matrix(0.71280608,0.64533999,-0.53029421,0.58573299,216.51781,21.962242)" />
    <path
       sodipodi:type="arc"
       style="fill:#2d2d2d;fill-opacity:1;fill-rule:nonzero;stroke:none"
       id="path4303"
       sodipodi:cx="157.85715"
       sodipodi:cy="490.93362"
       sodipodi:rx="83.571426"
       sodipodi:ry="105.71429"
       d="m 241.42857,490.93362 a 83.571426,105.71429 0 1 1 -167.142849,0 83.571426,105.71429 0 1 1 167.142849,0 z"
       transform="matrix(0.60137288,0.11988733,-0.11704513,0.58711597,74.692439,164.66285)" />
    <path
       sodipodi:type="arc"
       style="fill:#cccccc;fill-opacity:1;fill-rule:nonzero;stroke:none"
       id="path4303-8"
       sodipodi:cx="157.85715"
       sodipodi:cy="490.93362"
       sodipodi:rx="83.571426"
       sodipodi:ry="105.71429"
       d="m 241.42857,490.93362 a 83.571426,105.71429 0 1 1 -167.142849,0 83.571426,105.71429 0 1 1 167.142849,0 z"
       transform="matrix(0.55878962,0.10717261,-0.10875715,0.52484903,75.029023,195.36329)" />
    <path
       sodipodi:type="arc"
       style="fill:#f2f2f2;fill-opacity:1;fill-rule:nonzero;stroke:none"
       id="path5303"
       sodipodi:cx="105.05586"
       sodipodi:cy="517.99152"
       sodipodi:rx="11.111678"
       sodipodi:ry="11.616755"
       d="m 116.16754,517.99152 a 11.111678,11.616755 0 1 1 -22.223356,0 11.111678,11.616755 0 1 1 22.223356,0 z"
       transform="translate(-20.441284,-61.032067)" />
    <path
       transform="translate(9.8632941,-58.506717)"
       sodipodi:type="arc"
       style="fill:#f2f2f2;fill-opacity:1;fill-rule:nonzero;stroke:none"
       id="path5303-0"
       sodipodi:cx="105.05586"
       sodipodi:cy="517.99152"
       sodipodi:rx="11.111678"
       sodipodi:ry="11.616755"
       d="m 116.16754,517.99152 a 11.111678,11.616755 0 1 1 -22.223356,0 11.111678,11.616755 0 1 1 22.223356,0 z" />
    <path
       transform="matrix(1.7692308,0,0,1.1428571,-87.247335,-180.01871)"
       sodipodi:type="arc"
       style="fill:#2d2d2d;fill-opacity:1;fill-rule:nonzero;stroke:none"
       id="path5330-5"
       sodipodi:cx="95.711952"
       sodipodi:cy="553.59937"
       sodipodi:rx="3.2829957"
       sodipodi:ry="5.3033009"
       d="m 98.994948,553.59937 a 3.2829957,5.3033009 0 1 1 -6.565991,0 3.2829957,5.3033009 0 1 1 6.565991,0 z" />
    <path
       transform="matrix(1.7692308,0,0,1.1428571,-56.942756,-177.74584)"
       sodipodi:type="arc"
       style="fill:#2d2d2d;fill-opacity:1;fill-rule:nonzero;stroke:none"
       id="path5330-5-7"
       sodipodi:cx="95.711952"
       sodipodi:cy="553.59937"
       sodipodi:rx="3.2829957"
       sodipodi:ry="5.3033009"
       d="m 98.994948,553.59937 a 3.2829957,5.3033009 0 1 1 -6.565991,0 3.2829957,5.3033009 0 1 1 6.565991,0 z" />
    <path
       sodipodi:type="arc"
       style="fill:#2d2d2d;fill-opacity:1;fill-rule:nonzero;stroke:none"
       id="path5386"
       sodipodi:cx="175.26146"
       sodipodi:cy="499.05112"
       sodipodi:rx="26.263966"
       sodipodi:ry="20.455589"
       d="m 201.52542,499.05112 a 26.263966,20.455589 0 1 1 -52.52793,0 26.263966,20.455589 0 1 1 52.52793,0 z"
       transform="matrix(0.79215901,-0.54501405,0.44785352,0.65093956,-205.49625,204.39376)" />
    <path
       style="fill:none;stroke:none"
       d="m 61.428571,474.86218 92.499999,15.92973 c 0,0 -24.64286,46.30733 -57.499999,35.19357 -35,-5.55687 -35,-51.1233 -35,-51.1233 z"
       id="path5213"
       inkscape:connector-curvature="0" />
    <path
       transform="translate(-8.7535626,-60.230745)"
       sodipodi:type="arc"
       style="fill:#2d2d2d;fill-opacity:1;fill-rule:nonzero;stroke:none;display:inline"
       id="path5330"
       sodipodi:cx="95.711952"
       sodipodi:cy="553.59937"
       sodipodi:rx="3.2829957"
       sodipodi:ry="5.3033009"
       d="m 98.994948,553.59937 a 3.2829957,5.3033009 0 1 1 -6.565991,0 3.2829957,5.3033009 0 1 1 6.565991,0 z" />
    <path
       transform="translate(10.186801,-57.957905)"
       sodipodi:type="arc"
       style="fill:#2d2d2d;fill-opacity:1;fill-rule:nonzero;stroke:none;display:inline"
       id="path5330-6"
       sodipodi:cx="95.711952"
       sodipodi:cy="553.59937"
       sodipodi:rx="3.2829957"
       sodipodi:ry="5.3033009"
       d="m 98.994948,553.59937 a 3.2829957,5.3033009 0 1 1 -6.565991,0 3.2829957,5.3033009 0 1 1 6.565991,0 z" />
    <path
       style="fill:#ffc1aa;fill-opacity:1;stroke:none"
       d="M 98.942125,525.31286 C 85.83968,522.83128 74.798842,514.20612 68.274207,501.35493 c -2.259689,-4.45078 -3.129653,-6.9256 -4.380204,-12.46051 -0.931989,-4.12497 -1.919597,-12.4925 -1.521462,-12.89063 0.222265,-0.22227 89.461979,15.00514 89.775699,15.31886 1.12079,1.12079 -10.21076,16.16654 -16.56023,21.98827 -7.50986,6.88567 -12.019,9.44737 -20.27277,11.51721 -3.87747,0.97237 -12.45729,1.22638 -16.373115,0.48473 l 0,0 z m 8.259975,-24.65441 c 1.29649,-0.9081 1.98661,-2.63537 1.98905,-4.97832 0.002,-2.20947 -0.39538,-3.34221 -1.66136,-4.73214 -0.90671,-0.99548 -2.01607,-1.02439 -3.21196,-0.0837 -2.52166,1.98354 -2.21458,8.56623 0.4617,9.89704 1.16379,0.57871 1.4679,0.5658 2.42257,-0.10288 l 0,0 z m -18.341301,-2.77712 c 1.161998,-1.162 1.73149,-4.0283 1.24815,-6.28204 -1.217281,-5.67598 -6.472278,-4.24747 -6.472278,1.75941 0,4.26895 2.936032,6.81072 5.224128,4.52263 z"
       id="path5236"
       inkscape:connector-curvature="0" />
  </g>
</svg>
