<?xml version="1.0" encoding="UTF-8" standalone="no"?>
<!-- Created with Inkscape (http://www.inkscape.org/) -->

<svg
   xmlns:dc="http://purl.org/dc/elements/1.1/"
   xmlns:cc="http://creativecommons.org/ns#"
   xmlns:rdf="http://www.w3.org/1999/02/22-rdf-syntax-ns#"
   xmlns:svg="http://www.w3.org/2000/svg"
   xmlns="http://www.w3.org/2000/svg"
   xmlns:sodipodi="http://sodipodi.sourceforge.net/DTD/sodipodi-0.dtd"
   xmlns:inkscape="http://www.inkscape.org/namespaces/inkscape"
   width="744.09448819"
   height="1052.3622047"
   id="svg2"
   version="1.1"
   inkscape:version="0.48.5 r10040"
   sodipodi:docname="New document 1">
  <defs
     id="defs4" />
  <sodipodi:namedview
     id="base"
     pagecolor="#ffffff"
     bordercolor="#666666"
     borderopacity="1.0"
     inkscape:pageopacity="0.0"
     inkscape:pageshadow="2"
     inkscape:zoom="1.979899"
     inkscape:cx="217.4162"
     inkscape:cy="567.75922"
     inkscape:document-units="px"
     inkscape:current-layer="layer1"
     showgrid="false"
     inkscape:window-width="1920"
     inkscape:window-height="1017"
     inkscape:window-x="-8"
     inkscape:window-y="-8"
     inkscape:window-maximized="1" />
  <metadata
     id="metadata7">
    <rdf:RDF>
      <cc:Work
         rdf:about="">
        <dc:format>image/svg+xml</dc:format>
        <dc:type
           rdf:resource="http://purl.org/dc/dcmitype/StillImage" />
        <dc:title></dc:title>
      </cc:Work>
    </rdf:RDF>
  </metadata>
  <g
     inkscape:label="Layer 1"
     inkscape:groupmode="layer"
     id="layer1">
    <path
       style="fill:#d40000;fill-opacity:1;stroke:none"
       d="m 309.1467,447.88078 c -3.12343,-1.07143 -93.74747,-3.37674 -91.12569,6.31929 0,0 42.21795,5.13319 43.26666,12.54779 -4.19485,0.57036 1.45817,11.77009 -28.61243,3.34748 -24.91103,-6.97744 -32.57824,1.29537 -32.57824,1.29537 0,0 5.9711,3.56849 39.16771,17.03063 0,0 -3.41242,16.43099 -25.95974,11.2978 -22.54732,-5.13319 -23.00669,-0.8182 -23.00669,-0.8182 0,0 63.37708,35.29807 118.43448,31.30559 -3.14613,-72.43503 -48.4938,10.11708 -20.70292,-77.14718"
       id="path3783"
       inkscape:connector-curvature="0"
       sodipodi:nodetypes="cccsccsccc" />
    <path
       transform="matrix(0.53344279,0,0,0.52229299,129.05206,166.69065)"
       sodipodi:type="arc"
       style="fill:#d40000;fill-opacity:1;stroke:none"
       id="path2985"
       sodipodi:cx="332.34018"
       sodipodi:cy="617.49152"
       sodipodi:rx="82.832512"
       sodipodi:ry="79.296974"
       d="m 415.17269,617.49152 a 82.832512,79.296974 0 1 1 -165.66502,0 82.832512,79.296974 0 1 1 165.66502,0 z" />
    <path
       transform="matrix(0.51392659,0,0,0.51231286,132.84378,172.32569)"
       sodipodi:type="arc"
       style="fill:#ff6600;fill-opacity:1;stroke:none"
       id="path2985-1"
       sodipodi:cx="332.34018"
       sodipodi:cy="617.49152"
       sodipodi:rx="82.832512"
       sodipodi:ry="79.296974"
       d="m 415.17269,617.49152 a 82.832512,79.296974 0 1 1 -165.66502,0 82.832512,79.296974 0 1 1 165.66502,0 z" />
    <path
       style="fill:#ffd42a;fill-opacity:1;stroke:none"
       id="path3781"
       d="m 288.50358,462.79282 c 2.29513,-0.33554 4.58312,-0.60802 6.90559,-0.71481 3.56728,-0.14952 7.1264,-0.10658 10.66201,0.42737 2.7267,0.41179 3.51102,0.66193 6.17053,1.30453 3.53075,0.94132 6.93468,2.33119 9.9577,4.36841 1.797,1.211 2.21315,1.67215 3.82332,3.09501 2.11404,2.03584 3.88169,4.39869 4.90798,7.14096 0.55897,1.49359 0.66944,2.29082 0.99737,3.83358 0.76942,3.83419 -0.13267,7.65828 -1.24785,11.33401 -1.15504,3.2113 -2.97761,6.08609 -5.33096,8.5742 -4.08195,4.03059 -7.81266,5.87884 -13.38496,8.57104 -0.61887,0.299 -1.33575,0.34034 -2.00362,0.51052 -5.09366,0.9833 -10.30056,1.07251 -15.46232,0.72085 -4.77484,-0.55336 -9.46671,-1.74495 -13.88149,-3.60782 -2.25918,-1.0152 -3.36145,-1.88455 -4.1977,-4.1615 -0.429,-1.84999 -0.68686,-3.74331 -0.88183,-5.63095 -0.25416,-2.07739 -0.2773,-3.58814 0.48857,-5.56478 1.35954,-2.32455 3.60202,-3.96659 5.82293,-5.45156 5.21682,-3.48821 10.199,-5.96527 16.04546,-7.83815 1.51183,-0.45464 3.11743,-0.915 4.69658,-0.44211 0.66619,0.19949 1.42078,0.69508 2.00699,1.0422 1.53641,1.16917 2.8147,2.64183 4.09766,4.06833 0,0 -6.78221,4.0038 -6.78221,4.0038 l 0,0 c -1.20081,-1.38303 -2.4125,-2.81025 -3.9431,-3.8543 -0.65751,-0.34579 -1.09096,-0.63969 -1.83199,-0.78101 -1.50913,-0.28781 -3.0066,0.26231 -4.4287,0.66745 -1.59133,0.52871 -3.15228,1.09766 -4.69231,1.75903 -0.53878,0.23138 -2.09888,1.03156 -1.60563,0.71757 1.20609,-0.76775 8.04811,-4.65083 3.72685,-2.13081 -2.20755,1.37151 -4.32624,2.94266 -5.91795,4.99983 -0.89264,1.83516 -0.89361,3.2175 -0.65839,5.21513 0.17648,1.8296 0.43382,3.65727 0.8099,5.45703 0.71441,2.04861 1.75146,2.75408 3.74898,3.68803 4.29825,1.87174 8.88001,3.05315 13.56719,3.49919 5.15038,0.28155 10.36072,0.14485 15.40648,-1.00456 3.91797,-1.23904 2.35333,-0.91027 -3.07917,2.39775 -0.47978,0.29215 0.99419,-0.52921 1.46339,-0.8374 1.33774,-0.87866 2.45193,-2.03346 3.65345,-3.07117 0.93664,-0.91136 1.37971,-1.2739 2.1695,-2.31589 1.38346,-1.82524 2.46507,-3.86302 3.3555,-5.95487 1.18447,-3.52886 2.07151,-7.27732 1.42543,-10.9951 -0.29766,-1.50807 -0.38379,-2.24247 -0.91061,-3.70197 -0.95761,-2.65303 -2.64105,-4.93081 -4.6798,-6.89069 -1.52217,-1.32952 -2.03668,-1.86668 -3.73254,-2.99453 -2.96386,-1.97116 -6.3099,-3.29418 -9.7522,-4.21892 -2.57442,-0.60454 -3.46305,-0.87866 -6.10694,-1.23212 -3.58106,-0.47876 -7.18722,-0.41345 -10.78453,-0.1797 -2.35784,0.18102 -4.68703,0.51222 -7.02405,0.86012 0,0 6.41149,-4.68122 6.41149,-4.68122 z"
       inkscape:connector-curvature="0" />
  </g>
</svg>
