<?xml version="1.0" encoding="UTF-8" standalone="no"?>
<!-- Created with Inkscape (http://www.inkscape.org/) -->

<svg
   xmlns:dc="http://purl.org/dc/elements/1.1/"
   xmlns:cc="http://creativecommons.org/ns#"
   xmlns:rdf="http://www.w3.org/1999/02/22-rdf-syntax-ns#"
   xmlns:svg="http://www.w3.org/2000/svg"
   xmlns="http://www.w3.org/2000/svg"
   xmlns:sodipodi="http://sodipodi.sourceforge.net/DTD/sodipodi-0.dtd"
   xmlns:inkscape="http://www.inkscape.org/namespaces/inkscape"
   width="744.09448819"
   height="1052.3622047"
   id="svg8245"
   version="1.1"
   inkscape:version="0.48.5 r10040"
   sodipodi:docname="New document 55">
  <defs
     id="defs8247" />
  <sodipodi:namedview
     id="base"
     pagecolor="#ffffff"
     bordercolor="#666666"
     borderopacity="1.0"
     inkscape:pageopacity="0.0"
     inkscape:pageshadow="2"
     inkscape:zoom="0.7"
     inkscape:cx="316.52037"
     inkscape:cy="512.27048"
     inkscape:document-units="px"
     inkscape:current-layer="layer1"
     showgrid="false"
     inkscape:window-width="1920"
     inkscape:window-height="1017"
     inkscape:window-x="-8"
     inkscape:window-y="-8"
     inkscape:window-maximized="1" />
  <metadata
     id="metadata8250">
    <rdf:RDF>
      <cc:Work
         rdf:about="">
        <dc:format>image/svg+xml</dc:format>
        <dc:type
           rdf:resource="http://purl.org/dc/dcmitype/StillImage" />
        <dc:title></dc:title>
      </cc:Work>
    </rdf:RDF>
  </metadata>
  <g
     inkscape:label="Layer 1"
     inkscape:groupmode="layer"
     id="layer1">
    <path
       style="fill:none;stroke:none;stroke-width:1px;stroke-linecap:butt;stroke-linejoin:miter;stroke-opacity:1"
       d="m 315.16759,632.13872 c 0,0 -174.75639,-120.20815 -131.31983,-178.797 0,0 13.13199,-45.45686 63.63961,-26.26396"
       id="path8291"
       inkscape:connector-curvature="0" />
    <path
       style="fill:none;stroke:none"
       d="m 156.57365,413.94577 c 0,0 -52.52793,44.44671 -14.14214,39.39595 38.3858,-5.05076 57.5787,-15.15229 54.54824,-49.49748 -3.03046,-34.34518 -51.51778,-115.15739 -9.09137,-148.49242 42.4264,-33.33503 88.89342,-17.17259 88.89342,-17.17259"
       id="path8293"
       inkscape:connector-curvature="0" />
    <path
       style="fill:none;stroke:none;stroke-width:1px;stroke-linecap:butt;stroke-linejoin:miter;stroke-opacity:1"
       d="M 480.84375 78.5625 C 480.84375 78.5625 489.16871 100.21144 498.5 129.71875 C 501.49466 129.82292 503.0324 129.8198 510.1875 129.6875 C 520.79229 129.4914 520.9801 140.22798 510.375 140.40625 C 504.8887 140.49848 503.43457 140.52212 501.84375 140.5 C 521.66115 205.75537 542.09107 298.30318 496 291.71875 C 425.28932 281.61722 486.90625 252.3125 486.90625 252.3125 C 486.90625 252.3125 450.5265 226.06805 432.34375 247.28125 C 432.34375 247.28125 439.43037 302.83122 412.15625 294.75 C 412.15625 294.75 383.76266 290.76154 367.09375 282.3125 L 313.15625 629.09375 C 313.15625 629.09375 386.8956 662.43101 465.6875 597.78125 C 544.4794 533.13148 631.33107 295.7559 582.84375 198.78125 C 534.35643 101.80661 480.84375 78.5625 480.84375 78.5625 z M 367.09375 282.3125 L 371.75 252.3125 C 347.65786 265.49499 353.45555 275.39965 367.09375 282.3125 z "
       id="path8295" />
    <path
       style="fill:#d45500;fill-opacity:1;fill-rule:nonzero;stroke:none"
       d="m 208.02536,156.79536 c -89.15453,0 -161.437504,76.76011 -161.437504,171.4375 l 0.21875,8.65625 c 4.34854,91.19069 75.237494,162.75 161.218754,162.75 89.15453,0 161.4375,-76.72886 161.4375,-171.40625 0,-72.23243 -42.08506,-134.00635 -101.625,-159.25 -0.0156,3.86311 0.12603,7.39173 0.25,11.5625 l 0.25,3.5625 c 0.73664,10.58099 -9.97399,11.30133 -10.6875,0.71875 -0.0889,-1.31873 -0.16108,-2.65001 -0.25,-3.96875 -0.1695,-5.87697 -0.38201,-10.13798 -0.1875,-15.9375 -15.51042,-5.26451 -32.03311,-8.125 -49.1875,-8.125 z"
       id="path8851"
       inkscape:connector-curvature="0" />
    <path
       sodipodi:type="arc"
       style="fill:#d45500;fill-opacity:1;fill-rule:nonzero;stroke:none"
       id="path8853"
       sodipodi:cx="156.78572"
       sodipodi:cy="271.64789"
       sodipodi:rx="73.214287"
       sodipodi:ry="177.85715"
       d="m 83.571434,271.64788 a 73.214287,177.85715 0 1 1 0.0937,8.99522"
       sodipodi:start="3.1415927"
       sodipodi:end="9.3741809"
       sodipodi:open="true"
       transform="translate(155.88251,-46.999278)" />
    <path
       sodipodi:type="arc"
       style="fill:#d45500;fill-opacity:1;fill-rule:nonzero;stroke:none"
       id="path8853-3"
       sodipodi:cx="156.78572"
       sodipodi:cy="271.64789"
       sodipodi:rx="73.214287"
       sodipodi:ry="177.85715"
       d="m 83.571434,271.64788 a 73.214287,177.85715 0 1 1 0.0937,8.99522"
       sodipodi:start="3.1415927"
       sodipodi:end="9.3741809"
       sodipodi:open="true"
       transform="translate(51.239636,-90.5707)" />
    <path
       sodipodi:type="arc"
       style="fill:#d45500;fill-opacity:1;fill-rule:nonzero;stroke:none"
       id="path8853-31"
       sodipodi:cx="156.78572"
       sodipodi:cy="271.64789"
       sodipodi:rx="73.214287"
       sodipodi:ry="177.85715"
       d="m 83.571434,271.64788 a 73.214287,177.85715 0 1 1 0.0937,8.99522"
       sodipodi:start="3.1415927"
       sodipodi:end="9.3741809"
       sodipodi:open="true"
       transform="translate(-58.046078,-43.427843)" />
    <path
       style="fill:#ff6600;stroke:none"
       d="m 173.50473,406.62921 c 0,0 -48.36318,41.76067 -13.02086,37.01514 35.34233,-4.74553 53.01349,-14.23659 50.2233,-46.50621 -2.79018,-32.2696 -47.43312,-108.1981 -8.37054,-139.5186 39.06256,-31.3205 81.84538,-16.1348 81.84538,-16.1348"
       id="path8293-0"
       inkscape:connector-curvature="0" />
    <path
       inkscape:connector-curvature="0"
       style="fill:#ff6600;fill-opacity:1;fill-rule:nonzero;stroke:none"
       d="m 220.87702,165.01912 c -82.08579,0 -148.637704,72.12128 -148.637704,161.07705 l 0.2014,8.13313 c 4.00376,85.67978 69.272184,152.91456 148.436304,152.91456 82.08578,0 148.6377,-72.09192 148.6377,-161.04769 0,-67.86722 -38.74829,-125.90797 -93.56752,-149.62607 -0.0144,3.62965 0.11604,6.94502 0.23018,10.86374 l 0.23017,3.34721 c 0.67824,9.94155 -9.18318,10.61836 -9.84012,0.67531 -0.0819,-1.23903 -0.14831,-2.48986 -0.23018,-3.7289 -0.15606,-5.52181 -0.35172,-9.52532 -0.17263,-14.97435 -14.28066,-4.94637 -29.49332,-7.63399 -45.2876,-7.63399 z"
       id="path8851-8" />
    <path
       sodipodi:type="arc"
       style="fill:#ff6600;fill-opacity:1;fill-rule:nonzero;stroke:none"
       id="path8853-1"
       sodipodi:cx="156.78572"
       sodipodi:cy="271.64789"
       sodipodi:rx="73.214287"
       sodipodi:ry="177.85715"
       d="m 83.571434,271.64788 a 73.214287,177.85715 0 1 1 0.0937,8.99522"
       sodipodi:start="3.1415927"
       sodipodi:end="9.3741809"
       sodipodi:open="true"
       transform="matrix(0.92071358,0,0,0.93956719,172.86839,-26.459635)" />
    <path
       sodipodi:type="arc"
       style="fill:#ff6600;fill-opacity:1;fill-rule:nonzero;stroke:none"
       id="path8853-3-0"
       sodipodi:cx="156.78572"
       sodipodi:cy="271.64789"
       sodipodi:rx="73.214287"
       sodipodi:ry="177.85715"
       d="m 83.571434,271.64788 a 73.214287,177.85715 0 1 1 0.0937,8.99522"
       sodipodi:start="3.1415927"
       sodipodi:end="9.3741809"
       sodipodi:open="true"
       transform="matrix(0.92071358,0,0,0.93956719,76.522266,-67.397905)" />
    <path
       sodipodi:type="arc"
       style="fill:#ff6600;fill-opacity:1;fill-rule:nonzero;stroke:none"
       id="path8853-31-9"
       sodipodi:cx="156.78572"
       sodipodi:cy="271.64789"
       sodipodi:rx="73.214287"
       sodipodi:ry="177.85715"
       d="m 83.571434,271.64788 a 73.214287,177.85715 0 1 1 0.0937,8.99522"
       sodipodi:start="3.1415927"
       sodipodi:end="9.3741809"
       sodipodi:open="true"
       transform="matrix(0.92071358,0,0,0.93956719,-24.098577,-23.104025)" />
    <path
       style="fill:#ffcc00;stroke:none"
       d="m 177.72443,432.7606 c 0,0 -42.32429,31.91186 -11.395,28.28551 30.92929,-3.62635 46.39394,-10.87904 43.95214,-35.53821 -2.44178,-24.65916 -41.51036,-82.68073 -7.32534,-106.61462 34.18499,-23.93389 71.62572,-12.32958 71.62572,-12.32958"
       id="path8293-0-2"
       inkscape:connector-curvature="0" />
    <path
       inkscape:connector-curvature="0"
       style="fill:#ffcc00;fill-opacity:1;fill-rule:nonzero;stroke:none"
       d="m 219.18156,248.13169 c -71.83611,0 -130.077984,55.11224 -130.077984,123.08873 l 0.17625,6.21502 c 3.50382,65.47311 60.622474,116.85128 129.901734,116.85128 71.83611,0 130.07799,-55.0898 130.07799,-123.0663 0,-51.86145 -33.90997,-96.21391 -81.88417,-114.33834 -0.0126,2.77363 0.10155,5.30711 0.20144,8.30164 l 0.20143,2.55781 c 0.59355,7.59694 -8.03652,8.11413 -8.61143,0.51604 -0.0717,-0.94681 -0.1298,-1.90265 -0.20144,-2.84947 -0.13658,-4.21956 -0.3078,-7.27888 -0.15107,-11.44281 -12.49751,-3.77983 -25.81063,-5.8336 -39.63275,-5.8336 z"
       id="path8851-8-4" />
    <path
       sodipodi:type="arc"
       style="fill:#ffcc00;fill-opacity:1;fill-rule:nonzero;stroke:none"
       id="path8853-1-9"
       sodipodi:cx="156.78572"
       sodipodi:cy="271.64789"
       sodipodi:rx="73.214287"
       sodipodi:ry="177.85715"
       d="m 83.571434,271.64788 a 73.214287,177.85715 0 1 1 0.0937,8.99522"
       sodipodi:start="3.1415927"
       sodipodi:end="9.3741809"
       sodipodi:open="true"
       transform="matrix(0.80574828,0,0,0.71798021,177.16755,101.81117)" />
    <path
       sodipodi:type="arc"
       style="fill:#ffcc00;fill-opacity:1;fill-rule:nonzero;stroke:none"
       id="path8853-3-0-1"
       sodipodi:cx="156.78572"
       sodipodi:cy="271.64789"
       sodipodi:rx="73.214287"
       sodipodi:ry="177.85715"
       d="m 83.571434,271.64788 a 73.214287,177.85715 0 1 1 0.0937,8.99522"
       sodipodi:start="3.1415927"
       sodipodi:end="9.3741809"
       sodipodi:open="true"
       transform="matrix(0.80574828,0,0,0.71798021,92.851726,70.527761)" />
    <path
       sodipodi:type="arc"
       style="fill:#ffcc00;fill-opacity:1;fill-rule:nonzero;stroke:none"
       id="path8853-31-9-5"
       sodipodi:cx="156.78572"
       sodipodi:cy="271.64789"
       sodipodi:rx="73.214287"
       sodipodi:ry="177.85715"
       d="m 83.571434,271.64788 a 73.214287,177.85715 0 1 1 0.0937,8.99522"
       sodipodi:start="3.1415927"
       sodipodi:end="9.3741809"
       sodipodi:open="true"
       transform="matrix(0.80574828,0,0,0.71798021,4.7949557,104.37539)" />
    <path
       style="fill:none;stroke:none"
       d="m 601.21052,1199.8334 c 0,0 -174.75639,-120.2081 -131.31983,-178.797 0,0 13.13199,-45.45683 63.63961,-26.26393"
       id="path8291-7"
       inkscape:connector-curvature="0" />
    <path
       style="fill:#ffeeaa;stroke:none"
       d="m 497.16481,603.84343 c 0,0 -52.52793,44.44668 -14.14214,39.39598 38.3858,-5.0508 57.5787,-15.1523 54.54824,-49.49751 -3.03046,-34.34518 -51.51778,-115.15739 -9.09137,-148.49242 42.4264,-33.33503 88.89342,-17.17259 88.89342,-17.17259"
       id="path8293-3"
       inkscape:connector-curvature="0" />
    <path
       inkscape:connector-curvature="0"
       style="fill:none;stroke:none"
       d="m 766.88668,646.25722 c 0,0 8.32496,21.64894 17.65625,51.15624 2.99466,0.10417 4.5324,0.10105 11.6875,-0.0312 10.60479,-0.1961 10.7926,10.54048 0.1875,10.71875 -5.4863,0.0922 -6.94043,0.11587 -8.53125,0.0937 19.8174,65.25537 40.24732,157.80318 -5.84375,151.21875 -70.71068,-10.10153 -9.09375,-39.40625 -9.09375,-39.40625 0,0 -36.37975,-26.24445 -54.5625,-5.03125 0,0 7.08662,55.54997 -20.1875,47.46875 0,0 -28.39359,-3.98846 -45.0625,-12.4375 l -53.9375,346.78129 c 0,0 73.73935,33.3372 152.53125,-31.3125 78.7919,-64.6498 165.64357,-302.02539 117.15625,-399.00004 -48.48732,-96.97463 -102,-120.21874 -102,-120.21874 z m -113.75,203.74999 4.65625,-30 c -24.09214,13.18249 -18.29445,23.08715 -4.65625,30 z"
       id="path8295-3" />
    <path
       inkscape:connector-curvature="0"
       style="fill:#782121;fill-opacity:1;fill-rule:nonzero;stroke:none"
       d="m 548.61652,346.69302 c -89.15453,0 -161.4375,76.76011 -161.4375,171.4375 l 0.21875,8.65625 c 4.34854,91.19074 75.23749,162.75004 161.21875,162.75004 89.15453,0 161.4375,-76.7289 161.4375,-171.40629 0,-72.23243 -42.08506,-134.00635 -101.625,-159.25 -0.0156,3.86311 0.12603,7.39173 0.25,11.5625 l 0.25,3.5625 c 0.73664,10.58099 -9.97399,11.30133 -10.6875,0.71875 -0.0889,-1.31873 -0.16108,-2.65001 -0.25,-3.96875 -0.1695,-5.87697 -0.38201,-10.13798 -0.1875,-15.9375 -15.51042,-5.26451 -32.03311,-8.125 -49.1875,-8.125 z"
       id="path8851-4" />
    <path
       sodipodi:type="arc"
       style="fill:#782121;fill-opacity:1;fill-rule:nonzero;stroke:none"
       id="path8853-2"
       sodipodi:cx="156.78572"
       sodipodi:cy="271.64789"
       sodipodi:rx="73.214287"
       sodipodi:ry="177.85715"
       d="m 83.571434,271.64788 a 73.214287,177.85715 0 1 1 0.0937,8.99522"
       sodipodi:start="3.1415927"
       sodipodi:end="9.3741809"
       sodipodi:open="true"
       transform="translate(496.47367,142.89838)" />
    <path
       sodipodi:type="arc"
       style="fill:#782121;fill-opacity:1;fill-rule:nonzero;stroke:none"
       id="path8853-3-2"
       sodipodi:cx="156.78572"
       sodipodi:cy="271.64789"
       sodipodi:rx="73.214287"
       sodipodi:ry="177.85715"
       d="m 83.571434,271.64788 a 73.214287,177.85715 0 1 1 0.0937,8.99522"
       sodipodi:start="3.1415927"
       sodipodi:end="9.3741809"
       sodipodi:open="true"
       transform="translate(391.8308,99.326963)" />
    <path
       sodipodi:type="arc"
       style="fill:#782121;fill-opacity:1;fill-rule:nonzero;stroke:none"
       id="path8853-31-0"
       sodipodi:cx="156.78572"
       sodipodi:cy="271.64789"
       sodipodi:rx="73.214287"
       sodipodi:ry="177.85715"
       d="m 83.571434,271.64788 a 73.214287,177.85715 0 1 1 0.0937,8.99522"
       sodipodi:start="3.1415927"
       sodipodi:end="9.3741809"
       sodipodi:open="true"
       transform="translate(282.54509,146.46982)" />
    <path
       style="fill:#ffeeaa;stroke:none"
       d="m 514.09589,596.52687 c 0,0 -48.36318,41.76064 -13.02086,37.01514 35.34233,-4.7455 53.01349,-14.2366 50.2233,-46.50621 -2.79018,-32.2696 -47.43312,-108.1981 -8.37054,-139.5186 39.06256,-31.3205 81.84538,-16.1348 81.84538,-16.1348"
       id="path8293-0-1"
       inkscape:connector-curvature="0" />
    <path
       inkscape:connector-curvature="0"
       style="fill:#aa0000;fill-opacity:1;fill-rule:nonzero;stroke:none"
       d="m 561.46818,354.91678 c -82.08579,0 -148.6377,72.12128 -148.6377,161.07705 l 0.2014,8.13313 c 4.00376,85.67975 69.27218,152.91455 148.4363,152.91455 82.08578,0 148.6377,-72.09191 148.6377,-161.04768 0,-67.86722 -38.74829,-125.90797 -93.56752,-149.62607 -0.0144,3.62965 0.11604,6.94502 0.23018,10.86374 l 0.23017,3.34721 c 0.67824,9.94155 -9.18318,10.61836 -9.84012,0.67531 -0.0819,-1.23903 -0.14831,-2.48986 -0.23018,-3.7289 -0.15606,-5.52181 -0.35172,-9.52532 -0.17263,-14.97435 -14.28066,-4.94637 -29.49332,-7.63399 -45.2876,-7.63399 z"
       id="path8851-8-2" />
    <path
       sodipodi:type="arc"
       style="fill:#aa0000;fill-opacity:1;fill-rule:nonzero;stroke:none"
       id="path8853-1-7"
       sodipodi:cx="156.78572"
       sodipodi:cy="271.64789"
       sodipodi:rx="73.214287"
       sodipodi:ry="177.85715"
       d="m 83.571434,271.64788 a 73.214287,177.85715 0 1 1 0.0937,8.99522"
       sodipodi:start="3.1415927"
       sodipodi:end="9.3741809"
       sodipodi:open="true"
       transform="matrix(0.92071358,0,0,0.93956719,513.45955,163.43803)" />
    <path
       sodipodi:type="arc"
       style="fill:#aa0000;fill-opacity:1;fill-rule:nonzero;stroke:none"
       id="path8853-3-0-7"
       sodipodi:cx="156.78572"
       sodipodi:cy="271.64789"
       sodipodi:rx="73.214287"
       sodipodi:ry="177.85715"
       d="m 83.571434,271.64788 a 73.214287,177.85715 0 1 1 0.0937,8.99522"
       sodipodi:start="3.1415927"
       sodipodi:end="9.3741809"
       sodipodi:open="true"
       transform="matrix(0.92071358,0,0,0.93956719,417.11343,122.49976)" />
    <path
       sodipodi:type="arc"
       style="fill:#aa0000;fill-opacity:1;fill-rule:nonzero;stroke:none"
       id="path8853-31-9-0"
       sodipodi:cx="156.78572"
       sodipodi:cy="271.64789"
       sodipodi:rx="73.214287"
       sodipodi:ry="177.85715"
       d="m 83.571434,271.64788 a 73.214287,177.85715 0 1 1 0.0937,8.99522"
       sodipodi:start="3.1415927"
       sodipodi:end="9.3741809"
       sodipodi:open="true"
       transform="matrix(0.92071358,0,0,0.93956719,316.49259,166.79364)" />
    <path
       style="fill:#ffeeaa;stroke:none"
       d="m 518.31559,622.65831 c 0,0 -42.32429,31.9118 -11.395,28.2855 30.92929,-3.6264 46.39394,-10.8791 43.95214,-35.5382 -2.44178,-24.65921 -41.51036,-82.68078 -7.32534,-106.61467 34.18499,-23.93389 71.62572,-12.32958 71.62572,-12.32958"
       id="path8293-0-2-2"
       inkscape:connector-curvature="0" />
    <path
       inkscape:connector-curvature="0"
       style="fill:#ffeeaa;fill-opacity:1;fill-rule:nonzero;stroke:none"
       d="m 559.77272,438.02935 c -71.83611,0 -130.07798,55.11224 -130.07798,123.08873 l 0.17625,6.21502 c 3.50382,65.47311 60.62247,116.85131 129.90173,116.85131 71.83611,0 130.07799,-55.0898 130.07799,-123.06633 0,-51.86145 -33.90997,-96.21391 -81.88417,-114.33834 -0.0126,2.77363 0.10155,5.30711 0.20144,8.30164 l 0.20143,2.55781 c 0.59355,7.59694 -8.03652,8.11413 -8.61143,0.51604 -0.0717,-0.94681 -0.1298,-1.90265 -0.20144,-2.84947 -0.13658,-4.21956 -0.3078,-7.27888 -0.15107,-11.44281 -12.49751,-3.77983 -25.81063,-5.8336 -39.63275,-5.8336 z"
       id="path8851-8-4-4" />
    <path
       sodipodi:type="arc"
       style="fill:#ffeeaa;fill-opacity:1;fill-rule:nonzero;stroke:none"
       id="path8853-1-9-1"
       sodipodi:cx="156.78572"
       sodipodi:cy="271.64789"
       sodipodi:rx="73.214287"
       sodipodi:ry="177.85715"
       d="m 83.571434,271.64788 a 73.214287,177.85715 0 1 1 0.0937,8.99522"
       sodipodi:start="3.1415927"
       sodipodi:end="9.3741809"
       sodipodi:open="true"
       transform="matrix(0.80574828,0,0,0.71798021,517.75871,291.70884)" />
    <path
       sodipodi:type="arc"
       style="fill:#ffeeaa;fill-opacity:1;fill-rule:nonzero;stroke:none"
       id="path8853-3-0-1-0"
       sodipodi:cx="156.78572"
       sodipodi:cy="271.64789"
       sodipodi:rx="73.214287"
       sodipodi:ry="177.85715"
       d="m 83.571434,271.64788 a 73.214287,177.85715 0 1 1 0.0937,8.99522"
       sodipodi:start="3.1415927"
       sodipodi:end="9.3741809"
       sodipodi:open="true"
       transform="matrix(0.80574828,0,0,0.71798021,432.7286,259.71113)" />
    <path
       sodipodi:type="arc"
       style="fill:#ffeeaa;fill-opacity:1;fill-rule:nonzero;stroke:none"
       id="path8853-31-9-5-3"
       sodipodi:cx="156.78572"
       sodipodi:cy="271.64789"
       sodipodi:rx="73.214287"
       sodipodi:ry="177.85715"
       d="m 83.571434,271.64788 a 73.214287,177.85715 0 1 1 0.0937,8.99522"
       sodipodi:start="3.1415927"
       sodipodi:end="9.3741809"
       sodipodi:open="true"
       transform="matrix(0.80574828,0,0,0.71798021,345.38612,294.27305)" />
    <path
       style="fill:none;stroke:none"
       d="m 197.93284,1144.8442 c 0,0 -174.756387,-120.2081 -131.319827,-178.79699 0,0 13.13199,-45.4568 63.639607,-26.2639"
       id="path8291-7-7"
       inkscape:connector-curvature="0" />
    <path
       style="fill:#ffeeaa;stroke:none"
       d="m 136.31354,940.79341 c 0,0 -52.527927,44.4467 -14.14214,39.396 38.3858,-5.0508 57.5787,-15.1523 54.54824,-49.4975 -3.03046,-34.3452 -51.51778,-115.1574 -9.09137,-148.4924 42.4264,-33.33506 88.89342,-17.17262 88.89342,-17.17262"
       id="path8293-3-3"
       inkscape:connector-curvature="0" />
    <path
       inkscape:connector-curvature="0"
       style="fill:none;stroke:none"
       d="m 363.609,591.26803 c 0,0 8.32496,21.64894 17.65625,51.15624 2.99466,0.10417 4.5324,0.10105 11.6875,-0.0312 10.60479,-0.1961 10.7926,10.54048 0.1875,10.71875 -5.4863,0.0922 -6.94043,0.11587 -8.53125,0.0937 19.8174,65.25537 40.24732,157.80319 -5.84375,151.21879 -70.71068,-10.1016 -9.09375,-39.40629 -9.09375,-39.40629 0,0 -36.37975,-26.24445 -54.5625,-5.03125 0,0 7.08662,55.54994 -20.1875,47.46874 0,0 -28.39359,-3.9884 -45.0625,-12.4375 l -53.9375,346.78129 c 0,0 73.73935,33.3372 152.53125,-31.3125 78.7919,-64.6498 165.64357,-302.02539 117.15625,-399.00003 -48.48732,-96.97463 -102,-120.21874 -102,-120.21874 z m -113.75,203.74998 4.65625,-29.99999 c -24.09214,13.18249 -18.29445,23.08719 -4.65625,29.99999 z"
       id="path8295-3-9" />
    <path
       inkscape:connector-curvature="0"
       style="fill:#002255;fill-opacity:1;fill-rule:nonzero;stroke:none"
       d="m 187.76525,683.64302 c -89.154527,0 -161.437497,76.76011 -161.437497,171.43749 l 0.21875,8.6563 c 4.34854,91.1907 75.237487,162.74999 161.218747,162.74999 89.15453,0 161.4375,-76.72889 161.4375,-171.40629 0,-72.2324 -42.08506,-134.00634 -101.625,-159.24999 -0.0156,3.86311 0.12603,7.39173 0.25,11.5625 l 0.25,3.5625 c 0.73664,10.58099 -9.97399,11.30133 -10.6875,0.71875 -0.0889,-1.31873 -0.16108,-2.65001 -0.25,-3.96875 -0.1695,-5.87697 -0.38201,-10.13798 -0.1875,-15.9375 -15.51042,-5.26451 -32.03311,-8.125 -49.1875,-8.125 z"
       id="path8851-4-5" />
    <path
       sodipodi:type="arc"
       style="fill:#002255;fill-opacity:1;fill-rule:nonzero;stroke:none"
       id="path8853-2-9"
       sodipodi:cx="156.78572"
       sodipodi:cy="271.64789"
       sodipodi:rx="73.214287"
       sodipodi:ry="177.85715"
       d="m 83.571434,271.64788 a 73.214287,177.85715 0 1 1 0.0937,8.99522"
       sodipodi:start="3.1415927"
       sodipodi:end="9.3741809"
       sodipodi:open="true"
       transform="translate(135.6224,479.84838)" />
    <path
       sodipodi:type="arc"
       style="fill:#002255;fill-opacity:1;fill-rule:nonzero;stroke:none"
       id="path8853-3-2-7"
       sodipodi:cx="156.78572"
       sodipodi:cy="271.64789"
       sodipodi:rx="73.214287"
       sodipodi:ry="177.85715"
       d="m 83.571434,271.64788 a 73.214287,177.85715 0 1 1 0.0937,8.99522"
       sodipodi:start="3.1415927"
       sodipodi:end="9.3741809"
       sodipodi:open="true"
       transform="translate(30.979533,436.27696)" />
    <path
       sodipodi:type="arc"
       style="fill:#002255;fill-opacity:1;fill-rule:nonzero;stroke:none"
       id="path8853-31-0-2"
       sodipodi:cx="156.78572"
       sodipodi:cy="271.64789"
       sodipodi:rx="73.214287"
       sodipodi:ry="177.85715"
       d="m 83.571434,271.64788 a 73.214287,177.85715 0 1 1 0.0937,8.99522"
       sodipodi:start="3.1415927"
       sodipodi:end="9.3741809"
       sodipodi:open="true"
       transform="translate(-78.306177,483.41982)" />
    <path
       style="fill:#ffeeaa;stroke:none"
       d="m 153.24462,933.47691 c 0,0 -48.36318,41.7606 -13.02086,37.0151 35.34233,-4.7455 53.01349,-14.2366 50.2233,-46.5062 -2.79018,-32.2696 -47.43312,-108.1981 -8.37054,-139.5186 39.06256,-31.32051 81.84538,-16.1348 81.84538,-16.1348"
       id="path8293-0-1-0"
       inkscape:connector-curvature="0" />
    <path
       inkscape:connector-curvature="0"
       style="fill:#0044aa;fill-opacity:1;fill-rule:nonzero;stroke:none"
       d="m 200.61691,691.86678 c -82.08579,0 -148.637697,72.12128 -148.637697,161.07703 l 0.2014,8.1332 c 4.00376,85.6797 69.272177,152.91449 148.436297,152.91449 82.08578,0 148.6377,-72.09189 148.6377,-161.04769 0,-67.8672 -38.74829,-125.90795 -93.56752,-149.62605 -0.0144,3.62965 0.11604,6.94502 0.23018,10.86374 l 0.23017,3.34721 c 0.67824,9.94155 -9.18318,10.61836 -9.84012,0.67531 -0.0819,-1.23903 -0.14831,-2.48986 -0.23018,-3.7289 -0.15606,-5.52181 -0.35172,-9.52532 -0.17263,-14.97435 -14.28066,-4.94637 -29.49332,-7.63399 -45.2876,-7.63399 z"
       id="path8851-8-2-2" />
    <path
       sodipodi:type="arc"
       style="fill:#0044aa;fill-opacity:1;fill-rule:nonzero;stroke:none"
       id="path8853-1-7-8"
       sodipodi:cx="156.78572"
       sodipodi:cy="271.64789"
       sodipodi:rx="73.214287"
       sodipodi:ry="177.85715"
       d="m 83.571434,271.64788 a 73.214287,177.85715 0 1 1 0.0937,8.99522"
       sodipodi:start="3.1415927"
       sodipodi:end="9.3741809"
       sodipodi:open="true"
       transform="matrix(0.92071358,0,0,0.93956719,152.60828,500.38803)" />
    <path
       sodipodi:type="arc"
       style="fill:#0044aa;fill-opacity:1;fill-rule:nonzero;stroke:none"
       id="path8853-3-0-7-6"
       sodipodi:cx="156.78572"
       sodipodi:cy="271.64789"
       sodipodi:rx="73.214287"
       sodipodi:ry="177.85715"
       d="m 83.571434,271.64788 a 73.214287,177.85715 0 1 1 0.0937,8.99522"
       sodipodi:start="3.1415927"
       sodipodi:end="9.3741809"
       sodipodi:open="true"
       transform="matrix(0.92071358,0,0,0.93956719,56.262163,459.44976)" />
    <path
       sodipodi:type="arc"
       style="fill:#0044aa;fill-opacity:1;fill-rule:nonzero;stroke:none"
       id="path8853-31-9-0-7"
       sodipodi:cx="156.78572"
       sodipodi:cy="271.64789"
       sodipodi:rx="73.214287"
       sodipodi:ry="177.85715"
       d="m 83.571434,271.64788 a 73.214287,177.85715 0 1 1 0.0937,8.99522"
       sodipodi:start="3.1415927"
       sodipodi:end="9.3741809"
       sodipodi:open="true"
       transform="matrix(0.92071358,0,0,0.93956719,-44.358677,503.74364)" />
    <path
       style="fill:#ffeeaa;stroke:none"
       d="m 157.46432,959.60831 c 0,0 -42.32429,31.9118 -11.395,28.2855 30.92929,-3.6264 46.39394,-10.8791 43.95214,-35.5382 -2.44178,-24.6592 -41.51036,-82.6808 -7.32534,-106.6147 34.18499,-23.9339 71.62572,-12.3295 71.62572,-12.3295"
       id="path8293-0-2-2-0"
       inkscape:connector-curvature="0" />
    <path
       inkscape:connector-curvature="0"
       style="fill:#2aff2a;fill-opacity:1;fill-rule:nonzero;stroke:none"
       d="m 198.92145,774.97931 c -71.83611,0 -130.077977,55.1123 -130.077977,123.0888 l 0.17625,6.215 c 3.50382,65.4731 60.622467,116.85129 129.901727,116.85129 71.83611,0 130.07799,-55.08979 130.07799,-123.06629 0,-51.8615 -33.90997,-96.2139 -81.88417,-114.3384 -0.0126,2.7737 0.10155,5.3071 0.20144,8.3017 l 0.20143,2.5578 c 0.59355,7.5969 -8.03652,8.1141 -8.61143,0.516 -0.0717,-0.9468 -0.1298,-1.9026 -0.20144,-2.8494 -0.13658,-4.2196 -0.3078,-7.2789 -0.15107,-11.4429 -12.49751,-3.7798 -25.81063,-5.8336 -39.63275,-5.8336 z"
       id="path8851-8-4-4-8" />
    <path
       sodipodi:type="arc"
       style="fill:#2aff2a;fill-opacity:1;fill-rule:nonzero;stroke:none"
       id="path8853-1-9-1-1"
       sodipodi:cx="156.78572"
       sodipodi:cy="271.64789"
       sodipodi:rx="73.214287"
       sodipodi:ry="177.85715"
       d="m 83.571434,271.64788 a 73.214287,177.85715 0 1 1 0.0937,8.99522"
       sodipodi:start="3.1415927"
       sodipodi:end="9.3741809"
       sodipodi:open="true"
       transform="matrix(0.80574828,0,0,0.71798021,156.90744,628.65884)" />
    <path
       sodipodi:type="arc"
       style="fill:#2aff2a;fill-opacity:1;fill-rule:nonzero;stroke:none"
       id="path8853-3-0-1-0-8"
       sodipodi:cx="156.78572"
       sodipodi:cy="271.64789"
       sodipodi:rx="73.214287"
       sodipodi:ry="177.85715"
       d="m 83.571434,271.64788 a 73.214287,177.85715 0 1 1 0.0937,8.99522"
       sodipodi:start="3.1415927"
       sodipodi:end="9.3741809"
       sodipodi:open="true"
       transform="matrix(0.80574828,0,0,0.71798021,71.877333,596.66113)" />
    <path
       sodipodi:type="arc"
       style="fill:#2aff2a;fill-opacity:1;fill-rule:nonzero;stroke:none"
       id="path8853-31-9-5-3-3"
       sodipodi:cx="156.78572"
       sodipodi:cy="271.64789"
       sodipodi:rx="73.214287"
       sodipodi:ry="177.85715"
       d="m 83.571434,271.64788 a 73.214287,177.85715 0 1 1 0.0937,8.99522"
       sodipodi:start="3.1415927"
       sodipodi:end="9.3741809"
       sodipodi:open="true"
       transform="matrix(0.80574828,0,0,0.71798021,-15.465147,631.22305)" />
  </g>
</svg>
