<?xml version="1.0" encoding="UTF-8" standalone="no"?>
<!-- Created with Inkscape (http://www.inkscape.org/) -->

<svg
   xmlns:dc="http://purl.org/dc/elements/1.1/"
   xmlns:cc="http://creativecommons.org/ns#"
   xmlns:rdf="http://www.w3.org/1999/02/22-rdf-syntax-ns#"
   xmlns:svg="http://www.w3.org/2000/svg"
   xmlns="http://www.w3.org/2000/svg"
   xmlns:xlink="http://www.w3.org/1999/xlink"
   xmlns:sodipodi="http://sodipodi.sourceforge.net/DTD/sodipodi-0.dtd"
   xmlns:inkscape="http://www.inkscape.org/namespaces/inkscape"
   width="744.09448819"
   height="1052.3622047"
   id="svg2"
   version="1.1"
   inkscape:version="0.48.5 r10040"
   sodipodi:docname="gameover.svg"
   inkscape:export-filename="C:\Users\abcharbo\Source\Repos\DatRepo\manda's Art\gameover.png"
   inkscape:export-xdpi="90"
   inkscape:export-ydpi="90">
  <defs
     id="defs4">
    <linearGradient
       inkscape:collect="always"
       id="linearGradient4166">
      <stop
         style="stop-color:#999999;stop-opacity:1;"
         offset="0"
         id="stop4168" />
      <stop
         style="stop-color:#999999;stop-opacity:0;"
         offset="1"
         id="stop4170" />
    </linearGradient>
    <linearGradient
       inkscape:collect="always"
       id="linearGradient4156">
      <stop
         style="stop-color:#999999;stop-opacity:1;"
         offset="0"
         id="stop4158" />
      <stop
         style="stop-color:#999999;stop-opacity:0;"
         offset="1"
         id="stop4160" />
    </linearGradient>
    <linearGradient
       inkscape:collect="always"
       id="linearGradient4146">
      <stop
         style="stop-color:#e6e6e6;stop-opacity:1;"
         offset="0"
         id="stop4148" />
      <stop
         style="stop-color:#e6e6e6;stop-opacity:0;"
         offset="1"
         id="stop4150" />
    </linearGradient>
    <linearGradient
       inkscape:collect="always"
       id="linearGradient2989">
      <stop
         style="stop-color:#4d4d4d;stop-opacity:1;"
         offset="0"
         id="stop2991" />
      <stop
         style="stop-color:#4d4d4d;stop-opacity:0;"
         offset="1"
         id="stop2993" />
    </linearGradient>
    <radialGradient
       inkscape:collect="always"
       xlink:href="#linearGradient2989"
       id="radialGradient2995"
       cx="-103.03556"
       cy="51.468204"
       fx="-103.03556"
       fy="51.468204"
       r="473.76154"
       gradientTransform="matrix(2.0038826,2.4511247,-0.92610677,0.75516624,163.1708,184.87191)"
       gradientUnits="userSpaceOnUse" />
    <radialGradient
       inkscape:collect="always"
       xlink:href="#linearGradient4146"
       id="radialGradient4152"
       cx="245.71428"
       cy="1004.0535"
       fx="245.71428"
       fy="1004.0535"
       r="274.28571"
       gradientTransform="matrix(1.5671659,0,0,0.04947917,-73.222351,989.8253)"
       gradientUnits="userSpaceOnUse" />
    <radialGradient
       inkscape:collect="always"
       xlink:href="#linearGradient4156"
       id="radialGradient4162"
       cx="358.34753"
       cy="1115.7913"
       fx="358.34753"
       fy="1115.7913"
       r="240"
       gradientTransform="matrix(1.8988096,0,-1.1701643e-6,0.05952381,-301.861,980.23175)"
       gradientUnits="userSpaceOnUse" />
    <radialGradient
       inkscape:collect="always"
       xlink:href="#linearGradient4166"
       id="radialGradient4172"
       cx="184.28572"
       cy="1044.0347"
       fx="184.28572"
       fy="1044.0347"
       r="273.57144"
       gradientTransform="matrix(2.1305482,-0.00522194,2.6196771e-4,0.10704928,-208.61739,927.27563)"
       gradientUnits="userSpaceOnUse" />
  </defs>
  <sodipodi:namedview
     id="base"
     pagecolor="#ffffff"
     bordercolor="#666666"
     borderopacity="1.0"
     inkscape:pageopacity="0.0"
     inkscape:pageshadow="2"
     inkscape:zoom="0.7"
     inkscape:cx="210.71429"
     inkscape:cy="497.70028"
     inkscape:document-units="px"
     inkscape:current-layer="layer3"
     showgrid="false"
     inkscape:window-width="1920"
     inkscape:window-height="1017"
     inkscape:window-x="-8"
     inkscape:window-y="-8"
     inkscape:window-maximized="1" />
  <metadata
     id="metadata7">
    <rdf:RDF>
      <cc:Work
         rdf:about="">
        <dc:format>image/svg+xml</dc:format>
        <dc:type
           rdf:resource="http://purl.org/dc/dcmitype/StillImage" />
        <dc:title></dc:title>
      </cc:Work>
    </rdf:RDF>
  </metadata>
  <g
     inkscape:label="Layer 1"
     inkscape:groupmode="layer"
     id="layer1"
     sodipodi:insensitive="true">
    <rect
       style="fill:#000000;fill-opacity:1;stroke:none"
       id="rect2985"
       width="935.40125"
       height="1121.2693"
       x="-94.954338"
       y="-48.70409"
       ry="5.6194615" />
    <rect
       style="fill:url(#radialGradient2995);fill-opacity:1;stroke:none"
       id="rect2987"
       width="935.40125"
       height="1131.3708"
       x="-94.954338"
       y="-50.7244"
       ry="5.5403142" />
    <flowRoot
       xml:space="preserve"
       id="flowRoot3238"
       style="font-size:40px;font-style:normal;font-variant:normal;font-weight:normal;font-stretch:normal;line-height:125%;letter-spacing:0px;word-spacing:0px;fill:#000000;fill-opacity:1;stroke:none;font-family:Khmer UI;-inkscape-font-specification:Khmer UI"><flowRegion
         id="flowRegion3240"><rect
           id="rect3242"
           width="87.14286"
           height="80"
           x="-454.28571"
           y="953.79077" /></flowRegion><flowPara
         id="flowPara3244"></flowPara></flowRoot>    <flowRoot
       xml:space="preserve"
       id="flowRoot3246"
       style="font-size:40px;font-style:normal;font-variant:normal;font-weight:normal;font-stretch:normal;line-height:125%;letter-spacing:0px;word-spacing:0px;fill:#000000;fill-opacity:1;stroke:none;font-family:Khmer UI;-inkscape-font-specification:Khmer UI"><flowRegion
         id="flowRegion3248"><rect
           id="rect3250"
           width="630"
           height="712.85712"
           x="-698.57141"
           y="599.50507" /></flowRegion><flowPara
         id="flowPara3252"></flowPara></flowRoot>  </g>
  <g
     inkscape:groupmode="layer"
     id="layer3"
     inkscape:label="Layer#1"
     style="display:inline">
    <path
       sodipodi:type="arc"
       style="fill:url(#radialGradient4172);fill-opacity:1;stroke:none"
       id="path4164"
       sodipodi:cx="446.42856"
       sodipodi:cy="1037.3622"
       sodipodi:rx="273.57144"
       sodipodi:ry="29.285715"
       d="m 172.85712,1037.3622 a 273.57144,29.285715 0 1 1 2.58519,4.0165"
       sodipodi:start="3.1415927"
       sodipodi:end="9.2871936"
       sodipodi:open="true"
       transform="translate(111.42857,-1.4285714)" />
  </g>
  <g
     inkscape:groupmode="layer"
     id="layer2"
     inkscape:label="Layer"
     style="display:inline">
    <path
       style="fill:#000000;fill-opacity:1;stroke:none;display:inline"
       d="m 375.86728,932.83813 c -70.39385,29.389 -99.55703,-65.13248 -99.55703,-65.13248 0,0 53.29821,47.65785 89.50078,42.09776 25.14066,14.2974 10.05625,23.03472 10.05625,23.03472 z"
       id="path4779-3"
       inkscape:connector-curvature="0" />
    <path
       style="fill:#000000;fill-opacity:1;stroke:none;display:inline"
       d="m 365.97641,930.62205 c -57.5803,24.82796 -81.43503,-55.02418 -81.43503,-55.02418 0,0 43.59654,40.26159 73.20928,35.56437 20.56439,12.07848 8.22575,19.45981 8.22575,19.45981 z"
       id="path4779-2-0"
       inkscape:connector-curvature="0" />
    <ellipse
       transform="matrix(0.85207334,0,0,0.79315471,257.54496,541.55461)"
       style="fill:#000000;fill-opacity:1;display:inline"
       id="path4291"
       cx="258.09399"
       cy="465.81711"
       rx="140.71425"
       ry="114.19773"
       sodipodi:cx="258.09399"
       sodipodi:cy="465.81711"
       sodipodi:rx="140.71425"
       sodipodi:ry="114.19773"
       d="m 398.80824,465.81711 c 0,63.06966 -62.99991,114.19773 -140.71425,114.19773 -77.71433,0 -140.71424,-51.12807 -140.71424,-114.19773 0,-63.06967 62.99991,-114.19773 140.71424,-114.19773 77.71434,0 140.71425,51.12806 140.71425,114.19773 z" />
    <ellipse
       transform="matrix(0.85207334,0,0,0.79315471,257.54496,541.55461)"
       style="fill:#000000;fill-opacity:1;display:inline"
       id="path4291-9"
       cx="254.86623"
       cy="468.28967"
       rx="133.28963"
       ry="110.30864"
       sodipodi:cx="254.86623"
       sodipodi:cy="468.28967"
       sodipodi:rx="133.28963"
       sodipodi:ry="110.30864"
       d="m 388.15585,468.28967 c 0,60.92178 -59.6758,110.30864 -133.28962,110.30864 -73.61383,0 -133.28963,-49.38686 -133.28963,-110.30864 0,-60.92178 59.6758,-110.30864 133.28963,-110.30864 73.61382,0 133.28962,49.38686 133.28962,110.30864 z" />
    <ellipse
       transform="matrix(0.85207334,0,0,0.79315471,257.54496,541.55461)"
       style="fill:#000000;fill-opacity:1;display:inline"
       id="path4208"
       cx="181.72644"
       cy="529.81024"
       rx="75.660423"
       ry="73.539101"
       sodipodi:cx="181.72644"
       sodipodi:cy="529.81024"
       sodipodi:rx="75.660423"
       sodipodi:ry="73.539101"
       d="m 257.38686,529.81024 c 0,40.61453 -33.87432,73.5391 -75.66042,73.5391 -41.7861,0 -75.66042,-32.92457 -75.66042,-73.5391 0,-40.61452 33.87432,-73.5391 75.66042,-73.5391 41.7861,0 75.66042,32.92458 75.66042,73.5391 z" />
    <ellipse
       transform="matrix(0.85207334,0,0,0.79315471,257.54496,541.55461)"
       style="fill:#000000;fill-opacity:1;display:inline"
       id="path4210"
       cx="211.42493"
       cy="595.57129"
       rx="53.740112"
       ry="37.476658"
       sodipodi:cx="211.42493"
       sodipodi:cy="595.57129"
       sodipodi:rx="53.740112"
       sodipodi:ry="37.476658"
       d="m 265.16504,595.57129 c 0,20.69779 -24.06027,37.47666 -53.74011,37.47666 -29.67985,0 -53.74012,-16.77887 -53.74012,-37.47666 0,-20.69779 24.06027,-37.47666 53.74012,-37.47666 29.67984,0 53.74011,16.77887 53.74011,37.47666 z" />
    <ellipse
       transform="matrix(0.85207334,0,0,0.79315471,257.54496,541.55461)"
       style="fill:#000000;fill-opacity:1;display:inline"
       id="path4208-2"
       cx="179.95868"
       cy="527.33551"
       rx="73.185547"
       ry="70.357117"
       sodipodi:cx="179.95868"
       sodipodi:cy="527.33551"
       sodipodi:rx="73.185547"
       sodipodi:ry="70.357117"
       d="m 253.14423,527.33551 c 0,38.85716 -32.76629,70.35712 -73.18555,70.35712 -40.41926,0 -73.18555,-31.49996 -73.18555,-70.35712 0,-38.85716 32.76629,-70.35712 73.18555,-70.35712 40.41926,0 73.18555,31.49996 73.18555,70.35712 z" />
    <ellipse
       transform="matrix(0.85207334,0,0,0.79315471,257.54496,541.55461)"
       style="fill:#000000;fill-opacity:1;display:inline"
       id="path4210-6"
       cx="209.3036"
       cy="595.9248"
       rx="48.790363"
       ry="31.466249"
       sodipodi:cx="209.3036"
       sodipodi:cy="595.9248"
       sodipodi:rx="48.790363"
       sodipodi:ry="31.466249"
       d="m 258.09397,595.9248 c 0,17.37833 -21.84419,31.46625 -48.79037,31.46625 -26.94617,0 -48.79036,-14.08792 -48.79036,-31.46625 0,-17.37833 21.84419,-31.46624 48.79036,-31.46624 26.94618,0 48.79037,14.08791 48.79037,31.46624 z" />
    <ellipse
       transform="matrix(0.85207334,0,0,0.79315471,257.54496,541.55461)"
       style="fill:#000000;fill-opacity:1;display:inline"
       id="path3399"
       cx="318.55161"
       cy="506.4758"
       rx="61.164734"
       ry="65.053818"
       sodipodi:cx="318.55161"
       sodipodi:cy="506.4758"
       sodipodi:rx="61.164734"
       sodipodi:ry="65.053818"
       d="m 379.71634,506.4758 c 0,35.92823 -27.38439,65.05382 -61.16473,65.05382 -33.78035,0 -61.16474,-29.12559 -61.16474,-65.05382 0,-35.92823 27.38439,-65.05382 61.16474,-65.05382 33.78034,0 61.16473,29.12559 61.16473,65.05382 z" />
    <ellipse
       transform="matrix(0.85207334,0,0,0.79315471,257.54496,541.55461)"
       style="fill:#000000;fill-opacity:1;display:inline"
       id="path3401"
       cx="306.53079"
       cy="554.9126"
       rx="51.26524"
       ry="61.871841"
       sodipodi:cx="306.53079"
       sodipodi:cy="554.9126"
       sodipodi:rx="51.26524"
       sodipodi:ry="61.871841"
       d="m 357.79603,554.9126 c 0,34.17087 -22.95223,61.87184 -51.26524,61.87184 -28.31301,0 -51.26524,-27.70097 -51.26524,-61.87184 0,-34.17088 22.95223,-61.87184 51.26524,-61.87184 28.31301,0 51.26524,27.70096 51.26524,61.87184 z" />
    <ellipse
       transform="matrix(0.85207334,0,0,0.79315471,257.54496,541.55461)"
       style="fill:#000000;fill-opacity:1;display:inline"
       id="path3403"
       cx="334.46149"
       cy="597.33899"
       rx="53.033009"
       ry="37.123104"
       sodipodi:cx="334.46149"
       sodipodi:cy="597.33899"
       sodipodi:rx="53.033009"
       sodipodi:ry="37.123104"
       d="m 387.4945,597.33899 c 0,20.50252 -23.74369,37.1231 -53.03301,37.1231 -29.28933,0 -53.03301,-16.62058 -53.03301,-37.1231 0,-20.50253 23.74368,-37.1231 53.03301,-37.1231 29.28932,0 53.03301,16.62057 53.03301,37.1231 z" />
    <ellipse
       transform="matrix(0.85207334,0,0,0.79315471,257.54496,541.55461)"
       style="fill:#000000;fill-opacity:1;display:inline"
       id="path3399-9"
       cx="318.6575"
       cy="504.23141"
       rx="58.875145"
       ry="64.577232"
       sodipodi:cx="318.6575"
       sodipodi:cy="504.23141"
       sodipodi:rx="58.875145"
       sodipodi:ry="64.577232"
       d="m 377.53265,504.23141 c 0,35.66503 -26.3593,64.57724 -58.87515,64.57724 -32.51584,0 -58.87514,-28.91221 -58.87514,-64.57724 0,-35.66502 26.3593,-64.57723 58.87514,-64.57723 32.51585,0 58.87515,28.91221 58.87515,64.57723 z" />
    <ellipse
       transform="matrix(0.85207334,0,0,0.79315471,257.54496,541.55461)"
       style="fill:#000000;fill-opacity:1;display:inline"
       id="path3401-5"
       cx="307.08667"
       cy="552.31335"
       rx="49.346218"
       ry="61.418568"
       sodipodi:cx="307.08667"
       sodipodi:cy="552.31335"
       sodipodi:rx="49.346218"
       sodipodi:ry="61.418568"
       d="m 356.43289,552.31335 c 0,33.92054 -22.09306,61.41857 -49.34622,61.41857 -27.25316,0 -49.34622,-27.49803 -49.34622,-61.41857 0,-33.92053 22.09306,-61.41856 49.34622,-61.41856 27.25316,0 49.34622,27.49803 49.34622,61.41856 z" />
    <ellipse
       transform="matrix(0.85207334,0,0,0.79315471,257.54496,541.55461)"
       style="fill:#000000;fill-opacity:1;display:inline"
       id="path3403-4"
       cx="328.31494"
       cy="595.8432"
       rx="51.047817"
       ry="36.851139"
       sodipodi:cx="328.31494"
       sodipodi:cy="595.8432"
       sodipodi:rx="51.047817"
       sodipodi:ry="36.851139"
       d="m 379.36276,595.8432 c 0,20.35232 -22.85489,36.85114 -51.04782,36.85114 -28.19293,0 -51.04782,-16.49882 -51.04782,-36.85114 0,-20.35232 22.85489,-36.85114 51.04782,-36.85114 28.19293,0 51.04782,16.49882 51.04782,36.85114 z" />
    <ellipse
       style="fill:#000000;fill-opacity:0.56078384;stroke:none;display:inline"
       id="path4937"
       transform="matrix(1.3932369,1.0474449,-1.7002996,2.3077196,266.46341,65.635902)"
       cx="296.78571"
       cy="122.36218"
       rx="14.642858"
       ry="15"
       sodipodi:cx="296.78571"
       sodipodi:cy="122.36218"
       sodipodi:rx="14.642858"
       sodipodi:ry="15"
       d="m 311.42856,122.36218 c 0,8.28427 -6.55583,15 -14.64285,15 -8.08703,0 -14.64286,-6.71573 -14.64286,-15 0,-8.28427 6.55583,-15 14.64286,-15 8.08702,0 14.64285,6.71573 14.64285,15 z" />
    <ellipse
       style="fill:#000000;fill-opacity:1;stroke:none;display:inline"
       id="path4937-5"
       transform="matrix(1.3932369,1.0474449,-1.7002996,2.3077196,266.44791,70.606936)"
       cx="296.78571"
       cy="122.36218"
       rx="14.642858"
       ry="15"
       sodipodi:cx="296.78571"
       sodipodi:cy="122.36218"
       sodipodi:rx="14.642858"
       sodipodi:ry="15"
       d="m 311.42856,122.36218 c 0,8.28427 -6.55583,15 -14.64285,15 -8.08703,0 -14.64286,-6.71573 -14.64286,-15 0,-8.28427 6.55583,-15 14.64286,-15 8.08702,0 14.64285,6.71573 14.64285,15 z" />
    <path
       style="fill:#000000;fill-opacity:1;display:inline"
       d="m 521.39068,671.00641 c -66.55446,0 -120.48849,48.71109 -120.48849,108.78614 0,60.07505 53.93403,108.76134 120.48849,108.76134 37.04975,0 70.13909,-15.1184 92.23694,-38.86458 -0.0794,-0.0516 -0.13014,-0.0945 -0.21302,-0.14872 -1.00894,-0.18868 -2.0615,-0.45236 -2.44971,-0.84273 -0.22155,-0.22279 -0.40948,-0.46809 -0.61242,-0.69401 -0.23304,-0.0493 -0.47388,-0.10679 -0.71894,-0.1735 -0.38687,-0.083 -0.76658,-0.16641 -1.14497,-0.27265 -0.17402,-0.0489 -0.34174,-0.12012 -0.50592,-0.19829 -0.008,-0.002 -0.0188,0.002 -0.0266,0 -1.74538,-0.47111 -2.91474,-0.74926 -4.15386,-1.75981 -1.51884,-0.50391 -1.78682,-0.65562 -2.52959,-1.14016 -1.53209,-0.29051 -1.74057,-0.61685 -3.27516,-1.51195 -0.0624,-0.0364 -0.16071,-0.0509 -0.21301,-0.0991 -0.10442,-0.0963 -0.19196,-0.19792 -0.2929,-0.29744 -0.13282,-0.0458 -0.27665,-0.10166 -0.37279,-0.12393 -1.45877,-0.33777 -2.5738,-1.16287 -3.64793,-1.93331 -0.0521,-0.0335 -0.10783,-0.0656 -0.15977,-0.0992 -0.40947,-0.1143 -0.84387,-0.26497 -1.1716,-0.5205 -0.5574,-0.43461 -0.9756,-0.81115 -1.30474,-1.14016 -0.31122,0.0198 -0.63876,-0.33506 -0.93195,-0.49572 -1.31053,-0.7182 -2.07453,-1.37566 -2.87575,-2.13161 -0.005,-0.003 -0.0717,-0.0684 -0.0798,-0.0743 -0.0129,-0.0319 -0.0666,-0.1304 -0.21302,-0.29743 -1.49436,-0.55182 -0.52614,-0.38404 -1.30473,-0.52051 l -1.67752,-1.68545 c 0.0483,0.0689 0.1266,0.17165 0.15976,0.22307 0.01,0.0156 0.002,0.0205 0,0.0247 -0.0146,-0.006 -0.055,-0.034 -0.0798,-0.0496 0.0785,0.1044 0.2879,0.39038 0.21302,0.29743 -0.0856,-0.10627 -0.17446,-0.21901 -0.26627,-0.32222 -0.0935,-0.0634 -0.20293,-0.15545 -0.26628,-0.19829 -0.3475,-0.23499 -0.67031,-0.47633 -1.01183,-0.71879 0.32703,0.2069 0.70456,0.44728 1.01183,0.61965 -0.25014,-0.2829 -0.48294,-0.55956 -0.63905,-0.8923 -0.19709,-0.42009 0.47102,0.45138 0.85207,0.99144 0.0108,0.005 0.0163,0.0201 0.0266,0.0248 0.65792,0.30001 0.48921,-0.20082 -3.08877,-3.79227 -0.32425,-0.32547 0.18762,0.38299 0.50592,1.04101 0.38617,0.34883 0.70815,0.85606 0.39941,0.74359 -0.0721,-0.0263 -0.12224,-0.0863 -0.18639,-0.12393 0.003,0.0231 2.3e-4,0.0533 0,0.0743 -0.003,0.30696 -0.65344,-0.44533 -0.79882,-0.81795 -0.0962,-0.11304 -0.18632,-0.22397 -0.2929,-0.32221 0.0908,0.0813 0.11653,0.11245 0.26627,0.24786 -0.004,-0.0239 -0.004,-0.0581 0,-0.0743 -0.7706,-0.71045 -1.82384,-1.6753 -2.18351,-2.40421 -0.0947,-0.19184 -0.16282,-0.39616 -0.23965,-0.59487 -0.3859,-0.24705 -0.88339,-0.79206 -0.98521,-1.28888 -0.0618,-0.30145 0.2169,0.0671 0.53255,0.47094 -0.18897,-0.46703 -0.40275,-1.07268 -0.39941,-1.18973 l -0.8787,-1.7846 c 0.008,0.0458 -0.0431,-0.0499 -0.10651,-0.12393 0.13183,0.5043 0.29167,1.02034 0.2929,1.53674 6.5e-4,0.27411 -0.28108,-0.4831 -0.37278,-0.74359 -0.17445,-0.49554 -0.33728,-0.99707 -0.42604,-1.51195 -0.55621,-1.01575 -0.66764,-2.02437 -0.63906,-3.12304 -0.4606,-0.7565 -0.92622,-1.6321 -0.85207,-2.18118 -0.13482,-0.55315 -0.26541,-1.10733 -0.39941,-1.66067 0.0456,-0.25786 0.0869,-0.5106 0.13314,-0.76837 -0.0908,-0.42398 -0.17537,-0.85391 -0.31953,-1.26409 -0.0896,-0.25491 0.24081,1.01564 0.0798,0.79316 -0.542,-0.74925 -0.45098,-2.90518 -0.34615,-3.7427 0.17793,-1.42179 0.56052,-2.05389 1.03846,-2.18118 0.36362,-2.81824 3.56527,-5.45116 9.58582,-5.30422 2.27031,0.0554 4.49973,-0.34561 6.76334,-0.0496 0.62549,0.15802 1.24448,0.29341 1.86391,0.47094 0.046,0.0132 0.14182,0.0309 0.21302,0.0496 0.4916,0.0225 1.03215,0.11324 1.57101,0.22307 0.88668,-0.23916 1.93962,-0.3577 3.14202,-0.32222 0.68553,0.0202 0.31525,0.0183 1.11834,0.0248 1.72574,-0.0771 3.52892,-0.40601 5.05919,0.47094 0.0242,7.2e-4 0.0575,0.002 0.0798,0 1.61425,-0.10558 3.20268,-0.0472 4.55326,0.61965 l 2.02368,0 c 1.20384,-10e-6 2.41748,-9e-5 3.62131,0 1.21903,1.5e-4 2.42892,7.9e-4 3.64794,0 1.28435,9e-5 2.57661,0.006 3.86096,0 1.30892,-0.006 2.60629,-0.0381 3.91421,0.0247 0.83734,0.0233 1.66465,-0.18874 2.50296,-0.1735 1.71219,0.0311 1.66817,0.12768 3.22191,0.61965 0.0151,0.007 0.012,0.0178 0.0266,0.0248 0.77834,-0.0838 0.78184,-0.0771 2.21007,0 0.0761,0.0159 1.99181,0.37138 2.21006,0.54529 0.12282,0.0979 -0.61632,-0.006 -0.47929,0.0743 0.24313,0.14172 1.37054,-0.0911 1.70415,0 l 1.43787,0 c 2.31594,-8.41127 3.56806,-17.19001 3.56806,-26.24846 0,-60.07505 -53.96067,-108.78614 -120.51513,-108.78614 z m 62.33449,162.49758 -0.2929,-0.29743 c 0.0604,0.0807 0.085,0.1145 0.18639,0.24786 0.0393,0.0206 0.0711,0.0328 0.10651,0.0496 z m 11.42311,-14.7725 c -8.5e-4,0.0247 0.002,0.0494 0,0.0743 0.0175,0.008 0.0357,0.0169 0.0533,0.0247 0.007,-0.0233 0.0193,-0.0497 0.0266,-0.0743 -0.0226,-0.002 -0.0614,-0.0247 -0.0798,-0.0247 z m -17.33436,7.93154 c 0.0372,0.12299 0.0324,0.17053 0.0532,0.24786 0.0229,0.0286 0.058,0.0477 0.0798,0.0743 -0.0408,-0.10963 -0.0897,-0.21357 -0.13314,-0.32222 z m 7.26925,7.33669 c -0.081,0.002 0.88238,1.19391 1.33136,1.53673 0.053,0.0405 0.15659,0.0801 0.23965,0.12393 -0.48955,-0.54865 -1.28867,-1.42563 -1.4645,-1.58631 -0.0592,-0.0541 -0.0949,-0.0746 -0.10651,-0.0743 z m 2.07692,1.88374 c 0.53949,0.21397 1.07806,0.3814 0.74557,0.27264 -0.38046,-0.12444 -0.48528,-0.18152 -0.74557,-0.27264 z m 2.76924,1.7846 c 0.0168,0.0285 0.11648,0.19169 0.23965,0.47093 0.0573,0.0409 0.17323,0.0794 0.26627,0.12393 -0.31992,-0.37086 -0.53041,-0.63648 -0.50592,-0.59486 z m 6.36393,3.74269 c 0.14416,0.15961 0.3323,0.38729 0.42603,0.49573 0.0496,0.0213 0.10787,0.0308 0.15977,0.0496 -0.18665,-0.19021 -0.39012,-0.36344 -0.5858,-0.5453 z m 4.12723,2.5034 c -0.13047,-0.0824 0.22956,0.19866 0.34615,0.29743 0.0545,0.0226 0.15184,0.0669 0.23965,0.0992 -0.18174,-0.11869 -0.32114,-0.22944 -0.5858,-0.39658 z m 1.25148,0.42136 c -0.602,0.0405 1.15431,0.80538 1.99705,1.16495 -0.16752,-0.1426 -0.32845,-0.3469 -0.50592,-0.52051 -0.2369,-0.0963 -0.44298,-0.19999 -0.95859,-0.49572 -0.042,-0.0531 -0.0393,-0.0478 -0.0798,-0.0992 -0.17778,-0.0239 -0.37081,-0.0551 -0.45267,-0.0496 z"
       id="path2985-1-6"
       inkscape:connector-curvature="0" />
    <path
       style="opacity:0.47000002;fill:#000000;fill-opacity:1;display:inline"
       d="m 558.76725,670.34566 c -62.46772,-17.41759 -127.48946,13.18013 -145.23639,68.33106 -17.74693,55.15091 18.50461,113.96032 80.97233,131.37791 30.14574,8.4054 60.86313,5.58744 86.59732,-5.7391 -0.47066,-0.37729 -0.90418,-0.80849 -1.30137,-1.39781 -1.29964,-0.88842 -1.50959,-1.10532 -2.07175,-1.76788 -1.37811,-0.68751 -1.47723,-1.05582 -2.67136,-2.32316 -0.0486,-0.0516 -0.13826,-0.0917 -0.1735,-0.15187 -0.0704,-0.12017 -0.12287,-0.24087 -0.1889,-0.36317 -0.1131,-0.0794 -0.23367,-0.17128 -0.3189,-0.21828 -1.29332,-0.71321 -2.10711,-1.80144 -2.89858,-2.82638 -0.0395,-0.046 -0.0831,-0.0916 -0.12248,-0.13765 -0.35702,-0.21888 -0.72672,-0.47924 -0.96188,-0.81155 -0.39999,-0.56522 -0.68453,-1.03762 -0.89841,-1.44071 -0.30425,-0.0642 -0.50862,-0.49159 -0.73996,-0.7238 -1.03403,-1.03804 -1.56324,-1.87192 -2.09774,-2.81008 -0.004,-0.005 -0.0476,-0.0847 -0.0536,-0.0925 -0.003,-0.034 -0.0235,-0.1427 -0.11238,-0.34183 -1.26142,-0.92776 -0.38563,-0.50843 -1.08942,-0.84711 l -1.08742,-2.06267 c 0.0251,0.0789 0.0683,0.19826 0.0843,0.25637 0.005,0.0177 -0.004,0.0201 -0.008,0.0237 -0.0123,-0.009 -0.0422,-0.0472 -0.0612,-0.0688 0.043,0.12098 0.15545,0.45086 0.11237,0.34182 -0.0492,-0.12466 -0.0996,-0.25639 -0.15575,-0.37978 -0.07,-0.0857 -0.14648,-0.20312 -0.19395,-0.26108 -0.26045,-0.31793 -0.49529,-0.63534 -0.74771,-0.95883 0.24949,0.28555 0.53705,0.61666 0.77827,0.86386 -0.15242,-0.33782 -0.29015,-0.66503 -0.33713,-1.02547 -0.0593,-0.45507 0.31207,0.55821 0.51063,1.17734 0.009,0.007 0.009,0.0236 0.0178,0.0308 0.53778,0.46312 0.53055,-0.0617 -1.78988,-4.45781 -0.21029,-0.39839 0.0617,0.41699 0.16374,1.13236 0.2624,0.43732 0.41448,1.0092 0.1534,0.819 -0.0609,-0.0444 -0.0905,-0.11529 -0.14035,-0.1685 -0.004,0.0228 -0.0162,0.0511 -0.0229,0.0712 -0.0979,0.29314 -0.48869,-0.60114 -0.5131,-0.99691 -0.0573,-0.13401 -0.10945,-0.26433 -0.18126,-0.38691 0.0619,0.1021 0.0769,0.13885 0.17867,0.30856 0.003,-0.024 0.0138,-0.0568 0.0229,-0.0712 -0.51915,-0.88639 -1.23069,-2.09198 -1.35054,-2.88631 -0.0315,-0.20905 -0.0338,-0.42299 -0.0462,-0.63387 -0.29352,-0.33973 -0.60208,-0.9947 -0.54648,-1.49782 0.0337,-0.30528 0.18709,0.12221 0.36498,0.59337 -0.0371,-0.49786 -0.0551,-1.13514 -0.0158,-1.24637 l -0.29164,-1.94426 c -0.007,0.0459 -0.0259,-0.0593 -0.0638,-0.14717 -0.0291,0.51831 -0.0351,1.05534 -0.19313,1.55035 -0.0838,0.26277 -0.12033,-0.53786 -0.12788,-0.81189 -0.0143,-0.52129 -0.0158,-1.04523 0.0579,-1.56216 -0.2197,-1.1216 -0.0155,-2.11757 0.35051,-3.16241 -0.20803,-0.8477 -0.38415,-1.81086 -0.14388,-2.31704 0.0413,-0.56591 0.0871,-1.13166 0.12931,-1.69752 0.12315,-0.23484 0.24064,-0.46591 0.36438,-0.7005 0.0437,-0.4304 0.0952,-0.86484 0.0836,-1.29627 -0.008,-0.26813 -0.0824,1.03725 -0.16801,0.78113 -0.28824,-0.86252 0.46354,-2.90347 0.82212,-3.67777 0.60873,-1.31447 1.17009,-1.8178 1.66715,-1.81208 1.21709,-2.60261 5.09571,-4.26964 10.81779,-2.52079 2.15774,0.65951 4.41705,0.87079 6.4942,1.75899 0.55049,0.31845 1.10171,0.61348 1.64036,0.94899 0.04,0.0249 0.12633,0.0675 0.18878,0.10439 0.464,0.15288 0.95385,0.38417 1.43618,0.63331 0.92312,0.008 1.96833,0.17541 3.10922,0.53056 0.65048,0.20249 0.29635,0.10176 1.06369,0.32242 1.67694,0.38709 3.50568,0.55364 4.70126,1.80243 0.0229,0.007 0.0546,0.0169 0.0765,0.0213 1.57892,0.33003 3.08255,0.81023 4.17079,1.80977 l 1.93857,0.54053 c 1.15322,0.32154 2.31585,0.64562 3.46903,0.96725 1.16771,0.32574 2.32652,0.64952 3.49454,0.97437 1.23031,0.34313 2.4663,0.69429 3.69859,1.03126 1.25584,0.34354 2.50843,0.65967 3.74198,1.0692 0.79495,0.24598 1.65283,0.26381 2.4512,0.50233 1.63059,0.48711 1.55864,0.56788 2.8954,1.45416 0.0123,0.0109 0.006,0.0203 0.0178,0.0308 0.77143,0.12762 0.77272,0.13498 2.11712,0.59031 0.0636,0.0332 1.53874,0.75551 1.86229,1.03673 7.58113,-9.28358 13.51884,-19.89819 17.29537,-31.63427 17.74693,-55.15093 -18.52247,-113.9912 -80.99019,-131.40879 z m 5.52775,175.62252 -0.1889,-0.36316 c 0.033,0.0934 0.0462,0.1324 0.10215,0.28723 0.0313,0.0302 0.058,0.0504 0.0867,0.0759 z m 57.7794,-12.58406 c -0.008,0.002 -0.021,0.01 -0.008,0.0237 0.0435,0.0461 0.14289,0.09 0.2653,0.12572 0.0108,0.003 0.0143,0.004 0.0255,0.007 0.017,-0.0207 0.0315,-0.0434 0.0484,-0.0641 -0.13365,-0.0371 -0.29925,-0.10422 -0.3316,-0.0924 z m -42.28293,1.48389 c -0.009,0.0235 -0.0136,0.0477 -0.0229,0.0712 0.0142,0.0124 0.029,0.0257 0.0434,0.0379 0.0137,-0.0205 0.0338,-0.0424 0.0484,-0.0641 -0.0211,-0.008 -0.0512,-0.0401 -0.0688,-0.0451 z m -19.05038,2.96799 c -0.003,0.12776 -0.0216,0.172 -0.0254,0.25166 0.0131,0.0336 0.0409,0.0612 0.0536,0.0925 -0.005,-0.11593 -0.0201,-0.22856 -0.0282,-0.34423 z m 4.70198,8.96978 c -0.0781,-0.0201 0.47726,1.3794 0.80167,1.82772 0.0383,0.0529 0.12531,0.11859 0.19136,0.18273 -0.29982,-0.65634 -0.795,-1.70989 -0.91392,-1.91077 -0.0401,-0.0677 -0.0679,-0.0968 -0.0791,-0.0996 z m 1.40891,2.35928 c 0.45085,0.34907 0.91516,0.65331 0.63017,0.46032 -0.32609,-0.22084 -0.40891,-0.30351 -0.63017,-0.46032 z m 2.10268,2.44921 c 0.008,0.0318 0.0525,0.21474 0.0844,0.51514 0.0423,0.0545 0.14146,0.12236 0.21687,0.18984 -0.19214,-0.44072 -0.31191,-0.75139 -0.30127,-0.70498 z m 4.9426,5.28511 c 0.0889,0.19141 0.19893,0.45976 0.2553,0.58868 0.041,0.0336 0.0938,0.0584 0.13777,0.0901 -0.12016,-0.23205 -0.26167,-0.45235 -0.39307,-0.67883 z m 3.18198,3.50051 c -0.0996,-0.11377 0.15868,0.25163 0.23991,0.37739 0.0453,0.0362 0.12482,0.10468 0.19901,0.15898 -0.13751,-0.16224 -0.2369,-0.30556 -0.43892,-0.53637 z m 1.06897,0.73791 c -0.58918,-0.12196 0.85751,1.07984 1.55396,1.64938 -0.11652,-0.18134 -0.2077,-0.42005 -0.3242,-0.63375 -0.19724,-0.15554 -0.36268,-0.30989 -0.76546,-0.73091 -0.0239,-0.0621 -0.0229,-0.0563 -0.0459,-0.1163 -0.16295,-0.0704 -0.33823,-0.15185 -0.41836,-0.1684 z"
       id="path3763-9"
       inkscape:connector-curvature="0" />
    <path
       sodipodi:type="arc"
       style="fill:#000000;fill-opacity:1;stroke:none;display:inline"
       id="path4942-2-8"
       sodipodi:cx="167.5"
       sodipodi:cy="420.21933"
       sodipodi:rx="28.214285"
       sodipodi:ry="37.857143"
       d="M 191.8995,439.22853 A 28.214285,37.857143 0 1 1 174.4879,383.54167 L 167.5,420.21933 z"
       sodipodi:start="0.52605967"
       sodipodi:end="4.962666"
       transform="matrix(-0.88942423,-0.21652328,-0.22963789,0.71362984,775.39075,403.54813)" />
    <path
       style="fill:#000000;fill-opacity:1;display:inline"
       d="m 527.50468,670.6497 c -66.55446,0 -120.4885,48.71109 -120.4885,108.78614 0,60.07506 53.93404,108.76134 120.4885,108.76134 37.04975,0 70.13909,-15.1184 92.23694,-38.86458 -0.0794,-0.0516 -0.13015,-0.0945 -0.21302,-0.14872 -1.00894,-0.18867 -2.06151,-0.45236 -2.44971,-0.84272 -0.22155,-0.22279 -0.40948,-0.4681 -0.61243,-0.69401 -0.23303,-0.0493 -0.47387,-0.10679 -0.71894,-0.17351 -0.38686,-0.083 -0.76657,-0.16641 -1.14497,-0.27264 -0.17402,-0.0489 -0.34173,-0.12013 -0.50592,-0.19829 -0.008,-0.002 -0.0188,0.002 -0.0266,0 -1.74539,-0.47112 -2.91474,-0.74927 -4.15385,-1.75981 -1.51886,-0.50392 -1.78683,-0.65562 -2.5296,-1.14016 -1.53208,-0.29051 -1.74057,-0.61685 -3.27515,-1.51195 -0.0624,-0.0364 -0.16072,-0.0509 -0.21302,-0.0992 -0.10442,-0.0963 -0.19196,-0.19791 -0.2929,-0.29743 -0.13282,-0.0458 -0.27664,-0.10167 -0.37278,-0.12393 -1.45878,-0.33777 -2.57381,-1.16288 -3.64794,-1.93332 -0.0521,-0.0335 -0.10783,-0.0656 -0.15977,-0.0991 -0.40947,-0.11431 -0.84388,-0.26498 -1.1716,-0.52051 -0.5574,-0.43461 -0.9756,-0.81114 -1.30473,-1.14016 -0.31123,0.0198 -0.63877,-0.33506 -0.93196,-0.49572 -1.31053,-0.71819 -2.07453,-1.37566 -2.87575,-2.1316 -0.005,-0.003 -0.0717,-0.0684 -0.0798,-0.0743 -0.0129,-0.0319 -0.0665,-0.1304 -0.21301,-0.29743 -1.49437,-0.55183 -0.52614,-0.38405 -1.30474,-0.52051 l -1.67752,-1.68546 c 0.0483,0.0689 0.1266,0.17166 0.15976,0.22308 0.0101,0.0156 0.002,0.0205 0,0.0247 -0.0146,-0.006 -0.055,-0.0339 -0.0798,-0.0496 0.0785,0.10441 0.2879,0.39039 0.21302,0.29744 -0.0856,-0.10627 -0.17446,-0.21902 -0.26627,-0.32222 -0.0935,-0.0634 -0.20293,-0.15545 -0.26627,-0.19829 -0.34751,-0.235 -0.67031,-0.47634 -1.01184,-0.7188 0.32703,0.2069 0.70456,0.44729 1.01184,0.61965 -0.25015,-0.2829 -0.48295,-0.55956 -0.63906,-0.8923 -0.19708,-0.42008 0.47102,0.45138 0.85207,0.99145 0.0108,0.005 0.0163,0.0201 0.0266,0.0247 0.65793,0.30002 0.48922,-0.20081 -3.08877,-3.79227 -0.32424,-0.32547 0.18761,0.38299 0.50592,1.04102 0.38617,0.34883 0.70815,0.85605 0.39941,0.74358 -0.0721,-0.0263 -0.12225,-0.0863 -0.18639,-0.12393 0.003,0.0231 2.3e-4,0.0533 0,0.0743 -0.003,0.30697 -0.65344,-0.44532 -0.79882,-0.81794 -0.0962,-0.11305 -0.18632,-0.22397 -0.2929,-0.32222 0.0908,0.0813 0.11653,0.11245 0.26627,0.24786 -0.004,-0.0239 -0.004,-0.0581 0,-0.0743 -0.77059,-0.71045 -1.82384,-1.67529 -2.18352,-2.40421 -0.0947,-0.19183 -0.16281,-0.39616 -0.23964,-0.59486 -0.3859,-0.24706 -0.88338,-0.79206 -0.98521,-1.28888 -0.0618,-0.30146 0.21689,0.0671 0.53254,0.47093 -0.18895,-0.46703 -0.40275,-1.07267 -0.39941,-1.18973 l -0.8787,-1.7846 c 0.008,0.0458 -0.0431,-0.0499 -0.10651,-0.12393 0.13183,0.5043 0.29168,1.02034 0.2929,1.53674 6.6e-4,0.27412 -0.28108,-0.48309 -0.37278,-0.74358 -0.17444,-0.49554 -0.33727,-0.99708 -0.42604,-1.51195 -0.5562,-1.01576 -0.66764,-2.02437 -0.63905,-3.12305 -0.4606,-0.75649 -0.92621,-1.6321 -0.85207,-2.18117 -0.13483,-0.55316 -0.26542,-1.10734 -0.39941,-1.66067 0.0456,-0.25786 0.0869,-0.5106 0.13313,-0.76837 -0.0908,-0.42399 -0.17535,-0.85392 -0.31953,-1.26409 -0.0896,-0.25491 0.24082,1.01563 0.0798,0.79315 -0.54199,-0.74925 -0.45096,-2.90518 -0.34615,-3.7427 0.17794,-1.42178 0.56054,-2.05389 1.03846,-2.18117 0.36363,-2.81825 3.56528,-5.45116 9.58583,-5.30422 2.27031,0.0554 4.49973,-0.34562 6.76333,-0.0496 0.6255,0.15802 1.24449,0.29341 1.86391,0.47093 0.046,0.0132 0.14184,0.0309 0.21302,0.0496 0.49161,0.0225 1.03216,0.11325 1.57101,0.22308 0.88668,-0.23916 1.93963,-0.35771 3.14202,-0.32222 0.68554,0.0202 0.31525,0.0183 1.11835,0.0247 1.72574,-0.0771 3.52892,-0.406 5.05918,0.47094 0.0242,7.2e-4 0.0575,0.002 0.0798,0 1.61425,-0.10558 3.20268,-0.0472 4.55327,0.61965 l 2.02367,0 c 1.20385,-10e-6 2.41748,-8e-5 3.62131,0 1.21902,1.5e-4 2.42892,8e-4 3.64794,0 1.28436,9e-5 2.57661,0.006 3.86096,0 1.30892,-0.006 2.60629,-0.0381 3.91421,0.0247 0.83734,0.0233 1.66465,-0.18875 2.50297,-0.1735 1.71218,0.0311 1.66815,0.12768 3.2219,0.61965 0.0151,0.007 0.012,0.0178 0.0266,0.0248 0.77834,-0.0838 0.78184,-0.0771 2.21007,0 0.0761,0.0159 1.99181,0.37137 2.21007,0.54529 0.12281,0.0979 -0.61633,-0.006 -0.4793,0.0743 0.24313,0.14172 1.37055,-0.0912 1.70415,0 l 1.43787,0 c 2.31594,-8.41127 3.56806,-17.19001 3.56806,-26.24847 0,-60.07505 -53.96066,-108.78614 -120.51512,-108.78614 z m 62.33449,162.49759 -0.2929,-0.29744 c 0.0604,0.0807 0.085,0.1145 0.18639,0.24787 0.0393,0.0206 0.0711,0.0327 0.10651,0.0496 z m 11.4231,-14.77251 c -8.4e-4,0.0247 0.002,0.0494 0,0.0743 0.0175,0.008 0.0357,0.0169 0.0533,0.0248 0.007,-0.0233 0.0193,-0.0497 0.0266,-0.0743 -0.0226,-0.002 -0.0614,-0.0247 -0.0798,-0.0247 z m -17.33436,7.93155 c 0.0372,0.12299 0.0324,0.17053 0.0532,0.24786 0.0229,0.0286 0.058,0.0477 0.0798,0.0743 -0.0408,-0.10964 -0.0897,-0.21357 -0.13313,-0.32222 z m 7.26925,7.33668 c -0.081,0.002 0.88239,1.19392 1.33136,1.53674 0.053,0.0404 0.1566,0.0801 0.23965,0.12393 -0.48953,-0.54866 -1.28866,-1.42563 -1.4645,-1.58631 -0.0592,-0.0541 -0.0949,-0.0746 -0.10651,-0.0743 z m 2.07693,1.88374 c 0.53949,0.21398 1.07806,0.38141 0.74556,0.27265 -0.38045,-0.12445 -0.48527,-0.18152 -0.74556,-0.27265 z m 2.76924,1.7846 c 0.0168,0.0285 0.11648,0.19169 0.23964,0.47094 0.0573,0.0409 0.17324,0.0794 0.26627,0.12393 -0.31991,-0.37087 -0.53041,-0.63649 -0.50591,-0.59487 z m 6.36392,3.7427 c 0.14417,0.15961 0.3323,0.38729 0.42603,0.49572 0.0496,0.0213 0.10788,0.0308 0.15977,0.0496 -0.18664,-0.1902 -0.39011,-0.36344 -0.5858,-0.54529 z m 4.12723,2.50339 c -0.13046,-0.0824 0.22957,0.19866 0.34615,0.29744 0.0545,0.0226 0.15184,0.0669 0.23965,0.0991 -0.18173,-0.11869 -0.32113,-0.22944 -0.5858,-0.39658 z m 1.25148,0.42137 c -0.60199,0.0405 1.15432,0.80537 1.99705,1.16494 -0.16752,-0.14259 -0.32845,-0.3469 -0.50592,-0.5205 -0.23689,-0.0963 -0.44297,-0.19999 -0.95858,-0.49573 -0.042,-0.0531 -0.0393,-0.0478 -0.0798,-0.0991 -0.17778,-0.0239 -0.37082,-0.0551 -0.45267,-0.0496 z"
       id="path2985-1"
       inkscape:connector-curvature="0" />
    <path
       style="opacity:0.47000002;fill:#000000;fill-opacity:1;display:inline"
       d="m 555.11156,673.93196 c -62.46772,-17.41759 -127.48946,13.18015 -145.23638,68.33106 -17.74694,55.15091 18.49697,113.98407 80.96469,131.40166 32.25332,8.99304 65.17319,5.14352 91.93167,-8.23637 -1.27601,-0.76629 -2.18292,-1.33922 -2.9724,-2.51059 -1.29964,-0.88842 -1.50959,-1.10532 -2.07175,-1.76788 -1.37811,-0.68751 -1.47723,-1.05582 -2.67136,-2.32316 -0.0486,-0.0516 -0.13826,-0.0917 -0.1735,-0.15187 -0.0704,-0.12017 -0.12287,-0.24087 -0.1889,-0.36317 -0.1131,-0.0794 -0.23367,-0.17128 -0.3189,-0.21828 -1.29332,-0.71321 -2.10711,-1.80144 -2.89858,-2.82638 -0.0395,-0.046 -0.0831,-0.0916 -0.12248,-0.13765 -0.35702,-0.21888 -0.72672,-0.47924 -0.96188,-0.81155 -0.39999,-0.56522 -0.68453,-1.03762 -0.89841,-1.44071 -0.30425,-0.0642 -0.50862,-0.49159 -0.73996,-0.7238 -1.03403,-1.03804 -1.56324,-1.87192 -2.09774,-2.81008 -0.004,-0.005 -0.0476,-0.0847 -0.0536,-0.0925 -0.003,-0.034 -0.0235,-0.1427 -0.11238,-0.34183 -1.26142,-0.92776 -0.38563,-0.50843 -1.08942,-0.84711 l -1.08742,-2.06267 c 0.0251,0.0789 0.0683,0.19826 0.0843,0.25637 0.005,0.0177 -0.004,0.0201 -0.008,0.0237 -0.0123,-0.009 -0.0422,-0.0472 -0.0612,-0.0688 0.043,0.12098 0.15545,0.45086 0.11237,0.34182 -0.0492,-0.12466 -0.0996,-0.25639 -0.15575,-0.37978 -0.07,-0.0857 -0.14648,-0.20312 -0.19395,-0.26108 -0.26045,-0.31793 -0.49529,-0.63534 -0.74771,-0.95883 0.24949,0.28555 0.53705,0.61666 0.77827,0.86386 -0.15242,-0.33782 -0.29015,-0.66503 -0.33713,-1.02547 -0.0593,-0.45507 0.31207,0.55821 0.51063,1.17734 0.009,0.007 0.009,0.0236 0.0178,0.0308 0.53778,0.46312 0.53055,-0.0617 -1.78988,-4.45781 -0.21029,-0.39839 0.0617,0.41699 0.16374,1.13236 0.2624,0.43732 0.41448,1.0092 0.1534,0.819 -0.0609,-0.0444 -0.0905,-0.11529 -0.14035,-0.1685 -0.004,0.0228 -0.0162,0.0511 -0.0229,0.0712 -0.0979,0.29314 -0.48869,-0.60114 -0.5131,-0.99691 -0.0573,-0.13401 -0.10945,-0.26433 -0.18126,-0.38691 0.0619,0.1021 0.0769,0.13885 0.17867,0.30856 0.003,-0.024 0.0138,-0.0568 0.0229,-0.0712 -0.51915,-0.88639 -1.23069,-2.09198 -1.35054,-2.88631 -0.0315,-0.20905 -0.0338,-0.42299 -0.0462,-0.63387 -0.29352,-0.33973 -0.60208,-0.9947 -0.54648,-1.49782 0.0337,-0.30528 0.18709,0.12221 0.36498,0.59337 -0.0371,-0.49786 -0.0551,-1.13514 -0.0158,-1.24637 l -0.29164,-1.94426 c -0.007,0.0459 -0.0259,-0.0593 -0.0638,-0.14717 -0.0291,0.51831 -0.0351,1.05534 -0.19313,1.55035 -0.0838,0.26277 -0.12033,-0.53786 -0.12788,-0.81189 -0.0143,-0.52129 -0.0158,-1.04523 0.0579,-1.56216 -0.2197,-1.1216 -0.0155,-2.11757 0.35051,-3.16241 -0.20803,-0.8477 -0.38415,-1.81086 -0.14388,-2.31704 0.0413,-0.56591 0.0871,-1.13166 0.12931,-1.69752 0.12315,-0.23484 0.24064,-0.46591 0.36438,-0.7005 0.0437,-0.4304 0.0952,-0.86484 0.0836,-1.29627 -0.008,-0.26813 -0.0824,1.03725 -0.16801,0.78113 -0.28824,-0.86252 0.46354,-2.90347 0.82212,-3.67777 0.60873,-1.31447 1.17009,-1.8178 1.66715,-1.81208 1.21709,-2.60261 5.09571,-4.26964 10.81779,-2.52079 2.15774,0.65951 4.41705,0.87079 6.4942,1.75899 0.55049,0.31845 1.10171,0.61348 1.64036,0.94899 0.04,0.0249 0.12633,0.0675 0.18878,0.10439 0.464,0.15288 0.95385,0.38417 1.43618,0.63331 0.92312,0.008 1.96833,0.17541 3.10922,0.53056 0.65048,0.20249 0.29635,0.10176 1.06369,0.32242 1.67694,0.38709 3.50568,0.55364 4.70126,1.80243 0.0229,0.007 0.0546,0.0169 0.0765,0.0213 1.57892,0.33003 3.08255,0.81023 4.17079,1.80977 l 1.93857,0.54053 c 1.15322,0.32154 2.31585,0.64562 3.46903,0.96725 1.16771,0.32574 2.32652,0.64952 3.49454,0.97437 1.23031,0.34313 2.4663,0.69429 3.69859,1.03126 1.25584,0.34354 2.50843,0.65967 3.74198,1.0692 0.79495,0.24598 1.65283,0.26381 2.4512,0.50233 1.63059,0.48711 1.55864,0.56788 2.8954,1.45416 0.0123,0.0109 0.006,0.0203 0.0178,0.0308 0.77143,0.12762 0.77272,0.13498 2.11712,0.59031 0.0422,0.022 0.71274,0.35491 1.26022,0.66187 6.1204,-8.30979 10.96503,-17.57664 14.21625,-27.68022 17.74729,-55.15094 -18.49661,-113.98411 -80.96433,-131.4017 z m 9.18344,172.03622 -0.1889,-0.36316 c 0.033,0.0934 0.0462,0.1324 0.10215,0.28723 0.0313,0.0302 0.058,0.0504 0.0867,0.0759 z m 15.49647,-11.10017 c -0.009,0.0235 -0.0136,0.0477 -0.0229,0.0712 0.0142,0.0124 0.029,0.0257 0.0434,0.0379 0.0137,-0.0205 0.0338,-0.0424 0.0484,-0.0641 -0.0211,-0.008 -0.0512,-0.0401 -0.0688,-0.0451 z m -19.05038,2.96799 c -0.003,0.12776 -0.0216,0.172 -0.0254,0.25166 0.0131,0.0336 0.0409,0.0612 0.0536,0.0925 -0.005,-0.11593 -0.0201,-0.22856 -0.0282,-0.34423 z m 4.70198,8.96978 c -0.0781,-0.0201 0.47726,1.3794 0.80167,1.82772 0.0383,0.0529 0.12531,0.11859 0.19136,0.18273 -0.29982,-0.65634 -0.795,-1.70989 -0.91392,-1.91077 -0.0401,-0.0677 -0.0679,-0.0968 -0.0791,-0.0996 z m 1.40891,2.35928 c 0.45085,0.34907 0.91516,0.65331 0.63017,0.46032 -0.32609,-0.22084 -0.40891,-0.30351 -0.63017,-0.46032 z m 2.10268,2.44921 c 0.008,0.0318 0.0525,0.21474 0.0844,0.51514 0.0423,0.0545 0.14146,0.12236 0.21687,0.18984 -0.19214,-0.44072 -0.31191,-0.75139 -0.30127,-0.70498 z m 4.9426,5.28511 c 0.0889,0.19141 0.19893,0.45976 0.2553,0.58868 0.041,0.0336 0.0938,0.0584 0.13777,0.0901 -0.12016,-0.23205 -0.26167,-0.45235 -0.39307,-0.67883 z m 3.18198,3.50051 c -0.0996,-0.11377 0.15868,0.25163 0.23991,0.37739 0.0453,0.0362 0.12482,0.10468 0.19901,0.15898 -0.13751,-0.16224 -0.2369,-0.30556 -0.43892,-0.53637 z m 1.06897,0.73791 c -0.58918,-0.12196 0.85751,1.07984 1.55396,1.64938 -0.11652,-0.18134 -0.2077,-0.42005 -0.3242,-0.63375 -0.19724,-0.15554 -0.36268,-0.30989 -0.76546,-0.73091 -0.0239,-0.0621 -0.0229,-0.0563 -0.0459,-0.1163 -0.16295,-0.0704 -0.33823,-0.15185 -0.41836,-0.1684 z"
       id="path3763-7"
       inkscape:connector-curvature="0" />
    <path
       style="fill:#000000;fill-opacity:1;fill-rule:evenodd;stroke:none;display:inline"
       d="m 621.91553,781.35868 c -24.86347,-6.93257 -51.44472,7.41003 -59.36967,32.03786 -1.40001,4.35071 -2.11743,8.74101 -2.22314,13.04168 0.11578,-0.21991 0.23315,-0.43318 0.34912,-0.65301 0.0437,-0.43041 0.0952,-0.86485 0.0836,-1.29628 -0.008,-0.26812 -0.0824,1.03725 -0.16801,0.78113 -0.28824,-0.86251 0.46354,-2.90347 0.82212,-3.67777 0.60873,-1.31447 1.17009,-1.8178 1.66715,-1.81208 1.21709,-2.6026 5.09571,-4.26964 10.81779,-2.52079 2.15774,0.65951 4.41705,0.87079 6.4942,1.759 0.55049,0.31845 1.10171,0.61348 1.64036,0.94898 0.0401,0.0249 0.12634,0.0675 0.18878,0.10439 0.464,0.15289 0.95385,0.38417 1.43618,0.63331 0.92312,0.008 1.96833,0.17542 3.10922,0.53057 0.65048,0.20248 0.29635,0.10175 1.06369,0.32241 1.67694,0.3871 3.50568,0.55364 4.70127,1.80244 0.0229,0.007 0.0546,0.0169 0.0765,0.0213 1.57892,0.33003 3.08256,0.81023 4.17079,1.80977 l 1.93857,0.54053 c 1.15322,0.32153 2.31585,0.64562 3.46903,0.96725 1.16771,0.32574 2.32652,0.64952 3.49454,0.97436 1.23032,0.34314 2.4663,0.69429 3.69859,1.03126 1.25584,0.34354 2.50843,0.65967 3.74199,1.0692 0.79494,0.24599 1.65282,0.26381 2.45119,0.50234 1.63059,0.48711 1.55865,0.56787 2.8954,1.45416 0.0123,0.0109 0.006,0.0203 0.0178,0.0308 0.77143,0.12763 0.77272,0.13498 2.11712,0.59032 0.068,0.0355 1.79358,0.88777 1.94904,1.11267 0.0875,0.12655 -0.58869,-0.16994 -0.48204,-0.0568 0.18922,0.2007 1.34101,0.27874 1.63248,0.45517 l 4.13222,1.15217 3.29048,0.91747 4.18325,1.16639 4.05569,1.13084 3.41802,0.95303 5.50963,1.53622 c 1.21599,0.33905 2.21856,0.78093 2.99991,1.30218 0.47797,-1.14381 0.91351,-2.3206 1.29911,-3.51889 7.92496,-24.62783 -5.80858,-50.21121 -30.67203,-57.14378 z m -42.12406,53.50933 c -0.009,0.0235 -0.0136,0.0477 -0.0229,0.0712 0.0142,0.0124 0.029,0.0257 0.0434,0.0379 0.0137,-0.0205 0.0338,-0.0424 0.0484,-0.0641 -0.0211,-0.008 -0.0512,-0.0401 -0.0688,-0.0451 z m -17.15106,6.91296 c 0.34411,1.01918 0.72783,2.02086 1.14396,3.00987 -0.0573,-0.43975 0.27009,0.49041 0.47489,1.11563 l 0.0357,0.0617 c 0.009,0.007 0.009,0.0236 0.0178,0.0308 l 0.0178,0.0308 c 0.50029,0.41449 0.45094,-0.17199 -1.69033,-4.24893 z m 1.69032,4.24893 c 4.23399,9.26323 11.62504,17.01525 21.32893,21.65264 -0.12178,-0.23511 -0.21876,-0.47882 -0.32678,-0.71209 -0.20804,-0.10942 -0.42102,-0.22887 -0.63522,-0.35824 -0.34499,-0.18287 -0.68304,-0.36416 -1.01278,-0.567 -0.15164,-0.0933 -0.29033,-0.20635 -0.42352,-0.32508 -0.007,-0.004 -0.0187,-0.002 -0.0255,-0.007 -1.52678,-0.9175 -2.56121,-1.49629 -3.43671,-2.79531 -1.29965,-0.88841 -1.50959,-1.10531 -2.07176,-1.76787 -1.37811,-0.6875 -1.47723,-1.05581 -2.67136,-2.32316 -0.0486,-0.0516 -0.13826,-0.0917 -0.1735,-0.15187 -0.0704,-0.12016 -0.12287,-0.24086 -0.18889,-0.36316 -0.11311,-0.0794 -0.23368,-0.17128 -0.31891,-0.21829 -1.29331,-0.71321 -2.10711,-1.80144 -2.89857,-2.82638 -0.0395,-0.046 -0.0831,-0.0916 -0.12249,-0.13765 -0.35702,-0.21887 -0.72672,-0.47924 -0.96188,-0.81155 -0.4,-0.56521 -0.68454,-1.03762 -0.89841,-1.44071 -0.30426,-0.0642 -0.50862,-0.49159 -0.73996,-0.72381 -1.03403,-1.03803 -1.56323,-1.87191 -2.09773,-2.81007 -0.004,-0.005 -0.0476,-0.0847 -0.0536,-0.0925 -0.003,-0.034 -0.0235,-0.14269 -0.11238,-0.34182 -1.26142,-0.92776 -0.38562,-0.50843 -1.08942,-0.84712 l -1.06955,-2.03179 z m 1.11234,0.77588 c -0.0781,-0.0201 0.47726,1.3794 0.80167,1.82772 0.0383,0.0529 0.12531,0.11859 0.19136,0.18273 -0.29982,-0.65634 -0.795,-1.70989 -0.91392,-1.91077 -0.0401,-0.0677 -0.0679,-0.0968 -0.0791,-0.0996 z m 1.40891,2.35928 c 0.45085,0.34907 0.91516,0.65331 0.63017,0.46032 -0.32609,-0.22084 -0.40891,-0.30351 -0.63017,-0.46032 z m 2.10268,2.44921 c 0.008,0.0318 0.0525,0.21474 0.0844,0.51514 0.0423,0.0545 0.14146,0.12236 0.21687,0.18984 -0.19214,-0.44072 -0.31191,-0.75139 -0.30127,-0.70498 z m 4.9426,5.28511 c 0.0889,0.19141 0.19893,0.45976 0.2553,0.58868 0.041,0.0336 0.0938,0.0584 0.13777,0.0901 -0.12016,-0.23205 -0.26167,-0.45235 -0.39307,-0.67883 z m 3.18198,3.50051 c -0.0996,-0.11377 0.15868,0.25163 0.23991,0.37739 0.0453,0.0362 0.12482,0.10468 0.19901,0.15898 -0.13751,-0.16224 -0.2369,-0.30556 -0.43892,-0.53637 z m 1.06897,0.73791 c -0.58918,-0.12196 0.85751,1.07984 1.55396,1.64938 -0.11652,-0.18134 -0.2077,-0.42005 -0.3242,-0.63375 -0.19724,-0.15554 -0.36268,-0.30989 -0.76546,-0.73091 -0.0239,-0.0621 -0.0229,-0.0563 -0.0459,-0.1163 -0.16295,-0.0704 -0.33823,-0.15185 -0.41836,-0.1684 z"
       id="path3525"
       inkscape:connector-curvature="0" />
    <path
       style="fill:#000000;fill-opacity:1;fill-rule:evenodd;stroke:none;display:inline"
       d="m 618.51349,776.29612 c -24.86346,-6.93257 -51.44471,7.41004 -59.36966,32.03786 -5.52225,17.16108 -0.50606,34.76994 11.44955,46.22112 -0.0727,-0.0732 -0.1428,-0.15425 -0.20159,-0.23732 -0.39999,-0.56522 -0.68453,-1.03762 -0.89841,-1.44071 -0.30425,-0.0642 -0.50862,-0.49159 -0.73996,-0.7238 -1.03403,-1.03804 -1.56324,-1.87192 -2.09774,-2.81008 -0.004,-0.005 -0.0476,-0.0847 -0.0536,-0.0925 -0.003,-0.034 -0.0235,-0.1427 -0.11238,-0.34183 -1.26142,-0.92776 -0.38563,-0.50843 -1.08942,-0.84711 l -1.08742,-2.06267 c 0.0251,0.0789 0.0683,0.19826 0.0843,0.25637 0.005,0.0177 -0.004,0.0201 -0.008,0.0237 -0.0123,-0.009 -0.0422,-0.0472 -0.0612,-0.0688 0.043,0.12098 0.15545,0.45086 0.11237,0.34182 -0.0492,-0.12466 -0.0996,-0.25639 -0.15575,-0.37978 -0.07,-0.0857 -0.14648,-0.20312 -0.19395,-0.26108 -0.26045,-0.31793 -0.49529,-0.63534 -0.74771,-0.95883 0.24949,0.28555 0.53705,0.61666 0.77827,0.86386 -0.15242,-0.33782 -0.29015,-0.66503 -0.33713,-1.02547 -0.0593,-0.45507 0.31207,0.55821 0.51063,1.17734 0.009,0.007 0.009,0.0236 0.0178,0.0308 0.53778,0.46312 0.53055,-0.0617 -1.78988,-4.45781 -0.21029,-0.39839 0.0617,0.41699 0.16374,1.13236 0.2624,0.43732 0.41448,1.0092 0.1534,0.819 -0.0609,-0.0444 -0.0905,-0.11529 -0.14035,-0.1685 -0.004,0.0228 -0.0162,0.0511 -0.0229,0.0712 -0.0979,0.29314 -0.48869,-0.60114 -0.5131,-0.99691 -0.0573,-0.13401 -0.10945,-0.26433 -0.18126,-0.38691 0.0619,0.1021 0.0769,0.13885 0.17867,0.30856 0.003,-0.024 0.0138,-0.0568 0.0229,-0.0712 -0.51915,-0.88639 -1.23069,-2.09198 -1.35054,-2.88631 -0.0315,-0.20905 -0.0338,-0.42299 -0.0462,-0.63387 -0.29352,-0.33973 -0.60208,-0.9947 -0.54648,-1.49782 0.0337,-0.30528 0.18709,0.12221 0.36498,0.59337 -0.0371,-0.49786 -0.0551,-1.13514 -0.0158,-1.24637 l -0.29164,-1.94426 c -0.007,0.0459 -0.0259,-0.0593 -0.0638,-0.14717 -0.0291,0.51831 -0.0351,1.05534 -0.19313,1.55035 -0.0838,0.26277 -0.12033,-0.53786 -0.12788,-0.81189 -0.0143,-0.52129 -0.0158,-1.04523 0.0579,-1.56216 -0.2197,-1.1216 -0.0155,-2.11757 0.35051,-3.16241 -0.20803,-0.8477 -0.38415,-1.81086 -0.14388,-2.31704 0.0413,-0.56591 0.0871,-1.13166 0.12931,-1.69752 0.12315,-0.23484 0.24064,-0.46591 0.36438,-0.7005 0.0437,-0.4304 0.0952,-0.86484 0.0836,-1.29627 -0.008,-0.26813 -0.0824,1.03725 -0.16801,0.78113 -0.28824,-0.86252 0.46354,-2.90347 0.82212,-3.67777 0.60873,-1.31447 1.17009,-1.8178 1.66715,-1.81208 1.21709,-2.60261 5.09571,-4.26964 10.81779,-2.52079 2.15774,0.65951 4.41705,0.87079 6.4942,1.75899 0.55049,0.31845 1.10171,0.61348 1.64036,0.94899 0.04,0.0249 0.12633,0.0675 0.18878,0.10439 0.464,0.15288 0.95385,0.38417 1.43618,0.63331 0.92312,0.008 1.96833,0.17541 3.10922,0.53056 0.65048,0.20249 0.29635,0.10176 1.06369,0.32242 1.67694,0.38709 3.50568,0.55364 4.70126,1.80243 0.0229,0.007 0.0546,0.0169 0.0765,0.0213 1.57892,0.33003 3.08255,0.81023 4.17079,1.80977 l 1.93857,0.54053 c 1.15322,0.32154 2.31585,0.64562 3.46903,0.96725 1.16771,0.32574 2.32652,0.64952 3.49454,0.97437 1.23031,0.34313 2.4663,0.69429 3.69859,1.03126 1.25584,0.34354 2.50843,0.65967 3.74198,1.0692 0.79495,0.24598 1.65283,0.26381 2.4512,0.50233 1.63059,0.48711 1.55864,0.56788 2.8954,1.45416 0.0123,0.0109 0.006,0.0203 0.0178,0.0308 0.77143,0.12762 0.77272,0.13498 2.11712,0.59031 0.068,0.0355 1.79358,0.88777 1.94904,1.11267 0.0875,0.12656 -0.58869,-0.16994 -0.48204,-0.0568 0.18922,0.2007 1.34101,0.27875 1.63248,0.45518 l 4.13222,1.15216 3.29048,0.91747 4.18324,1.1664 4.0557,1.13083 3.41802,0.95303 3.62207,1.00993 c 1.08787,-2.15196 2.02856,-4.40366 2.78455,-6.75298 7.92495,-24.62783 -5.80858,-50.21121 -30.67203,-57.14378 z m -54.21849,69.67206 -0.1889,-0.36316 c 0.033,0.0934 0.0462,0.1324 0.10215,0.28723 0.0313,0.0302 0.058,0.0504 0.0867,0.0759 z m 15.49647,-11.10017 c -0.009,0.0235 -0.0136,0.0477 -0.0229,0.0712 0.0142,0.0124 0.029,0.0257 0.0434,0.0379 0.0137,-0.0205 0.0338,-0.0424 0.0484,-0.0641 -0.0211,-0.008 -0.0512,-0.0401 -0.0688,-0.0451 z m -19.05038,2.96799 c -0.003,0.12776 -0.0216,0.172 -0.0254,0.25166 0.0131,0.0336 0.0409,0.0612 0.0536,0.0925 -0.005,-0.11593 -0.0201,-0.22856 -0.0282,-0.34423 z m 4.70198,8.96978 c -0.0781,-0.0201 0.47726,1.3794 0.80167,1.82772 0.0383,0.0529 0.12531,0.11859 0.19136,0.18273 -0.29982,-0.65634 -0.795,-1.70989 -0.91392,-1.91077 -0.0401,-0.0677 -0.0679,-0.0968 -0.0791,-0.0996 z m 1.40891,2.35928 c 0.45085,0.34907 0.91516,0.65331 0.63017,0.46032 -0.32609,-0.22084 -0.40891,-0.30351 -0.63017,-0.46032 z m 2.10268,2.44921 c 0.008,0.0318 0.0525,0.21474 0.0844,0.51514 0.0423,0.0545 0.14146,0.12236 0.21687,0.18984 -0.19214,-0.44072 -0.31191,-0.75139 -0.30127,-0.70498 z m 1.87346,3.16153 c 0.30393,0.28689 0.6084,0.57305 0.92109,0.85193 -0.0943,-0.12203 -0.17988,-0.24007 -0.27306,-0.36075 -0.0395,-0.046 -0.0831,-0.0916 -0.12248,-0.13765 -0.1785,-0.10947 -0.36076,-0.22329 -0.52555,-0.35353 z m 3.06914,2.12358 c 0.0889,0.19141 0.19893,0.45976 0.2553,0.58868 0.041,0.0336 0.0938,0.0584 0.13777,0.0901 -0.12016,-0.23205 -0.26167,-0.45235 -0.39307,-0.67883 z"
       id="path3525-9"
       inkscape:connector-curvature="0" />
    <ellipse
       style="fill:#000000;fill-opacity:1;stroke:none;display:inline"
       id="path5967"
       transform="matrix(0.81624203,0.22758905,-0.24449525,0.75980104,415.73207,522.32005)"
       cx="358"
       cy="279.86218"
       rx="7"
       ry="8.5"
       sodipodi:cx="358"
       sodipodi:cy="279.86218"
       sodipodi:rx="7"
       sodipodi:ry="8.5"
       d="m 365,279.86218 c 0,4.69442 -3.13401,8.5 -7,8.5 -3.86599,0 -7,-3.80558 -7,-8.5 0,-4.69442 3.13401,-8.5 7,-8.5 3.86599,0 7,3.80558 7,8.5 z" />
    <ellipse
       style="fill:#000000;fill-opacity:1;display:inline"
       id="path3938-4"
       transform="matrix(1.109252,0.30928769,-0.30412825,0.94511839,277.24598,427.66643)"
       cx="310"
       cy="236.6479"
       rx="55.714283"
       ry="58.571426"
       sodipodi:cx="310"
       sodipodi:cy="236.6479"
       sodipodi:rx="55.714283"
       sodipodi:ry="58.571426"
       d="m 365.71428,236.6479 c 0,32.34811 -24.94413,58.57143 -55.71428,58.57143 -30.77015,0 -55.71428,-26.22332 -55.71428,-58.57143 0,-32.3481 24.94413,-58.57142 55.71428,-58.57142 30.77015,0 55.71428,26.22332 55.71428,58.57142 z" />
    <ellipse
       style="fill:#000000;fill-opacity:1;display:inline"
       id="path3938-1-0"
       transform="matrix(1.0255348,0.28594522,-0.27431176,0.85245976,296.60983,459.32605)"
       cx="310"
       cy="236.6479"
       rx="55.714283"
       ry="58.571426"
       sodipodi:cx="310"
       sodipodi:cy="236.6479"
       sodipodi:rx="55.714283"
       sodipodi:ry="58.571426"
       d="m 365.71428,236.6479 c 0,32.34811 -24.94413,58.57143 -55.71428,58.57143 -30.77015,0 -55.71428,-26.22332 -55.71428,-58.57143 0,-32.3481 24.94413,-58.57142 55.71428,-58.57142 30.77015,0 55.71428,26.22332 55.71428,58.57142 z" />
    <ellipse
       style="fill:#000000;fill-opacity:1;stroke:none;display:inline"
       id="path4800-8"
       transform="matrix(-0.91322809,0.65577938,-0.33876715,-0.91569679,701.96545,676.04699)"
       cx="216.07143"
       cy="151.29076"
       rx="32.5"
       ry="63.214287"
       sodipodi:cx="216.07143"
       sodipodi:cy="151.29076"
       sodipodi:rx="32.5"
       sodipodi:ry="63.214287"
       d="m 248.57143,151.29076 c 0,34.91228 -14.55075,63.21428 -32.5,63.21428 -17.94926,0 -32.5,-28.302 -32.5,-63.21428 0,-34.91229 14.55074,-63.214291 32.5,-63.214291 17.94925,0 32.5,28.302001 32.5,63.214291 z" />
    <ellipse
       style="fill:#000000;fill-opacity:1;stroke:none;display:inline"
       id="path4800-7-2"
       transform="matrix(-0.91322809,0.65577938,-0.33876715,-0.91569679,703.89187,681.9068)"
       cx="216.07143"
       cy="151.29076"
       rx="32.5"
       ry="63.214287"
       sodipodi:cx="216.07143"
       sodipodi:cy="151.29076"
       sodipodi:rx="32.5"
       sodipodi:ry="63.214287"
       d="m 248.57143,151.29076 c 0,34.91228 -14.55075,63.21428 -32.5,63.21428 -17.94926,0 -32.5,-28.302 -32.5,-63.21428 0,-34.91229 14.55074,-63.214291 32.5,-63.214291 17.94925,0 32.5,28.302001 32.5,63.214291 z" />
    <ellipse
       style="fill:#000000;fill-opacity:1;stroke:none;display:inline"
       id="path4800-1-4"
       transform="matrix(-0.40366817,0.2753276,-0.15749027,-0.39380164,560.92961,654.65908)"
       cx="216.07143"
       cy="151.29076"
       rx="32.5"
       ry="63.214287"
       sodipodi:cx="216.07143"
       sodipodi:cy="151.29076"
       sodipodi:rx="32.5"
       sodipodi:ry="63.214287"
       d="m 248.57143,151.29076 c 0,34.91228 -14.55075,63.21428 -32.5,63.21428 -17.94926,0 -32.5,-28.302 -32.5,-63.21428 0,-34.91229 14.55074,-63.214291 32.5,-63.214291 17.94925,0 32.5,28.302001 32.5,63.214291 z" />
    <path
       sodipodi:type="arc"
       style="fill:#000000;fill-opacity:1;stroke:none;display:inline"
       id="path4942-2-5"
       sodipodi:cx="167.5"
       sodipodi:cy="420.21933"
       sodipodi:rx="28.214285"
       sodipodi:ry="37.857143"
       d="M 191.8995,439.22853 A 28.214285,37.857143 0 1 1 174.4879,383.54167 L 167.5,420.21933 z"
       sodipodi:start="0.52605967"
       sodipodi:end="4.962666"
       transform="matrix(0.88013109,0.24540294,-0.22963789,0.71362984,461.10088,321.29917)" />
    <path
       sodipodi:type="arc"
       style="fill:#000000;fill-opacity:1;fill-rule:evenodd;stroke:none;display:inline"
       id="path3525-3-2"
       sodipodi:cx="369.10974"
       sodipodi:cy="302.12189"
       sodipodi:rx="55.154327"
       sodipodi:ry="58.689861"
       d="m 424.26407,302.12189 a 55.154327,58.689861 0 1 1 -109.9111,-7.03402 l 54.75677,7.03402 z"
       transform="matrix(0.81624203,0.22758905,-0.24449525,0.75980104,378.81929,515.45444)"
       sodipodi:start="0"
       sodipodi:end="3.2617321" />
    <path
       sodipodi:type="arc"
       style="fill:#000000;fill-opacity:1;fill-rule:evenodd;stroke:none;display:inline"
       id="path3525-3-8-7"
       sodipodi:cx="369.10974"
       sodipodi:cy="302.12189"
       sodipodi:rx="55.154327"
       sodipodi:ry="58.689861"
       d="m 424.26407,302.12189 a 55.154327,58.689861 0 1 1 -109.9111,-7.03402 l 54.75677,7.03402 z"
       transform="matrix(0.7718443,0.21520983,-0.21101491,0.65575652,381.04226,552.98559)"
       sodipodi:start="0"
       sodipodi:end="3.2617321" />
    <ellipse
       transform="matrix(0.81624203,0.22758905,-0.24449525,0.75980104,335.85979,477.88165)"
       style="fill:#000000;fill-opacity:1;display:inline"
       id="path3959-9-1"
       cx="357.3313"
       cy="239.43326"
       rx="39.767441"
       ry="40"
       sodipodi:cx="357.3313"
       sodipodi:cy="239.43326"
       sodipodi:rx="39.767441"
       sodipodi:ry="40"
       d="m 397.09874,239.43326 c 0,22.09139 -17.80449,40 -39.76744,40 -21.96295,0 -39.76744,-17.90861 -39.76744,-40 0,-22.09139 17.80449,-40 39.76744,-40 21.96295,0 39.76744,17.90861 39.76744,40 z" />
    <ellipse
       transform="matrix(0.81624203,0.22758905,-0.24449525,0.75980104,335.85979,477.88165)"
       style="fill:#000000;fill-opacity:1;display:inline"
       id="path3959-7-4-1"
       cx="364.90613"
       cy="235.79688"
       rx="34.086376"
       ry="32.727272"
       sodipodi:cx="364.90613"
       sodipodi:cy="235.79688"
       sodipodi:rx="34.086376"
       sodipodi:ry="32.727272"
       d="m 398.9925,235.79687 c 0,18.07478 -15.26099,32.72728 -34.08637,32.72728 -18.82539,0 -34.08638,-14.6525 -34.08638,-32.72728 0,-18.07477 15.26099,-32.72727 34.08638,-32.72727 18.82538,0 34.08637,14.6525 34.08637,32.72727 z" />
    <circle
       transform="matrix(0.81624203,0.22758905,-0.24449525,0.75980104,335.85979,477.88165)"
       style="fill:#000000;fill-opacity:1;display:inline"
       id="path3979-8-5"
       cx="355.58865"
       cy="217.25317"
       r="12.121831"
       sodipodi:cx="355.58865"
       sodipodi:cy="217.25317"
       sodipodi:rx="12.121831"
       sodipodi:ry="12.121831"
       d="m 367.71048,217.25317 c 0,6.69471 -5.42712,12.12183 -12.12183,12.12183 -6.6947,0 -12.12183,-5.42712 -12.12183,-12.12183 0,-6.6947 5.42713,-12.12183 12.12183,-12.12183 6.69471,0 12.12183,5.42713 12.12183,12.12183 z" />
  </g>
</svg>
