<?xml version="1.0" encoding="UTF-8" standalone="no"?>
<!-- Created with Inkscape (http://www.inkscape.org/) -->

<svg
   xmlns:osb="http://www.openswatchbook.org/uri/2009/osb"
   xmlns:dc="http://purl.org/dc/elements/1.1/"
   xmlns:cc="http://creativecommons.org/ns#"
   xmlns:rdf="http://www.w3.org/1999/02/22-rdf-syntax-ns#"
   xmlns:svg="http://www.w3.org/2000/svg"
   xmlns="http://www.w3.org/2000/svg"
   xmlns:sodipodi="http://sodipodi.sourceforge.net/DTD/sodipodi-0.dtd"
   xmlns:inkscape="http://www.inkscape.org/namespaces/inkscape"
   width="744.09448819"
   height="1052.3622047"
   id="svg2"
   version="1.1"
   inkscape:version="0.48.5 r10040"
   sodipodi:docname="New document 1">
  <defs
     id="defs4">
    <pattern
       inkscape:stockid="Stripes 1:16 white"
       id="Strips1_16white"
       patternTransform="translate(0,0) scale(10,10)"
       height="1"
       width="17"
       patternUnits="userSpaceOnUse"
       inkscape:collect="always">
      <rect
         id="rect4790"
         height="2"
         width="1"
         y="-0.5"
         x="0"
         style="fill:white;stroke:none" />
    </pattern>
    <linearGradient
       id="linearGradient4014"
       osb:paint="solid">
      <stop
         style="stop-color:#000000;stop-opacity:1;"
         offset="0"
         id="stop4016" />
    </linearGradient>
    <filter
       inkscape:label="Inner Glow"
       inkscape:menu="Shadows and Glows"
       inkscape:menu-tooltip="Adds a colorizable glow inside"
       color-interpolation-filters="sRGB"
       id="filter3944">
      <feGaussianBlur
         stdDeviation="10"
         result="result8"
         id="feGaussianBlur3946" />
      <feComposite
         result="result6"
         in="SourceGraphic"
         operator="in"
         in2="result8"
         id="feComposite3948" />
      <feComposite
         operator="in"
         result="result11"
         in2="result6"
         id="feComposite3950" />
      <feFlood
         result="result10"
         in="result11"
         flood-opacity="1"
         flood-color="rgb(255,222,85)"
         id="feFlood3952" />
      <feBlend
         mode="normal"
         in="result11"
         in2="result10"
         result="result12"
         id="feBlend3954" />
      <feComposite
         result="result2"
         operator="in"
         in2="SourceGraphic"
         in="result12"
         id="feComposite3956" />
    </filter>
    <filter
       inkscape:label="Inner Glow"
       inkscape:menu="Shadows and Glows"
       inkscape:menu-tooltip="Adds a colorizable glow inside"
       color-interpolation-filters="sRGB"
       id="filter3958">
      <feGaussianBlur
         stdDeviation="10"
         result="result8"
         id="feGaussianBlur3960" />
      <feComposite
         result="result6"
         in="SourceGraphic"
         operator="in"
         in2="result8"
         id="feComposite3962" />
      <feComposite
         operator="in"
         result="result11"
         in2="result6"
         id="feComposite3964" />
      <feFlood
         result="result10"
         in="result11"
         flood-opacity="1"
         flood-color="rgb(255,222,85)"
         id="feFlood3966" />
      <feBlend
         mode="normal"
         in="result11"
         in2="result10"
         result="result12"
         id="feBlend3968" />
      <feComposite
         result="result2"
         operator="in"
         in2="SourceGraphic"
         in="result12"
         id="feComposite3970" />
    </filter>
    <filter
       inkscape:label="Inner Glow"
       inkscape:menu="Shadows and Glows"
       inkscape:menu-tooltip="Adds a colorizable glow inside"
       color-interpolation-filters="sRGB"
       id="filter3972">
      <feGaussianBlur
         stdDeviation="10"
         result="result8"
         id="feGaussianBlur3974" />
      <feComposite
         result="result6"
         in="SourceGraphic"
         operator="in"
         in2="result8"
         id="feComposite3976" />
      <feComposite
         operator="in"
         result="result11"
         in2="result6"
         id="feComposite3978" />
      <feFlood
         result="result10"
         in="result11"
         flood-opacity="1"
         flood-color="rgb(255,222,85)"
         id="feFlood3980" />
      <feBlend
         mode="normal"
         in="result11"
         in2="result10"
         result="result12"
         id="feBlend3982" />
      <feComposite
         result="result2"
         operator="in"
         in2="SourceGraphic"
         in="result12"
         id="feComposite3984" />
    </filter>
    <filter
       inkscape:label="Inner Glow"
       inkscape:menu="Shadows and Glows"
       inkscape:menu-tooltip="Adds a colorizable glow inside"
       color-interpolation-filters="sRGB"
       id="filter3986">
      <feGaussianBlur
         stdDeviation="10"
         result="result8"
         id="feGaussianBlur3988" />
      <feComposite
         result="result6"
         in="SourceGraphic"
         operator="in"
         in2="result8"
         id="feComposite3990" />
      <feComposite
         operator="in"
         result="result11"
         in2="result6"
         id="feComposite3992" />
      <feFlood
         result="result10"
         in="result11"
         flood-opacity="1"
         flood-color="rgb(255,222,85)"
         id="feFlood3994" />
      <feBlend
         mode="normal"
         in="result11"
         in2="result10"
         result="result12"
         id="feBlend3996" />
      <feComposite
         result="result2"
         operator="in"
         in2="SourceGraphic"
         in="result12"
         id="feComposite3998" />
    </filter>
    <filter
       inkscape:label="Inner Glow"
       inkscape:menu="Shadows and Glows"
       inkscape:menu-tooltip="Adds a colorizable glow inside"
       color-interpolation-filters="sRGB"
       id="filter4000">
      <feGaussianBlur
         stdDeviation="10"
         result="result8"
         id="feGaussianBlur4002" />
      <feComposite
         result="result6"
         in="SourceGraphic"
         operator="in"
         in2="result8"
         id="feComposite4004" />
      <feComposite
         operator="in"
         result="result11"
         in2="result6"
         id="feComposite4006" />
      <feFlood
         result="result10"
         in="result11"
         flood-opacity="1"
         flood-color="rgb(255,222,85)"
         id="feFlood4008" />
      <feBlend
         mode="normal"
         in="result11"
         in2="result10"
         result="result12"
         id="feBlend4010" />
      <feComposite
         result="result2"
         operator="in"
         in2="SourceGraphic"
         in="result12"
         id="feComposite4012" />
    </filter>
    <filter
       inkscape:label="Inner Glow"
       inkscape:menu="Shadows and Glows"
       inkscape:menu-tooltip="Adds a colorizable glow inside"
       color-interpolation-filters="sRGB"
       id="filter4000-4">
      <feGaussianBlur
         stdDeviation="10"
         result="result8"
         id="feGaussianBlur4002-8" />
      <feComposite
         result="result6"
         in="SourceGraphic"
         operator="in"
         in2="result8"
         id="feComposite4004-8" />
      <feComposite
         operator="in"
         result="result11"
         in2="result6"
         id="feComposite4006-2" />
      <feFlood
         result="result10"
         in="result11"
         flood-opacity="1"
         flood-color="rgb(255,222,85)"
         id="feFlood4008-4" />
      <feBlend
         mode="normal"
         in="result11"
         in2="result10"
         result="result12"
         id="feBlend4010-5" />
      <feComposite
         result="result2"
         operator="in"
         in2="SourceGraphic"
         in="result12"
         id="feComposite4012-5" />
    </filter>
    <filter
       inkscape:label="Inner Glow"
       inkscape:menu="Shadows and Glows"
       inkscape:menu-tooltip="Adds a colorizable glow inside"
       color-interpolation-filters="sRGB"
       id="filter4000-1">
      <feGaussianBlur
         stdDeviation="10"
         result="result8"
         id="feGaussianBlur4002-1" />
      <feComposite
         result="result6"
         in="SourceGraphic"
         operator="in"
         in2="result8"
         id="feComposite4004-5" />
      <feComposite
         operator="in"
         result="result11"
         in2="result6"
         id="feComposite4006-27" />
      <feFlood
         result="result10"
         in="result11"
         flood-opacity="1"
         flood-color="rgb(255,222,85)"
         id="feFlood4008-6" />
      <feBlend
         mode="normal"
         in="result11"
         in2="result10"
         result="result12"
         id="feBlend4010-1" />
      <feComposite
         result="result2"
         operator="in"
         in2="SourceGraphic"
         in="result12"
         id="feComposite4012-4" />
    </filter>
  </defs>
  <sodipodi:namedview
     id="base"
     pagecolor="#ffffff"
     bordercolor="#666666"
     borderopacity="1.0"
     inkscape:pageopacity="0.0"
     inkscape:pageshadow="2"
     inkscape:zoom="1"
     inkscape:cx="219"
     inkscape:cy="720.8122"
     inkscape:document-units="px"
     inkscape:current-layer="layer1"
     showgrid="false"
     inkscape:window-width="1920"
     inkscape:window-height="1017"
     inkscape:window-x="-8"
     inkscape:window-y="-8"
     inkscape:window-maximized="1" />
  <metadata
     id="metadata7">
    <rdf:RDF>
      <cc:Work
         rdf:about="">
        <dc:format>image/svg+xml</dc:format>
        <dc:type
           rdf:resource="http://purl.org/dc/dcmitype/StillImage" />
        <dc:title></dc:title>
      </cc:Work>
    </rdf:RDF>
  </metadata>
  <g
     inkscape:groupmode="layer"
     id="layer2"
     inkscape:label="Layer"
     sodipodi:insensitive="true">
    <path
       sodipodi:type="arc"
       style="fill:#000000;fill-opacity:1;fill-rule:evenodd;stroke:none;filter:url(#filter4000-1)"
       id="path2985-2"
       sodipodi:cx="301.5"
       sodipodi:cy="306.36218"
       sodipodi:rx="124.5"
       sodipodi:ry="128"
       d="m 426,306.36218 a 124.5,128 0 1 1 -0.021,-2.35059"
       sodipodi:start="0"
       sodipodi:end="6.2648203"
       sodipodi:open="true"
       transform="translate(23.5,-32)" />
  </g>
  <g
     inkscape:label="Layer 1"
     inkscape:groupmode="layer"
     id="layer1"
     style="display:inline">
    <path
       sodipodi:type="arc"
       style="fill:#806600;fill-opacity:1;fill-rule:evenodd;stroke:none;filter:url(#filter4000)"
       id="path2985"
       sodipodi:cx="301.5"
       sodipodi:cy="306.36218"
       sodipodi:rx="124.5"
       sodipodi:ry="128"
       d="m 426,306.36218 a 124.5,128 0 1 1 -0.021,-2.35059"
       sodipodi:start="0"
       sodipodi:end="6.2648203"
       sodipodi:open="true"
       transform="translate(24,-32)" />
    <path
       sodipodi:type="arc"
       style="fill:#ffd42a;fill-opacity:1;fill-rule:evenodd;stroke:url(#Strips1_16white);stroke-opacity:1;filter:url(#filter3986)"
       id="path2985-1"
       sodipodi:cx="301.5"
       sodipodi:cy="306.36218"
       sodipodi:rx="124.5"
       sodipodi:ry="128"
       d="m 426,306.36218 a 124.5,128 0 1 1 -0.021,-2.35059"
       sodipodi:start="0"
       sodipodi:end="6.2648203"
       sodipodi:open="true"
       transform="matrix(0.95180723,0,0,0.96484375,39.03012,-19.729455)" />
    <path
       style="fill:#ac9d93;fill-opacity:1;stroke:none;filter:url(#filter3972)"
       id="path3917"
       d="m 335.23939,190.44192 c -0.42081,0.20095 -1.66524,0.83779 -1.26242,0.60284 21.94203,-12.79802 15.30131,-8.54105 -2.64534,1.57779 -0.45679,0.25755 -0.98563,0.36448 -1.45478,0.59876 -0.92981,0.46432 -1.79851,1.04276 -2.71376,1.53517 -0.43656,0.19957 -0.88576,0.37352 -1.30968,0.59872 -0.3711,0.19713 -0.7068,0.45529 -1.07053,0.6657 -0.3283,0.18992 -1.33279,0.72443 -1.00441,0.53464 4.53389,-2.62046 18.1794,-10.40517 13.65405,-7.77001 -5.32158,3.09882 -10.66413,6.16149 -15.99619,9.24224 35.57612,-20.63577 0.0212,0.27634 -3.81901,2.47511 25.87508,-16.59914 15.83223,-9.17484 10.09458,-5.34272 -2.38807,1.83467 -4.81103,3.63048 -7.25213,5.39583 -2.21251,1.48634 -4.13093,3.3569 -6.34207,4.83906 -2.04309,1.40747 -3.88681,3.10759 -5.68433,4.81422 -1.97371,1.74878 -3.75352,3.69694 -5.61281,5.56218 -1.82617,2.00802 -3.65981,4.00923 -5.44676,6.05239 -1.73723,2.01694 -3.46506,4.04132 -5.21233,6.04996 -1.4654,2.02042 -2.97028,4.01291 -4.43926,6.03165 -1.27961,1.86167 -2.53435,3.73556 -3.67043,5.68882 -1.17538,1.93142 -2.43859,3.80165 -3.53523,5.77939 -0.96123,2.34343 -2.05181,4.64567 -2.7848,7.0744 -0.51895,2.43912 -0.98516,4.89583 -1.36715,7.36136 -0.2887,2.35961 -0.82224,4.67409 -1.12433,7.03257 -0.15254,2.15982 -0.32574,4.29784 -0.69993,6.43176 -0.28251,2.0203 -0.54669,4.03047 -0.95701,6.02988 -0.45034,2.21139 -0.52515,4.46745 -0.87407,6.69384 -0.42149,2.56582 -0.57789,5.16025 -0.97876,7.7285 -0.31667,2.49901 -0.99989,4.9266 -1.41596,7.40816 -0.26138,2.15157 -0.66347,4.29319 -1.37238,6.34308 -0.8373,1.97857 -1.67433,3.95607 -2.41903,5.97145 -0.8222,2.04847 -2.07091,3.88032 -3.33164,5.6776 -0.98711,1.22316 -1.99023,2.43478 -2.9256,3.69823 0,0 -16.39221,6.96784 -16.39221,6.96784 l 0,0 c 1.07018,-1.14477 1.91085,-2.49266 2.91821,-3.69927 1.48636,-1.48859 2.51876,-3.37333 3.58777,-5.17118 0.8411,-1.98401 1.48299,-4.05017 2.40673,-6.00308 0.93115,-1.84337 1.29939,-3.92049 1.56317,-5.95565 0.35576,-2.51032 1.07201,-4.93273 1.46519,-7.43147 0.38964,-2.56922 0.6163,-5.14264 0.95923,-7.7199 0.3414,-2.24568 0.49923,-4.48747 0.79387,-6.73933 0.38335,-1.99719 0.83906,-3.95732 0.97759,-5.99441 0.36844,-2.11594 0.75452,-4.19662 0.76834,-6.35634 0.26053,-2.383 0.74252,-4.72006 1.10927,-7.08088 0.35387,-2.53372 0.89863,-5.03185 1.29379,-7.55807 0.62139,-2.57767 1.77679,-4.88845 2.59762,-7.39757 0.98342,-2.07807 2.19944,-3.98204 3.49108,-5.87636 1.16935,-1.95195 2.25707,-3.94894 3.62358,-5.77651 1.3388,-2.17715 3.14429,-4.003 4.42798,-6.22037 1.64707,-2.11084 3.55043,-4.00991 5.18036,-6.13874 1.86092,-1.9331 3.54252,-4.04148 5.36367,-6.01634 1.731,-2.04613 3.78824,-3.8218 5.66577,-5.73296 1.83365,-1.68659 3.60179,-3.42603 5.47766,-5.06819 2.29435,-1.43972 4.39572,-3.07647 6.4656,-4.8325 2.48113,-1.63442 4.73543,-3.56846 7.21424,-5.20316 1.70683,-1.75488 -0.13917,-0.0303 1.74221,-1.31436 0.28849,-0.19689 0.50652,-0.48387 0.78811,-0.69052 5.501,-4.03701 12.90142,-6.26147 17.73607,-10.52771 5.54262,-3.10511 2.9681,-1.6685 -13.88974,8.13151 -0.20586,0.11967 0.41504,-0.23816 0.59865,-0.38977 1.42338,-1.1753 -0.38661,0.0133 1.20922,-0.91399 5.30881,-3.08468 10.61038,-6.18184 15.91557,-9.27276 -31.1741,18.12609 -4.87748,2.53128 5.62514,-3.18632 2.43394,-1.32218 0.22447,-0.14014 2.77539,-1.44996 0.45717,-0.23474 1.80914,-0.97527 1.3654,-0.71602 -29.24001,17.08271 -6.15485,3.32698 3.99555,-2.25077 0,0 -13.84658,11.20254 -13.84658,11.20254 z"
       inkscape:connector-curvature="0" />
    <path
       style="fill:#ac9d93;fill-opacity:1;stroke:none;filter:url(#filter3958)"
       id="path3917-0"
       d="m 368.75956,205.28825 c -0.42081,0.20095 -1.66523,0.83779 -1.26242,0.60284 21.94204,-12.79802 15.30132,-8.54105 -2.64533,1.57779 -0.4568,0.25755 -0.98564,0.36448 -1.45479,0.59876 -0.92981,0.46432 -1.7985,1.04276 -2.71376,1.53517 -0.43655,0.19957 -0.88576,0.37352 -1.30968,0.59872 -0.3711,0.19713 -0.7068,0.45529 -1.07053,0.6657 -0.3283,0.18992 -1.33279,0.72443 -1.00441,0.53464 4.53389,-2.62046 18.1794,-10.40517 13.65405,-7.77001 -5.32157,3.09882 -10.66413,6.16149 -15.99619,9.24224 35.57612,-20.63577 0.0212,0.27634 -3.81901,2.47511 25.87508,-16.59914 15.83223,-9.17484 10.09458,-5.34272 -2.38807,1.83467 -4.81103,3.63048 -7.25213,5.39583 -2.21251,1.48634 -4.13093,3.3569 -6.34207,4.83906 -2.04309,1.40747 -3.88681,3.10759 -5.68433,4.81422 -1.97371,1.74878 -3.75352,3.69694 -5.61281,5.56218 -1.82617,2.00802 -3.65981,4.00923 -5.44676,6.05239 -1.73723,2.01694 -3.46506,4.04132 -5.21233,6.04996 -1.4654,2.02042 -2.97028,4.01291 -4.43925,6.03165 -1.27962,1.86167 -2.53436,3.73556 -3.67044,5.68882 -1.17538,1.93142 -2.43859,3.80165 -3.53523,5.77939 -0.96123,2.34343 -2.05181,4.64567 -2.7848,7.0744 -0.51895,2.43912 -0.98516,4.89583 -1.36715,7.36136 -0.2887,2.35961 -0.82224,4.67409 -1.12433,7.03257 -0.15254,2.15982 -0.32574,4.29784 -0.69993,6.43176 -0.28251,2.0203 -0.54669,4.03047 -0.95701,6.02988 -0.45034,2.21139 -0.52515,4.46745 -0.87407,6.69384 -0.42149,2.56582 -0.57789,5.16025 -0.97876,7.7285 -0.31667,2.49901 -0.99989,4.9266 -1.41596,7.40816 -0.26138,2.15157 -0.66347,4.29319 -1.37238,6.34308 -0.8373,1.97857 -1.67433,3.95607 -2.41903,5.97145 -0.8222,2.04847 -2.07091,3.88032 -3.33164,5.6776 -0.98711,1.22316 -1.99023,2.43478 -2.9256,3.69823 0,0 -16.39221,6.96784 -16.39221,6.96784 l 0,0 c 1.07018,-1.14477 1.91086,-2.49266 2.91821,-3.69927 1.48636,-1.48859 2.51876,-3.37333 3.58777,-5.17118 0.8411,-1.98401 1.48299,-4.05017 2.40673,-6.00308 0.93115,-1.84337 1.29939,-3.92049 1.56317,-5.95565 0.35576,-2.51032 1.07201,-4.93273 1.46519,-7.43147 0.38964,-2.56922 0.6163,-5.14264 0.95923,-7.7199 0.3414,-2.24568 0.49923,-4.48747 0.79387,-6.73933 0.38335,-1.99719 0.83906,-3.95732 0.97759,-5.99441 0.36844,-2.11594 0.75452,-4.19662 0.76834,-6.35634 0.26053,-2.383 0.74252,-4.72006 1.10927,-7.08088 0.35387,-2.53372 0.89863,-5.03185 1.29379,-7.55807 0.62139,-2.57767 1.77679,-4.88845 2.59762,-7.39757 0.98342,-2.07807 2.19944,-3.98204 3.49108,-5.87636 1.16935,-1.95195 2.25707,-3.94894 3.62358,-5.77651 1.3388,-2.17715 3.14429,-4.003 4.42798,-6.22037 1.64707,-2.11084 3.55043,-4.00991 5.18036,-6.13874 1.86092,-1.9331 3.54252,-4.04148 5.36367,-6.01634 1.731,-2.04613 3.78824,-3.8218 5.66577,-5.73296 1.83365,-1.68659 3.60179,-3.42603 5.47766,-5.06819 2.29435,-1.43972 4.39572,-3.07647 6.4656,-4.8325 2.48113,-1.63442 4.73543,-3.56846 7.21424,-5.20316 1.70683,-1.75488 -0.13916,-0.0303 1.74221,-1.31436 0.28849,-0.19689 0.50652,-0.48387 0.78812,-0.69052 5.50099,-4.03701 12.90141,-6.26147 17.73606,-10.52771 5.54262,-3.10511 2.9681,-1.6685 -13.88974,8.13151 -0.20586,0.11967 0.41504,-0.23816 0.59865,-0.38977 1.42338,-1.1753 -0.38661,0.0133 1.20922,-0.91399 5.30881,-3.08468 10.61038,-6.18184 15.91557,-9.27276 -31.1741,18.12609 -4.87748,2.53128 5.62514,-3.18632 2.43395,-1.32218 0.22447,-0.14014 2.77539,-1.44996 0.45718,-0.23474 1.80914,-0.97527 1.3654,-0.71602 -29.24001,17.08271 -6.15485,3.32698 3.99555,-2.25077 0,0 -13.84658,11.20254 -13.84658,11.20254 z"
       inkscape:connector-curvature="0" />
    <path
       style="fill:#ac9d93;fill-opacity:1;stroke:none;filter:url(#filter3944)"
       id="path3917-9"
       d="m 398.75956,216.28825 c -0.42081,0.20095 -1.66523,0.83779 -1.26242,0.60284 21.94203,-12.79802 15.30131,-8.54105 -2.64533,1.57779 -0.4568,0.25755 -0.98564,0.36448 -1.45479,0.59876 -0.92981,0.46432 -1.7985,1.04276 -2.71376,1.53517 -0.43655,0.19957 -0.88576,0.37352 -1.30968,0.59872 -0.3711,0.19713 -0.7068,0.45529 -1.07053,0.6657 -0.32829,0.18992 -1.33279,0.72443 -1.00441,0.53464 4.53389,-2.62046 18.1794,-10.40517 13.65405,-7.77001 -5.32157,3.09882 -10.66413,6.16149 -15.99619,9.24224 35.57612,-20.63577 0.0212,0.27634 -3.81901,2.47511 25.87508,-16.59914 15.83223,-9.17484 10.09458,-5.34272 -2.38807,1.83467 -4.81103,3.63048 -7.25213,5.39583 -2.21251,1.48634 -4.13093,3.3569 -6.34207,4.83906 -2.04309,1.40747 -3.88681,3.10759 -5.68433,4.81422 -1.97371,1.74878 -3.75352,3.69694 -5.61281,5.56218 -1.82617,2.00802 -3.65981,4.00923 -5.44676,6.05239 -1.73723,2.01694 -3.46506,4.04132 -5.21233,6.04996 -1.4654,2.02042 -2.97028,4.01291 -4.43925,6.03165 -1.27962,1.86167 -2.53436,3.73556 -3.67044,5.68882 -1.17538,1.93142 -2.43859,3.80165 -3.53523,5.77939 -0.96123,2.34343 -2.05181,4.64567 -2.7848,7.0744 -0.51895,2.43912 -0.98516,4.89583 -1.36715,7.36136 -0.2887,2.35961 -0.82224,4.67409 -1.12433,7.03257 -0.15254,2.15982 -0.32574,4.29784 -0.69993,6.43176 -0.28251,2.0203 -0.54669,4.03047 -0.95701,6.02988 -0.45034,2.21139 -0.52515,4.46745 -0.87407,6.69384 -0.42149,2.56582 -0.57789,5.16025 -0.97876,7.7285 -0.31667,2.49901 -0.99989,4.9266 -1.41596,7.40816 -0.26138,2.15157 -0.66347,4.29319 -1.37238,6.34308 -0.8373,1.97857 -1.67433,3.95607 -2.41903,5.97145 -0.8222,2.04847 -2.07091,3.88032 -3.33164,5.6776 -0.98711,1.22316 -1.99023,2.43478 -2.9256,3.69823 0,0 -16.39221,6.96784 -16.39221,6.96784 l 0,0 c 1.07018,-1.14477 1.91085,-2.49266 2.91821,-3.69927 1.48636,-1.48859 2.51876,-3.37333 3.58777,-5.17118 0.8411,-1.98401 1.48299,-4.05017 2.40673,-6.00308 0.93115,-1.84337 1.29939,-3.92049 1.56317,-5.95565 0.35576,-2.51032 1.07201,-4.93273 1.46519,-7.43147 0.38964,-2.56922 0.6163,-5.14264 0.95923,-7.7199 0.3414,-2.24568 0.49923,-4.48747 0.79387,-6.73933 0.38335,-1.99719 0.83906,-3.95732 0.97759,-5.99441 0.36844,-2.11594 0.75452,-4.19662 0.76834,-6.35634 0.26053,-2.383 0.74252,-4.72006 1.10927,-7.08088 0.35388,-2.53372 0.89863,-5.03185 1.29379,-7.55807 0.62139,-2.57767 1.77679,-4.88845 2.59762,-7.39757 0.98342,-2.07807 2.19944,-3.98204 3.49108,-5.87636 1.16935,-1.95195 2.25707,-3.94894 3.62358,-5.77651 1.3388,-2.17715 3.14429,-4.003 4.42798,-6.22037 1.64707,-2.11084 3.55043,-4.00991 5.18036,-6.13874 1.86092,-1.9331 3.54252,-4.04148 5.36367,-6.01634 1.731,-2.04613 3.78824,-3.8218 5.66577,-5.73296 1.83365,-1.68659 3.60179,-3.42603 5.47766,-5.06819 2.29435,-1.43972 4.39572,-3.07647 6.4656,-4.8325 2.48113,-1.63442 4.73543,-3.56846 7.21424,-5.20316 1.70683,-1.75488 -0.13916,-0.0303 1.74221,-1.31436 0.28849,-0.19689 0.50652,-0.48387 0.78812,-0.69052 5.50099,-4.03701 12.90141,-6.26147 17.73606,-10.52771 5.54262,-3.10511 2.9681,-1.6685 -13.88974,8.13151 -0.20586,0.11967 0.41504,-0.23816 0.59865,-0.38977 1.42338,-1.1753 -0.38661,0.0133 1.20922,-0.91399 5.30881,-3.08468 10.61038,-6.18184 15.91557,-9.27276 -31.1741,18.12609 -4.87748,2.53128 5.62514,-3.18632 2.43395,-1.32218 0.22447,-0.14014 2.77539,-1.44996 0.45717,-0.23474 1.80914,-0.97527 1.3654,-0.71602 -29.24001,17.08271 -6.15485,3.32698 3.99555,-2.25077 0,0 -13.84658,11.20254 -13.84658,11.20254 z"
       inkscape:connector-curvature="0" />
  </g>
</svg>
