<?xml version="1.0" encoding="UTF-8" standalone="no"?>
<!-- Created with Inkscape (http://www.inkscape.org/) -->

<svg
   xmlns:osb="http://www.openswatchbook.org/uri/2009/osb"
   xmlns:dc="http://purl.org/dc/elements/1.1/"
   xmlns:cc="http://creativecommons.org/ns#"
   xmlns:rdf="http://www.w3.org/1999/02/22-rdf-syntax-ns#"
   xmlns:svg="http://www.w3.org/2000/svg"
   xmlns="http://www.w3.org/2000/svg"
   xmlns:sodipodi="http://sodipodi.sourceforge.net/DTD/sodipodi-0.dtd"
   xmlns:inkscape="http://www.inkscape.org/namespaces/inkscape"
   width="744.09448819"
   height="1052.3622047"
   id="svg2"
   version="1.1"
   inkscape:version="0.48.5 r10040"
   sodipodi:docname="greenbabydragon1.svg">
  <defs
     id="defs4">
    <linearGradient
       id="linearGradient4148"
       osb:paint="solid">
      <stop
         style="stop-color:#004800;stop-opacity:1;"
         offset="0"
         id="stop4150" />
    </linearGradient>
  </defs>
  <sodipodi:namedview
     id="base"
     pagecolor="#ffffff"
     bordercolor="#666666"
     borderopacity="1.0"
     inkscape:pageopacity="0.0"
     inkscape:pageshadow="2"
     inkscape:zoom="1.4"
     inkscape:cx="217.8811"
     inkscape:cy="694.8174"
     inkscape:document-units="px"
     inkscape:current-layer="layer7"
     showgrid="false"
     inkscape:window-width="1920"
     inkscape:window-height="1017"
     inkscape:window-x="-8"
     inkscape:window-y="-8"
     inkscape:window-maximized="1" />
  <metadata
     id="metadata7">
    <rdf:RDF>
      <cc:Work
         rdf:about="">
        <dc:format>image/svg+xml</dc:format>
        <dc:type
           rdf:resource="http://purl.org/dc/dcmitype/StillImage" />
        <dc:title></dc:title>
      </cc:Work>
    </rdf:RDF>
  </metadata>
  <g
     inkscape:groupmode="layer"
     id="layer3"
     inkscape:label="background"
     sodipodi:insensitive="true"
     style="display:inline">
    <rect
       style="opacity:0.18000004;fill:#00fff0;fill-opacity:0.95767194"
       id="rect2993"
       width="942.85718"
       height="1148.5714"
       x="-88.571426"
       y="-67.637817" />
  </g>
  <g
     inkscape:groupmode="layer"
     id="layer15"
     inkscape:label="wing2"
     sodipodi:insensitive="true">
    <path
       sodipodi:type="arc"
       style="fill:#008000;fill-opacity:1;stroke:none"
       id="path4942-4"
       sodipodi:cx="167.5"
       sodipodi:cy="420.21933"
       sodipodi:rx="28.214285"
       sodipodi:ry="37.857143"
       d="M 195.71428,420.21933 A 28.214285,37.857143 0 1 1 160.0738,383.69705 l 7.4262,36.52228 z"
       sodipodi:start="0"
       sodipodi:end="4.4460441"
       transform="matrix(-0.83544308,0,0,-0.67348875,328.15101,671.18183)" />
  </g>
  <g
     inkscape:groupmode="layer"
     id="layer4"
     inkscape:label="body"
     style="display:inline"
     sodipodi:insensitive="true">
    <path
       sodipodi:type="arc"
       style="fill:#008000;fill-opacity:1"
       id="path3790"
       sodipodi:cx="312.85715"
       sodipodi:cy="472.36218"
       sodipodi:rx="124.28571"
       sodipodi:ry="117.14286"
       d="m 437.14286,472.36218 a 124.28571,117.14286 0 1 1 -248.57143,0 124.28571,117.14286 0 1 1 248.57143,0 z"
       transform="matrix(0.89632764,0,0,1.0853658,-11.878927,-30.3236)" />
    <path
       sodipodi:type="arc"
       style="fill:#00b904;fill-opacity:1"
       id="path3790-4"
       sodipodi:cx="312.85715"
       sodipodi:cy="472.36218"
       sodipodi:rx="124.28571"
       sodipodi:ry="117.14286"
       d="m 437.14286,472.36218 a 124.28571,117.14286 0 1 1 -248.57143,0 124.28571,117.14286 0 1 1 248.57143,0 z"
       transform="matrix(0.89632764,0,0,1.0853658,2.8910532,-35.466433)" />
    <path
       sodipodi:type="arc"
       style="fill:#008000;fill-opacity:1;stroke:none"
       id="path4939"
       sodipodi:cx="364.64285"
       sodipodi:cy="499.50504"
       sodipodi:rx="55.357143"
       sodipodi:ry="74.285713"
       d="m 420,499.50504 a 55.357143,74.285713 0 1 1 -110.71429,0 55.357143,74.285713 0 1 1 110.71429,0 z"
       transform="matrix(1.0401169,0,0,1.2259615,-49.394645,-129.65465)" />
  </g>
  <g
     inkscape:groupmode="layer"
     id="layer14"
     inkscape:label="wing"
     sodipodi:insensitive="true">
    <path
       sodipodi:type="arc"
       style="fill:#008000;fill-opacity:1;stroke:none"
       id="path4942"
       sodipodi:cx="167.5"
       sodipodi:cy="420.21933"
       sodipodi:rx="28.214285"
       sodipodi:ry="37.857143"
       d="M 195.71428,420.21933 A 28.214285,37.857143 0 1 1 160.0738,383.69705 l 7.4262,36.52228 z"
       sodipodi:start="0"
       sodipodi:end="4.4460441"
       transform="matrix(0.94936713,0,0,0.97119015,9.9095841,4.625669)" />
  </g>
  <g
     inkscape:groupmode="layer"
     id="layer11"
     inkscape:label="tail"
     sodipodi:insensitive="true">
    <path
       style="fill:#008000;fill-opacity:1;stroke:#008000;stroke-width:1px;stroke-linecap:butt;stroke-linejoin:miter;stroke-opacity:1"
       d="M 174.07183,513.3258 C 103.36116,550.70144 74.066739,430.49329 74.066739,430.49329 c 0,0 53.538081,60.60915 89.903571,53.53808 25.25382,18.18274 10.10152,29.29443 10.10152,29.29443 z"
       id="path4779"
       inkscape:connector-curvature="0" />
    <path
       style="fill:#00b904;fill-opacity:1;stroke:#008000;stroke-width:0.83128059px;stroke-linecap:butt;stroke-linejoin:miter;stroke-opacity:1"
       d="m 164.13644,510.5075 c -57.83945,31.5751 -81.801523,-69.97724 -81.801523,-69.97724 0,0 43.792743,51.20285 73.538753,45.22919 20.65695,15.36086 8.26277,24.74805 8.26277,24.74805 z"
       id="path4779-2"
       inkscape:connector-curvature="0" />
  </g>
  <g
     inkscape:groupmode="layer"
     id="layer5"
     inkscape:label="leg"
     sodipodi:insensitive="true"
     style="display:inline">
    <path
       sodipodi:type="arc"
       style="fill:#009c02;fill-opacity:1"
       id="path3829-0"
       sodipodi:cx="275.71429"
       sodipodi:cy="596.64789"
       sodipodi:rx="78.571426"
       sodipodi:ry="64.285713"
       d="m 354.28572,596.64789 a 78.571426,64.285713 0 1 1 -157.14285,0 78.571426,64.285713 0 1 1 157.14285,0 z"
       transform="matrix(0.8073266,0,0,1.2122606,-37.950392,-171.57092)" />
    <path
       sodipodi:type="arc"
       style="fill:#009c02;fill-opacity:1"
       id="path3849-9"
       sodipodi:cx="335.71429"
       sodipodi:cy="609.50507"
       sodipodi:rx="47.142857"
       sodipodi:ry="40"
       d="m 382.85715,609.50507 a 47.142857,40 0 1 1 -94.28571,0 47.142857,40 0 1 1 94.28571,0 z"
       transform="matrix(0.87064633,0,0,1.2988506,-59.761776,-208.39072)" />
    <path
       sodipodi:type="arc"
       style="fill:#00b904;fill-opacity:1"
       id="path3829-0-8"
       sodipodi:cx="275.71429"
       sodipodi:cy="596.64789"
       sodipodi:rx="78.571426"
       sodipodi:ry="64.285713"
       d="m 354.28572,596.64789 a 78.571426,64.285713 0 1 1 -157.14285,0 78.571426,64.285713 0 1 1 157.14285,0 z"
       transform="matrix(0.72271595,0,0,1.0653199,-24.264007,-84.376993)" />
    <path
       sodipodi:type="arc"
       style="fill:#00b904;fill-opacity:1"
       id="path3849-9-8"
       sodipodi:cx="335.71429"
       sodipodi:cy="609.50507"
       sodipodi:rx="47.142857"
       sodipodi:ry="40"
       d="m 382.85715,609.50507 a 47.142857,40 0 1 1 -94.28571,0 47.142857,40 0 1 1 94.28571,0 z"
       transform="matrix(0.77939956,0,0,1.1414141,-43.789452,-116.73378)" />
  </g>
  <g
     inkscape:groupmode="layer"
     id="layer6"
     inkscape:label="LEG2"
     style="display:inline"
     sodipodi:insensitive="true">
    <path
       sodipodi:type="arc"
       style="fill:#009c02;fill-opacity:1"
       id="path3829-0-2"
       sodipodi:cx="275.71429"
       sodipodi:cy="596.64789"
       sodipodi:rx="78.571426"
       sodipodi:ry="64.285713"
       d="m 354.28572,596.64789 a 78.571426,64.285713 0 1 1 -157.14285,0 78.571426,64.285713 0 1 1 157.14285,0 z"
       transform="matrix(-0.37274509,0.75893756,-0.77036691,-0.82796855,887.18577,796.17495)" />
    <path
       sodipodi:type="arc"
       style="fill:#009c02;fill-opacity:1"
       id="path3849-9-4"
       sodipodi:cx="335.71429"
       sodipodi:cy="609.50507"
       sodipodi:rx="47.142857"
       sodipodi:ry="40"
       d="m 382.85715,609.50507 a 47.142857,40 0 1 1 -94.28571,0 47.142857,40 0 1 1 94.28571,0 z"
       transform="matrix(-0.40198,0.8184621,-0.82539309,-0.88710916,978.67513,839.70574)" />
    <path
       sodipodi:type="arc"
       style="fill:#00b904;fill-opacity:1"
       id="path3829-0-8-5"
       sodipodi:cx="275.71429"
       sodipodi:cy="596.64789"
       sodipodi:rx="78.571426"
       sodipodi:ry="64.285713"
       d="m 354.28572,596.64789 a 78.571426,64.285713 0 1 1 -157.14285,0 78.571426,64.285713 0 1 1 157.14285,0 z"
       transform="matrix(-0.3336801,0.67939826,-0.67698906,-0.72760866,814.79471,751.19079)" />
    <path
       sodipodi:type="arc"
       style="fill:#00b904;fill-opacity:1"
       id="path3849-9-8-5"
       sodipodi:cx="335.71429"
       sodipodi:cy="609.50507"
       sodipodi:rx="47.142857"
       sodipodi:ry="40"
       d="m 382.85715,609.50507 a 47.142857,40 0 1 1 -94.28571,0 47.142857,40 0 1 1 94.28571,0 z"
       transform="matrix(-0.35985109,0.73268442,-0.72534542,-0.77958071,896.2218,788.90667)" />
  </g>
  <g
     inkscape:groupmode="layer"
     id="layer13"
     inkscape:label="2ndear"
     sodipodi:insensitive="true">
    <path
       sodipodi:type="arc"
       style="fill:#008000;fill-opacity:1;stroke:none"
       id="path4937"
       sodipodi:cx="296.78571"
       sodipodi:cy="122.36218"
       sodipodi:rx="14.642858"
       sodipodi:ry="15"
       d="m 311.42856,122.36218 a 14.642858,15 0 1 1 -29.28571,0 14.642858,15 0 1 1 29.28571,0 z"
       transform="matrix(1.9452909,0.79589001,-1.0767016,3.359781,-209.15842,-518.52814)" />
  </g>
  <g
     inkscape:label="Layer head"
     inkscape:groupmode="layer"
     id="layer1"
     style="display:inline"
     sodipodi:insensitive="true">
    <path
       sodipodi:type="arc"
       style="fill:#008000"
       id="path2985"
       sodipodi:cx="290"
       sodipodi:cy="260.93362"
       sodipodi:rx="141.42857"
       sodipodi:ry="137.14285"
       d="m 431.42857,260.93362 a 141.42857,137.14285 0 1 1 -282.85714,0 141.42857,137.14285 0 1 1 282.85714,0 z" />
    <path
       sodipodi:type="arc"
       style="opacity:0.47000002;fill:#00ff09;fill-opacity:0.95767194"
       id="path3763"
       sodipodi:cx="344.28571"
       sodipodi:cy="316.64789"
       sodipodi:rx="147.14285"
       sodipodi:ry="155.71428"
       d="m 491.42856,316.64789 a 147.14285,155.71428 0 1 1 -294.28571,0 147.14285,155.71428 0 1 1 294.28571,0 z"
       transform="matrix(0.94174757,0,0,0.84403669,-34.230236,-17.757405)" />
  </g>
  <g
     inkscape:groupmode="layer"
     id="layer9"
     inkscape:label="mouth2"
     style="display:inline"
     sodipodi:insensitive="true">
    <path
       style="fill:#008204;fill-opacity:0.92156863;display:inline"
       d="m 431.03125,208.71875 c -38.65993,0 -70,24.9486 -70,55.71875 0,10.84645 3.91515,20.97208 10.65625,29.53125 1.79526,-1.09673 3.6813,-2.21195 5.5625,-3.3125 0.0355,-0.18632 0.0548,-0.37483 0.0937,-0.5625 -2.0671,-3.24697 0.37155,-7.8699 7.4375,-7.96875 0.9043,-0.0127 1.81153,-0.004 2.71875,0 0.0168,-1.51003 -1.92615,-2.73663 -7,-3.5625 l -4.5,-0.75 c -3.18144,1.38248 -6.292,2.91527 -9.53125,4.15625 -0.36663,0.14046 0.55319,-0.54847 0.84375,-0.8125 0.36627,-0.33284 0.67105,-0.77164 1.125,-0.96875 6.28958,-2.73103 7.04448,-3.75539 11.71875,-3.625 1.58964,0.0105 3.16058,0.0172 4.75,-0.0625 0.23432,0.004 1.68851,0.059 2.9375,0.125 2.54678,-0.91135 5.28306,-1.42338 7.90625,-1.03125 1.84335,-0.81663 3.37267,-1.16218 6.28125,-1.0625 2.00994,4.9e-4 4.0213,0.005 6.03125,0 1.95593,-0.004 3.91913,0.0177 5.875,0.0312 2.2716,-0.0305 4.54921,-0.16534 6.8125,0.0625 3.31493,-1.09604 2.72862,-1.09375 5.53125,-1.09375 l 6.0625,0 6.0625,0 6.0625,0 c 2.02027,0 4.04223,2e-5 6.0625,0 2.01982,-1e-5 4.04268,-3e-5 6.0625,0 2.02289,-1e-4 4.03961,-9.7e-4 6.0625,0 2.05101,7.6e-4 4.10523,10e-4 6.15625,0 1.89048,0.006 3.76616,0.0256 5.65625,-0.0312 1.04749,-0.0158 4.33212,-0.043 5.90625,0.0937 2.61837,-0.97404 4.93076,-0.94254 9.8125,-1.46875 3.83952,-0.41387 7.19859,-0.21153 10.09375,0.40625 0.48052,-2.64288 0.75,-5.34276 0.75,-8.09375 0,-30.77015 -31.34007,-55.71875 -70,-55.71875 z m 47.4375,65.71875 c -0.4166,0.0651 -0.68217,0.11327 -1.21875,0.1875 -0.33606,0.36289 -0.64367,0.75018 -0.96875,1.125 0.78367,-0.50814 1.53382,-0.96607 2.1875,-1.3125 z m -83.90625,1.71875 -1.78125,0.375 c -1.09538,0.72648 -2.18495,1.46244 -3.28125,2.1875 2.20138,-1.06273 3.78551,-1.92199 5.0625,-2.5625 z"
       id="path4049"
       inkscape:connector-curvature="0" />
    <path
       style="fill:#00b904;fill-opacity:1;display:inline"
       d="m 423.90625,215.875 c -35.50402,0 -64.28125,22.38576 -64.28125,50 0,10.58958 4.24488,20.38578 11.46875,28.46875 1.96161,-1.21782 4.06038,-2.46137 6.15625,-3.6875 0.0355,-0.18632 0.0548,-0.37483 0.0937,-0.5625 -2.0671,-3.24697 0.37155,-7.8699 7.4375,-7.96875 0.9043,-0.0127 1.81153,-0.004 2.71875,0 0.0168,-1.51003 -1.92615,-2.73663 -7,-3.5625 l -4.5,-0.75 c -3.18144,1.38248 -6.292,2.91527 -9.53125,4.15625 -0.36663,0.14046 0.55319,-0.54847 0.84375,-0.8125 0.36627,-0.33284 0.67105,-0.77164 1.125,-0.96875 6.28958,-2.73103 7.04448,-3.75539 11.71875,-3.625 1.58964,0.0105 3.16058,0.0172 4.75,-0.0625 0.23432,0.004 1.68851,0.059 2.9375,0.125 2.54678,-0.91135 5.28306,-1.42338 7.90625,-1.03125 1.84335,-0.81663 3.37267,-1.16218 6.28125,-1.0625 2.00994,4.9e-4 4.0213,0.005 6.03125,0 1.95593,-0.004 3.91913,0.0177 5.875,0.0312 2.2716,-0.0305 4.54921,-0.16534 6.8125,0.0625 3.31493,-1.09604 2.72862,-1.09375 5.53125,-1.09375 l 6.0625,0 6.0625,0 6.0625,0 c 2.02027,0 4.04223,2e-5 6.0625,0 2.01982,-1e-5 4.04268,-3e-5 6.0625,0 2.02289,-1e-4 4.03961,-9.7e-4 6.0625,0 2.05101,7.6e-4 4.10523,10e-4 6.15625,0 1.89048,0.006 3.76616,0.0256 5.65625,-0.0312 1.04749,-0.0158 4.33212,-0.043 5.90625,0.0937 2.04395,-0.76035 4.21073,-0.95021 7.25,-1.21875 0.35753,-2.1271 0.5625,-4.29891 0.5625,-6.5 0,-27.61424 -28.77723,-50 -64.28125,-50 z m 54.5625,58.5625 c -0.4166,0.0651 -0.68217,0.11327 -1.21875,0.1875 -0.33606,0.36289 -0.64367,0.75018 -0.96875,1.125 0.78367,-0.50814 1.53382,-0.96607 2.1875,-1.3125 z m -83.90625,1.71875 -1.78125,0.375 c -1.09538,0.72648 -2.18495,1.46244 -3.28125,2.1875 2.20138,-1.06273 3.78551,-1.92199 5.0625,-2.5625 z"
       id="path4051"
       inkscape:connector-curvature="0" />
    <path
       sodipodi:type="arc"
       style="fill:#008000;fill-opacity:1;display:inline"
       id="path3987-1"
       sodipodi:cx="449.51788"
       sodipodi:cy="272.52441"
       sodipodi:rx="9.0913725"
       sodipodi:ry="8.0812206"
       d="m 458.60926,272.52441 a 9.0913725,8.0812206 0 1 1 -18.18275,0 9.0913725,8.0812206 0 1 1 18.18275,0 z"
       transform="translate(7.0710697,-35.824277)" />
    <path
       style="fill:#008000;fill-opacity:1;stroke:#008000;stroke-width:10.8815279;stroke-linecap:butt;stroke-linejoin:miter;stroke-miterlimit:4;stroke-opacity:1;stroke-dasharray:none"
       d="m 500.08803,269.5179 c 0,0 -109.19803,3.16015 -118.92854,-2.10677"
       id="path4772"
       inkscape:connector-curvature="0" />
  </g>
  <g
     inkscape:groupmode="layer"
     id="layer12"
     inkscape:label="ear"
     sodipodi:insensitive="true">
    <path
       sodipodi:type="arc"
       style="fill:#00ff32;fill-opacity:0.54509804;stroke:none"
       id="path4800"
       sodipodi:cx="216.07143"
       sodipodi:cy="151.29076"
       sodipodi:rx="32.5"
       sodipodi:ry="63.214287"
       d="m 248.57143,151.29076 a 32.5,63.214287 0 1 1 -65,0 32.5,63.214287 0 1 1 65,0 z"
       transform="matrix(-0.78945875,1.0995662,-0.71213472,-0.99186853,481.89031,70.552166)" />
    <path
       sodipodi:type="arc"
       style="fill:#00b904;fill-opacity:1;stroke:none"
       id="path4800-7"
       sodipodi:cx="216.07143"
       sodipodi:cy="151.29076"
       sodipodi:rx="32.5"
       sodipodi:ry="63.214287"
       d="m 248.57143,151.29076 a 32.5,63.214287 0 1 1 -65,0 32.5,63.214287 0 1 1 65,0 z"
       transform="matrix(-0.78945875,1.0995662,-0.71213472,-0.99186853,486.17602,76.980742)" />
    <path
       sodipodi:type="arc"
       style="fill:#00ff32;fill-opacity:0.54509804;stroke:none"
       id="path4800-1"
       sodipodi:cx="216.07143"
       sodipodi:cy="151.29076"
       sodipodi:rx="32.5"
       sodipodi:ry="63.214287"
       d="m 248.57143,151.29076 a 32.5,63.214287 0 1 1 -65,0 32.5,63.214287 0 1 1 65,0 z"
       transform="matrix(-0.35422019,0.46847031,-0.31952589,-0.42258569,315.59246,92.2153)" />
  </g>
  <g
     inkscape:groupmode="layer"
     id="layer10"
     inkscape:label="mask"
     style="display:inline"
     sodipodi:insensitive="true">
    <path
       style="fill:#008000;fill-opacity:1;display:inline"
       d="m 501.30802,268.10525 c 0,0 -79.80205,-2.0203 -126.26907,6.06092 -46.46701,8.08122 24.24367,42.4264 32.32489,43.43656 8.08122,1.01015 79.80205,15.15229 93.94418,-49.49748 z"
       id="path4016"
       inkscape:connector-curvature="0" />
    <path
       style="fill:#00b904;fill-opacity:1;display:inline"
       d="m 488.17604,272.11955 c 0,0 -69.58116,-1.78352 -110.09677,5.35057 -40.51561,7.13409 21.13858,37.45397 28.18478,38.34573 7.04619,0.89176 69.58116,13.37642 81.91199,-43.6963 z"
       id="path4016-5"
       inkscape:connector-curvature="0" />
  </g>
  <g
     inkscape:groupmode="layer"
     id="layer17"
     inkscape:label="horn2"
     sodipodi:insensitive="true">
    <path
       sodipodi:type="arc"
       style="fill:#008000;fill-opacity:1;stroke:none"
       id="path4942-2"
       sodipodi:cx="167.5"
       sodipodi:cy="420.21933"
       sodipodi:rx="28.214285"
       sodipodi:ry="37.857143"
       d="M 195.71428,420.21933 A 28.214285,37.857143 0 1 1 160.0738,383.69705 l 7.4262,36.52228 z"
       sodipodi:start="0"
       sodipodi:end="4.4460441"
       transform="matrix(1.4303798,0,0,1.2304784,-78.160056,-325.17277)" />
  </g>
  <g
     inkscape:groupmode="layer"
     id="layer2"
     inkscape:label="Eyes"
     style="display:inline"
     sodipodi:insensitive="true">
    <path
       sodipodi:type="arc"
       style="fill:#008000;fill-opacity:1"
       id="path3938"
       sodipodi:cx="310"
       sodipodi:cy="236.6479"
       sodipodi:rx="55.714283"
       sodipodi:ry="58.571426"
       d="m 365.71428,236.6479 a 55.714283,58.571426 0 1 1 -111.42856,0 55.714283,58.571426 0 1 1 111.42856,0 z"
       transform="matrix(1.3589744,0,0,1.2439025,-114.1392,-69.147574)" />
    <path
       sodipodi:type="arc"
       style="fill:#ffffff;fill-opacity:1;display:inline"
       id="path3938-1"
       sodipodi:cx="310"
       sodipodi:cy="236.6479"
       sodipodi:rx="55.714283"
       sodipodi:ry="58.571426"
       d="m 365.71428,236.6479 a 55.714283,58.571426 0 1 1 -111.42856,0 55.714283,58.571426 0 1 1 111.42856,0 z"
       transform="matrix(1.2564103,0,0,1.1219513,-80.9157,-37.430949)" />
  </g>
  <g
     inkscape:groupmode="layer"
     id="layer7"
     inkscape:label="pupil"
     sodipodi:insensitive="true">
    <path
       sodipodi:type="arc"
       style="fill:#00b904;fill-opacity:1"
       id="path3959"
       sodipodi:cx="327.14285"
       sodipodi:cy="206.6479"
       sodipodi:rx="30"
       sodipodi:ry="31.428572"
       d="m 357.14285,206.6479 a 30,31.428572 0 1 1 -60,0 30,31.428572 0 1 1 60,0 z"
       transform="matrix(1.3255813,0,0,1.2727273,-108.66295,-59.215661)" />
    <path
       sodipodi:type="arc"
       style="fill:#000000;fill-opacity:1"
       id="path3959-7"
       sodipodi:cx="327.14285"
       sodipodi:cy="206.6479"
       sodipodi:rx="30"
       sodipodi:ry="31.428572"
       d="m 357.14285,206.6479 a 30,31.428572 0 1 1 -60,0 30,31.428572 0 1 1 60,0 z"
       transform="matrix(1.1362126,0,0,1.0413223,-39.137546,-15.032685)" />
    <path
       sodipodi:type="arc"
       style="fill:#ffffff;fill-opacity:1"
       id="path3979"
       sodipodi:cx="325.26913"
       sodipodi:cy="187.6716"
       sodipodi:rx="12.121831"
       sodipodi:ry="12.121831"
       d="m 337.39097,187.6716 a 12.121831,12.121831 0 1 1 -24.24367,0 12.121831,12.121831 0 1 1 24.24367,0 z"
       transform="translate(-2.0203051,-6.0609153)" />
  </g>
</svg>
