<?xml version="1.0" encoding="UTF-8" standalone="no"?>
<!-- Created with Inkscape (http://www.inkscape.org/) -->

<svg
   xmlns:dc="http://purl.org/dc/elements/1.1/"
   xmlns:cc="http://creativecommons.org/ns#"
   xmlns:rdf="http://www.w3.org/1999/02/22-rdf-syntax-ns#"
   xmlns:svg="http://www.w3.org/2000/svg"
   xmlns="http://www.w3.org/2000/svg"
   xmlns:sodipodi="http://sodipodi.sourceforge.net/DTD/sodipodi-0.dtd"
   xmlns:inkscape="http://www.inkscape.org/namespaces/inkscape"
   width="744.09448819"
   height="1052.3622047"
   id="svg2"
   version="1.1"
   inkscape:version="0.48.5 r10040"
   sodipodi:docname="New document 1">
  <defs
     id="defs4" />
  <sodipodi:namedview
     id="base"
     pagecolor="#ffffff"
     bordercolor="#666666"
     borderopacity="1.0"
     inkscape:pageopacity="0.0"
     inkscape:pageshadow="2"
     inkscape:zoom="0.98994949"
     inkscape:cx="375"
     inkscape:cy="600.8122"
     inkscape:document-units="px"
     inkscape:current-layer="layer1"
     showgrid="false"
     inkscape:window-width="1920"
     inkscape:window-height="1017"
     inkscape:window-x="-8"
     inkscape:window-y="-8"
     inkscape:window-maximized="1" />
  <metadata
     id="metadata7">
    <rdf:RDF>
      <cc:Work
         rdf:about="">
        <dc:format>image/svg+xml</dc:format>
        <dc:type
           rdf:resource="http://purl.org/dc/dcmitype/StillImage" />
        <dc:title></dc:title>
      </cc:Work>
    </rdf:RDF>
  </metadata>
  <g
     inkscape:label="Layer 1"
     inkscape:groupmode="layer"
     id="layer1">
    <path
       sodipodi:type="arc"
       style="fill:#aa8800;fill-opacity:1;stroke:none"
       id="path2985"
       sodipodi:cx="306.07623"
       sodipodi:cy="524.5575"
       sodipodi:rx="196.97975"
       sodipodi:ry="152.02795"
       d="M 503.05598,524.5575 A 196.97975,152.02795 0 1 1 109.0999,523.66216"
       sodipodi:start="0"
       sodipodi:end="3.147482"
       sodipodi:open="true"
       transform="matrix(0.82051283,0,0,-1.7266178,44.835233,1600.9529)" />
    <path
       sodipodi:type="arc"
       style="fill:#ffcc00;fill-opacity:1;stroke:none"
       id="path2985-1"
       sodipodi:cx="306.07623"
       sodipodi:cy="524.5575"
       sodipodi:rx="196.97975"
       sodipodi:ry="152.02795"
       d="M 503.05598,524.5575 A 196.97975,152.02795 0 1 1 109.0999,523.66216"
       sodipodi:start="0"
       sodipodi:end="3.147482"
       sodipodi:open="true"
       transform="matrix(0.77948719,0,0,-1.6869842,60.42265,1575.8477)" />
    <path
       style="fill:#aa8800;fill-opacity:1;stroke:none"
       id="path3005"
       d="m 386.06482,554.48341 c 3.73176,5.42999 7.67342,10.68436 12.10925,15.55816 4.7603,4.87364 9.69206,9.55521 15.34752,13.37371 4.56198,3.17096 9.96246,4.15716 15.37016,4.73855 3.34175,0.13102 6.81488,0.76853 10.05179,-0.2988 5.40215,-2.02497 15.99608,-8.67829 -6.34851,4.15266 2.55714,-1.62339 4.97178,-3.46969 7.33042,-5.36757 1.10836,-0.8614 2.1,-1.85427 3.09379,-2.84114 0,0 13.84898,-5.70817 13.84898,-5.70817 l 0,0 c -1.04287,0.97954 -1.96257,2.06967 -3.08348,2.96553 -2.32829,1.95739 -4.76271,3.77793 -7.22562,5.56079 -5.8642,3.39537 -12.53474,8.36513 -19.52604,10.3249 -3.38974,0.52856 -6.83503,0.0687 -10.22942,-0.22799 -5.56737,-0.75913 -11.07148,-2.01516 -15.71775,-5.3631 -5.65796,-3.97483 -10.6114,-8.77244 -15.41882,-13.72749 -4.44034,-4.89885 -8.38011,-10.17636 -12.42587,-15.39868 0,0 12.8236,-7.74136 12.8236,-7.74136 z"
       inkscape:connector-curvature="0" />
    <path
       style="fill:#aa8800;fill-opacity:1;stroke:none"
       id="path3043"
       d="m 208.48163,469.02456 c 5.99611,2.9233 12.21188,5.37959 18.51949,7.54079 6.86629,2.25993 13.97263,3.761 21.09902,4.93483 2.22103,0.30613 4.51951,0.72458 6.71897,0.0249 0.59039,-0.1878 2.22401,-1.08836 1.68848,-0.77684 -13.17281,7.66259 -14.28649,8.57026 -9.43805,5.04361 3.00316,-2.71006 4.76505,-6.36565 6.53846,-9.92546 0,0 13.48957,-6.11506 13.48957,-6.11506 l 0,0 c -1.77321,3.66646 -3.4913,7.41916 -6.2301,10.48951 -5.51666,4.99957 -2.33824,2.32559 -16.10175,9.67457 -0.96036,0.51279 -2.86512,0.64626 -3.9005,0.6314 -1.71176,-0.0246 -3.17814,-0.31231 -4.86787,-0.57153 -7.11811,-1.3326 -14.20985,-2.93569 -21.0871,-5.22246 -6.42171,-2.21074 -12.72643,-4.74564 -18.93453,-7.49987 0,0 12.50591,-8.22844 12.50591,-8.22844 z"
       inkscape:connector-curvature="0" />
    <path
       style="fill:#aa8800;fill-opacity:1;stroke:none"
       id="path3045"
       d="m 359.65946,644.18861 c -3.19683,2.49566 -5.8001,5.5557 -8.13649,8.84335 -2.38383,3.49018 -2.91091,7.6942 -3.5634,11.7665 -0.70252,4.51689 -1.62744,8.03962 -4.54781,11.63454 -5.73741,4.89218 -12.57978,9.26108 -20.08981,10.58269 -1.87384,0.32976 -3.7649,0.55443 -5.64142,0.86855 0,0 11.76339,-8.85643 11.76339,-8.85643 l 0,0 c 0.61147,-0.10781 4.80542,-0.83196 5.67017,-1.0362 0.7249,-0.17121 1.44234,-0.37815 2.14661,-0.62064 0.64293,-0.22138 2.46411,-1.13248 1.88942,-0.76902 -3.09733,1.95885 -15.9344,9.54308 -9.47128,5.58303 0.46185,-0.43705 0.97169,-0.82841 1.38555,-1.31115 2.27426,-2.65277 2.88615,-6.22713 3.54999,-9.53826 0.66259,-4.21095 1.07596,-8.6098 3.26629,-12.36015 2.25221,-3.36499 4.73256,-6.55952 7.87501,-9.15234 0,0 13.90378,-5.63447 13.90378,-5.63447 z"
       inkscape:connector-curvature="0" />
    <path
       style="fill:#aa8800;fill-opacity:1;stroke:none"
       id="path3047"
       d="m 389.07249,644.66025 c 3.30905,1.83323 6.70373,3.50303 10.04308,5.27814 3.90822,2.12551 6.63123,5.57526 9.48666,8.87819 4.39995,4.67733 9.4713,8.7557 15.35519,11.414 1.36267,0.61565 2.78491,1.08989 4.17737,1.63483 6.68496,2.19046 13.64143,3.58522 20.6434,2.45145 2.08947,-0.30153 4.0939,-0.90544 6.01828,-1.76266 0.56004,-0.24947 2.18672,-1.10705 1.65662,-0.79905 -13.98196,8.12389 -14.50375,8.51775 -9.66532,5.3307 1.62351,-1.14122 3.15494,-2.4044 4.72462,-3.61732 0,0 13.81175,-5.49412 13.81175,-5.49412 l 0,0 c -1.60409,1.171 -3.10911,2.43561 -4.66977,3.66241 -7.21482,5.18022 -14.8542,10.32279 -23.75338,11.53633 -7.12678,0.62681 -14.13096,-0.83843 -20.8465,-3.21717 -1.42005,-0.58483 -2.87011,-1.1015 -4.26014,-1.75448 -6.00897,-2.82277 -11.26555,-6.96994 -15.8361,-11.74753 -2.80587,-3.13557 -5.51867,-6.38571 -9.33328,-8.34322 -3.33753,-1.78121 -6.6737,-3.57403 -10.08883,-5.20203 0,0 12.53635,-8.24847 12.53635,-8.24847 z"
       inkscape:connector-curvature="0" />
    <path
       style="fill:#aa8800;fill-opacity:1;stroke:none"
       id="path3049"
       d="m 280.9193,645.29162 c -3.49043,4.12447 -5.26768,9.05162 -6.45662,14.23789 -1.07896,4.64305 -0.59466,9.39198 -0.55656,14.09804 -0.0674,1.90846 -0.75513,3.66396 -2.50203,4.64943 -14.19388,8.00714 -9.13688,6.8603 -16.25613,8.20233 -4.29769,0.55673 -8.6433,0.50425 -12.96783,0.52419 0,0 11.89478,-8.66235 11.89478,-8.66235 l 0,0 c 4.31443,-0.0761 8.67607,-0.0556 12.92553,-0.90078 6.06404,-1.73899 1.33772,-0.54247 -9.55141,6.20914 -0.40849,0.25328 0.91758,-0.3049 1.3375,-0.53875 0.5372,-0.29917 1.27148,-0.96421 1.53103,-1.55431 0.16194,-0.36817 0.18266,-0.78341 0.27399,-1.17511 0.21718,-4.80894 -0.48861,-9.68034 0.59249,-14.43795 1.07082,-5.27414 2.63177,-10.3901 5.96967,-14.71967 0,0 13.76559,-5.9321 13.76559,-5.9321 z"
       inkscape:connector-curvature="0" />
    <path
       style="fill:#aa8800;fill-opacity:1;stroke:none"
       id="path3051"
       d="m 309.17346,470.62469 c 4.10934,-1.2112 8.34073,-1.79272 12.59444,-2.17464 4.4647,-0.0791 8.87538,-0.68293 13.29346,-1.26793 4.35778,-0.61892 8.75457,-0.86314 13.15037,-0.988 3.92496,-0.0105 7.86145,-0.23469 11.77685,0.089 4.29228,0.39312 8.58752,0.89053 12.88938,0.49029 0.94338,-0.2389 1.90648,-0.41025 2.83012,-0.7167 1.04312,-0.34609 2.06316,-0.76613 3.05651,-1.23638 1.08379,-0.51305 4.21199,-2.29416 3.16538,-1.709 -10.97877,6.13825 -11.79641,6.8523 -5.59738,2.64222 0,0 13.56532,-5.33009 13.56532,-5.33009 l 0,0 c -7.96301,5.54202 -4.87252,3.51826 -19.40958,11.85744 -2.94657,1.6903 -6.17211,2.81617 -9.53435,3.28016 -4.3735,0.19321 -8.71712,-0.23203 -13.07421,-0.59924 -3.88894,-0.17884 -7.7863,-0.0499 -11.67722,0.017 -4.35299,0.15823 -8.70232,0.44572 -13.01593,1.07589 -4.43717,0.60649 -8.8821,1.03528 -13.35676,1.2464 -4.24043,0.44199 -8.4508,1.15542 -12.51547,2.4794 0,0 11.85907,-9.15579 11.85907,-9.15579 z"
       inkscape:connector-curvature="0" />
    <path
       style="fill:#aa8800;fill-opacity:1;stroke:none"
       id="path3053"
       d="m 214.3974,506.9993 c -5.4575,1.94481 -24.32997,12.92144 -2.26948,0.52188 -4.00672,2.43659 -7.00526,5.16932 -8.72728,9.56158 -0.97767,2.8121 -0.51254,4.47696 1.1251,6.80454 1.66976,2.09085 2.41479,4.56858 2.87336,7.15712 0.37586,2.32749 0.38357,4.65214 -0.60688,6.81414 -5.05188,5.78946 -12.83742,9.16007 -20.18189,11.32557 0,0 11.77141,-9.1274 11.77141,-9.1274 l 0,0 c 1.57667,-0.55432 1.90552,-0.62908 3.39302,-1.30494 0.42995,-0.19536 1.67442,-0.87205 1.26937,-0.62923 -20.54,12.31334 -14.26006,8.63767 -10.01002,5.75382 1.58937,-1.57636 1.32593,-3.73509 1.11836,-5.81278 -0.3475,-2.39565 -0.96936,-4.65232 -2.53153,-6.56921 -1.75999,-2.49191 -2.70062,-5.03656 -1.73773,-8.09299 1.59347,-4.99758 4.06284,-7.70071 8.512,-10.52754 9.08466,-5.37126 18.0113,-11.05127 27.72089,-15.24841 0,0 -11.7187,9.37385 -11.7187,9.37385 z"
       inkscape:connector-curvature="0" />
    <path
       style="fill:#aa8800;fill-opacity:1;stroke:none"
       id="path3055"
       d="m 393.99532,627.17549 c 7.09954,-4.06771 14.01653,-9.31751 22.17213,-11.13454 3.35479,0.10892 6.23127,1.712 8.73189,3.83374 1.63337,1.62421 3.07978,3.44586 4.46944,5.28228 0.91393,1.19853 1.02801,3.06872 2.36924,3.88266 1.67787,1.35777 3.94287,1.44964 6.00756,1.60539 0.45809,-0.0333 0.92065,-0.028 1.37429,-0.1 1.1348,-0.17996 1.44578,-0.39247 2.48781,-0.83808 0.39325,-0.16817 1.55018,-0.71784 1.18043,-0.50289 -17.96941,10.44655 -14.99826,8.64136 -10.62664,5.95875 1.44118,-0.96156 0.72982,-0.46357 2.13373,-1.49448 0,0 13.90664,-5.55381 13.90664,-5.55381 l 0,0 c -1.36886,1.11211 -0.67442,0.57286 -2.08296,1.61825 -6.20019,4.12218 -12.76474,9.8147 -20.55417,9.58542 -2.35568,-0.27139 -4.72373,-0.66618 -6.57097,-2.28454 -1.25106,-1.18054 -1.76794,-2.70182 -2.55,-4.20023 -1.3149,-1.74369 -2.62405,-3.52689 -4.22375,-5.02026 -2.28499,-1.82178 -4.92773,-3.20617 -7.93557,-2.68385 -5.94158,1.66887 -18.79934,9.28004 3.69439,-3.37782 0,0 -13.98349,5.42399 -13.98349,5.42399 z"
       inkscape:connector-curvature="0" />
    <path
       style="fill:#aa8800;fill-opacity:1;stroke:none"
       id="path3057"
       d="m 410.14014,535.1618 c -2.50788,2.39722 -5.26104,4.56969 -8.28428,6.28562 -15.44854,8.76833 -9.8816,6.62248 -18.19226,9.54575 -4.75939,1.50287 -9.7004,2.28603 -14.66583,2.66232 -3.33112,0.0816 -4.33686,-2.57911 -4.29034,-5.45185 0.38812,-2.59651 0.87859,-5.16757 1.12885,-7.78351 0.12769,-1.50764 0.21363,-3.01405 0.12548,-4.52468 0,0 13.30674,-6.93144 13.30674,-6.93144 l 0,0 c 0.18715,1.59378 0.10514,3.17626 -0.0266,4.77571 -0.21819,2.61061 -0.57072,5.19687 -1.13279,7.75783 -0.37869,2.59452 0.0967,3.46938 2.88888,3.28923 4.84584,-0.42386 9.66691,-1.23617 14.26439,-2.87624 6.66129,-2.67662 3.23262,-1.47255 -7.17607,4.84368 -0.83038,0.50389 1.71562,-0.91516 2.53585,-1.43541 0.65361,-0.41457 3.49261,-2.49359 4.18146,-3.06203 0.51769,-0.42721 0.99108,-0.90545 1.48662,-1.35817 0,0 13.84989,-5.73681 13.84989,-5.73681 z"
       inkscape:connector-curvature="0" />
    <path
       style="fill:#aa8800;fill-opacity:1;stroke:none"
       id="path3059"
       d="m 281.05918,472.56778 c -0.0791,-4.05756 -0.26599,-8.11379 -0.45581,-12.16952 0.0843,-3.28097 -0.85784,-6.60477 0.013,-9.85608 0.72367,-1.49453 2.38361,-2.53956 3.8497,-3.69436 0.67461,-0.53138 1.96159,-1.67014 2.5869,-2.21621 2.95788,-2.53939 5.33482,-5.31967 7.14681,-8.30509 1.76673,-2.65949 2.76484,-5.49826 2.73148,-8.41237 -0.0391,-1.71666 -0.50273,-3.41233 -1.7526,-4.92278 -0.33363,-0.4032 -1.46051,-1.56166 -1.10715,-1.16627 2.16026,2.41736 4.35216,4.82167 6.52823,7.2325 -1.68288,-1.77101 -3.55104,-3.45481 -5.4936,-5.09714 0,0 -5.91969,-9.21903 -5.91969,-9.21903 l 0,0 c 2.02686,1.60024 3.90524,3.28482 5.63837,5.0376 2.97226,3.23495 5.98609,6.45254 8.91679,9.70487 1.75715,1.94996 2.29617,4.18012 2.22327,6.43478 -0.23961,2.99453 -1.344,5.88524 -3.20506,8.61325 -1.93626,3.0357 -4.46163,5.85408 -7.44524,8.47457 -0.76903,0.6705 -1.84926,1.6236 -2.65098,2.27786 -1.27434,1.03997 -2.6912,2.00315 -3.12386,3.37654 -0.56769,3.18924 0.11017,6.41882 0.0597,9.61979 0.17225,4.10839 0.34941,8.21708 0.63069,12.32282 0,0 -9.17099,-8.03573 -9.17099,-8.03573 z"
       inkscape:connector-curvature="0" />
    <path
       style="fill:#aa8800;fill-opacity:1;stroke:none"
       id="path3061"
       d="m 271.53045,513.30538 c -4.57639,-0.10254 -9.13703,0.72053 -13.55856,1.83814 -4.09822,1.17706 -8.05437,2.91588 -11.67849,5.15741 24.51929,-15.17321 3.81361,-0.41908 -5.36433,2.55107 0,0 11.80174,-9.23257 11.80174,-9.23257 l 0,0 c 0.79184,-0.33447 3.07912,-1.5232 2.33855,-1.08681 -2.24693,1.32404 -32.56774,18.8657 2.80558,-1.60709 3.77928,-2.01662 7.68871,-3.80114 11.8834,-4.77089 4.56402,-1.00679 9.21189,-1.71294 13.89877,-1.65979 0,0 -12.12666,8.81053 -12.12666,8.81053 z"
       inkscape:connector-curvature="0" />
    <path
       style="fill:#aa8800;fill-opacity:1;stroke:none"
       id="path3063"
       d="m 149.68241,652.34879 c 3.98046,0.86244 7.9388,1.81751 11.85687,2.93044 4.53779,1.67523 9.20966,2.86449 13.91575,3.94978 5.69898,1.2491 11.53098,1.59378 17.34407,1.80735 4.57194,0.12771 9.13425,0.25604 13.68219,-0.2684 2.57417,-0.20704 5.06815,-0.65532 7.33701,-1.91932 -12.15909,6.93411 -15.60479,9.28344 -10.90857,6.12644 0,0 13.914,-5.5969 13.914,-5.5969 l 0,0 c -4.69314,4.53611 -0.51087,0.62841 -14.74251,8.8041 -2.43477,0.92845 -4.98981,1.28448 -7.58226,1.4702 -4.55368,0.36146 -9.11918,0.14017 -13.67992,0.0132 -5.875,-0.26555 -11.75935,-0.71781 -17.5093,-2.02439 -4.74684,-1.08356 -9.42756,-2.37375 -14.0369,-3.94907 -3.93806,-1.07379 -7.89655,-2.07389 -11.91727,-2.79287 0,0 12.32684,-8.55052 12.32684,-8.55052 z"
       inkscape:connector-curvature="0" />
    <path
       style="fill:#aa8800;fill-opacity:1;stroke:none"
       id="path3065"
       d="m 354.93298,487.73935 c 4.30475,3.65146 7.96766,7.97334 11.70657,12.18197 2.93877,3.42393 5.53609,7.11178 8.75589,10.28439 2.34403,2.03434 5.33974,2.87959 8.14501,4.04704 2.4391,1.25045 5.10693,2.0847 7.77406,2.70347 1.45505,0.28856 2.9324,0.4133 4.40792,0.53657 0,0 -12.18688,8.67035 -12.18688,8.67035 l 0,0 c -1.52093,-0.1762 -3.04422,-0.35336 -4.53476,-0.71847 -2.70709,-0.73934 -5.39219,-1.61551 -7.9106,-2.86631 -2.97462,-1.20035 -6.0015,-2.3628 -8.38669,-4.5963 -3.18543,-3.23981 -5.78928,-6.94935 -8.70767,-10.42236 -3.67302,-4.20667 -7.3194,-8.51226 -11.76889,-11.93101 0,0 12.70604,-7.88934 12.70604,-7.88934 z"
       inkscape:connector-curvature="0" />
    <path
       style="fill:#aa8800;fill-opacity:1;stroke:none"
       id="path3067"
       d="m 190.93704,585.66943 c -3.87824,3.64378 -8.03776,6.97424 -12.3702,10.05906 -7.66252,5.19658 -15.37136,11.0041 -24.49085,13.12406 -3.10605,0.61841 -6.20728,0.48125 -9.32471,0.11724 -3.55925,-0.8578 -7.08447,-1.76967 -10.71302,-2.30853 -1.39282,-0.1988 -2.79632,-0.28647 -4.19957,-0.36643 0,0 12.18229,-8.71539 12.18229,-8.71539 l 0,0 c 1.41462,0.12672 2.82885,0.26323 4.22953,0.50619 3.58555,0.63241 7.08295,1.63797 10.67151,2.22962 3.01744,0.26384 6.04712,0.20179 9.00275,-0.54208 1.40844,-0.40964 1.9082,-0.51258 3.29891,-1.10341 0.63634,-0.27034 2.46659,-1.2442 1.87589,-0.88492 -20.39542,12.40488 -10.58556,6.33482 -6.28978,3.35985 4.3194,-2.95118 8.43588,-6.18303 12.27736,-9.73845 0,0 13.84989,-5.73681 13.84989,-5.73681 z"
       inkscape:connector-curvature="0" />
    <path
       style="fill:#aa8800;fill-opacity:1;stroke:none"
       id="path3069"
       d="m 147.94209,625.4082 c 5.8265,2.79624 11.89018,4.99665 18.11647,6.70353 4.03691,1.04417 8.16952,1.57477 12.32914,1.72362 1.98472,-0.0231 3.70895,-0.69921 5.35286,-1.74636 0,0 -11.67922,9.36762 -11.67922,9.36762 l 0,0 c -1.86876,0.76477 -3.76964,1.24597 -5.81374,1.10382 -4.17427,-0.28021 -8.30008,-1.00505 -12.33183,-2.13224 -6.25907,-1.85768 -12.32742,-4.20644 -18.37716,-6.65321 0,0 12.40348,-8.36678 12.40348,-8.36678 z"
       inkscape:connector-curvature="0" />
    <path
       style="fill:#aa8800;fill-opacity:1;stroke:none"
       id="path3071"
       d="m 260.74127,555.30961 c -4.09847,5.11803 -3.79854,8.67499 -2.73367,14.86807 1.76164,6.84164 5.61017,12.82995 8.69312,19.11412 0.72631,1.74266 2.44517,6.12068 0.0915,7.53836 -4.68486,2.82173 -9.53533,5.3589 -14.303,8.03835 -1.91421,0.4754 -3.82486,0.95425 -5.72764,1.47376 0,0 11.78789,-9.05142 11.78789,-9.05142 l 0,0 c 1.89823,-0.51261 3.82291,-0.96133 5.65637,-1.68344 -3.77933,2.25509 -7.60304,4.43744 -11.338,6.76528 -0.10325,0.0644 1.30677,-0.0837 1.72026,-1.14173 0.58215,-1.48966 -0.35397,-3.28775 -0.75982,-4.64524 -2.96868,-6.48427 -6.8256,-12.59394 -8.75882,-19.51014 -0.64838,-3.19028 -1.48121,-6.5935 -0.87677,-9.87829 0.40142,-2.18152 1.69299,-4.13269 2.73299,-6.04039 0,0 13.81564,-5.84729 13.81564,-5.84729 z"
       inkscape:connector-curvature="0" />
    <path
       style="fill:#aa8800;fill-opacity:1;stroke:none"
       id="path3073"
       d="m 208.35108,564.83385 c 3.56808,1.80453 7.29213,3.41996 10.50153,5.83099 2.64168,2.55148 2.7687,5.98468 2.94188,9.43338 0.17122,4.08967 -0.0663,8.1884 0.15412,12.27462 0.0181,2.55586 1.0816,4.32607 3.34356,5.4332 1.54477,0.57608 3.19904,0.62049 4.82662,0.66794 0,0 -12.19483,8.75854 -12.19483,8.75854 l 0,0 c -1.80119,-0.14307 -3.60294,-0.3649 -5.21653,-1.24771 -2.44747,-1.57836 -3.96528,-3.75289 -4.00492,-6.76158 -0.27331,-4.09532 0.0687,-8.20571 -0.13162,-12.30673 -0.1362,-2.94643 -0.0425,-6.0831 -2.34148,-8.25899 -3.16349,-2.31817 -6.7819,-3.96775 -10.3648,-5.52648 0,0 12.48647,-8.29718 12.48647,-8.29718 z"
       inkscape:connector-curvature="0" />
    <path
       style="fill:#aa8800;fill-opacity:1;stroke:none"
       id="path3075"
       d="m 309.46524,537.5404 c 4.47497,1.96778 8.8325,4.16981 13.10125,6.54991 4.0764,2.36768 7.65413,5.47002 11.36049,8.36009 3.88463,2.45011 6.94799,5.82545 10.17858,9.0155 1.72364,2.08518 3.00596,4.36867 5.39398,5.75676 2.50255,0.97382 5.33697,1.0117 7.98463,0.80056 0,0 -12.03519,8.82753 -12.03519,8.82753 l 0,0 c -2.90623,0.0376 -5.97452,-0.053 -8.56525,-1.52168 -2.32424,-1.6264 -3.77304,-3.87554 -5.49624,-6.08082 -3.10771,-3.22668 -6.18498,-6.46158 -10.00192,-8.89411 -3.66238,-2.82694 -7.19132,-5.87299 -11.22382,-8.17413 -4.26692,-2.33111 -8.58226,-4.58306 -13.13913,-6.30376 0,0 12.44262,-8.33585 12.44262,-8.33585 z"
       inkscape:connector-curvature="0" />
    <path
       style="fill:#aa8800;fill-opacity:1;stroke:none"
       id="path3077"
       d="m 310.1298,634.90072 c -3.97844,0.82508 -7.99605,1.0398 -11.98842,0.27509 -3.68978,-0.80321 -6.84985,-2.62132 -9.79921,-4.91064 -2.81406,-2.30324 -4.53126,-5.49729 -6.20978,-8.65287 -0.84306,-1.98203 -1.73121,-3.92988 -2.33122,-6.00175 0,0 13.18488,-7.16855 13.18488,-7.16855 l 0,0 c 0.51219,1.99122 1.34404,3.85075 2.12224,5.74942 1.53891,2.9844 3.12499,6.01013 5.83196,8.11002 2.84482,2.07943 5.87441,3.71496 9.39662,4.31175 3.93853,0.5241 7.87961,0.1718 11.73416,-0.79374 0,0 -11.94123,9.08127 -11.94123,9.08127 z"
       inkscape:connector-curvature="0" />
    <path
       style="fill:#aa8800;fill-opacity:1;stroke:none"
       id="path3079"
       d="m 323.63902,589.23271 c 4.45999,2.2412 9.06389,4.24967 13.72204,6.04907 4.15591,2.02786 8.56369,3.19219 13.11746,3.85308 3.01854,0.36254 4.96624,0.72945 7.63097,-0.94842 -21.90052,12.08289 -14.03045,8.90765 -10.20867,5.4118 1.0448,-0.95569 2.04064,-1.92809 3.128,-2.83894 5.59894,-4.06438 1.37337,-1.06381 15.33722,-9.05543 0.95411,-0.54604 2.15641,-1.11343 3.19175,-1.46835 1.47015,-0.50398 2.5088,-0.67353 4.0322,-0.9956 3.02934,-0.42425 1.50251,-0.24213 4.58077,-0.54426 0,0 -11.90705,8.85698 -11.90705,8.85698 l 0,0 c -3.02644,0.38638 -1.52875,0.14977 -4.49352,0.70682 -1.946,0.52237 -3.73707,1.10287 -5.53791,2.01861 -0.50832,0.25849 -1.99544,1.10457 -1.50434,0.81471 14.47881,-8.54592 14.95423,-8.85678 10.17146,-5.89125 -6.45865,4.81482 -8.2829,10.01619 -18.53155,12.33277 -2.67402,0.89738 -5.32898,0.67231 -8.07936,0.15871 -4.58483,-0.83369 -9.00154,-2.17773 -13.23,-4.16294 -4.69121,-1.90231 -9.33439,-3.93715 -13.92538,-6.06892 0,0 12.50591,-8.22844 12.50591,-8.22844 z"
       inkscape:connector-curvature="0" />
    <path
       style="fill:#aa8800;fill-opacity:1;stroke:none"
       id="path3081"
       d="m 245.35591,634.88319 c -6.86099,1.2848 -13.72813,2.5554 -20.55253,4.02791 -5.39511,1.23405 -10.63889,2.99363 -15.78953,4.99611 -2.54133,0.93704 -5.1199,1.94601 -7.79923,1.1465 -2.67586,-1.12466 -5.03769,-2.83434 -7.36084,-4.55043 -1.72084,-1.16354 -0.90279,-0.52279 -2.45255,-1.92427 0,0 12.69955,-7.89232 12.69955,-7.89232 l 0,0 c 1.46203,1.25297 0.67953,0.64175 2.35867,1.81925 2.18683,1.57115 4.4372,3.22396 7.06578,3.95309 2.50788,0.15205 4.87671,-0.92003 7.20135,-1.73204 5.12782,-1.9195 10.38261,-3.49404 15.73416,-4.66314 6.94067,-1.44385 13.91295,-2.7299 20.84299,-4.22688 0,0 -11.94782,9.04622 -11.94782,9.04622 z"
       inkscape:connector-curvature="0" />
    <path
       style="fill:#aa8800;fill-opacity:1;stroke:none"
       id="path3083"
       d="m 239.76031,532.96004 c 4.73431,0.48181 9.49226,0.66063 14.24737,0.77752 3.65738,-0.0481 7.21142,-0.91283 10.58536,-2.27743 0.42906,-0.16371 0.86534,-0.3096 1.28717,-0.49111 0.78181,-0.3364 1.55402,-0.69517 2.32172,-1.06266 0.36348,-0.174 1.41741,-0.76717 1.06833,-0.56586 -3.92414,2.26299 -15.68889,9.06436 -11.7941,6.75124 4.58351,-2.72216 9.24031,-5.31897 13.86046,-7.97846 2.24651,-1.18971 4.69581,-1.72527 7.14353,-2.30407 2.41803,-0.61266 4.92312,-0.65939 7.35814,-1.15552 0,0 -11.95552,9.00066 -11.95552,9.00066 l 0,0 c -2.44197,0.34349 -4.90512,0.58546 -7.29231,1.23758 -2.40658,0.61003 -4.76468,1.37007 -6.91675,2.64207 3.93088,-2.27275 15.77127,-9.00632 11.79263,-6.81826 -6.24975,3.43708 -11.93649,7.62455 -18.65547,9.95183 -3.50616,1.14856 -7.12173,1.88636 -10.83502,1.75665 -4.80732,-0.17022 -9.61079,-0.40801 -14.4077,-0.77383 0,0 12.19216,-8.69035 12.19216,-8.69035 z"
       inkscape:connector-curvature="0" />
    <path
       style="fill:#aa8800;fill-opacity:1;stroke:none"
       id="path3085"
       d="m 336.20096,518.99463 c -2.51184,-0.32329 -5.93645,-1.69679 -8.42756,-1.03629 -0.4721,0.12517 -0.89285,0.39621 -1.33928,0.59432 -5.33501,3.47398 1.47508,-0.99756 10.41941,-5.78192 0.36478,-0.19512 -0.6327,0.53646 -0.91244,0.84121 -0.77777,0.84732 -1.27216,1.89227 -1.7755,2.9106 -2.7928,6.59658 -10.14556,10.46493 -17.14735,11.7208 -2.96915,0.31037 -5.96187,0.24535 -8.94293,0.24326 -2.60098,-0.006 -5.20194,-0.0144 -7.80292,-0.0185 -1.04678,-0.001 -2.09356,-0.002 -3.14033,-0.002 0,0 12.1479,-8.82319 12.1479,-8.82319 l 0,0 c 1.04455,0.003 2.08911,0.005 3.13365,0.0118 2.58076,0.0165 5.16143,0.0461 7.74224,0.0532 2.92092,-0.009 5.90214,0.0839 8.75853,-0.61227 5.2795,-2.07404 1.12959,-0.50296 -10.95408,6.65824 -0.25993,0.15404 0.54721,-0.26392 0.7917,-0.44146 0.87574,-0.63596 1.38008,-1.56728 1.77814,-2.54771 3.12288,-7.75642 8.7907,-9.9273 17.73541,-13.3471 3.57136,-0.63573 6.75034,0.41928 10.26225,1.0269 0,0 -12.32684,8.55052 -12.32684,8.55052 z"
       inkscape:connector-curvature="0" />
    <path
       style="fill:#aa8800;fill-opacity:1;stroke:none"
       id="path3087"
       d="m 301.3949,496.83073 c 5.01556,4.33361 10.63101,7.81533 16.6871,10.47387 4.93652,1.74347 10.18868,3.42782 15.47523,2.76545 0,0 -11.99862,8.84571 -11.99862,8.84571 l 0,0 c -5.41445,0.0921 -10.69157,-1.54058 -15.68805,-3.50535 -6.15862,-2.84162 -11.86609,-6.47138 -17.18171,-10.69035 0,0 12.70605,-7.88933 12.70605,-7.88933 z"
       inkscape:connector-curvature="0" />
    <path
       style="fill:#aa8800;fill-opacity:1;stroke:none"
       id="path3089"
       d="m 336.40447,626.01639 c 6.00321,-2.70132 11.94244,-5.53498 17.88197,-8.37212 4.71121,-2.34043 9.29627,-4.97107 14.35295,-6.4989 1.84774,-0.40967 0.94489,-0.24546 2.70634,-0.50456 0,0 -11.96297,9.02012 -11.96297,9.02012 l 0,0 c -1.65319,0.35314 -0.80605,0.14524 -2.53888,0.63404 -4.86936,1.69987 -9.36494,4.23843 -14.00084,6.4705 -6.04187,2.89658 -12.09048,5.78246 -18.21142,8.50863 0,0 11.77285,-9.25771 11.77285,-9.25771 z"
       inkscape:connector-curvature="0" />
    <path
       style="fill:#aa8800;fill-opacity:1;stroke:none"
       id="path3091"
       d="m 371.7491,637.93118 c -4.10237,0.82193 -8.14475,1.99094 -12.1161,3.30629 -5.14893,1.84742 -10.20697,3.92434 -15.22077,6.11137 -4.60601,2.12236 -9.33622,3.95819 -13.93423,6.09734 -2.17552,0.94801 -1.11197,0.51851 -3.18614,1.29958 0,0 11.74893,-9.22746 11.74893,-9.22746 l 0,0 c 1.99436,-0.81806 0.965,-0.38113 3.08558,-1.31667 4.61401,-2.03292 9.27954,-3.94675 13.87668,-6.01841 5.06033,-2.16335 10.15424,-4.25096 15.36147,-6.03899 4.06125,-1.26281 8.16449,-2.40879 12.32582,-3.29433 0,0 -11.94124,9.08128 -11.94124,9.08128 z"
       inkscape:connector-curvature="0" />
  </g>
</svg>
