<?xml version="1.0" encoding="UTF-8" standalone="no"?>
<!-- Created with Inkscape (http://www.inkscape.org/) -->

<svg
   xmlns:dc="http://purl.org/dc/elements/1.1/"
   xmlns:cc="http://creativecommons.org/ns#"
   xmlns:rdf="http://www.w3.org/1999/02/22-rdf-syntax-ns#"
   xmlns:svg="http://www.w3.org/2000/svg"
   xmlns="http://www.w3.org/2000/svg"
   xmlns:sodipodi="http://sodipodi.sourceforge.net/DTD/sodipodi-0.dtd"
   xmlns:inkscape="http://www.inkscape.org/namespaces/inkscape"
   width="744.09448819"
   height="1052.3622047"
   id="svg6931"
   version="1.1"
   inkscape:version="0.48.5 r10040"
   sodipodi:docname="New document 34">
  <defs
     id="defs6933" />
  <sodipodi:namedview
     id="base"
     pagecolor="#ffffff"
     bordercolor="#666666"
     borderopacity="1.0"
     inkscape:pageopacity="0.0"
     inkscape:pageshadow="2"
     inkscape:zoom="2"
     inkscape:cx="422.73139"
     inkscape:cy="440"
     inkscape:document-units="px"
     inkscape:current-layer="layer7"
     showgrid="false"
     inkscape:window-width="1920"
     inkscape:window-height="1017"
     inkscape:window-x="-8"
     inkscape:window-y="-8"
     inkscape:window-maximized="1" />
  <metadata
     id="metadata6936">
    <rdf:RDF>
      <cc:Work
         rdf:about="">
        <dc:format>image/svg+xml</dc:format>
        <dc:type
           rdf:resource="http://purl.org/dc/dcmitype/StillImage" />
        <dc:title></dc:title>
      </cc:Work>
    </rdf:RDF>
  </metadata>
  <g
     inkscape:groupmode="layer"
     id="layer6"
     inkscape:label="legs">
    <path
       sodipodi:type="arc"
       style="fill:#535d6c;fill-opacity:1;fill-rule:nonzero;stroke:none"
       id="path7562"
       sodipodi:cx="539.25"
       sodipodi:cy="588.11218"
       sodipodi:rx="32.75"
       sodipodi:ry="18.25"
       d="m 506.5,588.11218 a 32.75,18.25 0 1 1 0.0419,0.92301"
       sodipodi:start="3.1415927"
       sodipodi:end="9.3741809"
       sodipodi:open="true"
       transform="translate(2,2.5)" />
    <path
       sodipodi:type="arc"
       style="fill:#535d6c;fill-opacity:1;fill-rule:nonzero;stroke:none"
       id="path7562-5"
       sodipodi:cx="539.25"
       sodipodi:cy="588.11218"
       sodipodi:rx="32.75"
       sodipodi:ry="18.25"
       d="m 506.5,588.11218 a 32.75,18.25 0 1 1 0.0419,0.92301"
       sodipodi:start="3.1415927"
       sodipodi:end="9.3741809"
       sodipodi:open="true"
       transform="matrix(0.03812408,-1.1900907,0.99927302,0.04540412,-84.742991,1231.1666)" />
    <path
       sodipodi:type="arc"
       style="fill:#535d6c;fill-opacity:1;fill-rule:nonzero;stroke:none"
       id="path7562-5-8"
       sodipodi:cx="539.25"
       sodipodi:cy="588.11218"
       sodipodi:rx="32.75"
       sodipodi:ry="18.25"
       d="m 506.5,588.11218 a 32.75,18.25 0 1 1 0.0419,0.92301"
       sodipodi:start="3.1415927"
       sodipodi:end="9.3741809"
       sodipodi:open="true"
       transform="matrix(0.03812408,-1.2053561,0.99927302,0.04598652,-45.743047,1241.5598)"
       inkscape:transform-center-x="-21"
       inkscape:transform-center-y="30.155844" />
  </g>
  <g
     inkscape:label="Layer 1"
     inkscape:groupmode="layer"
     id="layer1">
    <rect
       style="fill:#535d6c;fill-opacity:1;stroke:none;filter:url(#filter8300)"
       id="rect8096"
       width="53.5"
       height="49.5"
       x="512.72357"
       y="531.0611"
       rx="21.9359"
       ry="21" />
    <rect
       style="fill:#ff9955;fill-opacity:1;stroke:none;filter:url(#filter8300)"
       id="rect8130"
       width="25.5"
       height="32.5"
       x="527.72357"
       y="512.8111"
       rx="18.044046"
       ry="7" />
    <path
       style="fill:#535d6c;fill-opacity:1;stroke:none;filter:url(#filter8300)"
       id="path7426-7"
       sodipodi:type="arc"
       sodipodi:cx="-368.55856"
       sodipodi:cy="382.89886"
       sodipodi:rx="17.897827"
       sodipodi:ry="19.548832"
       sodipodi:start="3.1415927"
       sodipodi:end="9.3741809"
       sodipodi:open="true"
       d="m -386.45639,382.89886 a 17.897827,19.548832 0 1 1 0.0229,0.9887"
       transform="matrix(-0.99999998,0,0,0.99999998,206.22356,154.69885)" />
    <path
       transform="translate(206.22356,154.69885)"
       style="fill:#ff9955;fill-opacity:1;stroke:none"
       id="path7136"
       sodipodi:type="arc"
       sodipodi:cx="334.07947"
       sodipodi:cy="327.50504"
       sodipodi:rx="29"
       sodipodi:ry="41.5"
       sodipodi:start="3.1415927"
       sodipodi:end="9.3741765"
       sodipodi:open="true"
       d="m 305.07947,327.50503 a 29,41.5 0 1 1 0.0371,2.09907" />
    <path
       transform="translate(206.22356,154.69885)"
       style="fill:#ffffff;fill-opacity:1;stroke:none"
       id="path7254-7-9"
       sodipodi:type="arc"
       sodipodi:cx="317.97778"
       sodipodi:cy="328.84824"
       sodipodi:rx="7"
       sodipodi:ry="9.5"
       sodipodi:start="3.1415927"
       sodipodi:end="9.3741809"
       sodipodi:open="true"
       d="m 310.97778,328.84824 a 7,9.5 0 1 1 0.009,0.48046" />
    <path
       transform="translate(206.22356,154.69885)"
       style="fill:#ffcc00;fill-opacity:1;stroke:none"
       id="path7271-3-2-9"
       sodipodi:type="arc"
       sodipodi:cx="316.26086"
       sodipodi:cy="325.58481"
       sodipodi:rx="5"
       sodipodi:ry="6.5"
       sodipodi:start="3.1415927"
       sodipodi:end="9.3741809"
       sodipodi:open="true"
       d="m 311.26086,325.58481 a 5,6.5 0 1 1 0.006,0.32874" />
    <path
       transform="translate(206.22356,154.69885)"
       style="fill:#1c241f;fill-opacity:1;stroke:none"
       id="path7271-3-6-3-3"
       sodipodi:type="arc"
       sodipodi:cx="315.60474"
       sodipodi:cy="324.02756"
       sodipodi:rx="4.0815363"
       sodipodi:ry="5.0553069"
       sodipodi:start="3.1415927"
       sodipodi:end="9.3741809"
       sodipodi:open="true"
       d="m 311.5232,324.02756 a 4.0815363,5.0553069 0 1 1 0.005,0.25567" />
    <path
       transform="translate(206.22356,154.69885)"
       style="fill:#ffffff;fill-opacity:1;stroke:none"
       id="path7351-7-1"
       sodipodi:type="arc"
       sodipodi:cx="316.88074"
       sodipodi:cy="322.66287"
       sodipodi:rx="1.5909903"
       sodipodi:ry="1.9445436"
       sodipodi:start="3.1415927"
       sodipodi:end="9.3741809"
       sodipodi:open="true"
       d="m 315.28975,322.66287 a 1.5909903,1.9445436 0 1 1 0.002,0.0983" />
    <path
       style="fill:#552200;fill-opacity:1;stroke:none"
       id="path7394"
       d="m 533.34815,492.81525 c -0.7706,0.62253 -1.319,1.41821 -1.6716,2.33579 -0.2363,0.60369 -0.497,1.20697 -0.5196,1.86269 -9e-4,0.33739 0.099,0.53458 0.3835,0.69935 0,0 -2.9613,1.88134 -2.9613,1.88134 l 0,0 c -0.3233,-0.26694 -0.5275,-0.54869 -0.5422,-0.98573 -0.036,-0.69508 0.1949,-1.35441 0.4803,-1.98131 0.3157,-0.96389 0.8277,-1.816 1.5863,-2.50251 0,0 3.2446,-1.30962 3.2446,-1.30962 z"
       inkscape:connector-curvature="0" />
    <path
       style="fill:#652e09;fill-opacity:1;stroke:none"
       id="path7396"
       d="m 536.91485,508.14046 c 1.0756,0.0133 2.1514,0.008 3.2271,0.005 0.7952,-0.002 1.5904,-0.003 2.3856,-0.004 0.4595,-2e-4 0.2408,0.0242 0.6573,-0.0628 0,0 -2.8041,2.09559 -2.8041,2.09559 l 0,0 c -0.4428,0.03 -0.2158,0.022 -0.6811,0.0218 -0.7915,-5.5e-4 -1.5831,-0.002 -2.3746,-0.004 -1.0801,-0.003 -2.1602,-0.008 -3.2402,0.005 0,0 2.83,-2.0561 2.83,-2.0561 z"
       inkscape:connector-curvature="0" />
    <path
       transform="translate(206.22356,154.69885)"
       style="fill:#939dac;fill-opacity:1;stroke:none"
       id="path7424"
       sodipodi:type="arc"
       sodipodi:cx="333.71094"
       sodipodi:cy="380.27902"
       sodipodi:rx="24.57196"
       sodipodi:ry="11.667262"
       sodipodi:start="3.1415927"
       sodipodi:end="9.3741809"
       sodipodi:open="true"
       d="m 309.13898,380.27902 a 24.57196,11.667262 0 1 1 0.0314,0.59008" />
    <path
       transform="translate(206.22356,154.69885)"
       style="fill:#535d6c;fill-opacity:1;stroke:none"
       id="path7426"
       sodipodi:type="arc"
       sodipodi:cx="298.99432"
       sodipodi:cy="381.38672"
       sodipodi:rx="17.897827"
       sodipodi:ry="19.548832"
       sodipodi:start="3.1415927"
       sodipodi:end="9.3741809"
       sodipodi:open="true"
       d="m 281.0965,381.38672 a 17.897827,19.548832 0 1 1 0.0229,0.98869" />
    <path
       transform="translate(206.22356,154.69885)"
       style="fill:#ffffff;fill-opacity:1;stroke:none"
       id="path7254-7-9-3"
       sodipodi:type="arc"
       sodipodi:cx="338.64645"
       sodipodi:cy="328.37341"
       sodipodi:rx="7"
       sodipodi:ry="9.5"
       sodipodi:start="3.1415927"
       sodipodi:end="9.3741809"
       sodipodi:open="true"
       d="m 331.64645,328.37341 a 7,9.5 0 1 1 0.009,0.48047" />
    <path
       transform="translate(206.22356,154.69885)"
       style="fill:#ffcc00;fill-opacity:1;stroke:none"
       id="path7271-3-2-9-3"
       sodipodi:type="arc"
       sodipodi:cx="337.28308"
       sodipodi:cy="325.28677"
       sodipodi:rx="5"
       sodipodi:ry="6.5"
       sodipodi:start="3.1415927"
       sodipodi:end="9.3741809"
       sodipodi:open="true"
       d="m 332.28308,325.28677 a 5,6.5 0 1 1 0.006,0.32874" />
    <path
       transform="translate(206.22356,154.69885)"
       style="fill:#1c241f;fill-opacity:1;stroke:none"
       id="path7271-3-6-3-3-0"
       sodipodi:type="arc"
       sodipodi:cx="336.62695"
       sodipodi:cy="323.72952"
       sodipodi:rx="4.0815363"
       sodipodi:ry="5.0553069"
       sodipodi:start="3.1415927"
       sodipodi:end="9.3741809"
       sodipodi:open="true"
       d="m 332.54542,323.72952 a 4.0815363,5.0553069 0 1 1 0.005,0.25568" />
    <path
       transform="translate(206.22356,154.69885)"
       style="fill:#ffffff;fill-opacity:1;stroke:none"
       id="path7351-7-1-5"
       sodipodi:type="arc"
       sodipodi:cx="337.90295"
       sodipodi:cy="322.36484"
       sodipodi:rx="1.5909903"
       sodipodi:ry="1.9445436"
       sodipodi:start="3.1415927"
       sodipodi:end="9.3741809"
       sodipodi:open="true"
       d="m 336.31196,322.36484 a 1.5909903,1.9445436 0 1 1 0.002,0.0983" />
    <path
       sodipodi:type="arc"
       style="fill:#939dac;fill-opacity:1;fill-rule:nonzero;stroke:none"
       id="path7049"
       sodipodi:cx="520.75"
       sodipodi:cy="456.86218"
       sodipodi:rx="60.75"
       sodipodi:ry="29.5"
       d="m 460,456.86218 a 60.75,29.5 0 1 1 63.75646,29.46386 L 520.75,456.86218 z"
       sodipodi:start="3.1415927"
       sodipodi:end="7.8044723"
       transform="matrix(0.7489712,0,0,1.2798325,163.47325,-111.58981)" />
    <path
       transform="translate(209.72355,155.94942)"
       style="fill:#b7bec8;fill-opacity:1;stroke:none"
       id="path7424-7"
       sodipodi:type="arc"
       sodipodi:cx="333.71094"
       sodipodi:cy="380.27902"
       sodipodi:rx="24.57196"
       sodipodi:ry="11.667262"
       sodipodi:start="3.1415927"
       sodipodi:end="9.3741809"
       sodipodi:open="true"
       d="m 309.13898,380.27902 a 24.57196,11.667262 0 1 1 0.0314,0.59008" />
    <path
       sodipodi:type="arc"
       style="fill:#b7bec8;fill-opacity:1;fill-rule:nonzero;stroke:none"
       id="path7049-7"
       sodipodi:cx="520.75"
       sodipodi:cy="456.86218"
       sodipodi:rx="60.75"
       sodipodi:ry="29.5"
       d="m 460,456.86218 a 60.75,29.5 0 1 1 63.75646,29.46386 L 520.75,456.86218 z"
       sodipodi:start="3.1415927"
       sodipodi:end="7.8044723"
       transform="matrix(0.69958848,0,0,1.2119943,191.6893,-80.83029)" />
    <path
       style="fill:#535d6c;fill-opacity:1;stroke:none"
       d="m 504.0143,444.57411 -5.55237,26.28991 61.07614,3.28623 z"
       id="path7051"
       inkscape:connector-curvature="0" />
    <path
       style="fill:#6f7c91;fill-opacity:1;stroke:none"
       d="m 506.28703,447.57411 -4.8251,23.1788 53.07614,2.89734 z"
       id="path7051-2"
       inkscape:connector-curvature="0" />
  </g>
  <g
     inkscape:groupmode="layer"
     id="layer7"
     inkscape:label="feath">
    <path
       sodipodi:type="arc"
       style="fill:#aa0000;fill-opacity:1;fill-rule:nonzero;stroke:none"
       id="path7888"
       sodipodi:cx="592.25"
       sodipodi:cy="426.86218"
       sodipodi:rx="16.75"
       sodipodi:ry="29"
       d="m 609,426.86218 a 16.75,29 0 1 1 -33.5,0 16.75,29 0 1 1 33.5,0 z"
       transform="matrix(0.50463731,-1.4204876,0.34930221,0.12409183,151.86649,1226.1981)"
       inkscape:transform-center-x="-1.0917994"
       inkscape:transform-center-y="-5.727773" />
    <path
       sodipodi:type="arc"
       style="fill:#6f7c91;fill-opacity:1;fill-rule:nonzero;stroke:none"
       id="path7562-5-1"
       sodipodi:cx="539.25"
       sodipodi:cy="588.11218"
       sodipodi:rx="32.75"
       sodipodi:ry="18.25"
       d="m 506.5,588.11218 a 32.75,18.25 0 1 1 0.0419,0.92301"
       sodipodi:start="3.1415927"
       sodipodi:end="9.3741809"
       sodipodi:open="true"
       transform="matrix(0.04073101,-1.2282542,1.0676035,0.04686013,-128.58478,1251.5506)" />
    <path
       sodipodi:type="arc"
       style="fill:#6f7c91;fill-opacity:1;fill-rule:nonzero;stroke:none"
       id="path7562-5-8-6"
       sodipodi:cx="539.25"
       sodipodi:cy="588.11218"
       sodipodi:rx="32.75"
       sodipodi:ry="18.25"
       d="m 506.5,588.11218 a 32.75,18.25 0 1 1 0.0419,0.92301"
       sodipodi:start="3.1415927"
       sodipodi:end="9.3741809"
       sodipodi:open="true"
       transform="matrix(0.03812408,-1.2358869,0.99927302,0.04715133,-46.743067,1258.2491)"
       inkscape:transform-center-x="-21"
       inkscape:transform-center-y="30.91966" />
    <rect
       style="fill:#ff9955;fill-opacity:1;stroke:none;filter:url(#filter8300)"
       id="rect8130-8"
       width="25.5"
       height="32.5"
       x="526.72357"
       y="514.72168"
       rx="18.044046"
       ry="7" />
    <path
       style="fill:#ff9955;fill-opacity:1;stroke:none;filter:url(#filter8300)"
       id="path8195-76"
       sodipodi:type="arc"
       sodipodi:cx="473.00934"
       sodipodi:cy="228.38586"
       sodipodi:rx="20.209837"
       sodipodi:ry="7.127542"
       sodipodi:start="3.1415927"
       sodipodi:end="9.3741809"
       sodipodi:open="true"
       d="m 452.7995,228.38586 a 20.209837,7.127542 0 1 1 0.0259,0.36048"
       transform="matrix(0.86602539,0.49999999,-0.49999999,0.86602539,205.22354,156.60941)" />
    <rect
       style="fill:#ff9955;fill-opacity:1;stroke:none;filter:url(#filter8300)"
       id="rect8239-1"
       width="15.304537"
       height="17.278891"
       x="742.58148"
       y="253.41032"
       rx="17.951593"
       ry="6.1063251"
       transform="matrix(0.8660254,0.5,-0.5,0.8660254,0,0)" />
    <path
       style="fill:#ff9955;fill-opacity:1;stroke:none;filter:url(#filter8300)"
       id="path8195-7-7"
       sodipodi:type="arc"
       sodipodi:cx="-4.6551952"
       sodipodi:cy="575.82587"
       sodipodi:rx="20.209837"
       sodipodi:ry="7.127542"
       sodipodi:start="3.1415927"
       sodipodi:end="9.3741809"
       sodipodi:open="true"
       d="m -24.865032,575.82587 a 20.209837,7.127542 0 1 1 0.02586,0.36048"
       transform="matrix(-0.76604443,0.64278759,0.64278759,0.76604443,205.22354,156.60941)" />
    <rect
       style="fill:#ff9955;fill-opacity:1;stroke:none;filter:url(#filter8300)"
       id="rect8239-6-2"
       width="15.304537"
       height="17.278891"
       x="-47.660324"
       y="819.71924"
       rx="17.951593"
       ry="6.1063251"
       transform="matrix(-0.76604445,0.6427876,0.6427876,0.76604445,0,0)" />
    <path
       style="fill:#6f7c91;fill-opacity:1;stroke:none;filter:url(#filter8300)"
       id="path7426-7-3"
       sodipodi:type="arc"
       sodipodi:cx="-368.55856"
       sodipodi:cy="382.89886"
       sodipodi:rx="17.897827"
       sodipodi:ry="19.548832"
       sodipodi:start="3.1415927"
       sodipodi:end="9.3741809"
       sodipodi:open="true"
       d="m -386.45639,382.89886 a 17.897827,19.548832 0 1 1 0.0229,0.9887"
       transform="matrix(-0.99999998,0,0,0.99999998,205.22354,156.60941)" />
    <rect
       style="fill:#939dac;fill-opacity:1;stroke:none;filter:url(#filter8300)"
       id="rect8098-1-7"
       width="15.990987"
       height="50.596256"
       x="-326.44464"
       y="746.36963"
       rx="17.538834"
       ry="17.857502"
       transform="matrix(-0.88964354,0.45665565,0.39006091,0.92078906,0,0)" />
    <path
       transform="translate(205.22354,156.60941)"
       style="fill:#939dac;fill-opacity:1;stroke:none"
       id="path7424-8"
       sodipodi:type="arc"
       sodipodi:cx="333.71094"
       sodipodi:cy="380.27902"
       sodipodi:rx="24.57196"
       sodipodi:ry="11.667262"
       sodipodi:start="3.1415927"
       sodipodi:end="9.3741809"
       sodipodi:open="true"
       d="m 309.13898,380.27902 a 24.57196,11.667262 0 1 1 0.0314,0.59008" />
    <path
       transform="translate(205.22354,156.60941)"
       style="fill:#6f7c91;fill-opacity:1;stroke:none"
       id="path7426-5"
       sodipodi:type="arc"
       sodipodi:cx="298.99432"
       sodipodi:cy="381.38672"
       sodipodi:rx="17.897827"
       sodipodi:ry="19.548832"
       sodipodi:start="3.1415927"
       sodipodi:end="9.3741809"
       sodipodi:open="true"
       d="m 281.0965,381.38672 a 17.897827,19.548832 0 1 1 0.0229,0.98869" />
    <rect
       style="fill:#939dac;fill-opacity:1;stroke:none"
       id="rect8098-8"
       width="15.990987"
       height="50.596256"
       x="668.26428"
       y="251.41193"
       rx="17.538834"
       ry="17.857502"
       transform="matrix(0.88964354,0.45665565,-0.39006091,0.92078906,0,0)" />
    <rect
       style="fill:#b7bec8;fill-opacity:1;stroke:none;filter:url(#filter8300)"
       id="rect8098-1-0-5"
       width="14.699414"
       height="48.962948"
       x="-350.89883"
       y="762.41437"
       rx="16.122244"
       ry="17.28104"
       transform="matrix(-0.87379187,0.48630008,0.36391501,0.93143216,0,0)" />
    <path
       transform="translate(208.72353,157.85998)"
       style="fill:#b7bec8;fill-opacity:1;stroke:none"
       id="path7424-7-8"
       sodipodi:type="arc"
       sodipodi:cx="333.71094"
       sodipodi:cy="380.27902"
       sodipodi:rx="24.57196"
       sodipodi:ry="11.667262"
       sodipodi:start="3.1415927"
       sodipodi:end="9.3741809"
       sodipodi:open="true"
       d="m 309.13898,380.27902 a 24.57196,11.667262 0 1 1 0.0314,0.59008" />
    <rect
       style="fill:#b7bec8;fill-opacity:1;stroke:none"
       id="rect8098-2-7"
       width="14.588441"
       height="47.592838"
       x="667.69269"
       y="238.86507"
       rx="16.000528"
       ry="16.797472"
       transform="matrix(0.88043874,0.47415992,-0.37439146,0.92727074,0,0)" />
    <path
       sodipodi:type="arc"
       style="fill:#939dac;fill-opacity:1;fill-rule:nonzero;stroke:none"
       id="path7562-5-3"
       sodipodi:cx="539.25"
       sodipodi:cy="588.11218"
       sodipodi:rx="32.75"
       sodipodi:ry="18.25"
       d="m 506.5,588.11218 a 32.75,18.25 0 1 1 0.0419,0.92301"
       sodipodi:start="3.1415927"
       sodipodi:end="9.3741809"
       sodipodi:open="true"
       transform="matrix(0.03082467,-0.91531323,0.80794771,0.03492087,26.450441,1134.0216)" />
    <path
       sodipodi:type="arc"
       style="fill:#535d6c;fill-opacity:1;fill-rule:nonzero;stroke:none"
       id="path7562-5-4"
       sodipodi:cx="539.25"
       sodipodi:cy="588.11218"
       sodipodi:rx="32.75"
       sodipodi:ry="18.25"
       d="m 506.5,588.11218 a 32.75,18.25 0 1 1 0.0419,0.92301"
       sodipodi:start="3.1415927"
       sodipodi:end="9.3741809"
       sodipodi:open="true"
       transform="matrix(-0.67862514,0.02653681,-0.02260234,-0.6440785,884.98042,1052.9531)" />
    <path
       sodipodi:type="arc"
       style="fill:#939dac;fill-opacity:1;fill-rule:nonzero;stroke:none"
       id="path7562-5-3-6"
       sodipodi:cx="539.25"
       sodipodi:cy="588.11218"
       sodipodi:rx="32.75"
       sodipodi:ry="18.25"
       d="m 506.5,588.11218 a 32.75,18.25 0 1 1 0.0419,0.92301"
       sodipodi:start="3.1415927"
       sodipodi:end="9.3741809"
       sodipodi:open="true"
       transform="matrix(0.03082467,-0.91531323,0.80794771,0.03492087,66.450441,1136.7716)" />
    <path
       sodipodi:type="arc"
       style="fill:#535d6c;fill-opacity:1;fill-rule:nonzero;stroke:none"
       id="path7562-5-4-9"
       sodipodi:cx="539.25"
       sodipodi:cy="588.11218"
       sodipodi:rx="32.75"
       sodipodi:ry="18.25"
       d="m 506.5,588.11218 a 32.75,18.25 0 1 1 0.0419,0.92301"
       sodipodi:start="3.1415927"
       sodipodi:end="9.3741809"
       sodipodi:open="true"
       transform="matrix(-0.67862514,0.02653681,-0.02260234,-0.6440785,924.47786,1054.7033)" />
    <path
       sodipodi:type="arc"
       style="fill:#b7bec8;fill-opacity:1;fill-rule:nonzero;stroke:none"
       id="path7562-5-3-8"
       sodipodi:cx="539.25"
       sodipodi:cy="588.11218"
       sodipodi:rx="32.75"
       sodipodi:ry="18.25"
       d="m 506.5,588.11218 a 32.75,18.25 0 1 1 0.0419,0.92301"
       sodipodi:start="3.1415927"
       sodipodi:end="9.3741809"
       sodipodi:open="true"
       transform="matrix(0.03082467,-0.91531323,0.80794771,0.03492087,28.923531,1135.7431)" />
    <path
       sodipodi:type="arc"
       style="fill:#6f7c91;fill-opacity:1;fill-rule:nonzero;stroke:none"
       id="path7562-5-4-5"
       sodipodi:cx="539.25"
       sodipodi:cy="588.11218"
       sodipodi:rx="32.75"
       sodipodi:ry="18.25"
       d="m 506.5,588.11218 a 32.75,18.25 0 1 1 0.0419,0.92301"
       sodipodi:start="3.1415927"
       sodipodi:end="9.3741809"
       sodipodi:open="true"
       transform="matrix(-0.67862514,0.02653681,-0.02260234,-0.6440785,887.45351,1054.6746)" />
    <path
       sodipodi:type="arc"
       style="fill:#b7bec8;fill-opacity:1;fill-rule:nonzero;stroke:none"
       id="path7562-5-3-6-6"
       sodipodi:cx="539.25"
       sodipodi:cy="588.11218"
       sodipodi:rx="32.75"
       sodipodi:ry="18.25"
       d="m 506.5,588.11218 a 32.75,18.25 0 1 1 0.0419,0.92301"
       sodipodi:start="3.1415927"
       sodipodi:end="9.3741809"
       sodipodi:open="true"
       transform="matrix(0.03082467,-0.91531323,0.80794771,0.03492087,68.923531,1138.4931)" />
    <path
       sodipodi:type="arc"
       style="fill:#6f7c91;fill-opacity:1;fill-rule:nonzero;stroke:none"
       id="path7562-5-4-9-6"
       sodipodi:cx="539.25"
       sodipodi:cy="588.11218"
       sodipodi:rx="32.75"
       sodipodi:ry="18.25"
       d="m 506.5,588.11218 a 32.75,18.25 0 1 1 0.0419,0.92301"
       sodipodi:start="3.1415927"
       sodipodi:end="9.3741809"
       sodipodi:open="true"
       transform="matrix(-0.67862514,0.02653681,-0.02260234,-0.6440785,926.95094,1056.4248)" />
  </g>
</svg>
