<?xml version="1.0" encoding="UTF-8" standalone="no"?>
<!-- Created with Inkscape (http://www.inkscape.org/) -->

<svg
   xmlns:dc="http://purl.org/dc/elements/1.1/"
   xmlns:cc="http://creativecommons.org/ns#"
   xmlns:rdf="http://www.w3.org/1999/02/22-rdf-syntax-ns#"
   xmlns:svg="http://www.w3.org/2000/svg"
   xmlns="http://www.w3.org/2000/svg"
   xmlns:sodipodi="http://sodipodi.sourceforge.net/DTD/sodipodi-0.dtd"
   xmlns:inkscape="http://www.inkscape.org/namespaces/inkscape"
   width="210mm"
   height="297mm"
   viewBox="0 0 744.09448819 1052.3622047"
   id="svg4912"
   version="1.1"
   inkscape:version="0.91 r13725"
   sodipodi:docname="logo2.svg">
  <defs
     id="defs4914" />
  <sodipodi:namedview
     id="base"
     pagecolor="#ffffff"
     bordercolor="#666666"
     borderopacity="1.0"
     inkscape:pageopacity="0.0"
     inkscape:pageshadow="2"
     inkscape:zoom="1"
     inkscape:cx="305.85714"
     inkscape:cy="545"
     inkscape:document-units="px"
     inkscape:current-layer="layer1"
     showgrid="false"
     inkscape:window-width="1920"
     inkscape:window-height="1017"
     inkscape:window-x="-8"
     inkscape:window-y="-8"
     inkscape:window-maximized="1" />
  <metadata
     id="metadata4917">
    <rdf:RDF>
      <cc:Work
         rdf:about="">
        <dc:format>image/svg+xml</dc:format>
        <dc:type
           rdf:resource="http://purl.org/dc/dcmitype/StillImage" />
        <dc:title></dc:title>
      </cc:Work>
    </rdf:RDF>
  </metadata>
  <g
     inkscape:label="Layer 1"
     inkscape:groupmode="layer"
     id="layer1">
    <path
       style="opacity:1;fill:#000000;fill-opacity:1;stroke:none;stroke-opacity:1"
       id="path4980"
       d="m 74.18297,144.47039 c -0.15151,7.62816 -0.21909,15.25974 -0.29294,22.88982 -0.14328,20.95597 0.082,41.91235 0.37739,62.8647 0,0 -6.49434,4.15441 -6.49434,4.15441 l 0,0 c 0.10384,-20.93401 0.0845,-41.87387 -0.47119,-62.79909 -0.20719,-7.4802 -0.30004,-14.96038 -0.42513,-22.44261 0,0 7.30621,-4.66723 7.30621,-4.66723 z"
       inkscape:connector-curvature="0" />
    <path
       style="opacity:1;fill:#000000;fill-opacity:1;stroke:none;stroke-opacity:1"
       id="path4982"
       d="m 72.82177,151.92234 c 4.65774,-0.2562 9.3217,-0.3027 13.98316,-0.37099 3.86602,0.12665 10.46063,-1.01438 13.65886,2.2768 0.82714,0.85119 1.35421,2.07777 2.03131,3.11665 0.51535,1.37538 1.10306,2.71169 1.54605,4.12613 1.84213,5.8819 2.67263,13.10645 2.67799,19.40228 0.002,1.9257 -0.13433,3.84771 -0.2015,5.77157 -0.80337,8.77045 -1.73087,17.65139 -4.43126,25.87918 -0.55276,1.68422 -1.15647,3.35264 -1.90115,4.91635 -0.67287,1.41292 -1.55585,2.65088 -2.33377,3.97631 -2.78712,3.24647 -2.82239,3.65287 -6.20779,6.07416 -3.41693,2.44384 -6.85237,4.85617 -10.37472,7.0522 -1.30405,0.81302 -2.7068,1.35145 -4.08001,1.95969 -2.90229,1.28551 -4.52727,1.80051 -7.42749,2.8245 0,0 6.14841,-5.93026 6.14841,-5.93026 l 0,0 c 2.89451,-1.02077 4.3897,-1.47952 7.28717,-2.80858 1.36892,-0.62791 2.64501,-2.474 4.06022,-2.03616 1.09714,0.33945 -3.87556,2.78084 -2.78026,2.43217 1.82256,-0.58017 4.94014,-4.28809 6.29588,-5.7548 0.81701,-1.28096 1.74276,-2.46391 2.45103,-3.84288 0.78863,-1.53543 1.43168,-3.18773 2.01856,-4.8592 2.83565,-8.07601 3.79517,-16.88137 4.48007,-25.58542 0.0562,-1.88468 0.17242,-3.76804 0.16872,-5.65402 -0.0121,-6.15472 -0.76766,-13.27145 -2.60281,-19.01544 -0.42534,-1.33132 -1.00554,-2.57639 -1.5083,-3.86459 -0.63414,-0.90398 -1.13614,-1.98645 -1.90242,-2.71192 -3.14464,-2.97718 -9.68929,-1.77067 -13.41829,-1.94903 -4.74,0.0839 -9.49321,0.11533 -14.21491,0.6929 0,0 6.57725,-6.1176 6.57725,-6.1176 z"
       inkscape:connector-curvature="0" />
    <path
       style="opacity:1;fill:#000000;fill-opacity:1;stroke:none;stroke-opacity:1"
       id="path4984"
       d="m 113.84408,230.08365 c 0.11651,-7.09011 -0.19207,-14.17024 -0.50047,-21.24708 -0.46864,-13.28204 -0.93489,-26.56426 -1.35689,-39.84878 -0.12649,-4.67048 -0.27174,-9.3405 -0.34407,-14.01296 -0.0357,-1.57619 0.0844,-3.18719 0.48966,-4.68371 4.46931,-6.66345 9.20417,-6.32144 14.92394,-6.45491 7.02511,0.0161 14.05012,0.0463 21.07525,0.0533 3.26426,0.0985 6.52426,-0.13046 9.785,-0.25552 1.23455,-0.0473 2.77276,-0.15226 4.02412,0.13262 0.41922,0.0954 0.81193,0.32434 1.21789,0.48652 0.27451,0.26542 0.59534,0.46911 0.82354,0.79629 0.82314,1.1801 0.70168,2.90871 0.63339,4.33306 -0.0815,1.70062 -0.29235,3.97591 -0.43189,5.62495 -1.27048,14.45268 -1.46749,29.01094 -1.72139,43.53493 -0.15959,9.70201 -0.0726,19.405 -0.004,29.10727 0.052,3.52181 0.0769,7.04377 0.0966,10.566 0.0143,1.93115 0.0287,3.86229 0.036,5.79352 0.003,0.97428 0.002,0.49088 0.003,1.45021 0,0 -7.30947,4.66941 -7.30947,4.66941 l 0,0 c 0.002,-0.96154 5.5e-4,-0.4769 0.003,-1.4539 0.006,-1.94428 0.0186,-3.8885 0.0277,-5.83276 0.0105,-3.56093 0.0205,-7.12175 0.0791,-10.68218 0.0984,-9.80602 0.30734,-19.61006 0.45259,-29.41506 0.26641,-14.44376 0.75826,-28.87911 1.24538,-43.31343 0.19428,-2.87798 0.21235,-2.81509 0.31697,-5.48283 0.0344,-0.8756 0.2756,-2.6326 -0.31226,-3.4225 -0.17448,-0.23445 -0.42434,-0.3581 -0.63651,-0.53715 -1.69873,-0.59016 -3.12161,-0.56205 -4.89529,-0.53122 -3.22397,0.056 -6.4478,0.21839 -9.67283,0.11397 -7.09301,-0.01 -14.18768,-0.0493 -21.27914,0.16601 -1.82653,0.0775 -3.69044,0.0794 -5.49897,0.46065 -0.3838,0.0809 -1.45812,0.61176 -1.13606,0.33781 4.88059,-4.1515 8.66518,-5.7234 5.65512,-4.42814 -0.11068,0.13464 -0.26499,0.22981 -0.33205,0.40392 -0.0789,0.20493 -0.0532,0.45027 -0.0834,0.67467 -0.14059,1.04415 -0.3709,2.07836 -0.31401,3.14837 -0.0626,4.74512 -0.0933,9.49107 -0.0472,14.23675 0.1189,13.30477 0.39363,26.61538 1.23192,39.8836 0.45443,6.98052 0.78254,13.96816 1.06189,20.96107 0,0 -7.30621,4.66723 -7.30621,4.66723 z"
       inkscape:connector-curvature="0" />
    <path
       style="opacity:1;fill:#000000;fill-opacity:1;stroke:none;stroke-opacity:1"
       id="path4986"
       d="m 118.2179,180.45276 c 8.7376,0.23125 17.47798,0.29129 26.21737,0.30777 12.69782,0.0299 25.38899,-0.54806 38.07558,-1.14622 0,0 -5.71564,5.2391 -5.71564,5.2391 l 0,0 c -12.70406,0.35134 -25.40684,0.76322 -38.11015,1.15409 -9.02805,0.20294 -18.05731,0.27009 -27.08517,0.4735 0,0 6.61801,-6.02824 6.61801,-6.02824 z"
       inkscape:connector-curvature="0" />
    <path
       style="opacity:1;fill:#000000;fill-opacity:1;stroke:none;stroke-opacity:1"
       id="path4988"
       d="m 212.23622,146.98716 c -0.30556,15.01699 -0.31472,30.03961 -0.33599,45.06306 0.0907,18.39641 -0.41371,36.77785 -0.67851,55.16509 0,0 -7.68675,6.3836 -7.68675,6.3836 l 0,0 c 0.44272,-18.35878 0.76436,-36.7296 0.66709,-55.10526 -0.0211,-14.83602 -0.0266,-29.67131 -0.33599,-44.50061 0,0 8.37015,-7.00588 8.37015,-7.00588 z"
       inkscape:connector-curvature="0" />
    <path
       style="opacity:1;fill:#000000;fill-opacity:1;stroke:none;stroke-opacity:1"
       id="path4990"
       d="m 187.22907,144.2362 c 8.0811,1.15568 16.19814,0.90614 24.29615,0.57439 11.91939,-0.93696 6.00991,-0.36961 17.72877,-1.69248 0,0 -6.65667,8.05618 -6.65667,8.05618 l 0,0 c -11.72622,1.2365 -5.78717,0.65182 -17.81741,1.74764 -8.4057,0.63973 -16.82778,1.1682 -25.23702,0.31401 0,0 7.68618,-8.99974 7.68618,-8.99974 z"
       inkscape:connector-curvature="0" />
    <ellipse
       style="opacity:1;fill:#000000;fill-opacity:1;stroke:none;stroke-opacity:1"
       id="path4992"
       cx="240.94928"
       cy="231.05112"
       rx="8.949275"
       ry="9.9407406" />
    <ellipse
       style="opacity:1;fill:#000000;fill-opacity:1;stroke:none;stroke-opacity:1"
       id="path4994"
       cx="269.91669"
       cy="239.86221"
       rx="27.083334"
       ry="30.5" />
    <ellipse
       style="opacity:1;fill:#000000;fill-opacity:1;stroke:none;stroke-opacity:1"
       id="path4996"
       cx="288.99274"
       cy="222.23999"
       rx="4.710145"
       ry="11.974074" />
    <ellipse
       style="opacity:1;fill:#ffffff;fill-opacity:1;stroke:none;stroke-opacity:1"
       id="path4998"
       cx="265.91302"
       cy="229.01776"
       rx="11.304348"
       ry="13.781482" />
    <ellipse
       style="opacity:1;fill:#000000;fill-opacity:1;stroke:none;stroke-opacity:1"
       id="path5000"
       cx="261.67392"
       cy="222.46591"
       rx="6.1231885"
       ry="5.874074" />
    <path
       style="opacity:1;fill:#000000;fill-opacity:1;stroke:none;stroke-opacity:1"
       id="path5002"
       d="m 339.83504,147.71805 c 0.92393,15.93901 1.48717,31.91558 1.76329,47.90253 0.30841,21.00809 0.72862,42.01379 0.86067,63.02623 0.0244,2.51617 0.0489,5.03233 0.0734,7.54851 0,0 -7.6754,5.61441 -7.6754,5.61441 l 0,0 c 0.01,-2.54013 0.0192,-5.08026 0.0289,-7.62039 -0.0538,-21.05169 -0.006,-42.11118 -0.63541,-63.1489 -0.56681,-15.75596 -0.90555,-31.59184 -2.50793,-47.21812 0,0 8.09252,-6.10427 8.09252,-6.10427 z"
       inkscape:connector-curvature="0" />
    <path
       style="opacity:1;fill:#000000;fill-opacity:1;stroke:none;stroke-opacity:1"
       id="path5004"
       d="m 340.15763,156.23411 c 11.96014,1.64775 23.98482,2.15844 35.99609,2.58232 7.45929,0.25308 14.92058,0.32653 22.38187,0.3318 0,0 -8.26685,8.11306 -8.26685,8.11306 l 0,0 c -7.35014,-0.2099 -14.70064,-0.40467 -22.04951,-0.68795 -12.24358,-0.52956 -24.48366,-1.14797 -36.7196,-1.94184 0,0 8.658,-8.39739 8.658,-8.39739 z"
       inkscape:connector-curvature="0" />
    <path
       style="opacity:1;fill:#000000;fill-opacity:1;stroke:none;stroke-opacity:1"
       id="path5006"
       d="m 390.68335,158.82155 c -0.17647,7.28222 -0.22658,14.56644 -0.39782,21.84928 -0.18584,6.73929 -0.23839,13.48151 -0.26003,20.22368 -0.0678,3.54274 0.0402,7.08931 -0.0848,10.62998 -0.0293,0.46576 -0.0584,0.93152 -0.0876,1.39729 0,0 -8.30025,4.80411 -8.30025,4.80411 l 0,0 c 0.0399,-0.45983 0.0798,-0.91967 0.11968,-1.3795 0.21906,-3.53402 0.0417,-7.08497 0.15646,-10.62508 0.17718,-6.80372 0.4361,-13.60455 0.55999,-20.41023 0.14896,-7.18676 0.23259,-14.37634 -0.0389,-21.56141 0,0 8.33332,-4.92812 8.33332,-4.92812 z"
       inkscape:connector-curvature="0" />
    <path
       style="opacity:1;fill:#000000;fill-opacity:1;stroke:none;stroke-opacity:1"
       id="path5008"
       d="m 346.16356,212.06602 c 3.91356,5.79269 8.63477,11.01668 13.3269,16.23269 8.10542,9.01038 16.51767,17.58277 25.14194,26.13599 9.40656,8.92402 4.9242,4.70975 13.43546,12.6541 0,0 -8.77117,5.12843 -8.77117,5.12843 l 0,0 c -8.155,-8.17082 -3.83487,-3.85359 -12.96476,-12.94769 -8.54148,-8.61512 -17.00308,-17.28152 -25.38377,-26.03918 -4.92615,-5.14774 -9.97934,-10.19981 -14.51012,-15.67925 0,0 9.72552,-5.48509 9.72552,-5.48509 z"
       inkscape:connector-curvature="0" />
    <path
       style="opacity:1;fill:#000000;fill-opacity:1;stroke:none;stroke-opacity:1"
       id="path5010"
       d="m 378.28772,210.04922 c -13.75251,1.17228 -27.35365,3.49813 -40.9539,5.65762 -6.01617,0.84401 -11.98332,1.94697 -17.96252,2.98276 0,0 11.31897,-7.86483 11.31897,-7.86483 l 0,0 c 5.82714,-0.90889 11.64879,-1.85063 17.49646,-2.64336 13.86571,-2.10498 27.72722,-4.2315 41.6259,-6.14504 0,0 -11.52491,8.01285 -11.52491,8.01285 z"
       inkscape:connector-curvature="0" />
    <path
       style="opacity:1;fill:#000000;fill-opacity:1;stroke:none;stroke-opacity:1"
       id="path4984-9"
       d="m 423.41714,250.08734 c 0.11651,-7.09011 -0.19207,-14.17024 -0.50047,-21.24708 -0.46864,-13.28204 -0.93489,-26.56426 -1.35689,-39.84878 -0.12649,-4.67048 -0.27174,-9.3405 -0.34407,-14.01296 -0.0357,-1.57619 0.0844,-3.18719 0.48966,-4.68371 4.46931,-6.66345 9.20417,-6.32144 14.92394,-6.45491 7.02511,0.0161 14.05012,0.0463 21.07525,0.0533 3.26426,0.0985 6.52426,-0.13046 9.785,-0.25552 1.23455,-0.0473 2.77276,-0.15226 4.02412,0.13262 0.41922,0.0954 0.81193,0.32434 1.21789,0.48652 0.27451,0.26542 0.59534,0.46911 0.82354,0.79629 0.82314,1.1801 0.70168,2.90871 0.63339,4.33306 -0.0815,1.70062 -0.29235,3.97591 -0.43189,5.62495 -1.27048,14.45268 -1.46749,29.01094 -1.72139,43.53493 -0.15959,9.70201 -0.0726,19.405 -0.004,29.10727 0.052,3.52181 0.0769,7.04377 0.0966,10.566 0.0143,1.93115 0.0287,3.86229 0.036,5.79352 0.003,0.97428 0.002,0.49088 0.003,1.45021 0,0 -7.30947,4.66941 -7.30947,4.66941 l 0,0 c 0.002,-0.96154 5.5e-4,-0.4769 0.003,-1.4539 0.006,-1.94428 0.0186,-3.8885 0.0277,-5.83276 0.0105,-3.56093 0.0205,-7.12175 0.0791,-10.68218 0.0984,-9.80602 0.30734,-19.61006 0.45259,-29.41506 0.26641,-14.44376 0.75826,-28.87911 1.24538,-43.31343 0.19428,-2.87798 0.21235,-2.81509 0.31697,-5.48283 0.0344,-0.8756 0.2756,-2.6326 -0.31226,-3.4225 -0.17448,-0.23445 -0.42434,-0.3581 -0.63651,-0.53715 -1.69873,-0.59016 -3.12161,-0.56205 -4.89529,-0.53122 -3.22397,0.056 -6.4478,0.21839 -9.67283,0.11397 -7.09301,-0.01 -14.18768,-0.0493 -21.27914,0.16601 -1.82653,0.0775 -3.69044,0.0794 -5.49897,0.46065 -0.3838,0.0809 -1.45812,0.61176 -1.13606,0.33781 4.88059,-4.1515 8.66518,-5.7234 5.65512,-4.42814 -0.11068,0.13464 -0.26499,0.22981 -0.33205,0.40392 -0.0789,0.20493 -0.0532,0.45027 -0.0834,0.67467 -0.14059,1.04415 -0.3709,2.07836 -0.31401,3.14837 -0.0626,4.74512 -0.0933,9.49107 -0.0472,14.23675 0.1189,13.30477 0.39363,26.61538 1.23192,39.8836 0.45443,6.98052 0.78254,13.96816 1.06189,20.96107 0,0 -7.30621,4.66723 -7.30621,4.66723 z"
       inkscape:connector-curvature="0" />
    <path
       style="opacity:1;fill:#000000;fill-opacity:1;stroke:none;stroke-opacity:1"
       id="path4986-2"
       d="m 427.79096,200.45645 c 8.7376,0.23125 17.47798,0.29129 26.21737,0.30777 12.69782,0.0299 25.38899,-0.54806 38.07558,-1.14622 0,0 -5.71564,5.2391 -5.71564,5.2391 l 0,0 c -12.70406,0.35134 -25.40684,0.76322 -38.11015,1.15409 -9.02805,0.20294 -18.05731,0.27009 -27.08517,0.4735 0,0 6.61801,-6.02824 6.61801,-6.02824 z"
       inkscape:connector-curvature="0" />
    <path
       style="opacity:1;fill:#000000;fill-opacity:1;stroke:none;stroke-opacity:1"
       id="path4988-1"
       d="m 521.80928,166.99085 c -0.30556,15.01699 -0.31472,30.03961 -0.33599,45.06306 0.0907,18.39641 -0.41371,36.77785 -0.67851,55.16509 0,0 -7.68675,6.3836 -7.68675,6.3836 l 0,0 c 0.44272,-18.35878 0.76436,-36.7296 0.66709,-55.10526 -0.0211,-14.83602 -0.0266,-29.67131 -0.33599,-44.50061 0,0 8.37015,-7.00588 8.37015,-7.00588 z"
       inkscape:connector-curvature="0" />
    <path
       style="opacity:1;fill:#000000;fill-opacity:1;stroke:none;stroke-opacity:1"
       id="path4990-9"
       d="m 496.80213,164.23989 c 8.0811,1.15568 16.19814,0.90614 24.29615,0.57439 11.91939,-0.93696 6.00991,-0.36961 17.72877,-1.69248 0,0 -6.65667,8.05618 -6.65667,8.05618 l 0,0 c -11.72622,1.2365 -5.78717,0.65182 -17.81741,1.74764 -8.4057,0.63973 -16.82778,1.1682 -25.23702,0.31401 0,0 7.68618,-8.99974 7.68618,-8.99974 z"
       inkscape:connector-curvature="0" />
    <path
       style="opacity:1;fill:#000000;fill-opacity:1;stroke:none;stroke-opacity:1"
       id="path5036"
       d="m 561.30813,161.00606 c 5.07513,0.0416 10.17315,0.303 15.24496,-0.008 5.13192,-0.31431 7.90549,-0.78972 13.19649,-1.48787 11.45744,-1.63904 5.73592,-0.77275 17.16454,-2.599 0,0 -12.0644,8.312 -12.0644,8.312 l 0,0 c -11.485,1.80762 -5.71379,0.92109 -17.31381,2.6585 -5.64359,0.78211 -8.22342,1.26453 -13.67634,1.6047 -5.20941,0.32499 -10.44628,-0.0203 -15.65912,0.2316 0,0 13.10768,-8.71229 13.10768,-8.71229 z"
       inkscape:connector-curvature="0" />
    <path
       style="opacity:1;fill:#000000;fill-opacity:1;stroke:none;stroke-opacity:1"
       id="path5038"
       d="m 578.73981,167.37756 c -0.93722,13.21793 -1.2117,26.49975 -1.44538,39.76778 -0.13904,13.99709 -0.39191,27.991 -0.58381,41.98681 0,0 -9.41696,6.43632 -9.41696,6.43632 l 0,0 c 0.49742,-14.05188 0.8536,-28.11048 0.88757,-42.18002 0.23484,-13.13719 0.60854,-26.27234 0.76168,-39.41002 0,0 9.7969,-6.60087 9.7969,-6.60087 z"
       inkscape:connector-curvature="0" />
    <path
       style="opacity:1;fill:#000000;fill-opacity:1;stroke:none;stroke-opacity:1"
       id="path5040"
       d="m 555.65344,260.07397 c 14.80464,0.48945 29.58066,-1.00604 44.31845,-2.21053 2.16047,-0.18086 4.32094,-0.36172 6.48141,-0.54257 0,0 -11.29965,8.34171 -11.29965,8.34171 l 0,0 c -2.1107,0.14463 -4.22141,0.28927 -6.33211,0.4339 -14.9758,1.08435 -29.9447,2.50444 -44.97259,2.55396 0,0 11.80449,-8.57647 11.80449,-8.57647 z"
       inkscape:connector-curvature="0" />
    <path
       style="opacity:1;fill:#000000;fill-opacity:1;stroke:none;stroke-opacity:1"
       id="path5042"
       d="m 605.08957,244.46643 c -0.23217,-9.1115 -0.22954,-18.24056 -0.26405,-27.36046 -0.069,-9.39695 0.0184,-18.79081 0.13115,-28.18513 0,0 6.95554,-6.29295 6.95554,-6.29295 l 0,0 c -0.10917,9.35762 -0.19269,18.71424 -0.0638,28.0734 0.0774,8.97834 0.0884,17.98307 0.59633,26.92511 0,0 -7.35516,6.84003 -7.35516,6.84003 z"
       inkscape:connector-curvature="0" />
    <path
       style="opacity:1;fill:#000000;fill-opacity:1;stroke:none;stroke-opacity:1"
       id="path5044"
       d="m 620.07947,173.00083 c 6.16096,-0.46551 12.27167,-1.42384 18.41002,-2.1143 4.01563,-0.45384 8.04492,-0.76862 12.08445,-0.88151 0,0 -11.95283,8.73615 -11.95283,8.73615 l 0,0 c -3.93425,0.11334 -7.86194,0.38278 -11.77557,0.8051 -6.26084,0.6972 -12.48983,1.71056 -18.7719,2.17731 0,0 12.00583,-8.72275 12.00583,-8.72275 z"
       inkscape:connector-curvature="0" />
    <path
       style="opacity:1;fill:#000000;fill-opacity:1;stroke:none;stroke-opacity:1"
       id="path5046"
       d="m 656.60336,173.1938 c -0.25754,11.69273 -0.27098,23.39417 -0.26527,35.09281 -0.006,10.27185 0.0445,20.54341 0.12491,30.81435 0,0 -7.926,6.49898 -7.926,6.49898 l 0,0 c 0.0799,-10.33922 0.13036,-20.67905 0.12491,-31.01918 0.006,-11.5536 -0.004,-23.11033 -0.26527,-34.6578 0,0 8.20672,-6.72916 8.20672,-6.72916 z"
       inkscape:connector-curvature="0" />
    <path
       style="opacity:1;fill:#000000;fill-opacity:1;stroke:none;stroke-opacity:1"
       id="path5048"
       d="m 645.58325,251.7079 c -12.02459,0.43102 -24.04938,0.87779 -36.07317,1.33811 -1.76542,0.0736 -3.53084,0.14728 -5.29626,0.22093 0,0 11.48186,-8.39694 11.48186,-8.39694 l 0,0 c 1.71105,-0.0349 3.42211,-0.0698 5.13317,-0.10471 12.25119,-0.33806 24.49294,-0.85633 36.71708,-1.74878 0,0 -11.96268,8.69139 -11.96268,8.69139 z"
       inkscape:connector-curvature="0" />
    <path
       style="opacity:1;fill:#000000;fill-opacity:1;stroke:none;stroke-opacity:1"
       id="path4980-5"
       d="m 84.287745,341.47224 c -0.15151,7.62816 -0.21909,15.25974 -0.29294,22.88982 -0.14328,20.95597 0.082,41.91235 0.37739,62.8647 0,0 -6.49434,4.15441 -6.49434,4.15441 l 0,0 c 0.10384,-20.93401 0.0845,-41.87387 -0.47119,-62.79909 -0.20719,-7.4802 -0.30004,-14.96038 -0.42513,-22.44261 0,0 7.30621,-4.66723 7.30621,-4.66723 z"
       inkscape:connector-curvature="0" />
    <path
       style="opacity:1;fill:#000000;fill-opacity:1;stroke:none;stroke-opacity:1"
       id="path4982-2"
       d="m 82.926545,348.92419 c 4.65774,-0.2562 9.3217,-0.3027 13.98316,-0.37099 3.866015,0.12665 10.460625,-1.01438 13.658855,2.2768 0.82714,0.85119 1.35421,2.07777 2.03131,3.11665 0.51535,1.37538 1.10306,2.71169 1.54605,4.12613 1.84213,5.8819 2.67263,13.10645 2.67799,19.40228 0.002,1.9257 -0.13433,3.84771 -0.2015,5.77157 -0.80337,8.77045 -1.73087,17.65139 -4.43126,25.87918 -0.55276,1.68422 -1.15647,3.35264 -1.90115,4.91635 -0.67287,1.41292 -1.55585,2.65088 -2.33377,3.97631 -2.78712,3.24647 -2.82239,3.65287 -6.20779,6.07416 -3.416925,2.44384 -6.852365,4.85617 -10.374715,7.0522 -1.30405,0.81302 -2.7068,1.35145 -4.08001,1.95969 -2.90229,1.28551 -4.52727,1.80051 -7.42749,2.8245 0,0 6.14841,-5.93026 6.14841,-5.93026 l 0,0 c 2.89451,-1.02077 4.3897,-1.47952 7.28717,-2.80858 1.36892,-0.62791 2.64501,-2.474 4.06022,-2.03616 1.09714,0.33945 -3.87556,2.78084 -2.78026,2.43217 1.82256,-0.58017 4.94014,-4.28809 6.295875,-5.7548 0.81701,-1.28096 1.74276,-2.46391 2.45103,-3.84288 0.78863,-1.53543 1.43168,-3.18773 2.01856,-4.8592 2.83565,-8.07601 3.79517,-16.88137 4.48007,-25.58542 0.0562,-1.88468 0.17242,-3.76804 0.16872,-5.65402 -0.0121,-6.15472 -0.76766,-13.27145 -2.60281,-19.01544 -0.42534,-1.33132 -1.00554,-2.57639 -1.5083,-3.86459 -0.63414,-0.90398 -1.13614,-1.98645 -1.90242,-2.71192 -3.14464,-2.97718 -9.689285,-1.77067 -13.418285,-1.94903 -4.74,0.0839 -9.49321,0.11533 -14.21491,0.6929 0,0 6.57725,-6.1176 6.57725,-6.1176 z"
       inkscape:connector-curvature="0" />
    <path
       style="opacity:1;fill:#000000;fill-opacity:1;stroke:none;stroke-opacity:1"
       id="path4984-2"
       d="m 123.94885,427.0855 c 0.11651,-7.09011 -0.19207,-14.17024 -0.50047,-21.24708 -0.46864,-13.28204 -0.93489,-26.56426 -1.35689,-39.84878 -0.12649,-4.67048 -0.27174,-9.3405 -0.34407,-14.01296 -0.0357,-1.57619 0.0844,-3.18719 0.48966,-4.68371 4.46931,-6.66345 9.20417,-6.32144 14.92394,-6.45491 7.02511,0.0161 14.05012,0.0463 21.07525,0.0533 3.26426,0.0985 6.52426,-0.13046 9.785,-0.25552 1.23455,-0.0473 2.77276,-0.15226 4.02412,0.13262 0.41922,0.0954 0.81193,0.32434 1.21789,0.48652 0.27451,0.26542 0.59534,0.46911 0.82354,0.79629 0.82314,1.1801 0.70168,2.90871 0.63339,4.33306 -0.0815,1.70062 -0.29235,3.97591 -0.43189,5.62495 -1.27048,14.45268 -1.46749,29.01094 -1.72139,43.53493 -0.15959,9.70201 -0.0726,19.405 -0.004,29.10727 0.052,3.52181 0.0769,7.04377 0.0966,10.566 0.0143,1.93115 0.0287,3.86229 0.036,5.79352 0.003,0.97428 0.002,0.49088 0.003,1.45021 0,0 -7.30947,4.66941 -7.30947,4.66941 l 0,0 c 0.002,-0.96154 5.5e-4,-0.4769 0.003,-1.4539 0.006,-1.94428 0.0186,-3.8885 0.0277,-5.83276 0.0105,-3.56093 0.0205,-7.12175 0.0791,-10.68218 0.0984,-9.80602 0.30734,-19.61006 0.45259,-29.41506 0.26641,-14.44376 0.75826,-28.87911 1.24538,-43.31343 0.19428,-2.87798 0.21235,-2.81509 0.31697,-5.48283 0.0344,-0.8756 0.2756,-2.6326 -0.31226,-3.4225 -0.17448,-0.23445 -0.42434,-0.3581 -0.63651,-0.53715 -1.69873,-0.59016 -3.12161,-0.56205 -4.89529,-0.53122 -3.22397,0.056 -6.4478,0.21839 -9.67283,0.11397 -7.09301,-0.01 -14.18768,-0.0493 -21.27914,0.16601 -1.82653,0.0775 -3.69044,0.0794 -5.49897,0.46065 -0.3838,0.0809 -1.45812,0.61176 -1.13606,0.33781 4.88059,-4.1515 8.66518,-5.7234 5.65512,-4.42814 -0.11068,0.13464 -0.26499,0.22981 -0.33205,0.40392 -0.0789,0.20493 -0.0532,0.45027 -0.0834,0.67467 -0.14059,1.04415 -0.3709,2.07836 -0.31401,3.14837 -0.0626,4.74512 -0.0933,9.49107 -0.0472,14.23675 0.1189,13.30477 0.39363,26.61538 1.23192,39.8836 0.45443,6.98052 0.78254,13.96816 1.06189,20.96107 0,0 -7.30621,4.66723 -7.30621,4.66723 z"
       inkscape:connector-curvature="0" />
    <path
       style="opacity:1;fill:#000000;fill-opacity:1;stroke:none;stroke-opacity:1"
       id="path4986-5"
       d="m 128.32267,377.45461 c 8.7376,0.23125 17.47798,0.29129 26.21737,0.30777 12.69782,0.0299 25.38899,-0.54806 38.07558,-1.14622 0,0 -5.71564,5.2391 -5.71564,5.2391 l 0,0 c -12.70406,0.35134 -25.40684,0.76322 -38.11015,1.15409 -9.02805,0.20294 -18.05731,0.27009 -27.08517,0.4735 0,0 6.61801,-6.02824 6.61801,-6.02824 z"
       inkscape:connector-curvature="0" />
    <path
       style="opacity:1;fill:#000000;fill-opacity:1;stroke:none;stroke-opacity:1"
       id="path4988-4"
       d="m 222.34099,343.98901 c -0.30556,15.01699 -0.31472,30.03961 -0.33599,45.06306 0.0907,18.39641 -0.41371,36.77785 -0.67851,55.16509 0,0 -7.68675,6.3836 -7.68675,6.3836 l 0,0 c 0.44273,-18.35878 0.76437,-36.7296 0.66709,-55.10526 -0.0211,-14.83602 -0.0266,-29.67131 -0.33599,-44.50061 0,0 8.37015,-7.00588 8.37015,-7.00588 z"
       inkscape:connector-curvature="0" />
    <path
       style="opacity:1;fill:#000000;fill-opacity:1;stroke:none;stroke-opacity:1"
       id="path4990-6"
       d="m 197.33384,341.23805 c 8.0811,1.15568 16.19814,0.90614 24.29615,0.57439 11.91939,-0.93696 6.00991,-0.36961 17.72877,-1.69248 0,0 -6.65667,8.05618 -6.65667,8.05618 l 0,0 c -11.72622,1.2365 -5.78717,0.65182 -17.81741,1.74764 -8.4057,0.63973 -16.82778,1.1682 -25.23702,0.31401 0,0 7.68618,-8.99974 7.68618,-8.99974 z"
       inkscape:connector-curvature="0" />
    <ellipse
       style="opacity:1;fill:#ff00ff;fill-opacity:1;stroke:none;stroke-opacity:1"
       id="path4992-5"
       cx="251.05405"
       cy="428.05298"
       rx="8.949275"
       ry="9.9407406" />
    <ellipse
       style="opacity:1;fill:#ff00ff;fill-opacity:1;stroke:none;stroke-opacity:1"
       id="path4994-4"
       cx="280.02145"
       cy="436.86407"
       rx="27.083334"
       ry="30.5" />
    <ellipse
       style="opacity:1;fill:#ff00ff;fill-opacity:1;stroke:none;stroke-opacity:1"
       id="path4996-7"
       cx="299.0975"
       cy="419.24185"
       rx="4.710145"
       ry="11.974074" />
    <ellipse
       style="opacity:1;fill:#ffffff;fill-opacity:1;stroke:none;stroke-opacity:1"
       id="path4998-1"
       cx="276.01779"
       cy="426.01962"
       rx="11.304348"
       ry="13.781482" />
    <ellipse
       style="opacity:1;fill:#ff00ff;fill-opacity:1;stroke:none;stroke-opacity:1"
       id="path5000-3"
       cx="271.77869"
       cy="419.46777"
       rx="6.1231885"
       ry="5.874074" />
    <path
       style="opacity:1;fill:#000000;fill-opacity:1;stroke:none;stroke-opacity:1"
       id="path5002-9"
       d="m 349.93981,344.7199 c 0.92393,15.93901 1.48717,31.91558 1.76329,47.90253 0.30841,21.00809 0.72862,42.01379 0.86068,63.02623 0.0244,2.51617 0.0489,5.03233 0.0734,7.54851 0,0 -7.67541,5.61441 -7.67541,5.61441 l 0,0 c 0.01,-2.54013 0.0192,-5.08026 0.0289,-7.62039 -0.0538,-21.05169 -0.006,-42.11118 -0.6354,-63.1489 -0.56681,-15.75596 -0.90555,-31.59184 -2.50793,-47.21812 0,0 8.09252,-6.10427 8.09252,-6.10427 z"
       inkscape:connector-curvature="0" />
    <path
       style="opacity:1;fill:#000000;fill-opacity:1;stroke:none;stroke-opacity:1"
       id="path5004-1"
       d="m 350.2624,353.23596 c 11.96015,1.64775 23.98483,2.15844 35.99609,2.58232 7.45929,0.25308 14.92058,0.32653 22.38187,0.3318 0,0 -8.26685,8.11306 -8.26685,8.11306 l 0,0 c -7.35014,-0.2099 -14.70064,-0.40467 -22.04951,-0.68795 -12.24358,-0.52956 -24.48365,-1.14797 -36.7196,-1.94184 0,0 8.658,-8.39739 8.658,-8.39739 z"
       inkscape:connector-curvature="0" />
    <path
       style="opacity:1;fill:#000000;fill-opacity:1;stroke:none;stroke-opacity:1"
       id="path5006-8"
       d="m 400.78812,355.8234 c -0.17647,7.28222 -0.22658,14.56644 -0.39782,21.84928 -0.18584,6.73929 -0.23839,13.48151 -0.26003,20.22368 -0.0678,3.54274 0.0402,7.08931 -0.0848,10.62998 -0.0293,0.46576 -0.0584,0.93152 -0.0876,1.39729 0,0 -8.30025,4.80411 -8.30025,4.80411 l 0,0 c 0.0399,-0.45983 0.0798,-0.91967 0.11968,-1.3795 0.21907,-3.53402 0.0417,-7.08497 0.15646,-10.62508 0.17719,-6.80372 0.4361,-13.60455 0.56,-20.41023 0.14895,-7.18676 0.23259,-14.37634 -0.0389,-21.56141 0,0 8.33333,-4.92812 8.33333,-4.92812 z"
       inkscape:connector-curvature="0" />
    <path
       style="opacity:1;fill:#000000;fill-opacity:1;stroke:none;stroke-opacity:1"
       id="path5008-6"
       d="m 356.26833,409.06787 c 3.91356,5.79269 8.63477,11.01668 13.3269,16.23269 8.10542,9.01038 16.51767,17.58277 25.14194,26.13599 9.40656,8.92402 4.9242,4.70975 13.43546,12.6541 0,0 -8.77117,5.12843 -8.77117,5.12843 l 0,0 c -8.155,-8.17082 -3.83487,-3.85359 -12.96476,-12.94769 -8.54148,-8.61512 -17.00308,-17.28152 -25.38377,-26.03918 -4.92615,-5.14774 -9.97934,-10.19981 -14.51012,-15.67925 0,0 9.72552,-5.48509 9.72552,-5.48509 z"
       inkscape:connector-curvature="0" />
    <path
       style="opacity:1;fill:#000000;fill-opacity:1;stroke:none;stroke-opacity:1"
       id="path5010-0"
       d="m 388.39249,407.05107 c -13.7525,1.17228 -27.35365,3.49813 -40.95389,5.65762 -6.01617,0.84401 -11.98332,1.94697 -17.96252,2.98276 0,0 11.31897,-7.86483 11.31897,-7.86483 l 0,0 c 5.82713,-0.90889 11.64879,-1.85063 17.49646,-2.64336 13.8657,-2.10498 27.72722,-4.2315 41.6259,-6.14504 0,0 -11.52491,8.01285 -11.52491,8.01285 z"
       inkscape:connector-curvature="0" />
    <path
       style="opacity:1;fill:#000000;fill-opacity:1;stroke:none;stroke-opacity:1"
       id="path4984-9-3"
       d="m 433.52191,447.08919 c 0.11651,-7.09011 -0.19207,-14.17024 -0.50047,-21.24708 -0.46864,-13.28204 -0.93489,-26.56426 -1.35689,-39.84878 -0.12649,-4.67048 -0.27174,-9.3405 -0.34407,-14.01296 -0.0357,-1.57619 0.0844,-3.18719 0.48966,-4.68371 4.46931,-6.66345 9.20417,-6.32144 14.92394,-6.45491 7.02511,0.0161 14.05012,0.0463 21.07525,0.0533 3.26426,0.0985 6.52426,-0.13046 9.785,-0.25552 1.23456,-0.0473 2.77276,-0.15226 4.02412,0.13262 0.41922,0.0954 0.81193,0.32434 1.21789,0.48652 0.27452,0.26542 0.59535,0.46911 0.82354,0.79629 0.82314,1.1801 0.70168,2.90871 0.63339,4.33306 -0.0815,1.70062 -0.29235,3.97591 -0.43189,5.62495 -1.27048,14.45268 -1.46749,29.01094 -1.72139,43.53493 -0.15958,9.70201 -0.0726,19.405 -0.004,29.10727 0.052,3.52181 0.0769,7.04377 0.0966,10.566 0.0143,1.93115 0.0287,3.86229 0.036,5.79352 0.003,0.97428 0.002,0.49088 0.003,1.45021 0,0 -7.30946,4.66941 -7.30946,4.66941 l 0,0 c 0.002,-0.96154 5.4e-4,-0.4769 0.003,-1.4539 0.006,-1.94428 0.0186,-3.8885 0.0277,-5.83276 0.0105,-3.56093 0.0205,-7.12175 0.0791,-10.68218 0.0984,-9.80602 0.30734,-19.61006 0.45259,-29.41506 0.26641,-14.44376 0.75826,-28.87911 1.24538,-43.31343 0.19428,-2.87798 0.21235,-2.81509 0.31697,-5.48283 0.0344,-0.8756 0.2756,-2.6326 -0.31226,-3.4225 -0.17448,-0.23445 -0.42433,-0.3581 -0.6365,-0.53715 -1.69874,-0.59016 -3.12161,-0.56205 -4.89529,-0.53122 -3.22397,0.056 -6.4478,0.21839 -9.67283,0.11397 -7.09301,-0.01 -14.18768,-0.0493 -21.27914,0.16601 -1.82653,0.0775 -3.69044,0.0794 -5.49897,0.46065 -0.3838,0.0809 -1.45812,0.61176 -1.13606,0.33781 4.88059,-4.1515 8.66518,-5.7234 5.65512,-4.42814 -0.11068,0.13464 -0.26499,0.22981 -0.33205,0.40392 -0.0789,0.20493 -0.0532,0.45027 -0.0834,0.67467 -0.14059,1.04415 -0.3709,2.07836 -0.31401,3.14837 -0.0626,4.74512 -0.0933,9.49107 -0.0472,14.23675 0.1189,13.30477 0.39363,26.61538 1.23192,39.8836 0.45443,6.98052 0.78254,13.96816 1.06189,20.96107 0,0 -7.30621,4.66723 -7.30621,4.66723 z"
       inkscape:connector-curvature="0" />
    <path
       style="opacity:1;fill:#000000;fill-opacity:1;stroke:none;stroke-opacity:1"
       id="path4986-2-1"
       d="m 437.89573,397.4583 c 8.7376,0.23125 17.47798,0.29129 26.21738,0.30777 12.69781,0.0299 25.38898,-0.54806 38.07558,-1.14622 0,0 -5.71564,5.2391 -5.71564,5.2391 l 0,0 c -12.70407,0.35134 -25.40684,0.76322 -38.11015,1.15409 -9.02805,0.20294 -18.05731,0.27009 -27.08517,0.4735 0,0 6.61801,-6.02824 6.61801,-6.02824 z"
       inkscape:connector-curvature="0" />
    <path
       style="opacity:1;fill:#000000;fill-opacity:1;stroke:none;stroke-opacity:1"
       id="path4988-1-3"
       d="m 531.91405,363.9927 c -0.30556,15.01699 -0.31472,30.03961 -0.33599,45.06306 0.0907,18.39641 -0.41371,36.77785 -0.67851,55.16509 0,0 -7.68675,6.3836 -7.68675,6.3836 l 0,0 c 0.44272,-18.35878 0.76437,-36.7296 0.66709,-55.10526 -0.0211,-14.83602 -0.0266,-29.67131 -0.33599,-44.50061 0,0 8.37015,-7.00588 8.37015,-7.00588 z"
       inkscape:connector-curvature="0" />
    <path
       style="opacity:1;fill:#000000;fill-opacity:1;stroke:none;stroke-opacity:1"
       id="path4990-9-8"
       d="m 506.9069,361.24174 c 8.0811,1.15568 16.19815,0.90614 24.29615,0.57439 11.91939,-0.93696 6.00991,-0.36961 17.72877,-1.69248 0,0 -6.65666,8.05618 -6.65666,8.05618 l 0,0 c -11.72622,1.2365 -5.78718,0.65182 -17.81742,1.74764 -8.4057,0.63973 -16.82778,1.1682 -25.23701,0.31401 0,0 7.68617,-8.99974 7.68617,-8.99974 z"
       inkscape:connector-curvature="0" />
    <path
       style="opacity:1;fill:#000000;fill-opacity:1;stroke:none;stroke-opacity:1"
       id="path5036-8"
       d="m 571.4129,358.00791 c 5.07513,0.0416 10.17315,0.303 15.24496,-0.008 5.13192,-0.31431 7.90549,-0.78972 13.19649,-1.48787 11.45744,-1.63904 5.73592,-0.77275 17.16454,-2.599 0,0 -12.0644,8.312 -12.0644,8.312 l 0,0 c -11.485,1.80762 -5.71379,0.92109 -17.31381,2.6585 -5.64359,0.78211 -8.22341,1.26453 -13.67634,1.6047 -5.20941,0.32499 -10.44628,-0.0203 -15.65911,0.2316 0,0 13.10768,-8.71229 13.10768,-8.71229 z"
       inkscape:connector-curvature="0" />
    <path
       style="opacity:1;fill:#000000;fill-opacity:1;stroke:none;stroke-opacity:1"
       id="path5038-4"
       d="m 588.84458,364.37941 c -0.93722,13.21793 -1.2117,26.49975 -1.44538,39.76778 -0.13904,13.99709 -0.39191,27.991 -0.58381,41.98681 0,0 -9.41696,6.43632 -9.41696,6.43632 l 0,0 c 0.49742,-14.05188 0.8536,-28.11048 0.88757,-42.18002 0.23484,-13.13719 0.60854,-26.27234 0.76168,-39.41002 0,0 9.7969,-6.60087 9.7969,-6.60087 z"
       inkscape:connector-curvature="0" />
    <path
       style="opacity:1;fill:#000000;fill-opacity:1;stroke:none;stroke-opacity:1"
       id="path5040-9"
       d="m 565.75822,457.07582 c 14.80464,0.48945 29.58066,-1.00604 44.31845,-2.21053 2.16047,-0.18086 4.32093,-0.36172 6.48141,-0.54257 0,0 -11.29966,8.34171 -11.29966,8.34171 l 0,0 c -2.11069,0.14463 -4.22141,0.28927 -6.33211,0.4339 -14.9758,1.08435 -29.9447,2.50444 -44.97259,2.55396 0,0 11.80449,-8.57647 11.80449,-8.57647 z"
       inkscape:connector-curvature="0" />
    <path
       style="opacity:1;fill:#000000;fill-opacity:1;stroke:none;stroke-opacity:1"
       id="path5042-4"
       d="m 615.19434,441.46828 c -0.23217,-9.1115 -0.22954,-18.24056 -0.26405,-27.36046 -0.069,-9.39695 0.0184,-18.79081 0.13116,-28.18513 0,0 6.95554,-6.29295 6.95554,-6.29295 l 0,0 c -0.10917,9.35762 -0.19269,18.71424 -0.0638,28.0734 0.0774,8.97834 0.0884,17.98307 0.59633,26.92511 0,0 -7.35516,6.84003 -7.35516,6.84003 z"
       inkscape:connector-curvature="0" />
    <path
       style="opacity:1;fill:#000000;fill-opacity:1;stroke:none;stroke-opacity:1"
       id="path5044-5"
       d="m 630.18425,370.00268 c 6.16096,-0.46551 12.27166,-1.42384 18.41002,-2.1143 4.01563,-0.45384 8.04492,-0.76862 12.08444,-0.88151 0,0 -11.95282,8.73615 -11.95282,8.73615 l 0,0 c -3.93425,0.11334 -7.86194,0.38278 -11.77557,0.8051 -6.26084,0.6972 -12.48983,1.71056 -18.7719,2.17731 0,0 12.00583,-8.72275 12.00583,-8.72275 z"
       inkscape:connector-curvature="0" />
    <path
       style="opacity:1;fill:#000000;fill-opacity:1;stroke:none;stroke-opacity:1"
       id="path5046-4"
       d="m 666.70813,370.19565 c -0.25753,11.69273 -0.27098,23.39417 -0.26527,35.09281 -0.006,10.27185 0.0445,20.54341 0.12491,30.81435 0,0 -7.926,6.49898 -7.926,6.49898 l 0,0 c 0.0799,-10.33922 0.13036,-20.67905 0.12491,-31.01918 0.006,-11.5536 -0.004,-23.11033 -0.26527,-34.6578 0,0 8.20672,-6.72916 8.20672,-6.72916 z"
       inkscape:connector-curvature="0" />
    <path
       style="opacity:1;fill:#000000;fill-opacity:1;stroke:none;stroke-opacity:1"
       id="path5048-0"
       d="m 655.68803,448.70975 c -12.02459,0.43102 -24.04939,0.87779 -36.07317,1.33811 -1.76542,0.0736 -3.53084,0.14728 -5.29626,0.22093 0,0 11.48186,-8.39694 11.48186,-8.39694 l 0,0 c 1.71105,-0.0349 3.42211,-0.0698 5.13316,-0.10471 12.25119,-0.33806 24.49294,-0.85633 36.71709,-1.74878 0,0 -11.96268,8.69139 -11.96268,8.69139 z"
       inkscape:connector-curvature="0" />
    <path
       style="opacity:1;fill:#0000ff;fill-opacity:1;stroke:none;stroke-opacity:1"
       id="path4980-5-4"
       d="m 74.28774,541.47224 c -0.15151,7.62816 -0.21909,15.25974 -0.29294,22.88982 -0.14328,20.95597 0.082,41.91235 0.37739,62.8647 0,0 -6.49434,4.15441 -6.49434,4.15441 l 0,0 c 0.10384,-20.93401 0.0845,-41.87387 -0.47119,-62.79909 -0.20719,-7.4802 -0.30004,-14.96038 -0.42513,-22.44261 0,0 7.30621,-4.66723 7.30621,-4.66723 z"
       inkscape:connector-curvature="0" />
    <path
       style="opacity:1;fill:#0000ff;fill-opacity:1;stroke:none;stroke-opacity:1"
       id="path4982-2-3"
       d="m 72.92654,548.92419 c 4.65774,-0.2562 9.3217,-0.3027 13.98316,-0.37099 3.86601,0.12665 10.46062,-1.01438 13.65885,2.2768 0.82714,0.85119 1.35421,2.07777 2.03131,3.11665 0.51535,1.37538 1.10306,2.71169 1.54605,4.12613 1.84213,5.8819 2.67263,13.10645 2.67799,19.40228 0.002,1.9257 -0.13433,3.84771 -0.2015,5.77157 -0.80337,8.77045 -1.73087,17.65139 -4.43126,25.87918 -0.55276,1.68422 -1.15647,3.35264 -1.90115,4.91635 -0.67287,1.41292 -1.55585,2.65088 -2.33377,3.97631 -2.78712,3.24647 -2.82239,3.65287 -6.20779,6.07416 -3.41692,2.44384 -6.85236,4.85617 -10.37471,7.0522 -1.30405,0.81302 -2.7068,1.35145 -4.08001,1.95969 -2.90229,1.28551 -4.52727,1.80051 -7.42749,2.8245 0,0 6.14841,-5.93026 6.14841,-5.93026 l 0,0 c 2.89451,-1.02077 4.3897,-1.47952 7.28717,-2.80858 1.36892,-0.62791 2.64501,-2.474 4.06022,-2.03616 1.09714,0.33945 -3.87556,2.78084 -2.78026,2.43217 1.82256,-0.58017 4.94014,-4.28809 6.29587,-5.7548 0.81701,-1.28096 1.74276,-2.46391 2.45103,-3.84288 0.78863,-1.53543 1.43168,-3.18773 2.01856,-4.8592 2.83565,-8.07601 3.79517,-16.88137 4.48007,-25.58542 0.0562,-1.88468 0.17242,-3.76804 0.16872,-5.65402 -0.0121,-6.15472 -0.76766,-13.27145 -2.60281,-19.01544 -0.42534,-1.33132 -1.00554,-2.57639 -1.5083,-3.86459 -0.63414,-0.90398 -1.13614,-1.98645 -1.90242,-2.71192 -3.14464,-2.97718 -9.68928,-1.77067 -13.41828,-1.94903 -4.74,0.0839 -9.49321,0.11533 -14.21491,0.6929 0,0 6.57725,-6.1176 6.57725,-6.1176 z"
       inkscape:connector-curvature="0" />
    <path
       style="opacity:1;fill:#0000ff;fill-opacity:1;stroke:none;stroke-opacity:1"
       id="path4984-2-4"
       d="m 113.94884,627.0855 c 0.11651,-7.09011 -0.19207,-14.17024 -0.50047,-21.24708 -0.46864,-13.28204 -0.93489,-26.56426 -1.35689,-39.84878 -0.12649,-4.67048 -0.27174,-9.3405 -0.34407,-14.01296 -0.0357,-1.57619 0.0844,-3.18719 0.48966,-4.68371 4.46931,-6.66345 9.20417,-6.32144 14.92395,-6.45491 7.0251,0.0161 14.05012,0.0463 21.07524,0.0533 3.26427,0.0985 6.52427,-0.13046 9.785,-0.25552 1.23455,-0.0473 2.77277,-0.15226 4.02412,0.13262 0.41922,0.0954 0.81193,0.32434 1.2179,0.48652 0.2745,0.26542 0.59533,0.46911 0.82353,0.79629 0.82314,1.1801 0.70168,2.90871 0.63339,4.33306 -0.0815,1.70062 -0.29234,3.97591 -0.43189,5.62495 -1.27048,14.45268 -1.46748,29.01094 -1.72139,43.53493 -0.15959,9.70201 -0.0726,19.405 -0.004,29.10727 0.052,3.52181 0.0769,7.04377 0.0966,10.566 0.0143,1.93115 0.0287,3.86229 0.036,5.79352 0.003,0.97428 0.002,0.49088 0.003,1.45021 0,0 -7.30948,4.66941 -7.30948,4.66941 l 0,0 c 0.002,-0.96154 5.5e-4,-0.4769 0.003,-1.4539 0.006,-1.94428 0.0186,-3.8885 0.0277,-5.83276 0.0105,-3.56093 0.0205,-7.12175 0.0791,-10.68218 0.0984,-9.80602 0.30734,-19.61006 0.45259,-29.41506 0.26641,-14.44376 0.75826,-28.87911 1.24538,-43.31343 0.19428,-2.87798 0.21235,-2.81509 0.31697,-5.48283 0.0344,-0.8756 0.2756,-2.6326 -0.31226,-3.4225 -0.17448,-0.23445 -0.42434,-0.3581 -0.63651,-0.53715 -1.69873,-0.59016 -3.12161,-0.56205 -4.89529,-0.53122 -3.22397,0.056 -6.4478,0.21839 -9.67283,0.11397 -7.09301,-0.01 -14.18768,-0.0493 -21.27914,0.16601 -1.82653,0.0775 -3.69044,0.0794 -5.49897,0.46065 -0.3838,0.0809 -1.45812,0.61176 -1.13606,0.33781 4.88059,-4.1515 8.66518,-5.7234 5.65512,-4.42814 -0.11068,0.13464 -0.26499,0.22981 -0.33205,0.40392 -0.0789,0.20493 -0.0532,0.45027 -0.0834,0.67467 -0.14059,1.04415 -0.3709,2.07836 -0.31401,3.14837 -0.0626,4.74512 -0.0933,9.49107 -0.0472,14.23675 0.1189,13.30477 0.39363,26.61538 1.23192,39.8836 0.45443,6.98052 0.78254,13.96816 1.06189,20.96107 0,0 -7.30621,4.66723 -7.30621,4.66723 z"
       inkscape:connector-curvature="0" />
    <path
       style="opacity:1;fill:#0000ff;fill-opacity:1;stroke:none;stroke-opacity:1"
       id="path4986-5-7"
       d="m 118.32266,577.45461 c 8.73761,0.23125 17.47798,0.29129 26.21737,0.30777 12.69782,0.0299 25.389,-0.54806 38.07559,-1.14622 0,0 -5.71564,5.2391 -5.71564,5.2391 l 0,0 c -12.70406,0.35134 -25.40685,0.76322 -38.11016,1.15409 -9.02805,0.20294 -18.05731,0.27009 -27.08517,0.4735 0,0 6.61801,-6.02824 6.61801,-6.02824 z"
       inkscape:connector-curvature="0" />
    <path
       style="opacity:1;fill:#0000ff;fill-opacity:1;stroke:none;stroke-opacity:1"
       id="path4988-4-7"
       d="m 212.34099,543.98901 c -0.30556,15.01699 -0.31472,30.03961 -0.336,45.06306 0.0907,18.39641 -0.4137,36.77785 -0.6785,55.16509 0,0 -7.68675,6.3836 -7.68675,6.3836 l 0,0 c 0.44273,-18.35878 0.76437,-36.7296 0.66709,-55.10526 -0.0211,-14.83602 -0.0266,-29.67131 -0.33599,-44.50061 0,0 8.37015,-7.00588 8.37015,-7.00588 z"
       inkscape:connector-curvature="0" />
    <path
       style="opacity:1;fill:#0000ff;fill-opacity:1;stroke:none;stroke-opacity:1"
       id="path4990-6-4"
       d="m 187.33384,541.23805 c 8.0811,1.15568 16.19814,0.90614 24.29615,0.57439 11.91939,-0.93696 6.00991,-0.36961 17.72877,-1.69248 0,0 -6.65667,8.05618 -6.65667,8.05618 l 0,0 c -11.72622,1.2365 -5.78717,0.65182 -17.81741,1.74764 -8.4057,0.63973 -16.82778,1.1682 -25.23702,0.31401 0,0 7.68618,-8.99974 7.68618,-8.99974 z"
       inkscape:connector-curvature="0" />
    <ellipse
       style="opacity:1;fill:#ff00ff;fill-opacity:1;stroke:none;stroke-opacity:1"
       id="path4992-5-1"
       cx="241.05405"
       cy="628.05298"
       rx="8.949275"
       ry="9.9407406" />
    <ellipse
       style="opacity:1;fill:#ff00ff;fill-opacity:1;stroke:none;stroke-opacity:1"
       id="path4994-4-2"
       cx="270.02145"
       cy="636.86407"
       rx="27.083334"
       ry="30.5" />
    <ellipse
       style="opacity:1;fill:#ff00ff;fill-opacity:1;stroke:none;stroke-opacity:1"
       id="path4996-7-1"
       cx="289.0975"
       cy="619.24188"
       rx="4.710145"
       ry="11.974074" />
    <ellipse
       style="opacity:1;fill:#ffffff;fill-opacity:1;stroke:none;stroke-opacity:1"
       id="path4998-1-9"
       cx="266.01779"
       cy="626.01965"
       rx="11.304348"
       ry="13.781482" />
    <ellipse
       style="opacity:1;fill:#ff00ff;fill-opacity:1;stroke:none;stroke-opacity:1"
       id="path5000-3-6"
       cx="261.77869"
       cy="619.46777"
       rx="6.1231885"
       ry="5.874074" />
    <path
       style="opacity:1;fill:#0000ff;fill-opacity:1;stroke:none;stroke-opacity:1"
       id="path5002-9-9"
       d="m 339.93981,544.7199 c 0.92393,15.93901 1.48717,31.91558 1.76329,47.90253 0.3084,21.00809 0.72861,42.01379 0.86068,63.02623 0.0244,2.51617 0.0489,5.03233 0.0734,7.54851 0,0 -7.67541,5.61441 -7.67541,5.61441 l 0,0 c 0.01,-2.54013 0.0192,-5.08026 0.0289,-7.62039 -0.0538,-21.05169 -0.006,-42.11118 -0.6354,-63.1489 -0.56681,-15.75596 -0.90555,-31.59184 -2.50793,-47.21812 0,0 8.09252,-6.10427 8.09252,-6.10427 z"
       inkscape:connector-curvature="0" />
    <path
       style="opacity:1;fill:#0000ff;fill-opacity:1;stroke:none;stroke-opacity:1"
       id="path5004-1-2"
       d="m 340.2624,553.23596 c 11.96015,1.64775 23.98483,2.15844 35.99608,2.58232 7.4593,0.25308 14.92058,0.32653 22.38187,0.3318 0,0 -8.26684,8.11306 -8.26684,8.11306 l 0,0 c -7.35014,-0.2099 -14.70065,-0.40467 -22.04951,-0.68795 -12.24358,-0.52956 -24.48365,-1.14797 -36.7196,-1.94184 0,0 8.658,-8.39739 8.658,-8.39739 z"
       inkscape:connector-curvature="0" />
    <path
       style="opacity:1;fill:#0000ff;fill-opacity:1;stroke:none;stroke-opacity:1"
       id="path5006-8-7"
       d="m 390.78811,555.8234 c -0.17646,7.28222 -0.22658,14.56644 -0.39782,21.84928 -0.18584,6.73929 -0.23839,13.48151 -0.26003,20.22368 -0.0678,3.54274 0.0402,7.08931 -0.0848,10.62998 -0.0293,0.46576 -0.0584,0.93152 -0.0876,1.39729 0,0 -8.30025,4.80411 -8.30025,4.80411 l 0,0 c 0.0399,-0.45983 0.0798,-0.91967 0.11968,-1.3795 0.21907,-3.53402 0.0417,-7.08497 0.15646,-10.62508 0.17719,-6.80372 0.4361,-13.60455 0.56,-20.41023 0.14895,-7.18676 0.23259,-14.37634 -0.0389,-21.56141 0,0 8.33332,-4.92812 8.33332,-4.92812 z"
       inkscape:connector-curvature="0" />
    <path
       style="opacity:1;fill:#0000ff;fill-opacity:1;stroke:none;stroke-opacity:1"
       id="path5008-6-2"
       d="m 346.26832,609.06787 c 3.91357,5.79269 8.63477,11.01668 13.32691,16.23269 8.10541,9.01038 16.51767,17.58277 25.14193,26.13599 9.40657,8.92402 4.9242,4.70975 13.43546,12.6541 0,0 -8.77117,5.12843 -8.77117,5.12843 l 0,0 c -8.15499,-8.17082 -3.83487,-3.85359 -12.96476,-12.94769 -8.54148,-8.61512 -17.00308,-17.28152 -25.38377,-26.03918 -4.92615,-5.14774 -9.97934,-10.19981 -14.51012,-15.67925 0,0 9.72552,-5.48509 9.72552,-5.48509 z"
       inkscape:connector-curvature="0" />
    <path
       style="opacity:1;fill:#0000ff;fill-opacity:1;stroke:none;stroke-opacity:1"
       id="path5010-0-7"
       d="m 378.39249,607.05107 c -13.7525,1.17228 -27.35366,3.49813 -40.95389,5.65762 -6.01617,0.84401 -11.98332,1.94697 -17.96252,2.98276 0,0 11.31897,-7.86483 11.31897,-7.86483 l 0,0 c 5.82713,-0.90889 11.64879,-1.85063 17.49646,-2.64336 13.8657,-2.10498 27.72722,-4.2315 41.6259,-6.14504 0,0 -11.52491,8.01285 -11.52491,8.01285 z"
       inkscape:connector-curvature="0" />
    <path
       style="opacity:1;fill:#0000ff;fill-opacity:1;stroke:none;stroke-opacity:1"
       id="path4984-9-3-1"
       d="m 423.5219,647.08919 c 0.11652,-7.09011 -0.19207,-14.17024 -0.50047,-21.24708 -0.46864,-13.28204 -0.93489,-26.56426 -1.35689,-39.84878 -0.12649,-4.67048 -0.27174,-9.3405 -0.34407,-14.01296 -0.0357,-1.57619 0.0844,-3.18719 0.48966,-4.68371 4.46932,-6.66345 9.20417,-6.32144 14.92395,-6.45491 7.0251,0.0161 14.05012,0.0463 21.07524,0.0533 3.26426,0.0985 6.52427,-0.13046 9.78501,-0.25552 1.23456,-0.0473 2.77276,-0.15226 4.02411,0.13262 0.41922,0.0954 0.81194,0.32434 1.2179,0.48652 0.27452,0.26542 0.59535,0.46911 0.82353,0.79629 0.82315,1.1801 0.70169,2.90871 0.6334,4.33306 -0.0815,1.70062 -0.29235,3.97591 -0.43189,5.62495 -1.27049,14.45268 -1.46749,29.01094 -1.72139,43.53493 -0.15958,9.70201 -0.0726,19.405 -0.004,29.10727 0.052,3.52181 0.0769,7.04377 0.0966,10.566 0.0143,1.93115 0.0287,3.86229 0.036,5.79352 0.003,0.97428 0.002,0.49088 0.003,1.45021 0,0 -7.30946,4.66941 -7.30946,4.66941 l 0,0 c 0.002,-0.96154 5.4e-4,-0.4769 0.003,-1.4539 0.006,-1.94428 0.0186,-3.8885 0.0277,-5.83276 0.0105,-3.56093 0.0205,-7.12175 0.0791,-10.68218 0.0984,-9.80602 0.30734,-19.61006 0.45259,-29.41506 0.26641,-14.44376 0.75826,-28.87911 1.24538,-43.31343 0.19428,-2.87798 0.21235,-2.81509 0.31697,-5.48283 0.0344,-0.8756 0.2756,-2.6326 -0.31226,-3.4225 -0.17448,-0.23445 -0.42432,-0.3581 -0.6365,-0.53715 -1.69873,-0.59016 -3.1216,-0.56205 -4.89529,-0.53122 -3.22397,0.056 -6.44779,0.21839 -9.67282,0.11397 -7.09301,-0.01 -14.18768,-0.0493 -21.27914,0.16601 -1.82653,0.0775 -3.69044,0.0794 -5.49897,0.46065 -0.3838,0.0809 -1.45812,0.61176 -1.13606,0.33781 4.88059,-4.1515 8.66518,-5.7234 5.65512,-4.42814 -0.11068,0.13464 -0.26499,0.22981 -0.33205,0.40392 -0.0789,0.20493 -0.0532,0.45027 -0.0834,0.67467 -0.14059,1.04415 -0.3709,2.07836 -0.31401,3.14837 -0.0626,4.74512 -0.0933,9.49107 -0.0472,14.23675 0.1189,13.30477 0.39363,26.61538 1.23192,39.8836 0.45443,6.98052 0.78254,13.96816 1.06189,20.96107 0,0 -7.30621,4.66723 -7.30621,4.66723 z"
       inkscape:connector-curvature="0" />
    <path
       style="opacity:1;fill:#0000ff;fill-opacity:1;stroke:none;stroke-opacity:1"
       id="path4986-2-1-0"
       d="m 427.89573,597.4583 c 8.7376,0.23125 17.47798,0.29129 26.21738,0.30777 12.69781,0.0299 25.38898,-0.54806 38.07558,-1.14622 0,0 -5.71564,5.2391 -5.71564,5.2391 l 0,0 c -12.70407,0.35134 -25.40684,0.76322 -38.11015,1.15409 -9.02805,0.20294 -18.05731,0.27009 -27.08517,0.4735 0,0 6.61801,-6.02824 6.61801,-6.02824 z"
       inkscape:connector-curvature="0" />
    <path
       style="opacity:1;fill:#0000ff;fill-opacity:1;stroke:none;stroke-opacity:1"
       id="path4988-1-3-4"
       d="m 521.91404,563.9927 c -0.30556,15.01699 -0.31471,30.03961 -0.33599,45.06306 0.0907,18.39641 -0.41371,36.77785 -0.67851,55.16509 0,0 -7.68674,6.3836 -7.68674,6.3836 l 0,0 c 0.44272,-18.35878 0.76437,-36.7296 0.66709,-55.10526 -0.0211,-14.83602 -0.0266,-29.67131 -0.33599,-44.50061 0,0 8.37014,-7.00588 8.37014,-7.00588 z"
       inkscape:connector-curvature="0" />
    <path
       style="opacity:1;fill:#0000ff;fill-opacity:1;stroke:none;stroke-opacity:1"
       id="path4990-9-8-9"
       d="m 496.9069,561.24174 c 8.0811,1.15568 16.19815,0.90614 24.29614,0.57439 11.91939,-0.93696 6.00991,-0.36961 17.72878,-1.69248 0,0 -6.65666,8.05618 -6.65666,8.05618 l 0,0 c -11.72622,1.2365 -5.78719,0.65182 -17.81742,1.74764 -8.4057,0.63973 -16.82778,1.1682 -25.23701,0.31401 0,0 7.68617,-8.99974 7.68617,-8.99974 z"
       inkscape:connector-curvature="0" />
    <path
       style="opacity:1;fill:#0000ff;fill-opacity:1;stroke:none;stroke-opacity:1"
       id="path5036-8-8"
       d="m 561.4129,558.00791 c 5.07512,0.0416 10.17315,0.303 15.24496,-0.008 5.13192,-0.31431 7.90549,-0.78972 13.19649,-1.48787 11.45744,-1.63904 5.73592,-0.77275 17.16454,-2.599 0,0 -12.0644,8.312 -12.0644,8.312 l 0,0 c -11.485,1.80762 -5.71379,0.92109 -17.31381,2.6585 -5.64359,0.78211 -8.22341,1.26453 -13.67634,1.6047 -5.20941,0.32499 -10.44628,-0.0203 -15.65911,0.2316 0,0 13.10768,-8.71229 13.10768,-8.71229 z"
       inkscape:connector-curvature="0" />
    <path
       style="opacity:1;fill:#0000ff;fill-opacity:1;stroke:none;stroke-opacity:1"
       id="path5038-4-5"
       d="m 578.84457,564.37941 c -0.93722,13.21793 -1.21169,26.49975 -1.44538,39.76778 -0.13904,13.99709 -0.39191,27.991 -0.58381,41.98681 0,0 -9.41696,6.43632 -9.41696,6.43632 l 0,0 c 0.49742,-14.05188 0.8536,-28.11048 0.88757,-42.18002 0.23484,-13.13719 0.60854,-26.27234 0.76168,-39.41002 0,0 9.7969,-6.60087 9.7969,-6.60087 z"
       inkscape:connector-curvature="0" />
    <path
       style="opacity:1;fill:#0000ff;fill-opacity:1;stroke:none;stroke-opacity:1"
       id="path5040-9-2"
       d="m 555.75822,657.07582 c 14.80464,0.48945 29.58066,-1.00604 44.31845,-2.21053 2.16047,-0.18086 4.32093,-0.36172 6.48141,-0.54257 0,0 -11.29966,8.34171 -11.29966,8.34171 l 0,0 c -2.11069,0.14463 -4.22141,0.28927 -6.33211,0.4339 -14.9758,1.08435 -29.9447,2.50444 -44.97259,2.55396 0,0 11.80449,-8.57647 11.80449,-8.57647 z"
       inkscape:connector-curvature="0" />
    <path
       style="opacity:1;fill:#0000ff;fill-opacity:1;stroke:none;stroke-opacity:1"
       id="path5042-4-3"
       d="m 605.19434,641.46828 c -0.23217,-9.1115 -0.22955,-18.24056 -0.26405,-27.36046 -0.069,-9.39695 0.0184,-18.79081 0.13116,-28.18513 0,0 6.95554,-6.29295 6.95554,-6.29295 l 0,0 c -0.10917,9.35762 -0.19269,18.71424 -0.0638,28.0734 0.0774,8.97834 0.0884,17.98307 0.59633,26.92511 0,0 -7.35516,6.84003 -7.35516,6.84003 z"
       inkscape:connector-curvature="0" />
    <path
       style="opacity:1;fill:#0000ff;fill-opacity:1;stroke:none;stroke-opacity:1"
       id="path5044-5-3"
       d="m 620.18425,570.00268 c 6.16096,-0.46551 12.27166,-1.42384 18.41002,-2.1143 4.01563,-0.45384 8.04492,-0.76862 12.08444,-0.88151 0,0 -11.95282,8.73615 -11.95282,8.73615 l 0,0 c -3.93425,0.11334 -7.86194,0.38278 -11.77557,0.8051 -6.26084,0.6972 -12.48983,1.71056 -18.7719,2.17731 0,0 12.00583,-8.72275 12.00583,-8.72275 z"
       inkscape:connector-curvature="0" />
    <path
       style="opacity:1;fill:#0000ff;fill-opacity:1;stroke:none;stroke-opacity:1"
       id="path5046-4-4"
       d="m 656.70812,570.19565 c -0.25752,11.69273 -0.27098,23.39417 -0.26527,35.09281 -0.006,10.27185 0.0445,20.54341 0.12491,30.81435 0,0 -7.926,6.49898 -7.926,6.49898 l 0,0 c 0.0799,-10.33922 0.13036,-20.67905 0.12491,-31.01918 0.006,-11.5536 -0.004,-23.11033 -0.26527,-34.6578 0,0 8.20672,-6.72916 8.20672,-6.72916 z"
       inkscape:connector-curvature="0" />
    <path
       style="opacity:1;fill:#0000ff;fill-opacity:1;stroke:none;stroke-opacity:1"
       id="path5048-0-5"
       d="m 645.68803,648.70975 c -12.02459,0.43102 -24.04939,0.87779 -36.07317,1.33811 -1.76542,0.0736 -3.53084,0.14728 -5.29626,0.22093 0,0 11.48186,-8.39694 11.48186,-8.39694 l 0,0 c 1.71105,-0.0349 3.42211,-0.0698 5.13316,-0.10471 12.25118,-0.33806 24.49293,-0.85633 36.71709,-1.74878 0,0 -11.96268,8.69139 -11.96268,8.69139 z"
       inkscape:connector-curvature="0" />
    <path
       style="opacity:1;fill:#000000;fill-opacity:1;stroke:none;stroke-opacity:1"
       id="path4980-5-6"
       d="m 42.321494,724.8246 c -0.171239,9.61581 -0.247619,19.23592 -0.331086,28.85415 -0.161939,26.41642 0.09268,52.83335 0.426534,79.2452 0,0 -7.340041,5.23691 -7.340041,5.23691 l 0,0 c 0.117363,-26.38872 0.09551,-52.78483 -0.532549,-79.16248 -0.234171,-9.4293 -0.339112,-18.85857 -0.480491,-28.29042 0,0 8.257633,-5.88336 8.257633,-5.88336 z"
       inkscape:connector-curvature="0" />
    <path
       style="opacity:1;fill:#000000;fill-opacity:1;stroke:none;stroke-opacity:1"
       id="path4982-2-8"
       d="m 40.783038,734.21828 c 5.264276,-0.32295 10.535583,-0.38157 15.804064,-0.46766 4.369458,0.15965 11.822831,-1.27869 15.437532,2.87006 0.934854,1.07299 1.530559,2.61918 2.295833,3.92876 0.582441,1.73376 1.246699,3.41827 1.747376,5.20125 2.082016,7.41454 3.020667,16.52158 3.026719,24.45789 0.0021,2.42748 -0.151816,4.8503 -0.227751,7.27545 -0.907986,11.05574 -1.956259,22.25077 -5.008293,32.62245 -0.624743,2.12307 -1.307062,4.22623 -2.148728,6.1974 -0.760488,1.78108 -1.75846,3.34161 -2.637663,5.0124 -3.150061,4.09239 -3.189938,4.60469 -7.016181,7.65688 -3.861884,3.08064 -7.744692,6.12154 -11.725726,8.88978 -1.473865,1.02487 -3.059283,1.7036 -4.611315,2.47032 -3.280229,1.62047 -5.116816,2.26967 -8.394706,3.56047 0,0 6.949063,-7.47549 6.949063,-7.47549 l 0,0 c 3.271437,-1.28674 4.961333,-1.86504 8.236115,-3.54041 1.547182,-0.79152 2.989446,-3.11864 4.588946,-2.56671 1.240011,0.4279 -4.380239,3.50544 -3.142308,3.06591 2.059895,-0.73134 5.583451,-5.40542 7.115737,-7.25431 0.923395,-1.61473 1.969689,-3.10592 2.770203,-4.8442 0.891318,-1.93552 1.618109,-4.01835 2.281409,-6.12536 3.204925,-10.18035 4.289394,-21.2801 5.063486,-32.25214 0.0635,-2.37577 0.194863,-4.74987 0.190694,-7.12728 -0.01372,-7.75844 -0.867631,-16.72955 -2.941754,-23.97024 -0.480733,-1.67821 -1.136482,-3.24772 -1.704712,-4.87157 -0.716718,-1.13953 -1.284097,-2.50405 -2.150154,-3.41856 -3.554154,-3.75294 -10.951046,-2.23205 -15.165641,-2.45689 -5.357249,0.10578 -10.729427,0.14538 -16.065993,0.87345 0,0 7.433748,-7.71165 7.433748,-7.71165 z"
       inkscape:connector-curvature="0" />
    <path
       style="opacity:1;fill:#000000;fill-opacity:1;stroke:none;stroke-opacity:1"
       id="path4984-2-5"
       d="m 87.147326,832.74588 c 0.131682,-8.93756 -0.217083,-17.86253 -0.565645,-26.78338 -0.529662,-16.7429 -1.056633,-33.48603 -1.53358,-50.23206 -0.142967,-5.88747 -0.307133,-11.77433 -0.388876,-17.66429 -0.04031,-1.98689 0.09541,-4.01766 0.553425,-5.90413 5.051307,-8.39973 10.402727,-7.9686 16.86734,-8.13685 7.93994,0.0203 15.87975,0.0584 23.8197,0.0671 3.68934,0.12417 7.37385,-0.16446 11.05921,-0.3221 1.39531,-0.0596 3.13384,-0.19193 4.54814,0.16717 0.47381,0.12026 0.91767,0.40886 1.37649,0.6133 0.31026,0.33457 0.67286,0.59134 0.93078,1.00377 0.93033,1.4876 0.79306,3.66662 0.71588,5.46212 -0.0921,2.14375 -0.33043,5.0119 -0.48814,7.09063 -1.43593,18.21857 -1.65859,36.57024 -1.94555,54.87871 -0.18036,12.23004 -0.082,24.46131 -0.004,36.69167 0.0588,4.43948 0.0869,8.87915 0.10917,13.31915 0.0162,2.43435 0.0324,4.86869 0.0406,7.30312 0.003,1.22815 0.002,0.61879 0.003,1.8281 0,0 -8.26131,5.8861 -8.26131,5.8861 l 0,0 c 0.002,-1.21208 6.2e-4,-0.60117 0.003,-1.83274 0.006,-2.45089 0.0211,-4.90171 0.0313,-7.35259 0.0119,-4.48879 0.0232,-8.97744 0.0893,-13.46561 0.11122,-12.36114 0.34736,-24.71979 0.51153,-37.07966 0.3011,-18.20733 0.857,-36.40407 1.40755,-54.59949 0.21958,-3.62789 0.24001,-3.54862 0.35824,-6.91147 0.0389,-1.10376 0.3115,-3.31858 -0.35292,-4.3143 -0.19719,-0.29554 -0.47959,-0.45141 -0.7194,-0.67712 -1.91993,-0.74393 -3.52811,-0.7085 -5.53275,-0.66963 -3.6438,0.0706 -7.28745,0.27529 -10.93244,0.14366 -8.01668,-0.0126 -16.03522,-0.0622 -24.050142,0.20927 -2.064379,0.0977 -4.171008,0.10005 -6.21505,0.58068 -0.433773,0.10196 -1.647998,0.77117 -1.284002,0.42583 5.516149,-5.23324 9.793577,-7.21473 6.391545,-5.58196 -0.125098,0.16971 -0.299496,0.28968 -0.375293,0.50916 -0.08914,0.25833 -0.0601,0.5676 -0.09424,0.85047 -0.1589,1.31623 -0.4192,2.61991 -0.354902,3.96873 -0.07073,5.98154 -0.105409,11.96414 -0.05339,17.94638 0.134383,16.77156 0.444888,33.55048 1.392335,50.27597 0.513612,8.79941 0.884447,17.6078 1.200175,26.42283 0,0 -8.257637,5.88337 -8.257637,5.88337 z"
       inkscape:connector-curvature="0" />
    <path
       style="opacity:1;fill:#000000;fill-opacity:1;stroke:none;stroke-opacity:1"
       id="path4986-5-9"
       d="m 92.090703,770.1828 c 9.875417,0.29151 19.753977,0.36719 29.631437,0.38796 14.35133,0.0377 28.69517,-0.69086 43.03382,-1.44488 0,0 -6.45993,6.60424 -6.45993,6.60424 l 0,0 c -14.35841,0.44288 -28.71536,0.96209 -43.07292,1.4548 -10.20369,0.25583 -20.408747,0.34047 -30.612228,0.59688 0,0 7.479811,-7.599 7.479811,-7.599 z"
       inkscape:connector-curvature="0" />
    <path
       style="opacity:1;fill:#000000;fill-opacity:1;stroke:none;stroke-opacity:1"
       id="path4988-4-9"
       d="m 198.35221,727.99716 c -0.34535,18.92993 -0.3557,37.86695 -0.37975,56.80502 0.10254,23.18992 -0.46758,46.36096 -0.76686,69.53931 0,0 -8.68773,8.04696 -8.68773,8.04696 l 0,0 c 0.50038,-23.14247 0.86391,-46.30013 0.75396,-69.46389 -0.0238,-18.70181 -0.0301,-37.40269 -0.37974,-56.09602 0,0 9.46012,-8.83138 9.46012,-8.83138 z"
       inkscape:connector-curvature="0" />
    <path
       style="opacity:1;fill:#000000;fill-opacity:1;stroke:none;stroke-opacity:1"
       id="path4990-6-2"
       d="m 170.0886,724.52939 c 9.13342,1.45681 18.30748,1.14225 27.46002,0.72405 13.47155,-1.1811 6.79253,-0.46591 20.03744,-2.13348 0,0 -7.52352,10.15536 -7.52352,10.15536 l 0,0 c -13.25322,1.55869 -6.54078,0.82166 -20.13761,2.20301 -9.50031,0.80643 -19.01912,1.4726 -28.52342,0.39584 0,0 8.68709,-11.34478 8.68709,-11.34478 z"
       inkscape:connector-curvature="0" />
    <ellipse
       style="opacity:1;fill:#0000ff;fill-opacity:1;stroke:none;stroke-opacity:1"
       id="path4992-5-5"
       cx="230.80432"
       cy="833.96545"
       rx="10.114661"
       ry="12.530973" />
    <ellipse
       style="opacity:1;fill:#0000ff;fill-opacity:1;stroke:none;stroke-opacity:1"
       id="path4994-4-4"
       cx="263.54388"
       cy="845.07239"
       rx="30.610159"
       ry="38.447304" />
    <ellipse
       style="opacity:1;fill:#0000ff;fill-opacity:1;stroke:none;stroke-opacity:1"
       id="path4996-7-4"
       cx="285.10403"
       cy="822.85846"
       rx="5.3235064"
       ry="15.094127" />
    <ellipse
       style="opacity:1;fill:#ffffff;fill-opacity:1;stroke:none;stroke-opacity:1"
       id="path4998-1-5"
       cx="259.01886"
       cy="831.40234"
       rx="12.776414"
       ry="17.372486" />
    <ellipse
       style="opacity:1;fill:#0000ff;fill-opacity:1;stroke:none;stroke-opacity:1"
       id="path5000-3-9"
       cx="254.22774"
       cy="823.14319"
       rx="6.920558"
       ry="7.4046659" />
    <path
       style="opacity:1;fill:#000000;fill-opacity:1;stroke:none;stroke-opacity:1"
       id="path5002-9-3"
       d="m 342.56711,728.91849 c 1.04424,20.09219 1.68083,40.23174 1.99291,60.38437 0.34855,26.48211 0.82349,52.96122 0.97275,79.44881 0.0275,3.1718 0.0553,6.34359 0.083,9.5154 0,0 -8.67492,7.07735 -8.67492,7.07735 l 0,0 c 0.0113,-3.20201 0.0217,-6.40401 0.0327,-9.60601 -0.0608,-26.53708 -0.006,-53.08398 -0.71814,-79.60345 -0.64062,-19.86145 -1.02347,-39.82365 -2.83452,-59.52162 0,0 9.14634,-7.69485 9.14634,-7.69485 z"
       inkscape:connector-curvature="0" />
    <path
       style="opacity:1;fill:#000000;fill-opacity:1;stroke:none;stroke-opacity:1"
       id="path5004-1-7"
       d="m 342.9317,739.65356 c 13.51762,2.0771 27.10817,2.72086 40.68354,3.25519 8.43065,0.31902 16.86356,0.41162 25.29646,0.41825 0,0 -9.34336,10.22707 -9.34336,10.22707 l 0,0 c -8.30728,-0.2646 -16.61499,-0.51012 -24.92082,-0.86721 -13.83795,-0.66755 -27.67194,-1.4471 -41.50127,-2.44782 0,0 9.78545,-10.58548 9.78545,-10.58548 z"
       inkscape:connector-curvature="0" />
    <path
       style="opacity:1;fill:#000000;fill-opacity:1;stroke:none;stroke-opacity:1"
       id="path5006-8-74"
       d="m 400.03693,742.9152 c -0.19944,9.17973 -0.25609,18.36198 -0.44962,27.54249 -0.21004,8.49533 -0.26944,16.99435 -0.29389,25.49332 -0.0766,4.46586 0.0454,8.93655 -0.0958,13.3998 -0.0331,0.58712 -0.0659,1.17425 -0.099,1.76138 0,0 -9.38112,6.0559 -9.38112,6.0559 l 0,0 c 0.0451,-0.57964 0.0902,-1.1593 0.13526,-1.73895 0.2476,-4.45487 0.0471,-8.93108 0.17684,-13.39363 0.20026,-8.57655 0.49289,-17.14945 0.63292,-25.72847 0.16834,-9.05939 0.26288,-18.12235 -0.0439,-27.17961 0,0 9.4185,-6.21223 9.4185,-6.21223 z"
       inkscape:connector-curvature="0" />
    <path
       style="opacity:1;fill:#000000;fill-opacity:1;stroke:none;stroke-opacity:1"
       id="path5008-6-29"
       d="m 349.71972,810.03345 c 4.42321,7.30207 9.7592,13.88726 15.06235,20.46239 9.16091,11.35819 18.66863,22.16427 28.41595,32.94618 10.63151,11.24933 5.56544,5.93696 15.18504,15.95135 0,0 -9.91336,6.46473 -9.91336,6.46473 l 0,0 c -9.21695,-10.29987 -4.33425,-4.85771 -14.65305,-16.32144 -9.65375,-10.85993 -19.21724,-21.78452 -28.68927,-32.82414 -5.56764,-6.48907 -11.27887,-12.85754 -16.39964,-19.76475 0,0 10.99198,-6.91432 10.99198,-6.91432 z"
       inkscape:connector-curvature="0" />
    <path
       style="opacity:1;fill:#000000;fill-opacity:1;stroke:none;stroke-opacity:1"
       id="path5010-0-2"
       d="m 386.02714,807.49113 c -15.54337,1.47774 -30.91568,4.40963 -46.28695,7.13182 -6.79961,1.06393 -13.5438,2.45428 -20.30162,3.75996 0,0 12.79294,-9.91414 12.79294,-9.91414 l 0,0 c 6.58594,-1.14572 13.16571,-2.33285 19.77487,-3.33213 15.67131,-2.65347 31.33789,-5.3341 47.04647,-7.74625 0,0 -13.0257,10.10074 -13.0257,10.10074 z"
       inkscape:connector-curvature="0" />
    <path
       style="opacity:1;fill:#000000;fill-opacity:1;stroke:none;stroke-opacity:1"
       id="path4984-9-3-4"
       d="m 437.03336,857.96188 c 0.13169,-8.93756 -0.21709,-17.86254 -0.56564,-26.78338 -0.52967,-16.7429 -1.05663,-33.48603 -1.53359,-50.23207 -0.14297,-5.88745 -0.30712,-11.77432 -0.38887,-17.66428 -0.0403,-1.98689 0.0954,-4.01766 0.55342,-5.90412 5.05132,-8.39974 10.40275,-7.96861 16.86737,-8.13686 7.93992,0.0203 15.87974,0.0584 23.81968,0.0671 3.68933,0.12416 7.37387,-0.16446 11.05922,-0.3221 1.39533,-0.0596 3.13383,-0.19194 4.54814,0.16717 0.47381,0.12026 0.91767,0.40885 1.3765,0.6133 0.31026,0.33457 0.67287,0.59134 0.93077,1.00377 0.93033,1.48759 0.79306,3.66662 0.71588,5.46212 -0.0921,2.14374 -0.33042,5.01189 -0.48813,7.09062 -1.43593,18.21858 -1.65859,36.57025 -1.94556,54.87872 -0.18035,12.23003 -0.082,24.46131 -0.004,36.69167 0.0588,4.43948 0.0869,8.87915 0.10918,13.31915 0.0162,2.43435 0.0324,4.86868 0.0407,7.30312 0.003,1.22815 0.002,0.6188 0.003,1.8281 0,0 -8.2613,5.8861 -8.2613,5.8861 l 0,0 c 0.002,-1.21208 6e-4,-0.60117 0.003,-1.83274 0.006,-2.45089 0.0211,-4.90171 0.0313,-7.35259 0.0118,-4.48879 0.0232,-8.97745 0.0894,-13.46561 0.1112,-12.36114 0.34736,-24.71979 0.51152,-37.07966 0.30111,-18.20733 0.857,-36.40406 1.40755,-54.5995 0.21958,-3.62789 0.24001,-3.54861 0.35825,-6.91147 0.0389,-1.10375 0.31149,-3.31857 -0.35292,-4.31429 -0.1972,-0.29554 -0.47957,-0.45141 -0.71939,-0.67712 -1.91993,-0.74393 -3.5281,-0.70849 -5.53276,-0.66963 -3.6438,0.0706 -7.28743,0.2753 -10.93242,0.14366 -8.01668,-0.0126 -16.03522,-0.0621 -24.05014,0.20927 -2.06438,0.0977 -4.17101,0.10005 -6.21505,0.58068 -0.43379,0.10195 -1.648,0.77117 -1.284,0.42583 5.51615,-5.23324 9.79357,-7.21473 6.39153,-5.58196 -0.12509,0.16972 -0.2995,0.28969 -0.37528,0.50915 -0.0891,0.25833 -0.0601,0.56761 -0.0942,0.85047 -0.1589,1.31623 -0.4192,2.61992 -0.3549,3.96874 -0.0707,5.98154 -0.10541,11.96413 -0.0533,17.94639 0.13438,16.77156 0.44488,33.55047 1.39233,50.27596 0.51361,8.79941 0.88445,17.6078 1.20018,26.42283 0,0 -8.25764,5.88337 -8.25764,5.88337 z"
       inkscape:connector-curvature="0" />
    <path
       style="opacity:1;fill:#000000;fill-opacity:1;stroke:none;stroke-opacity:1"
       id="path4986-2-1-2"
       d="m 441.97675,795.3988 c 9.87542,0.29151 19.75398,0.36719 29.63144,0.38796 14.35134,0.0377 28.69517,-0.69086 43.03384,-1.44489 0,0 -6.45994,6.60424 -6.45994,6.60424 l 0,0 c -14.35842,0.44289 -28.71536,0.9621 -43.0729,1.45482 -10.2037,0.25581 -20.40877,0.34046 -30.61224,0.59688 0,0 7.47982,-7.59901 7.47982,-7.59901 z"
       inkscape:connector-curvature="0" />
    <path
       style="opacity:1;fill:#000000;fill-opacity:1;stroke:none;stroke-opacity:1"
       id="path4988-1-3-6"
       d="m 548.23825,753.21315 c -0.34535,18.92994 -0.3557,37.86696 -0.37975,56.80503 0.10254,23.18991 -0.46759,46.36096 -0.76687,69.53931 0,0 -8.68771,8.04696 -8.68771,8.04696 l 0,0 c 0.50037,-23.14248 0.86391,-46.30013 0.75396,-69.46389 -0.0238,-18.70181 -0.0301,-37.40269 -0.37975,-56.09602 0,0 9.46012,-8.83139 9.46012,-8.83139 z"
       inkscape:connector-curvature="0" />
    <path
       style="opacity:1;fill:#000000;fill-opacity:1;stroke:none;stroke-opacity:1"
       id="path4990-9-8-2"
       d="m 519.97464,749.74539 c 9.13344,1.45681 18.30749,1.14224 27.46002,0.72405 13.47155,-1.1811 6.79253,-0.46592 20.03744,-2.13348 0,0 -7.5235,10.15536 -7.5235,10.15536 l 0,0 c -13.25322,1.55869 -6.54081,0.82166 -20.13762,2.20302 -9.5003,0.80642 -19.01912,1.47259 -28.52341,0.39583 0,0 8.68707,-11.34478 8.68707,-11.34478 z"
       inkscape:connector-curvature="0" />
    <path
       style="opacity:1;fill:#000000;fill-opacity:1;stroke:none;stroke-opacity:1"
       id="path5036-8-3"
       d="m 592.88069,745.66893 c 5.73601,0.0524 11.49791,0.38194 17.23019,-0.0101 5.8002,-0.39621 8.93494,-0.9955 14.91494,-1.87556 12.94945,-2.06612 6.48286,-0.97411 19.39973,-3.27621 0,0 -13.63544,10.47783 -13.63544,10.47783 l 0,0 c -12.98059,2.27862 -6.45785,1.1611 -19.56843,3.35122 -6.37851,0.9859 -9.29428,1.59403 -15.4573,2.02283 -5.88778,0.40968 -11.8066,-0.0256 -17.69826,0.29195 0,0 14.81458,-10.98242 14.81458,-10.98242 z"
       inkscape:connector-curvature="0" />
    <path
       style="opacity:1;fill:#000000;fill-opacity:1;stroke:none;stroke-opacity:1"
       id="path5038-4-3"
       d="m 612.58234,753.70063 c -1.05927,16.66209 -1.36948,33.40472 -1.63361,50.12996 -0.15714,17.64428 -0.44294,35.28455 -0.65983,52.9272 0,0 -10.64324,8.11343 -10.64324,8.11343 l 0,0 c 0.56219,-17.71334 0.96475,-35.43516 1.00315,-53.17077 0.26542,-16.56031 0.68779,-33.11805 0.86087,-49.67898 0,0 11.07266,-8.32084 11.07266,-8.32084 z"
       inkscape:connector-curvature="0" />
    <path
       style="opacity:1;fill:#000000;fill-opacity:1;stroke:none;stroke-opacity:1"
       id="path5040-9-9"
       d="m 586.48966,870.5507 c 16.73251,0.61699 33.43268,-1.26818 50.08965,-2.78652 2.44181,-0.22799 4.88361,-0.45598 7.32543,-0.68394 0,0 -12.77113,10.51529 -12.77113,10.51529 l 0,0 c -2.38554,0.18231 -4.77111,0.36464 -7.15668,0.54695 -16.92596,1.36689 -33.84413,3.15701 -50.82898,3.21944 0,0 13.3417,-10.81122 13.3417,-10.81122 z"
       inkscape:connector-curvature="0" />
    <path
       style="opacity:1;fill:#000000;fill-opacity:1;stroke:none;stroke-opacity:1"
       id="path5042-4-6"
       d="m 642.3634,850.87634 c -0.26239,-11.48566 -0.25944,-22.99345 -0.29843,-34.48969 -0.078,-11.8455 0.0208,-23.68709 0.14824,-35.52926 0,0 7.8613,-7.93269 7.8613,-7.93269 l 0,0 c -0.12339,11.79591 -0.21778,23.59056 -0.0721,35.38842 0.0874,11.3178 0.0999,22.66886 0.67399,33.94091 0,0 -8.31297,8.62231 -8.31297,8.62231 z"
       inkscape:connector-curvature="0" />
    <path
       style="opacity:1;fill:#000000;fill-opacity:1;stroke:none;stroke-opacity:1"
       id="path5044-5-6"
       d="m 659.30532,760.78914 c 6.96324,-0.5868 13.86969,-1.79484 20.8074,-2.66522 4.53855,-0.57209 9.09254,-0.9689 13.65809,-1.1112 0,0 -13.50933,11.01251 -13.50933,11.01251 l 0,0 c -4.44658,0.14288 -8.88573,0.48251 -13.309,1.01488 -7.07614,0.87887 -14.11628,2.15628 -21.2164,2.74465 0,0 13.56924,-10.99562 13.56924,-10.99562 z"
       inkscape:connector-curvature="0" />
    <path
       style="opacity:1;fill:#000000;fill-opacity:1;stroke:none;stroke-opacity:1"
       id="path5046-4-5"
       d="m 700.58538,761.03239 c -0.29106,14.73948 -0.30627,29.48993 -0.29982,44.23686 -0.006,12.94835 0.0503,25.89635 0.14118,38.84356 0,0 -8.95813,8.19241 -8.95813,8.19241 l 0,0 c 0.0903,-13.03329 0.14733,-26.06735 0.14117,-39.10177 0.006,-14.5641 -0.004,-29.13213 -0.29982,-43.6885 0,0 9.27542,-8.48256 9.27542,-8.48256 z"
       inkscape:connector-curvature="0" />
    <path
       style="opacity:1;fill:#000000;fill-opacity:1;stroke:none;stroke-opacity:1"
       id="path5048-0-3"
       d="m 688.13024,860.0047 c -13.59046,0.54333 -27.18113,1.10652 -40.77067,1.68678 -1.99532,0.0928 -3.99063,0.18566 -5.98594,0.2785 0,0 12.97704,-10.58491 12.97704,-10.58491 l 0,0 c 1.93387,-0.044 3.86774,-0.088 5.8016,-0.13199 13.84654,-0.42615 27.68244,-1.07946 41.49844,-2.20445 0,0 -13.52047,10.95607 -13.52047,10.95607 z"
       inkscape:connector-curvature="0" />
  </g>
</svg>
