<?xml version="1.0" encoding="UTF-8" standalone="no"?>
<!-- Created with Inkscape (http://www.inkscape.org/) -->

<svg
   xmlns:osb="http://www.openswatchbook.org/uri/2009/osb"
   xmlns:dc="http://purl.org/dc/elements/1.1/"
   xmlns:cc="http://creativecommons.org/ns#"
   xmlns:rdf="http://www.w3.org/1999/02/22-rdf-syntax-ns#"
   xmlns:svg="http://www.w3.org/2000/svg"
   xmlns="http://www.w3.org/2000/svg"
   xmlns:sodipodi="http://sodipodi.sourceforge.net/DTD/sodipodi-0.dtd"
   xmlns:inkscape="http://www.inkscape.org/namespaces/inkscape"
   width="464.52237"
   height="513.40948"
   id="svg2"
   version="1.1"
   inkscape:version="0.48.5 r10040"
   sodipodi:docname="mecha.svg"
   inkscape:export-filename="C:\Users\abcharbo\Source\Repos\DatRepo\manda's Art\mecha.png"
   inkscape:export-xdpi="90"
   inkscape:export-ydpi="90">
  <defs
     id="defs4">
    <linearGradient
       id="linearGradient4148"
       osb:paint="solid">
      <stop
         style="stop-color:#004800;stop-opacity:1;"
         offset="0"
         id="stop4150" />
    </linearGradient>
  </defs>
  <sodipodi:namedview
     id="base"
     pagecolor="#ffffff"
     bordercolor="#666666"
     borderopacity="1.0"
     inkscape:pageopacity="0.0"
     inkscape:pageshadow="2"
     inkscape:zoom="0.7071068"
     inkscape:cx="15.60411"
     inkscape:cy="247.94413"
     inkscape:document-units="px"
     inkscape:current-layer="layer8"
     showgrid="false"
     inkscape:window-width="1920"
     inkscape:window-height="1017"
     inkscape:window-x="-8"
     inkscape:window-y="-8"
     inkscape:window-maximized="1"
     fit-margin-top="0"
     fit-margin-left="0"
     fit-margin-right="0"
     fit-margin-bottom="0" />
  <metadata
     id="metadata7">
    <rdf:RDF>
      <cc:Work
         rdf:about="">
        <dc:format>image/svg+xml</dc:format>
        <dc:type
           rdf:resource="http://purl.org/dc/dcmitype/StillImage" />
        <dc:title></dc:title>
      </cc:Work>
    </rdf:RDF>
  </metadata>
  <g
     inkscape:groupmode="layer"
     id="layer3"
     inkscape:label="background"
     sodipodi:insensitive="true"
     style="display:none"
     transform="translate(-22.023105,-121.05263)">
    <rect
       style="opacity:0.18000004;fill:#00fff0;fill-opacity:0.95767194"
       id="rect2993"
       width="942.85718"
       height="1148.5714"
       x="-88.571426"
       y="-67.637817" />
  </g>
  <g
     inkscape:groupmode="layer"
     id="layer17"
     inkscape:label="NEW wing1"
     style="display:none"
     transform="translate(-22.023105,-121.05263)">
    <path
       sodipodi:type="star"
       style="fill:#800000;fill-opacity:1"
       id="path4362"
       sodipodi:sides="5"
       sodipodi:cx="93.338097"
       sodipodi:cy="394.04578"
       sodipodi:r1="107.52906"
       sodipodi:r2="88.344704"
       sodipodi:arg1="0.16514868"
       sodipodi:arg2="0.567871"
       inkscape:flatsided="false"
       inkscape:rounded="0"
       inkscape:randomized="0"
       d="m 199.40411,411.72345 -31.58719,29.8375 -58.51509,58.8223 L 71.1637,479.56234 -2.8617825,442.08828 5.1547453,399.38274 17.919564,317.4002 l 43.092621,-5.57256 81.914575,-13.19394 18.61618,39.26151 z"
       inkscape:transform-center-x="-3.7086262"
       inkscape:transform-center-y="4.2182"
       transform="matrix(0.7517892,0,0,0.77218317,54.444002,84.297235)" />
    <path
       sodipodi:type="star"
       style="fill:#828282;fill-opacity:1"
       id="path4362-3"
       sodipodi:sides="5"
       sodipodi:cx="93.338097"
       sodipodi:cy="394.04578"
       sodipodi:r1="107.52906"
       sodipodi:r2="88.344704"
       sodipodi:arg1="0.16514868"
       sodipodi:arg2="0.567871"
       inkscape:flatsided="false"
       inkscape:rounded="0"
       inkscape:randomized="0"
       d="m 199.40411,411.72345 -31.58719,29.8375 -58.51509,58.8223 L 71.1637,479.56234 -2.8617825,442.08828 5.1547453,399.38274 17.919564,317.4002 l 43.092621,-5.57256 81.914575,-13.19394 18.61618,39.26151 z"
       inkscape:transform-center-x="-3.6223985"
       inkscape:transform-center-y="4.0650333"
       transform="matrix(0.73430957,0,0,0.74414418,59.713957,99.582308)" />
  </g>
  <g
     inkscape:groupmode="layer"
     id="layer19"
     inkscape:label="NEW tail"
     style="display:inline"
     transform="translate(-22.023105,-121.05263)">
    <path
       style="fill:#828282;fill-opacity:1;stroke:none;display:inline"
       d="M 138.86401,493.32556 C 56.249233,530.3789 22.023105,411.20734 22.023105,411.20734 c 0,0 62.551201,60.0865 105.038815,53.0764 29.50528,18.02595 11.80209,29.04182 11.80209,29.04182 z"
       id="path4779-3"
       inkscape:connector-curvature="0" />
    <path
       style="fill:#828282;fill-opacity:1;stroke:none;display:inline"
       d="m 127.25601,490.53156 c -67.576701,31.30283 -95.572782,-69.3738 -95.572782,-69.3738 0,0 51.165239,50.76131 85.918982,44.83916 24.13453,15.2284 9.6538,24.53464 9.6538,24.53464 z"
       id="path4779-2-0"
       inkscape:connector-curvature="0" />
  </g>
  <g
     inkscape:groupmode="layer"
     id="layer16"
     inkscape:label="NEW body"
     style="display:inline"
     transform="translate(-22.023105,-121.05263)">
    <ellipse
       style="fill:#1c1c1c;fill-opacity:1"
       id="path4291"
       cx="258.09399"
       cy="465.81711"
       rx="140.71425"
       ry="114.19773"
       sodipodi:cx="258.09399"
       sodipodi:cy="465.81711"
       sodipodi:rx="140.71425"
       sodipodi:ry="114.19773"
       d="m 398.80824,465.81711 c 0,63.06966 -62.99991,114.19773 -140.71425,114.19773 -77.71433,0 -140.71424,-51.12807 -140.71424,-114.19773 0,-63.06967 62.99991,-114.19773 140.71424,-114.19773 77.71434,0 140.71425,51.12806 140.71425,114.19773 z" />
    <ellipse
       style="fill:#343434;fill-opacity:1"
       id="path4291-9"
       cx="254.86623"
       cy="468.28967"
       rx="133.28963"
       ry="110.30864"
       sodipodi:cx="254.86623"
       sodipodi:cy="468.28967"
       sodipodi:rx="133.28963"
       sodipodi:ry="110.30864"
       d="m 388.15585,468.28967 c 0,60.92178 -59.6758,110.30864 -133.28962,110.30864 -73.61383,0 -133.28963,-49.38686 -133.28963,-110.30864 0,-60.92178 59.6758,-110.30864 133.28963,-110.30864 73.61382,0 133.28962,49.38686 133.28962,110.30864 z" />
  </g>
  <g
     inkscape:groupmode="layer"
     id="layer18"
     inkscape:label="NEW wing2"
     style="display:none"
     transform="translate(-22.023105,-121.05263)">
    <path
       sodipodi:type="star"
       style="fill:#800000;fill-opacity:1"
       id="path4362-0"
       sodipodi:sides="5"
       sodipodi:cx="93.338097"
       sodipodi:cy="394.04578"
       sodipodi:r1="107.52906"
       sodipodi:r2="88.344704"
       sodipodi:arg1="0.16514868"
       sodipodi:arg2="0.567871"
       inkscape:flatsided="false"
       inkscape:rounded="0"
       inkscape:randomized="0"
       d="m 199.40411,411.72345 -31.58719,29.8375 -58.51509,58.8223 L 71.1637,479.56234 -2.8617825,442.08828 5.1547453,399.38274 17.919564,317.4002 l 43.092621,-5.57256 81.914575,-13.19394 18.61618,39.26151 z"
       inkscape:transform-center-x="-3.7086262"
       inkscape:transform-center-y="4.2182"
       transform="matrix(0.7517892,0,0,0.77218317,67.357033,84.217544)" />
    <path
       sodipodi:type="star"
       style="fill:#828282;fill-opacity:1"
       id="path4362-3-2"
       sodipodi:sides="5"
       sodipodi:cx="93.338097"
       sodipodi:cy="394.04578"
       sodipodi:r1="107.52906"
       sodipodi:r2="88.344704"
       sodipodi:arg1="0.16514868"
       sodipodi:arg2="0.567871"
       inkscape:flatsided="false"
       inkscape:rounded="0"
       inkscape:randomized="0"
       d="m 199.40411,411.72345 -31.58719,29.8375 -58.51509,58.8223 L 71.1637,479.56234 -2.8617825,442.08828 5.1547453,399.38274 17.919564,317.4002 l 43.092621,-5.57256 81.914575,-13.19394 18.61618,39.26151 z"
       inkscape:transform-center-x="-3.4671881"
       inkscape:transform-center-y="3.8544258"
       transform="matrix(0.70284623,0,0,0.70559056,72.536952,111.01602)" />
  </g>
  <g
     inkscape:groupmode="layer"
     id="layer7"
     inkscape:label="NEW leg 3"
     style="display:inline"
     transform="translate(-22.023105,-121.05263)">
    <ellipse
       style="fill:#1c1c1c;fill-opacity:1"
       id="path4208"
       cx="181.72644"
       cy="529.81024"
       rx="75.660423"
       ry="73.539101"
       sodipodi:cx="181.72644"
       sodipodi:cy="529.81024"
       sodipodi:rx="75.660423"
       sodipodi:ry="73.539101"
       d="m 257.38686,529.81024 c 0,40.61453 -33.87432,73.5391 -75.66042,73.5391 -41.7861,0 -75.66042,-32.92457 -75.66042,-73.5391 0,-40.61452 33.87432,-73.5391 75.66042,-73.5391 41.7861,0 75.66042,32.92458 75.66042,73.5391 z" />
    <ellipse
       style="fill:#1c1c1c;fill-opacity:1"
       id="path4210"
       cx="211.42493"
       cy="595.57129"
       rx="53.740112"
       ry="37.476658"
       sodipodi:cx="211.42493"
       sodipodi:cy="595.57129"
       sodipodi:rx="53.740112"
       sodipodi:ry="37.476658"
       d="m 265.16504,595.57129 c 0,20.69779 -24.06027,37.47666 -53.74011,37.47666 -29.67985,0 -53.74012,-16.77887 -53.74012,-37.47666 0,-20.69779 24.06027,-37.47666 53.74012,-37.47666 29.67984,0 53.74011,16.77887 53.74011,37.47666 z" />
    <ellipse
       style="fill:#828282;fill-opacity:1"
       id="path4208-2"
       cx="179.95868"
       cy="527.33551"
       rx="73.185547"
       ry="70.357117"
       sodipodi:cx="179.95868"
       sodipodi:cy="527.33551"
       sodipodi:rx="73.185547"
       sodipodi:ry="70.357117"
       d="m 253.14423,527.33551 c 0,38.85716 -32.76629,70.35712 -73.18555,70.35712 -40.41926,0 -73.18555,-31.49996 -73.18555,-70.35712 0,-38.85716 32.76629,-70.35712 73.18555,-70.35712 40.41926,0 73.18555,31.49996 73.18555,70.35712 z" />
    <ellipse
       style="fill:#828282;fill-opacity:1"
       id="path4210-6"
       cx="209.3036"
       cy="595.9248"
       rx="48.790363"
       ry="31.466249"
       sodipodi:cx="209.3036"
       sodipodi:cy="595.9248"
       sodipodi:rx="48.790363"
       sodipodi:ry="31.466249"
       d="m 258.09397,595.9248 c 0,17.37833 -21.84419,31.46625 -48.79037,31.46625 -26.94617,0 -48.79036,-14.08792 -48.79036,-31.46625 0,-17.37833 21.84419,-31.46624 48.79036,-31.46624 26.94618,0 48.79037,14.08791 48.79037,31.46624 z" />
  </g>
  <g
     inkscape:groupmode="layer"
     id="layer2"
     inkscape:label="NEW leg 1"
     style="display:inline"
     transform="translate(-22.023105,-121.05263)">
    <ellipse
       style="fill:#1c1c1c;fill-opacity:1"
       id="path3399"
       cx="318.55161"
       cy="506.4758"
       rx="61.164734"
       ry="65.053818"
       sodipodi:cx="318.55161"
       sodipodi:cy="506.4758"
       sodipodi:rx="61.164734"
       sodipodi:ry="65.053818"
       d="m 379.71634,506.4758 c 0,35.92823 -27.38439,65.05382 -61.16473,65.05382 -33.78035,0 -61.16474,-29.12559 -61.16474,-65.05382 0,-35.92823 27.38439,-65.05382 61.16474,-65.05382 33.78034,0 61.16473,29.12559 61.16473,65.05382 z" />
    <ellipse
       style="fill:#1c1c1c;fill-opacity:1"
       id="path3401"
       cx="306.53079"
       cy="554.9126"
       rx="51.26524"
       ry="61.871841"
       sodipodi:cx="306.53079"
       sodipodi:cy="554.9126"
       sodipodi:rx="51.26524"
       sodipodi:ry="61.871841"
       d="m 357.79603,554.9126 c 0,34.17087 -22.95223,61.87184 -51.26524,61.87184 -28.31301,0 -51.26524,-27.70097 -51.26524,-61.87184 0,-34.17088 22.95223,-61.87184 51.26524,-61.87184 28.31301,0 51.26524,27.70096 51.26524,61.87184 z" />
    <ellipse
       style="fill:#1c1c1c;fill-opacity:1"
       id="path3403"
       cx="334.46149"
       cy="597.33899"
       rx="53.033009"
       ry="37.123104"
       sodipodi:cx="334.46149"
       sodipodi:cy="597.33899"
       sodipodi:rx="53.033009"
       sodipodi:ry="37.123104"
       d="m 387.4945,597.33899 c 0,20.50252 -23.74369,37.1231 -53.03301,37.1231 -29.28933,0 -53.03301,-16.62058 -53.03301,-37.1231 0,-20.50253 23.74368,-37.1231 53.03301,-37.1231 29.28932,0 53.03301,16.62057 53.03301,37.1231 z" />
    <ellipse
       style="fill:#828282;fill-opacity:1"
       id="path3399-9"
       cx="318.6575"
       cy="504.23141"
       rx="58.875145"
       ry="64.577232"
       sodipodi:cx="318.6575"
       sodipodi:cy="504.23141"
       sodipodi:rx="58.875145"
       sodipodi:ry="64.577232"
       d="m 377.53265,504.23141 c 0,35.66503 -26.3593,64.57724 -58.87515,64.57724 -32.51584,0 -58.87514,-28.91221 -58.87514,-64.57724 0,-35.66502 26.3593,-64.57723 58.87514,-64.57723 32.51585,0 58.87515,28.91221 58.87515,64.57723 z" />
    <ellipse
       style="fill:#828282;fill-opacity:1"
       id="path3401-5"
       cx="307.08667"
       cy="552.31335"
       rx="49.346218"
       ry="61.418568"
       sodipodi:cx="307.08667"
       sodipodi:cy="552.31335"
       sodipodi:rx="49.346218"
       sodipodi:ry="61.418568"
       d="m 356.43289,552.31335 c 0,33.92054 -22.09306,61.41857 -49.34622,61.41857 -27.25316,0 -49.34622,-27.49803 -49.34622,-61.41857 0,-33.92053 22.09306,-61.41856 49.34622,-61.41856 27.25316,0 49.34622,27.49803 49.34622,61.41856 z" />
    <ellipse
       style="fill:#828282;fill-opacity:1"
       id="path3403-4"
       cx="328.31494"
       cy="595.8432"
       rx="51.047817"
       ry="36.851139"
       sodipodi:cx="328.31494"
       sodipodi:cy="595.8432"
       sodipodi:rx="51.047817"
       sodipodi:ry="36.851139"
       d="m 379.36276,595.8432 c 0,20.35232 -22.85489,36.85114 -51.04782,36.85114 -28.19293,0 -51.04782,-16.49882 -51.04782,-36.85114 0,-20.35232 22.85489,-36.85114 51.04782,-36.85114 28.19293,0 51.04782,16.49882 51.04782,36.85114 z" />
  </g>
  <g
     inkscape:groupmode="layer"
     id="layer13"
     inkscape:label="2ndear"
     style="display:inline"
     transform="translate(-22.023105,-121.05263)">
    <ellipse
       style="fill:#17403e;fill-opacity:0.56078384;stroke:none"
       id="path4937"
       transform="matrix(1.9452909,0.79589001,-1.0767016,3.359781,-227.15842,-474.52814)"
       cx="296.78571"
       cy="122.36218"
       rx="14.642858"
       ry="15"
       sodipodi:cx="296.78571"
       sodipodi:cy="122.36218"
       sodipodi:rx="14.642858"
       sodipodi:ry="15"
       d="m 311.42856,122.36218 c 0,8.28427 -6.55583,15 -14.64285,15 -8.08703,0 -14.64286,-6.71573 -14.64286,-15 0,-8.28427 6.55583,-15 14.64286,-15 8.08702,0 14.64285,6.71573 14.64285,15 z" />
    <ellipse
       style="fill:#343434;fill-opacity:1;stroke:none;display:inline"
       id="path4937-5"
       transform="matrix(1.9452909,0.79589001,-1.0767016,3.359781,-225.37747,-468.51906)"
       cx="296.78571"
       cy="122.36218"
       rx="14.642858"
       ry="15"
       sodipodi:cx="296.78571"
       sodipodi:cy="122.36218"
       sodipodi:rx="14.642858"
       sodipodi:ry="15"
       d="m 311.42856,122.36218 c 0,8.28427 -6.55583,15 -14.64285,15 -8.08703,0 -14.64286,-6.71573 -14.64286,-15 0,-8.28427 6.55583,-15 14.64286,-15 8.08702,0 14.64285,6.71573 14.64285,15 z" />
    <path
       style="fill:#1c1c1c;fill-opacity:1;display:inline"
       d="m 309.65143,163.2113 c -78.10884,0 -141.40625,61.41434 -141.40625,137.15625 0,75.74191 63.29741,137.125 141.40625,137.125 43.48188,0 82.3158,-19.0611 108.25,-49 -0.0932,-0.065 -0.15274,-0.11911 -0.25,-0.1875 -1.1841,-0.23788 -2.4194,-0.57033 -2.875,-1.0625 -0.26001,-0.28089 -0.48057,-0.59017 -0.71875,-0.875 -0.27349,-0.0621 -0.55614,-0.13464 -0.84375,-0.21875 -0.45402,-0.1047 -0.89966,-0.20981 -1.34375,-0.34375 -0.20423,-0.0616 -0.40106,-0.15145 -0.59375,-0.25 -0.009,-0.003 -0.022,0.003 -0.0312,0 -2.04841,-0.59398 -3.42077,-0.94467 -4.875,-2.21875 -1.78254,-0.63533 -2.09704,-0.8266 -2.96875,-1.4375 -1.79807,-0.36627 -2.04275,-0.77772 -3.84375,-1.90625 -0.0732,-0.0459 -0.18862,-0.0642 -0.25,-0.125 -0.12255,-0.12144 -0.22529,-0.24953 -0.34375,-0.375 -0.15588,-0.0578 -0.32467,-0.12818 -0.4375,-0.15625 -1.71203,-0.42586 -3.02064,-1.46614 -4.28125,-2.4375 -0.0611,-0.0422 -0.12655,-0.0827 -0.1875,-0.125 -0.48056,-0.14412 -0.99039,-0.33408 -1.375,-0.65625 -0.65417,-0.54795 -1.14497,-1.02268 -1.53125,-1.4375 -0.36526,0.025 -0.74966,-0.42244 -1.09375,-0.625 -1.53806,-0.90549 -2.43469,-1.73441 -3.375,-2.6875 -0.006,-0.004 -0.0842,-0.0862 -0.0937,-0.0937 -0.0152,-0.0402 -0.0781,-0.16441 -0.25,-0.375 -1.7538,-0.69573 -0.61748,-0.4842 -1.53125,-0.65625 l -1.96875,-2.125 c 0.0567,0.0869 0.14858,0.21642 0.1875,0.28125 0.0118,0.0197 0.002,0.0258 0,0.0312 -0.0171,-0.007 -0.0645,-0.0428 -0.0937,-0.0625 0.0921,0.13163 0.33788,0.49219 0.25,0.375 -0.10048,-0.13398 -0.20475,-0.27613 -0.3125,-0.40625 -0.1097,-0.0799 -0.23816,-0.19599 -0.3125,-0.25 -0.40783,-0.29628 -0.78668,-0.60056 -1.1875,-0.90625 0.38381,0.26086 0.82688,0.56393 1.1875,0.78125 -0.29357,-0.35668 -0.56679,-0.70549 -0.75,-1.125 -0.2313,-0.52964 0.55279,0.56909 1,1.25 0.0127,0.006 0.0191,0.0253 0.0312,0.0312 0.77215,0.37825 0.57415,-0.25319 -3.625,-4.78125 -0.38054,-0.41035 0.22018,0.48287 0.59375,1.3125 0.45321,0.4398 0.83109,1.0793 0.46875,0.9375 -0.0846,-0.0331 -0.14347,-0.10876 -0.21875,-0.15625 0.003,0.0291 2.7e-4,0.0672 0,0.0937 -0.004,0.38702 -0.76688,-0.56146 -0.9375,-1.03125 -0.11294,-0.14253 -0.21867,-0.28238 -0.34375,-0.40625 0.10657,0.10246 0.13676,0.14178 0.3125,0.3125 -0.005,-0.0301 -0.005,-0.0732 0,-0.0937 -0.90438,-0.89573 -2.14048,-2.11219 -2.5626,-3.0312 -0.11109,-0.24186 -0.19108,-0.49947 -0.28125,-0.75 -0.45289,-0.31148 -1.03674,-0.99862 -1.15625,-1.625 -0.0725,-0.38007 0.25455,0.0846 0.625,0.59375 -0.22176,-0.58883 -0.47267,-1.35242 -0.46875,-1.5 l -1.03125,-2.25 c 0.009,0.0577 -0.0506,-0.0629 -0.125,-0.15625 0.15472,0.63581 0.34231,1.28643 0.34375,1.9375 7.7e-4,0.3456 -0.32988,-0.60908 -0.4375,-0.9375 -0.20473,-0.62477 -0.39582,-1.2571 -0.5,-1.90625 -0.65277,-1.28065 -0.78355,-2.5523 -0.75,-3.9375 -0.54056,-0.95378 -1.08701,-2.05773 -1,-2.75 -0.15823,-0.69741 -0.31149,-1.39611 -0.46875,-2.09375 0.0535,-0.32511 0.10199,-0.64376 0.15625,-0.96875 -0.10656,-0.53456 -0.20581,-1.07661 -0.375,-1.59375 -0.10516,-0.32139 0.28262,1.2805 0.0937,1 -0.63609,-0.94465 -0.52926,-3.66282 -0.40625,-4.71875 0.20883,-1.79257 0.65784,-2.58952 1.21875,-2.75 0.42675,-3.55321 4.18423,-6.87276 11.25,-6.6875 2.66445,0.0699 5.28091,-0.43575 7.9375,-0.0625 0.73408,0.19923 1.46054,0.36993 2.1875,0.59375 0.054,0.0166 0.16646,0.039 0.25,0.0625 0.57695,0.0284 1.21134,0.14278 1.84375,0.28125 1.04062,-0.30153 2.27636,-0.45099 3.6875,-0.40625 0.80455,0.0255 0.36998,0.0231 1.3125,0.0312 2.02534,-0.0972 4.14157,-0.51189 5.9375,0.59375 0.0284,9.1e-4 0.0675,0.002 0.0937,0 1.8945,-0.13311 3.75869,-0.0595 5.34375,0.78125 l 2.375,0 c 1.41284,-1e-5 2.83717,-1.1e-4 4.25,0 1.43066,1.9e-4 2.8506,10e-4 4.28125,0 1.50733,1.1e-4 3.02393,0.008 4.53125,0 1.53616,-0.008 3.05877,-0.048 4.59375,0.0312 0.98271,0.0294 1.95365,-0.23797 2.9375,-0.21875 2.00943,0.0392 1.95777,0.16098 3.78125,0.78125 0.0177,0.009 0.0141,0.0225 0.0312,0.0312 0.91346,-0.10564 0.91757,-0.0972 2.59375,0 0.0893,0.02 2.33761,0.46823 2.59375,0.6875 0.14414,0.12339 -0.72332,-0.007 -0.5625,0.0937 0.28534,0.17868 1.60848,-0.11493 2,0 l 1.6875,0 c 2.718,-10.60483 4.1875,-21.67296 4.1875,-33.09375 0,-75.74191 -63.32866,-137.15625 -141.4375,-137.15625 z m 73.15625,204.875 -0.34375,-0.375 c 0.0709,0.10171 0.0998,0.14436 0.21875,0.3125 0.0461,0.026 0.0835,0.0413 0.125,0.0625 z m 13.40625,-18.625 c -0.001,0.0312 0.002,0.0623 0,0.0937 0.0205,0.0101 0.0419,0.0213 0.0625,0.0312 0.008,-0.0294 0.0227,-0.0626 0.0312,-0.0937 -0.0265,-0.002 -0.0721,-0.0312 -0.0937,-0.0312 z m -20.34375,10 c 0.0437,0.15506 0.038,0.215 0.0625,0.3125 0.0269,0.0361 0.0681,0.0601 0.0937,0.0937 -0.0479,-0.13823 -0.10532,-0.26927 -0.15625,-0.40625 z m 8.53125,9.25 c -0.0951,0.002 1.03558,1.50528 1.5625,1.9375 0.0622,0.051 0.18378,0.10103 0.28125,0.15625 -0.57453,-0.69174 -1.51239,-1.79742 -1.71875,-2 -0.0695,-0.0682 -0.11141,-0.094 -0.125,-0.0937 z m 2.4375,2.375 c 0.63314,0.26978 1.26522,0.48087 0.875,0.34375 -0.4465,-0.1569 -0.56952,-0.22886 -0.875,-0.34375 z m 3.25,2.25 c 0.0197,0.036 0.1367,0.24168 0.28125,0.59375 0.0672,0.0516 0.20331,0.10014 0.3125,0.15625 -0.37546,-0.46758 -0.6225,-0.80247 -0.59375,-0.75 z m 7.46875,4.71875 c 0.16919,0.20123 0.38999,0.48829 0.5,0.625 0.0582,0.0268 0.1266,0.0389 0.1875,0.0625 -0.21905,-0.23981 -0.45784,-0.45822 -0.6875,-0.6875 z m 4.84375,3.15625 c -0.15311,-0.10387 0.26942,0.25047 0.40625,0.375 0.064,0.0285 0.1782,0.0844 0.28125,0.125 -0.21329,-0.14964 -0.37688,-0.28927 -0.6875,-0.5 z m 1.46875,0.53125 c -0.70651,0.0511 1.35472,1.01541 2.34375,1.46875 -0.1966,-0.17978 -0.38547,-0.43737 -0.59375,-0.65625 -0.27802,-0.12143 -0.51987,-0.25214 -1.125,-0.625 -0.0493,-0.067 -0.0461,-0.0603 -0.0937,-0.125 -0.20864,-0.0301 -0.43519,-0.0695 -0.53125,-0.0625 z"
       id="path2985-1-6"
       inkscape:connector-curvature="0" />
  </g>
  <g
     inkscape:groupmode="layer"
     id="layer8"
     inkscape:label="head2"
     style="display:inline"
     transform="translate(-22.023105,-121.05263)">
    <path
       style="opacity:0.47000002;fill:#1c1c1c;fill-opacity:1;display:inline"
       d="m 320.23312,157.38657 c -76.53088,0 -138.5625,58.85151 -138.5625,131.4375 0,72.58599 62.03162,131.40625 138.5625,131.40625 36.93235,0 70.44708,-13.74774 95.28125,-36.09375 -0.66563,-0.29719 -1.30901,-0.67199 -1.96875,-1.25 -1.78254,-0.63533 -2.09704,-0.8266 -2.96875,-1.4375 -1.79807,-0.36627 -2.04275,-0.77772 -3.84375,-1.90625 -0.0732,-0.0459 -0.18862,-0.0642 -0.25,-0.125 -0.12255,-0.12144 -0.22529,-0.24953 -0.34375,-0.375 -0.15588,-0.0578 -0.32467,-0.12818 -0.4375,-0.15625 -1.71203,-0.42586 -3.02064,-1.46614 -4.28125,-2.4375 -0.0611,-0.0422 -0.12655,-0.0827 -0.1875,-0.125 -0.48056,-0.14412 -0.99039,-0.33408 -1.375,-0.65625 -0.65417,-0.54795 -1.14497,-1.02268 -1.53125,-1.4375 -0.36526,0.025 -0.74966,-0.42244 -1.09375,-0.625 -1.53806,-0.90549 -2.43469,-1.73441 -3.375,-2.6875 -0.006,-0.004 -0.0842,-0.0862 -0.0937,-0.0937 -0.0152,-0.0402 -0.0781,-0.16441 -0.25,-0.375 -1.7538,-0.69573 -0.61748,-0.4842 -1.53125,-0.65625 l -1.96875,-2.125 c 0.0567,0.0869 0.14858,0.21642 0.1875,0.28125 0.0118,0.0197 0.002,0.0258 0,0.0312 -0.0171,-0.007 -0.0645,-0.0428 -0.0937,-0.0625 0.0921,0.13163 0.33788,0.49219 0.25,0.375 -0.10048,-0.13398 -0.20475,-0.27613 -0.3125,-0.40625 -0.1097,-0.0799 -0.23816,-0.19599 -0.3125,-0.25 -0.40783,-0.29628 -0.78668,-0.60056 -1.1875,-0.90625 0.38381,0.26086 0.82688,0.56393 1.1875,0.78125 -0.29357,-0.35668 -0.56679,-0.70549 -0.75,-1.125 -0.2313,-0.52964 0.55279,0.56909 1,1.25 0.0127,0.006 0.0191,0.0253 0.0312,0.0312 0.77215,0.37825 0.57415,-0.25319 -3.625,-4.78125 -0.38054,-0.41035 0.22018,0.48287 0.59375,1.3125 0.45321,0.4398 0.83109,1.0793 0.46875,0.9375 -0.0846,-0.0331 -0.14347,-0.10876 -0.21875,-0.15625 0.003,0.0291 2.7e-4,0.0672 0,0.0937 -0.004,0.38702 -0.76688,-0.56146 -0.9375,-1.03125 -0.11294,-0.14253 -0.21867,-0.28238 -0.34375,-0.40625 0.10657,0.10246 0.13676,0.14178 0.3125,0.3125 -0.005,-0.0301 -0.005,-0.0732 0,-0.0937 -0.90433,-0.89573 -2.14043,-2.11219 -2.56255,-3.0312 -0.11109,-0.24186 -0.19108,-0.49947 -0.28125,-0.75 -0.45289,-0.31148 -1.03674,-0.99862 -1.15625,-1.625 -0.0725,-0.38007 0.25455,0.0846 0.625,0.59375 -0.22176,-0.58883 -0.47267,-1.35242 -0.46875,-1.5 l -1.03125,-2.25 c 0.009,0.0577 -0.0506,-0.0629 -0.125,-0.15625 0.15472,0.63581 0.34231,1.28643 0.34375,1.9375 7.7e-4,0.3456 -0.32988,-0.60908 -0.4375,-0.9375 -0.20473,-0.62477 -0.39582,-1.2571 -0.5,-1.90625 -0.65277,-1.28065 -0.78355,-2.5523 -0.75,-3.9375 -0.54056,-0.95378 -1.08701,-2.05773 -1,-2.75 -0.15823,-0.69741 -0.31149,-1.39611 -0.46875,-2.09375 0.0535,-0.32511 0.10199,-0.64376 0.15625,-0.96875 -0.10656,-0.53456 -0.20581,-1.07661 -0.375,-1.59375 -0.10516,-0.32139 0.28262,1.2805 0.0937,1 -0.63609,-0.94465 -0.52926,-3.66282 -0.40625,-4.71875 0.20883,-1.79257 0.65784,-2.58952 1.21875,-2.75 0.42675,-3.55321 4.18423,-6.87276 11.25,-6.6875 2.66445,0.0699 5.28091,-0.43575 7.9375,-0.0625 0.73408,0.19923 1.46054,0.36993 2.1875,0.59375 0.054,0.0166 0.16646,0.039 0.25,0.0625 0.57695,0.0284 1.21134,0.14278 1.84375,0.28125 1.04062,-0.30153 2.27636,-0.45099 3.6875,-0.40625 0.80455,0.0255 0.36998,0.0231 1.3125,0.0312 2.02534,-0.0972 4.14157,-0.51189 5.9375,0.59375 0.0284,9.1e-4 0.0675,0.002 0.0937,0 1.8945,-0.13311 3.75869,-0.0595 5.34375,0.78125 l 2.375,0 c 1.41284,-1e-5 2.83717,-1.1e-4 4.25,0 1.43066,1.9e-4 2.8506,10e-4 4.28125,0 1.50733,1.1e-4 3.02393,0.008 4.53125,0 1.53616,-0.008 3.05877,-0.048 4.59375,0.0312 0.98271,0.0294 1.95365,-0.23797 2.9375,-0.21875 2.00943,0.0392 1.95777,0.16098 3.78125,0.78125 0.0177,0.009 0.0141,0.0225 0.0312,0.0312 0.91346,-0.10564 0.91757,-0.0972 2.59375,0 0.0835,0.0187 2.00325,0.3943 2.46875,0.625 5.16458,-13.76543 8,-28.585 8,-44.03125 0,-72.58599 -62.06287,-131.4375 -138.59375,-131.4375 z m 69.75,210.25 -0.34375,-0.375 c 0.0709,0.10171 0.0998,0.14436 0.21875,0.3125 0.0461,0.026 0.0835,0.0413 0.125,0.0625 z m 60.40625,-34.65625 c -0.008,0.006 -0.0201,0.0186 0,0.0312 0.0655,0.041 0.19321,0.0606 0.34375,0.0625 0.0133,1.7e-4 0.0175,5e-5 0.0312,0 0.0116,-0.0307 0.0197,-0.063 0.0312,-0.0937 -0.16368,1.7e-4 -0.37414,-0.0251 -0.40625,0 z m -47,16.03125 c -10e-4,0.0312 0.002,0.0623 0,0.0937 0.0205,0.0101 0.0419,0.0213 0.0625,0.0312 0.008,-0.0294 0.0227,-0.0626 0.0312,-0.0937 -0.0265,-0.002 -0.0721,-0.0312 -0.0937,-0.0312 z m -20.34375,10 c 0.0437,0.15506 0.038,0.215 0.0625,0.3125 0.0269,0.0361 0.0681,0.0601 0.0937,0.0937 -0.0479,-0.13823 -0.10532,-0.26927 -0.15625,-0.40625 z m 8.53125,9.25 c -0.0951,0.002 1.03558,1.50528 1.5625,1.9375 0.0622,0.051 0.18378,0.10103 0.28125,0.15625 -0.57453,-0.69174 -1.51239,-1.79742 -1.71875,-2 -0.0695,-0.0682 -0.11141,-0.094 -0.125,-0.0937 z m 2.4375,2.375 c 0.63314,0.26978 1.26522,0.48087 0.875,0.34375 -0.4465,-0.1569 -0.56952,-0.22886 -0.875,-0.34375 z m 3.25,2.25 c 0.0197,0.036 0.1367,0.24168 0.28125,0.59375 0.0672,0.0516 0.20331,0.10014 0.3125,0.15625 -0.37546,-0.46758 -0.6225,-0.80247 -0.59375,-0.75 z m 7.46875,4.71875 c 0.16919,0.20123 0.38999,0.48829 0.5,0.625 0.0582,0.0268 0.1266,0.0389 0.1875,0.0625 -0.21905,-0.23981 -0.45784,-0.45822 -0.6875,-0.6875 z m 4.84375,3.15625 c -0.15311,-0.10387 0.26942,0.25047 0.40625,0.375 0.064,0.0285 0.1782,0.0844 0.28125,0.125 -0.21329,-0.14964 -0.37688,-0.28927 -0.6875,-0.5 z m 1.46875,0.53125 c -0.70651,0.0511 1.35472,1.01541 2.34375,1.46875 -0.1966,-0.17978 -0.38547,-0.43737 -0.59375,-0.65625 -0.27802,-0.12143 -0.51987,-0.25214 -1.125,-0.625 -0.0493,-0.067 -0.0461,-0.0603 -0.0937,-0.125 -0.20864,-0.0301 -0.43519,-0.0695 -0.53125,-0.0625 z"
       id="path3763-9"
       inkscape:connector-curvature="0" />
    <path
       sodipodi:type="arc"
       style="fill:#1c1c1c;fill-opacity:1;stroke:none;display:inline"
       id="path4942-2-8"
       sodipodi:cx="167.5"
       sodipodi:cy="420.21933"
       sodipodi:rx="28.214285"
       sodipodi:ry="37.857143"
       d="m 191.8995,439.22853 c -7.82435,18.08101 -25.09126,24.22786 -38.56673,13.72937 -13.47547,-10.49849 -18.05661,-33.66675 -10.23227,-51.74777 6.33861,-14.64768 19.15724,-21.86349 31.3874,-17.66846 L 167.5,420.21933 z"
       sodipodi:start="0.52605967"
       sodipodi:end="4.962666"
       transform="matrix(-1.0782722,0.0380095,0,0.93923251,467.25327,-237.79284)" />
    <path
       style="fill:#828282;fill-opacity:1;display:inline"
       d="m 316.82687,162.76157 c -78.10884,0 -141.40625,61.41434 -141.40625,137.15625 0,75.74191 63.29741,137.125 141.40625,137.125 43.48188,0 82.3158,-19.0611 108.25,-49 -0.0932,-0.065 -0.15274,-0.11911 -0.25,-0.1875 -1.1841,-0.23788 -2.4194,-0.57033 -2.875,-1.0625 -0.26001,-0.28089 -0.48057,-0.59017 -0.71875,-0.875 -0.27349,-0.0621 -0.55614,-0.13464 -0.84375,-0.21875 -0.45402,-0.1047 -0.89966,-0.20981 -1.34375,-0.34375 -0.20423,-0.0616 -0.40106,-0.15145 -0.59375,-0.25 -0.009,-0.003 -0.022,0.003 -0.0312,0 -2.04841,-0.59398 -3.42077,-0.94467 -4.875,-2.21875 -1.78254,-0.63533 -2.09704,-0.8266 -2.96875,-1.4375 -1.79807,-0.36627 -2.04275,-0.77772 -3.84375,-1.90625 -0.0732,-0.0459 -0.18862,-0.0642 -0.25,-0.125 -0.12255,-0.12144 -0.22529,-0.24953 -0.34375,-0.375 -0.15588,-0.0578 -0.32467,-0.12818 -0.4375,-0.15625 -1.71203,-0.42586 -3.02064,-1.46614 -4.28125,-2.4375 -0.0611,-0.0422 -0.12655,-0.0827 -0.1875,-0.125 -0.48056,-0.14412 -0.99039,-0.33408 -1.375,-0.65625 -0.65417,-0.54795 -1.14497,-1.02268 -1.53125,-1.4375 -0.36526,0.025 -0.74966,-0.42244 -1.09375,-0.625 -1.53806,-0.90549 -2.43469,-1.73441 -3.375,-2.6875 -0.006,-0.004 -0.0842,-0.0862 -0.0937,-0.0937 -0.0152,-0.0402 -0.0781,-0.16441 -0.25,-0.375 -1.7538,-0.69573 -0.61748,-0.4842 -1.53125,-0.65625 l -1.96875,-2.125 c 0.0567,0.0869 0.14858,0.21642 0.1875,0.28125 0.0118,0.0197 0.002,0.0258 0,0.0312 -0.0171,-0.007 -0.0645,-0.0428 -0.0937,-0.0625 0.0921,0.13163 0.33788,0.49219 0.25,0.375 -0.10048,-0.13398 -0.20475,-0.27613 -0.3125,-0.40625 -0.1097,-0.0799 -0.23816,-0.19599 -0.3125,-0.25 -0.40783,-0.29628 -0.78668,-0.60056 -1.1875,-0.90625 0.38381,0.26086 0.82688,0.56393 1.1875,0.78125 -0.29357,-0.35668 -0.56679,-0.70549 -0.75,-1.125 -0.2313,-0.52964 0.55279,0.56909 1,1.25 0.0127,0.006 0.0191,0.0253 0.0312,0.0312 0.77215,0.37825 0.57415,-0.25319 -3.625,-4.78125 -0.38054,-0.41035 0.22018,0.48287 0.59375,1.3125 0.45321,0.4398 0.83109,1.0793 0.46875,0.9375 -0.0846,-0.0331 -0.14347,-0.10876 -0.21875,-0.15625 0.003,0.0291 2.7e-4,0.0672 0,0.0937 -0.004,0.38702 -0.76688,-0.56146 -0.9375,-1.03125 -0.11294,-0.14253 -0.21867,-0.28238 -0.34375,-0.40625 0.10657,0.10246 0.13676,0.14178 0.3125,0.3125 -0.005,-0.0301 -0.005,-0.0732 0,-0.0937 -0.90438,-0.89573 -2.14048,-2.11219 -2.5626,-3.0312 -0.11109,-0.24186 -0.19108,-0.49947 -0.28125,-0.75 -0.45289,-0.31148 -1.03674,-0.99862 -1.15625,-1.625 -0.0725,-0.38007 0.25455,0.0846 0.625,0.59375 -0.22176,-0.58883 -0.47267,-1.35242 -0.46875,-1.5 l -1.03125,-2.25 c 0.009,0.0577 -0.0506,-0.0629 -0.125,-0.15625 0.15472,0.63581 0.34231,1.28643 0.34375,1.9375 7.7e-4,0.3456 -0.32988,-0.60908 -0.4375,-0.9375 -0.20473,-0.62477 -0.39582,-1.2571 -0.5,-1.90625 -0.65277,-1.28065 -0.78355,-2.5523 -0.75,-3.9375 -0.54056,-0.95378 -1.08701,-2.05773 -1,-2.75 -0.15823,-0.69741 -0.31149,-1.39611 -0.46875,-2.09375 0.0535,-0.32511 0.10199,-0.64376 0.15625,-0.96875 -0.10656,-0.53456 -0.20581,-1.07661 -0.375,-1.59375 -0.10516,-0.32139 0.28262,1.2805 0.0937,1 -0.63609,-0.94465 -0.52926,-3.66282 -0.40625,-4.71875 0.20883,-1.79257 0.65784,-2.58952 1.21875,-2.75 0.42675,-3.55321 4.18423,-6.87276 11.25,-6.6875 2.66445,0.0699 5.28091,-0.43575 7.9375,-0.0625 0.73408,0.19923 1.46054,0.36993 2.1875,0.59375 0.054,0.0166 0.16646,0.039 0.25,0.0625 0.57695,0.0284 1.21134,0.14278 1.84375,0.28125 1.04062,-0.30153 2.27636,-0.45099 3.6875,-0.40625 0.80455,0.0255 0.36998,0.0231 1.3125,0.0312 2.02534,-0.0972 4.14157,-0.51189 5.9375,0.59375 0.0284,9.1e-4 0.0675,0.002 0.0937,0 1.8945,-0.13311 3.75869,-0.0595 5.34375,0.78125 l 2.375,0 c 1.41284,-1e-5 2.83717,-1.1e-4 4.25,0 1.43066,1.9e-4 2.8506,10e-4 4.28125,0 1.50733,1.1e-4 3.02393,0.008 4.53125,0 1.53616,-0.008 3.05877,-0.048 4.59375,0.0312 0.98271,0.0294 1.95365,-0.23797 2.9375,-0.21875 2.00943,0.0392 1.95777,0.16098 3.78125,0.78125 0.0177,0.009 0.0141,0.0225 0.0312,0.0312 0.91346,-0.10564 0.91757,-0.0972 2.59375,0 0.0893,0.02 2.33761,0.46823 2.59375,0.6875 0.14414,0.12339 -0.72332,-0.007 -0.5625,0.0937 0.28534,0.17868 1.60848,-0.11493 2,0 l 1.6875,0 c 2.718,-10.60483 4.1875,-21.67296 4.1875,-33.09375 0,-75.74191 -63.32866,-137.15625 -141.4375,-137.15625 z m 73.15625,204.875 -0.34375,-0.375 c 0.0709,0.10171 0.0998,0.14436 0.21875,0.3125 0.0461,0.026 0.0835,0.0413 0.125,0.0625 z m 13.40625,-18.625 c -10e-4,0.0312 0.002,0.0623 0,0.0937 0.0205,0.0101 0.0419,0.0213 0.0625,0.0312 0.008,-0.0294 0.0227,-0.0626 0.0312,-0.0937 -0.0265,-0.002 -0.0721,-0.0312 -0.0937,-0.0312 z m -20.34375,10 c 0.0437,0.15506 0.038,0.215 0.0625,0.3125 0.0269,0.0361 0.0681,0.0601 0.0937,0.0937 -0.0479,-0.13823 -0.10532,-0.26927 -0.15625,-0.40625 z m 8.53125,9.25 c -0.0951,0.002 1.03558,1.50528 1.5625,1.9375 0.0622,0.051 0.18378,0.10103 0.28125,0.15625 -0.57453,-0.69174 -1.51239,-1.79742 -1.71875,-2 -0.0695,-0.0682 -0.11141,-0.094 -0.125,-0.0937 z m 2.4375,2.375 c 0.63314,0.26978 1.26522,0.48087 0.875,0.34375 -0.4465,-0.1569 -0.56952,-0.22886 -0.875,-0.34375 z m 3.25,2.25 c 0.0197,0.036 0.1367,0.24168 0.28125,0.59375 0.0672,0.0516 0.20331,0.10014 0.3125,0.15625 -0.37546,-0.46758 -0.6225,-0.80247 -0.59375,-0.75 z m 7.46875,4.71875 c 0.16919,0.20123 0.38999,0.48829 0.5,0.625 0.0582,0.0268 0.1266,0.0389 0.1875,0.0625 -0.21905,-0.23981 -0.45784,-0.45822 -0.6875,-0.6875 z m 4.84375,3.15625 c -0.15311,-0.10387 0.26942,0.25047 0.40625,0.375 0.064,0.0285 0.1782,0.0844 0.28125,0.125 -0.21329,-0.14964 -0.37688,-0.28927 -0.6875,-0.5 z m 1.46875,0.53125 c -0.70651,0.0511 1.35472,1.01541 2.34375,1.46875 -0.1966,-0.17978 -0.38547,-0.43737 -0.59375,-0.65625 -0.27802,-0.12143 -0.51987,-0.25214 -1.125,-0.625 -0.0493,-0.067 -0.0461,-0.0603 -0.0937,-0.125 -0.20864,-0.0301 -0.43519,-0.0695 -0.53125,-0.0625 z"
       id="path2985-1"
       inkscape:connector-curvature="0" />
    <path
       style="opacity:0.47000002;fill:#828282;fill-opacity:1;display:inline"
       d="m 317.42062,162.94907 c -76.53088,0 -138.5625,58.85151 -138.5625,131.4375 0,72.58599 62.03162,131.4375 138.5625,131.4375 39.5144,0 75.13211,-15.73532 100.375,-40.90625 -1.71179,-0.4958 -2.93866,-0.88236 -4.25,-2.03125 -1.78254,-0.63533 -2.09704,-0.8266 -2.96875,-1.4375 -1.79807,-0.36627 -2.04275,-0.77772 -3.84375,-1.90625 -0.0732,-0.0459 -0.18862,-0.0642 -0.25,-0.125 -0.12255,-0.12144 -0.22529,-0.24953 -0.34375,-0.375 -0.15588,-0.0578 -0.32467,-0.12818 -0.4375,-0.15625 -1.71203,-0.42586 -3.02064,-1.46614 -4.28125,-2.4375 -0.0611,-0.0422 -0.12655,-0.0827 -0.1875,-0.125 -0.48056,-0.14412 -0.99039,-0.33408 -1.375,-0.65625 -0.65417,-0.54795 -1.14497,-1.02268 -1.53125,-1.4375 -0.36526,0.025 -0.74966,-0.42244 -1.09375,-0.625 -1.53806,-0.90549 -2.43469,-1.73441 -3.375,-2.6875 -0.006,-0.004 -0.0842,-0.0862 -0.0937,-0.0937 -0.0152,-0.0402 -0.0781,-0.16441 -0.25,-0.375 -1.7538,-0.69573 -0.61748,-0.4842 -1.53125,-0.65625 l -1.96875,-2.125 c 0.0567,0.0869 0.14858,0.21642 0.1875,0.28125 0.0118,0.0197 0.002,0.0258 0,0.0312 -0.0171,-0.007 -0.0645,-0.0428 -0.0937,-0.0625 0.0921,0.13163 0.33788,0.49219 0.25,0.375 -0.10048,-0.13398 -0.20475,-0.27613 -0.3125,-0.40625 -0.1097,-0.0799 -0.23816,-0.19599 -0.3125,-0.25 -0.40783,-0.29628 -0.78668,-0.60056 -1.1875,-0.90625 0.38381,0.26086 0.82688,0.56393 1.1875,0.78125 -0.29357,-0.35668 -0.56679,-0.70549 -0.75,-1.125 -0.2313,-0.52964 0.55279,0.56909 1,1.25 0.0127,0.006 0.0191,0.0253 0.0312,0.0312 0.77215,0.37825 0.57415,-0.25319 -3.625,-4.78125 -0.38054,-0.41035 0.22018,0.48287 0.59375,1.3125 0.45321,0.4398 0.83109,1.0793 0.46875,0.9375 -0.0846,-0.0331 -0.14347,-0.10876 -0.21875,-0.15625 0.003,0.0291 2.7e-4,0.0672 0,0.0937 -0.004,0.38702 -0.76688,-0.56146 -0.9375,-1.03125 -0.11294,-0.14253 -0.21867,-0.28238 -0.34375,-0.40625 0.10657,0.10246 0.13676,0.14178 0.3125,0.3125 -0.005,-0.0301 -0.005,-0.0732 0,-0.0937 -0.90433,-0.89573 -2.14043,-2.11219 -2.56255,-3.0312 -0.11109,-0.24186 -0.19108,-0.49947 -0.28125,-0.75 -0.45289,-0.31148 -1.03674,-0.99862 -1.15625,-1.625 -0.0725,-0.38007 0.25455,0.0846 0.625,0.59375 -0.22176,-0.58883 -0.47267,-1.35242 -0.46875,-1.5 l -1.03125,-2.25 c 0.009,0.0577 -0.0506,-0.0629 -0.125,-0.15625 0.15472,0.63581 0.34231,1.28643 0.34375,1.9375 7.7e-4,0.3456 -0.32988,-0.60908 -0.4375,-0.9375 -0.20473,-0.62477 -0.39582,-1.2571 -0.5,-1.90625 -0.65277,-1.28065 -0.78355,-2.5523 -0.75,-3.9375 -0.54056,-0.95378 -1.08701,-2.05773 -1,-2.75 -0.15823,-0.69741 -0.31149,-1.39611 -0.46875,-2.09375 0.0535,-0.32511 0.10199,-0.64376 0.15625,-0.96875 -0.10656,-0.53456 -0.20581,-1.07661 -0.375,-1.59375 -0.10516,-0.32139 0.28262,1.2805 0.0937,1 -0.63609,-0.94465 -0.52926,-3.66282 -0.40625,-4.71875 0.20883,-1.79257 0.65784,-2.58952 1.21875,-2.75 0.42675,-3.55321 4.18423,-6.87276 11.25,-6.6875 2.66445,0.0699 5.28091,-0.43575 7.9375,-0.0625 0.73408,0.19923 1.46054,0.36993 2.1875,0.59375 0.054,0.0166 0.16646,0.039 0.25,0.0625 0.57695,0.0284 1.21134,0.14278 1.84375,0.28125 1.04062,-0.30153 2.27636,-0.45099 3.6875,-0.40625 0.80455,0.0255 0.36998,0.0231 1.3125,0.0312 2.02534,-0.0972 4.14157,-0.51189 5.9375,0.59375 0.0284,9.1e-4 0.0675,0.002 0.0937,0 1.8945,-0.13311 3.75869,-0.0595 5.34375,0.78125 l 2.375,0 c 1.41284,-1e-5 2.83717,-1.1e-4 4.25,0 1.43066,1.9e-4 2.8506,10e-4 4.28125,0 1.50733,1.1e-4 3.02393,0.008 4.53125,0 1.53616,-0.008 3.05877,-0.048 4.59375,0.0312 0.98271,0.0294 1.95365,-0.23797 2.9375,-0.21875 2.00943,0.0392 1.95777,0.16098 3.78125,0.78125 0.0177,0.009 0.0141,0.0225 0.0312,0.0312 0.91346,-0.10564 0.91757,-0.0972 2.59375,0 0.0554,0.0124 0.9297,0.18863 1.65625,0.375 3.87465,-12.0974 5.96875,-24.92108 5.96875,-38.21875 0,-72.58599 -62.03162,-131.4375 -138.5625,-131.4375 z m 72.5625,204.6875 -0.34375,-0.375 c 0.0709,0.10171 0.0998,0.14436 0.21875,0.3125 0.0461,0.026 0.0835,0.0413 0.125,0.0625 z m 13.40625,-18.625 c -10e-4,0.0312 0.002,0.0623 0,0.0937 0.0205,0.0101 0.0419,0.0213 0.0625,0.0312 0.008,-0.0294 0.0227,-0.0626 0.0312,-0.0937 -0.0265,-0.002 -0.0721,-0.0312 -0.0937,-0.0312 z m -20.34375,10 c 0.0437,0.15506 0.038,0.215 0.0625,0.3125 0.0269,0.0361 0.0681,0.0601 0.0937,0.0937 -0.0479,-0.13823 -0.10532,-0.26927 -0.15625,-0.40625 z m 8.53125,9.25 c -0.0951,0.002 1.03558,1.50528 1.5625,1.9375 0.0622,0.051 0.18378,0.10103 0.28125,0.15625 -0.57453,-0.69174 -1.51239,-1.79742 -1.71875,-2 -0.0695,-0.0682 -0.11141,-0.094 -0.125,-0.0937 z m 2.4375,2.375 c 0.63314,0.26978 1.26522,0.48087 0.875,0.34375 -0.4465,-0.1569 -0.56952,-0.22886 -0.875,-0.34375 z m 3.25,2.25 c 0.0197,0.036 0.1367,0.24168 0.28125,0.59375 0.0672,0.0516 0.20331,0.10014 0.3125,0.15625 -0.37546,-0.46758 -0.6225,-0.80247 -0.59375,-0.75 z m 7.46875,4.71875 c 0.16919,0.20123 0.38999,0.48829 0.5,0.625 0.0582,0.0268 0.1266,0.0389 0.1875,0.0625 -0.21905,-0.23981 -0.45784,-0.45822 -0.6875,-0.6875 z m 4.84375,3.15625 c -0.15311,-0.10387 0.26942,0.25047 0.40625,0.375 0.064,0.0285 0.1782,0.0844 0.28125,0.125 -0.21329,-0.14964 -0.37688,-0.28927 -0.6875,-0.5 z m 1.46875,0.53125 c -0.70651,0.0511 1.35472,1.01541 2.34375,1.46875 -0.1966,-0.17978 -0.38547,-0.43737 -0.59375,-0.65625 -0.27802,-0.12143 -0.51987,-0.25214 -1.125,-0.625 -0.0493,-0.067 -0.0461,-0.0603 -0.0937,-0.125 -0.20864,-0.0301 -0.43519,-0.0695 -0.53125,-0.0625 z"
       id="path3763-7"
       inkscape:connector-curvature="0" />
    <path
       style="fill:#1c1c1c;fill-opacity:1;fill-rule:evenodd;stroke:none;display:inline"
       d="m 431.38937,270.19907 c -30.46089,0 -55.15625,26.27398 -55.15625,58.6875 0,5.72611 0.78173,11.27018 2.21875,16.5 0.0506,-0.30459 0.1054,-0.6017 0.15625,-0.90625 -0.10656,-0.53456 -0.20581,-1.07661 -0.375,-1.59375 -0.10516,-0.32139 0.28262,1.2805 0.0937,1 -0.63609,-0.94465 -0.52926,-3.66282 -0.40625,-4.71875 0.20883,-1.79257 0.65784,-2.58952 1.21875,-2.75 0.42675,-3.55321 4.18423,-6.87276 11.25,-6.6875 2.66445,0.0699 5.28091,-0.43575 7.9375,-0.0625 0.73408,0.19923 1.46054,0.36993 2.1875,0.59375 0.054,0.0166 0.16646,0.039 0.25,0.0625 0.57695,0.0284 1.21134,0.14278 1.84375,0.28125 1.04062,-0.30153 2.27636,-0.45099 3.6875,-0.40625 0.80455,0.0255 0.36998,0.0231 1.3125,0.0312 2.02534,-0.0972 4.14157,-0.51189 5.9375,0.59375 0.0284,9.1e-4 0.0675,0.002 0.0937,0 1.8945,-0.13311 3.75869,-0.0595 5.34375,0.78125 l 2.375,0 c 1.41284,-1e-5 2.83717,-1.1e-4 4.25,0 1.43066,1.9e-4 2.8506,10e-4 4.28125,0 1.50733,1.1e-4 3.02393,0.008 4.53125,0 1.53616,-0.008 3.05877,-0.048 4.59375,0.0312 0.98271,0.0294 1.95365,-0.23797 2.9375,-0.21875 2.00943,0.0392 1.95777,0.16098 3.78125,0.78125 0.0177,0.009 0.0141,0.0225 0.0312,0.0312 0.91346,-0.10564 0.91757,-0.0972 2.59375,0 0.0893,0.02 2.33761,0.46823 2.59375,0.6875 0.14414,0.12339 -0.72332,-0.007 -0.5625,0.0937 0.28534,0.17868 1.60848,-0.11493 2,0 l 5.0625,0 4.03125,0 5.125,0 4.96875,0 4.1875,0 6.75,0 c 1.48974,0 2.77674,0.19607 3.84375,0.5625 0.12357,-1.54243 0.1875,-3.11039 0.1875,-4.6875 0,-32.41352 -24.69536,-58.6875 -55.15625,-58.6875 z m -28,78.8125 c -10e-4,0.0312 0.002,0.0623 0,0.0937 0.0205,0.0101 0.0419,0.0213 0.0625,0.0312 0.008,-0.0294 0.0227,-0.0626 0.0312,-0.0937 -0.0265,-0.002 -0.0721,-0.0312 -0.0937,-0.0312 z m -16.78125,14.125 c 0.75558,1.11506 1.54936,2.19564 2.375,3.25 -0.22352,-0.51182 0.48106,0.50134 0.9375,1.1875 l 0.0625,0.0625 c 0.0127,0.006 0.0191,0.0253 0.0312,0.0312 l 0.0312,0.0312 c 0.7124,0.33213 0.44476,-0.35958 -3.4375,-4.5625 z m 3.4375,4.5625 c 8.11127,9.76203 19.22517,16.6357 31.8125,18.96875 -0.22198,-0.24296 -0.41917,-0.50464 -0.625,-0.75 -0.27349,-0.0621 -0.55614,-0.13464 -0.84375,-0.21875 -0.45402,-0.1047 -0.89966,-0.20981 -1.34375,-0.34375 -0.20423,-0.0616 -0.40106,-0.15145 -0.59375,-0.25 -0.009,-0.003 -0.022,0.003 -0.0312,0 -2.04841,-0.59398 -3.42077,-0.94467 -4.875,-2.21875 -1.78254,-0.63533 -2.09704,-0.8266 -2.96875,-1.4375 -1.79807,-0.36627 -2.04275,-0.77772 -3.84375,-1.90625 -0.0732,-0.0459 -0.18862,-0.0642 -0.25,-0.125 -0.12255,-0.12144 -0.22529,-0.24953 -0.34375,-0.375 -0.15588,-0.0578 -0.32467,-0.12818 -0.4375,-0.15625 -1.71203,-0.42586 -3.02064,-1.46614 -4.28125,-2.4375 -0.0611,-0.0422 -0.12655,-0.0827 -0.1875,-0.125 -0.48056,-0.14412 -0.99039,-0.33408 -1.375,-0.65625 -0.65417,-0.54795 -1.14497,-1.02268 -1.53125,-1.4375 -0.36526,0.025 -0.74966,-0.42244 -1.09375,-0.625 -1.53806,-0.90549 -2.43469,-1.73441 -3.375,-2.6875 -0.006,-0.004 -0.0842,-0.0862 -0.0937,-0.0937 -0.0152,-0.0402 -0.0781,-0.16441 -0.25,-0.375 -1.7538,-0.69573 -0.61748,-0.4842 -1.53125,-0.65625 l -1.9375,-2.09375 z m 1.53125,0.5625 c -0.0951,0.002 1.03558,1.50528 1.5625,1.9375 0.0622,0.051 0.18378,0.10103 0.28125,0.15625 -0.57453,-0.69174 -1.51239,-1.79742 -1.71875,-2 -0.0695,-0.0682 -0.11141,-0.094 -0.125,-0.0937 z m 2.4375,2.375 c 0.63314,0.26978 1.26522,0.48087 0.875,0.34375 -0.4465,-0.1569 -0.56952,-0.22886 -0.875,-0.34375 z m 3.25,2.25 c 0.0197,0.036 0.1367,0.24168 0.28125,0.59375 0.0672,0.0516 0.20331,0.10014 0.3125,0.15625 -0.37546,-0.46758 -0.6225,-0.80247 -0.59375,-0.75 z m 7.46875,4.71875 c 0.16919,0.20123 0.38999,0.48829 0.5,0.625 0.0582,0.0268 0.1266,0.0389 0.1875,0.0625 -0.21905,-0.23981 -0.45784,-0.45822 -0.6875,-0.6875 z m 4.84375,3.15625 c -0.15311,-0.10387 0.26942,0.25047 0.40625,0.375 0.064,0.0285 0.1782,0.0844 0.28125,0.125 -0.21329,-0.14964 -0.37688,-0.28927 -0.6875,-0.5 z m 1.46875,0.53125 c -0.70651,0.0511 1.35472,1.01541 2.34375,1.46875 -0.1966,-0.17978 -0.38547,-0.43737 -0.59375,-0.65625 -0.27802,-0.12143 -0.51987,-0.25214 -1.125,-0.625 -0.0493,-0.067 -0.0461,-0.0603 -0.0937,-0.125 -0.20864,-0.0301 -0.43519,-0.0695 -0.53125,-0.0625 z"
       id="path3525"
       inkscape:connector-curvature="0" />
    <path
       style="fill:#828282;fill-opacity:1;fill-rule:evenodd;stroke:none;display:inline"
       d="m 425.73312,265.23032 c -30.46089,0 -55.15625,26.27398 -55.15625,58.6875 0,22.58628 12.00988,42.16449 29.59375,51.96875 -0.10818,-0.0639 -0.21635,-0.13821 -0.3125,-0.21875 -0.65417,-0.54795 -1.14497,-1.02268 -1.53125,-1.4375 -0.36526,0.025 -0.74966,-0.42244 -1.09375,-0.625 -1.53806,-0.90549 -2.43469,-1.73441 -3.375,-2.6875 -0.006,-0.004 -0.0842,-0.0862 -0.0937,-0.0937 -0.0152,-0.0402 -0.0781,-0.16441 -0.25,-0.375 -1.7538,-0.69573 -0.61748,-0.4842 -1.53125,-0.65625 l -1.96875,-2.125 c 0.0567,0.0869 0.14858,0.21642 0.1875,0.28125 0.0118,0.0197 0.002,0.0258 0,0.0312 -0.0171,-0.007 -0.0645,-0.0428 -0.0937,-0.0625 0.0921,0.13163 0.33788,0.49219 0.25,0.375 -0.10048,-0.13398 -0.20475,-0.27613 -0.3125,-0.40625 -0.1097,-0.0799 -0.23816,-0.19599 -0.3125,-0.25 -0.40783,-0.29628 -0.78668,-0.60056 -1.1875,-0.90625 0.38381,0.26086 0.82688,0.56393 1.1875,0.78125 -0.29357,-0.35668 -0.56679,-0.70549 -0.75,-1.125 -0.2313,-0.52964 0.55279,0.56909 1,1.25 0.0127,0.006 0.0191,0.0253 0.0312,0.0312 0.77215,0.37825 0.57415,-0.25319 -3.625,-4.78125 -0.38054,-0.41035 0.22018,0.48287 0.59375,1.3125 0.45321,0.4398 0.83109,1.0793 0.46875,0.9375 -0.0846,-0.0331 -0.14347,-0.10876 -0.21875,-0.15625 0.003,0.0291 2.7e-4,0.0672 0,0.0937 -0.004,0.38702 -0.76688,-0.56146 -0.9375,-1.03125 -0.11294,-0.14253 -0.21867,-0.28238 -0.34375,-0.40625 0.10657,0.10246 0.13676,0.14178 0.3125,0.3125 -0.005,-0.0301 -0.005,-0.0732 0,-0.0937 -0.90433,-0.89573 -2.14043,-2.11219 -2.56255,-3.0312 -0.11109,-0.24186 -0.19108,-0.49947 -0.28125,-0.75 -0.45289,-0.31148 -1.03674,-0.99862 -1.15625,-1.625 -0.0725,-0.38007 0.25455,0.0846 0.625,0.59375 -0.22176,-0.58883 -0.47267,-1.35242 -0.46875,-1.5 l -1.03125,-2.25 c 0.009,0.0577 -0.0506,-0.0629 -0.125,-0.15625 0.15472,0.63581 0.34231,1.28643 0.34375,1.9375 7.7e-4,0.3456 -0.32988,-0.60908 -0.4375,-0.9375 -0.20473,-0.62477 -0.39582,-1.2571 -0.5,-1.90625 -0.65277,-1.28065 -0.78355,-2.5523 -0.75,-3.9375 -0.54056,-0.95378 -1.08701,-2.05773 -1,-2.75 -0.15823,-0.69741 -0.31149,-1.39611 -0.46875,-2.09375 0.0535,-0.32511 0.10199,-0.64376 0.15625,-0.96875 -0.10656,-0.53456 -0.20581,-1.07661 -0.375,-1.59375 -0.10516,-0.32139 0.28262,1.2805 0.0937,1 -0.63609,-0.94465 -0.52926,-3.66282 -0.40625,-4.71875 0.20883,-1.79257 0.65784,-2.58952 1.21875,-2.75 0.42675,-3.55321 4.18423,-6.87276 11.25,-6.6875 2.66445,0.0699 5.28091,-0.43575 7.9375,-0.0625 0.73408,0.19923 1.46054,0.36993 2.1875,0.59375 0.054,0.0166 0.16646,0.039 0.25,0.0625 0.57695,0.0284 1.21134,0.14278 1.84375,0.28125 1.04062,-0.30153 2.27636,-0.45099 3.6875,-0.40625 0.80455,0.0255 0.36998,0.0231 1.3125,0.0312 2.02534,-0.0972 4.14157,-0.51189 5.9375,0.59375 0.0284,9.1e-4 0.0675,0.002 0.0937,0 1.8945,-0.13311 3.75869,-0.0595 5.34375,0.78125 l 2.375,0 c 1.41284,-1e-5 2.83717,-1.1e-4 4.25,0 1.43066,1.9e-4 2.8506,10e-4 4.28125,0 1.50733,1.1e-4 3.02393,0.008 4.53125,0 1.53616,-0.008 3.05877,-0.048 4.59375,0.0312 0.98271,0.0294 1.95365,-0.23797 2.9375,-0.21875 2.00943,0.0392 1.95777,0.16098 3.78125,0.78125 0.0177,0.009 0.0141,0.0225 0.0312,0.0312 0.91346,-0.10564 0.91757,-0.0972 2.59375,0 0.0893,0.02 2.33761,0.46823 2.59375,0.6875 0.14414,0.12339 -0.72332,-0.007 -0.5625,0.0937 0.28534,0.17868 1.60848,-0.11493 2,0 l 5.0625,0 4.03125,0 5.125,0 4.96875,0 4.1875,0 4.4375,0 c 0.44452,-2.96541 0.6875,-6.00174 0.6875,-9.09375 0,-32.41352 -24.69536,-58.6875 -55.15625,-58.6875 z m -35.75,102.40625 -0.34375,-0.375 c 0.0709,0.10171 0.0998,0.14436 0.21875,0.3125 0.0461,0.026 0.0835,0.0413 0.125,0.0625 z m 13.40625,-18.625 c -10e-4,0.0312 0.002,0.0623 0,0.0937 0.0205,0.0101 0.0419,0.0213 0.0625,0.0312 0.008,-0.0294 0.0227,-0.0626 0.0312,-0.0937 -0.0265,-0.002 -0.0721,-0.0312 -0.0937,-0.0312 z m -20.34375,10 c 0.0437,0.15506 0.038,0.215 0.0625,0.3125 0.0269,0.0361 0.0681,0.0601 0.0937,0.0937 -0.0479,-0.13823 -0.10532,-0.26927 -0.15625,-0.40625 z m 8.53125,9.25 c -0.0951,0.002 1.03558,1.50528 1.5625,1.9375 0.0622,0.051 0.18378,0.10103 0.28125,0.15625 -0.57453,-0.69174 -1.51239,-1.79742 -1.71875,-2 -0.0695,-0.0682 -0.11141,-0.094 -0.125,-0.0937 z m 2.4375,2.375 c 0.63314,0.26978 1.26522,0.48087 0.875,0.34375 -0.4465,-0.1569 -0.56952,-0.22886 -0.875,-0.34375 z m 3.25,2.25 c 0.0197,0.036 0.1367,0.24168 0.28125,0.59375 0.0672,0.0516 0.20331,0.10014 0.3125,0.15625 -0.37546,-0.46758 -0.6225,-0.80247 -0.59375,-0.75 z m 3.25,3.1875 c 0.44549,0.24415 0.89131,0.48722 1.34375,0.71875 -0.15018,-0.11563 -0.28908,-0.22938 -0.4375,-0.34375 -0.0611,-0.0422 -0.12655,-0.0827 -0.1875,-0.125 -0.24028,-0.0721 -0.48636,-0.1482 -0.71875,-0.25 z m 4.21875,1.53125 c 0.16919,0.20123 0.38999,0.48829 0.5,0.625 0.0582,0.0268 0.1266,0.0389 0.1875,0.0625 -0.21905,-0.23981 -0.45784,-0.45822 -0.6875,-0.6875 z"
       id="path3525-9"
       inkscape:connector-curvature="0" />
    <ellipse
       style="fill:#1c1c1c;fill-opacity:1;stroke:none;display:inline"
       id="path5967"
       transform="translate(105.87344,26.77382)"
       cx="358"
       cy="279.86218"
       rx="7"
       ry="8.5"
       sodipodi:cx="358"
       sodipodi:cy="279.86218"
       sodipodi:rx="7"
       sodipodi:ry="8.5"
       d="m 365,279.86218 c 0,4.69442 -3.13401,8.5 -7,8.5 -3.86599,0 -7,-3.80558 -7,-8.5 0,-4.69442 3.13401,-8.5 7,-8.5 3.86599,0 7,3.80558 7,8.5 z" />
    <ellipse
       style="fill:#343434;fill-opacity:1;display:inline"
       id="path3938-4"
       transform="matrix(1.3589744,0,0,1.2439025,-84.06338,-40.909808)"
       cx="310"
       cy="236.6479"
       rx="55.714283"
       ry="58.571426"
       sodipodi:cx="310"
       sodipodi:cy="236.6479"
       sodipodi:rx="55.714283"
       sodipodi:ry="58.571426"
       d="m 365.71428,236.6479 c 0,32.34811 -24.94413,58.57143 -55.71428,58.57143 -30.77015,0 -55.71428,-26.22332 -55.71428,-58.57143 0,-32.3481 24.94413,-58.57142 55.71428,-58.57142 30.77015,0 55.71428,26.22332 55.71428,58.57142 z" />
    <ellipse
       style="fill:#ffffff;fill-opacity:1;display:inline"
       id="path3938-1-0"
       transform="matrix(1.2564103,0,0,1.1219513,-50.839879,-9.19319)"
       cx="310"
       cy="236.6479"
       rx="55.714283"
       ry="58.571426"
       sodipodi:cx="310"
       sodipodi:cy="236.6479"
       sodipodi:rx="55.714283"
       sodipodi:ry="58.571426"
       d="m 365.71428,236.6479 c 0,32.34811 -24.94413,58.57143 -55.71428,58.57143 -30.77015,0 -55.71428,-26.22332 -55.71428,-58.57143 0,-32.3481 24.94413,-58.57142 55.71428,-58.57142 30.77015,0 55.71428,26.22332 55.71428,58.57142 z" />
    <ellipse
       style="fill:#1f2020;fill-opacity:1;stroke:none;display:inline"
       id="path4800-8"
       transform="matrix(-0.78945875,1.0995662,-0.71213472,-0.99186853,483.28705,116.04948)"
       cx="216.07143"
       cy="151.29076"
       rx="32.5"
       ry="63.214287"
       sodipodi:cx="216.07143"
       sodipodi:cy="151.29076"
       sodipodi:rx="32.5"
       sodipodi:ry="63.214287"
       d="m 248.57143,151.29076 c 0,34.91228 -14.55075,63.21428 -32.5,63.21428 -17.94926,0 -32.5,-28.302 -32.5,-63.21428 0,-34.91229 14.55074,-63.214291 32.5,-63.214291 17.94925,0 32.5,28.302001 32.5,63.214291 z" />
    <ellipse
       style="fill:#828282;fill-opacity:1;stroke:none;display:inline"
       id="path4800-7-2"
       transform="matrix(-0.78945875,1.0995662,-0.71213472,-0.99186853,487.57276,122.47805)"
       cx="216.07143"
       cy="151.29076"
       rx="32.5"
       ry="63.214287"
       sodipodi:cx="216.07143"
       sodipodi:cy="151.29076"
       sodipodi:rx="32.5"
       sodipodi:ry="63.214287"
       d="m 248.57143,151.29076 c 0,34.91228 -14.55075,63.21428 -32.5,63.21428 -17.94926,0 -32.5,-28.302 -32.5,-63.21428 0,-34.91229 14.55074,-63.214291 32.5,-63.214291 17.94925,0 32.5,28.302001 32.5,63.214291 z" />
    <ellipse
       style="fill:#1f2020;fill-opacity:1;stroke:none;display:inline"
       id="path4800-1-4"
       transform="matrix(-0.35422019,0.46847031,-0.31952589,-0.42258569,316.9892,137.71261)"
       cx="216.07143"
       cy="151.29076"
       rx="32.5"
       ry="63.214287"
       sodipodi:cx="216.07143"
       sodipodi:cy="151.29076"
       sodipodi:rx="32.5"
       sodipodi:ry="63.214287"
       d="m 248.57143,151.29076 c 0,34.91228 -14.55075,63.21428 -32.5,63.21428 -17.94926,0 -32.5,-28.302 -32.5,-63.21428 0,-34.91229 14.55074,-63.214291 32.5,-63.214291 17.94925,0 32.5,28.302001 32.5,63.214291 z" />
    <path
       sodipodi:type="arc"
       style="fill:#1c1d1d;fill-opacity:0.97275576;stroke:none;display:inline"
       id="path4942-2-5"
       sodipodi:cx="167.5"
       sodipodi:cy="420.21933"
       sodipodi:rx="28.214285"
       sodipodi:ry="37.857143"
       d="m 191.8995,439.22853 c -7.82435,18.08101 -25.09126,24.22786 -38.56673,13.72937 -13.47547,-10.49849 -18.05661,-33.66675 -10.23227,-51.74777 6.33861,-14.64768 19.15724,-21.86349 31.3874,-17.66846 L 167.5,420.21933 z"
       sodipodi:start="0.52605967"
       sodipodi:end="4.962666"
       transform="matrix(1.0782722,0,0,0.93923251,84.15575,-231.29134)" />
    <path
       style="fill:#343434;fill-opacity:1;stroke:none"
       d="m 176.77669,287.27267 61.51829,14.14213 -2.82843,113.84419 c 0,0 -77.78174,-51.61879 -58.68986,-127.98632 z"
       id="path7710"
       inkscape:connector-curvature="0" />
    <path
       style="fill:#828282;fill-opacity:1;stroke:none;display:inline"
       d="m 177.02593,289.74754 57.47394,13.20453 -2.64248,106.29651 c 0,0 -72.6682,-48.19655 -54.83146,-119.50104 z"
       id="path7710-4"
       inkscape:connector-curvature="0" />
    <path
       style="fill:#343434;fill-opacity:1;stroke:none"
       d="m 312.54119,437.1783 2.82843,-76.95869 -79.19596,-14.96419 -2.12132,69.12031 c 0,0 47.37615,24.94031 78.48885,22.80257 z"
       id="path7730"
       inkscape:connector-curvature="0" />
    <path
       style="fill:#828282;fill-opacity:1;stroke:none;display:inline"
       d="m 308.79967,433.58627 2.68086,-72.2294 -75.064,-14.04461 -2.01064,64.87271 c 0,0 44.90435,23.40767 74.39378,21.4013 z"
       id="path7730-5"
       inkscape:connector-curvature="0" />
    <path
       style="fill:#343434;fill-opacity:1;stroke:none"
       d="m 416.48588,398.99553 -103.94469,-37.47665 -2.12132,74.24621 c 0,0 45.25483,12.02081 106.06601,-36.76956 z"
       id="path7752"
       inkscape:connector-curvature="0" />
    <path
       style="fill:#828282;fill-opacity:1;stroke:none;display:inline"
       d="m 410.82903,399.07874 -97.01505,-33.6186 -1.97989,66.60288 c 0,0 42.23783,10.78333 98.99494,-32.98428 z"
       id="path7752-5"
       inkscape:connector-curvature="0" />
    <path
       style="fill:#000000;fill-opacity:0;stroke:#343434;stroke-width:2.70000005;stroke-linecap:butt;stroke-linejoin:miter;stroke-miterlimit:4;stroke-opacity:1;stroke-dasharray:none"
       d="m 236.17366,303.53612 33.94112,-79.19596 -85.55992,21.21321 c 0,0 -16.97056,38.18376 -10.6066,41.01219 6.36396,2.82843 62.2254,16.97056 62.2254,16.97056 z"
       id="path7772"
       inkscape:connector-curvature="0" />
    <path
       style="fill:none;stroke:#343434;stroke-width:4;stroke-linecap:butt;stroke-linejoin:miter;stroke-miterlimit:4;stroke-opacity:1;stroke-dasharray:none"
       d="m 312.54119,362.22598 10.6066,-41.01219"
       id="path7776"
       inkscape:connector-curvature="0" />
    <path
       style="fill:none;stroke:#343434;stroke-width:2.48600006;stroke-linecap:butt;stroke-linejoin:miter;stroke-miterlimit:4;stroke-opacity:1;stroke-dasharray:none"
       d="m 458.58897,277.37317 c -3.0569,0.70711 -50.43872,5.65686 -61.90208,20.5061"
       id="path7784"
       inkscape:connector-curvature="0" />
    <path
       style="fill:none;stroke:#343434;stroke-width:1.70000005;stroke-linecap:butt;stroke-linejoin:miter;stroke-miterlimit:4;stroke-opacity:1;stroke-dasharray:none"
       d="m 358.50313,553.14481 c 0,0 -35.35534,-4.24264 -96.87363,-27.57717"
       id="path7810"
       inkscape:connector-curvature="0" />
    <path
       style="fill:none;stroke:#343434;stroke-width:2;stroke-linecap:butt;stroke-linejoin:miter;stroke-miterlimit:4;stroke-opacity:1;stroke-dasharray:none"
       d="m 358.50313,564.45852 c 0,0 -65.76093,16.26345 -82.02439,36.06244"
       id="path7812"
       inkscape:connector-curvature="0" />
    <path
       style="fill:none;stroke:#343434;stroke-width:2.09056878;stroke-linecap:butt;stroke-linejoin:miter;stroke-miterlimit:4;stroke-opacity:1;stroke-dasharray:none"
       d="m 241.07813,569.57486 c 0,0 -56.28133,3.83418 -82.64093,26.07239"
       id="path7814"
       inkscape:connector-curvature="0" />
    <path
       sodipodi:type="arc"
       style="fill:#343434;fill-opacity:1;fill-rule:nonzero;stroke:#343434;stroke-width:2;stroke-miterlimit:4;stroke-opacity:1;stroke-dasharray:none"
       id="path7816"
       sodipodi:cx="194.45436"
       sodipodi:cy="256.15997"
       sodipodi:rx="3.5355339"
       sodipodi:ry="7.0710678"
       d="m 197.98989,256.15997 c 0,3.90525 -1.58291,7.07107 -3.53553,7.07107 -1.95262,0 -3.53553,-3.16582 -3.53553,-7.07107 0,-3.90524 1.58291,-7.07106 3.53553,-7.07106 1.95262,0 3.53553,3.16582 3.53553,7.07106 z"
       transform="matrix(1.0775718,0,0,0.48878591,-20.033918,127.0635)" />
    <path
       sodipodi:type="arc"
       style="fill:#343434;fill-opacity:1;fill-rule:nonzero;stroke:#343434;stroke-width:2;stroke-miterlimit:4;stroke-opacity:1;stroke-dasharray:none;display:inline"
       id="path7816-7"
       sodipodi:cx="194.45436"
       sodipodi:cy="256.15997"
       sodipodi:rx="3.5355339"
       sodipodi:ry="7.0710678"
       d="m 197.98989,256.15997 c 0,3.90525 -1.58291,7.07107 -3.53553,7.07107 -1.95262,0 -3.53553,-3.16582 -3.53553,-7.07107 0,-3.90524 1.58291,-7.07106 3.53553,-7.07106 1.95262,0 3.53553,3.16582 3.53553,7.07106 z"
       transform="matrix(1.0775718,0,0,0.48878591,22.936639,168.99421)" />
    <path
       sodipodi:type="arc"
       style="fill:#343434;fill-opacity:1;fill-rule:nonzero;stroke:#343434;stroke-width:2;stroke-miterlimit:4;stroke-opacity:1;stroke-dasharray:none;display:inline"
       id="path7816-1"
       sodipodi:cx="194.45436"
       sodipodi:cy="256.15997"
       sodipodi:rx="3.5355339"
       sodipodi:ry="7.0710678"
       d="m 197.98989,256.15997 c 0,3.90525 -1.58291,7.07107 -3.53553,7.07107 -1.95262,0 -3.53553,-3.16582 -3.53553,-7.07107 0,-3.90524 1.58291,-7.07106 3.53553,-7.07106 1.95262,0 3.53553,3.16582 3.53553,7.07106 z"
       transform="matrix(1.0775718,0,0,0.48878591,35.24529,214.40843)" />
    <path
       sodipodi:type="arc"
       style="fill:#343434;fill-opacity:1;fill-rule:nonzero;stroke:#343434;stroke-width:2;stroke-miterlimit:4;stroke-opacity:1;stroke-dasharray:none;display:inline"
       id="path7816-15"
       sodipodi:cx="194.45436"
       sodipodi:cy="256.15997"
       sodipodi:rx="3.5355339"
       sodipodi:ry="7.0710678"
       d="m 197.98989,256.15997 c 0,3.90525 -1.58291,7.07107 -3.53553,7.07107 -1.95262,0 -3.53553,-3.16582 -3.53553,-7.07107 0,-3.90524 1.58291,-7.07106 3.53553,-7.07106 1.95262,0 3.53553,3.16582 3.53553,7.07106 z"
       transform="matrix(1.0775718,0,0,0.48878591,109.24529,248.40843)" />
    <path
       sodipodi:type="arc"
       style="fill:#343434;fill-opacity:1;fill-rule:nonzero;stroke:#343434;stroke-width:2;stroke-miterlimit:4;stroke-opacity:1;stroke-dasharray:none;display:inline"
       id="path7816-2"
       sodipodi:cx="194.45436"
       sodipodi:cy="256.15997"
       sodipodi:rx="3.5355339"
       sodipodi:ry="7.0710678"
       d="m 197.98989,256.15997 c 0,3.90525 -1.58291,7.07107 -3.53553,7.07107 -1.95262,0 -3.53553,-3.16582 -3.53553,-7.07107 0,-3.90524 1.58291,-7.07106 3.53553,-7.07106 1.95262,0 3.53553,3.16582 3.53553,7.07106 z"
       transform="matrix(1.0775718,0,0,0.48878591,189.24529,276.40843)" />
    <path
       sodipodi:type="arc"
       style="fill:#343434;fill-opacity:1;fill-rule:nonzero;stroke:#343434;stroke-width:2;stroke-miterlimit:4;stroke-opacity:1;stroke-dasharray:none;display:inline"
       id="path7816-76"
       sodipodi:cx="194.45436"
       sodipodi:cy="256.15997"
       sodipodi:rx="3.5355339"
       sodipodi:ry="7.0710678"
       d="m 197.98989,256.15997 c 0,3.90525 -1.58291,7.07107 -3.53553,7.07107 -1.95262,0 -3.53553,-3.16582 -3.53553,-7.07107 0,-3.90524 1.58291,-7.07106 3.53553,-7.07106 1.95262,0 3.53553,3.16582 3.53553,7.07106 z"
       transform="matrix(1.0775718,0,0,0.48878591,31.24529,282.40843)" />
    <path
       sodipodi:type="arc"
       style="fill:#343434;fill-opacity:1;fill-rule:nonzero;stroke:#343434;stroke-width:2;stroke-miterlimit:4;stroke-opacity:1;stroke-dasharray:none;display:inline"
       id="path7816-14"
       sodipodi:cx="194.45436"
       sodipodi:cy="256.15997"
       sodipodi:rx="3.5355339"
       sodipodi:ry="7.0710678"
       d="m 197.98989,256.15997 c 0,3.90525 -1.58291,7.07107 -3.53553,7.07107 -1.95262,0 -3.53553,-3.16582 -3.53553,-7.07107 0,-3.90524 1.58291,-7.07106 3.53553,-7.07106 1.95262,0 3.53553,3.16582 3.53553,7.07106 z"
       transform="matrix(1.0775718,0,0,0.48878591,-28.75471,170.40843)" />
    <path
       sodipodi:type="arc"
       style="fill:#343434;fill-opacity:1;fill-rule:nonzero;stroke:#343434;stroke-width:2;stroke-miterlimit:4;stroke-opacity:1;stroke-dasharray:none;display:inline"
       id="path7816-23"
       sodipodi:cx="194.45436"
       sodipodi:cy="256.15997"
       sodipodi:rx="3.5355339"
       sodipodi:ry="7.0710678"
       d="m 197.98989,256.15997 c 0,3.90525 -1.58291,7.07107 -3.53553,7.07107 -1.95262,0 -3.53553,-3.16582 -3.53553,-7.07107 0,-3.90524 1.58291,-7.07106 3.53553,-7.07106 1.95262,0 3.53553,3.16582 3.53553,7.07106 z"
       transform="matrix(1.0775718,0,0,0.48878591,115.24529,40.40843)" />
    <path
       sodipodi:type="arc"
       style="fill:#343434;fill-opacity:1;fill-rule:nonzero;stroke:#343434;stroke-width:2;stroke-miterlimit:4;stroke-opacity:1;stroke-dasharray:none;display:inline"
       id="path7816-22"
       sodipodi:cx="194.45436"
       sodipodi:cy="256.15997"
       sodipodi:rx="3.5355339"
       sodipodi:ry="7.0710678"
       d="m 197.98989,256.15997 c 0,3.90525 -1.58291,7.07107 -3.53553,7.07107 -1.95262,0 -3.53553,-3.16582 -3.53553,-7.07107 0,-3.90524 1.58291,-7.07106 3.53553,-7.07106 1.95262,0 3.53553,3.16582 3.53553,7.07106 z"
       transform="matrix(1.0775718,0,0,0.48878591,176.88133,195.4795)" />
    <path
       sodipodi:type="arc"
       style="fill:#343434;fill-opacity:1;fill-rule:nonzero;stroke:#343434;stroke-width:2;stroke-miterlimit:4;stroke-opacity:1;stroke-dasharray:none;display:inline"
       id="path7816-16"
       sodipodi:cx="194.45436"
       sodipodi:cy="256.15997"
       sodipodi:rx="3.5355339"
       sodipodi:ry="7.0710678"
       d="m 197.98989,256.15997 c 0,3.90525 -1.58291,7.07107 -3.53553,7.07107 -1.95262,0 -3.53553,-3.16582 -3.53553,-7.07107 0,-3.90524 1.58291,-7.07106 3.53553,-7.07106 1.95262,0 3.53553,3.16582 3.53553,7.07106 z"
       transform="matrix(1.0775718,0,0,0.48878591,97.24529,228.40843)" />
    <path
       sodipodi:type="arc"
       style="fill:#343434;fill-opacity:1;fill-rule:nonzero;stroke:#343434;stroke-width:2;stroke-miterlimit:4;stroke-opacity:1;stroke-dasharray:none;display:inline"
       id="path7816-8"
       sodipodi:cx="194.45436"
       sodipodi:cy="256.15997"
       sodipodi:rx="3.5355339"
       sodipodi:ry="7.0710678"
       d="m 197.98989,256.15997 c 0,3.90525 -1.58291,7.07107 -3.53553,7.07107 -1.95262,0 -3.53553,-3.16582 -3.53553,-7.07107 0,-3.90524 1.58291,-7.07106 3.53553,-7.07106 1.95262,0 3.53553,3.16582 3.53553,7.07106 z"
       transform="matrix(1.0775718,0,0,0.48878591,147.24529,420.40843)" />
    <path
       sodipodi:type="arc"
       style="fill:#343434;fill-opacity:1;fill-rule:nonzero;stroke:#343434;stroke-width:2;stroke-miterlimit:4;stroke-opacity:1;stroke-dasharray:none;display:inline"
       id="path7816-5"
       sodipodi:cx="194.45436"
       sodipodi:cy="256.15997"
       sodipodi:rx="3.5355339"
       sodipodi:ry="7.0710678"
       d="m 197.98989,256.15997 c 0,3.90525 -1.58291,7.07107 -3.53553,7.07107 -1.95262,0 -3.53553,-3.16582 -3.53553,-7.07107 0,-3.90524 1.58291,-7.07106 3.53553,-7.07106 1.95262,0 3.53553,3.16582 3.53553,7.07106 z"
       transform="matrix(1.0775718,0,0,0.48878591,59.24529,396.40843)" />
    <path
       sodipodi:type="arc"
       style="fill:#343434;fill-opacity:1;fill-rule:nonzero;stroke:#343434;stroke-width:2;stroke-miterlimit:4;stroke-opacity:1;stroke-dasharray:none;display:inline"
       id="path7816-761"
       sodipodi:cx="194.45436"
       sodipodi:cy="256.15997"
       sodipodi:rx="3.5355339"
       sodipodi:ry="7.0710678"
       d="m 197.98989,256.15997 c 0,3.90525 -1.58291,7.07107 -3.53553,7.07107 -1.95262,0 -3.53553,-3.16582 -3.53553,-7.07107 0,-3.90524 1.58291,-7.07106 3.53553,-7.07106 1.95262,0 3.53553,3.16582 3.53553,7.07106 z"
       transform="matrix(1.0775718,0,0,0.48878591,65.24529,462.40843)" />
    <path
       sodipodi:type="arc"
       style="fill:#343434;fill-opacity:1;fill-rule:nonzero;stroke:#343434;stroke-width:2;stroke-miterlimit:4;stroke-opacity:1;stroke-dasharray:none;display:inline"
       id="path7816-89"
       sodipodi:cx="194.45436"
       sodipodi:cy="256.15997"
       sodipodi:rx="3.5355339"
       sodipodi:ry="7.0710678"
       d="m 197.98989,256.15997 c 0,3.90525 -1.58291,7.07107 -3.53553,7.07107 -1.95262,0 -3.53553,-3.16582 -3.53553,-7.07107 0,-3.90524 1.58291,-7.07106 3.53553,-7.07106 1.95262,0 3.53553,3.16582 3.53553,7.07106 z"
       transform="matrix(1.0775718,0,0,0.48878591,25.24529,438.40843)" />
    <path
       sodipodi:type="arc"
       style="fill:#343434;fill-opacity:1;fill-rule:nonzero;stroke:#343434;stroke-width:2;stroke-miterlimit:4;stroke-opacity:1;stroke-dasharray:none;display:inline"
       id="path7816-27"
       sodipodi:cx="194.45436"
       sodipodi:cy="256.15997"
       sodipodi:rx="3.5355339"
       sodipodi:ry="7.0710678"
       d="m 197.98989,256.15997 c 0,3.90525 -1.58291,7.07107 -3.53553,7.07107 -1.95262,0 -3.53553,-3.16582 -3.53553,-7.07107 0,-3.90524 1.58291,-7.07106 3.53553,-7.07106 1.95262,0 3.53553,3.16582 3.53553,7.07106 z"
       transform="matrix(1.0775718,0,0,0.48878591,-51.853732,460.46434)" />
    <path
       sodipodi:type="arc"
       style="fill:#343434;fill-opacity:1;fill-rule:nonzero;stroke:#343434;stroke-width:2;stroke-miterlimit:4;stroke-opacity:1;stroke-dasharray:none;display:inline"
       id="path7816-54"
       sodipodi:cx="194.45436"
       sodipodi:cy="256.15997"
       sodipodi:rx="3.5355339"
       sodipodi:ry="7.0710678"
       d="m 197.98989,256.15997 c 0,3.90525 -1.58291,7.07107 -3.53553,7.07107 -1.95262,0 -3.53553,-3.16582 -3.53553,-7.07107 0,-3.90524 1.58291,-7.07106 3.53553,-7.07106 1.95262,0 3.53553,3.16582 3.53553,7.07106 z"
       transform="matrix(1.0775718,0,0,0.48878591,145.42906,447.0293)" />
    <path
       sodipodi:type="arc"
       style="fill:#343434;fill-opacity:1;fill-rule:nonzero;stroke:#343434;stroke-width:2;stroke-miterlimit:4;stroke-opacity:1;stroke-dasharray:none;display:inline"
       id="path7816-3"
       sodipodi:cx="194.45436"
       sodipodi:cy="256.15997"
       sodipodi:rx="3.5355339"
       sodipodi:ry="7.0710678"
       d="m 197.98989,256.15997 c 0,3.90525 -1.58291,7.07107 -3.53553,7.07107 -1.95262,0 -3.53553,-3.16582 -3.53553,-7.07107 0,-3.90524 1.58291,-7.07106 3.53553,-7.07106 1.95262,0 3.53553,3.16582 3.53553,7.07106 z"
       transform="matrix(1.0775718,0,0,0.48878591,53.50518,93.475927)" />
    <path
       style="fill:none;stroke:#343434;stroke-width:2.29999995;stroke-linecap:butt;stroke-linejoin:miter;stroke-miterlimit:4;stroke-opacity:1;stroke-dasharray:none"
       d="m 396.80821,297.17216 c 0,0 -23.33452,22.62742 -21.2132,29.69848"
       id="path7948"
       inkscape:connector-curvature="0" />
  </g>
  <g
     inkscape:groupmode="layer"
     id="layer12"
     inkscape:label="mouth"
     style="display:inline"
     transform="translate(-22.023105,-121.05263)">
    <path
       sodipodi:type="arc"
       style="fill:#1c1c1c;fill-opacity:1;fill-rule:evenodd;stroke:none;display:inline"
       id="path3525-3-2"
       sodipodi:cx="369.10974"
       sodipodi:cy="302.12189"
       sodipodi:rx="55.154327"
       sodipodi:ry="58.689861"
       d="m 424.26407,302.12189 c 0,32.41351 -24.69343,58.68986 -55.15433,58.68986 -30.46089,0 -55.15433,-26.27635 -55.15433,-58.68986 0,-2.35103 0.13276,-4.69994 0.39756,-7.03402 l 54.75677,7.03402 z"
       transform="translate(61.890262,30.912373)"
       sodipodi:start="0"
       sodipodi:end="3.2617321" />
    <path
       sodipodi:type="arc"
       style="fill:#828282;fill-opacity:1;fill-rule:evenodd;stroke:none;display:inline"
       id="path3525-3-8-7"
       sodipodi:cx="369.10974"
       sodipodi:cy="302.12189"
       sodipodi:rx="55.154327"
       sodipodi:ry="58.689861"
       d="m 424.26407,302.12189 c 0,32.41351 -24.69343,58.68986 -55.15433,58.68986 -30.46089,0 -55.15433,-26.27635 -55.15433,-58.68986 0,-2.35103 0.13276,-4.69994 0.39756,-7.03402 l 54.75677,7.03402 z"
       transform="matrix(0.94560716,0,0,0.86306347,77.96718,75.49276)"
       sodipodi:start="0"
       sodipodi:end="3.2617321" />
    <path
       style="fill:none;stroke:#343434;stroke-width:1.29999995;stroke-linecap:butt;stroke-linejoin:miter;stroke-miterlimit:4;stroke-opacity:1;stroke-dasharray:none"
       d="m 52.3259,435.76509 c 0,0 -4.949747,16.97056 -11.313708,14.84924"
       id="path7786"
       inkscape:connector-curvature="0" />
    <path
       style="fill:none;stroke:#343434;stroke-width:1.92515194;stroke-linecap:butt;stroke-linejoin:miter;stroke-miterlimit:4;stroke-opacity:1;stroke-dasharray:none"
       d="m 82.718915,454.86955 c 0,0 0,33.16238 -14.116983,31.08973"
       id="path7788"
       inkscape:connector-curvature="0" />
    <path
       style="fill:none;stroke:#343434;stroke-width:1.29999995;stroke-linecap:butt;stroke-linejoin:miter;stroke-miterlimit:4;stroke-opacity:1;stroke-dasharray:none"
       d="m 66.00357,445.66458 c 0,0 -4.242641,24.04163 -14.142136,23.33452"
       id="path7790"
       inkscape:connector-curvature="0" />
    <path
       style="fill:none;stroke:#343434;stroke-width:2.1572392;stroke-linecap:butt;stroke-linejoin:miter;stroke-miterlimit:4;stroke-opacity:1;stroke-dasharray:none;display:inline"
       d="m 106.13841,463.90842 c 0,0 0,35.17154 -16.713327,32.97332"
       id="path7788-1"
       inkscape:connector-curvature="0" />
    <path
       sodipodi:type="arc"
       style="fill:#343434;fill-opacity:1;fill-rule:nonzero;stroke:#343434;stroke-width:2;stroke-miterlimit:4;stroke-opacity:1;stroke-dasharray:none;display:inline"
       id="path7816-12"
       sodipodi:cx="194.45436"
       sodipodi:cy="256.15997"
       sodipodi:rx="3.5355339"
       sodipodi:ry="7.0710678"
       d="m 197.98989,256.15997 c 0,3.90525 -1.58291,7.07107 -3.53553,7.07107 -1.95262,0 -3.53553,-3.16582 -3.53553,-7.07107 0,-3.90524 1.58291,-7.07106 3.53553,-7.07106 1.95262,0 3.53553,3.16582 3.53553,7.07106 z"
       transform="matrix(1.0775718,0,0,0.48878591,175.99046,216.18006)" />
    <path
       sodipodi:type="arc"
       style="fill:#343434;fill-opacity:1;fill-rule:nonzero;stroke:#343434;stroke-width:2;stroke-miterlimit:4;stroke-opacity:1;stroke-dasharray:none;display:inline"
       id="path7816-33"
       sodipodi:cx="194.45436"
       sodipodi:cy="256.15997"
       sodipodi:rx="3.5355339"
       sodipodi:ry="7.0710678"
       d="m 197.98989,256.15997 c 0,3.90525 -1.58291,7.07107 -3.53553,7.07107 -1.95262,0 -3.53553,-3.16582 -3.53553,-7.07107 0,-3.90524 1.58291,-7.07106 3.53553,-7.07106 1.95262,0 3.53553,3.16582 3.53553,7.07106 z"
       transform="matrix(1.0775718,0,0,0.48878591,112.90215,231.36174)" />
    <path
       sodipodi:type="arc"
       style="fill:#343434;fill-opacity:1;fill-rule:nonzero;stroke:#343434;stroke-width:2;stroke-miterlimit:4;stroke-opacity:1;stroke-dasharray:none;display:inline"
       id="path7816-4"
       sodipodi:cx="194.45436"
       sodipodi:cy="256.15997"
       sodipodi:rx="3.5355339"
       sodipodi:ry="7.0710678"
       d="m 197.98989,256.15997 c 0,3.90525 -1.58291,7.07107 -3.53553,7.07107 -1.95262,0 -3.53553,-3.16582 -3.53553,-7.07107 0,-3.90524 1.58291,-7.07106 3.53553,-7.07106 1.95262,0 3.53553,3.16582 3.53553,7.07106 z"
       transform="matrix(1.0775718,0,0,0.48878591,16.735626,183.27849)" />
  </g>
  <g
     inkscape:groupmode="layer"
     id="layer10"
     inkscape:label="pupil"
     style="display:inline"
     transform="translate(-22.023105,-121.05263)">
    <ellipse
       style="fill:#566356;fill-opacity:1;display:inline"
       id="path3959-9-1"
       cx="357.3313"
       cy="239.43326"
       rx="39.767441"
       ry="40"
       sodipodi:cx="357.3313"
       sodipodi:cy="239.43326"
       sodipodi:rx="39.767441"
       sodipodi:ry="40"
       d="m 397.09874,239.43326 c 0,22.09139 -17.80449,40 -39.76744,40 -21.96295,0 -39.76744,-17.90861 -39.76744,-40 0,-22.09139 17.80449,-40 39.76744,-40 21.96295,0 39.76744,17.90861 39.76744,40 z" />
    <ellipse
       style="fill:#000000;fill-opacity:1;display:inline"
       id="path3959-7-4-1"
       cx="364.90613"
       cy="235.79688"
       rx="34.086376"
       ry="32.727272"
       sodipodi:cx="364.90613"
       sodipodi:cy="235.79688"
       sodipodi:rx="34.086376"
       sodipodi:ry="32.727272"
       d="m 398.9925,235.79687 c 0,18.07478 -15.26099,32.72728 -34.08637,32.72728 -18.82539,0 -34.08638,-14.6525 -34.08638,-32.72728 0,-18.07477 15.26099,-32.72727 34.08638,-32.72727 18.82538,0 34.08637,14.6525 34.08637,32.72727 z" />
    <circle
       style="fill:#ffffff;fill-opacity:1;display:inline"
       id="path3979-8-5"
       cx="355.58865"
       cy="217.25317"
       r="12.121831"
       sodipodi:cx="355.58865"
       sodipodi:cy="217.25317"
       sodipodi:rx="12.121831"
       sodipodi:ry="12.121831"
       d="m 367.71048,217.25317 c 0,6.69471 -5.42712,12.12183 -12.12183,12.12183 -6.6947,0 -12.12183,-5.42712 -12.12183,-12.12183 0,-6.6947 5.42713,-12.12183 12.12183,-12.12183 6.69471,0 12.12183,5.42713 12.12183,12.12183 z" />
    <path
       style="fill:none;stroke:#343434;stroke-width:3.19000006;stroke-linecap:butt;stroke-linejoin:miter;stroke-miterlimit:4;stroke-opacity:1;stroke-dasharray:none"
       d="m 402.1316,224.83512 46.38625,15.98066"
       id="path7778"
       inkscape:connector-curvature="0" />
    <path
       style="fill:none;stroke:#343434;stroke-width:2.29999995;stroke-linecap:butt;stroke-linejoin:miter;stroke-miterlimit:4;stroke-opacity:1;stroke-dasharray:none"
       d="m 328.80464,185.44929 2.82843,-24.74873"
       id="path7780"
       inkscape:connector-curvature="0" />
  </g>
</svg>
