<?xml version="1.0" encoding="UTF-8" standalone="no"?>
<!-- Created with Inkscape (http://www.inkscape.org/) -->

<svg
   xmlns:osb="http://www.openswatchbook.org/uri/2009/osb"
   xmlns:dc="http://purl.org/dc/elements/1.1/"
   xmlns:cc="http://creativecommons.org/ns#"
   xmlns:rdf="http://www.w3.org/1999/02/22-rdf-syntax-ns#"
   xmlns:svg="http://www.w3.org/2000/svg"
   xmlns="http://www.w3.org/2000/svg"
   xmlns:sodipodi="http://sodipodi.sourceforge.net/DTD/sodipodi-0.dtd"
   xmlns:inkscape="http://www.inkscape.org/namespaces/inkscape"
   width="744.09448819"
   height="1052.3622047"
   id="svg2"
   version="1.1"
   inkscape:version="0.48.5 r10040"
   sodipodi:docname="pfudor.svg">
  <defs
     id="defs4">
    <linearGradient
       id="linearGradient4148"
       osb:paint="solid">
      <stop
         style="stop-color:#004800;stop-opacity:1;"
         offset="0"
         id="stop4150" />
    </linearGradient>
  </defs>
  <sodipodi:namedview
     id="base"
     pagecolor="#ffffff"
     bordercolor="#666666"
     borderopacity="1.0"
     inkscape:pageopacity="0.0"
     inkscape:pageshadow="2"
     inkscape:zoom="0.70710678"
     inkscape:cx="338.64082"
     inkscape:cy="701.2591"
     inkscape:document-units="px"
     inkscape:current-layer="layer4"
     showgrid="false"
     inkscape:window-width="1920"
     inkscape:window-height="1017"
     inkscape:window-x="-8"
     inkscape:window-y="-8"
     inkscape:window-maximized="1" />
  <metadata
     id="metadata7">
    <rdf:RDF>
      <cc:Work
         rdf:about="">
        <dc:format>image/svg+xml</dc:format>
        <dc:type
           rdf:resource="http://purl.org/dc/dcmitype/StillImage" />
        <dc:title></dc:title>
      </cc:Work>
    </rdf:RDF>
  </metadata>
  <g
     inkscape:groupmode="layer"
     id="layer3"
     inkscape:label="background"
     style="display:inline"
     sodipodi:insensitive="true">
    <rect
       style="opacity:0.18000004;fill:#00fff0;fill-opacity:0.95767194"
       id="rect2993"
       width="942.85718"
       height="1148.5714"
       x="-135.24048"
       y="-37.939335" />
  </g>
  <g
     inkscape:groupmode="layer"
     id="layer17"
     inkscape:label="NEW wing1" />
  <g
     inkscape:groupmode="layer"
     id="layer19"
     inkscape:label="NEW tail">
    <path
       style="fill:#ffe5ed;fill-opacity:1;stroke:none;display:inline"
       d="M 138.86401,493.32556 C 56.249233,530.3789 26.972852,419.33907 26.972852,419.33907 c 0,0 57.601454,51.95477 100.089068,44.94467 29.50528,18.02595 11.80209,29.04182 11.80209,29.04182 z"
       id="path4779-3"
       inkscape:connector-curvature="0"
       sodipodi:nodetypes="cccc" />
    <path
       style="fill:#ffb7cf;stroke:none;stroke-width:1px;stroke-linecap:butt;stroke-linejoin:miter;stroke-opacity:1;fill-opacity:1"
       d="m 104,463.36218 4,-11 -19,3 -2,-22 -11,15 -7,-18 -9,7 0,-20 -14,13 -10,-16 1,11 -24,-17 6,17 -3,24 10,-12 0,22 12,-9 -16,17 17,-2 3,18 12,-9 c 0,0 -8,17 -3,17 5,0 12,-4 12,-4 l 6,13 8,-10 -6,25 18,-10 12,-6 -10,15 17,-10 1,-8 c 0,0 -53,11 -81,-75 0,0 63,53 76,42 z"
       id="path6569"
       inkscape:connector-curvature="0" />
    <path
       style="fill:#ffe5ed;fill-opacity:1;stroke:none"
       d="m 107,464.73662 4,-10.7274 -19,2.92566 -2,-21.4548 -11,14.62827 -7,-17.55393 -9,6.82653 0,-19.50437 -14,12.67784 -10,-15.60349 1,10.7274 -24,-16.57871 6,16.57871 -3,23.40524 10,-11.70262 0,21.4548 12,-8.77696 -16,16.57871 17,-1.95044 3,17.55393 12,-8.77697 c 0,0 -8,16.57871 -3,16.57871 5,0 12,-3.90087 12,-3.90087 l 6,12.67784 8,-9.75219 -6,24.38046 18,-9.75218 12,-5.85131 -10,14.62827 17,-9.75218 1,-7.80175 c 0,0 -53,10.7274 -81,-73.14136 0,0 63,51.68656 76,40.95916 z"
       id="path6569-5"
       inkscape:connector-curvature="0" />
    <path
       style="fill:#ffb7cf;stroke:none;stroke-width:1px;stroke-linecap:butt;stroke-linejoin:miter;stroke-opacity:1;fill-opacity:1"
       d="m 127,499.36218 c -7.5,4.5 -18.5,20 -18.5,20 l 14,-8.5 -2,16.5 10.5,-9.5 c 0,0 -12,16.5 -9.5,16 2.5,-0.5 12,-4 12,-4 l 6,20 5,-9.5 9,18.5 11,-6.5 5,15.5 9.5,-5.5 -2,21.5 17,-13 12.5,17 8,-12 9.5,19 15.5,-14 4,15 10,-11 c 0,0 16,17 14,13.5 -2,-3.5 -6.5,-19.5 -6.5,-19.5 0,0 -101.5,7 -134,-79.5 z"
       id="path6607"
       inkscape:connector-curvature="0" />
    <path
       style="fill:#ffe5ed;fill-opacity:1;stroke:none"
       d="m 128.91945,495.57133 c -7.5,4.5 -18.5,20 -18.5,20 l 14,-8.5 -2,16.5 10.5,-9.5 c 0,0 -12,16.5 -9.5,16 2.5,-0.5 12,-4 12,-4 l 6,20 5,-9.5 9,18.5 11,-6.5 5,15.5 9.5,-5.5 -2,21.5 17,-13 12.5,17 8,-12 9.5,19 15.5,-14 4,15 10,-11 c 0,0 16,17 14,13.5 -2,-3.5 -6.5,-19.5 -6.5,-19.5 0,0 -101.5,7 -134,-79.5 z"
       id="path6607-0"
       inkscape:connector-curvature="0" />
  </g>
  <g
     inkscape:groupmode="layer"
     id="layer16"
     inkscape:label="NEW body"
     style="display:inline">
    <ellipse
       style="opacity:1;fill:#ffe5ed;fill-opacity:1"
       id="path4291-9"
       cx="254.86623"
       cy="468.28967"
       rx="133.28963"
       ry="110.30864" />
    <path
       style="fill:#ffb1cb;stroke:none;stroke-width:1px;stroke-linecap:butt;stroke-linejoin:miter;stroke-opacity:1;fill-opacity:1"
       d="m 354.9676,542.53819 12.02082,21.21321 -26.87006,-9.19239 1.41422,16.97056 -22.62742,-7.07107 -2.12132,21.92031 -13.43503,-15.55635 -10.6066,24.74874 0,-16.26345 c 0,0 -4.24264,21.2132 -8.48528,18.38477 -4.24264,-2.82842 -7.77818,-9.89949 -9.19239,-13.43503 -1.41422,-3.53553 -10.6066,-4.94974 -10.6066,-4.94974 0,0 65.76093,-14.14214 90.50966,-36.76956 z"
       id="path6627"
       inkscape:connector-curvature="0" />
    <path
       style="fill:#ffe5ed;fill-opacity:1;stroke:none;display:inline"
       d="m 353.32605,537.64945 12.02082,21.21321 -26.87006,-9.19239 1.41422,16.97056 -22.62742,-7.07107 -2.12132,21.92031 -13.43503,-15.55635 -10.6066,24.74874 0,-16.26345 c 0,0 -4.24264,21.2132 -8.48528,18.38477 -4.24264,-2.82842 -7.77818,-9.89949 -9.19239,-13.43503 -1.41422,-3.53553 -10.6066,-4.94974 -10.6066,-4.94974 0,0 65.76093,-14.14214 90.50966,-36.76956 z"
       id="path6627-2"
       inkscape:connector-curvature="0" />
  </g>
  <g
     inkscape:groupmode="layer"
     id="layer18"
     inkscape:label="NEW wing2" />
  <g
     inkscape:groupmode="layer"
     id="layer7"
     inkscape:label="NEW leg 3"
     style="display:inline">
    <ellipse
       style="fill:#ffb1cb;fill-opacity:1"
       id="path4208"
       cx="181.72644"
       cy="529.81024"
       rx="75.660423"
       ry="73.539101"
       sodipodi:cx="181.72644"
       sodipodi:cy="529.81024"
       sodipodi:rx="75.660423"
       sodipodi:ry="73.539101" />
    <ellipse
       style="fill:#ffb7cf;fill-opacity:1"
       id="path4210"
       cx="211.42493"
       cy="595.57129"
       rx="53.740112"
       ry="37.476658"
       sodipodi:cx="211.42493"
       sodipodi:cy="595.57129"
       sodipodi:rx="53.740112"
       sodipodi:ry="37.476658" />
    <ellipse
       style="fill:#ffe5ed;fill-opacity:1"
       id="path4208-2"
       cx="179.95868"
       cy="527.33551"
       rx="73.185547"
       ry="70.357117"
       sodipodi:cx="179.95868"
       sodipodi:cy="527.33551"
       sodipodi:rx="73.185547"
       sodipodi:ry="70.357117" />
    <ellipse
       style="fill:#ffe5ed;fill-opacity:1"
       id="path4210-6"
       cx="209.3036"
       cy="595.9248"
       rx="48.790363"
       ry="31.466249"
       sodipodi:cx="209.3036"
       sodipodi:cy="595.9248"
       sodipodi:rx="48.790363"
       sodipodi:ry="31.466249" />
  </g>
  <g
     inkscape:groupmode="layer"
     id="layer2"
     inkscape:label="NEW leg 1"
     style="display:inline">
    <ellipse
       style="fill:#ffb1cb;fill-opacity:1"
       id="path3399"
       cx="318.55161"
       cy="506.4758"
       rx="61.164734"
       ry="65.053818"
       sodipodi:cx="318.55161"
       sodipodi:cy="506.4758"
       sodipodi:rx="61.164734"
       sodipodi:ry="65.053818" />
    <ellipse
       style="fill:#ffb1cb;fill-opacity:1"
       id="path3401"
       cx="306.53079"
       cy="554.9126"
       rx="51.26524"
       ry="61.871841"
       sodipodi:cx="306.53079"
       sodipodi:cy="554.9126"
       sodipodi:rx="51.26524"
       sodipodi:ry="61.871841" />
    <ellipse
       style="fill:#ffbfd5;fill-opacity:1"
       id="path3403"
       cx="334.46149"
       cy="597.33899"
       rx="53.033009"
       ry="37.123104"
       sodipodi:cx="334.46149"
       sodipodi:cy="597.33899"
       sodipodi:rx="53.033009"
       sodipodi:ry="37.123104" />
    <ellipse
       style="fill:#ffe5ed;fill-opacity:1"
       id="path3399-9"
       cx="318.6575"
       cy="504.23141"
       rx="58.875145"
       ry="64.577232"
       sodipodi:cx="318.6575"
       sodipodi:cy="504.23141"
       sodipodi:rx="58.875145"
       sodipodi:ry="64.577232" />
    <ellipse
       style="fill:#ffe5ed;fill-opacity:1"
       id="path3401-5"
       cx="307.08667"
       cy="552.31335"
       rx="49.346218"
       ry="61.418568"
       sodipodi:cx="307.08667"
       sodipodi:cy="552.31335"
       sodipodi:rx="49.346218"
       sodipodi:ry="61.418568" />
    <ellipse
       style="fill:#ffe5ed;fill-opacity:1"
       id="path3403-4"
       cx="328.31494"
       cy="595.8432"
       rx="51.047817"
       ry="36.851139"
       sodipodi:cx="328.31494"
       sodipodi:cy="595.8432"
       sodipodi:rx="51.047817"
       sodipodi:ry="36.851139" />
    <path
       style="fill:#ffb7cf;fill-opacity:1;stroke:none"
       d="m 458,277.36218 6,-10 -7,0 5,-12 -10,-2 14,-16 -19,-5 4,-12 -18,0 16,-21 -28,10 13,-17 -13,0 6,-12 -19,3 13,-19 -37,15 20,-23 -30,9 13,-15 -31,12 11,-21 -33,18 -19,-18 2,19 -32,6 -8,-9 -6,11 c 0,0 143,-47 187,109 z"
       id="path6485"
       inkscape:connector-curvature="0" />
    <path
       style="fill:#ffb7cf;fill-opacity:1;stroke:none"
       d="m 287,434.36218 -4,7 -22,-8 -7,6 -1,-20 -22,9 -21,-9 17,-3 -16,-20 -10,7 -5,-18 -10,4 4,-18 -7,0 -18,4 10,-17 -16,1 11,-18 -12,-1 12,-15 -16,-4 12,-28 -10,9 2,-27 -15,8 18,-22 -21,-4 40,-10 -27,-10 14,-10 -22,-12 9,-12 -11,-11 9,2 -8,-21 6,-6 -11,-19 13,0 4,-14 7,-14 4,7 10,-11 0,12 10,-4 0,8 16,-7 0,8 9,0 0,7 15,-5 -3,13 8,2 0,15 14,-12 -5,19 1,12 -16,-21 c 0,0 -108,-95.999997 -47,82 0,0 -34,156 108,189 z"
       id="path6489"
       inkscape:connector-curvature="0" />
    <path
       style="fill:#ffe5ed;fill-opacity:1;stroke:none;display:inline"
       d="m 293,435.86218 -4,7 -22,-8 -7,6 -1,-20 -22,9 -21,-9 17,-3 -16,-20 -10,7 -5,-18 -10,4 4,-18 -7,0 -18,4 10,-17 -16,1 11,-18 -12,-1 12,-15 -16,-4 12,-28 -10,9 2,-27 -15,8 18,-22 -21,-4 40,-10 -27,-10 14,-10 -22,-12 9,-12 -11,-11 9,2 -8,-21 6,-6 -11,-19 13,0 4,-14 7,-14 4,7 10,-11 0,12 10,-4 0,8 16,-7 0,8 9,0 0,7 15,-5 -3,13 8,2 0,15 14,-12 -5,19 1,12 -16,-21 c 0,0 -108,-95.999994 -47,82 0,0 -34,156 108,189 z"
       id="path6489-3"
       inkscape:connector-curvature="0" />
    <path
       style="fill:#ffe5ed;fill-opacity:1;stroke:none;display:inline"
       d="m 451.5,281.36218 6,-10 -7,0 5,-12 -10,-2 14,-16 -19,-5 4,-12 -18,0 16,-21 -28,10 13,-17 -13,0 6,-12 -19,3 13,-19 -37,15 20,-23 -30,9 13,-15 -31,12 11,-21 -33,18 -19,-18 2,19 -32,6 -8,-9 -6,11 c 0,0 143,-47 187,109 z"
       id="path6485-1"
       inkscape:connector-curvature="0" />
    <path
       style="fill:#ffb7cf;fill-opacity:1;stroke:none"
       d="m 175,379.36218 c -7,-3 -11,-24 -11,-24 0,0 -5,24 -9,23 -4,-1 -8,-20 -8,-20 l -8,22 -28,1 21,7 c 0,0 -31,14 -24,15 7,1 20,-4 20,-4 l -20,19 16,-2 -21,17 12,2 -20,16 22,-6 -11,12 6,0 -4,8 11,0 -13,14 11,-3 -17,11 14,2 -16,7 8,7 17,-5 c 0,0 -19,-76 52,-119 z"
       id="path6527"
       inkscape:connector-curvature="0" />
    <path
       style="fill:#ffe5ed;fill-opacity:1;stroke:none;display:inline"
       d="m 172.02381,380.57722 c -6.0375,-3 -9.4875,-24 -9.4875,-24 0,0 -4.3125,24 -7.7625,23 -3.45,-1 -6.9,-20 -6.9,-20 l -6.9,22 -24.15,1 18.1125,7 c 0,0 -26.7375,14 -20.7,15 6.0375,1 17.25,-4 17.25,-4 l -17.25,19 13.8,-2 -18.1125,17 10.35,2 -17.25,16 18.975,-6 -9.4875,12 5.175,0 -3.45,8 9.4875,0 -11.2125,14 9.4875,-3 -14.6625,11 12.075,2 -13.8,7 6.9,7 14.6625,-5 c 0,0 -16.3875,-76 44.85,-119 z"
       id="path6527-9"
       inkscape:connector-curvature="0" />
  </g>
  <g
     inkscape:groupmode="layer"
     id="layer13"
     inkscape:label="2ndear"
     style="display:inline;opacity:1">
    <ellipse
       style="fill:#ffc5d7;fill-opacity:1;stroke:none"
       id="path4937"
       transform="matrix(1.9452909,0.79589001,-1.0767016,3.359781,-227.15842,-474.52814)"
       cx="296.78571"
       cy="122.36218"
       rx="14.642858"
       ry="15" />
    <ellipse
       style="display:inline;fill:#ffe5ed;fill-opacity:1;stroke:none"
       id="path4937-5"
       transform="matrix(1.9452909,0.79589001,-1.0767016,3.359781,-225.37747,-468.51906)"
       cx="296.78571"
       cy="122.36218"
       rx="14.642858"
       ry="15" />
    <path
       style="fill:#ffbfd5;stroke:none;stroke-width:1px;stroke-linecap:butt;stroke-linejoin:miter;stroke-opacity:1;fill-opacity:1"
       d="m 244.65895,134.53758 c 0.7071,-5.65685 7.07106,-24.04163 7.07106,-24.04163 l -12.72792,10.6066 -10.6066,-13.43503 -5.65685,15.55635 -12.72793,-16.26345 0,21.92031 -14.14213,4.94974 5.65685,1.41422 0,7.07106 c 0,0 23.33453,-29.69848 43.13352,-7.77817 z"
       id="path6647"
       inkscape:connector-curvature="0" />
    <path
       inkscape:connector-curvature="0"
       id="path6649"
       d="m 245.01698,135.78209 c 0.6713,-4.75176 6.71303,-20.19497 6.71303,-20.19497 l -12.08347,8.90954 -10.06956,-11.28542 -5.37042,13.06733 -12.08348,-13.6613 0,18.41306 -13.42607,4.15779 5.37042,1.18794 0,5.93969 c 0,0 22.15304,-24.94672 40.94955,-6.53366 z"
       style="fill:#ffe5ed;fill-opacity:1;stroke:none" />
  </g>
  <g
     inkscape:groupmode="layer"
     id="layer8"
     inkscape:label="head2"
     style="display:inline">
    <path
       sodipodi:type="arc"
       style="display:inline;fill:#ffb1cb;fill-opacity:1;stroke:none"
       id="path4942-2-8"
       sodipodi:cx="167.5"
       sodipodi:cy="420.21933"
       sodipodi:rx="28.214285"
       sodipodi:ry="37.857143"
       d="m 191.8995,439.22853 a 28.214285,37.857143 0 0 1 -36.26708,15.33614 28.214285,37.857143 0 0 1 -14.71076,-47.04886 28.214285,37.857143 0 0 1 33.56624,-23.97414 L 167.5,420.21933 Z"
       sodipodi:start="0.52605967"
       sodipodi:end="4.962666"
       transform="matrix(-1.0782722,0.0380095,0,0.93923251,467.25327,-237.79284)" />
    <path
       style="display:inline;fill:#ffe5ed;fill-opacity:1"
       d="m 316.82687,162.76157 c -78.10884,0 -141.40625,61.41434 -141.40625,137.15625 0,75.74191 63.29741,137.125 141.40625,137.125 43.48188,0 82.3158,-19.0611 108.25,-49 -0.0932,-0.065 -0.15274,-0.11911 -0.25,-0.1875 -1.1841,-0.23788 -2.4194,-0.57033 -2.875,-1.0625 -0.26001,-0.28089 -0.48057,-0.59017 -0.71875,-0.875 -0.27349,-0.0621 -0.55614,-0.13464 -0.84375,-0.21875 -0.45402,-0.1047 -0.89966,-0.20981 -1.34375,-0.34375 -0.20423,-0.0616 -0.40106,-0.15145 -0.59375,-0.25 -0.009,-0.003 -0.022,0.003 -0.0312,0 -2.04841,-0.59398 -3.42077,-0.94467 -4.875,-2.21875 -1.78254,-0.63533 -2.09704,-0.8266 -2.96875,-1.4375 -1.79807,-0.36627 -2.04275,-0.77772 -3.84375,-1.90625 -0.0732,-0.0459 -0.18862,-0.0642 -0.25,-0.125 -0.12255,-0.12144 -0.22529,-0.24953 -0.34375,-0.375 -0.15588,-0.0578 -0.32467,-0.12818 -0.4375,-0.15625 -1.71203,-0.42586 -3.02064,-1.46614 -4.28125,-2.4375 -0.0611,-0.0422 -0.12655,-0.0827 -0.1875,-0.125 -0.48056,-0.14412 -0.99039,-0.33408 -1.375,-0.65625 -0.65417,-0.54795 -1.14497,-1.02268 -1.53125,-1.4375 -0.36526,0.025 -0.74966,-0.42244 -1.09375,-0.625 -1.53806,-0.90549 -2.43469,-1.73441 -3.375,-2.6875 -0.006,-0.004 -0.0842,-0.0862 -0.0937,-0.0937 -0.0152,-0.0402 -0.0781,-0.16441 -0.25,-0.375 -1.7538,-0.69573 -0.61748,-0.4842 -1.53125,-0.65625 l -1.96875,-2.125 c 0.0567,0.0869 0.14858,0.21642 0.1875,0.28125 0.0118,0.0197 0.002,0.0258 0,0.0312 -0.0171,-0.007 -0.0645,-0.0428 -0.0937,-0.0625 0.0921,0.13163 0.33788,0.49219 0.25,0.375 -0.10048,-0.13398 -0.20475,-0.27613 -0.3125,-0.40625 -0.1097,-0.0799 -0.23816,-0.19599 -0.3125,-0.25 -0.40783,-0.29628 -0.78668,-0.60056 -1.1875,-0.90625 0.38381,0.26086 0.82688,0.56393 1.1875,0.78125 -0.29357,-0.35668 -0.56679,-0.70549 -0.75,-1.125 -0.2313,-0.52964 0.55279,0.56909 1,1.25 0.0127,0.006 0.0191,0.0253 0.0312,0.0312 0.77215,0.37825 0.57415,-0.25319 -3.625,-4.78125 -0.38054,-0.41035 0.22018,0.48287 0.59375,1.3125 0.45321,0.4398 0.83109,1.0793 0.46875,0.9375 -0.0846,-0.0331 -0.14347,-0.10876 -0.21875,-0.15625 0.003,0.0291 2.7e-4,0.0672 0,0.0937 -0.004,0.38702 -0.76688,-0.56146 -0.9375,-1.03125 -0.11294,-0.14253 -0.21867,-0.28238 -0.34375,-0.40625 0.10657,0.10246 0.13676,0.14178 0.3125,0.3125 -0.005,-0.0301 -0.005,-0.0732 0,-0.0937 -0.90438,-0.89573 -2.14048,-2.11219 -2.5626,-3.0312 -0.11109,-0.24186 -0.19108,-0.49947 -0.28125,-0.75 -0.45289,-0.31148 -1.03674,-0.99862 -1.15625,-1.625 -0.0725,-0.38007 0.25455,0.0846 0.625,0.59375 -0.22176,-0.58883 -0.47267,-1.35242 -0.46875,-1.5 l -1.03125,-2.25 c 0.009,0.0577 -0.0506,-0.0629 -0.125,-0.15625 0.15472,0.63581 0.34231,1.28643 0.34375,1.9375 7.7e-4,0.3456 -0.32988,-0.60908 -0.4375,-0.9375 -0.20473,-0.62477 -0.39582,-1.2571 -0.5,-1.90625 -0.65277,-1.28065 -0.78355,-2.5523 -0.75,-3.9375 -0.54056,-0.95378 -1.08701,-2.05773 -1,-2.75 -0.15823,-0.69741 -0.31149,-1.39611 -0.46875,-2.09375 0.0535,-0.32511 0.10199,-0.64376 0.15625,-0.96875 -0.10656,-0.53456 -0.20581,-1.07661 -0.375,-1.59375 -0.10516,-0.32139 0.28262,1.2805 0.0937,1 -0.63609,-0.94465 -0.52926,-3.66282 -0.40625,-4.71875 0.20883,-1.79257 0.65784,-2.58952 1.21875,-2.75 0.42675,-3.55321 4.18423,-6.87276 11.25,-6.6875 2.66445,0.0699 5.28091,-0.43575 7.9375,-0.0625 0.73408,0.19923 1.46054,0.36993 2.1875,0.59375 0.054,0.0166 0.16646,0.039 0.25,0.0625 0.57695,0.0284 1.21134,0.14278 1.84375,0.28125 1.04062,-0.30153 2.27636,-0.45099 3.6875,-0.40625 0.80455,0.0255 0.36998,0.0231 1.3125,0.0312 2.02534,-0.0972 4.14157,-0.51189 5.9375,0.59375 0.0284,9.1e-4 0.0675,0.002 0.0937,0 1.8945,-0.13311 3.75869,-0.0595 5.34375,0.78125 l 2.375,0 c 1.41284,-1e-5 2.83717,-1.1e-4 4.25,0 1.43066,1.9e-4 2.8506,10e-4 4.28125,0 1.50733,1.1e-4 3.02393,0.008 4.53125,0 1.53616,-0.008 3.05877,-0.048 4.59375,0.0312 0.98271,0.0294 1.95365,-0.23797 2.9375,-0.21875 2.00943,0.0392 1.95777,0.16098 3.78125,0.78125 0.0177,0.009 0.0141,0.0225 0.0312,0.0312 0.91346,-0.10564 0.91757,-0.0972 2.59375,0 0.0893,0.02 2.33761,0.46823 2.59375,0.6875 0.14414,0.12339 -0.72332,-0.007 -0.5625,0.0937 0.28534,0.17868 1.60848,-0.11493 2,0 l 1.6875,0 c 2.718,-10.60483 4.1875,-21.67296 4.1875,-33.09375 0,-75.74191 -63.32866,-137.15625 -141.4375,-137.15625 z m 73.15625,204.875 -0.34375,-0.375 c 0.0709,0.10171 0.0998,0.14436 0.21875,0.3125 0.0461,0.026 0.0835,0.0413 0.125,0.0625 z m 13.40625,-18.625 c -10e-4,0.0312 0.002,0.0623 0,0.0937 0.0205,0.0101 0.0419,0.0213 0.0625,0.0312 0.008,-0.0294 0.0227,-0.0626 0.0312,-0.0937 -0.0265,-0.002 -0.0721,-0.0312 -0.0937,-0.0312 z m -20.34375,10 c 0.0437,0.15506 0.038,0.215 0.0625,0.3125 0.0269,0.0361 0.0681,0.0601 0.0937,0.0937 -0.0479,-0.13823 -0.10532,-0.26927 -0.15625,-0.40625 z m 8.53125,9.25 c -0.0951,0.002 1.03558,1.50528 1.5625,1.9375 0.0622,0.051 0.18378,0.10103 0.28125,0.15625 -0.57453,-0.69174 -1.51239,-1.79742 -1.71875,-2 -0.0695,-0.0682 -0.11141,-0.094 -0.125,-0.0937 z m 2.4375,2.375 c 0.63314,0.26978 1.26522,0.48087 0.875,0.34375 -0.4465,-0.1569 -0.56952,-0.22886 -0.875,-0.34375 z m 3.25,2.25 c 0.0197,0.036 0.1367,0.24168 0.28125,0.59375 0.0672,0.0516 0.20331,0.10014 0.3125,0.15625 -0.37546,-0.46758 -0.6225,-0.80247 -0.59375,-0.75 z m 7.46875,4.71875 c 0.16919,0.20123 0.38999,0.48829 0.5,0.625 0.0582,0.0268 0.1266,0.0389 0.1875,0.0625 -0.21905,-0.23981 -0.45784,-0.45822 -0.6875,-0.6875 z m 4.84375,3.15625 c -0.15311,-0.10387 0.26942,0.25047 0.40625,0.375 0.064,0.0285 0.1782,0.0844 0.28125,0.125 -0.21329,-0.14964 -0.37688,-0.28927 -0.6875,-0.5 z m 1.46875,0.53125 c -0.70651,0.0511 1.35472,1.01541 2.34375,1.46875 -0.1966,-0.17978 -0.38547,-0.43737 -0.59375,-0.65625 -0.27802,-0.12143 -0.51987,-0.25214 -1.125,-0.625 -0.0493,-0.067 -0.0461,-0.0603 -0.0937,-0.125 -0.20864,-0.0301 -0.43519,-0.0695 -0.53125,-0.0625 z"
       id="path2985-1"
       inkscape:connector-curvature="0" />
    <path
       style="display:inline;fill:#ffb1cb;fill-opacity:1;fill-rule:evenodd;stroke:none"
       d="m 431.38937,270.19907 c -30.46089,0 -55.15625,26.27398 -55.15625,58.6875 0,5.72611 0.78173,11.27018 2.21875,16.5 0.0506,-0.30459 0.1054,-0.6017 0.15625,-0.90625 -0.10656,-0.53456 -0.20581,-1.07661 -0.375,-1.59375 -0.10516,-0.32139 0.28262,1.2805 0.0937,1 -0.63609,-0.94465 -0.52926,-3.66282 -0.40625,-4.71875 0.20883,-1.79257 0.65784,-2.58952 1.21875,-2.75 0.42675,-3.55321 4.18423,-6.87276 11.25,-6.6875 2.66445,0.0699 5.28091,-0.43575 7.9375,-0.0625 0.73408,0.19923 1.46054,0.36993 2.1875,0.59375 0.054,0.0166 0.16646,0.039 0.25,0.0625 0.57695,0.0284 1.21134,0.14278 1.84375,0.28125 1.04062,-0.30153 2.27636,-0.45099 3.6875,-0.40625 0.80455,0.0255 0.36998,0.0231 1.3125,0.0312 2.02534,-0.0972 4.14157,-0.51189 5.9375,0.59375 0.0284,9.1e-4 0.0675,0.002 0.0937,0 1.8945,-0.13311 3.75869,-0.0595 5.34375,0.78125 l 2.375,0 c 1.41284,-1e-5 2.83717,-1.1e-4 4.25,0 1.43066,1.9e-4 2.8506,10e-4 4.28125,0 1.50733,1.1e-4 3.02393,0.008 4.53125,0 1.53616,-0.008 3.05877,-0.048 4.59375,0.0312 0.98271,0.0294 1.95365,-0.23797 2.9375,-0.21875 2.00943,0.0392 1.95777,0.16098 3.78125,0.78125 0.0177,0.009 0.0141,0.0225 0.0312,0.0312 0.91346,-0.10564 0.91757,-0.0972 2.59375,0 0.0893,0.02 2.33761,0.46823 2.59375,0.6875 0.14414,0.12339 -0.72332,-0.007 -0.5625,0.0937 0.28534,0.17868 1.60848,-0.11493 2,0 l 5.0625,0 4.03125,0 5.125,0 4.96875,0 4.1875,0 6.75,0 c 1.48974,0 2.77674,0.19607 3.84375,0.5625 0.12357,-1.54243 0.1875,-3.11039 0.1875,-4.6875 0,-32.41352 -24.69536,-58.6875 -55.15625,-58.6875 z m -28,78.8125 c -10e-4,0.0312 0.002,0.0623 0,0.0937 0.0205,0.0101 0.0419,0.0213 0.0625,0.0312 0.008,-0.0294 0.0227,-0.0626 0.0312,-0.0937 -0.0265,-0.002 -0.0721,-0.0312 -0.0937,-0.0312 z m -16.78125,14.125 c 0.75558,1.11506 1.54936,2.19564 2.375,3.25 -0.22352,-0.51182 0.48106,0.50134 0.9375,1.1875 l 0.0625,0.0625 c 0.0127,0.006 0.0191,0.0253 0.0312,0.0312 l 0.0312,0.0312 c 0.7124,0.33213 0.44476,-0.35958 -3.4375,-4.5625 z m 3.4375,4.5625 c 8.11127,9.76203 19.22517,16.6357 31.8125,18.96875 -0.22198,-0.24296 -0.41917,-0.50464 -0.625,-0.75 -0.27349,-0.0621 -0.55614,-0.13464 -0.84375,-0.21875 -0.45402,-0.1047 -0.89966,-0.20981 -1.34375,-0.34375 -0.20423,-0.0616 -0.40106,-0.15145 -0.59375,-0.25 -0.009,-0.003 -0.022,0.003 -0.0312,0 -2.04841,-0.59398 -3.42077,-0.94467 -4.875,-2.21875 -1.78254,-0.63533 -2.09704,-0.8266 -2.96875,-1.4375 -1.79807,-0.36627 -2.04275,-0.77772 -3.84375,-1.90625 -0.0732,-0.0459 -0.18862,-0.0642 -0.25,-0.125 -0.12255,-0.12144 -0.22529,-0.24953 -0.34375,-0.375 -0.15588,-0.0578 -0.32467,-0.12818 -0.4375,-0.15625 -1.71203,-0.42586 -3.02064,-1.46614 -4.28125,-2.4375 -0.0611,-0.0422 -0.12655,-0.0827 -0.1875,-0.125 -0.48056,-0.14412 -0.99039,-0.33408 -1.375,-0.65625 -0.65417,-0.54795 -1.14497,-1.02268 -1.53125,-1.4375 -0.36526,0.025 -0.74966,-0.42244 -1.09375,-0.625 -1.53806,-0.90549 -2.43469,-1.73441 -3.375,-2.6875 -0.006,-0.004 -0.0842,-0.0862 -0.0937,-0.0937 -0.0152,-0.0402 -0.0781,-0.16441 -0.25,-0.375 -1.7538,-0.69573 -0.61748,-0.4842 -1.53125,-0.65625 l -1.9375,-2.09375 z m 1.53125,0.5625 c -0.0951,0.002 1.03558,1.50528 1.5625,1.9375 0.0622,0.051 0.18378,0.10103 0.28125,0.15625 -0.57453,-0.69174 -1.51239,-1.79742 -1.71875,-2 -0.0695,-0.0682 -0.11141,-0.094 -0.125,-0.0937 z m 2.4375,2.375 c 0.63314,0.26978 1.26522,0.48087 0.875,0.34375 -0.4465,-0.1569 -0.56952,-0.22886 -0.875,-0.34375 z m 3.25,2.25 c 0.0197,0.036 0.1367,0.24168 0.28125,0.59375 0.0672,0.0516 0.20331,0.10014 0.3125,0.15625 -0.37546,-0.46758 -0.6225,-0.80247 -0.59375,-0.75 z m 7.46875,4.71875 c 0.16919,0.20123 0.38999,0.48829 0.5,0.625 0.0582,0.0268 0.1266,0.0389 0.1875,0.0625 -0.21905,-0.23981 -0.45784,-0.45822 -0.6875,-0.6875 z m 4.84375,3.15625 c -0.15311,-0.10387 0.26942,0.25047 0.40625,0.375 0.064,0.0285 0.1782,0.0844 0.28125,0.125 -0.21329,-0.14964 -0.37688,-0.28927 -0.6875,-0.5 z m 1.46875,0.53125 c -0.70651,0.0511 1.35472,1.01541 2.34375,1.46875 -0.1966,-0.17978 -0.38547,-0.43737 -0.59375,-0.65625 -0.27802,-0.12143 -0.51987,-0.25214 -1.125,-0.625 -0.0493,-0.067 -0.0461,-0.0603 -0.0937,-0.125 -0.20864,-0.0301 -0.43519,-0.0695 -0.53125,-0.0625 z"
       id="path3525"
       inkscape:connector-curvature="0" />
    <path
       style="display:inline;fill:#ffe5ed;fill-opacity:1;fill-rule:evenodd;stroke:none"
       d="m 425.73312,265.23032 c -30.46089,0 -55.15625,26.27398 -55.15625,58.6875 0,22.58628 12.00988,42.16449 29.59375,51.96875 -0.10818,-0.0639 -0.21635,-0.13821 -0.3125,-0.21875 -0.65417,-0.54795 -1.14497,-1.02268 -1.53125,-1.4375 -0.36526,0.025 -0.74966,-0.42244 -1.09375,-0.625 -1.53806,-0.90549 -2.43469,-1.73441 -3.375,-2.6875 -0.006,-0.004 -0.0842,-0.0862 -0.0937,-0.0937 -0.0152,-0.0402 -0.0781,-0.16441 -0.25,-0.375 -1.7538,-0.69573 -0.61748,-0.4842 -1.53125,-0.65625 l -1.96875,-2.125 c 0.0567,0.0869 0.14858,0.21642 0.1875,0.28125 0.0118,0.0197 0.002,0.0258 0,0.0312 -0.0171,-0.007 -0.0645,-0.0428 -0.0937,-0.0625 0.0921,0.13163 0.33788,0.49219 0.25,0.375 -0.10048,-0.13398 -0.20475,-0.27613 -0.3125,-0.40625 -0.1097,-0.0799 -0.23816,-0.19599 -0.3125,-0.25 -0.40783,-0.29628 -0.78668,-0.60056 -1.1875,-0.90625 0.38381,0.26086 0.82688,0.56393 1.1875,0.78125 -0.29357,-0.35668 -0.56679,-0.70549 -0.75,-1.125 -0.2313,-0.52964 0.55279,0.56909 1,1.25 0.0127,0.006 0.0191,0.0253 0.0312,0.0312 0.77215,0.37825 0.57415,-0.25319 -3.625,-4.78125 -0.38054,-0.41035 0.22018,0.48287 0.59375,1.3125 0.45321,0.4398 0.83109,1.0793 0.46875,0.9375 -0.0846,-0.0331 -0.14347,-0.10876 -0.21875,-0.15625 0.003,0.0291 2.7e-4,0.0672 0,0.0937 -0.004,0.38702 -0.76688,-0.56146 -0.9375,-1.03125 -0.11294,-0.14253 -0.21867,-0.28238 -0.34375,-0.40625 0.10657,0.10246 0.13676,0.14178 0.3125,0.3125 -0.005,-0.0301 -0.005,-0.0732 0,-0.0937 -0.90433,-0.89573 -2.14043,-2.11219 -2.56255,-3.0312 -0.11109,-0.24186 -0.19108,-0.49947 -0.28125,-0.75 -0.45289,-0.31148 -1.03674,-0.99862 -1.15625,-1.625 -0.0725,-0.38007 0.25455,0.0846 0.625,0.59375 -0.22176,-0.58883 -0.47267,-1.35242 -0.46875,-1.5 l -1.03125,-2.25 c 0.009,0.0577 -0.0506,-0.0629 -0.125,-0.15625 0.15472,0.63581 0.34231,1.28643 0.34375,1.9375 7.7e-4,0.3456 -0.32988,-0.60908 -0.4375,-0.9375 -0.20473,-0.62477 -0.39582,-1.2571 -0.5,-1.90625 -0.65277,-1.28065 -0.78355,-2.5523 -0.75,-3.9375 -0.54056,-0.95378 -1.08701,-2.05773 -1,-2.75 -0.15823,-0.69741 -0.31149,-1.39611 -0.46875,-2.09375 0.0535,-0.32511 0.10199,-0.64376 0.15625,-0.96875 -0.10656,-0.53456 -0.20581,-1.07661 -0.375,-1.59375 -0.10516,-0.32139 0.28262,1.2805 0.0937,1 -0.63609,-0.94465 -0.52926,-3.66282 -0.40625,-4.71875 0.20883,-1.79257 0.65784,-2.58952 1.21875,-2.75 0.42675,-3.55321 4.18423,-6.87276 11.25,-6.6875 2.66445,0.0699 5.28091,-0.43575 7.9375,-0.0625 0.73408,0.19923 1.46054,0.36993 2.1875,0.59375 0.054,0.0166 0.16646,0.039 0.25,0.0625 0.57695,0.0284 1.21134,0.14278 1.84375,0.28125 1.04062,-0.30153 2.27636,-0.45099 3.6875,-0.40625 0.80455,0.0255 0.36998,0.0231 1.3125,0.0312 2.02534,-0.0972 4.14157,-0.51189 5.9375,0.59375 0.0284,9.1e-4 0.0675,0.002 0.0937,0 1.8945,-0.13311 3.75869,-0.0595 5.34375,0.78125 l 2.375,0 c 1.41284,-1e-5 2.83717,-1.1e-4 4.25,0 1.43066,1.9e-4 2.8506,10e-4 4.28125,0 1.50733,1.1e-4 3.02393,0.008 4.53125,0 1.53616,-0.008 3.05877,-0.048 4.59375,0.0312 0.98271,0.0294 1.95365,-0.23797 2.9375,-0.21875 2.00943,0.0392 1.95777,0.16098 3.78125,0.78125 0.0177,0.009 0.0141,0.0225 0.0312,0.0312 0.91346,-0.10564 0.91757,-0.0972 2.59375,0 0.0893,0.02 2.33761,0.46823 2.59375,0.6875 0.14414,0.12339 -0.72332,-0.007 -0.5625,0.0937 0.28534,0.17868 1.60848,-0.11493 2,0 l 5.0625,0 4.03125,0 5.125,0 4.96875,0 4.1875,0 4.4375,0 c 0.44452,-2.96541 0.6875,-6.00174 0.6875,-9.09375 0,-32.41352 -24.69536,-58.6875 -55.15625,-58.6875 z m -35.75,102.40625 -0.34375,-0.375 c 0.0709,0.10171 0.0998,0.14436 0.21875,0.3125 0.0461,0.026 0.0835,0.0413 0.125,0.0625 z m 13.40625,-18.625 c -10e-4,0.0312 0.002,0.0623 0,0.0937 0.0205,0.0101 0.0419,0.0213 0.0625,0.0312 0.008,-0.0294 0.0227,-0.0626 0.0312,-0.0937 -0.0265,-0.002 -0.0721,-0.0312 -0.0937,-0.0312 z m -20.34375,10 c 0.0437,0.15506 0.038,0.215 0.0625,0.3125 0.0269,0.0361 0.0681,0.0601 0.0937,0.0937 -0.0479,-0.13823 -0.10532,-0.26927 -0.15625,-0.40625 z m 8.53125,9.25 c -0.0951,0.002 1.03558,1.50528 1.5625,1.9375 0.0622,0.051 0.18378,0.10103 0.28125,0.15625 -0.57453,-0.69174 -1.51239,-1.79742 -1.71875,-2 -0.0695,-0.0682 -0.11141,-0.094 -0.125,-0.0937 z m 2.4375,2.375 c 0.63314,0.26978 1.26522,0.48087 0.875,0.34375 -0.4465,-0.1569 -0.56952,-0.22886 -0.875,-0.34375 z m 3.25,2.25 c 0.0197,0.036 0.1367,0.24168 0.28125,0.59375 0.0672,0.0516 0.20331,0.10014 0.3125,0.15625 -0.37546,-0.46758 -0.6225,-0.80247 -0.59375,-0.75 z m 3.25,3.1875 c 0.44549,0.24415 0.89131,0.48722 1.34375,0.71875 -0.15018,-0.11563 -0.28908,-0.22938 -0.4375,-0.34375 -0.0611,-0.0422 -0.12655,-0.0827 -0.1875,-0.125 -0.24028,-0.0721 -0.48636,-0.1482 -0.71875,-0.25 z m 4.21875,1.53125 c 0.16919,0.20123 0.38999,0.48829 0.5,0.625 0.0582,0.0268 0.1266,0.0389 0.1875,0.0625 -0.21905,-0.23981 -0.45784,-0.45822 -0.6875,-0.6875 z"
       id="path3525-9"
       inkscape:connector-curvature="0" />
    <ellipse
       style="display:inline;fill:#ffb1cb;fill-opacity:1;stroke:none"
       id="path5967"
       transform="translate(105.87344,26.77382)"
       cx="358"
       cy="279.86218"
       rx="7"
       ry="8.5" />
    <ellipse
       style="display:inline;fill:#ffb1cb;fill-opacity:1"
       id="path3938-4"
       transform="matrix(1.3589744,0,0,1.2439025,-84.06338,-40.909808)"
       cx="310"
       cy="236.6479"
       rx="55.714283"
       ry="58.571426" />
    <ellipse
       style="display:inline;fill:#ffffff;fill-opacity:1"
       id="path3938-1-0"
       transform="matrix(1.2564103,0,0,1.1219513,-50.839879,-9.19319)"
       cx="310"
       cy="236.6479"
       rx="55.714283"
       ry="58.571426" />
    <ellipse
       style="display:inline;fill:#ffe5ed;fill-opacity:1;stroke:none"
       id="path4800-7-2"
       transform="matrix(-0.78945875,1.0995662,-0.71213472,-0.99186853,487.57276,122.47805)"
       cx="216.07143"
       cy="151.29076"
       rx="32.5"
       ry="63.214287" />
    <ellipse
       style="display:inline;fill:#ffb7cf;fill-opacity:1;stroke:none"
       id="path4800-1-4"
       transform="matrix(-0.35422019,0.46847031,-0.31952589,-0.42258569,316.9892,137.71261)"
       cx="216.07143"
       cy="151.29076"
       rx="32.5"
       ry="63.214287" />
    <path
       sodipodi:type="arc"
       style="display:inline;fill:#ffbfd5;fill-opacity:1;stroke:none"
       id="path4942-2-5"
       sodipodi:cx="167.5"
       sodipodi:cy="420.21933"
       sodipodi:rx="28.214285"
       sodipodi:ry="37.857143"
       d="m 191.8995,439.22853 a 28.214285,37.857143 0 0 1 -36.26708,15.33614 28.214285,37.857143 0 0 1 -14.71076,-47.04886 28.214285,37.857143 0 0 1 33.56624,-23.97414 L 167.5,420.21933 Z"
       sodipodi:start="0.52605967"
       sodipodi:end="4.962666"
       transform="matrix(1.0782722,0,0,0.93923251,84.15575,-231.29134)" />
    <path
       style="fill:#ffb7cf;fill-opacity:1;stroke:none"
       d="m 380,422.36218 c 4,1 34,-15 34,-15 l -10,21 19,9 -21,5 7,24 -10,-7 7,26 -16,1 18,16 -22,6 -2,22 -13,-5 12,24 -27.6066,-5.24264 c 0,0 58.6066,-97.75736 24.6066,-121.75736 z"
       id="path6549"
       inkscape:connector-curvature="0"
       sodipodi:nodetypes="cccccccccccccccc" />
    <path
       style="fill:#ffe5ed;fill-opacity:1;stroke:none;display:inline"
       d="m 373.52381,423.57722 c 4,1 34,-15 34,-15 l -10,21 19,9 -21,5 7,24 -10,-7 7,26 -16,1 18,16 -22,6 -2,22 -13,-5 12,24 -21.94975,-7.36396 c 0,0 52.94975,-95.63604 18.94975,-119.63604 z"
       id="path6549-8"
       inkscape:connector-curvature="0"
       sodipodi:nodetypes="cccccccccccccccc" />
  </g>
  <g
     inkscape:groupmode="layer"
     id="layer12"
     inkscape:label="mouth"
     style="display:inline">
    <path
       sodipodi:type="arc"
       style="display:inline;fill:#ffb1cb;fill-opacity:1;fill-rule:evenodd;stroke:none"
       id="path3525-3-2"
       sodipodi:cx="369.10974"
       sodipodi:cy="302.12189"
       sodipodi:rx="55.154327"
       sodipodi:ry="58.689861"
       d="m 424.26407,302.12189 a 55.154327,58.689861 0 0 1 -29.51159,51.961 55.154327,58.689861 0 0 1 -56.95305,-3.64484 55.154327,58.689861 0 0 1 -23.44646,-55.35018 l 54.75677,7.03402 z"
       transform="translate(61.890262,30.912373)"
       sodipodi:start="0"
       sodipodi:end="3.2617321" />
    <path
       sodipodi:type="arc"
       style="display:inline;fill:#ffe5ed;fill-opacity:1;fill-rule:evenodd;stroke:none"
       id="path3525-3-8-7"
       sodipodi:cx="369.10974"
       sodipodi:cy="302.12189"
       sodipodi:rx="55.154327"
       sodipodi:ry="58.689861"
       d="m 424.26407,302.12189 a 55.154327,58.689861 0 0 1 -29.51159,51.961 55.154327,58.689861 0 0 1 -56.95305,-3.64484 55.154327,58.689861 0 0 1 -23.44646,-55.35018 l 54.75677,7.03402 z"
       transform="matrix(0.94560716,0,0,0.86306347,77.96718,75.49276)"
       sodipodi:start="0"
       sodipodi:end="3.2617321" />
  </g>
  <g
     inkscape:groupmode="layer"
     id="layer10"
     inkscape:label="pupil"
     style="display:inline;opacity:1">
    <ellipse
       style="display:inline;fill:#008581;fill-opacity:1"
       id="path3959-9-1"
       cx="357.3313"
       cy="239.43326"
       rx="39.767441"
       ry="40" />
    <ellipse
       style="display:inline;fill:#000000;fill-opacity:1"
       id="path3959-7-4-1"
       cx="364.90613"
       cy="235.79688"
       rx="34.086376"
       ry="32.727272" />
    <circle
       style="display:inline;fill:#ffffff;fill-opacity:1"
       id="path3979-8-5"
       cx="355.58865"
       cy="217.25317"
       r="12.121831" />
  </g>
  <g
     inkscape:groupmode="layer"
     id="layer4"
     inkscape:label="fluffle" />
</svg>
