<?xml version="1.0" encoding="UTF-8" standalone="no"?>
<!-- Created with Inkscape (http://www.inkscape.org/) -->

<svg
   xmlns:dc="http://purl.org/dc/elements/1.1/"
   xmlns:cc="http://creativecommons.org/ns#"
   xmlns:rdf="http://www.w3.org/1999/02/22-rdf-syntax-ns#"
   xmlns:svg="http://www.w3.org/2000/svg"
   xmlns="http://www.w3.org/2000/svg"
   xmlns:sodipodi="http://sodipodi.sourceforge.net/DTD/sodipodi-0.dtd"
   xmlns:inkscape="http://www.inkscape.org/namespaces/inkscape"
   width="744.09448819"
   height="1052.3622047"
   id="svg8384"
   version="1.1"
   inkscape:version="0.48.5 r10040"
   sodipodi:docname="New document 45">
  <defs
     id="defs8386" />
  <sodipodi:namedview
     id="base"
     pagecolor="#ffffff"
     bordercolor="#666666"
     borderopacity="1.0"
     inkscape:pageopacity="0.0"
     inkscape:pageshadow="2"
     inkscape:zoom="1"
     inkscape:cx="209"
     inkscape:cy="542.04026"
     inkscape:document-units="px"
     inkscape:current-layer="layer1"
     showgrid="false"
     inkscape:window-width="1920"
     inkscape:window-height="1017"
     inkscape:window-x="-8"
     inkscape:window-y="-8"
     inkscape:window-maximized="1" />
  <metadata
     id="metadata8389">
    <rdf:RDF>
      <cc:Work
         rdf:about="">
        <dc:format>image/svg+xml</dc:format>
        <dc:type
           rdf:resource="http://purl.org/dc/dcmitype/StillImage" />
        <dc:title></dc:title>
      </cc:Work>
    </rdf:RDF>
  </metadata>
  <g
     inkscape:groupmode="layer"
     id="layer10"
     inkscape:label="stick">
    <rect
       style="fill:#999999;fill-opacity:1;stroke:none"
       id="rect8463"
       width="18.053631"
       height="188.45563"
       x="218.64282"
       y="412.11224"
       ry="15.363229"
       transform="matrix(0.9885778,-0.15071141,0.10011694,0.99497568,0,0)" />
    <rect
       style="fill:#000000;fill-opacity:1;stroke:none"
       id="rect8463-4"
       width="23.018709"
       height="64.981529"
       x="208.17758"
       y="575.57056"
       ry="5.2974072"
       transform="matrix(0.9914296,-0.13064203,0.1138881,0.99349358,0,0)" />
  </g>
  <g
     inkscape:label="Layer 1"
     inkscape:groupmode="layer"
     id="layer1">
    <rect
       style="fill:#1a1a1a;fill-opacity:1;stroke:none"
       id="rect8414"
       width="199.90714"
       height="13.577478"
       x="142.28021"
       y="302.64221"
       ry="6.2505021"
       transform="matrix(0.99598619,-0.08950705,0.08486528,0.99639243,0,0)" />
    <rect
       style="fill:#1a1a1a;fill-opacity:1;stroke:none"
       id="rect8441"
       width="33.953239"
       height="204.94142"
       x="202.55286"
       y="287.34961"
       ry="6.3145251"
       transform="matrix(0.99756668,-0.06971884,0.1088695,0.99405605,0,0)" />
    <rect
       style="fill:#1a1a1a;fill-opacity:1;stroke:none"
       id="rect8414-8"
       width="174.79861"
       height="18.08922"
       x="149.9995"
       y="481.59668"
       ry="8.3275185"
       transform="matrix(0.99478733,-0.10197143,0.07446426,0.99722368,0,0)" />
    <rect
       style="fill:#4d4d4d;fill-opacity:1;stroke:none"
       id="rect8414-7"
       width="199.90714"
       height="13.577478"
       x="147.33624"
       y="304.03986"
       ry="6.2505021"
       transform="matrix(0.99598619,-0.08950705,0.08486528,0.99639243,0,0)" />
    <rect
       style="fill:#4d4d4d;fill-opacity:1;stroke:none"
       id="rect8441-8"
       width="33.953239"
       height="204.94142"
       x="209.04391"
       y="288.75055"
       ry="6.3145251"
       transform="matrix(0.99756668,-0.06971884,0.1088695,0.99405605,0,0)" />
    <rect
       style="fill:#4d4d4d;fill-opacity:1;stroke:none"
       id="rect8414-8-8"
       width="174.79861"
       height="18.08922"
       x="155.91716"
       y="483.4588"
       ry="8.3275185"
       transform="matrix(0.99478733,-0.10197143,0.07446426,0.99722368,0,0)" />
    <rect
       style="fill:#000000;fill-opacity:1;stroke:none"
       id="rect8392-1"
       width="73.895645"
       height="23.960257"
       x="299.79462"
       y="297.05145"
       ry="6.2505021"
       transform="matrix(0.99598619,-0.08950705,0.08486528,0.99639243,0,0)" />
    <rect
       style="fill:#000000;fill-opacity:1;stroke:none"
       id="rect8392-1-2"
       width="73.895645"
       height="23.960257"
       x="93.664658"
       y="297.85016"
       ry="6.2505021"
       transform="matrix(0.99598619,-0.08950705,0.08486528,0.99639243,0,0)" />
  </g>
</svg>
