<?xml version="1.0" encoding="UTF-8" standalone="no"?>
<!-- Created with Inkscape (http://www.inkscape.org/) -->

<svg
   xmlns:dc="http://purl.org/dc/elements/1.1/"
   xmlns:cc="http://creativecommons.org/ns#"
   xmlns:rdf="http://www.w3.org/1999/02/22-rdf-syntax-ns#"
   xmlns:svg="http://www.w3.org/2000/svg"
   xmlns="http://www.w3.org/2000/svg"
   xmlns:sodipodi="http://sodipodi.sourceforge.net/DTD/sodipodi-0.dtd"
   xmlns:inkscape="http://www.inkscape.org/namespaces/inkscape"
   width="744.09448819"
   height="1052.3622047"
   id="svg8578"
   version="1.1"
   inkscape:version="0.48.5 r10040"
   sodipodi:docname="New document 54">
  <defs
     id="defs8580" />
  <sodipodi:namedview
     id="base"
     pagecolor="#ffffff"
     bordercolor="#666666"
     borderopacity="1.0"
     inkscape:pageopacity="0.0"
     inkscape:pageshadow="2"
     inkscape:zoom="1"
     inkscape:cx="260"
     inkscape:cy="724.01743"
     inkscape:document-units="px"
     inkscape:current-layer="layer14"
     showgrid="false"
     inkscape:window-width="1920"
     inkscape:window-height="1017"
     inkscape:window-x="-8"
     inkscape:window-y="-8"
     inkscape:window-maximized="1" />
  <metadata
     id="metadata8583">
    <rdf:RDF>
      <cc:Work
         rdf:about="">
        <dc:format>image/svg+xml</dc:format>
        <dc:type
           rdf:resource="http://purl.org/dc/dcmitype/StillImage" />
        <dc:title></dc:title>
      </cc:Work>
    </rdf:RDF>
  </metadata>
  <g
     inkscape:groupmode="layer"
     id="layer11"
     inkscape:label="Layer"
     sodipodi:insensitive="true">
    <path
       sodipodi:type="arc"
       style="fill:#808000;fill-opacity:1;stroke:none"
       id="path8586-9"
       sodipodi:cx="232.5"
       sodipodi:cy="458.36218"
       sodipodi:rx="137.5"
       sodipodi:ry="133"
       d="M 370,458.36218 A 137.5,133 0 0 1 95.020612,460.66502 L 232.5,458.36218 z"
       sodipodi:start="0"
       sodipodi:end="3.1242772"
       transform="matrix(1,0,0,-1,104.29681,827.98411)" />
    <path
       style="fill:#800000;stroke:none"
       d="m 291.2968,243.6219 -0.50497,123.99999 -93.48867,-0.12295 c 0,0 -7.39276,-83.27868 93.99364,-123.87704 z"
       id="path8588-1"
       inkscape:connector-curvature="0"
       sodipodi:nodetypes="cccc" />
    <path
       style="fill:#000080;fill-opacity:1;stroke:none"
       d="m 292.2968,243.6219 c 0,0 26,-16 84,-3 l -1,127.99999 -85,-2 z"
       id="path9098-3"
       inkscape:connector-curvature="0" />
    <path
       sodipodi:type="arc"
       style="fill:#008000;fill-opacity:1;stroke:none"
       id="path9100-5"
       sodipodi:cx="348.5"
       sodipodi:cy="405.36218"
       sodipodi:rx="187.5"
       sodipodi:ry="35"
       d="M 536,405.36218 A 187.5,35 0 0 1 348.08062,440.3621 L 348.5,405.36218 z"
       sodipodi:start="0"
       sodipodi:end="1.573033"
       transform="matrix(0.40795562,0,0,-1,330.15237,775.98408)" />
  </g>
  <g
     inkscape:groupmode="layer"
     id="layer12"
     inkscape:label="prop"
     style="display:inline">
    <rect
       style="fill:#1a1a1a;fill-opacity:1;stroke:none"
       id="rect9566"
       width="17"
       height="135"
       x="327"
       y="134.36218"
       ry="1.1236925" />
    <path
       sodipodi:type="arc"
       style="fill:#1a1a1a;fill-opacity:1;stroke:none"
       id="path9568"
       sodipodi:cx="312"
       sodipodi:cy="148.36218"
       sodipodi:rx="85"
       sodipodi:ry="21"
       d="m 397,148.36218 a 85,21 0 0 1 -85.19012,20.99995 L 312,148.36218 z"
       sodipodi:start="0"
       sodipodi:end="1.573033"
       transform="matrix(1.6925686,0,0,1,-191.94973,-5)" />
    <path
       sodipodi:type="arc"
       style="fill:#1a1a1a;fill-opacity:1;stroke:none;display:inline"
       id="path9568-6"
       sodipodi:cx="312"
       sodipodi:cy="148.36218"
       sodipodi:rx="85"
       sodipodi:ry="21"
       d="m 397,148.36218 a 85,21 0 0 1 -85.19012,20.99995 L 312,148.36218 z"
       sodipodi:start="0"
       sodipodi:end="1.573033"
       transform="matrix(-1.6925686,0,0,1,865.8547,29.5)" />
  </g>
  <g
     inkscape:groupmode="layer"
     id="layer13"
     inkscape:label="prop 2"
     style="display:inline">
    <rect
       style="fill:#1a1a1a;fill-opacity:1;stroke:none"
       id="rect9566-4"
       width="17"
       height="135"
       x="327.5"
       y="132.86218"
       ry="1.1236925" />
    <path
       sodipodi:type="arc"
       style="fill:#1a1a1a;fill-opacity:1;stroke:none;display:inline"
       id="path9568-61"
       sodipodi:cx="312"
       sodipodi:cy="148.36218"
       sodipodi:rx="85"
       sodipodi:ry="21"
       d="m 397,148.36218 a 85,21 0 0 1 -85.19012,20.99995 L 312,148.36218 z"
       sodipodi:start="0"
       sodipodi:end="1.573033"
       transform="matrix(1.6925686,0,0,1,-187.85468,28.5)" />
    <path
       sodipodi:type="arc"
       style="fill:#1a1a1a;fill-opacity:1;stroke:none;display:inline"
       id="path9568-5"
       sodipodi:cx="312"
       sodipodi:cy="148.36218"
       sodipodi:rx="85"
       sodipodi:ry="21"
       d="m 397,148.36218 a 85,21 0 0 1 -85.19012,20.99995 L 312,148.36218 z"
       sodipodi:start="0"
       sodipodi:end="1.573033"
       transform="matrix(-1.6925686,0,0,1,864.8547,-6.5)" />
  </g>
  <g
     inkscape:groupmode="layer"
     id="layer14"
     inkscape:label="prop3">
    <rect
       style="fill:#1a1a1a;fill-opacity:1;stroke:none;display:inline"
       id="rect9566-42"
       width="17"
       height="135"
       x="325.5"
       y="134.86218"
       ry="1.1236925" />
  </g>
  <g
     inkscape:label="Layer 1"
     inkscape:groupmode="layer"
     id="layer1"
     sodipodi:insensitive="true">
    <path
       sodipodi:type="arc"
       style="fill:#ffff00;fill-opacity:1;stroke:none"
       id="path8586"
       sodipodi:cx="232.5"
       sodipodi:cy="458.36218"
       sodipodi:rx="137.5"
       sodipodi:ry="133"
       d="M 370,458.36218 A 137.5,133 0 0 1 95.020612,460.66502 L 232.5,458.36218 z"
       sodipodi:start="0"
       sodipodi:end="3.1242772"
       transform="matrix(1,0,0,-1,106,835.7244)" />
    <path
       style="fill:#ff0000;stroke:none"
       d="m 293,251.36218 -0.50497,124 -93.48867,-0.12295 c 0,0 -7.39276,-83.27869 93.99364,-123.87705 z"
       id="path8588"
       inkscape:connector-curvature="0"
       sodipodi:nodetypes="cccc" />
    <path
       style="fill:#0000c2;fill-opacity:1;stroke:none"
       d="m 294,251.36218 c 0,0 26,-16 84,-3 l -1,128 -85,-2 z"
       id="path9098"
       inkscape:connector-curvature="0" />
    <path
       sodipodi:type="arc"
       style="fill:#00ff00;fill-opacity:1;stroke:none"
       id="path9100"
       sodipodi:cx="348.5"
       sodipodi:cy="405.36218"
       sodipodi:rx="187.5"
       sodipodi:ry="35"
       d="M 536,405.36218 A 187.5,35 0 0 1 348.08062,440.3621 L 348.5,405.36218 z"
       sodipodi:start="0"
       sodipodi:end="1.573033"
       transform="matrix(0.40795562,0,0,-1,331.85557,783.72437)" />
    <rect
       style="fill:#008000;fill-opacity:1;stroke:none"
       id="rect9525"
       width="280"
       height="12"
       x="195.5"
       y="365.86218"
       ry="1.92633" />
    <rect
       style="fill:#00ff00;fill-opacity:1;stroke:none"
       id="rect9525-9"
       width="280"
       height="7"
       x="197"
       y="370.36218"
       ry="1.1236925" />
  </g>
</svg>
