<?xml version="1.0" encoding="UTF-8" standalone="no"?>
<!-- Created with Inkscape (http://www.inkscape.org/) -->

<svg
   xmlns:dc="http://purl.org/dc/elements/1.1/"
   xmlns:cc="http://creativecommons.org/ns#"
   xmlns:rdf="http://www.w3.org/1999/02/22-rdf-syntax-ns#"
   xmlns:svg="http://www.w3.org/2000/svg"
   xmlns="http://www.w3.org/2000/svg"
   xmlns:sodipodi="http://sodipodi.sourceforge.net/DTD/sodipodi-0.dtd"
   xmlns:inkscape="http://www.inkscape.org/namespaces/inkscape"
   width="744.09448819"
   height="1052.3622047"
   id="svg3809"
   version="1.1"
   inkscape:version="0.48.5 r10040"
   sodipodi:docname="New document 5">
  <defs
     id="defs3811" />
  <sodipodi:namedview
     id="base"
     pagecolor="#ffffff"
     bordercolor="#666666"
     borderopacity="1.0"
     inkscape:pageopacity="0.0"
     inkscape:pageshadow="2"
     inkscape:zoom="2.8"
     inkscape:cx="333.07867"
     inkscape:cy="594.38724"
     inkscape:document-units="px"
     inkscape:current-layer="layer1"
     showgrid="false"
     inkscape:window-width="1920"
     inkscape:window-height="1017"
     inkscape:window-x="-8"
     inkscape:window-y="-8"
     inkscape:window-maximized="1" />
  <metadata
     id="metadata3814">
    <rdf:RDF>
      <cc:Work
         rdf:about="">
        <dc:format>image/svg+xml</dc:format>
        <dc:type
           rdf:resource="http://purl.org/dc/dcmitype/StillImage" />
        <dc:title></dc:title>
      </cc:Work>
    </rdf:RDF>
  </metadata>
  <g
     inkscape:label="Layer 1"
     inkscape:groupmode="layer"
     id="layer1">
    <path
       style="fill:none;stroke:none;stroke-width:1.03307544999999990px;stroke-linecap:butt;stroke-linejoin:miter;stroke-opacity:1"
       d="m 160.01654,426.43339 123.78441,-35.24162 123.78441,-35.24162 c 0,0 94.55078,101.32153 -13.53945,212.82405 -3.40691,-1.43843 -61.91425,-37.02363 -119.56987,-72.24923 -57.65561,-35.22559 -114.4595,-70.09158 -114.4595,-70.09158 z"
       id="path3817"
       inkscape:connector-curvature="0"
       sodipodi:nodetypes="ccccsc" />
    <path
       style="fill:none;stroke:none;stroke-width:1px;stroke-linecap:butt;stroke-linejoin:miter;stroke-opacity:1"
       d="m 159.64286,426.64789 263.75,-48.03571 c 0,0 5.89286,7.85714 14.46429,29.64286 0.26152,0.66468 -278.21429,18.39285 -278.21429,18.39285 z"
       id="path3821"
       inkscape:connector-curvature="0"
       sodipodi:nodetypes="ccsc" />
    <path
       style="fill:none;stroke:none;stroke-width:1.21289682000000010px;stroke-linecap:butt;stroke-linejoin:miter;stroke-opacity:1"
       d="m 160.57127,426.72142 277.64597,-18.31054 c 0,0 9.79001,35.30717 6.13355,36.16406 -0.97539,0.22859 -283.77952,-17.85352 -283.77952,-17.85352 z"
       id="path3821-7"
       inkscape:connector-curvature="0"
       sodipodi:nodetypes="ccsc" />
    <path
       style="fill:none;stroke:none;stroke-width:1.21289682000000010px;stroke-linecap:butt;stroke-linejoin:miter;stroke-opacity:1"
       d="m 159.23188,426.80012 286.47211,17.98098 c 0.24778,3.14692 0.99847,22.73413 -0.41975,24.68255 -3.14144,4.31587 -286.05236,-42.66353 -286.05236,-42.66353 z"
       id="path3821-7-4"
       inkscape:connector-curvature="0"
       sodipodi:nodetypes="ccsc" />
    <path
       style="fill:none;stroke:none;stroke-width:1.21289682000000010px;stroke-linecap:butt;stroke-linejoin:miter;stroke-opacity:1"
       d="m 161.50951,426.64584 283.62292,43.29645 c 0,0 -7.48212,36.41307 -10.13678,36.47588 -1.00154,0.0237 -273.48614,-79.77233 -273.48614,-79.77233 z"
       id="path3821-7-0"
       inkscape:connector-curvature="0"
       sodipodi:nodetypes="ccsc" />
    <path
       style="fill:none;stroke:none;stroke-width:1.21289682000000010px;stroke-linecap:butt;stroke-linejoin:miter;stroke-opacity:1"
       d="m 160.24203,427.30518 275.62567,79.16918 c 0,0 -14.45366,33.03433 -18.11012,33.89122 -0.97539,0.22859 -257.51555,-113.0604 -257.51555,-113.0604 z"
       id="path3821-7-9"
       inkscape:connector-curvature="0"
       sodipodi:nodetypes="ccsc" />
    <path
       style="fill:#ff0000;fill-opacity:1;stroke:none;stroke-width:8.78571415000000040;stroke-miterlimit:4;stroke-opacity:1;stroke-dasharray:none"
       d="m 183.1501,420.84664 c 0.39285,-0.15531 50.98549,-14.59002 112.42808,-32.07713 91.25236,-25.97124 111.8578,-31.61907 112.5,-30.83557 3.17445,3.87288 9.28663,12.22094 11.4515,15.64052 1.83771,2.90281 2.33513,4.21415 1.68527,4.44286 -1.50787,0.53065 -236.71331,43.2295 -237.79027,43.16808 -0.54388,-0.031 -0.66744,-0.18346 -0.27458,-0.33876 z"
       id="path4394"
       inkscape:connector-curvature="0" />
    <path
       style="fill:#0000ff;fill-opacity:1;stroke:none"
       d="m 181.36438,423.6522 c 2.0172,-0.52908 240.23632,-43.83898 241.12925,-43.83898 1.31284,0 14.54213,26.70958 13.66415,27.58755 -0.30525,0.30527 -250.11939,16.70475 -253.1018,16.61531 -1.51966,-0.0456 -2.28088,-0.20932 -1.6916,-0.36388 z"
       id="path4396"
       inkscape:connector-curvature="0" />
    <path
       style="fill:#000080;fill-opacity:1;stroke:none"
       d="m 392.07867,440.44832 c -23.76786,-1.51856 -81.625,-5.18543 -128.57143,-8.14859 -46.94643,-2.96316 -85.60552,-5.46047 -85.90909,-5.54959 -0.30357,-0.0891 35.21428,-2.51233 78.92857,-5.38493 43.71429,-2.8726 100.85552,-6.65522 126.98052,-8.40582 26.125,-1.7506 48.94643,-3.09429 50.71429,-2.98597 l 3.21428,0.19695 1.62295,5.70844 c 1.85783,6.53462 4.25211,18.08405 4.91081,23.6886 l 0.44864,3.81724 -4.56263,-0.0877 c -2.50944,-0.0482 -24.00905,-1.33011 -47.77691,-2.84867 z"
       id="path4398"
       inkscape:connector-curvature="0" />
    <path
       style="fill:#800080;fill-opacity:1;stroke:none"
       d="M 317.64306,449.50082 C 248.22133,438.903 191.51929,430.13451 191.63852,430.01528 c 0.11922,-0.11923 56.52917,3.32225 125.35543,7.64773 68.82626,4.32547 125.76937,7.8645 126.54026,7.8645 1.32148,0 1.39925,0.52061 1.36044,9.10714 -0.0226,5.00893 -0.26372,10.2384 -0.53572,11.62104 l -0.49455,2.51389 -126.22132,-19.26876 z"
       id="path4400"
       inkscape:connector-curvature="0" />
    <path
       style="fill:#00ffff;fill-opacity:1;stroke:none"
       d="m 418.1501,500.38973 c -24.60652,-7.08708 -143.27135,-41.6093 -188.80759,-54.9283 -23.30845,-6.81754 -42.06299,-12.50087 -41.67675,-12.62962 0.38625,-0.12875 22.8318,3.33785 49.87901,7.70356 113.38211,18.30106 192.64882,29.99214 203.34976,29.99214 l 3.12578,0 -2.04312,9.01388 c -2.45609,10.83584 -5.52678,22.3025 -6.43288,24.02183 -0.36232,0.6875 -1.04923,1.22678 -1.52648,1.19838 -0.47725,-0.0284 -7.61773,-1.99573 -15.86773,-4.37187 z"
       id="path4402"
       inkscape:connector-curvature="0" />
    <path
       style="fill:#ffff00;fill-opacity:1;stroke:none"
       d="m 400.29296,531.80231 c -16.74487,-7.31156 -142.2411,-62.48362 -193.03908,-84.866 -15.4215,-6.79495 -27.90285,-12.49068 -27.73635,-12.65718 0.37098,-0.37099 253.76977,72.32876 254.56054,73.03305 0.89904,0.80072 -15.77531,31.93132 -16.99281,31.72517 -0.20005,-0.0339 -7.75659,-3.28965 -16.7923,-7.23504 z"
       id="path4404"
       inkscape:connector-curvature="0" />
    <path
       style="fill:#ff6600;fill-opacity:1;stroke:none"
       d="M 371.32038,554.22268 C 322.59201,525.02885 181.97325,438.96626 182.36361,438.5759 c 0.15366,-0.15366 28.83991,12.3118 63.74722,27.70101 81.72536,36.02939 135.42378,59.58472 153.82498,67.47681 8.05357,3.4541 14.93359,6.53733 15.28893,6.85163 0.92937,0.82202 -7.23933,11.47933 -17.05176,22.2466 l -4.3966,4.82442 -22.456,-13.45369 0,0 z"
       id="path4406"
       inkscape:connector-curvature="0" />
  </g>
</svg>
