<?xml version="1.0" encoding="UTF-8" standalone="no"?>
<!-- Created with Inkscape (http://www.inkscape.org/) -->

<svg
   xmlns:dc="http://purl.org/dc/elements/1.1/"
   xmlns:cc="http://creativecommons.org/ns#"
   xmlns:rdf="http://www.w3.org/1999/02/22-rdf-syntax-ns#"
   xmlns:svg="http://www.w3.org/2000/svg"
   xmlns="http://www.w3.org/2000/svg"
   xmlns:sodipodi="http://sodipodi.sourceforge.net/DTD/sodipodi-0.dtd"
   xmlns:inkscape="http://www.inkscape.org/namespaces/inkscape"
   width="744.09448819"
   height="1052.3622047"
   id="svg6525"
   version="1.1"
   inkscape:version="0.48.5 r10040"
   sodipodi:docname="RedElderDragon1.svg">
  <defs
     id="defs6527">
    <inkscape:perspective
       sodipodi:type="inkscape:persp3d"
       inkscape:vp_x="0 : 526.18109 : 1"
       inkscape:vp_y="0 : 1000 : 0"
       inkscape:vp_z="744.09448 : 526.18109 : 1"
       inkscape:persp3d-origin="372.04724 : 350.78739 : 1"
       id="perspective7444" />
    <inkscape:path-effect
       effect="skeletal"
       id="path-effect7362"
       is_visible="true"
       pattern="M 0,0 0,10 10,5 z"
       copytype="single_stretched"
       prop_scale="1"
       scale_y_rel="false"
       spacing="0"
       normal_offset="0"
       tang_offset="0"
       prop_units="false"
       vertical_pattern="false"
       fuse_tolerance="0" />
    <inkscape:path-effect
       effect="spiro"
       id="path-effect7360"
       is_visible="true" />
    <inkscape:path-effect
       effect="spiro"
       id="path-effect7356"
       is_visible="true" />
    <inkscape:path-effect
       effect="skeletal"
       id="path-effect7304"
       is_visible="true"
       pattern="M 0,5 C 0,2.24 2.24,0 5,0 7.76,0 10,2.24 10,5 10,7.76 7.76,10 5,10 2.24,10 0,7.76 0,5 z"
       copytype="single_stretched"
       prop_scale="1"
       scale_y_rel="false"
       spacing="0"
       normal_offset="0"
       tang_offset="0"
       prop_units="false"
       vertical_pattern="false"
       fuse_tolerance="0" />
  </defs>
  <sodipodi:namedview
     id="base"
     pagecolor="#ffffff"
     bordercolor="#666666"
     borderopacity="1.0"
     inkscape:pageopacity="0.0"
     inkscape:pageshadow="2"
     inkscape:zoom="1"
     inkscape:cx="357.11238"
     inkscape:cy="755.73695"
     inkscape:document-units="px"
     inkscape:current-layer="layer16"
     showgrid="false"
     inkscape:window-width="1142"
     inkscape:window-height="918"
     inkscape:window-x="1971"
     inkscape:window-y="3"
     inkscape:window-maximized="0" />
  <metadata
     id="metadata6530">
    <rdf:RDF>
      <cc:Work
         rdf:about="">
        <dc:format>image/svg+xml</dc:format>
        <dc:type
           rdf:resource="http://purl.org/dc/dcmitype/StillImage" />
        <dc:title></dc:title>
      </cc:Work>
    </rdf:RDF>
  </metadata>
  <g
     inkscape:groupmode="layer"
     id="layer15"
     inkscape:label="horn2"
     sodipodi:insensitive="true">
    <path
       style="fill:#483737;fill-opacity:1;stroke:#000000;stroke-width:1.02988827px;stroke-linecap:butt;stroke-linejoin:miter;stroke-opacity:1"
       d="M 263.14997,2.28628 364.85003,143.79231 C 262.78456,229.60312 277.92893,168.20516 263.14997,2.28628 z"
       id="path7366-2"
       inkscape:connector-curvature="0"
       sodipodi:nodetypes="ccc" />
    <path
       sodipodi:type="arc"
       style="fill:#800000;fill-opacity:1;stroke:none;display:inline"
       id="path7379-6"
       sodipodi:cx="161"
       sodipodi:cy="159.86218"
       sodipodi:rx="91"
       sodipodi:ry="105.5"
       d="M 252,159.86218 A 91,105.5 0 1 1 75.949532,122.34147"
       sodipodi:start="0"
       sodipodi:end="3.5051984"
       transform="translate(10.98724,-39.489645)"
       sodipodi:open="true" />
    <path
       sodipodi:type="arc"
       style="fill:#b90000;fill-opacity:1;stroke:none;display:inline"
       id="path7379-8-2"
       sodipodi:cx="161"
       sodipodi:cy="159.86218"
       sodipodi:rx="91"
       sodipodi:ry="105.5"
       d="M 252,159.86218 A 91,105.5 0 1 1 75.949532,122.34147"
       sodipodi:start="0"
       sodipodi:end="3.5051984"
       transform="matrix(0.96703297,0,0,0.92308806,19.32046,-21.685175)"
       sodipodi:open="true" />
  </g>
  <g
     inkscape:label="head"
     inkscape:groupmode="layer"
     id="layer1"
     style="display:inline"
     sodipodi:insensitive="true">
    <path
       style="fill:#800000;fill-opacity:1;stroke:none"
       d="m 188.78125,134.375 c -0.70302,0.27818 -1.40534,0.55029 -2.125,0.78125 -0.92538,0.29698 -1.93333,0.38463 -2.875,0.625 -0.57889,0.14777 -1.10615,0.39347 -1.6875,0.53125 -2.91355,0.69048 -5.91707,1.26782 -8.875,1.71875 -2.42598,0.48454 -2.55725,0.4859 -2.53125,0.5 -0.0433,0.0507 -0.30778,0.20843 -1.59375,0.625 -1.74546,0.56542 -2.39449,0.22422 -3.15625,1.5 -1.27756,1.61629 0.48055,-0.49465 -2.90625,2.65625 -0.21196,0.1972 -0.36025,0.48515 -0.53125,0.71875 -0.76721,0.68293 -1.49234,1.41291 -2.3125,2.03125 -1.23652,0.93224 -3.27036,2.13864 -4.71875,3 -0.2258,0.22819 -0.43353,0.49115 -0.6875,0.6875 -0.62936,0.48655 -1.29756,0.87121 -1.9375,1.34375 -0.30057,0.22195 -0.60759,0.43292 -0.90625,0.65625 -0.2181,0.63685 -0.43792,1.28162 -0.6875,1.875 -0.21704,0.51601 -0.60383,0.93782 -0.78125,1.46875 -0.2064,0.61767 -0.33502,1.26777 -0.46875,1.90625 l 0,230.40625 c 0.79412,1.82013 1.19525,3.73737 1.6875,5.71875 -0.0109,-0.14221 -0.0111,-0.30962 0.0312,-0.25 0.46202,0.65074 0.94744,3.49533 0.96875,3.59375 0.59218,1.64741 -0.55824,3.58851 -0.21875,5.25 0.0377,-0.0921 0.0964,-0.63503 0.21875,-0.53125 0.18346,0.15561 0.80937,2.65004 0.84375,2.78125 0.23866,2.4915 0.29567,2.21566 0.125,3.75 0.90578,2.00137 1.4954,3.92341 1.84375,6.125 l 1,2.75 c -0.0906,-0.3559 -0.44564,-1.37328 -0.25,-1.0625 0.37845,0.60118 0.50106,1.33028 0.8125,1.96875 0.0164,0.0336 0.064,-0.0397 0.0937,-0.0625 0.31166,0.67182 0.7128,1.29432 0.9375,2 0.15651,0.49154 0.27475,0.99331 0.375,1.5 1.17384,2.0645 2.07459,4.56284 3.5625,6.40625 0.44555,1.71008 2.06649,2.58433 2.78125,4.28125 0.14901,0.35376 0.26576,0.72578 0.375,1.09375 1.10001,1.18425 1.805,2.55254 2.65625,3.90625 -0.22206,-0.37994 -0.41839,-0.76058 -0.21875,-0.65625 0.96956,0.5067 2.71135,3.858 3.03125,4.40625 0.50438,-0.23382 1.22265,0.77068 1.78125,1.625 0.022,0.006 0.0405,0.0252 0.0625,0.0312 1.7574,0.48538 3.50344,1.03945 5.25,1.5625 0.61511,0.22362 1.39714,0.51373 2.125,0.78125 l 352.625,0 c 0.55647,-0.37231 0.85037,-0.56313 1.65625,-1.09375 0.4957,-0.32639 1.07407,-0.49456 1.59375,-0.78125 0.33492,-0.18477 0.0732,-0.15603 0.21875,-0.375 0.14015,-0.2108 0.30985,-0.3967 0.46875,-0.59375 2.43213,-1.49701 3.64798,-2.27692 4.28125,-2.6875 -0.22205,0.19591 -0.096,0.26705 1.59375,-0.53125 0.0445,-0.021 0.0469,-0.0516 0.0625,-0.0625 -0.12772,-0.0103 -0.70181,0.0867 -0.0937,-0.46875 0.78955,-0.7211 1.6506,-1.40525 2.46875,-2.09375 1.54701,-0.96829 2.9734,-2.10139 4.375,-3.28125 0.0422,-0.0355 -0.20193,-0.0627 -0.15625,-0.0937 1.21143,-0.82166 2.48048,-1.5631 3.71875,-2.34375 -1.07362,0.0191 -0.48607,0.0412 1.15625,-1.0625 0.68769,-0.90102 1.55501,-2.03313 1.96875,-2.59375 1.58588,-1.57987 3.23658,-3.06708 4.9375,-4.5 0.75514,-1.0831 1.45854,-2.06123 2.25,-3.15625 l 0,-259.8125 c -0.78493,-0.88723 -1.49627,-1.82723 -2.0625,-2.90625 -0.22762,-0.53151 -0.46382,-1.06058 -0.6875,-1.59375 -0.3847,-0.26072 -0.69555,-0.6068 -0.78125,-1.03125 -7.1e-4,-0.004 0.30162,0.11048 0.34375,0.125 -0.002,-0.0117 -0.002,-0.0235 0,-0.0312 -0.88436,-0.36257 0.21314,0.0959 -2.375,-0.96875 -1.57661,-1.24426 -2.2106,-1.7052 -3.75,-3.25 -0.20542,-0.20614 -0.13254,-0.6203 -0.375,-0.78125 -3.32679,-2.20833 -2.97178,-0.60149 -3.21875,-2.15625 -4.57159,-2.29484 -9.33039,-5.11991 -13.28125,-8.375 -0.40106,-0.33043 -0.62285,-0.83644 -0.9375,-1.25 -1.10932,-0.73022 -2.17017,-1.5233 -3.28125,-2.25 l -14.3125,0 c -1.15879,0.15372 -2.27414,0.32204 -3.28125,0.5 -3.37816,0.59694 -5.95644,0.30686 -7.75,-0.5 l -318.46875,0 z m 371.3125,19.15625 c 0.0932,0.0499 0.20362,0.0923 0.3125,0.15625 0.76639,0.29887 1.83723,0.7215 2.59375,1.03125 0.51995,0.21296 -2.02274,-0.82555 -2.90625,-1.1875 z M 158.5,421.15625 c 0.084,0.43576 0.18548,0.87993 0.28125,1.3125 0.29801,0.10301 -0.017,-0.68235 -0.28125,-1.3125 z"
       id="rect6533"
       inkscape:connector-curvature="0" />
    <path
       inkscape:connector-curvature="0"
       style="fill:#800000;fill-opacity:1;stroke:none"
       d="m 422.32308,262.36221 c -0.48688,0.1642 -0.97326,0.32484 -1.47167,0.46119 -0.64087,0.17531 -1.33891,0.22705 -1.99107,0.36894 -0.40089,0.0873 -0.76606,0.23228 -1.16867,0.31362 -2.01776,0.40759 -4.09784,0.74842 -6.14634,1.01462 -1.68009,0.28602 -1.77102,0.28683 -1.753,0.29515 -0.0301,0.0298 -0.21315,0.12304 -1.10373,0.36897 -1.20884,0.33375 -1.65832,0.13234 -2.18586,0.88547 -0.88477,0.95413 0.3328,-0.29201 -2.01272,1.56805 -0.14678,0.11639 -0.24948,0.28638 -0.36791,0.42429 -0.53133,0.40314 -1.03352,0.83406 -1.60151,1.19909 -0.85635,0.55033 -2.26488,1.26248 -3.26795,1.77097 -0.15638,0.1347 -0.30024,0.28995 -0.47613,0.40584 -0.43586,0.28722 -0.89862,0.51429 -1.34181,0.79325 -0.20815,0.13101 -0.42078,0.25557 -0.6276,0.38741 -0.15106,0.37595 -0.3033,0.75657 -0.47614,1.10684 -0.15031,0.30461 -0.41816,0.55361 -0.54106,0.86705 -0.14293,0.36461 -0.23201,0.74839 -0.32462,1.12531 l 0,136.01398 c 0.54996,1.07446 0.82777,2.20625 1.16867,3.37592 -0.007,-0.0839 -0.008,-0.18278 0.0216,-0.14759 0.31997,0.38415 0.65614,2.06336 0.6709,2.12148 0.41012,0.9725 -0.38661,2.11837 -0.1515,3.09919 0.0262,-0.0544 0.0668,-0.37488 0.1515,-0.31362 0.12706,0.0919 0.56053,1.56439 0.58434,1.64183 0.16528,1.47081 0.20476,1.30797 0.0866,2.21373 0.62729,1.18144 1.03562,2.31607 1.27688,3.61571 l 0.69255,1.6234 c -0.0627,-0.21011 -0.30864,-0.81068 -0.17314,-0.62723 0.26209,0.35489 0.347,0.78529 0.56269,1.16219 0.0121,0.0198 0.0444,-0.0234 0.0649,-0.0369 0.21585,0.39659 0.49365,0.76407 0.64927,1.18064 0.10848,0.29017 0.19028,0.58638 0.2597,0.88549 0.81294,1.21872 1.43676,2.69356 2.4672,3.78176 0.30857,1.00949 1.43113,1.52558 1.92614,2.52731 0.10316,0.20883 0.18405,0.42844 0.2597,0.64567 0.76182,0.69909 1.25004,1.50683 1.83959,2.30595 -0.1538,-0.22428 -0.28976,-0.449 -0.15152,-0.38739 0.67148,0.29911 1.87775,2.27746 2.09929,2.60109 0.34931,-0.13801 0.84674,0.45497 1.2336,0.95929 0.0152,0.003 0.028,0.0149 0.0434,0.0184 1.21707,0.28653 2.42629,0.61362 3.63585,0.92238 0.42599,0.132 0.96759,0.30326 1.47167,0.46119 l 244.20889,0 c 0.38539,-0.21978 0.58893,-0.33242 1.14703,-0.64567 0.34331,-0.19267 0.74385,-0.29195 1.10375,-0.46119 0.23194,-0.10908 0.0507,-0.0921 0.15149,-0.22137 0.0971,-0.12444 0.21459,-0.23418 0.32464,-0.35051 1.68436,-0.8837 2.52638,-1.34411 2.96496,-1.58649 -0.15379,0.11566 -0.0664,0.15766 1.10373,-0.31359 0.0308,-0.0123 0.0325,-0.0304 0.0434,-0.0369 -0.0885,-0.006 -0.48604,0.0512 -0.0649,-0.27671 0.54682,-0.42567 1.14313,-0.82956 1.70972,-1.23599 1.07138,-0.57161 2.05923,-1.24051 3.02989,-1.937 0.0292,-0.0209 -0.13985,-0.037 -0.10824,-0.0553 0.83897,-0.48505 1.71784,-0.92275 2.5754,-1.38357 -0.74352,0.0112 -0.33663,0.0244 0.80075,-0.62722 0.47626,-0.53189 1.07692,-1.20021 1.36346,-1.53114 1.0983,-0.93264 2.24148,-1.81058 3.41944,-2.65646 0.52296,-0.63937 1.0101,-1.21679 1.55822,-1.86322 l 0,-153.37316 c -0.54359,-0.52375 -1.03624,-1.07866 -1.42836,-1.71563 -0.15764,-0.31376 -0.32122,-0.62608 -0.47613,-0.94082 -0.26643,-0.1539 -0.48171,-0.3582 -0.54106,-0.60876 -4.9e-4,-0.002 0.20889,0.0651 0.23808,0.0738 -10e-4,-0.007 -10e-4,-0.0138 0,-0.0184 -0.61246,-0.21403 0.1476,0.0566 -1.6448,-0.57188 -1.09188,-0.7345 -1.53095,-1.00661 -2.59705,-1.91854 -0.14226,-0.12168 -0.0917,-0.36619 -0.25971,-0.46119 -2.30396,-1.30362 -2.05809,-0.35508 -2.22913,-1.27289 -3.16604,-1.35468 -6.46172,-3.0224 -9.19787,-4.94394 -0.27775,-0.19506 -0.43135,-0.49378 -0.64926,-0.7379 -0.76826,-0.43106 -1.50294,-0.89924 -2.27242,-1.32823 l -9.91205,0 c -0.80253,0.0908 -1.57496,0.19011 -2.27242,0.29517 -2.33954,0.35238 -4.12511,0.18115 -5.36722,-0.29517 l -220.55415,0 z m 257.15085,11.30837 c 0.0646,0.0294 0.14101,0.0545 0.21642,0.0922 0.53076,0.17642 1.27237,0.4259 1.79627,0.60877 0.3601,0.1257 -1.40081,-0.48735 -2.01269,-0.70101 z M 401.35192,431.65564 c 0.0581,0.25723 0.12847,0.51944 0.19478,0.7748 0.20639,0.0609 -0.0121,-0.4028 -0.19478,-0.7748 z"
       id="rect6533-6" />
    <path
       inkscape:connector-curvature="0"
       style="fill:#b90000;fill-opacity:1;stroke:none"
       d="m 197.62764,140.86861 c -0.67789,0.27013 -1.3551,0.53437 -2.04904,0.75864 -0.8923,0.28839 -1.86422,0.3735 -2.77223,0.60691 -0.5582,0.1435 -1.06661,0.3821 -1.62718,0.51588 -2.8094,0.67051 -5.70556,1.23113 -8.55776,1.66901 -2.33926,0.47052 -2.46584,0.47184 -2.44077,0.48553 -0.0418,0.0492 -0.29677,0.2024 -1.53678,0.60691 -1.68306,0.54906 -2.30889,0.21773 -3.04342,1.45659 -1.2319,1.56952 0.46337,-0.48033 -2.80237,2.57938 -0.20438,0.19149 -0.34737,0.47111 -0.51226,0.69795 -0.73978,0.66316 -1.43899,1.37203 -2.22984,1.97246 -1.19232,0.90527 -3.15346,2.07675 -4.55007,2.91318 -0.21773,0.22159 -0.41803,0.47694 -0.66293,0.66761 -0.60685,0.47247 -1.25118,0.84599 -1.86824,1.30486 -0.28983,0.21552 -0.58587,0.4204 -0.87386,0.63726 -0.2103,0.61842 -0.42226,1.24453 -0.66292,1.82073 -0.20928,0.50108 -0.58225,0.91068 -0.75333,1.42625 -0.19902,0.59979 -0.32304,1.23109 -0.45199,1.85108 l 0,223.73827 c 0.76573,1.76745 1.15253,3.62921 1.62718,5.55325 -0.0105,-0.1381 -0.0107,-0.30066 0.0301,-0.24277 0.4455,0.63191 0.91357,3.39418 0.93412,3.48975 0.57101,1.59973 -0.53828,3.48466 -0.21093,5.09806 0.0363,-0.0894 0.093,-0.61665 0.21093,-0.51587 0.1769,0.15111 0.78044,2.57335 0.81359,2.70076 0.23013,2.41939 0.2851,2.15154 0.12053,3.64147 0.87341,1.94345 1.44195,3.80987 1.77785,5.94775 l 0.96425,2.67041 c -0.0874,-0.3456 -0.42971,-1.33354 -0.24106,-1.03175 0.36492,0.58378 0.48315,1.29178 0.78345,1.91177 0.0158,0.0326 0.0617,-0.0385 0.0904,-0.0607 0.30052,0.65238 0.68733,1.25686 0.90399,1.94212 0.15092,0.47732 0.26493,0.96457 0.3616,1.45659 1.13188,2.00475 2.00043,4.43079 3.43515,6.22085 0.42963,1.66059 1.99263,2.50954 2.68184,4.15735 0.14368,0.34353 0.25626,0.70478 0.36159,1.0621 1.06069,1.14998 1.74048,2.47867 2.5613,3.7932 -0.21412,-0.36894 -0.40343,-0.73857 -0.21093,-0.63725 0.93491,0.49203 2.61443,3.74634 2.9229,4.27873 0.48635,-0.22705 1.17894,0.74837 1.71758,1.57797 0.0212,0.006 0.0391,0.0245 0.0603,0.0303 1.69458,0.47133 3.3782,1.00937 5.06233,1.51728 0.59313,0.21715 1.34721,0.49886 2.04904,0.75864 l 340.02023,0 c 0.53658,-0.36154 0.81997,-0.54683 1.59705,-1.0621 0.47798,-0.31694 1.03567,-0.48024 1.53678,-0.75864 0.32295,-0.17942 0.0706,-0.15151 0.21093,-0.36415 0.13514,-0.20469 0.29877,-0.38521 0.45199,-0.57656 2.34519,-1.45369 3.51758,-2.21103 4.12822,-2.60973 -0.21412,0.19024 -0.0926,0.25933 1.53678,-0.51587 0.0429,-0.0204 0.0452,-0.0501 0.0603,-0.0607 -0.12315,-0.01 -0.67672,0.0842 -0.0904,-0.45519 0.76133,-0.70023 1.5916,-1.36458 2.38051,-2.03315 1.49171,-0.94027 2.86711,-2.04058 4.21861,-3.18629 0.0407,-0.0345 -0.19471,-0.0609 -0.15067,-0.091 1.16813,-0.79788 2.39182,-1.51787 3.58583,-2.27592 -1.03525,0.0185 -0.4687,0.04 1.11491,-1.03175 0.66311,-0.87495 1.49943,-1.9743 1.89838,-2.51869 1.52919,-1.53415 3.12089,-2.97832 4.76101,-4.36977 0.72814,-1.05176 1.4064,-2.00158 2.16957,-3.06491 l 0,-252.2935 c -0.75687,-0.86155 -1.44279,-1.77434 -1.98878,-2.82214 -0.21948,-0.51612 -0.44724,-1.02989 -0.66292,-1.54763 -0.37095,-0.25317 -0.67069,-0.58924 -0.75332,-1.0014 -6.9e-4,-0.004 0.29083,0.10729 0.33146,0.12138 -0.002,-0.0114 -0.002,-0.0228 0,-0.0303 -0.85275,-0.35207 0.20552,0.0931 -2.29011,-0.94071 -1.52025,-1.20825 -2.13158,-1.65585 -3.61595,-3.15595 -0.19808,-0.20017 -0.1278,-0.60235 -0.3616,-0.75864 -3.20787,-2.14442 -2.86555,-0.58407 -3.10369,-2.09385 -4.40818,-2.22842 -8.99687,-4.97173 -12.8065,-8.13262 -0.38673,-0.32087 -0.60059,-0.81224 -0.90399,-1.21383 -1.06967,-0.70908 -2.0926,-1.47921 -3.16396,-2.18488 l -13.80089,0 c -1.11737,0.14927 -2.19285,0.31272 -3.16396,0.48553 -3.25741,0.57966 -5.74353,0.29798 -7.47298,-0.48553 l -307.08491,0 z m 358.03973,18.60187 c 0.0899,0.0485 0.19634,0.0896 0.30133,0.15172 0.739,0.29022 1.77156,0.70062 2.50104,1.00141 0.50136,0.2068 -1.95044,-0.80165 -2.80237,-1.15313 z m -387.23856,259.8799 c 0.0809,0.42315 0.17885,0.85447 0.2712,1.27452 0.28736,0.10003 -0.0164,-0.66261 -0.2712,-1.27452 z"
       id="rect6533-9" />
    <path
       inkscape:connector-curvature="0"
       style="fill:#b90000;fill-opacity:1;stroke:none"
       d="m 422.82139,265.15186 c -0.46947,0.15944 -0.93847,0.31544 -1.41906,0.44784 -0.61796,0.17024 -1.29105,0.22048 -1.9199,0.35826 -0.38656,0.0848 -0.73868,0.22556 -1.1269,0.30455 -1.94563,0.39579 -3.95136,0.72676 -5.92663,0.98525 -1.62004,0.27775 -1.70772,0.27853 -1.69034,0.28661 -0.029,0.0289 -0.20553,0.11948 -1.06428,0.35829 -1.16563,0.32409 -1.59904,0.12851 -2.10772,0.85985 -0.85314,0.92652 0.3209,-0.28356 -1.94078,1.52267 -0.14153,0.11302 -0.24056,0.27809 -0.35475,0.41201 -0.51234,0.39147 -0.99658,0.80992 -1.54427,1.16439 -0.82574,0.5344 -2.18392,1.22594 -3.15113,1.71972 -0.15079,0.1308 -0.28951,0.28155 -0.45911,0.39409 -0.42028,0.27891 -0.8665,0.49941 -1.29385,0.77029 -0.20071,0.12722 -0.40574,0.24818 -0.60517,0.3762 -0.14566,0.36507 -0.29245,0.73468 -0.45912,1.07481 -0.14493,0.29579 -0.40321,0.53759 -0.52172,0.84196 -0.13782,0.35406 -0.22371,0.72673 -0.31301,1.09274 l 0,132.07772 c 0.5303,1.04337 0.79818,2.1424 1.12689,3.27822 -0.007,-0.0815 -0.008,-0.17749 0.0208,-0.14332 0.30853,0.37304 0.63269,2.00365 0.64692,2.06009 0.39546,0.94435 -0.37279,2.05706 -0.14608,3.0095 0.0253,-0.0528 0.0644,-0.36403 0.14608,-0.30455 0.12252,0.0892 0.54049,1.51912 0.56345,1.59432 0.15937,1.42824 0.19744,1.27012 0.0835,2.14966 0.60486,1.14725 0.9986,2.24905 1.23123,3.51107 l 0.6678,1.57642 c -0.0605,-0.20403 -0.29761,-0.78722 -0.16695,-0.60907 0.25272,0.34461 0.33459,0.76256 0.54257,1.12855 0.0117,0.0192 0.0428,-0.0227 0.0626,-0.0358 0.20814,0.38511 0.47601,0.74196 0.62607,1.14647 0.1046,0.28177 0.18347,0.56941 0.25041,0.85987 0.78388,1.18345 1.3854,2.6156 2.37901,3.67231 0.29754,0.98028 1.37997,1.48143 1.85729,2.45417 0.0995,0.20279 0.17747,0.41604 0.25042,0.62698 0.73458,0.67886 1.20535,1.46323 1.77383,2.23922 -0.1483,-0.21779 -0.2794,-0.43601 -0.1461,-0.37618 0.64747,0.29045 1.81062,2.21155 2.02425,2.52582 0.33682,-0.13402 0.81647,0.4418 1.1895,0.93152 0.0147,0.003 0.027,0.0145 0.0419,0.0179 1.17356,0.27824 2.33956,0.59586 3.50588,0.89569 0.41077,0.12818 0.93301,0.29448 1.41907,0.44784 l 235.47951,0 c 0.37161,-0.21342 0.56787,-0.3228 1.10602,-0.62698 0.33104,-0.1871 0.71727,-0.28351 1.0643,-0.44785 0.22365,-0.10592 0.0489,-0.0894 0.14608,-0.21496 0.0936,-0.12084 0.20692,-0.2274 0.31303,-0.34037 1.62415,-0.85812 2.43607,-1.30521 2.85898,-1.54057 -0.1483,0.11231 -0.064,0.15309 1.06427,-0.30452 0.0297,-0.0119 0.0313,-0.0295 0.0418,-0.0358 -0.0853,-0.006 -0.46866,0.0497 -0.0626,-0.2687 0.52728,-0.41335 1.10227,-0.80556 1.64861,-1.20022 1.03308,-0.55507 1.98562,-1.20461 2.92158,-1.88095 0.0282,-0.0203 -0.13485,-0.0359 -0.10437,-0.0537 0.80898,-0.47101 1.65644,-0.89604 2.48334,-1.34352 -0.71694,0.0109 -0.32459,0.0237 0.77213,-0.60907 0.45923,-0.5165 1.03842,-1.16548 1.31472,-1.48683 1.05904,-0.90565 2.16136,-1.75818 3.29721,-2.57958 0.50427,-0.62087 0.974,-1.18158 1.50252,-1.8093 l 0,-148.93453 c -0.52416,-0.50859 -0.9992,-1.04744 -1.3773,-1.66598 -0.15201,-0.30468 -0.30974,-0.60796 -0.45911,-0.91359 -0.25691,-0.14944 -0.46449,-0.34783 -0.52172,-0.59114 -4.7e-4,-0.002 0.20142,0.0632 0.22957,0.0717 -9.6e-4,-0.007 -9.6e-4,-0.0134 0,-0.0179 -0.59057,-0.20784 0.14232,0.055 -1.58601,-0.55533 -1.05285,-0.71325 -1.47622,-0.97748 -2.50421,-1.86302 -0.13718,-0.11816 -0.0884,-0.35559 -0.25043,-0.44784 -2.2216,-1.2659 -1.98452,-0.34481 -2.14945,-1.23606 -3.05287,-1.31547 -6.23074,-2.93493 -8.86909,-4.80086 -0.26782,-0.18941 -0.41593,-0.47949 -0.62605,-0.71654 -0.7408,-0.41859 -1.44921,-0.87322 -2.19119,-1.28979 l -9.55774,0 c -0.77384,0.0882 -1.51866,0.1846 -2.19119,0.28662 -2.25591,0.34219 -3.97765,0.17591 -5.17536,-0.28662 l -212.67032,0 z m 247.95885,10.9811 c 0.0623,0.0285 0.13597,0.0529 0.20869,0.0895 0.51178,0.17132 1.22689,0.41358 1.73206,0.59116 0.34723,0.12206 -1.35074,-0.47325 -1.94075,-0.68073 z M 402.59986,429.54592 c 0.056,0.24978 0.12388,0.5044 0.18781,0.75237 0.19902,0.0591 -0.0117,-0.39114 -0.18781,-0.75237 z"
       id="rect6533-6-8" />
    <path
       sodipodi:type="arc"
       style="fill:#800000;fill-opacity:1;stroke:none"
       id="path7180"
       sodipodi:cx="524"
       sodipodi:cy="185.86218"
       sodipodi:rx="19"
       sodipodi:ry="11.5"
       d="m 543,185.86218 a 19,11.5 0 1 1 -38,0 19,11.5 0 1 1 38,0 z"
       transform="translate(120,98)" />
    <path
       sodipodi:type="arc"
       style="fill:#800000;fill-opacity:1;stroke:none"
       id="path7204"
       sodipodi:cx="368.5"
       sodipodi:cy="103.86218"
       sodipodi:rx="44.5"
       sodipodi:ry="48.5"
       d="m 413,103.86218 a 44.5,48.5 0 1 1 -89,0 44.5,48.5 0 1 1 89,0 z"
       transform="matrix(1.5168539,0,0,1.2164949,-151.46068,81.014373)" />
    <path
       sodipodi:type="arc"
       style="fill:#ffffff;fill-opacity:1;stroke:none"
       id="path7204-6"
       sodipodi:cx="368.5"
       sodipodi:cy="103.86218"
       sodipodi:rx="44.5"
       sodipodi:ry="48.5"
       d="m 413,103.86218 a 44.5,48.5 0 1 1 -89,0 44.5,48.5 0 1 1 89,0 z"
       transform="matrix(1.4044943,0,0,1.14433,-109.44054,88.894169)" />
    <path
       style="fill:#800000;fill-opacity:1;stroke:none"
       id="path7320"
       d="m 603.40185,261.98483 c -2.64574,2.61084 -5.49868,4.78997 -8.22546,7.23537 -2.73452,2.24302 -5.14168,5.0044 -7.28943,8.18579 -1.9201,2.34181 -2.62657,5.4643 -3.40703,8.66055 -0.82263,3.38648 -1.05022,6.93497 -1.19018,10.47 -0.16896,2.59314 0.24333,5.14965 0.77085,7.62719 0,0 -17.51822,12.95225 -17.51822,12.95225 l 0,0 c -0.6888,-2.71604 -1.16718,-5.60546 -1.05573,-8.49037 0.0968,-3.72003 0.24647,-7.46274 0.95542,-11.0796 0.73588,-3.42451 1.28351,-7.05948 3.07147,-9.81442 2.29403,-3.10446 4.29297,-6.68768 7.26013,-8.75055 2.56725,-2.52324 5.31922,-4.61927 7.94094,-6.98331 0,0 18.68724,-10.0129 18.68724,-10.0129 z"
       inkscape:connector-curvature="0" />
    <path
       style="fill:#800000;fill-opacity:1;stroke:none"
       id="path7322"
       d="m 557.40185,263.14749 c -8.00294,4.81224 -17.05847,8.66988 -25.31623,12.78012 -0.61899,0.30809 -2.45338,1.26544 -1.83306,0.95933 18.62576,-9.19078 24.5316,-12.74286 16.7937,-8.16672 -3.0947,2.11844 -6.33718,4.09165 -9.30328,6.34501 -2.58323,1.74973 -4.93413,3.66058 -7.21211,5.69155 -2.65233,2.37425 -3.79861,5.61212 -4.71126,8.7396 -0.78397,3.31611 -0.89156,6.70727 -0.95129,10.07963 -0.29225,2.6292 0.25457,5.03732 1.2888,7.48391 0,0 -21.04238,10.10415 -21.04238,10.10415 l 0,0 c -1.17981,-2.68041 -1.99498,-5.29605 -1.62323,-8.20858 0.0702,-3.5056 0.21038,-7.01956 0.85599,-10.48775 0.70276,-3.40067 1.90748,-6.75181 3.95355,-9.73979 2.37827,-2.02842 4.45122,-4.24012 7.24683,-5.87466 0.97214,-0.71729 1.8041,-1.57305 2.80659,-2.2584 0.49657,-0.33948 1.11793,-0.52186 1.62585,-0.84853 1.67362,-1.07636 3.20941,-2.35669 4.89077,-3.4346 7.83502,-5.22221 50.84035,-25.62543 7.27426,-3.94707 -0.93229,0.46391 3.18093,-1.83857 2.73938,-1.47474 0,0 22.51712,-7.74246 22.51712,-7.74246 z"
       inkscape:connector-curvature="0" />
    <path
       style="fill:#800000;fill-opacity:1;stroke:none"
       id="path7324"
       d="m 656.51576,398.72563 c -2.26356,-0.0689 -4.52911,-0.0779 -6.79365,-0.10031 -2.09111,-0.0943 -4.21041,0.18335 -6.28728,-0.1617 -0.31778,-0.0528 -2.67019,-0.62209 -3.01273,-0.70417 -2.34568,-0.61367 -4.74629,-0.90415 -7.16138,-1.03554 -2.29573,-0.177 -4.61262,0.1062 -6.88808,-0.25445 -1.96857,-0.15296 -3.74838,-0.99849 -5.65532,-1.42323 -1.80206,-0.40076 -3.6677,-0.16643 -5.45887,-0.56835 -1.9224,-0.33303 -3.56924,-1.43445 -5.37995,-2.09772 -1.39175,-0.56027 -2.58647,-1.47464 -3.86418,-2.2407 0,0 12.29125,-7.94327 12.29125,-7.94327 l 0,0 c 1.21483,0.74718 2.41835,1.52635 3.77329,2.00295 1.70326,0.71951 3.35625,1.63573 5.22951,1.82147 1.84745,0.17683 3.72412,0.17129 5.52731,0.67306 1.81197,0.51299 3.57576,1.19895 5.48167,1.29491 2.2868,0.12786 4.58148,0.0409 6.86763,0.20732 2.42713,0.23078 4.82013,0.66591 7.17767,1.29384 3.00673,0.66098 6.02257,0.71514 9.09487,0.6093 2.35661,-0.0227 4.71406,-0.033 7.06979,-0.10031 0,0 -12.01155,8.7269 -12.01155,8.7269 z"
       inkscape:connector-curvature="0" />
  </g>
  <g
     inkscape:groupmode="layer"
     id="layer16"
     inkscape:label="beard">
    <path
       style="fill:#926d6d;fill-opacity:1;stroke:none"
       id="path7490"
       d="m 619.42436,417.08829 c 27.6913,-14.67204 14.83096,-9.55143 10.03336,-5.08612 -1.2266,1.14164 -1.7651,1.86389 -2.86648,3.16668 -3.32253,4.31204 -5.30135,9.42606 -7.32728,14.42544 -2.45491,5.14694 -3.6119,10.65278 -4.26952,16.274 -0.45779,4.91754 -0.45865,9.86466 -0.38111,14.79853 0.035,3.77648 0.42939,7.54877 0.85784,11.29881 0.8424,3.64154 1.42183,7.33268 2.15012,10.99677 0.79983,3.45041 0.95153,6.95136 0.52341,10.45534 -0.67875,3.9553 -2.06187,7.69923 -4.19527,11.08828 -2.6796,4.17534 -6.47231,7.27183 -10.37077,10.23803 -9.4031,6.19259 -19.21159,11.87791 -29.41585,16.65335 -4.60886,2.05782 -9.24298,4.02021 -14.1265,5.3207 -2.46989,0.77153 -4.99437,1.30606 -7.55884,1.6286 0,0 14.0289,-10.49788 14.0289,-10.49788 l 0,0 c 2.44264,-0.38856 4.84585,-0.95852 7.22068,-1.65142 4.68159,-1.33662 9.15029,-3.26909 13.57708,-5.28189 3.4517,-1.71699 2.09652,-1.01451 5.40946,-2.77102 0.83779,-0.44419 3.32588,-1.82193 2.51119,-1.33667 -22.58626,13.45333 -12.4438,7.27381 -7.47389,4.22182 3.85943,-2.79523 7.73909,-5.63817 10.43062,-9.64984 2.29203,-3.04978 3.64441,-6.57572 4.42976,-10.30287 0.47909,-3.34696 0.47912,-6.65228 -0.25388,-9.97435 -0.66677,-3.71395 -1.31606,-7.42993 -2.1585,-11.10943 -0.53612,-3.80964 -0.89106,-7.67751 -0.90406,-11.52336 0.0886,-5.02858 0.12375,-10.06212 0.5249,-15.07873 0.59781,-5.74164 1.63095,-11.43715 4.0896,-16.71187 2.08459,-5.01948 3.88412,-10.22238 6.92989,-14.77179 6.39238,-8.62377 11.36424,-9.45486 22.54024,-15.79286 0,0 -13.9551,10.97375 -13.9551,10.97375 z"
       inkscape:connector-curvature="0" />
    <path
       style="fill:#926d6d;fill-opacity:1;stroke:none"
       id="path7492"
       d="m 654.77792,415.43759 c -0.27103,0.1941 -0.52484,0.4148 -0.81307,0.58229 -52.23148,30.3504 6.35258,-3.96311 -1.91257,1.0988 -5.24216,3.21051 -10.68784,6.0783 -15.9622,9.23565 -4.69353,2.80964 9.4623,-5.49201 14.21951,-8.19244 0.28782,-0.16338 -0.53786,0.3858 -0.80679,0.5787 -1.87781,1.32782 -2.93886,3.19162 -3.746,5.29206 -0.91444,3.7405 -1.33783,7.60276 -1.68257,11.43508 -0.2417,3.9172 -0.65971,7.82813 -1.30331,11.70011 -0.6287,3.43525 -0.84345,6.92284 -0.9847,10.40613 0.11999,4.07317 0.49719,8.12977 0.64021,12.20315 0.0668,4.1884 0.66322,8.33972 0.96067,12.5142 0.22039,2.90965 0.36155,5.82398 0.43096,8.7409 0.24366,2.74436 -0.695,5.15362 -2.02489,7.48675 -1.59467,2.81968 -3.50591,5.40085 -5.59091,7.87165 -2.46324,2.83991 -5.01345,5.59552 -7.6654,8.2593 -3.04694,2.97285 -6.48988,5.49137 -10.12178,7.69502 -6.11929,0.66156 -12.90519,8.60115 -19.83412,10.99198 -1.54363,0.53263 -3.18043,0.90607 -4.76313,1.30372 -2.62309,0.58264 -5.20147,1.35465 -7.80139,2.03739 -2.47314,0.8921 -5.03797,1.4208 -7.64525,1.70408 -1.48428,0.10828 -0.74817,0.0649 -2.20828,0.13134 0,0 14.16629,-10.42927 14.16629,-10.42927 l 0,0 c 1.3999,-0.11373 0.69598,-0.0446 2.11165,-0.20849 2.54285,-0.39681 5.00956,-1.0836 7.46312,-1.85485 2.55785,-0.70146 5.12885,-1.35475 7.71048,-1.96269 1.54552,-0.43467 3.09202,-0.86278 4.57497,-1.48756 5.42529,-2.28576 13.49648,-8.39671 -9.83176,5.95677 3.65174,-2.10136 7.14914,-4.41185 10.2549,-7.28572 2.64685,-2.6106 5.17316,-5.3135 7.63564,-8.09745 2.0659,-2.37768 4.05012,-4.79609 5.59886,-7.53887 1.25138,-2.06936 2.56277,-4.05055 2.33765,-6.58986 0.017,-2.93022 0.028,-5.86212 -0.11749,-8.78978 -0.25901,-4.20389 -0.74851,-8.39224 -0.87944,-12.6024 -0.20437,-4.08602 -0.53105,-8.16091 -0.85346,-12.23856 0.0845,-3.55456 0.2784,-7.10911 0.87603,-10.62031 0.68867,-3.85214 1.28575,-7.72107 1.51026,-11.63457 0.30196,-3.8877 0.73805,-7.75942 1.21257,-11.62825 0.56911,-2.29295 1.43285,-4.56246 3.23224,-6.17943 5.49934,-5.13943 -4.36161,3.97408 16.59743,-10.03459 4.51852,-3.0201 -18.82603,10.87137 -14.10917,8.1715 53.57817,-30.66746 -9.58607,5.22664 2.61146,-1.45459 0,0 16.51278,-6.56689 16.51278,-6.56689 z"
       inkscape:connector-curvature="0" />
    <path
       style="fill:#926d6d;fill-opacity:1;stroke:none"
       id="path7494"
       d="m 600.86713,422.17308 c -1.46486,2.64065 -2.35809,5.54542 -3.06593,8.46566 -1.09894,4.18912 -1.54416,8.49661 -2.1599,12.7714 -0.62429,3.98224 -0.9121,7.97336 -0.60556,11.99259 0.88991,6.04698 3.96484,11.45761 7.04722,16.63488 3.13365,4.91189 7.2725,9.01144 11.39467,13.07609 3.41736,3.48046 6.77595,7.00076 9.76897,10.85697 2.33948,3.22288 4.70116,6.39018 6.31126,10.0489 0.92736,2.56423 1.18436,5.27476 1.2996,7.97757 0.16175,2.68714 -0.49298,5.27877 -1.48272,7.75156 -1.28042,3.30751 -3.10237,6.3336 -5.00707,9.30834 -2.1093,3.52032 -4.56859,6.76076 -7.37746,9.7469 -7.02321,6.84808 -15.94878,11.55491 -24.84056,15.54159 -2.69376,1.12612 -5.42055,2.11824 -8.28976,2.67195 0,0 13.84969,-10.5448 13.84969,-10.5448 l 0,0 c 2.71993,-0.72117 5.36306,-1.67883 7.92191,-2.85469 6.32485,-3.09139 2.06747,-1.06558 -11.13958,6.68246 -0.59728,0.35039 1.21887,-0.65979 1.80416,-1.02986 0.97217,-0.61468 2.36834,-1.67496 3.23487,-2.42188 0.53971,-0.46521 1.04507,-0.96885 1.56761,-1.45328 2.91028,-2.78781 5.42598,-5.90031 7.44009,-9.3996 1.90815,-2.83267 3.82676,-5.74996 4.96056,-8.98777 1.11047,-2.18463 1.80376,-4.51984 1.7265,-6.99592 -0.0198,-2.52095 -0.089,-5.06949 -0.86005,-7.49446 -1.34864,-3.59953 -3.59297,-6.68262 -5.81871,-9.7916 -2.93811,-3.79335 -6.25813,-7.24696 -9.5252,-10.75543 -4.15263,-4.22564 -8.32237,-8.46495 -11.46458,-13.53478 -3.1168,-5.41276 -6.31961,-10.95441 -7.69315,-17.10654 -0.52598,-4.11956 -0.40527,-8.24034 0.33078,-12.33689 0.67205,-4.2939 1.10647,-8.62571 2.09897,-12.86291 0.5585,-2.94062 1.31247,-5.81606 2.36064,-8.6213 0,0 16.21273,-7.33515 16.21273,-7.33515 z"
       inkscape:connector-curvature="0" />
    <path
       style="fill:#926d6d;fill-opacity:1;stroke:none"
       id="path7496"
       d="m 632.74694,425.36766 c -2.08786,3.57871 -4.15929,7.17429 -6.21356,10.7754 -2.37352,4.00026 -4.50741,8.13322 -6.54988,12.31 -2.14648,4.82172 -3.40065,9.972 -4.35028,15.14514 -0.91817,4.80404 -0.85763,9.66154 -0.58851,14.5171 0.36123,3.90127 1.2608,7.71774 1.99061,11.55904 0.45517,2.7547 0.66829,5.53852 0.77451,8.32585 -0.008,2.85852 -0.84944,5.55541 -1.98345,8.14627 -1.63171,3.28989 -3.99503,6.1062 -6.47999,8.77691 -3.07676,3.15537 -6.57872,5.8649 -10.10521,8.49457 -8.4846,5.97955 -17.57242,11.13421 -26.91555,15.65182 -5.09479,2.00835 -10.33325,3.62096 -15.6655,4.8588 -4.68873,1.04991 -9.4884,1.31244 -14.27426,1.47259 -0.65754,0.0176 -1.31507,0.0352 -1.9726,0.0528 0,0 13.9397,-10.17305 13.9397,-10.17305 l 0,0 c 0.63372,-0.01 1.26745,-0.0196 1.90117,-0.0293 4.66635,-0.16778 9.33879,-0.50654 13.89035,-1.62214 5.26673,-1.34989 10.50624,-2.89993 15.45752,-5.17586 0.77849,-0.39879 1.56192,-0.78807 2.33546,-1.19636 4.82991,-2.54936 12.14627,-7.09209 -10.2762,6.03467 -0.65516,0.38355 1.34732,-0.70245 1.99629,-1.09641 0.64016,-0.38861 1.24667,-0.83015 1.86743,-1.24907 0.5877,-0.3966 1.17194,-0.79831 1.7579,-1.19746 3.50771,-2.55611 7.02,-5.14954 10.12615,-8.18715 2.48033,-2.49741 4.81936,-5.12622 6.55732,-8.20872 1.21281,-2.29521 2.04808,-4.73726 2.21665,-7.3461 -0.0191,-2.73892 -0.0834,-5.48425 -0.4739,-8.2001 -0.57546,-3.95807 -1.54658,-7.84901 -1.85651,-11.84486 -0.27541,-4.99536 -0.39717,-9.97163 0.51186,-14.92482 0.93746,-5.26798 2.15034,-10.50826 4.07495,-15.51259 1.95064,-4.24256 4.09232,-8.41224 6.49152,-12.41882 1.94828,-3.47026 4.12283,-6.84934 5.60443,-10.55294 0,0 16.21158,-7.18521 16.21158,-7.18521 z"
       inkscape:connector-curvature="0" />
    <path
       style="fill:#926d6d;fill-opacity:1;stroke:none"
       id="path7498"
       d="m 613.71658,430.44615 c -2.70011,2.76659 -5.2594,5.70728 -7.48552,8.86991 -2.76012,4.08503 -4.07874,8.78073 -4.93089,13.57454 -0.93105,6.27968 1.07435,12.18529 3.17941,17.99489 2.31773,5.5046 5.44756,10.56119 9.03213,15.3168 3.36601,4.48874 7.15591,8.64066 10.43442,13.1952 1.69772,2.60732 2.52065,5.52729 2.85845,8.58434 0.32673,2.95502 -0.26075,5.66654 -1.67505,8.25261 -2.2476,3.26188 -5.54914,5.60225 -8.61393,8.04283 -4.77868,3.87481 -9.79325,7.43991 -14.79992,11.01005 -5.69492,4.03099 -11.37248,8.0892 -17.32275,11.73797 -6.66461,3.91697 -13.13288,8.23649 -20.19428,11.40181 0,0 13.56095,-10.79318 13.56095,-10.79318 l 0,0 c 8.78781,-4.3377 -19.28958,11.21744 -9.14445,5.46815 6.13336,-3.51402 11.90041,-7.59485 17.64246,-11.70871 4.87034,-3.48637 9.75417,-6.96604 14.39137,-10.76138 2.129,-1.66281 4.18591,-3.39903 6.24094,-5.14897 0.41519,-0.35354 0.88231,-0.64704 1.27328,-1.0272 0.36978,-0.35957 0.66575,-0.78795 0.99862,-1.18193 1.67014,-2.31153 2.38584,-4.30383 2.06198,-7.19162 -0.14588,-2.8044 -0.65112,-5.52878 -2.10857,-7.98322 -2.96669,-4.71317 -6.6297,-8.92917 -10.03305,-13.3253 -3.70895,-4.88374 -7.05365,-10.00035 -9.27362,-15.75666 -2.19034,-6.00466 -4.31344,-12.16358 -3.71722,-18.66295 0.625,-4.96762 1.81082,-9.85197 4.45581,-14.17008 1.99417,-3.19882 4.51961,-5.94317 6.77933,-8.9489 0,0 16.3901,-6.789 16.3901,-6.789 z"
       inkscape:connector-curvature="0" />
    <path
       style="fill:#926d6d;fill-opacity:1;stroke:none"
       id="path7500"
       d="m 660.91688,429.92642 c -0.24612,3.3265 -0.20501,6.65414 -0.0414,9.98239 0.36151,6.00759 0.91666,11.99688 1.22441,18.00869 0.26329,5.92442 0.39089,11.85318 0.47316,17.78241 0.0739,4.508 0.26174,9.00991 -0.2835,13.49334 -0.58699,5.05016 -2.45398,9.8131 -4.57125,14.39423 -2.36047,4.87883 -5.48831,9.319 -8.77218,13.61012 -3.61777,4.45323 -7.65014,8.54608 -11.83497,12.46292 -3.74024,3.38196 -7.99767,6.07985 -12.30936,8.65857 -8.35744,4.94833 -16.49806,10.64359 -26.1737,12.31976 -5.28523,1.07006 -10.68777,1.33639 -16.06298,1.54169 -5.44419,0.15759 -10.89091,0.18417 -16.33694,0.21797 -3.7696,0.032 -7.53864,0.063 -11.30825,0.0733 -1.57315,-0.0104 -3.1463,0.003 -4.7194,0.0149 0,0 14.10566,-10.24736 14.10566,-10.24736 l 0,0 c 1.55729,0.0133 3.11462,0.0283 4.67199,0.0211 3.6871,0.0189 7.37335,0.0673 11.06042,0.10307 5.38212,0.0281 10.76674,0.0483 16.14566,-0.17062 5.41605,-0.27495 10.84181,-0.67246 16.13343,-1.93767 7.55726,-1.85377 20.83465,-9.18514 -3.50887,4.20449 4.41144,-2.46848 8.71481,-5.15297 12.61895,-8.37738 4.22164,-3.83408 8.28319,-7.83774 11.94956,-12.21592 3.33054,-4.13621 6.39821,-8.53948 8.87198,-13.24463 2.15291,-4.38564 4.03327,-8.9596 4.6637,-13.8422 0.61416,-4.43402 0.46056,-8.89097 0.5245,-13.35907 0.0282,-5.94159 0.0529,-11.88653 -0.21745,-17.82363 -0.31522,-5.95846 -0.92017,-11.8842 -1.5261,-17.81748 -0.3006,-3.26017 -0.51737,-6.51268 -0.61085,-9.78527 0,0 15.83376,-8.0677 15.83376,-8.0677 z"
       inkscape:connector-curvature="0" />
    <path
       style="fill:#926d6d;fill-opacity:1;stroke:none"
       id="path7502"
       d="m 639.93731,421.79639 c 0.0302,2.83828 -0.66249,5.56924 -1.19527,8.33595 -0.98892,4.35198 -2.20874,8.63794 -3.04091,13.02531 -0.63572,3.67459 -0.99141,7.39734 -0.32142,11.09859 0.45653,2.522 1.00105,3.7155 1.86816,6.12705 2.27642,5.89129 5.78923,11.18138 9.60264,16.17617 2.45953,3.237 4.29453,6.85082 5.97512,10.53183 1.32832,2.70534 1.80115,5.60612 1.52179,8.5868 -0.6704,3.52546 -2.50801,6.63628 -4.51076,9.55663 -2.57812,3.60048 -6.08906,6.38712 -9.41482,9.26284 -8.35363,7.03151 -18.52149,11.82523 -27.93915,17.11677 -5.16519,2.66718 -10.62717,4.47627 -16.24077,5.89685 -5.63492,1.14707 -11.23165,2.41236 -16.93375,3.18044 -4.90217,0.58927 -9.8484,0.62998 -14.7786,0.74743 -0.65171,0.008 -1.30342,0.0154 -1.95513,0.0231 0,0 13.95726,-10.15364 13.95726,-10.15364 l 0,0 c 0.635,-2.2e-4 1.27001,-4.5e-4 1.90502,-6.7e-4 4.82749,-0.006 9.66141,-0.13818 14.45345,-0.77421 5.64391,-0.81271 11.20823,-2.05581 16.76919,-3.30592 5.56828,-1.50804 10.94393,-3.52283 16.06941,-6.19575 -4.0281,2.37654 -8.05956,4.74741 -12.0843,7.12963 -0.7888,0.46689 1.58814,-0.91583 2.37643,-1.38359 1.54345,-0.91586 3.12458,-1.7726 4.62003,-2.76491 1.23289,-0.81808 2.85352,-2.17757 3.99889,-3.10615 3.21462,-2.81536 6.62466,-5.49755 9.34834,-8.80251 2.00183,-2.66631 3.75928,-5.48957 4.71452,-8.71616 0.49175,-2.69611 0.0457,-5.25438 -1.03886,-7.77221 -1.49899,-3.63612 -3.14334,-7.18357 -5.44012,-10.40633 -3.65847,-5.29186 -7.10852,-10.75586 -9.59566,-16.71264 -2.32992,-6.13678 -3.46402,-11.3139 -2.22916,-17.87243 0.69387,-4.35351 1.75969,-8.61719 2.74866,-12.9082 0.4741,-2.58286 1.24121,-5.18957 0.91515,-7.83149 0,0 15.87462,-8.08853 15.87462,-8.08853 z"
       inkscape:connector-curvature="0" />
    <path
       style="fill:#926d6d;fill-opacity:1;stroke:none"
       id="path7504"
       d="m 635.86713,421.17308 c -2.24308,4.0879 -4.66677,8.03631 -7.41048,11.8073 -3.74741,4.72108 -7.4133,9.46871 -10.48311,14.66306 -2.28603,3.83594 -3.8622,7.94983 -4.71211,12.32086 -0.91156,5.14389 1.15387,9.62841 3.54457,14.03063 2.15698,3.28827 4.67465,6.29923 6.77919,9.62186 1.73209,2.47287 2.77498,5.30729 3.42975,8.23188 0.7683,3.44272 0.53491,6.80781 -0.42676,10.16983 -1.47151,3.83375 -3.99672,7.03145 -6.84643,9.92815 -2.71969,2.43645 -5.68651,4.59623 -8.84568,6.42807 -17.16866,9.95522 -11.12101,7.12547 -19.62976,10.95942 -5.79224,2.43253 -11.91393,3.99295 -18.0523,5.2643 -7.07299,0.97643 -14.16232,1.91546 -21.25843,2.73981 0,0 13.35793,-9.94302 13.35793,-9.94302 l 0,0 c 7.08895,-0.8226 14.19014,-1.67714 21.21727,-2.91896 6.11355,-1.41946 12.23606,-2.99504 17.94337,-5.664 6.82577,-3.41703 2.92385,-1.5298 -9.39499,5.65128 -0.78562,0.45796 1.59665,-0.87221 2.37349,-1.3449 2.28203,-1.38854 4.44707,-2.97355 6.50524,-4.67349 2.88018,-2.593 5.1776,-5.57498 6.89978,-9.05992 1.2383,-2.98472 1.49586,-6.13314 0.83616,-9.30633 -0.59788,-2.75569 -1.60773,-5.3592 -3.2073,-7.70184 -1.97888,-3.41599 -4.25547,-6.62319 -6.40229,-9.9358 -2.5294,-4.68149 -4.83282,-9.45969 -4.27963,-14.94012 0.74066,-4.59388 2.2815,-8.88773 4.59614,-12.94263 3.12788,-5.30024 6.81891,-10.18628 10.70844,-14.94947 1.72042,-2.30124 3.42558,-4.62764 4.70921,-7.21358 0.30109,-0.60657 0.48257,-1.26737 0.77831,-1.87656 2.02768,-4.17675 -0.30838,1.19466 1.05769,-2.01068 0,0 16.21273,-7.33515 16.21273,-7.33515 z"
       inkscape:connector-curvature="0" />
    <path
       style="fill:#926d6d;fill-opacity:1;stroke:none"
       id="path7506"
       d="m 624.44727,441.89119 c -0.266,0.0918 -0.5336,0.17899 -0.798,0.27527 -1.50641,0.54854 -0.98777,0.34067 -2.56017,1.18609 -0.5465,0.29384 -2.17517,1.19491 -1.63776,0.88475 14.02003,-8.09143 16.8724,-10.25354 11.05469,-6.04786 -3.69034,2.89072 -6.20178,6.78204 -8.29572,10.9087 -2.18857,4.87158 -2.49602,9.84305 -2.01525,15.08158 1.40643,7.515 5.54369,14.08032 9.72565,20.34367 3.92469,5.69195 8.65247,10.71283 13.35903,15.74406 2.74475,2.80714 5.36163,5.77679 6.72905,9.49857 0.91476,2.97732 0.72372,5.04768 -1.40423,7.35756 -7.58826,5.60081 -15.93273,9.90167 -24.67618,13.21846 -4.78564,1.75166 -9.86001,2.48437 -14.79136,3.71836 -5.58733,1.29277 -11.27199,2.06082 -16.93583,2.91938 -5.57214,0.86693 -11.20738,1.10687 -16.83479,1.29015 0,0 13.68898,-10.01327 13.68898,-10.01327 l 0,0 c 5.58198,-0.17852 11.16102,-0.53106 16.68119,-1.42169 5.64424,-0.83489 11.29662,-1.67586 16.84252,-3.04321 4.99105,-1.19742 10.09547,-2.08986 14.85752,-4.06569 1.89197,-0.78336 3.80855,-1.53844 5.63981,-2.45924 0.51347,-0.25819 2.01096,-1.11362 1.51456,-0.82398 -13.27236,7.74428 -18.25775,10.15279 -12.23474,7.19876 2.38872,-1.3034 3.05811,-2.74719 2.37484,-5.4432 -1.12595,-3.56156 -3.46019,-6.41481 -5.94243,-9.15506 -4.53986,-5.24433 -9.10866,-10.47851 -13.01971,-16.22369 -4.33489,-6.45701 -8.62582,-13.17887 -10.50411,-20.81554 -0.31519,-2.28508 -0.58775,-3.56541 -0.53872,-5.86182 0.0723,-3.38447 0.79306,-6.78873 1.90314,-9.97175 1.9894,-4.29261 4.3982,-8.4435 7.99198,-11.60197 6.44437,-5.74645 1.41123,-1.46583 18.29177,-11.14357 1.78211,-1.0217 3.70593,-1.80338 5.68279,-2.3526 0,0 -14.14852,10.81878 -14.14852,10.81878 z"
       inkscape:connector-curvature="0" />
  </g>
  <g
     inkscape:groupmode="layer"
     id="layer12"
     inkscape:label="mostach"
     sodipodi:insensitive="true">
    <path
       style="fill:#916f6f;fill-opacity:1;stroke:none"
       id="path7343"
       d="m 626.29526,300.06162 c -7.38889,5.37142 -15.91147,8.32669 -23.6947,12.89653 20.3347,-12.33227 7.65025,-4.53781 3.52114,-0.61159 -2.06076,2.12164 -3.91369,4.41093 -5.60095,6.83641 -2.01307,3.1318 -3.01222,6.77496 -4.06208,10.31167 -1.12224,3.94996 -1.79063,8.00534 -2.58055,12.02865 -0.77644,3.42257 -1.1091,6.91187 -1.30948,10.40782 -0.11015,3.10207 -0.13538,6.20708 -0.12491,9.31092 -0.002,3.14335 0.0198,6.2869 0.006,9.43041 -0.0377,3.39329 10e-6,6.7866 -3.3e-4,10.17992 0.0356,3.52989 -0.0364,7.0594 -0.0526,10.5892 0.005,3.84609 -0.004,7.69218 0.0345,11.53819 -0.0489,3.62232 -0.79156,7.16039 -1.75135,10.6362 -1.12319,3.55837 -2.60264,6.98758 -3.83003,10.50777 -0.90979,2.77799 -1.8685,5.53704 -3.03621,8.21796 -1.40513,2.93213 -3.31498,5.57498 -5.29104,8.14217 -2.26536,2.84423 -4.6259,5.61365 -7.1633,8.21901 -2.15959,2.08546 -4.45618,4.01704 -6.86174,5.81089 -1.9107,1.41736 -3.80315,2.86028 -5.82464,4.1175 -5.84958,3.63302 -11.62325,7.81858 -18.35333,9.54132 -1.99585,0.50952 -3.95382,1.05624 -6.009,1.30824 0,0 11.74284,-8.80496 11.74284,-8.80496 l 0,0 c 1.99366,-0.36333 3.92805,-0.95254 5.88599,-1.46793 0.95993,-0.32517 1.92077,-0.66505 2.85621,-1.05656 0.30301,-0.12682 1.17974,-0.57524 0.89698,-0.40808 -7.96724,4.70981 -15.85538,9.11678 -10.64607,6.20196 1.9856,-1.34892 4.08597,-2.53323 5.92743,-4.10319 2.51054,-1.65432 4.76625,-3.63484 7.01293,-5.62665 2.67519,-2.43609 4.98243,-5.24246 7.24353,-8.06023 2.03824,-2.40097 3.81793,-5.01617 5.34528,-7.77202 1.27229,-2.62068 2.20451,-5.38827 3.19949,-8.1222 1.14477,-3.5448 2.73397,-6.93216 3.89438,-10.47589 1.03143,-3.32823 1.69269,-6.77026 1.89961,-10.25177 0.0379,-3.85777 0.0297,-7.7156 0.0346,-11.57343 -0.0161,-3.51193 -0.0882,-7.02355 -0.0525,-10.53557 -6.7e-4,-3.39186 0.0366,-6.78376 -0.006,-10.17555 -0.0196,-3.14133 -0.008,-6.28276 -0.02,-9.42393 0.008,-3.13011 -0.0393,-6.26217 0.11099,-9.39003 0.17254,-3.57319 0.53821,-7.13812 1.29013,-10.64064 0.87582,-4.05259 1.5371,-8.15386 2.59646,-12.16602 1.04161,-3.60803 1.91721,-7.33264 3.71402,-10.65709 1.68247,-2.46677 3.39016,-4.89036 5.46282,-7.05569 5.73547,-6.15178 14.04452,-9.64012 20.96498,-13.91245 5.52544,-3.10083 22.86343,-11.6018 -1.15625,1.37756 0,0 13.78669,-5.31883 13.78669,-5.31883 z"
       inkscape:connector-curvature="0" />
  </g>
  <g
     inkscape:groupmode="layer"
     id="layer13"
     inkscape:label="horn"
     sodipodi:insensitive="true">
    <path
       style="fill:#483737;fill-opacity:1;stroke:#000000;stroke-width:1.02988827px;stroke-linecap:butt;stroke-linejoin:miter;stroke-opacity:1"
       d="M 228.59842,1.4906109 330.29849,142.99664 C 228.23301,228.80745 243.37738,167.40949 228.59842,1.4906109 z"
       id="path7366"
       inkscape:connector-curvature="0"
       sodipodi:nodetypes="ccc" />
  </g>
  <g
     inkscape:groupmode="layer"
     id="layer14"
     inkscape:label="ear"
     style="display:inline"
     sodipodi:insensitive="true">
    <path
       sodipodi:type="star"
       style="fill:#a00000;fill-opacity:1;stroke:none"
       id="path7377"
       sodipodi:sides="5"
       sodipodi:cx="219"
       sodipodi:cy="303.36218"
       sodipodi:r1="77.83316"
       sodipodi:r2="14.615508"
       sodipodi:arg1="1.2165369"
       sodipodi:arg2="2.72578"
       inkscape:flatsided="false"
       inkscape:rounded="0"
       inkscape:randomized="0"
       d="m 246,376.36219 -40.3701,-67.09631 -47.71357,42.33307 51.33734,-59.12814 -55.00546,-32.29667 72.09832,30.55311 13.71834,-62.29352 -6.77813,78.01101 63.48385,-6.20284 -76.28743,17.66034 z"
       inkscape:transform-center-x="7.8793356"
       inkscape:transform-center-y="-4.4262506"
       transform="translate(25,64)" />
    <path
       sodipodi:type="arc"
       style="fill:#800000;fill-opacity:1;stroke:none"
       id="path7379"
       sodipodi:cx="161"
       sodipodi:cy="159.86218"
       sodipodi:rx="91"
       sodipodi:ry="105.5"
       d="M 252,159.86218 A 91,105.5 0 1 1 75.949532,122.34147"
       sodipodi:start="0"
       sodipodi:end="3.5051984"
       transform="translate(-13,-24)"
       sodipodi:open="true" />
    <path
       sodipodi:type="arc"
       style="fill:#b90000;fill-opacity:1;stroke:none"
       id="path7379-8"
       sodipodi:cx="161"
       sodipodi:cy="159.86218"
       sodipodi:rx="91"
       sodipodi:ry="105.5"
       d="M 252,159.86218 A 91,105.5 0 1 1 75.949532,122.34147"
       sodipodi:start="0"
       sodipodi:end="3.5051984"
       transform="matrix(0.96703297,0,0,0.92308806,-4.66678,-6.19553)"
       sodipodi:open="true" />
  </g>
  <g
     inkscape:groupmode="layer"
     id="layer11"
     inkscape:label="pupil"
     sodipodi:insensitive="true">
    <path
       sodipodi:type="arc"
       style="fill:#b90000;fill-opacity:1;stroke:none"
       id="path7282"
       sodipodi:cx="318.5"
       sodipodi:cy="110.36218"
       sodipodi:rx="25.5"
       sodipodi:ry="35"
       d="m 344,110.36218 a 25.5,35 0 1 1 -0.004,-0.61024"
       sodipodi:start="0"
       sodipodi:end="6.265749"
       transform="matrix(1.3529412,0,0,0.98571429,6.58824,105.0766)"
       sodipodi:open="true" />
    <path
       sodipodi:type="arc"
       style="fill:#000000;fill-opacity:1;stroke:none"
       id="path7282-3"
       sodipodi:cx="318.5"
       sodipodi:cy="110.36218"
       sodipodi:rx="25.5"
       sodipodi:ry="35"
       d="m 344,110.36218 a 25.5,35 0 1 1 -0.004,-0.61024"
       sodipodi:start="0"
       sodipodi:end="6.265749"
       transform="matrix(0.98039218,0,0,0.8,135.24509,122.57244)"
       sodipodi:open="true" />
  </g>
  <g
     inkscape:groupmode="layer"
     id="layer10"
     inkscape:label="eyelid"
     sodipodi:insensitive="true">
    <path
       sodipodi:type="arc"
       style="fill:#800000;fill-opacity:1;stroke:none"
       id="path7204-2"
       sodipodi:cx="368.5"
       sodipodi:cy="103.86218"
       sodipodi:rx="44.5"
       sodipodi:ry="48.5"
       d="m 413,103.86218 a 44.5,48.5 0 1 1 -89,0"
       transform="matrix(1.5168539,0,-0.28865978,-1.2164949,-117.25464,333.21)"
       sodipodi:start="0"
       sodipodi:end="3.1415927"
       sodipodi:open="true" />
  </g>
</svg>
