<?xml version="1.0" encoding="UTF-8" standalone="no"?>
<!-- Created with Inkscape (http://www.inkscape.org/) -->

<svg
   xmlns:dc="http://purl.org/dc/elements/1.1/"
   xmlns:cc="http://creativecommons.org/ns#"
   xmlns:rdf="http://www.w3.org/1999/02/22-rdf-syntax-ns#"
   xmlns:svg="http://www.w3.org/2000/svg"
   xmlns="http://www.w3.org/2000/svg"
   xmlns:sodipodi="http://sodipodi.sourceforge.net/DTD/sodipodi-0.dtd"
   xmlns:inkscape="http://www.inkscape.org/namespaces/inkscape"
   width="1075.7368"
   height="753.34839"
   id="svg2"
   version="1.1"
   inkscape:version="0.48.5 r10040"
   sodipodi:docname="New document 1">
  <defs
     id="defs4" />
  <sodipodi:namedview
     id="base"
     pagecolor="#ffffff"
     bordercolor="#666666"
     borderopacity="1.0"
     inkscape:pageopacity="0.0"
     inkscape:pageshadow="2"
     inkscape:zoom="0.7"
     inkscape:cx="582.42438"
     inkscape:cy="493.93452"
     inkscape:document-units="px"
     inkscape:current-layer="layer2"
     showgrid="false"
     fit-margin-top="0"
     fit-margin-left="0"
     fit-margin-right="0"
     fit-margin-bottom="0"
     inkscape:window-width="1920"
     inkscape:window-height="1017"
     inkscape:window-x="-8"
     inkscape:window-y="-8"
     inkscape:window-maximized="1" />
  <metadata
     id="metadata7">
    <rdf:RDF>
      <cc:Work
         rdf:about="">
        <dc:format>image/svg+xml</dc:format>
        <dc:type
           rdf:resource="http://purl.org/dc/dcmitype/StillImage" />
        <dc:title></dc:title>
      </cc:Work>
    </rdf:RDF>
  </metadata>
  <g
     inkscape:label="cave"
     inkscape:groupmode="layer"
     id="layer1"
     transform="translate(0.72554016,5.7406258)"
     sodipodi:insensitive="true">
    <rect
       style="fill:#999999;fill-opacity:1;stroke:none;display:inline"
       id="rect4684"
       width="1077.4286"
       height="750"
       x="-0.72554016"
       y="-2.3922338"
       ry="6.75" />
    <rect
       style="fill:#333333;fill-opacity:1;stroke:none;display:inline"
       id="rect4687"
       width="1076.4286"
       height="201"
       x="-0.72554016"
       y="546.60779"
       ry="6.3104649" />
    <path
       transform="translate(5.27446,-3.4867458)"
       style="fill:#1a1a1a;fill-opacity:1;stroke:none;display:inline"
       id="path4689"
       sodipodi:type="arc"
       sodipodi:cx="518"
       sodipodi:cy="597.09448"
       sodipodi:rx="503"
       sodipodi:ry="40"
       sodipodi:start="3.1415927"
       sodipodi:end="9.2871936"
       sodipodi:open="true"
       d="m 15,597.09448 a 503,40 0 1 1 4.753253,5.48603" />
    <path
       style="fill:#333333;fill-opacity:1;fill-rule:evenodd;stroke:none"
       d="M 3.27446,21.402254 29.36017,0.60773418 86.27446,13.265264 l 0,30.73973 -15.80952,22.60274 -56.91429,-2.71233 z"
       id="path4787"
       inkscape:connector-curvature="0" />
    <path
       style="fill:#333333;fill-opacity:1;fill-rule:evenodd;stroke:none"
       d="m 111.77446,82.402264 26.08571,-20.79452 56.91429,12.65753 0,30.739726 -15.80952,22.60274 -56.91429,-2.71233 z"
       id="path4787-2"
       inkscape:connector-curvature="0" />
    <path
       style="fill:#333333;fill-opacity:1;fill-rule:evenodd;stroke:none"
       d="m 107.77446,17.284794 25.32214,-11.0254198 40.32786,-4.9941 35.35,31.5396398 -18.35635,25.80283 -71.46952,-3.47026 z"
       id="path4787-8"
       inkscape:connector-curvature="0"
       sodipodi:nodetypes="ccccccc" />
    <path
       style="fill:#333333;fill-opacity:1;fill-rule:evenodd;stroke:none"
       d="m 6.77446,100.95603 25.32214,-11.025426 40.32786,-4.9941 35.35,31.539636 -18.35635,25.80283 -71.46952,-3.47025 z"
       id="path4787-8-6"
       inkscape:connector-curvature="0"
       sodipodi:nodetypes="ccccccc" />
    <path
       style="fill:#333333;fill-opacity:1;fill-rule:evenodd;stroke:none"
       d="m 218.77446,91.956034 14.32214,-41.02543 40.32786,10.0059 15.35,22.53964 -1.35635,39.802826 -68.46952,-8.47025 z"
       id="path4787-8-3"
       inkscape:connector-curvature="0"
       sodipodi:nodetypes="ccccccc" />
    <path
       style="fill:#333333;fill-opacity:1;fill-rule:evenodd;stroke:none"
       d="m 299.52446,31.566644 26.08571,-20.79452 56.91429,12.65753 0,30.73973 -15.80952,22.60274 -56.91429,-2.71233 z"
       id="path4787-1"
       inkscape:connector-curvature="0" />
    <path
       style="fill:#333333;fill-opacity:1;fill-rule:evenodd;stroke:none"
       d="m 408.02446,92.566654 26.08571,-20.79452 56.91429,12.65753 0,30.739726 -15.80952,22.60274 -56.91429,-2.71233 z"
       id="path4787-2-0"
       inkscape:connector-curvature="0" />
    <path
       style="fill:#333333;fill-opacity:1;fill-rule:evenodd;stroke:none"
       d="m 404.02446,27.449184 25.32214,-11.02542 40.32786,-4.9941 35.35,31.53964 -18.35635,25.80283 -71.46952,-3.47026 z"
       id="path4787-8-8"
       inkscape:connector-curvature="0"
       sodipodi:nodetypes="ccccccc" />
    <path
       style="fill:#333333;fill-opacity:1;fill-rule:evenodd;stroke:none"
       d="m 303.02446,111.12042 25.32214,-11.02543 40.32786,-4.994096 35.35,31.539636 -18.35635,25.80283 -71.46952,-3.47025 z"
       id="path4787-8-6-6"
       inkscape:connector-curvature="0"
       sodipodi:nodetypes="ccccccc" />
    <path
       style="fill:#333333;fill-opacity:1;fill-rule:evenodd;stroke:none"
       d="m 515.02446,102.12042 14.32214,-41.025426 40.32786,10.0059 15.35,22.53964 -1.35635,39.802826 -68.46952,-8.47025 z"
       id="path4787-8-3-4"
       inkscape:connector-curvature="0"
       sodipodi:nodetypes="ccccccc" />
    <path
       style="fill:#333333;fill-opacity:1;fill-rule:evenodd;stroke:none"
       d="m 467.18069,165.5253 20.45112,26.3558 -13.40178,56.74365 -30.73709,-0.40256 -22.39377,-16.10417 3.45744,-56.87389 z"
       id="path4787-1-9"
       inkscape:connector-curvature="0" />
    <path
       style="fill:#333333;fill-opacity:1;fill-rule:evenodd;stroke:none"
       d="m 404.76502,273.21716 20.45112,26.35579 -13.40178,56.74365 -30.7371,-0.40256 -22.39376,-16.10417 3.45743,-56.87389 z"
       id="path4787-2-0-1"
       inkscape:connector-curvature="0" />
    <path
       style="fill:#333333;fill-opacity:1;fill-rule:evenodd;stroke:none"
       d="m 469.92928,270.07026 10.69287,25.46436 4.46554,40.3898 -31.99987,34.93393 -25.56023,-18.69268 4.40592,-71.41795 z"
       id="path4787-8-8-6"
       inkscape:connector-curvature="0"
       sodipodi:nodetypes="ccccccc" />
    <path
       style="fill:#333333;fill-opacity:1;fill-rule:evenodd;stroke:none"
       d="m 387.5879,167.98318 10.69287,25.46436 4.46554,40.3898 -31.99987,34.93393 -25.56023,-18.69268 4.40591,-71.41795 z"
       id="path4787-8-6-6-2"
       inkscape:connector-curvature="0"
       sodipodi:nodetypes="ccccccc" />
    <path
       style="fill:#333333;fill-opacity:1;fill-rule:evenodd;stroke:none"
       d="m 393.81081,380.08287 40.83436,14.85817 -10.53317,40.19336 -22.73873,15.05351 -39.78165,-1.87748 9.36618,-68.35272 z"
       id="path4787-8-3-4-8"
       inkscape:connector-curvature="0"
       sodipodi:nodetypes="ccccccc" />
    <path
       style="fill:#333333;fill-opacity:1;fill-rule:evenodd;stroke:none"
       d="m 503.52446,166.56664 26.08571,-20.79452 56.91429,12.65753 0,30.73973 -15.80952,22.60274 -56.91429,-2.71233 z"
       id="path4787-1-8"
       inkscape:connector-curvature="0" />
    <path
       style="fill:#333333;fill-opacity:1;fill-rule:evenodd;stroke:none"
       d="m 612.02446,227.56665 26.08571,-20.79452 56.91429,12.65753 0,30.73973 -15.80952,22.60274 -56.91429,-2.71233 z"
       id="path4787-2-0-8"
       inkscape:connector-curvature="0" />
    <path
       style="fill:#333333;fill-opacity:1;fill-rule:evenodd;stroke:none"
       d="m 608.02446,162.44918 25.32214,-11.02542 40.32786,-4.9941 35.35,31.53964 -18.35635,25.80283 -71.46952,-3.47026 z"
       id="path4787-8-8-67"
       inkscape:connector-curvature="0"
       sodipodi:nodetypes="ccccccc" />
    <path
       style="fill:#333333;fill-opacity:1;fill-rule:evenodd;stroke:none"
       d="m 507.02446,246.12042 25.32214,-11.02543 40.32786,-4.9941 35.35,31.53964 -18.35635,25.80283 -71.46952,-3.47025 z"
       id="path4787-8-6-6-7"
       inkscape:connector-curvature="0"
       sodipodi:nodetypes="ccccccc" />
    <path
       style="fill:#333333;fill-opacity:1;fill-rule:evenodd;stroke:none"
       d="m 719.02446,237.12042 14.32214,-41.02543 40.32786,10.0059 15.35,22.53964 -1.35635,39.80283 -68.46952,-8.47025 z"
       id="path4787-8-3-4-5"
       inkscape:connector-curvature="0"
       sodipodi:nodetypes="ccccccc" />
    <path
       style="fill:#333333;fill-opacity:1;fill-rule:evenodd;stroke:none"
       d="m 793.35646,427.5624 -28.01981,18.10433 -55.37799,-18.24083 3.0493,-30.58811 17.97367,-20.923 56.36452,8.34468 z"
       id="path4787-1-3"
       inkscape:connector-curvature="0" />
    <path
       style="fill:#333333;fill-opacity:1;fill-rule:evenodd;stroke:none"
       d="m 691.44263,356.10037 -28.01981,18.10433 -55.37799,-18.24083 3.04929,-30.58812 17.97368,-20.923 56.36452,8.34469 z"
       id="path4787-2-0-2"
       inkscape:connector-curvature="0" />
    <path
       style="fill:#333333;fill-opacity:1;fill-rule:evenodd;stroke:none"
       d="m 688.96343,421.29346 -26.29094,8.45915 -40.62435,0.96907 -32.04701,-34.8907 20.82538,-23.85467 70.77278,10.54271 z"
       id="path4787-8-8-0"
       inkscape:connector-curvature="0"
       sodipodi:nodetypes="ccccccc" />
    <path
       style="fill:#333333;fill-opacity:1;fill-rule:evenodd;stroke:none"
       d="m 797.76522,348.05381 -26.29093,8.45917 -40.62436,0.96906 -32.047,-34.8907 20.82538,-23.85467 70.77278,10.54271 z"
       id="path4787-8-6-6-4"
       inkscape:connector-curvature="0"
       sodipodi:nodetypes="ccccccc" />
    <path
       style="fill:#333333;fill-opacity:1;fill-rule:evenodd;stroke:none"
       d="m 585.91808,335.97963 -18.32111,39.40237 -39.1364,-13.95696 -13.03842,-23.95114 5.29799,-39.47197 67.29159,15.22045 z"
       id="path4787-8-3-4-7"
       inkscape:connector-curvature="0"
       sodipodi:nodetypes="ccccccc" />
    <path
       style="fill:#333333;fill-opacity:1;fill-rule:evenodd;stroke:none"
       d="m 444.52446,395.56664 26.08571,-20.79452 56.91429,12.65753 0,30.73973 -15.80952,22.60274 -56.91429,-2.71233 z"
       id="path4787-1-99"
       inkscape:connector-curvature="0" />
    <path
       style="fill:#333333;fill-opacity:1;fill-rule:evenodd;stroke:none"
       d="m 435.02446,478.56667 26.08571,-20.7945 56.91429,12.6575 0,30.7397 -15.80952,22.6028 -56.91429,-2.7124 z"
       id="path4787-2-0-26"
       inkscape:connector-curvature="0" />
    <path
       style="fill:#333333;fill-opacity:1;fill-rule:evenodd;stroke:none"
       d="m 519.02446,441.12042 25.32214,-11.02543 40.32786,-4.9941 35.35,31.53968 -18.35635,25.8028 -71.46952,-3.4703 z"
       id="path4787-8-6-6-3"
       inkscape:connector-curvature="0"
       sodipodi:nodetypes="ccccccc" />
    <path
       style="fill:#333333;fill-opacity:1;fill-rule:evenodd;stroke:none"
       d="m 660.02446,466.12047 14.32214,-41.02548 40.32786,10.0059 15.35,22.53968 -1.35635,39.8028 -68.46952,-8.4703 z"
       id="path4787-8-3-4-74"
       inkscape:connector-curvature="0"
       sodipodi:nodetypes="ccccccc" />
    <path
       style="fill:#333333;fill-opacity:1;fill-rule:evenodd;stroke:none"
       d="m 592.52446,20.566644 26.08571,-20.79451982 56.91429,12.65752982 0,30.73973 -15.80952,22.60274 -56.91429,-2.71233 z"
       id="path4787-1-92"
       inkscape:connector-curvature="0" />
    <path
       style="fill:#333333;fill-opacity:1;fill-rule:evenodd;stroke:none"
       d="m 701.02446,81.566654 26.08571,-20.79452 56.91429,12.65753 0,30.739726 -15.80952,22.60274 -56.91429,-2.71233 z"
       id="path4787-2-0-84"
       inkscape:connector-curvature="0" />
    <path
       style="fill:#333333;fill-opacity:1;fill-rule:evenodd;stroke:none"
       d="m 697.02446,16.449184 25.32214,-11.0254198 40.32786,-4.99410002 35.35,31.53963982 -18.35635,25.80283 -71.46952,-3.47026 z"
       id="path4787-8-8-1"
       inkscape:connector-curvature="0"
       sodipodi:nodetypes="ccccccc" />
    <path
       style="fill:#333333;fill-opacity:1;fill-rule:evenodd;stroke:none"
       d="m 596.02446,100.12042 25.32214,-11.025426 40.32786,-4.9941 35.35,31.539636 -18.35635,25.80283 -71.46952,-3.47025 z"
       id="path4787-8-6-6-1"
       inkscape:connector-curvature="0"
       sodipodi:nodetypes="ccccccc" />
    <path
       style="fill:#333333;fill-opacity:1;fill-rule:evenodd;stroke:none"
       d="m 798.02446,89.120424 14.32214,-41.02543 40.32786,10.0059 15.35,22.53964 -1.35635,39.802826 -68.46952,-8.47025 z"
       id="path4787-8-3-4-4"
       inkscape:connector-curvature="0"
       sodipodi:nodetypes="ccccccc" />
    <path
       style="fill:#333333;fill-opacity:1;fill-rule:evenodd;stroke:none"
       d="m 123.34981,158.14871 20.45112,26.3558 -13.40178,56.74365 -30.73709,-0.40256 -22.39377,-16.10417 3.45744,-56.87389 z"
       id="path4787-1-9-7"
       inkscape:connector-curvature="0" />
    <path
       style="fill:#333333;fill-opacity:1;fill-rule:evenodd;stroke:none"
       d="M 51.93414,268.84057 72.38526,295.19636 58.98348,351.94001 28.24638,351.53745 5.85262,335.43328 9.31005,278.55939 z"
       id="path4787-2-0-1-1"
       inkscape:connector-curvature="0" />
    <path
       style="fill:#333333;fill-opacity:1;fill-rule:evenodd;stroke:none"
       d="m 126.0984,262.69367 10.69287,25.46436 4.46554,40.3898 -31.99987,34.93393 -25.56023,-18.69268 4.40592,-71.41795 z"
       id="path4787-8-8-6-0"
       inkscape:connector-curvature="0"
       sodipodi:nodetypes="ccccccc" />
    <path
       style="fill:#333333;fill-opacity:1;fill-rule:evenodd;stroke:none"
       d="m 43.75703,160.60659 10.69286,25.46436 4.46554,40.3898 L 26.91556,261.39468 1.35533,242.702 5.76124,171.28405 z"
       id="path4787-8-6-6-2-6"
       inkscape:connector-curvature="0"
       sodipodi:nodetypes="ccccccc" />
    <path
       style="fill:#333333;fill-opacity:1;fill-rule:evenodd;stroke:none"
       d="m 35.97993,383.70628 40.83436,14.85817 -10.53317,40.19336 -22.73873,15.05356 -39.78165,-1.8775 9.36618,-68.35275 z"
       id="path4787-8-3-4-8-1"
       inkscape:connector-curvature="0"
       sodipodi:nodetypes="ccccccc" />
    <path
       style="fill:#333333;fill-opacity:1;fill-rule:evenodd;stroke:none"
       d="m 100.69358,388.19005 26.08571,-20.79452 56.91429,12.65753 0,30.73973 -15.80952,22.60274 -56.91429,-2.71233 z"
       id="path4787-1-99-0"
       inkscape:connector-curvature="0" />
    <path
       style="fill:#333333;fill-opacity:1;fill-rule:evenodd;stroke:none"
       d="m 104.19358,467.74387 25.32214,-11.0255 40.32786,-4.9941 35.35,31.5397 -18.35635,25.8028 -71.46952,-3.4702 z"
       id="path4787-8-6-6-3-2"
       inkscape:connector-curvature="0"
       sodipodi:nodetypes="ccccccc" />
    <path
       style="fill:#333333;fill-opacity:1;fill-rule:evenodd;stroke:none"
       d="m 287.34981,142.14871 20.45112,26.3558 -13.40178,56.74365 -30.73709,-0.40256 -22.39377,-16.10417 3.45744,-56.87389 z"
       id="path4787-1-9-8"
       inkscape:connector-curvature="0" />
    <path
       style="fill:#333333;fill-opacity:1;fill-rule:evenodd;stroke:none"
       d="m 224.93414,249.84057 20.45112,26.35579 -13.40178,56.74365 -30.7371,-0.40256 -22.39375,-16.10417 3.45742,-56.87389 z"
       id="path4787-2-0-1-7"
       inkscape:connector-curvature="0" />
    <path
       style="fill:#333333;fill-opacity:1;fill-rule:evenodd;stroke:none"
       d="m 321.0984,243.69367 10.69287,25.46436 4.46554,40.3898 -31.99986,34.93393 -25.56024,-18.69268 4.40592,-71.41795 z"
       id="path4787-8-8-6-7"
       inkscape:connector-curvature="0"
       sodipodi:nodetypes="ccccccc" />
    <path
       style="fill:#333333;fill-opacity:1;fill-rule:evenodd;stroke:none"
       d="m 207.75702,144.60659 10.69287,25.46436 4.46554,40.3898 -31.99987,34.93393 -25.56023,-18.69268 4.40591,-71.41795 z"
       id="path4787-8-6-6-2-7"
       inkscape:connector-curvature="0"
       sodipodi:nodetypes="ccccccc" />
    <path
       style="fill:#333333;fill-opacity:1;fill-rule:evenodd;stroke:none"
       d="m 213.97993,356.70628 40.83436,14.85817 -10.53317,40.19336 -22.73873,15.05351 -39.78165,-1.87748 9.36618,-68.35272 z"
       id="path4787-8-3-4-8-2"
       inkscape:connector-curvature="0"
       sodipodi:nodetypes="ccccccc" />
    <path
       style="fill:#333333;fill-opacity:1;fill-rule:evenodd;stroke:none"
       d="m 275.69358,368.19005 26.08571,-20.79452 56.91429,12.65753 0,30.73973 -15.80952,22.60274 -56.91429,-2.71233 z"
       id="path4787-1-99-8"
       inkscape:connector-curvature="0" />
    <path
       style="fill:#333333;fill-opacity:1;fill-rule:evenodd;stroke:none"
       d="m 316.19358,480.74387 25.32214,-11.0255 40.32786,-4.9941 35.35,31.5397 -18.35635,25.8028 -71.46952,-3.4702 z"
       id="path4787-8-6-6-3-1"
       inkscape:connector-curvature="0"
       sodipodi:nodetypes="ccccccc" />
    <path
       style="fill:#333333;fill-opacity:1;fill-rule:evenodd;stroke:none"
       d="m 807.41574,206.23788 26.08571,-20.79452 56.9143,12.65753 0,30.73973 -15.80952,22.60274 -56.9143,-2.71233 z"
       id="path4787-2-0-8-5"
       inkscape:connector-curvature="0" />
    <path
       style="fill:#333333;fill-opacity:1;fill-rule:evenodd;stroke:none"
       d="m 803.41574,141.12041 25.32214,-11.02542 40.32787,-4.9941 35.35,31.53964 -18.35635,25.80283 -71.46952,-3.47026 z"
       id="path4787-8-8-67-2"
       inkscape:connector-curvature="0"
       sodipodi:nodetypes="ccccccc" />
    <path
       style="fill:#333333;fill-opacity:1;fill-rule:evenodd;stroke:none"
       d="m 906.41574,181.79165 14.32214,-41.02543 40.32787,10.0059 15.34999,22.53964 -1.35635,39.80283 -68.46951,-8.47025 z"
       id="path4787-8-3-4-5-1"
       inkscape:connector-curvature="0"
       sodipodi:nodetypes="ccccccc" />
    <path
       style="fill:#333333;fill-opacity:1;fill-rule:evenodd;stroke:none"
       d="m 998.74775,408.23363 -28.01981,18.10433 -55.378,-18.24083 3.0493,-30.58811 17.97368,-20.923 56.36452,8.34468 z"
       id="path4787-1-3-3"
       inkscape:connector-curvature="0" />
    <path
       style="fill:#333333;fill-opacity:1;fill-rule:evenodd;stroke:none"
       d="m 886.83391,334.7716 -28.0198,18.10433 -55.378,-18.24083 3.0493,-30.58812 17.97367,-20.923 56.36452,8.34469 z"
       id="path4787-2-0-2-1"
       inkscape:connector-curvature="0" />
    <path
       style="fill:#333333;fill-opacity:1;fill-rule:evenodd;stroke:none"
       d="m 884.35471,399.96469 -26.29094,8.45915 -40.62435,0.96907 -32.04701,-34.8907 20.82538,-23.85467 70.77278,10.54271 z"
       id="path4787-8-8-0-7"
       inkscape:connector-curvature="0"
       sodipodi:nodetypes="ccccccc" />
    <path
       style="fill:#333333;fill-opacity:1;fill-rule:evenodd;stroke:none"
       d="m 993.15651,326.72504 -26.29094,8.45917 -40.62435,0.96906 -32.04701,-34.8907 20.82538,-23.85467 70.77279,10.54271 z"
       id="path4787-8-6-6-4-5"
       inkscape:connector-curvature="0"
       sodipodi:nodetypes="ccccccc" />
    <path
       style="fill:#333333;fill-opacity:1;fill-rule:evenodd;stroke:none"
       d="m 865.41575,446.79165 14.32214,-41.02543 40.32786,10.0059 15.35,22.53964 -1.35635,39.80281 -68.46952,-8.4702 z"
       id="path4787-8-3-4-74-1"
       inkscape:connector-curvature="0"
       sodipodi:nodetypes="ccccccc" />
    <path
       style="fill:#333333;fill-opacity:1;fill-rule:evenodd;stroke:none"
       d="m 733.27446,167.45898 14.32214,-41.02543 40.32787,10.0059 15.34999,22.53964 -1.35635,39.80283 -68.46951,-8.47025 z"
       id="path4787-8-3-4-5-1-8"
       inkscape:connector-curvature="0"
       sodipodi:nodetypes="ccccccc" />
    <path
       style="fill:#333333;fill-opacity:1;fill-rule:evenodd;stroke:none"
       d="m 873.82882,35.284804 14.32214,-41.0254298 40.32786,10.0059 15.35,22.5396398 -1.35635,39.80283 -68.46952,-8.47025 z"
       id="path4787-8-3-4-41"
       inkscape:connector-curvature="0"
       sodipodi:nodetypes="ccccccc" />
    <path
       style="fill:#333333;fill-opacity:1;fill-rule:evenodd;stroke:none"
       d="m 868.32882,87.731024 26.08571,-20.79452 56.91429,12.65753 0,30.739726 -15.80952,22.60274 -56.91429,-2.71233 z"
       id="path4787-1-8-4"
       inkscape:connector-curvature="0" />
    <path
       style="fill:#333333;fill-opacity:1;fill-rule:evenodd;stroke:none"
       d="m 961.82882,78.613564 25.32214,-11.02542 40.32794,-4.9941 35.35,31.53964 -18.3564,25.802826 -71.46955,-3.47026 z"
       id="path4787-8-8-67-3"
       inkscape:connector-curvature="0"
       sodipodi:nodetypes="ccccccc" />
    <path
       style="fill:#333333;fill-opacity:1;fill-rule:evenodd;stroke:none"
       d="m 976.32882,144.73102 26.08578,-20.79452 56.9143,12.65753 0,30.73973 -15.8096,22.60274 -56.91429,-2.71233 z"
       id="path4787-1-92-4"
       inkscape:connector-curvature="0" />
    <path
       style="fill:#333333;fill-opacity:1;fill-rule:evenodd;stroke:none"
       d="m 743.82886,483.61357 25.3221,-11.0254 40.3279,-4.9941 35.35,31.5396 -18.3564,25.8028 -71.4695,-3.4702 z"
       id="path4787-8-8-1-0"
       inkscape:connector-curvature="0"
       sodipodi:nodetypes="ccccccc" />
    <path
       style="fill:#333333;fill-opacity:1;fill-rule:evenodd;stroke:none"
       d="m 960.82882,21.284804 25.32214,-11.02543 40.32794,-4.9940998 35.35,31.5396398 -18.3564,25.80283 -71.46955,-3.47025 z"
       id="path4787-8-6-6-1-4"
       inkscape:connector-curvature="0"
       sodipodi:nodetypes="ccccccc" />
    <path
       style="fill:#333333;fill-opacity:1;fill-rule:evenodd;stroke:none"
       d="m 585.22006,502.28477 25.3222,-11.0254 40.3279,-4.9941 35.35,31.5396 -18.3564,25.8029 -71.4695,-3.4703 z"
       id="path4787-8-8-67-2-1"
       inkscape:connector-curvature="0"
       sodipodi:nodetypes="ccccccc" />
    <path
       style="fill:#333333;fill-opacity:1;fill-rule:evenodd;stroke:none"
       d="m 971.22006,348.95603 14.3222,-41.02543 40.32794,10.0059 15.3499,22.53964 -1.3563,39.80283 -68.46954,-8.47025 z"
       id="path4787-8-3-4-5-1-0"
       inkscape:connector-curvature="0"
       sodipodi:nodetypes="ccccccc" />
    <path
       style="fill:#333333;fill-opacity:1;fill-rule:evenodd;stroke:none"
       d="m 980.07886,248.62336 14.3221,-41.02543 40.32794,10.0059 15.35,22.53964 -1.3564,39.80283 -68.46954,-8.47025 z"
       id="path4787-8-3-4-5-1-8-4"
       inkscape:connector-curvature="0"
       sodipodi:nodetypes="ccccccc" />
    <path
       style="fill:#666666;fill-opacity:1;fill-rule:evenodd;stroke:none"
       d="M 15.45684,24.076434 41.54255,3.2819142 98.45684,15.939454 l 0,30.73972 -15.80952,22.60274 -56.91429,-2.71233 z"
       id="path4787-4"
       inkscape:connector-curvature="0" />
    <path
       style="fill:#666666;fill-opacity:1;fill-rule:evenodd;stroke:none"
       d="m 123.95684,85.076444 26.08571,-20.79452 56.91429,12.65753 0,30.739726 -15.80952,22.60274 -56.91429,-2.71233 z"
       id="path4787-2-07"
       inkscape:connector-curvature="0" />
    <path
       style="fill:#666666;fill-opacity:1;fill-rule:evenodd;stroke:none"
       d="m 119.95684,19.958984 25.32214,-11.0254298 40.32786,-4.9941 35.35,31.5396398 -18.35635,25.80283 -71.46952,-3.47026 z"
       id="path4787-8-9"
       inkscape:connector-curvature="0"
       sodipodi:nodetypes="ccccccc" />
    <path
       style="fill:#666666;fill-opacity:1;fill-rule:evenodd;stroke:none"
       d="m 18.95684,103.63021 25.32214,-11.025426 40.32786,-4.9941 35.35,31.539636 -18.35635,25.80283 -71.46952,-3.47025 z"
       id="path4787-8-6-69"
       inkscape:connector-curvature="0"
       sodipodi:nodetypes="ccccccc" />
    <path
       style="fill:#666666;fill-opacity:1;fill-rule:evenodd;stroke:none"
       d="m 230.95684,94.630214 14.32214,-41.02543 40.32786,10.0059 15.35,22.53964 -1.35635,39.802826 -68.46952,-8.47025 z"
       id="path4787-8-3-9"
       inkscape:connector-curvature="0"
       sodipodi:nodetypes="ccccccc" />
    <path
       style="fill:#666666;fill-opacity:1;fill-rule:evenodd;stroke:none"
       d="m 311.70684,34.240824 26.08571,-20.79452 56.91429,12.65753 0,30.73973 -15.80952,22.60274 -56.91429,-2.71233 z"
       id="path4787-1-87"
       inkscape:connector-curvature="0" />
    <path
       style="fill:#666666;fill-opacity:1;fill-rule:evenodd;stroke:none"
       d="m 420.20684,95.240834 26.08571,-20.79452 56.91429,12.65753 0,30.739726 -15.80952,22.60274 -56.91429,-2.71233 z"
       id="path4787-2-0-9"
       inkscape:connector-curvature="0" />
    <path
       style="fill:#666666;fill-opacity:1;fill-rule:evenodd;stroke:none"
       d="m 416.20684,30.123364 25.32214,-11.02542 40.32786,-4.9941 35.35,31.53964 -18.35635,25.80283 -71.46952,-3.47026 z"
       id="path4787-8-8-9"
       inkscape:connector-curvature="0"
       sodipodi:nodetypes="ccccccc" />
    <path
       style="fill:#666666;fill-opacity:1;fill-rule:evenodd;stroke:none"
       d="m 315.20684,113.7946 25.32214,-11.02543 40.32786,-4.994096 35.35,31.539636 -18.35635,25.80283 -71.46952,-3.47025 z"
       id="path4787-8-6-6-0"
       inkscape:connector-curvature="0"
       sodipodi:nodetypes="ccccccc" />
    <path
       style="fill:#666666;fill-opacity:1;fill-rule:evenodd;stroke:none"
       d="m 527.20684,104.7946 14.32214,-41.025426 40.32786,10.0059 15.35,22.53964 -1.35635,39.802826 -68.46952,-8.47025 z"
       id="path4787-8-3-4-2"
       inkscape:connector-curvature="0"
       sodipodi:nodetypes="ccccccc" />
    <path
       style="fill:#666666;fill-opacity:1;fill-rule:evenodd;stroke:none"
       d="m 479.36307,168.19948 20.45112,26.3558 -13.40178,56.74365 -30.73709,-0.40256 -22.39377,-16.10417 3.45744,-56.87389 z"
       id="path4787-1-9-0"
       inkscape:connector-curvature="0" />
    <path
       style="fill:#666666;fill-opacity:1;fill-rule:evenodd;stroke:none"
       d="m 416.9474,275.89134 20.45112,26.35579 -13.40178,56.74365 -30.7371,-0.40256 -22.39376,-16.10417 3.45743,-56.87389 z"
       id="path4787-2-0-1-74"
       inkscape:connector-curvature="0" />
    <path
       style="fill:#666666;fill-opacity:1;fill-rule:evenodd;stroke:none"
       d="m 482.11166,272.74444 10.69287,25.46436 4.46554,40.3898 -31.99987,34.93393 -25.56023,-18.69268 4.40592,-71.41795 z"
       id="path4787-8-8-6-1"
       inkscape:connector-curvature="0"
       sodipodi:nodetypes="ccccccc" />
    <path
       style="fill:#666666;fill-opacity:1;fill-rule:evenodd;stroke:none"
       d="m 399.77028,170.65736 10.69287,25.46436 4.46554,40.3898 -31.99987,34.93393 -25.56023,-18.69268 4.40591,-71.41795 z"
       id="path4787-8-6-6-2-3"
       inkscape:connector-curvature="0"
       sodipodi:nodetypes="ccccccc" />
    <path
       style="fill:#666666;fill-opacity:1;fill-rule:evenodd;stroke:none"
       d="m 405.99319,382.75705 40.83436,14.85817 -10.53317,40.19336 -22.73873,15.05349 -39.78165,-1.87746 9.36618,-68.35272 z"
       id="path4787-8-3-4-8-0"
       inkscape:connector-curvature="0"
       sodipodi:nodetypes="ccccccc" />
    <path
       style="fill:#666666;fill-opacity:1;fill-rule:evenodd;stroke:none"
       d="m 515.70684,169.24082 26.08571,-20.79452 56.91429,12.65753 0,30.73973 -15.80952,22.60274 -56.91429,-2.71233 z"
       id="path4787-1-8-1"
       inkscape:connector-curvature="0" />
    <path
       style="fill:#666666;fill-opacity:1;fill-rule:evenodd;stroke:none"
       d="m 624.20684,230.24083 26.08571,-20.79452 56.91429,12.65753 0,30.73973 -15.80952,22.60274 -56.91429,-2.71233 z"
       id="path4787-2-0-8-6"
       inkscape:connector-curvature="0" />
    <path
       style="fill:#666666;fill-opacity:1;fill-rule:evenodd;stroke:none"
       d="m 620.20684,165.12336 25.32214,-11.02542 40.32786,-4.9941 35.35,31.53964 -18.35635,25.80283 -71.46952,-3.47026 z"
       id="path4787-8-8-67-39"
       inkscape:connector-curvature="0"
       sodipodi:nodetypes="ccccccc" />
    <path
       style="fill:#666666;fill-opacity:1;fill-rule:evenodd;stroke:none"
       d="m 519.20684,248.7946 25.32214,-11.02543 40.32786,-4.9941 35.35,31.53964 -18.35635,25.80283 -71.46952,-3.47025 z"
       id="path4787-8-6-6-7-4"
       inkscape:connector-curvature="0"
       sodipodi:nodetypes="ccccccc" />
    <path
       style="fill:#666666;fill-opacity:1;fill-rule:evenodd;stroke:none"
       d="m 731.20684,239.7946 14.32214,-41.02543 40.32786,10.0059 15.35,22.53964 -1.35635,39.80283 -68.46952,-8.47025 z"
       id="path4787-8-3-4-5-0"
       inkscape:connector-curvature="0"
       sodipodi:nodetypes="ccccccc" />
    <path
       style="fill:#666666;fill-opacity:1;fill-rule:evenodd;stroke:none"
       d="m 805.53884,430.23658 -28.01981,18.10433 -55.37799,-18.24083 3.0493,-30.58811 17.97367,-20.923 56.36452,8.34468 z"
       id="path4787-1-3-6"
       inkscape:connector-curvature="0" />
    <path
       style="fill:#666666;fill-opacity:1;fill-rule:evenodd;stroke:none"
       d="m 703.62501,358.77455 -28.01981,18.10433 -55.37799,-18.24083 3.04929,-30.58812 17.97368,-20.923 56.36452,8.34469 z"
       id="path4787-2-0-2-4"
       inkscape:connector-curvature="0" />
    <path
       style="fill:#666666;fill-opacity:1;fill-rule:evenodd;stroke:none"
       d="m 701.14581,423.96764 -26.29094,8.45915 -40.62435,0.96907 -32.04701,-34.8907 20.82538,-23.85467 70.77278,10.54271 z"
       id="path4787-8-8-0-73"
       inkscape:connector-curvature="0"
       sodipodi:nodetypes="ccccccc" />
    <path
       style="fill:#666666;fill-opacity:1;fill-rule:evenodd;stroke:none"
       d="m 809.9476,350.72799 -26.29093,8.45917 -40.62436,0.96906 -32.047,-34.8907 20.82538,-23.85467 70.77278,10.54271 z"
       id="path4787-8-6-6-4-7"
       inkscape:connector-curvature="0"
       sodipodi:nodetypes="ccccccc" />
    <path
       style="fill:#666666;fill-opacity:1;fill-rule:evenodd;stroke:none"
       d="m 598.10046,338.65381 -18.32111,39.40237 -39.1364,-13.95696 -13.03842,-23.95114 5.29799,-39.47197 67.29159,15.22045 z"
       id="path4787-8-3-4-7-2"
       inkscape:connector-curvature="0"
       sodipodi:nodetypes="ccccccc" />
    <path
       style="fill:#666666;fill-opacity:1;fill-rule:evenodd;stroke:none"
       d="m 456.70684,398.24082 26.08571,-20.79452 56.91429,12.65753 0,30.73973 -15.80952,22.60274 -56.91429,-2.71233 z"
       id="path4787-1-99-04"
       inkscape:connector-curvature="0" />
    <path
       style="fill:#666666;fill-opacity:1;fill-rule:evenodd;stroke:none"
       d="m 447.20684,481.24087 26.08571,-20.7946 56.91429,12.6576 0,30.7397 -15.80952,22.6027 -56.91429,-2.7123 z"
       id="path4787-2-0-26-0"
       inkscape:connector-curvature="0" />
    <path
       style="fill:#666666;fill-opacity:1;fill-rule:evenodd;stroke:none"
       d="m 531.20684,443.7946 25.32214,-11.02543 40.32786,-4.9941 35.35,31.5396 -18.35635,25.8029 -71.46952,-3.4703 z"
       id="path4787-8-6-6-3-11"
       inkscape:connector-curvature="0"
       sodipodi:nodetypes="ccccccc" />
    <path
       style="fill:#666666;fill-opacity:1;fill-rule:evenodd;stroke:none"
       d="m 672.20684,468.79457 14.32214,-41.0254 40.32786,10.0059 15.35,22.5396 -1.35635,39.8029 -68.46952,-8.4703 z"
       id="path4787-8-3-4-74-5"
       inkscape:connector-curvature="0"
       sodipodi:nodetypes="ccccccc" />
    <path
       style="fill:#666666;fill-opacity:1;fill-rule:evenodd;stroke:none"
       d="m 604.70684,23.240824 26.08571,-20.7945198 56.91429,12.6575298 0,30.73973 -15.80952,22.60274 -56.91429,-2.71233 z"
       id="path4787-1-92-2"
       inkscape:connector-curvature="0" />
    <path
       style="fill:#666666;fill-opacity:1;fill-rule:evenodd;stroke:none"
       d="m 713.20684,84.240834 26.08571,-20.79452 56.91429,12.65753 0,30.739726 -15.80952,22.60274 -56.91429,-2.71233 z"
       id="path4787-2-0-84-6"
       inkscape:connector-curvature="0" />
    <path
       style="fill:#666666;fill-opacity:1;fill-rule:evenodd;stroke:none"
       d="m 709.20684,19.123364 25.32214,-11.0254198 40.32786,-4.9941 35.35,31.5396398 -18.35635,25.80283 -71.46952,-3.47026 z"
       id="path4787-8-8-1-09"
       inkscape:connector-curvature="0"
       sodipodi:nodetypes="ccccccc" />
    <path
       style="fill:#666666;fill-opacity:1;fill-rule:evenodd;stroke:none"
       d="m 608.20684,102.7946 25.32214,-11.025426 40.32786,-4.9941 35.35,31.539636 -18.35635,25.80283 -71.46952,-3.47025 z"
       id="path4787-8-6-6-1-8"
       inkscape:connector-curvature="0"
       sodipodi:nodetypes="ccccccc" />
    <path
       style="fill:#666666;fill-opacity:1;fill-rule:evenodd;stroke:none"
       d="m 810.20684,91.794604 14.32214,-41.02543 40.32786,10.0059 15.35,22.53964 -1.35635,39.802826 -68.46952,-8.47025 z"
       id="path4787-8-3-4-4-2"
       inkscape:connector-curvature="0"
       sodipodi:nodetypes="ccccccc" />
    <path
       style="fill:#666666;fill-opacity:1;fill-rule:evenodd;stroke:none"
       d="m 135.53219,160.82289 20.45112,26.3558 -13.40178,56.74365 -30.73709,-0.40256 -22.39377,-16.10417 3.45744,-56.87389 z"
       id="path4787-1-9-7-4"
       inkscape:connector-curvature="0" />
    <path
       style="fill:#666666;fill-opacity:1;fill-rule:evenodd;stroke:none"
       d="M 64.11652,271.51475 84.56764,297.87054 71.16586,354.61419 40.42876,354.21163 18.035,338.10746 21.49243,281.23357 z"
       id="path4787-2-0-1-1-0"
       inkscape:connector-curvature="0" />
    <path
       style="fill:#666666;fill-opacity:1;fill-rule:evenodd;stroke:none"
       d="m 138.28078,265.36785 10.69287,25.46436 4.46554,40.3898 -31.99987,34.93393 -25.56023,-18.69268 4.40592,-71.41795 z"
       id="path4787-8-8-6-0-5"
       inkscape:connector-curvature="0"
       sodipodi:nodetypes="ccccccc" />
    <path
       style="fill:#666666;fill-opacity:1;fill-rule:evenodd;stroke:none"
       d="m 55.93941,163.28077 10.69286,25.46436 4.46554,40.3898 -31.99987,34.93393 -25.56023,-18.69268 4.40591,-71.41795 z"
       id="path4787-8-6-6-2-6-5"
       inkscape:connector-curvature="0"
       sodipodi:nodetypes="ccccccc" />
    <path
       style="fill:#666666;fill-opacity:1;fill-rule:evenodd;stroke:none"
       d="M 48.16231,386.38046 88.99667,401.23863 78.4635,441.43199 55.72477,456.48547 15.94312,454.60807 25.3093,386.2553 z"
       id="path4787-8-3-4-8-1-6"
       inkscape:connector-curvature="0"
       sodipodi:nodetypes="ccccccc" />
    <path
       style="fill:#666666;fill-opacity:1;fill-rule:evenodd;stroke:none"
       d="m 112.87596,390.86423 26.08571,-20.79452 56.91429,12.65753 0,30.73973 -15.80952,22.60274 -56.91429,-2.71233 z"
       id="path4787-1-99-0-1"
       inkscape:connector-curvature="0" />
    <path
       style="fill:#666666;fill-opacity:1;fill-rule:evenodd;stroke:none"
       d="m 116.37596,470.41797 25.32214,-11.0254 40.32786,-4.9941 35.35,31.5397 -18.35635,25.8028 -71.46952,-3.4703 z"
       id="path4787-8-6-6-3-2-7"
       inkscape:connector-curvature="0"
       sodipodi:nodetypes="ccccccc" />
    <path
       style="fill:#666666;fill-opacity:1;fill-rule:evenodd;stroke:none"
       d="m 299.53219,144.82289 20.45112,26.3558 -13.40178,56.74365 -30.73709,-0.40256 -22.39377,-16.10417 3.45744,-56.87389 z"
       id="path4787-1-9-8-7"
       inkscape:connector-curvature="0" />
    <path
       style="fill:#666666;fill-opacity:1;fill-rule:evenodd;stroke:none"
       d="m 237.11652,252.51475 20.45112,26.35579 -13.40178,56.74365 -30.7371,-0.40256 -22.39375,-16.10417 3.45742,-56.87389 z"
       id="path4787-2-0-1-7-3"
       inkscape:connector-curvature="0" />
    <path
       style="fill:#666666;fill-opacity:1;fill-rule:evenodd;stroke:none"
       d="m 333.28078,246.36785 10.69287,25.46436 4.46554,40.3898 -31.99986,34.93393 -25.56024,-18.69268 4.40592,-71.41795 z"
       id="path4787-8-8-6-7-5"
       inkscape:connector-curvature="0"
       sodipodi:nodetypes="ccccccc" />
    <path
       style="fill:#666666;fill-opacity:1;fill-rule:evenodd;stroke:none"
       d="m 219.9394,147.28077 10.69287,25.46436 4.46554,40.3898 -31.99987,34.93393 -25.56023,-18.69268 4.40591,-71.41795 z"
       id="path4787-8-6-6-2-7-1"
       inkscape:connector-curvature="0"
       sodipodi:nodetypes="ccccccc" />
    <path
       style="fill:#666666;fill-opacity:1;fill-rule:evenodd;stroke:none"
       d="m 226.16231,359.38046 40.83436,14.85817 -10.53317,40.19336 -22.73873,15.05351 -39.78165,-1.87748 9.36618,-68.35272 z"
       id="path4787-8-3-4-8-2-6"
       inkscape:connector-curvature="0"
       sodipodi:nodetypes="ccccccc" />
    <path
       style="fill:#666666;fill-opacity:1;fill-rule:evenodd;stroke:none"
       d="m 287.87596,370.86423 26.08571,-20.79452 56.91429,12.65753 0,30.73973 -15.80952,22.60274 -56.91429,-2.71233 z"
       id="path4787-1-99-8-9"
       inkscape:connector-curvature="0" />
    <path
       style="fill:#666666;fill-opacity:1;fill-rule:evenodd;stroke:none"
       d="m 328.37596,483.41797 25.32214,-11.0254 40.32786,-4.9941 35.35,31.5397 -18.35635,25.8028 -71.46952,-3.4703 z"
       id="path4787-8-6-6-3-1-7"
       inkscape:connector-curvature="0"
       sodipodi:nodetypes="ccccccc" />
    <path
       style="fill:#666666;fill-opacity:1;fill-rule:evenodd;stroke:none"
       d="m 819.59812,208.91206 26.08571,-20.79452 56.9143,12.65753 0,30.73973 -15.80952,22.60274 -56.9143,-2.71233 z"
       id="path4787-2-0-8-5-4"
       inkscape:connector-curvature="0" />
    <path
       style="fill:#666666;fill-opacity:1;fill-rule:evenodd;stroke:none"
       d="m 815.59812,143.79459 25.32214,-11.02542 40.32787,-4.9941 35.35,31.53964 -18.35635,25.80283 -71.46952,-3.47026 z"
       id="path4787-8-8-67-2-6"
       inkscape:connector-curvature="0"
       sodipodi:nodetypes="ccccccc" />
    <path
       style="fill:#666666;fill-opacity:1;fill-rule:evenodd;stroke:none"
       d="m 918.59812,184.46583 14.32214,-41.02543 40.32787,10.0059 15.34999,22.53964 -1.35635,39.80283 -68.46951,-8.47025 z"
       id="path4787-8-3-4-5-1-6"
       inkscape:connector-curvature="0"
       sodipodi:nodetypes="ccccccc" />
    <path
       style="fill:#666666;fill-opacity:1;fill-rule:evenodd;stroke:none"
       d="m 1010.9302,410.90781 -28.01988,18.10433 -55.378,-18.24083 3.0493,-30.58811 17.97368,-20.923 56.3646,8.34468 z"
       id="path4787-1-3-3-9"
       inkscape:connector-curvature="0" />
    <path
       style="fill:#666666;fill-opacity:1;fill-rule:evenodd;stroke:none"
       d="m 899.01629,337.44578 -28.0198,18.10433 -55.378,-18.24083 3.0493,-30.58812 17.97367,-20.923 56.36452,8.34469 z"
       id="path4787-2-0-2-1-5"
       inkscape:connector-curvature="0" />
    <path
       style="fill:#666666;fill-opacity:1;fill-rule:evenodd;stroke:none"
       d="m 896.53709,402.63887 -26.29094,8.45915 -40.62435,0.96907 -32.04701,-34.8907 20.82538,-23.85467 70.77278,10.54271 z"
       id="path4787-8-8-0-7-5"
       inkscape:connector-curvature="0"
       sodipodi:nodetypes="ccccccc" />
    <path
       style="fill:#666666;fill-opacity:1;fill-rule:evenodd;stroke:none"
       d="m 1005.3389,329.39922 -26.29095,8.45917 -40.62435,0.96906 -32.04701,-34.8907 20.82538,-23.85467 70.77279,10.54271 z"
       id="path4787-8-6-6-4-5-1"
       inkscape:connector-curvature="0"
       sodipodi:nodetypes="ccccccc" />
    <path
       style="fill:#666666;fill-opacity:1;fill-rule:evenodd;stroke:none"
       d="m 877.59813,449.46583 14.32214,-41.02543 40.32786,10.0059 15.35,22.53964 -1.35635,39.80283 -68.46952,-8.4702 z"
       id="path4787-8-3-4-74-1-6"
       inkscape:connector-curvature="0"
       sodipodi:nodetypes="ccccccc" />
    <path
       style="fill:#666666;fill-opacity:1;fill-rule:evenodd;stroke:none"
       d="m 745.45684,170.13316 14.32214,-41.02543 40.32787,10.0059 15.34999,22.53964 -1.35635,39.80283 -68.46951,-8.47025 z"
       id="path4787-8-3-4-5-1-8-1"
       inkscape:connector-curvature="0"
       sodipodi:nodetypes="ccccccc" />
    <path
       style="fill:#666666;fill-opacity:1;fill-rule:evenodd;stroke:none"
       d="m 886.0112,37.958984 14.32214,-41.0254298 40.32786,10.0059 15.35,22.5396398 -1.35635,39.80283 -68.46952,-8.47025 z"
       id="path4787-8-3-4-41-5"
       inkscape:connector-curvature="0"
       sodipodi:nodetypes="ccccccc" />
    <path
       style="fill:#666666;fill-opacity:1;fill-rule:evenodd;stroke:none"
       d="m 880.5112,90.405204 26.08571,-20.79452 56.91429,12.65753 0,30.739726 -15.80952,22.60274 -56.91429,-2.71233 z"
       id="path4787-1-8-4-8"
       inkscape:connector-curvature="0" />
    <path
       style="fill:#666666;fill-opacity:1;fill-rule:evenodd;stroke:none"
       d="m 974.0112,81.287744 25.32216,-11.02542 40.32794,-4.9941 35.35,31.53964 -18.3564,25.802826 -71.46957,-3.47026 z"
       id="path4787-8-8-67-3-1"
       inkscape:connector-curvature="0"
       sodipodi:nodetypes="ccccccc" />
    <path
       style="fill:#666666;fill-opacity:1;fill-rule:evenodd;stroke:none"
       d="m 988.5112,147.4052 26.0857,-20.79452 56.9144,12.65753 0,30.73973 -15.8096,22.60274 -56.91431,-2.71233 z"
       id="path4787-1-92-4-4"
       inkscape:connector-curvature="0" />
    <path
       style="fill:#666666;fill-opacity:1;fill-rule:evenodd;stroke:none"
       d="m 756.01124,486.28777 25.3221,-11.0254 40.3279,-4.9941 35.35,31.5396 -18.3564,25.8028 -71.4695,-3.4702 z"
       id="path4787-8-8-1-0-5"
       inkscape:connector-curvature="0"
       sodipodi:nodetypes="ccccccc" />
    <path
       style="fill:#666666;fill-opacity:1;fill-rule:evenodd;stroke:none"
       d="m 973.0112,23.958984 25.32214,-11.02543 40.32796,-4.9940998 35.35,31.5396398 -18.3564,25.80283 -71.46957,-3.47025 z"
       id="path4787-8-6-6-1-4-9"
       inkscape:connector-curvature="0"
       sodipodi:nodetypes="ccccccc" />
    <path
       style="fill:#666666;fill-opacity:1;fill-rule:evenodd;stroke:none"
       d="m 597.40244,504.95897 25.3222,-11.0254 40.3279,-4.9941 35.35,31.5396 -18.3564,25.8029 -71.4695,-3.4703 z"
       id="path4787-8-8-67-2-1-3"
       inkscape:connector-curvature="0"
       sodipodi:nodetypes="ccccccc" />
    <path
       style="fill:#666666;fill-opacity:1;fill-rule:evenodd;stroke:none"
       d="m 983.40244,351.63021 14.3222,-41.02543 40.32786,10.0059 15.35,22.53964 -1.3563,39.80283 -68.46956,-8.47025 z"
       id="path4787-8-3-4-5-1-0-4"
       inkscape:connector-curvature="0"
       sodipodi:nodetypes="ccccccc" />
    <path
       style="fill:#666666;fill-opacity:1;fill-rule:evenodd;stroke:none"
       d="m 992.26124,251.29754 14.32216,-41.02543 40.3278,10.0059 15.3501,22.53964 -1.3564,39.80283 -68.46956,-8.47025 z"
       id="path4787-8-3-4-5-1-8-4-1"
       inkscape:connector-curvature="0"
       sodipodi:nodetypes="ccccccc" />
    <path
       style="fill:#260000;fill-opacity:1;stroke:none"
       d="m 1012.2386,-94.354375 c 0,0 158.594,34.345169 18.1828,102.0253898 -6.061,-1.0101505 -41.41628,-4.0406006 -41.41628,-4.0406006 0,0 133.34018,-38.3858002 23.23348,-97.9847892 z"
       id="path4260-4"
       inkscape:connector-curvature="0" />
    <path
       style="fill:#333333;fill-opacity:1;fill-rule:evenodd;stroke:none"
       d="M 882.00654,23.836703 905.95488,-12.421892 942.59604,7.1710117 951.9479,32.78743 940.86901,71.041354 876.56938,46.033835 z"
       id="path4787-8-3-4-41-8"
       inkscape:connector-curvature="0"
       sodipodi:nodetypes="ccccccc" />
    <path
       style="fill:#666666;fill-opacity:1;fill-rule:evenodd;stroke:none"
       d="m 893.16072,29.417607 23.94833,-36.258595 36.64118,19.592905 9.35184,25.616417 -11.07889,38.253924 -64.29961,-25.007518 z"
       id="path4787-8-3-4-41-5-8"
       inkscape:connector-curvature="0"
       sodipodi:nodetypes="ccccccc" />
    <path
       style="fill:#260000;fill-opacity:1;stroke:none"
       d="m 897.33684,55.225132 c 0,0 -210.30324,-123.842576 2.31852,-111.65209 212.62164,12.190449 -2.31852,111.65209 -2.31852,111.65209 z"
       id="path4234-2"
       inkscape:connector-curvature="0"
       sodipodi:nodetypes="csc" />
    <path
       style="fill:#3c0000;fill-opacity:1;stroke:none"
       d="m 909.61287,61.506476 c 0,0 -210.30315,-123.842542 2.31862,-111.652065 212.62151,12.190427 -2.31862,111.652065 -2.31862,111.652065 z"
       id="path4234-9-4"
       inkscape:connector-curvature="0"
       sodipodi:nodetypes="csc" />
  </g>
  <g
     inkscape:groupmode="layer"
     id="layer2"
     inkscape:label="Layer">
    <path
       style="fill:#260000;fill-opacity:1;stroke:none"
       d="m 0.04041601,496.39327 c 0,0 64.25520499,-315.16759 415.71170399,-226.27417 351.4565,88.89343 468.28415,-41.41625 468.28415,-41.41625 l 159.06863,37.50268 c 0,0 79.856,322.85714 -12.3914,310 C 938.46613,563.34839 -55.83919,715.15245 0.04041601,496.39327 z"
       id="path3261"
       inkscape:connector-curvature="0" />
    <path
       style="fill:#260000;fill-opacity:1;stroke:none"
       d="m 900,26.205531 c 0,0 -167.14286,285.714289 184.2857,255.714289 C 1481.4285,60.491251 945.71429,-46.651612 945.71429,-46.651612 z"
       id="path4031"
       inkscape:connector-curvature="0" />
    <path
       style="fill:#3c0000;fill-opacity:1;stroke:none"
       d="m 13.540571,501.87585 c 0,0 63.744027,-315.16759 412.404509,-226.27417 348.66047,88.89343 464.55874,-41.41625 464.55874,-41.41625 l 157.80308,37.50268 c 0,0 79.2207,322.85714 -12.2928,310 C 944.5006,568.83097 -41.894487,720.63503 13.540571,501.87585 z"
       id="path3261-1"
       inkscape:connector-curvature="0" />
    <path
       style="fill:#260000;fill-opacity:1;stroke:none"
       d="M 450.61275,273.02086 249.50768,373.76228 c 0,0 220.98167,96.81642 198.76657,116.44137 0,0 224.4894,-49.71653 247.8737,-26.1666 l 125.1061,-78.4998 -97.0449,-66.72484 c 1.1692,-18.31661 -273.5964,-45.79155 -273.5964,-45.79155 z"
       id="path4155"
       inkscape:connector-curvature="0" />
    <path
       style="fill:#3c0000;fill-opacity:1;stroke:none"
       d="m 460.67915,273.52593 -193.99887,95.58721 c 0,0 213.17317,91.86302 191.74307,110.4839 0,0 216.5569,-47.17289 239.1149,-24.82784 l 120.6853,-74.48353 -93.6157,-63.31101 c 1.1279,-17.37949 -263.9287,-43.44873 -263.9287,-43.44873 z"
       id="path4155-4"
       inkscape:connector-curvature="0" />
    <path
       style="fill:#3c0000;fill-opacity:1;stroke:none"
       d="m 912.06013,30.480962 c 0,0 -167.14286,285.714288 184.28567,255.714288 C 1493.4886,64.766682 957.77442,-42.376181 957.77442,-42.376181 z"
       id="path4031-0"
       inkscape:connector-curvature="0" />
    <path
       style="fill:#260000;fill-opacity:1;stroke:none"
       id="path4226"
       d="m 977.66065,82.789052 c 6.31187,-4.871207 13.29464,-8.903536 20.46158,-12.37037 2.22837,-1.032012 4.63557,-1.209095 7.04837,-1.300609 2.729,-0.161375 5.4235,0.02055 8.1289,0.352599 3.139,0.729005 6.3307,1.135705 9.4337,2.00842 3.6428,1.189942 7.2795,2.382641 10.8503,3.784957 2.6649,1.000457 5.3028,2.101897 7.8402,3.395115 2.4505,1.224188 4.9612,1.939701 7.6675,2.291041 3.3438,0.332613 6.708,0.320196 10.0644,0.34557 4.2291,0.01391 8.4583,0.01004 12.6874,0.0026 4.5833,-0.01255 9.1522,-0.512228 13.7272,-0.776961 4.0368,-0.222728 7.7081,-1.851948 11.3717,-3.399932 -0.9293,0.918776 4.2905,-2.307419 3.2314,-1.705772 -3.7581,2.135053 -14.9875,8.619002 -11.2393,6.466439 5.0401,-2.894587 10.961,-6.618559 16.5521,-9.456152 6.9129,-3.96402 -16.2434,9.505074 -9.5542,5.463676 0,0 13.9572,-5.361613 13.9572,-5.361613 l 0,0 c -5.3913,3.006369 -10.5931,6.347434 -16.0402,9.252612 -0.8069,0.447282 -3.2124,1.816038 -2.4149,1.35225 3.7887,-2.203313 15.1743,-8.77967 11.3751,-6.594488 -5.7051,3.281384 -11.3682,7.176326 -17.522,9.77295 -3.7401,1.527072 -7.5497,2.866976 -11.6391,2.978575 -4.5866,0.26959 -9.1688,0.732119 -13.7669,0.701765 -4.2483,0.0042 -8.4966,0.02505 -12.7449,0.02646 -3.4115,-0.01228 -6.8334,-0.0558 -10.2217,-0.496031 -2.8037,-0.477161 -5.4305,-1.366578 -7.9777,-2.642215 -2.5146,-1.214835 -5.0683,-2.352555 -7.6821,-3.338456 -3.5409,-1.360139 -7.124,-2.577514 -10.768,-3.632315 -3.0822,-0.734999 -6.2177,-1.251726 -9.3339,-1.817919 -2.6703,-0.267474 -5.34747,-0.271874 -8.02659,-0.110654 -2.32111,0.19447 -4.58149,0.62756 -6.64625,1.769945 -5.23966,2.844205 -0.14559,0.09306 10.226,-5.9532 0.45001,-0.262336 -0.92645,0.477803 -1.37412,0.744113 -1.32258,0.786786 -2.49961,1.765824 -3.76535,2.63476 0,0 -13.90584,5.612833 -13.90584,5.612833 z"
       inkscape:connector-curvature="0" />
    <path
       style="fill:#260000;fill-opacity:1;stroke:none"
       id="path4230"
       d="m 1181.1601,92.949266 c 6.5682,-0.377115 13.2057,-1.838803 19.6766,-0.321798 5.0011,2.132581 5.7483,6.528199 6.2244,10.964632 0.1668,2.98728 0.1075,1.49919 0.18,4.46423 0,0 -29.2592,13.26575 -29.2592,13.26575 l 0,0 c -0.022,-2.86454 0,-1.43416 -0.081,-4.2911 -0.2248,-3.08586 0.022,-6.7768 -4.0253,-7.74095 -6.3642,-0.68843 -12.7767,0.53273 -19.1011,1.10821 0,0 26.3861,-17.448974 26.3861,-17.448974 z"
       inkscape:connector-curvature="0" />
    <path
       style="fill:#260000;fill-opacity:1;stroke:none"
       id="path4232"
       d="m 1147.6429,176.77174 c 4.2372,1.4737 8.6491,2.28694 12.9665,3.47148 4.3468,1.01276 8.7573,1.79892 13.1749,2.44345 3.1045,0.71286 6.241,1.2125 9.4151,1.46381 2.4343,0.15726 4.8749,0.14088 7.3129,0.14894 2.8027,0.0755 5.5652,0.0215 8.3402,-0.36754 2.6442,-0.14842 5.2063,-0.6818 7.7984,-1.1699 2.4994,-0.44909 4.9736,-1.01732 7.4376,-1.63522 2.7984,-0.93237 5.6085,-1.84491 8.4281,-2.71732 2.5944,-0.80424 5.2911,-1.48949 7.7369,-2.68945 1.3723,-0.61357 0.6857,-0.33715 2.0581,-0.83369 0,0 -11.7796,9.24786 -11.7796,9.24786 l 0,0 c -1.314,0.55343 -0.6454,0.26902 -2.0057,0.85379 -2.5611,0.94635 -5.1589,1.79138 -7.7849,2.53956 -2.8305,0.91171 -5.6545,1.85039 -8.5148,2.66436 -2.4859,0.60487 -4.9935,1.12894 -7.5101,1.5879 -2.5929,0.49643 -5.2031,0.79077 -7.828,1.0672 -2.8144,0.28942 -5.6366,0.23351 -8.4629,0.22946 -2.4651,-0.004 -4.9356,-0.0142 -7.3906,-0.26417 -3.1557,-0.354 -6.2641,-0.96006 -9.3729,-1.59975 -4.4298,-0.72555 -8.8601,-1.51948 -13.2148,-2.61193 -4.4098,-1.16041 -8.8792,-2.0896 -13.2324,-3.46353 0,0 12.428,-8.36531 12.428,-8.36531 z"
       inkscape:connector-curvature="0" />
    <path
       style="fill:#260000;fill-opacity:1;stroke:none"
       d="m 897.11605,67.694165 c 0,0 -234.25694,-68.46967022 -25.14136,-108.809353 209.11551,-40.339683 25.14136,108.809353 25.14136,108.809353 z"
       id="path4234"
       inkscape:connector-curvature="0"
       sodipodi:nodetypes="csc" />
    <path
       style="fill:#3c0000;fill-opacity:1;stroke:none"
       d="m 910.55792,70.772191 c 0,0 -234.25694,-68.4696721 -25.14137,-108.809355 209.11545,-40.339683 25.14137,108.809355 25.14137,108.809355 z"
       id="path4234-9"
       inkscape:connector-curvature="0"
       sodipodi:nodetypes="csc" />
    <path
       style="fill:#260000;fill-opacity:1;stroke:none"
       d="m 974.79723,-92.149282 c 0,0 158.59407,34.345176 18.18287,102.0253973 -6.0611,-1.010153 -41.41641,-4.04061 -41.41641,-4.04061 0,0 133.34031,-38.3857973 23.23354,-97.9847873 z"
       id="path4260"
       inkscape:connector-curvature="0" />
  </g>
  <g
     inkscape:groupmode="layer"
     id="layer3"
     inkscape:label="lil"
     sodipodi:insensitive="true">
    <path
       style="fill:#800000;fill-opacity:1;stroke:#b90400;stroke-width:0.47653842px;stroke-linecap:butt;stroke-linejoin:miter;stroke-opacity:1;display:inline"
       d="m 527.48112,630.96606 c -37.95314,15.81327 -53.67659,-35.04563 -53.67659,-35.04563 0,0 28.73596,25.64314 48.25472,22.65144 13.55469,7.69294 5.42187,12.39419 5.42187,12.39419 z"
       id="path4779-3"
       inkscape:connector-curvature="0" />
    <path
       style="fill:#b90400;fill-opacity:1;stroke:#b90400;stroke-width:0.39613712px;stroke-linecap:butt;stroke-linejoin:miter;stroke-opacity:1;display:inline"
       d="m 522.14841,629.77366 c -31.04466,13.35913 -43.90603,-29.60668 -43.90603,-29.60668 0,0 23.50526,21.66342 39.47109,19.13603 11.08737,6.49903 4.43494,10.47065 4.43494,10.47065 z"
       id="path4779-2-0"
       inkscape:connector-curvature="0" />
    <ellipse
       transform="matrix(0.45939891,0,0,0.42677041,463.68715,420.42931)"
       style="fill:#800000;fill-opacity:1;display:inline"
       id="path4291"
       cx="258.09399"
       cy="465.81711"
       rx="140.71425"
       ry="114.19773"
       sodipodi:cx="258.09399"
       sodipodi:cy="465.81711"
       sodipodi:rx="140.71425"
       sodipodi:ry="114.19773" />
    <ellipse
       transform="matrix(0.45939891,0,0,0.42677041,463.68715,420.42931)"
       style="fill:#b90400;fill-opacity:1;display:inline"
       id="path4291-9"
       cx="254.86623"
       cy="468.28967"
       rx="133.28963"
       ry="110.30864"
       sodipodi:cx="254.86623"
       sodipodi:cy="468.28967"
       sodipodi:rx="133.28963"
       sodipodi:ry="110.30864" />
    <ellipse
       transform="matrix(-0.13047633,0.44048075,-0.40919589,-0.12120935,783.20572,624.45073)"
       sodipodi:ry="73.539101"
       sodipodi:rx="75.660423"
       sodipodi:cy="529.81024"
       sodipodi:cx="181.72644"
       style="fill:#800000;fill-opacity:1;display:inline"
       id="path4208"
       cx="181.72644"
       cy="529.81024"
       rx="75.660423"
       ry="73.539101" />
    <ellipse
       transform="matrix(-0.13047633,0.44048075,-0.40919589,-0.12120935,783.20572,624.45073)"
       sodipodi:ry="37.476658"
       sodipodi:rx="53.740112"
       sodipodi:cy="595.57129"
       sodipodi:cx="211.42493"
       style="fill:#800000;fill-opacity:1;display:inline"
       id="path4210"
       cx="211.42493"
       cy="595.57129"
       rx="53.740112"
       ry="37.476658" />
    <ellipse
       transform="matrix(-0.13047633,0.44048075,-0.40919589,-0.12120935,783.20572,624.45073)"
       sodipodi:ry="70.357117"
       sodipodi:rx="73.185547"
       sodipodi:cy="527.33551"
       sodipodi:cx="179.95868"
       style="fill:#b90400;fill-opacity:1;display:inline"
       id="path4208-2"
       cx="179.95868"
       cy="527.33551"
       rx="73.185547"
       ry="70.357117" />
    <ellipse
       transform="matrix(-0.13047633,0.44048075,-0.40919589,-0.12120935,783.20572,624.45073)"
       sodipodi:ry="31.466249"
       sodipodi:rx="48.790363"
       sodipodi:cy="595.9248"
       sodipodi:cx="209.3036"
       style="fill:#b90400;fill-opacity:1;display:inline"
       id="path4210-6"
       cx="209.3036"
       cy="595.9248"
       rx="48.790363"
       ry="31.466249" />
    <ellipse
       transform="matrix(-0.00320718,-0.45938771,0.42676001,-0.00297938,412.46809,787.8132)"
       sodipodi:ry="65.053818"
       sodipodi:rx="61.164734"
       sodipodi:cy="506.4758"
       sodipodi:cx="318.55161"
       style="fill:#800000;fill-opacity:1;display:inline"
       id="path3399"
       cx="318.55161"
       cy="506.4758"
       rx="61.164734"
       ry="65.053818" />
    <ellipse
       transform="matrix(-0.00320718,-0.45938771,0.42676001,-0.00297938,412.46809,787.8132)"
       sodipodi:ry="61.871841"
       sodipodi:rx="51.26524"
       sodipodi:cy="554.9126"
       sodipodi:cx="306.53079"
       style="fill:#800000;fill-opacity:1;display:inline"
       id="path3401"
       cx="306.53079"
       cy="554.9126"
       rx="51.26524"
       ry="61.871841" />
    <ellipse
       transform="matrix(-0.00320718,-0.45938771,0.42676001,-0.00297938,412.46809,787.8132)"
       sodipodi:ry="37.123104"
       sodipodi:rx="53.033009"
       sodipodi:cy="597.33899"
       sodipodi:cx="334.46149"
       style="fill:#800000;fill-opacity:1;display:inline"
       id="path3403"
       cx="334.46149"
       cy="597.33899"
       rx="53.033009"
       ry="37.123104" />
    <ellipse
       transform="matrix(-0.00320718,-0.45938771,0.42676001,-0.00297938,412.46809,787.8132)"
       sodipodi:ry="64.577232"
       sodipodi:rx="58.875145"
       sodipodi:cy="504.23141"
       sodipodi:cx="318.6575"
       style="fill:#b90400;fill-opacity:1;display:inline"
       id="path3399-9"
       cx="318.6575"
       cy="504.23141"
       rx="58.875145"
       ry="64.577232" />
    <ellipse
       transform="matrix(-0.00320718,-0.45938771,0.42676001,-0.00297938,412.46809,787.8132)"
       sodipodi:ry="61.418568"
       sodipodi:rx="49.346218"
       sodipodi:cy="552.31335"
       sodipodi:cx="307.08667"
       style="fill:#b90400;fill-opacity:1;display:inline"
       id="path3401-5"
       cx="307.08667"
       cy="552.31335"
       rx="49.346218"
       ry="61.418568" />
    <ellipse
       transform="matrix(-0.00320718,-0.45938771,0.42676001,-0.00297938,412.46809,787.8132)"
       sodipodi:ry="36.851139"
       sodipodi:rx="51.047817"
       sodipodi:cy="595.8432"
       sodipodi:cx="328.31494"
       style="fill:#b90400;fill-opacity:1;display:inline"
       id="path3403-4"
       cx="328.31494"
       cy="595.8432"
       rx="51.047817"
       ry="36.851139" />
    <ellipse
       style="fill:#9b2d27;fill-opacity:0.56078384;stroke:none;display:inline"
       id="path4937"
       transform="matrix(0.84482908,0.44751601,-0.66806925,1.3617225,401.02031,189.32143)"
       cx="296.78571"
       cy="122.36218"
       rx="14.642858"
       ry="15"
       sodipodi:cx="296.78571"
       sodipodi:cy="122.36218"
       sodipodi:rx="14.642858"
       sodipodi:ry="15" />
    <ellipse
       style="fill:#800000;fill-opacity:1;stroke:none;display:inline"
       id="path4937-5"
       transform="matrix(0.84482908,0.44751601,-0.66806925,1.3617225,401.51523,191.96739)"
       cx="296.78571"
       cy="122.36218"
       rx="14.642858"
       ry="15"
       sodipodi:cx="296.78571"
       sodipodi:cy="122.36218"
       sodipodi:rx="14.642858"
       sodipodi:ry="15" />
    <path
       style="fill:#800000;fill-opacity:1;display:inline"
       d="m 612.09876,489.88409 c -35.60798,-4.43521 -67.70334,17.97946 -71.69868,50.056 -3.99534,32.07654 21.62252,61.66632 57.23049,66.10153 19.82235,2.469 38.53128,-3.39825 51.93332,-14.6047 -0.039,-0.0328 -0.0634,-0.0591 -0.10408,-0.0936 -0.52726,-0.16798 -1.07286,-0.37891 -1.2546,-0.61321 -0.10371,-0.13371 -0.18795,-0.27723 -0.28151,-0.41137 -0.1214,-0.0418 -0.24642,-0.0886 -0.37309,-0.14059 -0.20146,-0.0701 -0.39908,-0.1399 -0.59446,-0.22188 -0.0898,-0.0377 -0.17485,-0.0869 -0.25749,-0.13959 -0.004,-10e-4 -0.0101,-2.5e-4 -0.0142,-0.002 -0.90249,-0.36787 -1.50962,-0.59431 -2.10536,-1.21646 -0.7791,-0.37027 -0.91239,-0.46914 -1.27755,-0.77734 -0.80038,-0.25722 -0.89022,-0.44536 -1.65172,-1.02555 -0.0309,-0.0236 -0.0826,-0.0379 -0.10738,-0.0671 -0.0495,-0.0584 -0.0895,-0.11847 -0.13693,-0.17833 -0.068,-0.0334 -0.14125,-0.0727 -0.1912,-0.091 -0.75801,-0.27757 -1.2997,-0.79243 -1.82314,-1.27539 -0.0257,-0.0213 -0.0533,-0.0422 -0.0789,-0.0635 -0.21148,-0.0883 -0.43387,-0.19772 -0.59221,-0.356 -0.26932,-0.2692 -0.46802,-0.49811 -0.62224,-0.69572 -0.16784,-0.0101 -0.31947,-0.22148 -0.46565,-0.32679 -0.6534,-0.47081 -1.01842,-0.87277 -1.39682,-1.3298 -0.003,-0.002 -0.0339,-0.0413 -0.0377,-0.045 -0.005,-0.0179 -0.027,-0.0741 -0.0942,-0.173 -0.76281,-0.39422 -0.25595,-0.24012 -0.66344,-0.36486 l -0.78541,-1.01173 c 0.0212,0.04 0.0563,0.10013 0.0706,0.12975 0.004,0.009 -4.5e-4,0.011 -0.002,0.0132 -0.008,-0.004 -0.0271,-0.0218 -0.0394,-0.0318 0.035,0.061 0.12806,0.22762 0.0942,0.17301 -0.0388,-0.0625 -0.0788,-0.12858 -0.12104,-0.1898 -0.0458,-0.0401 -0.0982,-0.0965 -0.12928,-0.12361 -0.17028,-0.14863 -0.32695,-0.29901 -0.49354,-0.45123 0.16121,0.13227 0.3472,0.28578 0.50014,0.39829 -0.11501,-0.16773 -0.22117,-0.33096 -0.28257,-0.51902 -0.0775,-0.23744 0.22199,0.2724 0.38994,0.58615 0.006,0.004 0.008,0.0118 0.0125,0.015 0.33206,0.20402 0.2751,-0.0746 -1.40034,-2.23069 -0.15183,-0.1954 0.0749,0.21699 0.20144,0.58956 0.18341,0.21198 0.32194,0.50427 0.16424,0.42364 -0.0369,-0.0188 -0.0597,-0.0542 -0.0915,-0.0786 -5.4e-4,0.0124 -0.003,0.0285 -0.005,0.0397 -0.0224,0.16366 -0.31999,-0.28133 -0.37299,-0.48997 -0.044,-0.0668 -0.0848,-0.132 -0.13528,-0.19156 0.0432,0.0494 0.0548,0.0678 0.12599,0.15008 -4.1e-4,-0.013 0.002,-0.0312 0.005,-0.0397 -0.36504,-0.43069 -0.86438,-1.01605 -1.00834,-1.42921 -0.0379,-0.10873 -0.0608,-0.22238 -0.0887,-0.3336 -0.19002,-0.15762 -0.41994,-0.48178 -0.44138,-0.75383 -0.013,-0.16509 0.11158,0.0503 0.2536,0.28693 -0.07,-0.26195 -0.14414,-0.59958 -0.13457,-0.66186 l -0.35143,-1.01143 c 9.3e-4,0.0249 -0.0198,-0.0295 -0.0487,-0.0733 0.037,0.27804 0.0882,0.56424 0.0545,0.84005 -0.0179,0.1464 -0.11826,-0.27668 -0.15,-0.42188 -0.0604,-0.27621 -0.11413,-0.55485 -0.12738,-0.83568 -0.23003,-0.57942 -0.22257,-1.12539 -0.13421,-1.71011 -0.19611,-0.43462 -0.38699,-0.93317 -0.31081,-1.22141 -0.0354,-0.30433 -0.0684,-0.60893 -0.10325,-0.91331 0.0416,-0.13465 0.0805,-0.26684 0.12235,-0.40139 -0.0203,-0.23243 -0.037,-0.46762 -0.0869,-0.69624 -0.031,-0.14208 0.0613,0.55833 -0.0101,0.42881 -0.24015,-0.43618 -0.0481,-1.58125 0.0637,-2.02145 0.18972,-0.7473 0.43649,-1.0593 0.70066,-1.09541 0.38198,-1.48054 2.27003,-2.67301 5.48137,-2.19335 1.21098,0.18087 2.43043,0.11533 3.62181,0.42422 0.32415,0.12603 0.64631,0.2396 0.96592,0.37567 0.0237,0.01 0.0739,0.0259 0.11067,0.0407 0.26152,0.0448 0.54469,0.12921 0.82569,0.2238 0.49029,-0.0686 1.06152,-0.0617 1.70247,0.0373 0.36542,0.0565 0.16743,0.0309 0.59669,0.0877 0.92843,0.0738 1.91504,0.0184 2.67544,0.58859 0.0129,0.002 0.0307,0.005 0.0427,0.005 0.87068,0.0512 1.71664,0.18822 2.39488,0.63429 l 1.08271,0.13486 c 0.64408,0.0802 1.2934,0.16105 1.93747,0.24132 0.65219,0.0813 1.29947,0.16228 1.95172,0.2431 0.68715,0.0856 1.37816,0.17469 2.06569,0.2573 0.70067,0.0842 1.39695,0.15334 2.09254,0.27404 0.44643,0.0683 0.90317,0.0102 1.35066,0.0742 0.91399,0.13068 0.88402,0.17934 1.68257,0.54556 0.007,0.005 0.005,0.0107 0.0126,0.015 0.42201,0.007 0.42344,0.0109 1.18243,0.14728 0.0396,0.014 1.04097,0.33102 1.14617,0.43843 0.0592,0.0605 -0.32938,-0.044 -0.26138,0.008 0.12065,0.0919 0.73933,0.0427 0.91175,0.11357 l 0.7693,0.0958 c 1.79846,-4.33679 3.05221,-8.94068 3.65465,-13.77736 3.99535,-32.07654 -21.63511,-61.68134 -57.24307,-66.11654 z m 22.54314,90.91812 -0.13692,-0.17833 c 0.027,0.0471 0.0378,0.0668 0.0832,0.14476 0.0197,0.0136 0.0359,0.0222 0.0537,0.0336 z m 7.09405,-7.12641 c -0.002,0.0131 -0.002,0.0265 -0.005,0.0397 0.008,0.005 0.0179,0.0113 0.0268,0.0168 0.006,-0.0119 0.0136,-0.0252 0.0191,-0.0379 -0.012,-0.002 -0.0312,-0.0173 -0.041,-0.0185 z m -9.80172,3.07982 c 0.0118,0.0682 0.006,0.0933 0.012,0.13588 0.0104,0.0168 0.0279,0.0293 0.0377,0.045 -0.0145,-0.0613 -0.0338,-0.12002 -0.0498,-0.18093 z m 3.40126,4.40177 c -0.0435,-0.005 0.39269,0.69629 0.61011,0.90925 0.0257,0.0252 0.0784,0.0532 0.11996,0.0822 -0.22543,-0.32557 -0.59465,-0.84708 -0.67804,-0.94459 -0.0281,-0.0328 -0.0458,-0.0461 -0.052,-0.0468 z m 0.98592,1.14421 c 0.27439,0.15021 0.55141,0.27549 0.38075,0.19526 -0.19526,-0.0918 -0.24755,-0.12929 -0.38075,-0.19526 z m 1.36291,1.13741 c 0.007,0.0164 0.0496,0.11013 0.0969,0.26743 0.0279,0.0256 0.0874,0.0539 0.13421,0.0839 -0.14649,-0.21934 -0.24144,-0.37519 -0.2311,-0.35134 z m 3.15591,2.42249 c 0.0665,0.0948 0.15203,0.22893 0.19497,0.29307 0.0251,0.0146 0.0557,0.0237 0.0821,0.0371 -0.0872,-0.11399 -0.18455,-0.22005 -0.27715,-0.33019 z m 2.04167,1.6117 c -0.0643,-0.0526 0.1096,0.12138 0.16541,0.18188 0.0277,0.0157 0.0768,0.0458 0.12161,0.069 -0.0893,-0.0755 -0.15655,-0.14391 -0.28703,-0.25079 z m 0.64154,0.30838 c -0.32478,-0.0185 0.56401,0.50695 0.99098,0.75509 -0.0801,-0.0873 -0.15266,-0.2071 -0.23605,-0.31163 -0.12035,-0.0672 -0.2237,-0.1363 -0.4799,-0.32857 -0.0189,-0.0312 -0.0179,-0.0281 -0.0361,-0.0582 -0.0936,-0.0247 -0.19471,-0.0542 -0.23887,-0.0567 z"
       id="path2985-1-6"
       inkscape:connector-curvature="0" />
    <path
       style="opacity:0.47000002;fill:#b90400;fill-opacity:1;display:inline"
       d="m 617.22994,488.01818 c -34.88861,-4.34561 -66.27173,17.05558 -70.1006,47.7956 -3.82887,30.74001 21.34712,59.17258 56.23574,63.51818 16.83658,2.09711 32.84034,-1.82198 45.34039,-9.87533 -0.28777,-0.16366 -0.56131,-0.35891 -0.83158,-0.64116 -0.7791,-0.37028 -0.91238,-0.46914 -1.27756,-0.77735 -0.80037,-0.25722 -0.89021,-0.44536 -1.65171,-1.02556 -0.0309,-0.0236 -0.0825,-0.0379 -0.10738,-0.0671 -0.0495,-0.0584 -0.0895,-0.11846 -0.13693,-0.17833 -0.068,-0.0334 -0.14125,-0.0727 -0.19121,-0.091 -0.758,-0.27757 -1.29969,-0.79243 -1.82314,-1.27538 -0.0257,-0.0213 -0.0533,-0.0422 -0.0788,-0.0635 -0.21147,-0.0883 -0.43387,-0.19772 -0.59221,-0.35599 -0.26932,-0.26921 -0.46802,-0.49812 -0.62224,-0.69573 -0.16783,-0.0101 -0.31946,-0.22147 -0.46563,-0.3268 -0.65341,-0.4708 -1.01844,-0.87276 -1.39682,-1.32978 -0.003,-0.002 -0.0339,-0.0413 -0.0377,-0.045 -0.005,-0.0179 -0.027,-0.0741 -0.0942,-0.17301 -0.76282,-0.39423 -0.25595,-0.24012 -0.66344,-0.36487 l -0.78542,-1.01172 c 0.0213,0.04 0.0564,0.10014 0.0706,0.12975 0.004,0.009 -4.5e-4,0.011 -0.002,0.0132 -0.008,-0.004 -0.0271,-0.0218 -0.0394,-0.0318 0.035,0.061 0.12807,0.22763 0.0942,0.17301 -0.0388,-0.0625 -0.0788,-0.12858 -0.12103,-0.18979 -0.0458,-0.0401 -0.0982,-0.0965 -0.12928,-0.12362 -0.17029,-0.14863 -0.32695,-0.29901 -0.49354,-0.45122 0.1612,0.13227 0.34721,0.28577 0.50013,0.39828 -0.11501,-0.16772 -0.22117,-0.33096 -0.28255,-0.51902 -0.0775,-0.23744 0.22198,0.2724 0.38993,0.58615 0.006,0.004 0.008,0.0118 0.0125,0.015 0.33206,0.20404 0.27511,-0.0746 -1.40034,-2.23068 -0.15183,-0.19539 0.0749,0.21699 0.20145,0.58955 0.18341,0.212 0.32194,0.50428 0.16423,0.42365 -0.0369,-0.0188 -0.0597,-0.0542 -0.0915,-0.0786 -5.4e-4,0.0124 -0.003,0.0285 -0.005,0.0397 -0.0224,0.16366 -0.31998,-0.28132 -0.37298,-0.48997 -0.044,-0.0668 -0.0848,-0.132 -0.13527,-0.19156 0.0432,0.0494 0.0548,0.0678 0.12597,0.15009 -3.9e-4,-0.0131 0.002,-0.0312 0.005,-0.0397 -0.36501,-0.43069 -0.86435,-1.01604 -1.00831,-1.4292 -0.0379,-0.10874 -0.0608,-0.22238 -0.0887,-0.3336 -0.19004,-0.15763 -0.41995,-0.48178 -0.44139,-0.75384 -0.013,-0.16508 0.11158,0.0503 0.2536,0.28694 -0.07,-0.26196 -0.14414,-0.59959 -0.13457,-0.66187 l -0.35143,-1.01142 c 9.3e-4,0.0249 -0.0198,-0.0295 -0.0487,-0.0733 0.037,0.27805 0.0882,0.56424 0.0545,0.84005 -0.0179,0.14641 -0.11825,-0.27668 -0.14998,-0.42187 -0.0604,-0.27622 -0.11414,-0.55485 -0.12739,-0.83568 -0.23002,-0.57943 -0.22257,-1.1254 -0.1342,-1.71012 -0.19612,-0.43462 -0.387,-0.93317 -0.31082,-1.2214 -0.0354,-0.30433 -0.0684,-0.60894 -0.10325,-0.91331 0.0416,-0.13465 0.0805,-0.26684 0.12235,-0.40139 -0.0203,-0.23243 -0.0371,-0.46764 -0.0869,-0.69625 -0.031,-0.14208 0.0613,0.55834 -0.0101,0.42881 -0.24015,-0.43617 -0.0481,-1.58124 0.0637,-2.02144 0.18972,-0.7473 0.43649,-1.0593 0.70066,-1.09542 0.38197,-1.48054 2.27002,-2.67301 5.48137,-2.19334 1.21098,0.18086 2.43043,0.11533 3.62182,0.42421 0.32415,0.12604 0.64631,0.2396 0.96591,0.37566 0.0237,0.01 0.0738,0.026 0.11066,0.0407 0.26153,0.0448 0.5447,0.12922 0.82569,0.2238 0.4903,-0.0686 1.06153,-0.0617 1.70248,0.0373 0.36542,0.0565 0.16742,0.0309 0.59669,0.0877 0.92844,0.0738 1.91505,0.0184 2.67545,0.5886 0.0129,0.002 0.0306,0.005 0.0427,0.005 0.87067,0.0512 1.71664,0.18822 2.39487,0.6343 l 1.08271,0.13485 c 0.64408,0.0802 1.29341,0.16106 1.93747,0.24133 0.65219,0.0813 1.29947,0.16228 1.95172,0.2431 0.68716,0.0856 1.37817,0.17468 2.06569,0.25729 0.70067,0.0842 1.39696,0.15335 2.09254,0.27405 0.44644,0.0683 0.90318,0.0102 1.35067,0.0742 0.91399,0.13067 0.88401,0.17934 1.68257,0.54556 0.007,0.005 0.005,0.0107 0.0125,0.015 0.42201,0.007 0.42344,0.0109 1.18244,0.14728 0.0371,0.0127 0.89243,0.28074 1.09247,0.40487 3.08053,-5.53637 5.15485,-11.65143 5.96964,-18.19289 3.82887,-30.74001 -21.35973,-59.18757 -56.24835,-63.53318 z m 20.7068,93.00101 -0.13693,-0.17833 c 0.027,0.0471 0.0378,0.0668 0.0832,0.14476 0.0197,0.0136 0.0359,0.0222 0.0537,0.0336 z m 29.36587,-11.24684 c -0.004,0.002 -0.01,0.007 -0.002,0.0132 0.0277,0.0211 0.0849,0.0367 0.15341,0.046 0.006,8.1e-4 0.008,10e-4 0.0142,0.002 0.007,-0.0124 0.0123,-0.0256 0.0191,-0.0379 -0.0746,-0.009 -0.16924,-0.0319 -0.18521,-0.0231 z m -22.27183,4.12043 c -0.002,0.0131 -0.002,0.0265 -0.005,0.0397 0.008,0.005 0.0179,0.0113 0.0268,0.0168 0.006,-0.0119 0.0136,-0.0252 0.0191,-0.0379 -0.012,-0.002 -0.0312,-0.0173 -0.041,-0.0185 z m -9.80172,3.07981 c 0.0118,0.0682 0.006,0.0933 0.012,0.13589 0.0104,0.0168 0.0279,0.0293 0.0377,0.045 -0.0145,-0.0613 -0.0338,-0.12002 -0.0498,-0.18093 z m 3.40126,4.40178 c -0.0435,-0.005 0.3927,0.69629 0.61011,0.90925 0.0257,0.0252 0.0784,0.0532 0.11997,0.0822 -0.22543,-0.32557 -0.59465,-0.84707 -0.67804,-0.94459 -0.0281,-0.0328 -0.0458,-0.0461 -0.052,-0.0468 z m 0.98592,1.14421 c 0.2744,0.1502 0.55142,0.27549 0.38076,0.19526 -0.19527,-0.0918 -0.24755,-0.12928 -0.38076,-0.19526 z m 1.36292,1.13741 c 0.007,0.0164 0.0496,0.11013 0.0969,0.26743 0.0279,0.0257 0.0874,0.0539 0.13421,0.0839 -0.14649,-0.21933 -0.24145,-0.37519 -0.23111,-0.35134 z m 3.1559,2.42249 c 0.0665,0.0948 0.15203,0.22892 0.19497,0.29307 0.0251,0.0146 0.0557,0.0237 0.0821,0.0371 -0.0872,-0.11399 -0.18454,-0.22005 -0.27715,-0.33019 z m 2.04166,1.6117 c -0.0643,-0.0527 0.10962,0.12137 0.16543,0.18188 0.0277,0.0157 0.0768,0.0458 0.12161,0.069 -0.0893,-0.0755 -0.15655,-0.14392 -0.28704,-0.25079 z m 0.64155,0.30838 c -0.32477,-0.0185 0.56402,0.50695 0.99098,0.75509 -0.0801,-0.0873 -0.15265,-0.20711 -0.23605,-0.31163 -0.12035,-0.0672 -0.2237,-0.1363 -0.4799,-0.32857 -0.0189,-0.0312 -0.0179,-0.0281 -0.0361,-0.0582 -0.0936,-0.0247 -0.19472,-0.0542 -0.23888,-0.0567 z"
       id="path3763-9"
       inkscape:connector-curvature="0" />
    <path
       sodipodi:type="arc"
       style="fill:#800000;fill-opacity:1;stroke:none;display:inline"
       id="path4942-2-8"
       sodipodi:cx="167.5"
       sodipodi:cy="420.21933"
       sodipodi:rx="28.214285"
       sodipodi:ry="37.857143"
       d="M 191.8995,439.22853 A 28.214285,37.857143 0 1 1 174.4879,383.54167 L 167.5,420.21933 z"
       sodipodi:start="0.52605967"
       sodipodi:end="4.962666"
       transform="matrix(-0.49356363,-0.04512992,-0.049544,0.397763,705.09843,329.00868)" />
    <path
       style="fill:#b90400;fill-opacity:1;display:inline"
       d="m 615.39359,490.10107 c -35.60797,-4.43521 -67.70333,17.97945 -71.69867,50.056 -3.99535,32.07654 21.62251,61.66632 57.23049,66.10153 19.82234,2.469 38.53127,-3.39825 51.93332,-14.6047 -0.0391,-0.0328 -0.0634,-0.0591 -0.10408,-0.0936 -0.52726,-0.16797 -1.07287,-0.37891 -1.2546,-0.61321 -0.10372,-0.13372 -0.18796,-0.27723 -0.28151,-0.41137 -0.1214,-0.0418 -0.24643,-0.0886 -0.3731,-0.14059 -0.20145,-0.0701 -0.39907,-0.1399 -0.59445,-0.22188 -0.0898,-0.0377 -0.17485,-0.0869 -0.25749,-0.13959 -0.004,-0.001 -0.0102,-2.6e-4 -0.0142,-0.002 -0.90249,-0.36786 -1.50962,-0.5943 -2.10536,-1.21645 -0.77911,-0.37027 -0.91239,-0.46914 -1.27756,-0.77734 -0.80037,-0.25722 -0.89021,-0.44536 -1.65171,-1.02556 -0.0309,-0.0236 -0.0826,-0.0379 -0.10738,-0.0671 -0.0495,-0.0584 -0.0896,-0.11847 -0.13693,-0.17833 -0.068,-0.0334 -0.14125,-0.0727 -0.1912,-0.091 -0.75801,-0.27757 -1.2997,-0.79243 -1.82314,-1.27539 -0.0257,-0.0213 -0.0533,-0.0422 -0.0789,-0.0635 -0.21147,-0.0883 -0.43387,-0.19772 -0.59221,-0.356 -0.26932,-0.2692 -0.46802,-0.49811 -0.62223,-0.69572 -0.16784,-0.0101 -0.31947,-0.22148 -0.46565,-0.3268 -0.6534,-0.4708 -1.01843,-0.87276 -1.39682,-1.32979 -0.003,-0.002 -0.0339,-0.0413 -0.0378,-0.045 -0.005,-0.0179 -0.0269,-0.0741 -0.0942,-0.17301 -0.76282,-0.39422 -0.25596,-0.24011 -0.66344,-0.36487 l -0.78541,-1.01171 c 0.0212,0.04 0.0564,0.10013 0.0706,0.12975 0.004,0.009 -4.5e-4,0.011 -0.002,0.0132 -0.008,-0.004 -0.0271,-0.0218 -0.0394,-0.0318 0.035,0.061 0.12807,0.22762 0.0942,0.17301 -0.0388,-0.0625 -0.0788,-0.12858 -0.12104,-0.1898 -0.0458,-0.0401 -0.0982,-0.0965 -0.12927,-0.12362 -0.17029,-0.14862 -0.32695,-0.299 -0.49354,-0.45122 0.16121,0.13227 0.3472,0.28578 0.50014,0.39828 -0.11502,-0.16772 -0.22117,-0.33095 -0.28257,-0.51901 -0.0775,-0.23744 0.22198,0.27239 0.38994,0.58615 0.006,0.004 0.008,0.0118 0.0126,0.015 0.33205,0.20403 0.2751,-0.0746 -1.40034,-2.23068 -0.15184,-0.1954 0.0749,0.21699 0.20144,0.58955 0.1834,0.21199 0.32194,0.50427 0.16424,0.42364 -0.0369,-0.0188 -0.0597,-0.0542 -0.0915,-0.0786 -5.4e-4,0.0124 -0.003,0.0285 -0.005,0.0397 -0.0224,0.16365 -0.31999,-0.28133 -0.37299,-0.48997 -0.044,-0.0667 -0.0848,-0.132 -0.13528,-0.19157 0.0432,0.0494 0.0548,0.0678 0.12598,0.15009 -3.9e-4,-0.0131 0.002,-0.0312 0.005,-0.0397 -0.36505,-0.43069 -0.86439,-1.01605 -1.00834,-1.42921 -0.0379,-0.10874 -0.0608,-0.22238 -0.0887,-0.3336 -0.19002,-0.15763 -0.41994,-0.48178 -0.44139,-0.75384 -0.013,-0.16508 0.11158,0.0503 0.25361,0.28694 -0.07,-0.26195 -0.14415,-0.59958 -0.13456,-0.66187 l -0.35144,-1.01142 c 9.2e-4,0.0249 -0.0198,-0.0295 -0.0487,-0.0733 0.037,0.27804 0.0882,0.56423 0.0545,0.84004 -0.0179,0.14641 -0.11826,-0.27667 -0.15,-0.42187 -0.0604,-0.27622 -0.11413,-0.55485 -0.12738,-0.83568 -0.23003,-0.57943 -0.22257,-1.12539 -0.13421,-1.71011 -0.19612,-0.43463 -0.387,-0.93317 -0.31082,-1.22141 -0.0353,-0.30433 -0.0684,-0.60894 -0.10324,-0.91331 0.0416,-0.13465 0.0805,-0.26684 0.12235,-0.40139 -0.0203,-0.23243 -0.0371,-0.46764 -0.0869,-0.69625 -0.031,-0.14207 0.0613,0.55834 -0.0101,0.42882 -0.24015,-0.43618 -0.0481,-1.58125 0.0637,-2.02145 0.18972,-0.7473 0.4365,-1.0593 0.70067,-1.09542 0.38198,-1.48054 2.27002,-2.673 5.48137,-2.19334 1.21097,0.18087 2.43042,0.11533 3.62181,0.42422 0.32415,0.12603 0.64631,0.23959 0.96592,0.37565 0.0237,0.01 0.0738,0.026 0.11066,0.0407 0.26153,0.0448 0.5447,0.12921 0.82569,0.2238 0.4903,-0.0686 1.06152,-0.0617 1.70247,0.0373 0.36543,0.0565 0.16743,0.0309 0.5967,0.0877 0.92843,0.0738 1.91504,0.0184 2.67544,0.58859 0.013,0.002 0.0307,0.005 0.0427,0.005 0.87068,0.0512 1.71664,0.18823 2.39488,0.6343 l 1.08271,0.13486 c 0.64407,0.0802 1.2934,0.16105 1.93747,0.24132 0.6522,0.0813 1.29947,0.16228 1.95172,0.2431 0.68715,0.0856 1.37816,0.17468 2.06569,0.2573 0.70067,0.0842 1.39695,0.15334 2.09254,0.27404 0.44644,0.0683 0.90317,0.0101 1.35066,0.0742 0.91399,0.13067 0.88401,0.17934 1.68258,0.54556 0.007,0.005 0.005,0.0107 0.0126,0.015 0.42199,0.007 0.42342,0.0109 1.18242,0.14728 0.0396,0.014 1.04097,0.33103 1.14617,0.43844 0.0592,0.0605 -0.32937,-0.0441 -0.26137,0.008 0.12064,0.0919 0.73932,0.0427 0.91174,0.11357 l 0.7693,0.0958 c 1.79847,-4.33679 3.05221,-8.94068 3.65465,-13.77737 3.99535,-32.07653 -21.6351,-61.68133 -57.24307,-66.11653 z m 22.54315,90.91812 -0.13693,-0.17833 c 0.027,0.0471 0.0378,0.0668 0.0832,0.14476 0.0197,0.0136 0.0359,0.0222 0.0537,0.0336 z m 7.09404,-7.12641 c -0.002,0.0131 -0.002,0.0265 -0.005,0.0397 0.008,0.005 0.0179,0.0113 0.0268,0.0168 0.006,-0.0119 0.0136,-0.0252 0.0191,-0.0379 -0.012,-0.002 -0.0312,-0.0173 -0.041,-0.0185 z m -9.80172,3.07981 c 0.0118,0.0682 0.006,0.0933 0.012,0.13589 0.0104,0.0168 0.0279,0.0293 0.0377,0.045 -0.0145,-0.0613 -0.0338,-0.12002 -0.0498,-0.18093 z m 3.40126,4.40178 c -0.0435,-0.005 0.3927,0.69629 0.61011,0.90925 0.0257,0.0252 0.0784,0.0532 0.11997,0.0822 -0.22543,-0.32557 -0.59465,-0.84707 -0.67804,-0.94459 -0.0281,-0.0328 -0.0458,-0.0461 -0.052,-0.0468 z m 0.98592,1.14421 c 0.2744,0.1502 0.55142,0.27549 0.38076,0.19526 -0.19527,-0.0918 -0.24755,-0.12928 -0.38076,-0.19526 z m 1.36292,1.13741 c 0.007,0.0164 0.0496,0.11013 0.0969,0.26743 0.0279,0.0257 0.0874,0.0539 0.13421,0.0839 -0.14649,-0.21933 -0.24145,-0.37519 -0.23111,-0.35134 z m 3.1559,2.42249 c 0.0665,0.0948 0.15203,0.22892 0.19497,0.29307 0.0251,0.0146 0.0557,0.0237 0.0821,0.0371 -0.0872,-0.11399 -0.18454,-0.22005 -0.27715,-0.33019 z m 2.04166,1.6117 c -0.0643,-0.0527 0.10962,0.12137 0.16543,0.18188 0.0277,0.0157 0.0768,0.0458 0.12161,0.069 -0.0893,-0.0755 -0.15655,-0.14392 -0.28704,-0.25079 z m 0.64155,0.30838 c -0.32477,-0.0185 0.56402,0.50695 0.99098,0.75509 -0.0801,-0.0873 -0.15265,-0.20711 -0.23605,-0.31163 -0.12035,-0.0672 -0.2237,-0.1363 -0.4799,-0.32857 -0.0189,-0.0312 -0.0179,-0.0281 -0.0361,-0.0582 -0.0936,-0.0247 -0.19472,-0.0542 -0.23888,-0.0567 z"
       id="path2985-1"
       inkscape:connector-curvature="0" />
    <path
       style="opacity:0.47000002;fill:#b90400;fill-opacity:1;display:inline"
       d="m 615.65437,490.21419 c -34.8886,-4.34561 -66.27173,17.05558 -70.1006,47.7956 -3.82887,30.74001 21.34548,59.1858 56.23409,63.53141 18.01368,2.24372 35.08097,-2.3977 47.91636,-11.62418 -0.75421,-0.30717 -1.29312,-0.54054 -1.83033,-1.10155 -0.7791,-0.37028 -0.91238,-0.46914 -1.27756,-0.77735 -0.80037,-0.25722 -0.89021,-0.44536 -1.65171,-1.02556 -0.0309,-0.0236 -0.0825,-0.0379 -0.10738,-0.0671 -0.0495,-0.0584 -0.0895,-0.11846 -0.13693,-0.17833 -0.068,-0.0334 -0.14125,-0.0727 -0.19121,-0.091 -0.758,-0.27757 -1.29969,-0.79243 -1.82314,-1.27538 -0.0257,-0.0213 -0.0533,-0.0422 -0.0788,-0.0635 -0.21147,-0.0883 -0.43387,-0.19772 -0.59221,-0.35599 -0.26932,-0.26921 -0.46802,-0.49812 -0.62224,-0.69573 -0.16783,-0.0101 -0.31946,-0.22147 -0.46563,-0.3268 -0.65341,-0.4708 -1.01844,-0.87276 -1.39682,-1.32978 -0.003,-0.002 -0.0339,-0.0413 -0.0377,-0.045 -0.005,-0.0179 -0.027,-0.0741 -0.0942,-0.17301 -0.76282,-0.39423 -0.25595,-0.24012 -0.66344,-0.36487 l -0.78542,-1.01172 c 0.0213,0.04 0.0564,0.10014 0.0706,0.12975 0.004,0.009 -4.5e-4,0.011 -0.002,0.0132 -0.008,-0.004 -0.0271,-0.0218 -0.0394,-0.0318 0.035,0.061 0.12807,0.22763 0.0942,0.17301 -0.0388,-0.0625 -0.0788,-0.12858 -0.12103,-0.18979 -0.0458,-0.0401 -0.0982,-0.0965 -0.12928,-0.12362 -0.17029,-0.14863 -0.32695,-0.29901 -0.49354,-0.45122 0.1612,0.13227 0.34721,0.28577 0.50013,0.39828 -0.11501,-0.16772 -0.22117,-0.33096 -0.28255,-0.51902 -0.0775,-0.23744 0.22198,0.2724 0.38993,0.58615 0.006,0.004 0.008,0.0118 0.0125,0.015 0.33206,0.20404 0.27511,-0.0746 -1.40034,-2.23068 -0.15183,-0.19539 0.0749,0.21699 0.20145,0.58955 0.18341,0.212 0.32194,0.50428 0.16423,0.42365 -0.0369,-0.0188 -0.0597,-0.0542 -0.0915,-0.0786 -5.4e-4,0.0124 -0.003,0.0285 -0.005,0.0397 -0.0224,0.16366 -0.31998,-0.28132 -0.37298,-0.48997 -0.044,-0.0668 -0.0848,-0.132 -0.13527,-0.19156 0.0432,0.0494 0.0548,0.0678 0.12597,0.15009 -3.9e-4,-0.0131 0.002,-0.0312 0.005,-0.0397 -0.36501,-0.43069 -0.86435,-1.01604 -1.00831,-1.4292 -0.0379,-0.10874 -0.0608,-0.22238 -0.0887,-0.3336 -0.19004,-0.15763 -0.41995,-0.48178 -0.44139,-0.75384 -0.013,-0.16508 0.11158,0.0503 0.2536,0.28694 -0.07,-0.26196 -0.14414,-0.59959 -0.13457,-0.66187 l -0.35143,-1.01142 c 9.3e-4,0.0249 -0.0198,-0.0295 -0.0487,-0.0733 0.037,0.27805 0.0882,0.56424 0.0545,0.84005 -0.0179,0.14641 -0.11825,-0.27668 -0.14998,-0.42187 -0.0604,-0.27622 -0.11414,-0.55485 -0.12739,-0.83568 -0.23002,-0.57943 -0.22257,-1.1254 -0.1342,-1.71012 -0.19612,-0.43462 -0.387,-0.93317 -0.31082,-1.2214 -0.0354,-0.30433 -0.0684,-0.60894 -0.10325,-0.91331 0.0416,-0.13465 0.0805,-0.26684 0.12235,-0.40139 -0.0203,-0.23243 -0.0371,-0.46764 -0.0869,-0.69625 -0.031,-0.14208 0.0613,0.55834 -0.0101,0.42881 -0.24015,-0.43617 -0.0481,-1.58124 0.0637,-2.02144 0.18972,-0.7473 0.43649,-1.0593 0.70066,-1.09542 0.38197,-1.48054 2.27002,-2.67301 5.48137,-2.19334 1.21098,0.18086 2.43043,0.11533 3.62182,0.42421 0.32415,0.12604 0.64631,0.2396 0.96591,0.37566 0.0237,0.01 0.0738,0.026 0.11066,0.0407 0.26153,0.0448 0.5447,0.12922 0.82569,0.2238 0.4903,-0.0686 1.06153,-0.0617 1.70248,0.0373 0.36542,0.0565 0.16742,0.0309 0.59669,0.0877 0.92844,0.0738 1.91505,0.0184 2.67545,0.5886 0.0129,0.002 0.0306,0.005 0.0427,0.005 0.87067,0.0512 1.71664,0.18822 2.39487,0.6343 l 1.08271,0.13485 c 0.64408,0.0802 1.29341,0.16106 1.93747,0.24133 0.65219,0.0813 1.29947,0.16228 1.95172,0.2431 0.68716,0.0856 1.37817,0.17468 2.06569,0.25729 0.70067,0.0842 1.39696,0.15335 2.09254,0.27405 0.44644,0.0683 0.90318,0.0102 1.35067,0.0742 0.91399,0.13067 0.88401,0.17934 1.68257,0.54556 0.007,0.005 0.005,0.0107 0.0125,0.015 0.42201,0.007 0.42344,0.0109 1.18244,0.14728 0.0247,0.008 0.41387,0.13267 0.73526,0.25286 2.40449,-4.90321 4.03559,-10.21511 4.73703,-15.84664 3.82887,-30.74002 -21.34548,-59.18581 -56.2341,-63.53141 z m 22.28237,90.805 -0.13693,-0.17833 c 0.027,0.0471 0.0378,0.0668 0.0832,0.14476 0.0197,0.0136 0.0359,0.0222 0.0537,0.0336 z m 7.09404,-7.12641 c -0.002,0.0131 -0.002,0.0265 -0.005,0.0397 0.008,0.005 0.0179,0.0113 0.0268,0.0168 0.006,-0.0119 0.0136,-0.0252 0.0191,-0.0379 -0.012,-0.002 -0.0312,-0.0173 -0.041,-0.0185 z m -9.80172,3.07981 c 0.0118,0.0682 0.006,0.0933 0.012,0.13589 0.0104,0.0168 0.0279,0.0293 0.0377,0.045 -0.0145,-0.0613 -0.0338,-0.12002 -0.0498,-0.18093 z m 3.40126,4.40178 c -0.0435,-0.005 0.3927,0.69629 0.61011,0.90925 0.0257,0.0252 0.0784,0.0532 0.11997,0.0822 -0.22543,-0.32557 -0.59465,-0.84707 -0.67804,-0.94459 -0.0281,-0.0328 -0.0458,-0.0461 -0.052,-0.0468 z m 0.98592,1.14421 c 0.2744,0.1502 0.55142,0.27549 0.38076,0.19526 -0.19527,-0.0918 -0.24755,-0.12928 -0.38076,-0.19526 z m 1.36292,1.13741 c 0.007,0.0164 0.0496,0.11013 0.0969,0.26743 0.0279,0.0257 0.0874,0.0539 0.13421,0.0839 -0.14649,-0.21933 -0.24145,-0.37519 -0.23111,-0.35134 z m 3.1559,2.42249 c 0.0665,0.0948 0.15203,0.22892 0.19497,0.29307 0.0251,0.0146 0.0557,0.0237 0.0821,0.0371 -0.0872,-0.11399 -0.18454,-0.22005 -0.27715,-0.33019 z m 2.04166,1.6117 c -0.0643,-0.0527 0.10962,0.12137 0.16543,0.18188 0.0277,0.0157 0.0768,0.0458 0.12161,0.069 -0.0893,-0.0755 -0.15655,-0.14392 -0.28704,-0.25079 z m 0.64155,0.30838 c -0.32477,-0.0185 0.56402,0.50695 0.99098,0.75509 -0.0801,-0.0873 -0.15265,-0.20711 -0.23605,-0.31163 -0.12035,-0.0672 -0.2237,-0.1363 -0.4799,-0.32857 -0.0189,-0.0312 -0.0179,-0.0281 -0.0361,-0.0582 -0.0936,-0.0247 -0.19472,-0.0542 -0.23888,-0.0567 z"
       id="path3763-7"
       inkscape:connector-curvature="0" />
    <path
       style="fill:#b90400;fill-opacity:1;fill-rule:evenodd;stroke:none;display:inline"
       d="m 661.95263,542.10576 c -13.88639,-1.72964 -26.53035,7.99506 -28.24015,21.72213 -0.30205,2.42499 -0.23812,4.81728 0.14111,7.1137 0.0392,-0.12611 0.0798,-0.24884 0.11905,-0.37492 -0.0203,-0.23244 -0.037,-0.46763 -0.0869,-0.69625 -0.031,-0.14208 0.0613,0.55834 -0.0101,0.42881 -0.24015,-0.43617 -0.0481,-1.58124 0.0637,-2.02144 0.18973,-0.7473 0.43649,-1.0593 0.70066,-1.09542 0.38198,-1.48054 2.27003,-2.67301 5.48137,-2.19334 1.21098,0.18086 2.43043,0.11533 3.62182,0.42421 0.32414,0.12603 0.64632,0.2396 0.96591,0.37566 0.0237,0.01 0.0738,0.026 0.11067,0.0407 0.26152,0.0448 0.54469,0.12922 0.82569,0.2238 0.4903,-0.0686 1.06153,-0.0617 1.70247,0.0373 0.36542,0.0565 0.16743,0.0309 0.59669,0.0877 0.92843,0.0738 1.91505,0.0184 2.67545,0.5886 0.0129,0.002 0.0307,0.005 0.0427,0.005 0.87068,0.0512 1.71663,0.18822 2.39488,0.6343 l 1.0827,0.13485 c 0.64409,0.0802 1.2934,0.16105 1.93748,0.24133 0.65219,0.0813 1.29947,0.16228 1.95172,0.2431 0.68714,0.0856 1.37817,0.17468 2.06569,0.25729 0.70067,0.0842 1.39696,0.15335 2.09253,0.27405 0.44644,0.0683 0.90318,0.0101 1.35067,0.0742 0.91399,0.13067 0.88401,0.17934 1.68257,0.54556 0.007,0.005 0.005,0.0107 0.0125,0.015 0.42201,0.007 0.42343,0.0109 1.18243,0.14728 0.0396,0.014 1.04096,0.33103 1.14616,0.43844 0.0592,0.0605 -0.32937,-0.044 -0.26137,0.008 0.12065,0.0919 0.73932,0.0427 0.91175,0.11356 l 2.30788,0.28746 1.83775,0.22891 2.33636,0.29101 2.26514,0.28214 1.90898,0.23777 3.07716,0.38328 c 0.67914,0.0846 1.2555,0.24073 1.7226,0.45648 0.13773,-0.6462 0.24951,-1.30661 0.3327,-1.97451 1.7098,-13.72706 -8.16229,-26.2563 -22.04868,-27.98594 z m -16.92185,31.78702 c -0.002,0.0131 -0.002,0.0265 -0.005,0.0397 0.008,0.005 0.0179,0.0113 0.0268,0.0168 0.006,-0.0119 0.0136,-0.0252 0.0191,-0.0379 -0.012,-0.002 -0.0312,-0.0173 -0.041,-0.0185 z m -8.39525,5.02902 c 0.28563,0.51514 0.5905,1.01783 0.91127,1.51124 -0.0749,-0.22945 0.19286,0.23962 0.36474,0.55613 l 0.0252,0.0301 c 0.006,0.004 0.008,0.0118 0.0125,0.015 l 0.0126,0.015 c 0.30725,0.1811 0.22173,-0.12703 -1.3264,-2.1274 z m 1.3264,2.1274 c 3.1828,4.59478 7.88677,8.13684 13.50198,9.83962 -0.0884,-0.1155 -0.16448,-0.23751 -0.24537,-0.35311 -0.1214,-0.0418 -0.24642,-0.0886 -0.37309,-0.14059 -0.20146,-0.0701 -0.39908,-0.1399 -0.59446,-0.22188 -0.0898,-0.0377 -0.17485,-0.0869 -0.25749,-0.13959 -0.004,-10e-4 -0.0101,-2.6e-4 -0.0142,-0.002 -0.90249,-0.36786 -1.50962,-0.5943 -2.10536,-1.21645 -0.77911,-0.37027 -0.91239,-0.46914 -1.27755,-0.77734 -0.80038,-0.25722 -0.89022,-0.44536 -1.65172,-1.02556 -0.0309,-0.0236 -0.0826,-0.0379 -0.10738,-0.0671 -0.0495,-0.0584 -0.0895,-0.11847 -0.13693,-0.17833 -0.068,-0.0334 -0.14125,-0.0727 -0.1912,-0.091 -0.75801,-0.27757 -1.2997,-0.79243 -1.82314,-1.27538 -0.0257,-0.0213 -0.0533,-0.0422 -0.0788,-0.0635 -0.21148,-0.0883 -0.43388,-0.19772 -0.59221,-0.356 -0.26932,-0.2692 -0.46802,-0.49811 -0.62224,-0.69572 -0.16784,-0.0101 -0.31947,-0.22148 -0.46565,-0.3268 -0.6534,-0.4708 -1.01842,-0.87276 -1.39682,-1.32979 -0.003,-0.002 -0.0339,-0.0413 -0.0378,-0.045 -0.005,-0.0179 -0.0269,-0.0741 -0.0942,-0.17301 -0.76281,-0.39422 -0.25595,-0.24011 -0.66344,-0.36487 l -0.77282,-0.99671 z m 0.66839,0.32517 c -0.0435,-0.005 0.3927,0.69629 0.61011,0.90925 0.0257,0.0252 0.0784,0.0532 0.11997,0.0822 -0.22543,-0.32557 -0.59465,-0.84707 -0.67804,-0.94459 -0.0281,-0.0328 -0.0458,-0.0461 -0.052,-0.0468 z m 0.98592,1.14421 c 0.2744,0.1502 0.55142,0.27549 0.38076,0.19526 -0.19527,-0.0918 -0.24755,-0.12928 -0.38076,-0.19526 z m 1.36292,1.13741 c 0.007,0.0164 0.0496,0.11013 0.0969,0.26743 0.0279,0.0257 0.0874,0.0539 0.13421,0.0839 -0.14649,-0.21933 -0.24145,-0.37519 -0.23111,-0.35134 z m 3.1559,2.42249 c 0.0665,0.0948 0.15203,0.22892 0.19497,0.29307 0.0251,0.0146 0.0557,0.0237 0.0821,0.0371 -0.0872,-0.11399 -0.18454,-0.22005 -0.27715,-0.33019 z m 2.04166,1.6117 c -0.0643,-0.0527 0.10962,0.12137 0.16543,0.18188 0.0277,0.0157 0.0768,0.0458 0.12161,0.069 -0.0893,-0.0755 -0.15655,-0.14392 -0.28704,-0.25079 z m 0.64155,0.30838 c -0.32477,-0.0185 0.56402,0.50695 0.99098,0.75509 -0.0801,-0.0873 -0.15265,-0.20711 -0.23605,-0.31163 -0.12035,-0.0672 -0.2237,-0.1363 -0.4799,-0.32857 -0.0189,-0.0312 -0.0179,-0.0281 -0.0361,-0.0582 -0.0936,-0.0247 -0.19472,-0.0542 -0.23888,-0.0567 z"
       id="path3525"
       inkscape:connector-curvature="0" />
    <path
       style="fill:#b90400;fill-opacity:1;fill-rule:evenodd;stroke:none;display:inline"
       d="m 659.63619,539.68032 c -13.8864,-1.72964 -26.53036,7.99508 -28.24016,21.72214 -1.19141,9.56524 3.25086,18.53852 10.74976,23.68905 -0.0459,-0.0332 -0.0913,-0.0708 -0.13093,-0.11033 -0.26931,-0.2692 -0.46802,-0.49812 -0.62223,-0.69572 -0.16783,-0.0101 -0.31947,-0.22148 -0.46564,-0.3268 -0.6534,-0.4708 -1.01843,-0.87276 -1.39682,-1.32979 -0.003,-0.002 -0.0339,-0.0413 -0.0377,-0.045 -0.005,-0.0179 -0.0269,-0.0741 -0.0942,-0.173 -0.76283,-0.39423 -0.25596,-0.24012 -0.66345,-0.36488 l -0.78542,-1.01171 c 0.0213,0.04 0.0564,0.10013 0.0706,0.12975 0.004,0.009 -4.5e-4,0.011 -0.002,0.0132 -0.008,-0.004 -0.0271,-0.0218 -0.0394,-0.0318 0.035,0.061 0.12807,0.22762 0.0942,0.17301 -0.0388,-0.0625 -0.0788,-0.12858 -0.12103,-0.1898 -0.0458,-0.0401 -0.0982,-0.0965 -0.12927,-0.12361 -0.17029,-0.14863 -0.32695,-0.29901 -0.49355,-0.45123 0.16121,0.13227 0.34721,0.28578 0.50014,0.39828 -0.11502,-0.16772 -0.22117,-0.33095 -0.28256,-0.51901 -0.0775,-0.23744 0.22198,0.2724 0.38994,0.58615 0.006,0.004 0.008,0.0118 0.0126,0.015 0.33204,0.20403 0.27509,-0.0746 -1.40035,-2.23068 -0.15183,-0.1954 0.0749,0.21699 0.20144,0.58955 0.18341,0.21199 0.32195,0.50428 0.16424,0.42364 -0.0368,-0.0188 -0.0597,-0.0542 -0.0915,-0.0786 -5.4e-4,0.0124 -0.003,0.0285 -0.005,0.0397 -0.0224,0.16365 -0.31999,-0.28133 -0.37298,-0.48997 -0.044,-0.0667 -0.0848,-0.132 -0.13528,-0.19157 0.0432,0.0494 0.0548,0.0678 0.12597,0.15009 -3.9e-4,-0.0131 0.002,-0.0312 0.005,-0.0397 -0.36502,-0.43069 -0.86436,-1.01605 -1.00831,-1.42921 -0.0378,-0.10873 -0.0608,-0.22238 -0.0887,-0.3336 -0.19002,-0.15762 -0.41994,-0.48178 -0.44139,-0.75383 -0.013,-0.16508 0.11158,0.0503 0.25361,0.28693 -0.07,-0.26195 -0.14415,-0.59958 -0.13457,-0.66186 l -0.35144,-1.01143 c 9.3e-4,0.0249 -0.0198,-0.0295 -0.0487,-0.0733 0.037,0.27805 0.0882,0.56424 0.0545,0.84005 -0.0179,0.1464 -0.11825,-0.27668 -0.14999,-0.42188 -0.0604,-0.27621 -0.11414,-0.55485 -0.12739,-0.83568 -0.23002,-0.57942 -0.22256,-1.12539 -0.1342,-1.71011 -0.19612,-0.43462 -0.387,-0.93317 -0.31082,-1.2214 -0.0353,-0.30434 -0.0684,-0.60894 -0.10324,-0.91332 0.0416,-0.13464 0.0805,-0.26684 0.12235,-0.40138 -0.0203,-0.23244 -0.0371,-0.46764 -0.0869,-0.69625 -0.031,-0.14208 0.0613,0.55834 -0.0101,0.42881 -0.24014,-0.43618 -0.0481,-1.58125 0.0637,-2.02145 0.18972,-0.7473 0.43649,-1.0593 0.70067,-1.09541 0.38196,-1.48054 2.27002,-2.67301 5.48136,-2.19335 1.21098,0.18087 2.43043,0.11533 3.62182,0.42422 0.32415,0.12603 0.64631,0.23959 0.96591,0.37566 0.0237,0.01 0.0738,0.026 0.11067,0.0407 0.26152,0.0448 0.5447,0.12921 0.82568,0.2238 0.4903,-0.0686 1.06153,-0.0617 1.70248,0.0373 0.36543,0.0565 0.16743,0.0309 0.59669,0.0877 0.92844,0.0738 1.91505,0.0184 2.67545,0.58859 0.0129,0.002 0.0307,0.005 0.0427,0.005 0.87068,0.0512 1.71664,0.18822 2.39487,0.63429 l 1.08272,0.13486 c 0.64407,0.0802 1.2934,0.16105 1.93747,0.24132 0.6522,0.0813 1.29946,0.16228 1.95171,0.2431 0.68716,0.0856 1.37817,0.17469 2.06569,0.2573 0.70067,0.0842 1.39696,0.15334 2.09255,0.27404 0.44643,0.0683 0.90317,0.0101 1.35066,0.0742 0.91399,0.13067 0.88401,0.17934 1.68257,0.54556 0.007,0.005 0.005,0.0107 0.0125,0.015 0.42199,0.007 0.42342,0.0109 1.18242,0.14728 0.0396,0.014 1.04097,0.33103 1.14617,0.43844 0.0592,0.0605 -0.32937,-0.044 -0.26138,0.008 0.12065,0.0919 0.73932,0.0427 0.91175,0.11357 l 2.30787,0.28746 1.83775,0.2289 2.33637,0.29101 2.26514,0.28214 1.90898,0.23778 2.02295,0.25197 c 0.35907,-1.23061 0.63,-2.50269 0.7931,-3.81215 1.7098,-13.72706 -8.16229,-26.25629 -22.04869,-27.98593 z m -21.69945,41.33887 -0.13693,-0.17833 c 0.027,0.0471 0.0378,0.0668 0.0832,0.14476 0.0197,0.0136 0.0359,0.0222 0.0537,0.0336 z m 7.09404,-7.12641 c -0.002,0.0131 -0.002,0.0265 -0.005,0.0397 0.008,0.005 0.0179,0.0113 0.0268,0.0168 0.006,-0.0119 0.0136,-0.0252 0.0191,-0.0379 -0.012,-0.002 -0.0312,-0.0173 -0.041,-0.0185 z m -9.80172,3.07981 c 0.0118,0.0682 0.006,0.0933 0.012,0.13589 0.0104,0.0168 0.0279,0.0293 0.0377,0.045 -0.0145,-0.0613 -0.0338,-0.12002 -0.0498,-0.18093 z m 3.40126,4.40178 c -0.0435,-0.005 0.3927,0.69629 0.61011,0.90925 0.0257,0.0252 0.0784,0.0532 0.11997,0.0822 -0.22543,-0.32557 -0.59465,-0.84707 -0.67804,-0.94459 -0.0281,-0.0328 -0.0458,-0.0461 -0.052,-0.0468 z m 0.98592,1.14421 c 0.2744,0.1502 0.55142,0.27549 0.38076,0.19526 -0.19527,-0.0918 -0.24755,-0.12928 -0.38076,-0.19526 z m 1.36292,1.13741 c 0.007,0.0164 0.0496,0.11013 0.0969,0.26743 0.0279,0.0257 0.0874,0.0539 0.13421,0.0839 -0.14649,-0.21933 -0.24145,-0.37519 -0.23111,-0.35134 z m 1.31345,1.53445 c 0.19021,0.12869 0.38063,0.25695 0.57467,0.3807 -0.0624,-0.0575 -0.11968,-0.11357 -0.18131,-0.17043 -0.0257,-0.0213 -0.0533,-0.0422 -0.0789,-0.0635 -0.10572,-0.0442 -0.21389,-0.0904 -0.31447,-0.14669 z m 1.84245,0.88804 c 0.0665,0.0948 0.15203,0.22892 0.19497,0.29307 0.0251,0.0146 0.0557,0.0237 0.0821,0.0371 -0.0872,-0.11399 -0.18454,-0.22005 -0.27715,-0.33019 z"
       id="path3525-9"
       inkscape:connector-curvature="0" />
    <ellipse
       sodipodi:ry="8.5"
       sodipodi:rx="7"
       sodipodi:cy="279.86218"
       sodipodi:cx="358"
       style="fill:#800000;fill-opacity:1;stroke:none;display:inline"
       id="path5967"
       transform="matrix(0.45587621,0.05678238,-0.05274945,0.42349791,526.39822,420.5321)"
       cx="358"
       cy="279.86218"
       rx="7"
       ry="8.5" />
    <ellipse
       sodipodi:ry="58.571426"
       sodipodi:rx="55.714283"
       sodipodi:cy="236.6479"
       sodipodi:cx="310"
       style="fill:#800000;fill-opacity:1;display:inline"
       id="path3938-4"
       transform="matrix(0.6195241,0.07716581,-0.06561518,0.52679011,443.38081,381.08316)"
       cx="310"
       cy="236.6479"
       rx="55.714283"
       ry="58.571426" />
    <ellipse
       sodipodi:ry="58.571426"
       sodipodi:rx="55.714283"
       sodipodi:cy="236.6479"
       sodipodi:cx="310"
       style="fill:#ffffff;fill-opacity:1;display:inline"
       id="path3938-1-0"
       transform="matrix(0.57276757,0.07134197,-0.05918232,0.47514403,456.85358,396.40159)"
       cx="310"
       cy="236.6479"
       rx="55.714283"
       ry="58.571426" />
    <ellipse
       sodipodi:ry="63.214287"
       sodipodi:rx="32.5"
       sodipodi:cy="151.29076"
       sodipodi:cx="216.07143"
       style="fill:#b90400;fill-opacity:1;stroke:none;display:inline"
       id="path4800-8"
       transform="matrix(-0.41789698,0.42083664,-0.27232476,-0.46049096,693.74286,479.7706)"
       cx="216.07143"
       cy="151.29076"
       rx="32.5"
       ry="63.214287" />
    <ellipse
       sodipodi:ry="63.214287"
       sodipodi:rx="32.5"
       sodipodi:cy="151.29076"
       sodipodi:cx="216.07143"
       style="fill:#b90400;fill-opacity:1;stroke:none;display:inline"
       id="path4800-7-2"
       transform="matrix(-0.41789698,0.42083664,-0.27232476,-0.46049096,695.35751,482.73644)"
       cx="216.07143"
       cy="151.29076"
       rx="32.5"
       ry="63.214287" />
    <ellipse
       sodipodi:ry="63.214287"
       sodipodi:rx="32.5"
       sodipodi:cy="151.29076"
       sodipodi:cx="216.07143"
       style="fill:#800000;fill-opacity:1;stroke:none;display:inline"
       id="path4800-1-4"
       transform="matrix(-0.18619211,0.17828273,-0.12337309,-0.1971076,616.78891,479.50211)"
       cx="216.07143"
       cy="151.29076"
       rx="32.5"
       ry="63.214287" />
    <path
       sodipodi:type="arc"
       style="fill:#800000;fill-opacity:1;stroke:none;display:inline"
       id="path4942-2-5"
       sodipodi:cx="167.5"
       sodipodi:cy="420.21933"
       sodipodi:rx="28.214285"
       sodipodi:ry="37.857143"
       d="M 191.8995,439.22853 A 28.214285,37.857143 0 1 1 174.4879,383.54167 L 167.5,420.21933 z"
       sodipodi:start="0.52605967"
       sodipodi:end="4.962666"
       transform="matrix(0.49155865,0.06122687,-0.049544,0.397763,530.11044,310.00886)" />
    <path
       sodipodi:type="arc"
       style="fill:#800000;fill-opacity:1;fill-rule:evenodd;stroke:none;display:inline"
       id="path3525-3-2"
       sodipodi:cx="369.10974"
       sodipodi:cy="302.12189"
       sodipodi:rx="55.154327"
       sodipodi:ry="58.689861"
       d="m 424.26407,302.12189 a 55.154327,58.689861 0 1 1 -109.9111,-7.03402 l 54.75677,7.03402 z"
       transform="matrix(0.45587621,0.05678238,-0.05274945,0.42349791,506.12902,419.78729)"
       sodipodi:start="0"
       sodipodi:end="3.2617321" />
    <path
       sodipodi:type="arc"
       style="fill:#b90400;fill-opacity:1;fill-rule:evenodd;stroke:none;display:inline"
       id="path3525-3-8-7"
       sodipodi:cx="369.10974"
       sodipodi:cy="302.12189"
       sodipodi:rx="55.154327"
       sodipodi:ry="58.689861"
       d="m 424.26407,302.12189 a 55.154327,58.689861 0 1 1 -109.9111,-7.03402 l 54.75677,7.03402 z"
       transform="matrix(0.43107981,0.05369383,-0.04552613,0.36550557,511.10652,439.57988)"
       sodipodi:start="0"
       sodipodi:end="3.2617321" />
    <ellipse
       transform="matrix(0.45587621,0.05678238,-0.05274945,0.42349791,479.54534,403.1817)"
       sodipodi:ry="40"
       sodipodi:rx="39.767441"
       sodipodi:cy="239.43326"
       sodipodi:cx="357.3313"
       style="fill:#00b904;fill-opacity:1;display:inline"
       id="path3959-9-1"
       cx="357.3313"
       cy="239.43326"
       rx="39.767441"
       ry="40" />
    <ellipse
       transform="matrix(0.45587621,0.05678238,-0.05274945,0.42349791,479.54534,403.1817)"
       sodipodi:ry="32.727272"
       sodipodi:rx="34.086376"
       sodipodi:cy="235.79688"
       sodipodi:cx="364.90613"
       style="fill:#000000;fill-opacity:1;display:inline"
       id="path3959-7-4-1"
       cx="364.90613"
       cy="235.79688"
       rx="34.086376"
       ry="32.727272" />
    <circle
       transform="matrix(0.45587621,0.05678238,-0.05274945,0.42349791,479.54534,403.1817)"
       sodipodi:ry="12.121831"
       sodipodi:rx="12.121831"
       sodipodi:cy="217.25317"
       sodipodi:cx="355.58865"
       style="fill:#ffffff;fill-opacity:1;display:inline"
       id="path3979-8-5"
       cx="355.58865"
       cy="217.25317"
       r="12.121831" />
    <ellipse
       sodipodi:ry="58.571426"
       sodipodi:rx="55.714283"
       sodipodi:cy="236.6479"
       sodipodi:cx="310"
       style="fill:#800000;fill-opacity:1;display:inline"
       id="path3938-1-0-7"
       transform="matrix(0.59188425,0.07587309,-0.06115759,0.50532172,451.34584,386.31583)"
       cx="310"
       cy="236.6479"
       rx="55.714283"
       ry="58.571426" />
    <path
       style="fill:#b90400;fill-opacity:1;stroke:none"
       d="m 572.85714,525.49124 c 0,0 78.95964,17.13651 80.71429,12.56678"
       id="path4153"
       inkscape:connector-curvature="0" />
  </g>
</svg>
