<?xml version="1.0" encoding="UTF-8" standalone="no"?>
<!-- Created with Inkscape (http://www.inkscape.org/) -->

<svg
   xmlns:dc="http://purl.org/dc/elements/1.1/"
   xmlns:cc="http://creativecommons.org/ns#"
   xmlns:rdf="http://www.w3.org/1999/02/22-rdf-syntax-ns#"
   xmlns:svg="http://www.w3.org/2000/svg"
   xmlns="http://www.w3.org/2000/svg"
   xmlns:xlink="http://www.w3.org/1999/xlink"
   xmlns:sodipodi="http://sodipodi.sourceforge.net/DTD/sodipodi-0.dtd"
   xmlns:inkscape="http://www.inkscape.org/namespaces/inkscape"
   width="210mm"
   height="297mm"
   viewBox="0 0 744.09448819 1052.3622047"
   id="svg2"
   version="1.1"
   inkscape:version="0.91 r13725"
   sodipodi:docname="story1.svg">
  <defs
     id="defs4">
    <radialGradient
       inkscape:collect="always"
       xlink:href="#linearGradient6567"
       id="radialGradient6573"
       cx="428.57144"
       cy="483.80356"
       fx="428.57144"
       fy="483.80356"
       r="552.85712"
       gradientTransform="matrix(1.0651416,-0.03762908,0.01567153,0.51761826,-175.42894,205.39179)"
       gradientUnits="userSpaceOnUse" />
    <linearGradient
       inkscape:collect="always"
       id="linearGradient6567">
      <stop
         style="stop-color:#e1e100;stop-opacity:1;"
         offset="0"
         id="stop6569" />
      <stop
         style="stop-color:#e1e100;stop-opacity:0;"
         offset="1"
         id="stop6571" />
    </linearGradient>
  </defs>
  <sodipodi:namedview
     id="base"
     pagecolor="#ffffff"
     bordercolor="#666666"
     borderopacity="1.0"
     inkscape:pageopacity="0.0"
     inkscape:pageshadow="2"
     inkscape:zoom="0.98994949"
     inkscape:cx="324.34581"
     inkscape:cy="683.3342"
     inkscape:document-units="px"
     inkscape:current-layer="layer1"
     showgrid="false"
     inkscape:window-width="1920"
     inkscape:window-height="1017"
     inkscape:window-x="-8"
     inkscape:window-y="-8"
     inkscape:window-maximized="1" />
  <metadata
     id="metadata7">
    <rdf:RDF>
      <cc:Work
         rdf:about="">
        <dc:format>image/svg+xml</dc:format>
        <dc:type
           rdf:resource="http://purl.org/dc/dcmitype/StillImage" />
        <dc:title></dc:title>
      </cc:Work>
    </rdf:RDF>
  </metadata>
  <g
     inkscape:label="Layer 1"
     inkscape:groupmode="layer"
     id="layer1">
    <rect
       style="opacity:1;fill:#f5ac13;fill-opacity:1;stroke:#000000;stroke-opacity:1"
       id="rect3336"
       width="782.85718"
       height="1078.5714"
       x="-25.714285"
       y="-11.923511"
       rx="60.777"
       ry="21.4848" />
    <rect
       style="opacity:1;fill:#464646;fill-opacity:1;stroke:none;stroke-width:0.94291192;stroke-opacity:1"
       id="rect4138"
       width="787.30139"
       height="394.3428"
       x="-27.344719"
       y="673.17053"
       rx="54.73019"
       ry="11.492249" />
    <rect
       style="fill:url(#radialGradient6573);fill-opacity:1;stroke:none"
       id="rect6557"
       width="784.48572"
       height="572.64392"
       x="-25.557489"
       y="101.35987"
       rx="23.980541"
       ry="8.9900103" />
  </g>
  <g
     inkscape:groupmode="layer"
     id="layer3"
     inkscape:label="Layer 3"
     sodipodi:insensitive="true">
    <ellipse
       style="fill:#2d2d2d;fill-opacity:1;fill-rule:nonzero;stroke:none"
       id="path5222"
       cx="536.28711"
       cy="865.98901"
       rx="12.879445"
       ry="38.385796" />
    <ellipse
       style="fill:#2d2d2d;fill-opacity:1;fill-rule:nonzero;stroke:none"
       id="path5222-0"
       cx="571.89502"
       cy="868.5144"
       rx="12.879445"
       ry="38.385796" />
    <ellipse
       style="fill:#2d2d2d;fill-opacity:1;fill-rule:nonzero;stroke:none"
       id="path5222-9"
       cx="630.48383"
       cy="864.47382"
       rx="12.879445"
       ry="38.385796" />
    <ellipse
       style="fill:#2d2d2d;fill-opacity:1;fill-rule:nonzero;stroke:none"
       id="path5222-7"
       cx="661.29352"
       cy="863.96875"
       rx="12.879445"
       ry="38.385796" />
    <ellipse
       style="fill:#474747;fill-opacity:1;fill-rule:nonzero;stroke:none"
       id="path5222-3"
       cx="535.1507"
       cy="862.20093"
       rx="12.879445"
       ry="38.385796" />
    <ellipse
       style="fill:#474747;fill-opacity:1;fill-rule:nonzero;stroke:none"
       id="path5222-0-7"
       cx="570.75861"
       cy="864.72632"
       rx="12.879445"
       ry="38.385796" />
    <ellipse
       style="fill:#474747;fill-opacity:1;fill-rule:nonzero;stroke:none"
       id="path5222-9-2"
       cx="629.34741"
       cy="860.68573"
       rx="12.879445"
       ry="38.385796" />
    <ellipse
       style="fill:#474747;fill-opacity:1;fill-rule:nonzero;stroke:none"
       id="path5222-7-6"
       cx="660.1571"
       cy="860.18066"
       rx="12.879445"
       ry="38.385796" />
    <ellipse
       ry="30.809652"
       rx="32.072342"
       cy="788.71234"
       cx="560.53076"
       style="fill:#000000;fill-opacity:1;fill-rule:nonzero;stroke:none"
       id="path4979" />
    <ellipse
       ry="30.809652"
       rx="32.072342"
       cy="797.80371"
       cx="601.69452"
       style="fill:#000000;fill-opacity:1;fill-rule:nonzero;stroke:none"
       id="path4979-3" />
    <ellipse
       ry="30.809652"
       rx="32.072342"
       cy="828.10834"
       cx="572.40009"
       style="fill:#000000;fill-opacity:1;fill-rule:nonzero;stroke:none"
       id="path4979-34" />
    <ellipse
       ry="30.809652"
       rx="32.072342"
       cy="735.67938"
       cx="530.09991"
       style="fill:#000000;fill-opacity:1;fill-rule:nonzero;stroke:none"
       id="path4979-1" />
    <ellipse
       ry="30.809652"
       rx="32.072342"
       cy="744.77075"
       cx="571.26367"
       style="fill:#000000;fill-opacity:1;fill-rule:nonzero;stroke:none"
       id="path4979-3-1" />
    <ellipse
       ry="30.809652"
       rx="32.072342"
       cy="775.07532"
       cx="541.96924"
       style="fill:#000000;fill-opacity:1;fill-rule:nonzero;stroke:none"
       id="path4979-34-3" />
    <ellipse
       ry="30.809652"
       rx="32.072342"
       cy="828.6134"
       cx="533.63544"
       style="fill:#000000;fill-opacity:1;fill-rule:nonzero;stroke:none"
       id="path4979-8" />
    <ellipse
       ry="30.809652"
       rx="32.072342"
       cy="837.70477"
       cx="574.79919"
       style="fill:#000000;fill-opacity:1;fill-rule:nonzero;stroke:none"
       id="path4979-3-7" />
    <ellipse
       ry="30.809652"
       rx="32.072342"
       cy="740.7301"
       cx="606.36646"
       style="fill:#000000;fill-opacity:1;fill-rule:nonzero;stroke:none"
       id="path4979-2" />
    <ellipse
       ry="30.809652"
       rx="32.072342"
       cy="749.82147"
       cx="647.53015"
       style="fill:#000000;fill-opacity:1;fill-rule:nonzero;stroke:none"
       id="path4979-3-77" />
    <ellipse
       ry="30.809652"
       rx="32.072342"
       cy="780.12604"
       cx="618.23578"
       style="fill:#000000;fill-opacity:1;fill-rule:nonzero;stroke:none"
       id="path4979-34-9" />
    <ellipse
       ry="30.809652"
       rx="32.072342"
       cy="784.67175"
       cx="618.99335"
       style="fill:#000000;fill-opacity:1;fill-rule:nonzero;stroke:none"
       id="path4979-31" />
    <ellipse
       ry="30.809652"
       rx="32.072342"
       cy="793.76312"
       cx="660.1571"
       style="fill:#000000;fill-opacity:1;fill-rule:nonzero;stroke:none"
       id="path4979-3-9" />
    <ellipse
       ry="30.809652"
       rx="32.072342"
       cy="824.06769"
       cx="630.86267"
       style="fill:#000000;fill-opacity:1;fill-rule:nonzero;stroke:none"
       id="path4979-34-8" />
    <ellipse
       ry="30.809652"
       rx="32.072342"
       cy="831.64386"
       cx="603.84106"
       style="fill:#000000;fill-opacity:1;fill-rule:nonzero;stroke:none"
       id="path4979-6" />
    <ellipse
       ry="30.809652"
       rx="32.072342"
       cy="840.73523"
       cx="645.00482"
       style="fill:#000000;fill-opacity:1;fill-rule:nonzero;stroke:none"
       id="path4979-3-5" />
    <ellipse
       ry="30.809652"
       rx="32.072342"
       cy="802.85449"
       cx="658.38928"
       style="fill:#000000;fill-opacity:1;fill-rule:nonzero;stroke:none"
       id="path4979-0" />
    <ellipse
       ry="30.809652"
       rx="32.072342"
       cy="811.94586"
       cx="699.55304"
       style="fill:#000000;fill-opacity:1;fill-rule:nonzero;stroke:none"
       id="path4979-3-6" />
    <ellipse
       ry="30.809652"
       rx="32.072342"
       cy="842.25043"
       cx="670.25861"
       style="fill:#000000;fill-opacity:1;fill-rule:nonzero;stroke:none"
       id="path4979-34-1" />
    <ellipse
       ry="30.809652"
       rx="32.072342"
       cy="755.88239"
       cx="651.8233"
       style="fill:#000000;fill-opacity:1;fill-rule:nonzero;stroke:none"
       id="path4979-38" />
    <ellipse
       ry="30.809652"
       rx="32.072342"
       cy="764.97375"
       cx="692.98706"
       style="fill:#000000;fill-opacity:1;fill-rule:nonzero;stroke:none"
       id="path4979-3-93" />
    <ellipse
       ry="30.809652"
       rx="32.072342"
       cy="795.27832"
       cx="663.69263"
       style="fill:#000000;fill-opacity:1;fill-rule:nonzero;stroke:none"
       id="path4979-34-44" />
    <ellipse
       ry="30.809652"
       rx="32.072342"
       cy="793.00549"
       cx="563.56122"
       style="fill:#000000;fill-opacity:1;fill-rule:nonzero;stroke:none"
       id="path4979-4" />
    <ellipse
       ry="30.809652"
       rx="32.072342"
       cy="802.09686"
       cx="604.72498"
       style="fill:#000000;fill-opacity:1;fill-rule:nonzero;stroke:none"
       id="path4979-3-96" />
    <ellipse
       ry="30.809652"
       rx="32.072342"
       cy="832.40149"
       cx="575.43054"
       style="fill:#000000;fill-opacity:1;fill-rule:nonzero;stroke:none"
       id="path4979-34-37" />
    <ellipse
       ry="30.809652"
       rx="32.072342"
       cy="739.97253"
       cx="533.13037"
       style="fill:#000000;fill-opacity:1;fill-rule:nonzero;stroke:none"
       id="path4979-1-8" />
    <ellipse
       ry="30.809652"
       rx="32.072342"
       cy="749.0639"
       cx="574.29413"
       style="fill:#000000;fill-opacity:1;fill-rule:nonzero;stroke:none"
       id="path4979-3-1-8" />
    <ellipse
       ry="30.809652"
       rx="32.072342"
       cy="779.36847"
       cx="544.99969"
       style="fill:#000000;fill-opacity:1;fill-rule:nonzero;stroke:none"
       id="path4979-34-3-2" />
    <ellipse
       ry="30.809652"
       rx="32.072342"
       cy="832.90656"
       cx="536.66589"
       style="fill:#000000;fill-opacity:1;fill-rule:nonzero;stroke:none"
       id="path4979-8-9" />
    <ellipse
       ry="30.809652"
       rx="32.072342"
       cy="841.99792"
       cx="577.82965"
       style="fill:#000000;fill-opacity:1;fill-rule:nonzero;stroke:none"
       id="path4979-3-7-1" />
    <ellipse
       ry="30.809652"
       rx="32.072342"
       cy="745.02325"
       cx="609.39691"
       style="fill:#000000;fill-opacity:1;fill-rule:nonzero;stroke:none"
       id="path4979-2-3" />
    <ellipse
       ry="30.809652"
       rx="32.072342"
       cy="754.11462"
       cx="650.56061"
       style="fill:#000000;fill-opacity:1;fill-rule:nonzero;stroke:none"
       id="path4979-3-77-5" />
    <ellipse
       ry="30.809652"
       rx="32.072342"
       cy="784.41919"
       cx="621.26624"
       style="fill:#000000;fill-opacity:1;fill-rule:nonzero;stroke:none"
       id="path4979-34-9-9" />
    <ellipse
       ry="30.809652"
       rx="32.072342"
       cy="788.9649"
       cx="622.0238"
       style="fill:#000000;fill-opacity:1;fill-rule:nonzero;stroke:none"
       id="path4979-31-8" />
    <ellipse
       ry="30.809652"
       rx="32.072342"
       cy="798.05627"
       cx="663.18756"
       style="fill:#000000;fill-opacity:1;fill-rule:nonzero;stroke:none"
       id="path4979-3-9-4" />
    <ellipse
       ry="30.809652"
       rx="32.072342"
       cy="828.36084"
       cx="633.89313"
       style="fill:#000000;fill-opacity:1;fill-rule:nonzero;stroke:none"
       id="path4979-34-8-0" />
    <ellipse
       ry="30.809652"
       rx="32.072342"
       cy="835.93701"
       cx="606.87152"
       style="fill:#000000;fill-opacity:1;fill-rule:nonzero;stroke:none"
       id="path4979-6-7" />
    <ellipse
       ry="30.809652"
       rx="32.072342"
       cy="845.02838"
       cx="648.03528"
       style="fill:#000000;fill-opacity:1;fill-rule:nonzero;stroke:none"
       id="path4979-3-5-6" />
    <ellipse
       ry="30.809652"
       rx="32.072342"
       cy="807.14764"
       cx="661.41974"
       style="fill:#000000;fill-opacity:1;fill-rule:nonzero;stroke:none"
       id="path4979-0-3" />
    <ellipse
       ry="30.809652"
       rx="32.072342"
       cy="816.23901"
       cx="702.5835"
       style="fill:#000000;fill-opacity:1;fill-rule:nonzero;stroke:none"
       id="path4979-3-6-6" />
    <ellipse
       ry="30.809652"
       rx="32.072342"
       cy="846.54358"
       cx="673.28906"
       style="fill:#000000;fill-opacity:1;fill-rule:nonzero;stroke:none"
       id="path4979-34-1-1" />
    <ellipse
       ry="30.809652"
       rx="32.072342"
       cy="760.17554"
       cx="654.85376"
       style="fill:#000000;fill-opacity:1;fill-rule:nonzero;stroke:none"
       id="path4979-38-5" />
    <ellipse
       ry="30.809652"
       rx="32.072342"
       cy="769.26691"
       cx="696.01752"
       style="fill:#000000;fill-opacity:1;fill-rule:nonzero;stroke:none"
       id="path4979-3-93-4" />
    <ellipse
       ry="30.809652"
       rx="32.072342"
       cy="799.57147"
       cx="666.72308"
       style="fill:#000000;fill-opacity:1;fill-rule:nonzero;stroke:none"
       id="path4979-34-44-2" />
    <ellipse
       style="fill:#2d2d2d;fill-opacity:1;fill-rule:nonzero;stroke:none"
       id="path5386-5"
       transform="matrix(0.74131832,0.67115359,-0.67115361,0.74131831,0,0)"
       cx="849.06909"
       cy="233.22598"
       rx="25.253813"
       ry="16.162441" />
    <ellipse
       style="fill:#2d2d2d;fill-opacity:1;fill-rule:nonzero;stroke:none"
       id="path4303"
       transform="matrix(0.98070193,0.19550888,-0.19550888,0.98070193,0,0)"
       cx="652.35632"
       cy="672.63629"
       rx="51.246548"
       ry="63.28788" />
    <ellipse
       style="fill:#474747;fill-opacity:1;fill-rule:nonzero;stroke:none"
       id="path4303-8"
       transform="matrix(0.98209985,0.18836106,-0.20290562,0.9791983,0,0)"
       cx="654.83777"
       cy="676.03839"
       rx="47.549999"
       ry="56.662724" />
    <ellipse
       style="fill:#f2f2f2;fill-opacity:1;fill-rule:nonzero;stroke:none"
       id="path5303"
       cx="480.71329"
       cy="772.33368"
       rx="11.111678"
       ry="11.616755" />
    <ellipse
       style="fill:#f2f2f2;fill-opacity:1;fill-rule:nonzero;stroke:none"
       id="path5303-0"
       cx="511.01785"
       cy="774.85907"
       rx="11.111678"
       ry="11.616755" />
    <ellipse
       style="fill:#2d2d2d;fill-opacity:1;fill-rule:nonzero;stroke:none"
       id="path5330"
       cx="475.91504"
       cy="809.45679"
       rx="3.2829957"
       ry="5.3033009" />
    <ellipse
       style="fill:#2d2d2d;fill-opacity:1;fill-rule:nonzero;stroke:none"
       id="path5330-6"
       cx="494.85541"
       cy="811.72961"
       rx="3.2829957"
       ry="5.3033009" />
    <ellipse
       style="fill:#2d2d2d;fill-opacity:1;fill-rule:nonzero;stroke:none"
       id="path5330-5"
       cx="477.17773"
       cy="776.12177"
       rx="5.8083773"
       ry="6.060915" />
    <ellipse
       style="fill:#2d2d2d;fill-opacity:1;fill-rule:nonzero;stroke:none"
       id="path5330-5-7"
       cx="507.4823"
       cy="778.39459"
       rx="5.8083773"
       ry="6.060915" />
    <ellipse
       style="fill:#2d2d2d;fill-opacity:1;fill-rule:nonzero;stroke:none"
       id="path5386"
       transform="matrix(0.82384537,-0.56681461,0.56681461,0.82384537,0,0)"
       cx="30.935452"
       cy="930.5567"
       rx="25.253813"
       ry="16.162441" />
    <ellipse
       style="fill:#2d2d2d;fill-opacity:1;fill-rule:nonzero;stroke:none"
       id="path5222-37"
       cx="-404.9751"
       cy="909.1933"
       rx="8.4722023"
       ry="25.334623"
       transform="scale(-1,1)" />
    <ellipse
       style="fill:#2d2d2d;fill-opacity:1;fill-rule:nonzero;stroke:none"
       id="path5222-0-6"
       cx="-381.55194"
       cy="910.86005"
       rx="8.4722023"
       ry="25.334623"
       transform="scale(-1,1)" />
    <ellipse
       style="fill:#2d2d2d;fill-opacity:1;fill-rule:nonzero;stroke:none"
       id="path5222-9-0"
       cx="-343.01175"
       cy="908.19324"
       rx="8.4722023"
       ry="25.334623"
       transform="scale(-1,1)" />
    <ellipse
       style="fill:#2d2d2d;fill-opacity:1;fill-rule:nonzero;stroke:none"
       id="path5222-7-8"
       cx="-322.7449"
       cy="907.85992"
       rx="8.4722023"
       ry="25.334623"
       transform="scale(-1,1)" />
    <ellipse
       style="fill:#474747;fill-opacity:1;fill-rule:nonzero;stroke:none"
       id="path5222-3-6"
       cx="-405.72266"
       cy="906.69312"
       rx="8.4722023"
       ry="25.334623"
       transform="scale(-1,1)" />
    <ellipse
       style="fill:#474747;fill-opacity:1;fill-rule:nonzero;stroke:none"
       id="path5222-0-7-2"
       cx="-382.2995"
       cy="908.35992"
       rx="8.4722023"
       ry="25.334623"
       transform="scale(-1,1)" />
    <ellipse
       style="fill:#474747;fill-opacity:1;fill-rule:nonzero;stroke:none"
       id="path5222-9-2-4"
       cx="-343.75928"
       cy="905.69312"
       rx="8.4722023"
       ry="25.334623"
       transform="scale(-1,1)" />
    <ellipse
       style="fill:#474747;fill-opacity:1;fill-rule:nonzero;stroke:none"
       id="path5222-7-6-5"
       cx="-323.49243"
       cy="905.35974"
       rx="8.4722023"
       ry="25.334623"
       transform="scale(-1,1)" />
    <ellipse
       style="fill:#cccccc;fill-opacity:1;fill-rule:nonzero;stroke:none"
       id="path4979-10"
       cx="-389.02744"
       cy="858.19073"
       rx="21.097445"
       ry="20.334368"
       transform="scale(-1,1)" />
    <ellipse
       style="fill:#cccccc;fill-opacity:1;fill-rule:nonzero;stroke:none"
       id="path4979-3-0"
       cx="-361.94962"
       cy="864.19104"
       rx="21.097445"
       ry="20.334368"
       transform="scale(-1,1)" />
    <ellipse
       style="fill:#cccccc;fill-opacity:1;fill-rule:nonzero;stroke:none"
       id="path4979-34-93"
       cx="-381.21973"
       cy="884.19202"
       rx="21.097445"
       ry="20.334368"
       transform="scale(-1,1)" />
    <ellipse
       style="fill:#cccccc;fill-opacity:1;fill-rule:nonzero;stroke:none"
       id="path4979-1-9"
       cx="-409.04507"
       cy="823.1889"
       rx="21.097445"
       ry="20.334368"
       transform="scale(-1,1)" />
    <ellipse
       style="fill:#cccccc;fill-opacity:1;fill-rule:nonzero;stroke:none"
       id="path4979-3-1-5"
       cx="-381.96725"
       cy="829.18921"
       rx="21.097445"
       ry="20.334368"
       transform="scale(-1,1)" />
    <ellipse
       style="fill:#cccccc;fill-opacity:1;fill-rule:nonzero;stroke:none"
       id="path4979-34-3-0"
       cx="-401.23737"
       cy="849.19025"
       rx="21.097445"
       ry="20.334368"
       transform="scale(-1,1)" />
    <ellipse
       style="fill:#cccccc;fill-opacity:1;fill-rule:nonzero;stroke:none"
       id="path4979-8-2"
       cx="-406.71936"
       cy="884.52539"
       rx="21.097445"
       ry="20.334368"
       transform="scale(-1,1)" />
    <ellipse
       style="fill:#cccccc;fill-opacity:1;fill-rule:nonzero;stroke:none"
       id="path4979-3-7-2"
       cx="-379.64154"
       cy="890.5257"
       rx="21.097445"
       ry="20.334368"
       transform="scale(-1,1)" />
    <ellipse
       style="fill:#cccccc;fill-opacity:1;fill-rule:nonzero;stroke:none"
       id="path4979-2-1"
       cx="-358.87637"
       cy="826.52246"
       rx="21.097445"
       ry="20.334368"
       transform="scale(-1,1)" />
    <ellipse
       style="fill:#cccccc;fill-opacity:1;fill-rule:nonzero;stroke:none"
       id="path4979-3-77-3"
       cx="-331.79852"
       cy="832.52277"
       rx="21.097445"
       ry="20.334368"
       transform="scale(-1,1)" />
    <ellipse
       style="fill:#cccccc;fill-opacity:1;fill-rule:nonzero;stroke:none"
       id="path4979-34-9-2"
       cx="-351.06863"
       cy="852.52374"
       rx="21.097445"
       ry="20.334368"
       transform="scale(-1,1)" />
    <ellipse
       style="fill:#cccccc;fill-opacity:1;fill-rule:nonzero;stroke:none"
       id="path4979-31-1"
       cx="-350.57028"
       cy="855.52386"
       rx="21.097445"
       ry="20.334368"
       transform="scale(-1,1)" />
    <ellipse
       style="fill:#cccccc;fill-opacity:1;fill-rule:nonzero;stroke:none"
       id="path4979-3-9-6"
       cx="-323.49243"
       cy="861.52417"
       rx="21.097445"
       ry="20.334368"
       transform="scale(-1,1)" />
    <ellipse
       style="fill:#cccccc;fill-opacity:1;fill-rule:nonzero;stroke:none"
       id="path4979-34-8-4"
       cx="-342.76254"
       cy="881.52527"
       rx="21.097445"
       ry="20.334368"
       transform="scale(-1,1)" />
    <ellipse
       style="fill:#cccccc;fill-opacity:1;fill-rule:nonzero;stroke:none"
       id="path4979-6-4"
       cx="-360.53757"
       cy="886.52551"
       rx="21.097445"
       ry="20.334368"
       transform="scale(-1,1)" />
    <ellipse
       style="fill:#cccccc;fill-opacity:1;fill-rule:nonzero;stroke:none"
       id="path4979-3-5-67"
       cx="-333.45975"
       cy="892.52576"
       rx="21.097445"
       ry="20.334368"
       transform="scale(-1,1)" />
    <ellipse
       style="fill:#cccccc;fill-opacity:1;fill-rule:nonzero;stroke:none"
       id="path4979-0-6"
       cx="-324.6553"
       cy="867.52448"
       rx="21.097445"
       ry="20.334368"
       transform="scale(-1,1)" />
    <ellipse
       style="fill:#cccccc;fill-opacity:1;fill-rule:nonzero;stroke:none"
       id="path4979-3-6-0"
       cx="-297.57748"
       cy="873.52478"
       rx="21.097445"
       ry="20.334368"
       transform="scale(-1,1)" />
    <ellipse
       style="fill:#cccccc;fill-opacity:1;fill-rule:nonzero;stroke:none"
       id="path4979-34-1-6"
       cx="-316.84756"
       cy="893.52588"
       rx="21.097445"
       ry="20.334368"
       transform="scale(-1,1)" />
    <ellipse
       style="fill:#cccccc;fill-opacity:1;fill-rule:nonzero;stroke:none"
       id="path4979-38-9"
       cx="-328.97446"
       cy="836.52295"
       rx="21.097445"
       ry="20.334368"
       transform="scale(-1,1)" />
    <ellipse
       style="fill:#cccccc;fill-opacity:1;fill-rule:nonzero;stroke:none"
       id="path4979-3-93-5"
       cx="-301.89664"
       cy="842.52325"
       rx="21.097445"
       ry="20.334368"
       transform="scale(-1,1)" />
    <ellipse
       style="fill:#cccccc;fill-opacity:1;fill-rule:nonzero;stroke:none"
       id="path4979-34-44-8"
       cx="-321.16675"
       cy="862.52429"
       rx="21.097445"
       ry="20.334368"
       transform="scale(-1,1)" />
    <ellipse
       style="fill:#f2f2f2;fill-opacity:1;fill-rule:nonzero;stroke:none"
       id="path4979-4-3"
       cx="-387.03397"
       cy="861.02423"
       rx="21.097445"
       ry="20.334368"
       transform="scale(-1,1)" />
    <ellipse
       style="fill:#f2f2f2;fill-opacity:1;fill-rule:nonzero;stroke:none"
       id="path4979-3-96-7"
       cx="-359.95615"
       cy="867.02454"
       rx="21.097445"
       ry="20.334368"
       transform="scale(-1,1)" />
    <ellipse
       style="fill:#f2f2f2;fill-opacity:1;fill-rule:nonzero;stroke:none"
       id="path4979-34-37-0"
       cx="-379.22626"
       cy="887.02551"
       rx="21.097445"
       ry="20.334368"
       transform="scale(-1,1)" />
    <ellipse
       style="fill:#f2f2f2;fill-opacity:1;fill-rule:nonzero;stroke:none"
       id="path4979-1-8-8"
       cx="-407.05164"
       cy="826.0224"
       rx="21.097445"
       ry="20.334368"
       transform="scale(-1,1)" />
    <ellipse
       style="fill:#f2f2f2;fill-opacity:1;fill-rule:nonzero;stroke:none"
       id="path4979-3-1-8-2"
       cx="-379.97379"
       cy="832.02271"
       rx="21.097445"
       ry="20.334368"
       transform="scale(-1,1)" />
    <ellipse
       style="fill:#f2f2f2;fill-opacity:1;fill-rule:nonzero;stroke:none"
       id="path4979-34-3-2-0"
       cx="-399.2439"
       cy="852.02374"
       rx="21.097445"
       ry="20.334368"
       transform="scale(-1,1)" />
    <ellipse
       style="fill:#f2f2f2;fill-opacity:1;fill-rule:nonzero;stroke:none"
       id="path4979-8-9-4"
       cx="-404.72592"
       cy="887.35889"
       rx="21.097445"
       ry="20.334368"
       transform="scale(-1,1)" />
    <ellipse
       style="fill:#f2f2f2;fill-opacity:1;fill-rule:nonzero;stroke:none"
       id="path4979-3-7-1-6"
       cx="-377.6481"
       cy="893.35919"
       rx="21.097445"
       ry="20.334368"
       transform="scale(-1,1)" />
    <ellipse
       style="fill:#f2f2f2;fill-opacity:1;fill-rule:nonzero;stroke:none"
       id="path4979-2-3-1"
       cx="-356.8829"
       cy="829.3559"
       rx="21.097445"
       ry="20.334368"
       transform="scale(-1,1)" />
    <ellipse
       style="fill:#f2f2f2;fill-opacity:1;fill-rule:nonzero;stroke:none"
       id="path4979-3-77-5-6"
       cx="-329.80508"
       cy="835.3562"
       rx="21.097445"
       ry="20.334368"
       transform="scale(-1,1)" />
    <ellipse
       style="fill:#f2f2f2;fill-opacity:1;fill-rule:nonzero;stroke:none"
       id="path4979-34-9-9-1"
       cx="-349.07516"
       cy="855.35724"
       rx="21.097445"
       ry="20.334368"
       transform="scale(-1,1)" />
    <ellipse
       style="fill:#f2f2f2;fill-opacity:1;fill-rule:nonzero;stroke:none"
       id="path4979-31-8-1"
       cx="-348.57681"
       cy="858.35736"
       rx="21.097445"
       ry="20.334368"
       transform="scale(-1,1)" />
    <ellipse
       style="fill:#f2f2f2;fill-opacity:1;fill-rule:nonzero;stroke:none"
       id="path4979-3-9-4-7"
       cx="-321.49899"
       cy="864.35767"
       rx="21.097445"
       ry="20.334368"
       transform="scale(-1,1)" />
    <ellipse
       style="fill:#f2f2f2;fill-opacity:1;fill-rule:nonzero;stroke:none"
       id="path4979-34-8-0-8"
       cx="-340.7691"
       cy="884.3587"
       rx="21.097445"
       ry="20.334368"
       transform="scale(-1,1)" />
    <ellipse
       style="fill:#f2f2f2;fill-opacity:1;fill-rule:nonzero;stroke:none"
       id="path4979-6-7-9"
       cx="-358.5441"
       cy="889.35895"
       rx="21.097445"
       ry="20.334368"
       transform="scale(-1,1)" />
    <ellipse
       style="fill:#f2f2f2;fill-opacity:1;fill-rule:nonzero;stroke:none"
       id="path4979-3-5-6-5"
       cx="-331.46628"
       cy="895.35925"
       rx="21.097445"
       ry="20.334368"
       transform="scale(-1,1)" />
    <ellipse
       style="fill:#f2f2f2;fill-opacity:1;fill-rule:nonzero;stroke:none"
       id="path4979-0-3-2"
       cx="-322.66187"
       cy="870.35797"
       rx="21.097445"
       ry="20.334368"
       transform="scale(-1,1)" />
    <ellipse
       style="fill:#f2f2f2;fill-opacity:1;fill-rule:nonzero;stroke:none"
       id="path4979-3-6-6-5"
       cx="-295.58401"
       cy="876.35828"
       rx="21.097445"
       ry="20.334368"
       transform="scale(-1,1)" />
    <ellipse
       style="fill:#f2f2f2;fill-opacity:1;fill-rule:nonzero;stroke:none"
       id="path4979-34-1-1-1"
       cx="-314.85413"
       cy="896.35931"
       rx="21.097445"
       ry="20.334368"
       transform="scale(-1,1)" />
    <ellipse
       style="fill:#f2f2f2;fill-opacity:1;fill-rule:nonzero;stroke:none"
       id="path4979-38-5-6"
       cx="-326.98102"
       cy="839.35638"
       rx="21.097445"
       ry="20.334368"
       transform="scale(-1,1)" />
    <ellipse
       style="fill:#f2f2f2;fill-opacity:1;fill-rule:nonzero;stroke:none"
       id="path4979-3-93-4-4"
       cx="-299.90317"
       cy="845.35669"
       rx="21.097445"
       ry="20.334368"
       transform="scale(-1,1)" />
    <ellipse
       style="fill:#f2f2f2;fill-opacity:1;fill-rule:nonzero;stroke:none"
       id="path4979-34-44-2-0"
       cx="-319.17328"
       cy="865.35773"
       rx="21.097445"
       ry="20.334368"
       transform="scale(-1,1)" />
    <ellipse
       ry="10.651267"
       rx="16.637117"
       cy="913.12213"
       cx="222.98178"
       style="fill:#2d2d2d;fill-opacity:1;fill-rule:nonzero;stroke:none"
       id="path5386-5-7"
       transform="matrix(-0.7402063,0.67237982,0.66992594,0.74242793,0,0)" />
    <ellipse
       ry="41.764702"
       rx="33.714691"
       cy="923.58789"
       cx="-248.23991"
       style="fill:#2d2d2d;fill-opacity:1;fill-rule:nonzero;stroke:none"
       id="path4303-5"
       transform="matrix(-0.98057684,0.19613532,0.19488429,0.98082624,0,0)" />
    <ellipse
       ry="37.392288"
       rx="31.282476"
       cy="920.91449"
       cx="-243.05026"
       style="fill:#474747;fill-opacity:1;fill-rule:nonzero;stroke:none"
       id="path4303-8-7"
       transform="matrix(-0.98198357,0.18896632,0.20225937,0.97933199,0,0)" />
    <ellipse
       ry="7.667057"
       rx="7.3093514"
       cy="847.3808"
       cx="-441.53201"
       style="fill:#f2f2f2;fill-opacity:1;fill-rule:nonzero;stroke:none"
       id="path5303-2"
       transform="scale(-1,1)" />
    <ellipse
       ry="7.667057"
       rx="7.3093514"
       cy="849.04755"
       cx="-421.59741"
       style="fill:#f2f2f2;fill-opacity:1;fill-rule:nonzero;stroke:none"
       id="path5303-0-4"
       transform="scale(-1,1)" />
    <ellipse
       ry="3.5001781"
       rx="2.1595809"
       cy="871.88202"
       cx="-444.68832"
       style="fill:#2d2d2d;fill-opacity:1;fill-rule:nonzero;stroke:none"
       id="path5330-56"
       transform="scale(-1,1)" />
    <ellipse
       ry="3.5001781"
       rx="2.1595809"
       cy="873.38208"
       cx="-432.22919"
       style="fill:#2d2d2d;fill-opacity:1;fill-rule:nonzero;stroke:none"
       id="path5330-6-7"
       transform="scale(-1,1)" />
    <ellipse
       ry="4.0002036"
       rx="3.8207972"
       cy="844.5473"
       cx="-443.19321"
       style="fill:#2d2d2d;fill-opacity:1;fill-rule:nonzero;stroke:none"
       id="path5330-5-4"
       transform="scale(-1,1)" />
    <ellipse
       ry="4.0002036"
       rx="3.8207972"
       cy="846.04736"
       cx="-423.25864"
       style="fill:#2d2d2d;fill-opacity:1;fill-rule:nonzero;stroke:none"
       id="path5330-5-7-0"
       transform="scale(-1,1)" />
    <ellipse
       ry="10.655841"
       rx="16.629965"
       cy="460.90485"
       cx="-795.51416"
       style="fill:#2d2d2d;fill-opacity:1;fill-rule:nonzero;stroke:none"
       id="path5386-0"
       transform="matrix(-0.82296337,-0.56809444,-0.56553493,0.82472434,0,0)" />
  </g>
  <g
     inkscape:groupmode="layer"
     id="layer2"
     inkscape:label="Layer 2"
     style="display:inline">
    <path
       style="display:inline;fill:#800000;fill-opacity:1;stroke:#b90400;stroke-width:0.47653842px;stroke-linecap:butt;stroke-linejoin:miter;stroke-opacity:1"
       d="m 147.43806,445.63208 c -37.95314,-15.81327 -53.676589,35.04563 -53.676589,35.04563 0,0 28.735959,-25.64314 48.254719,-22.65144 13.55469,-7.69294 5.42187,-12.39419 5.42187,-12.39419 z"
       id="path4779-3"
       inkscape:connector-curvature="0" />
    <path
       style="display:inline;fill:#b90400;fill-opacity:1;stroke:#b90400;stroke-width:0.39613712px;stroke-linecap:butt;stroke-linejoin:miter;stroke-opacity:1"
       d="m 142.10535,446.82448 c -31.04466,-13.35913 -43.906029,29.60668 -43.906029,29.60668 0,0 23.505259,-21.66342 39.471089,-19.13603 11.08737,-6.49903 4.43494,-10.47065 4.43494,-10.47065 z"
       id="path4779-2-0"
       inkscape:connector-curvature="0" />
    <ellipse
       style="display:inline;fill:#800000;fill-opacity:1"
       id="path4291"
       cx="196.20844"
       cy="438.53928"
       rx="64.643974"
       ry="48.736214" />
    <ellipse
       style="display:inline;fill:#b90400;fill-opacity:1"
       id="path4291-9"
       cx="194.72562"
       cy="439.59451"
       rx="61.233109"
       ry="47.076462" />
    <ellipse
       transform="matrix(0.30008067,0.95391383,-0.95391384,0.30008062,0,0)"
       style="display:inline;fill:#800000;fill-opacity:1"
       id="path4208"
       cx="485.1109"
       cy="-24.963274"
       rx="34.758316"
       ry="31.384312"
       inkscape:transform-center-x="-1.4528065"
       inkscape:transform-center-y="-4.953049" />
    <ellipse
       transform="matrix(0.30008067,0.95391383,-0.95391384,0.30008062,0,0)"
       style="display:inline;fill:#800000;fill-opacity:1"
       id="path4210"
       cx="498.75433"
       cy="3.1015463"
       rx="24.688148"
       ry="15.993929"
       inkscape:transform-center-x="21.224525"
       inkscape:transform-center-y="16.483353" />
    <ellipse
       transform="matrix(0.30008067,0.95391383,-0.95391384,0.30008062,0,0)"
       style="display:inline;fill:#b90400;fill-opacity:1"
       id="path4208-2"
       cx="484.29877"
       cy="-26.019426"
       rx="33.621361"
       ry="30.026335"
       inkscape:transform-center-x="-2.2165774"
       inkscape:transform-center-y="-6.0446575" />
    <ellipse
       transform="matrix(0.30008067,0.95391383,-0.95391384,0.30008062,0,0)"
       style="display:inline;fill:#b90400;fill-opacity:1"
       id="path4210-6"
       cx="497.77979"
       cy="3.2524252"
       rx="22.41424"
       ry="13.428864"
       inkscape:transform-center-x="21.66088"
       inkscape:transform-center-y="15.599005" />
    <ellipse
       transform="matrix(0.87256585,-0.4884965,0.48849648,0.87256586,0,0)"
       style="display:inline;fill:#800000;fill-opacity:1"
       id="path3399"
       cx="-25.755493"
       cy="501.08813"
       rx="28.099012"
       ry="27.763044" />
    <ellipse
       transform="matrix(0.87256585,-0.4884965,0.48849648,0.87256586,0,0)"
       style="display:inline;fill:#800000;fill-opacity:1"
       id="path3401"
       cx="-31.277817"
       cy="521.75952"
       rx="23.551195"
       ry="26.405071" />
    <ellipse
       transform="matrix(0.87256585,-0.4884965,0.48849648,0.87256586,0,0)"
       style="display:inline;fill:#800000;fill-opacity:1"
       id="path3403"
       cx="-18.446503"
       cy="539.86584"
       rx="24.363306"
       ry="15.843042" />
    <ellipse
       transform="matrix(0.87256585,-0.4884965,0.48849648,0.87256586,0,0)"
       style="display:inline;fill:#b90400;fill-opacity:1"
       id="path3399-9"
       cx="-25.706833"
       cy="500.13025"
       rx="27.047176"
       ry="27.559652" />
    <ellipse
       transform="matrix(0.87256585,-0.4884965,0.48849648,0.87256586,0,0)"
       style="display:inline;fill:#b90400;fill-opacity:1"
       id="path3401-5"
       cx="-31.022461"
       cy="520.65021"
       rx="22.6696"
       ry="26.211628" />
    <ellipse
       transform="matrix(0.87256585,-0.4884965,0.48849648,0.87256586,0,0)"
       style="display:inline;fill:#b90400;fill-opacity:1"
       id="path3403-4"
       cx="-21.270218"
       cy="539.22748"
       rx="23.451311"
       ry="15.726975" />
    <ellipse
       style="display:inline;fill:#9b2d27;fill-opacity:0.56078384;stroke:none"
       id="path4937"
       transform="matrix(0.88367822,0.46809486,-0.44045392,0.89777522,0,0)"
       cx="300.99234"
       cy="186.21718"
       rx="13.999114"
       ry="22.751617" />
    <ellipse
       style="display:inline;fill:#800000;fill-opacity:1;stroke:none"
       id="path4937-5"
       transform="matrix(0.88367822,0.46809486,-0.44045392,0.89777522,0,0)"
       cx="302.60287"
       cy="188.32469"
       rx="13.999114"
       ry="22.751617" />
    <path
       style="display:inline;fill:#800000;fill-opacity:1"
       d="m 226.05199,309.1971 c -35.60801,-4.43521 -67.70337,17.97946 -71.69871,50.056 -3.99534,32.07654 21.62252,61.66632 57.23051,66.10153 19.8223,2.469 38.5313,-3.39825 51.9333,-14.6047 -0.039,-0.0328 -0.063,-0.0591 -0.1041,-0.0936 -0.5272,-0.16798 -1.0728,-0.37891 -1.2546,-0.61321 -0.1037,-0.13371 -0.1879,-0.27723 -0.2815,-0.41137 -0.1214,-0.0418 -0.2464,-0.0886 -0.3731,-0.14059 -0.2014,-0.0701 -0.3991,-0.1399 -0.5944,-0.22188 -0.09,-0.0377 -0.1749,-0.0869 -0.2575,-0.13959 0,-10e-4 -0.01,-2.5e-4 -0.014,-0.002 -0.9025,-0.36787 -1.5096,-0.59431 -2.1054,-1.21646 -0.7791,-0.37027 -0.9124,-0.46914 -1.2775,-0.77734 -0.8004,-0.25722 -0.8903,-0.44536 -1.6518,-1.02555 -0.031,-0.0236 -0.083,-0.0379 -0.1073,-0.0671 -0.049,-0.0584 -0.089,-0.11847 -0.137,-0.17833 -0.068,-0.0334 -0.1412,-0.0727 -0.1912,-0.091 -0.758,-0.27757 -1.2997,-0.79243 -1.8231,-1.27539 -0.026,-0.0213 -0.053,-0.0422 -0.079,-0.0635 -0.2115,-0.0883 -0.4339,-0.19772 -0.5922,-0.356 -0.2693,-0.2692 -0.468,-0.49811 -0.6223,-0.69572 -0.1678,-0.0101 -0.3194,-0.22148 -0.4656,-0.32679 -0.6534,-0.47081 -1.0184,-0.87277 -1.3968,-1.3298 0,-0.002 -0.034,-0.0413 -0.038,-0.045 -0.01,-0.0179 -0.027,-0.0741 -0.094,-0.173 -0.7628,-0.39422 -0.256,-0.24012 -0.6635,-0.36486 l -0.7854,-1.01173 c 0.021,0.04 0.056,0.10013 0.071,0.12975 0,0.009 -4e-4,0.011 0,0.0132 -0.01,-0.004 -0.027,-0.0218 -0.039,-0.0318 0.035,0.061 0.1281,0.22762 0.094,0.17301 -0.039,-0.0625 -0.079,-0.12858 -0.121,-0.1898 -0.046,-0.0401 -0.098,-0.0965 -0.1293,-0.12361 -0.1703,-0.14863 -0.3269,-0.29901 -0.4935,-0.45123 0.1612,0.13227 0.3472,0.28578 0.5001,0.39829 -0.115,-0.16773 -0.2212,-0.33096 -0.2826,-0.51902 -0.077,-0.23744 0.222,0.2724 0.39,0.58615 0.01,0.004 0.01,0.0118 0.013,0.015 0.332,0.20402 0.2751,-0.0746 -1.4004,-2.23069 -0.1518,-0.1954 0.075,0.21699 0.2015,0.58956 0.1834,0.21198 0.3219,0.50427 0.1642,0.42364 -0.037,-0.0188 -0.06,-0.0542 -0.091,-0.0786 -5e-4,0.0124 0,0.0285 0,0.0397 -0.022,0.16366 -0.32,-0.28133 -0.373,-0.48997 -0.044,-0.0668 -0.085,-0.132 -0.1353,-0.19156 0.043,0.0494 0.055,0.0678 0.126,0.15008 -4e-4,-0.013 0,-0.0312 0,-0.0397 -0.365,-0.43069 -0.8643,-1.01605 -1.0083,-1.42921 -0.038,-0.10873 -0.061,-0.22238 -0.089,-0.3336 -0.19,-0.15762 -0.4199,-0.48178 -0.4414,-0.75383 -0.013,-0.16509 0.1116,0.0503 0.2536,0.28693 -0.07,-0.26195 -0.1441,-0.59958 -0.1346,-0.66186 l -0.3514,-1.01143 c 9e-4,0.0249 -0.02,-0.0295 -0.049,-0.0733 0.037,0.27804 0.088,0.56424 0.054,0.84005 -0.018,0.1464 -0.1182,-0.27668 -0.15,-0.42188 -0.06,-0.27621 -0.1141,-0.55485 -0.1274,-0.83568 -0.23,-0.57942 -0.2225,-1.12539 -0.1342,-1.71011 -0.1961,-0.43462 -0.387,-0.93317 -0.3108,-1.22141 -0.035,-0.30433 -0.068,-0.60893 -0.1032,-0.91331 0.042,-0.13465 0.081,-0.26684 0.1223,-0.40139 -0.02,-0.23243 -0.037,-0.46762 -0.087,-0.69624 -0.031,-0.14208 0.061,0.55833 -0.01,0.42881 -0.2401,-0.43618 -0.048,-1.58125 0.064,-2.02145 0.1897,-0.7473 0.4365,-1.0593 0.7007,-1.09541 0.382,-1.48054 2.27,-2.67301 5.4813,-2.19335 1.211,0.18087 2.4305,0.11533 3.6219,0.42422 0.3241,0.12603 0.6463,0.2396 0.9659,0.37567 0.024,0.01 0.074,0.0259 0.1106,0.0407 0.2616,0.0448 0.5447,0.12921 0.8257,0.2238 0.4903,-0.0686 1.0616,-0.0617 1.7025,0.0373 0.3654,0.0565 0.1674,0.0309 0.5967,0.0877 0.9284,0.0738 1.915,0.0184 2.6754,0.58859 0.013,0.002 0.031,0.005 0.043,0.005 0.8707,0.0512 1.7167,0.18822 2.3949,0.63429 l 1.0827,0.13486 c 0.6441,0.0802 1.2934,0.16105 1.9375,0.24132 0.6522,0.0813 1.2995,0.16228 1.9517,0.2431 0.6872,0.0856 1.3782,0.17469 2.0657,0.2573 0.7007,0.0842 1.397,0.15334 2.0925,0.27404 0.4465,0.0683 0.9032,0.0102 1.3507,0.0742 0.914,0.13068 0.884,0.17934 1.6826,0.54556 0.01,0.005 0.01,0.0107 0.013,0.015 0.422,0.007 0.4234,0.0109 1.1824,0.14728 0.04,0.014 1.041,0.33102 1.1462,0.43843 0.059,0.0605 -0.3294,-0.044 -0.2614,0.008 0.1206,0.0919 0.7393,0.0427 0.9117,0.11357 l 0.7693,0.0958 c 1.7985,-4.33679 3.0523,-8.94068 3.6547,-13.77736 3.9953,-32.07654 -21.6351,-61.68134 -57.2431,-66.11654 z m 22.5431,90.91812 -0.1369,-0.17833 c 0.027,0.0471 0.038,0.0668 0.083,0.14476 0.02,0.0136 0.036,0.0222 0.054,0.0336 z m 7.0941,-7.12641 c 0,0.0131 0,0.0265 -0.01,0.0397 0.01,0.005 0.018,0.0113 0.027,0.0168 0.01,-0.0119 0.014,-0.0252 0.019,-0.0379 -0.012,-0.002 -0.031,-0.0173 -0.041,-0.0185 z m -9.8018,3.07982 c 0.012,0.0682 0.01,0.0933 0.012,0.13588 0.01,0.0168 0.028,0.0293 0.038,0.045 -0.014,-0.0613 -0.034,-0.12002 -0.05,-0.18093 z m 3.4013,4.40177 c -0.043,-0.005 0.3927,0.69629 0.6101,0.90925 0.026,0.0252 0.078,0.0532 0.12,0.0822 -0.2255,-0.32557 -0.5947,-0.84708 -0.6781,-0.94459 -0.028,-0.0328 -0.046,-0.0461 -0.052,-0.0468 z m 0.9859,1.14421 c 0.2744,0.15021 0.5514,0.27549 0.3808,0.19526 -0.1953,-0.0918 -0.2476,-0.12929 -0.3808,-0.19526 z m 1.3629,1.13741 c 0.01,0.0164 0.05,0.11013 0.097,0.26743 0.028,0.0256 0.087,0.0539 0.1342,0.0839 -0.1464,-0.21934 -0.2414,-0.37519 -0.2311,-0.35134 z m 3.1559,2.42249 c 0.066,0.0948 0.1521,0.22893 0.195,0.29307 0.025,0.0146 0.056,0.0237 0.082,0.0371 -0.087,-0.11399 -0.1845,-0.22005 -0.2771,-0.33019 z m 2.0417,1.6117 c -0.064,-0.0526 0.1096,0.12138 0.1654,0.18188 0.028,0.0157 0.077,0.0458 0.1216,0.069 -0.089,-0.0755 -0.1565,-0.14391 -0.287,-0.25079 z m 0.6416,0.30838 c -0.3248,-0.0185 0.564,0.50695 0.9909,0.75509 -0.08,-0.0873 -0.1526,-0.2071 -0.236,-0.31163 -0.1204,-0.0672 -0.2237,-0.1363 -0.4799,-0.32857 -0.019,-0.0312 -0.018,-0.0281 -0.036,-0.0582 -0.094,-0.0247 -0.1947,-0.0542 -0.2389,-0.0567 z"
       id="path2985-1-6"
       inkscape:connector-curvature="0" />
    <path
       style="display:inline;opacity:0.47000002;fill:#b90400;fill-opacity:1"
       d="m 231.18319,307.33119 c -34.88866,-4.34561 -66.27178,17.05558 -70.10065,47.7956 -3.82887,30.74001 21.34712,59.17258 56.23575,63.51818 16.8366,2.09711 32.8403,-1.82198 45.3404,-9.87533 -0.2878,-0.16366 -0.5613,-0.35891 -0.8316,-0.64116 -0.7791,-0.37028 -0.9124,-0.46914 -1.2776,-0.77735 -0.8003,-0.25722 -0.8902,-0.44536 -1.6517,-1.02556 -0.031,-0.0236 -0.082,-0.0379 -0.1073,-0.0671 -0.05,-0.0584 -0.09,-0.11846 -0.137,-0.17833 -0.068,-0.0334 -0.1412,-0.0727 -0.1912,-0.091 -0.758,-0.27757 -1.2997,-0.79243 -1.8231,-1.27538 -0.026,-0.0213 -0.053,-0.0422 -0.079,-0.0635 -0.2115,-0.0883 -0.4339,-0.19772 -0.5922,-0.35599 -0.2694,-0.26921 -0.4681,-0.49812 -0.6223,-0.69573 -0.1678,-0.0101 -0.3194,-0.22147 -0.4656,-0.3268 -0.6534,-0.4708 -1.0184,-0.87276 -1.3968,-1.32978 0,-0.002 -0.034,-0.0413 -0.038,-0.045 0,-0.0179 -0.027,-0.0741 -0.094,-0.17301 -0.7628,-0.39423 -0.256,-0.24012 -0.6635,-0.36487 l -0.7854,-1.01172 c 0.021,0.04 0.056,0.10014 0.071,0.12975 0,0.009 -4e-4,0.011 0,0.0132 -0.01,-0.004 -0.027,-0.0218 -0.039,-0.0318 0.035,0.061 0.1281,0.22763 0.094,0.17301 -0.039,-0.0625 -0.079,-0.12858 -0.121,-0.18979 -0.046,-0.0401 -0.098,-0.0965 -0.1293,-0.12362 -0.1703,-0.14863 -0.3269,-0.29901 -0.4935,-0.45122 0.1612,0.13227 0.3472,0.28577 0.5001,0.39828 -0.115,-0.16772 -0.2212,-0.33096 -0.2826,-0.51902 -0.078,-0.23744 0.222,0.2724 0.39,0.58615 0.01,0.004 0.01,0.0118 0.013,0.015 0.332,0.20404 0.2751,-0.0746 -1.4004,-2.23068 -0.1518,-0.19539 0.075,0.21699 0.2015,0.58955 0.1834,0.212 0.3219,0.50428 0.1642,0.42365 -0.037,-0.0188 -0.06,-0.0542 -0.091,-0.0786 -5e-4,0.0124 0,0.0285 -0.01,0.0397 -0.022,0.16366 -0.32,-0.28132 -0.373,-0.48997 -0.044,-0.0668 -0.085,-0.132 -0.1352,-0.19156 0.043,0.0494 0.055,0.0678 0.1259,0.15009 -4e-4,-0.0131 0,-0.0312 0.01,-0.0397 -0.365,-0.43069 -0.8643,-1.01604 -1.0083,-1.4292 -0.038,-0.10874 -0.061,-0.22238 -0.089,-0.3336 -0.19,-0.15763 -0.4199,-0.48178 -0.4414,-0.75384 -0.013,-0.16508 0.1116,0.0503 0.2536,0.28694 -0.07,-0.26196 -0.1441,-0.59959 -0.1345,-0.66187 l -0.3515,-1.01142 c 0.001,0.0249 -0.02,-0.0295 -0.049,-0.0733 0.037,0.27805 0.088,0.56424 0.054,0.84005 -0.018,0.14641 -0.1182,-0.27668 -0.1499,-0.42187 -0.06,-0.27622 -0.1142,-0.55485 -0.1274,-0.83568 -0.2301,-0.57943 -0.2226,-1.1254 -0.1342,-1.71012 -0.1962,-0.43462 -0.387,-0.93317 -0.3109,-1.2214 -0.035,-0.30433 -0.068,-0.60894 -0.1032,-0.91331 0.042,-0.13465 0.081,-0.26684 0.1223,-0.40139 -0.02,-0.23243 -0.037,-0.46764 -0.087,-0.69625 -0.031,-0.14208 0.061,0.55834 -0.01,0.42881 -0.2401,-0.43617 -0.048,-1.58124 0.064,-2.02144 0.1898,-0.7473 0.4365,-1.0593 0.7007,-1.09542 0.382,-1.48054 2.27,-2.67301 5.4814,-2.19334 1.211,0.18086 2.4304,0.11533 3.6218,0.42421 0.3241,0.12604 0.6463,0.2396 0.9659,0.37566 0.024,0.01 0.074,0.026 0.1107,0.0407 0.2615,0.0448 0.5447,0.12922 0.8257,0.2238 0.4903,-0.0686 1.0615,-0.0617 1.7024,0.0373 0.3655,0.0565 0.1675,0.0309 0.5967,0.0877 0.9285,0.0738 1.9151,0.0184 2.6755,0.5886 0.013,0.002 0.031,0.005 0.043,0.005 0.8706,0.0512 1.7166,0.18822 2.3948,0.6343 l 1.0828,0.13485 c 0.644,0.0802 1.2934,0.16106 1.9374,0.24133 0.6522,0.0813 1.2995,0.16228 1.9517,0.2431 0.6872,0.0856 1.3782,0.17468 2.0657,0.25729 0.7007,0.0842 1.397,0.15335 2.0926,0.27405 0.4464,0.0683 0.9032,0.0102 1.3506,0.0742 0.914,0.13067 0.8841,0.17934 1.6826,0.54556 0.01,0.005 0.01,0.0107 0.013,0.015 0.422,0.007 0.4235,0.0109 1.1825,0.14728 0.037,0.0127 0.8924,0.28074 1.0924,0.40487 3.0806,-5.53637 5.1549,-11.65143 5.9697,-18.19289 3.8288,-30.74001 -21.3598,-59.18757 -56.2484,-63.53318 z m 20.7068,93.00101 -0.137,-0.17833 c 0.027,0.0471 0.038,0.0668 0.083,0.14476 0.02,0.0136 0.036,0.0222 0.054,0.0336 z m 29.3658,-11.24684 c 0,0.002 -0.01,0.007 0,0.0132 0.028,0.0211 0.085,0.0367 0.1534,0.046 0.01,8.1e-4 0.01,10e-4 0.014,0.002 0.01,-0.0124 0.012,-0.0256 0.019,-0.0379 -0.075,-0.009 -0.1692,-0.0319 -0.1852,-0.0231 z m -22.2718,4.12043 c 0,0.0131 0,0.0265 0,0.0397 0.01,0.005 0.018,0.0113 0.027,0.0168 0.01,-0.0119 0.014,-0.0252 0.019,-0.0379 -0.012,-0.002 -0.031,-0.0173 -0.041,-0.0185 z m -9.8017,3.07981 c 0.012,0.0682 0.01,0.0933 0.012,0.13589 0.01,0.0168 0.028,0.0293 0.038,0.045 -0.014,-0.0613 -0.034,-0.12002 -0.05,-0.18093 z m 3.4012,4.40178 c -0.043,-0.005 0.3927,0.69629 0.6101,0.90925 0.026,0.0252 0.078,0.0532 0.12,0.0822 -0.2254,-0.32557 -0.5946,-0.84707 -0.678,-0.94459 -0.028,-0.0328 -0.046,-0.0461 -0.052,-0.0468 z m 0.986,1.14421 c 0.2744,0.1502 0.5514,0.27549 0.3807,0.19526 -0.1953,-0.0918 -0.2475,-0.12928 -0.3807,-0.19526 z m 1.3629,1.13741 c 0.01,0.0164 0.05,0.11013 0.097,0.26743 0.028,0.0257 0.087,0.0539 0.1342,0.0839 -0.1465,-0.21933 -0.2415,-0.37519 -0.2311,-0.35134 z m 3.1559,2.42249 c 0.066,0.0948 0.152,0.22892 0.1949,0.29307 0.025,0.0146 0.056,0.0237 0.082,0.0371 -0.087,-0.11399 -0.1845,-0.22005 -0.2771,-0.33019 z m 2.0416,1.6117 c -0.064,-0.0527 0.1097,0.12137 0.1655,0.18188 0.028,0.0157 0.077,0.0458 0.1216,0.069 -0.089,-0.0755 -0.1566,-0.14392 -0.2871,-0.25079 z m 0.6416,0.30838 c -0.3248,-0.0185 0.564,0.50695 0.991,0.75509 -0.08,-0.0873 -0.1527,-0.20711 -0.2361,-0.31163 -0.1203,-0.0672 -0.2237,-0.1363 -0.4799,-0.32857 -0.019,-0.0312 -0.018,-0.0281 -0.036,-0.0582 -0.094,-0.0247 -0.1947,-0.0542 -0.2389,-0.0567 z"
       id="path3763-9"
       inkscape:connector-curvature="0" />
    <path
       sodipodi:type="arc"
       style="display:inline;fill:#800000;fill-opacity:1;stroke:none"
       id="path4942-2-8"
       sodipodi:cx="-252.10063"
       sodipodi:cy="287.15656"
       sodipodi:rx="13.983638"
       sodipodi:ry="15.17453"
       d="m -240.00769,294.77614 a 13.983638,15.17453 0 0 1 -17.97478,6.14729 13.983638,15.17453 0 0 1 -7.29099,-18.85891 13.983638,15.17453 0 0 1 16.63619,-9.60971 l -3.46336,14.70175 z"
       sodipodi:start="0.52605967"
       sodipodi:end="4.962666"
       transform="matrix(-0.99584568,-0.09105703,-0.12360148,0.99233194,0,0)" />
    <path
       style="display:inline;fill:#b90400;fill-opacity:1"
       d="m 229.34679,309.41408 c -35.60797,-4.43521 -67.70333,17.97945 -71.69867,50.056 -3.99535,32.07654 21.62251,61.66632 57.23047,66.10153 19.8224,2.469 38.5313,-3.39825 51.9333,-14.6047 -0.039,-0.0328 -0.063,-0.0591 -0.104,-0.0936 -0.5273,-0.16797 -1.0729,-0.37891 -1.2546,-0.61321 -0.1038,-0.13372 -0.188,-0.27723 -0.2815,-0.41137 -0.1214,-0.0418 -0.2465,-0.0886 -0.3731,-0.14059 -0.2015,-0.0701 -0.3991,-0.1399 -0.5945,-0.22188 -0.09,-0.0377 -0.1748,-0.0869 -0.2575,-0.13959 0,-0.001 -0.01,-2.6e-4 -0.014,-0.002 -0.9025,-0.36786 -1.5096,-0.5943 -2.1053,-1.21645 -0.7792,-0.37027 -0.9124,-0.46914 -1.2776,-0.77734 -0.8004,-0.25722 -0.8902,-0.44536 -1.6517,-1.02556 -0.031,-0.0236 -0.083,-0.0379 -0.1074,-0.0671 -0.05,-0.0584 -0.09,-0.11847 -0.1369,-0.17833 -0.068,-0.0334 -0.1413,-0.0727 -0.1912,-0.091 -0.758,-0.27757 -1.2997,-0.79243 -1.8232,-1.27539 -0.026,-0.0213 -0.053,-0.0422 -0.079,-0.0635 -0.2114,-0.0883 -0.4338,-0.19772 -0.5922,-0.356 -0.2693,-0.2692 -0.468,-0.49811 -0.6222,-0.69572 -0.1678,-0.0101 -0.3195,-0.22148 -0.4657,-0.3268 -0.6534,-0.4708 -1.0184,-0.87276 -1.3968,-1.32979 0,-0.002 -0.034,-0.0413 -0.038,-0.045 0,-0.0179 -0.027,-0.0741 -0.094,-0.17301 -0.7628,-0.39422 -0.2559,-0.24011 -0.6634,-0.36487 l -0.7854,-1.01171 c 0.021,0.04 0.056,0.10013 0.071,0.12975 0,0.009 -5e-4,0.011 0,0.0132 -0.01,-0.004 -0.027,-0.0218 -0.039,-0.0318 0.035,0.061 0.128,0.22762 0.094,0.17301 -0.039,-0.0625 -0.079,-0.12858 -0.1211,-0.1898 -0.046,-0.0401 -0.098,-0.0965 -0.1292,-0.12362 -0.1703,-0.14862 -0.327,-0.299 -0.4936,-0.45122 0.1612,0.13227 0.3472,0.28578 0.5002,0.39828 -0.1151,-0.16772 -0.2212,-0.33095 -0.2826,-0.51901 -0.078,-0.23744 0.222,0.27239 0.3899,0.58615 0.01,0.004 0.01,0.0118 0.013,0.015 0.3321,0.20403 0.2751,-0.0746 -1.4003,-2.23068 -0.1518,-0.1954 0.075,0.21699 0.2014,0.58955 0.1834,0.21199 0.322,0.50427 0.1643,0.42364 -0.037,-0.0188 -0.06,-0.0542 -0.091,-0.0786 -6e-4,0.0124 0,0.0285 -0.01,0.0397 -0.022,0.16365 -0.32,-0.28133 -0.373,-0.48997 -0.044,-0.0667 -0.085,-0.132 -0.1353,-0.19157 0.043,0.0494 0.055,0.0678 0.126,0.15009 -4e-4,-0.0131 0,-0.0312 0.01,-0.0397 -0.3651,-0.43069 -0.8644,-1.01605 -1.0084,-1.42921 -0.038,-0.10874 -0.061,-0.22238 -0.089,-0.3336 -0.19,-0.15763 -0.4199,-0.48178 -0.4413,-0.75384 -0.013,-0.16508 0.1115,0.0503 0.2536,0.28694 -0.07,-0.26195 -0.1442,-0.59958 -0.1346,-0.66187 l -0.3514,-1.01142 c 9e-4,0.0249 -0.02,-0.0295 -0.049,-0.0733 0.037,0.27804 0.088,0.56423 0.054,0.84004 -0.018,0.14641 -0.1183,-0.27667 -0.15,-0.42187 -0.06,-0.27622 -0.1142,-0.55485 -0.1274,-0.83568 -0.23,-0.57943 -0.2226,-1.12539 -0.1342,-1.71011 -0.1961,-0.43463 -0.387,-0.93317 -0.3108,-1.22141 -0.035,-0.30433 -0.068,-0.60894 -0.1033,-0.91331 0.042,-0.13465 0.081,-0.26684 0.1224,-0.40139 -0.02,-0.23243 -0.037,-0.46764 -0.087,-0.69625 -0.031,-0.14207 0.061,0.55834 -0.01,0.42882 -0.2402,-0.43618 -0.048,-1.58125 0.064,-2.02145 0.1897,-0.7473 0.4365,-1.0593 0.7006,-1.09542 0.382,-1.48054 2.2701,-2.673 5.4814,-2.19334 1.211,0.18087 2.4304,0.11533 3.6218,0.42422 0.3242,0.12603 0.6463,0.23959 0.9659,0.37565 0.024,0.01 0.074,0.026 0.1107,0.0407 0.2615,0.0448 0.5447,0.12921 0.8257,0.2238 0.4903,-0.0686 1.0615,-0.0617 1.7025,0.0373 0.3654,0.0565 0.1674,0.0309 0.5967,0.0877 0.9284,0.0738 1.915,0.0184 2.6754,0.58859 0.013,0.002 0.031,0.005 0.043,0.005 0.8707,0.0512 1.7166,0.18823 2.3949,0.6343 l 1.0827,0.13486 c 0.6441,0.0802 1.2934,0.16105 1.9375,0.24132 0.6522,0.0813 1.2994,0.16228 1.9517,0.2431 0.6871,0.0856 1.3781,0.17468 2.0657,0.2573 0.7006,0.0842 1.3969,0.15334 2.0925,0.27404 0.4464,0.0683 0.9032,0.0101 1.3507,0.0742 0.914,0.13067 0.884,0.17934 1.6825,0.54556 0.01,0.005 0,0.0107 0.013,0.015 0.422,0.007 0.4235,0.0109 1.1825,0.14728 0.04,0.014 1.0409,0.33103 1.1461,0.43844 0.059,0.0605 -0.3293,-0.0441 -0.2613,0.008 0.1206,0.0919 0.7393,0.0427 0.9117,0.11357 l 0.7693,0.0958 c 1.7985,-4.33679 3.0522,-8.94068 3.6547,-13.77737 3.9953,-32.07653 -21.6351,-61.68133 -57.2431,-66.11653 z m 22.5432,90.91812 -0.137,-0.17833 c 0.027,0.0471 0.038,0.0668 0.083,0.14476 0.02,0.0136 0.036,0.0222 0.054,0.0336 z m 7.094,-7.12641 c 0,0.0131 0,0.0265 0,0.0397 0.01,0.005 0.018,0.0113 0.027,0.0168 0.01,-0.0119 0.014,-0.0252 0.019,-0.0379 -0.012,-0.002 -0.031,-0.0173 -0.041,-0.0185 z m -9.8017,3.07981 c 0.012,0.0682 0.01,0.0933 0.012,0.13589 0.01,0.0168 0.028,0.0293 0.038,0.045 -0.014,-0.0613 -0.034,-0.12002 -0.05,-0.18093 z m 3.4012,4.40178 c -0.043,-0.005 0.3927,0.69629 0.6101,0.90925 0.026,0.0252 0.078,0.0532 0.12,0.0822 -0.2254,-0.32557 -0.5946,-0.84707 -0.678,-0.94459 -0.028,-0.0328 -0.046,-0.0461 -0.052,-0.0468 z m 0.986,1.14421 c 0.2744,0.1502 0.5514,0.27549 0.3807,0.19526 -0.1953,-0.0918 -0.2475,-0.12928 -0.3807,-0.19526 z m 1.3629,1.13741 c 0.01,0.0164 0.05,0.11013 0.097,0.26743 0.028,0.0257 0.087,0.0539 0.1342,0.0839 -0.1465,-0.21933 -0.2415,-0.37519 -0.2311,-0.35134 z m 3.1559,2.42249 c 0.066,0.0948 0.152,0.22892 0.1949,0.29307 0.025,0.0146 0.056,0.0237 0.082,0.0371 -0.087,-0.11399 -0.1845,-0.22005 -0.2771,-0.33019 z m 2.0416,1.6117 c -0.064,-0.0527 0.1097,0.12137 0.1655,0.18188 0.028,0.0157 0.077,0.0458 0.1216,0.069 -0.089,-0.0755 -0.1566,-0.14392 -0.2871,-0.25079 z m 0.6416,0.30838 c -0.3248,-0.0185 0.564,0.50695 0.991,0.75509 -0.08,-0.0873 -0.1527,-0.20711 -0.2361,-0.31163 -0.1203,-0.0672 -0.2237,-0.1363 -0.4799,-0.32857 -0.019,-0.0312 -0.018,-0.0281 -0.036,-0.0582 -0.094,-0.0247 -0.1947,-0.0542 -0.2389,-0.0567 z"
       id="path2985-1"
       inkscape:connector-curvature="0" />
    <path
       style="display:inline;opacity:0.47000002;fill:#b90400;fill-opacity:1"
       d="m 229.60759,309.5272 c -34.88862,-4.34561 -66.27175,17.05558 -70.10062,47.7956 -3.82887,30.74001 21.34548,59.1858 56.23412,63.53141 18.0137,2.24372 35.0809,-2.3977 47.9163,-11.62418 -0.7542,-0.30717 -1.2931,-0.54054 -1.8303,-1.10155 -0.7791,-0.37028 -0.9124,-0.46914 -1.2776,-0.77735 -0.8003,-0.25722 -0.8902,-0.44536 -1.6517,-1.02556 -0.031,-0.0236 -0.082,-0.0379 -0.1073,-0.0671 -0.05,-0.0584 -0.09,-0.11846 -0.137,-0.17833 -0.068,-0.0334 -0.1412,-0.0727 -0.1912,-0.091 -0.758,-0.27757 -1.2997,-0.79243 -1.8231,-1.27538 -0.026,-0.0213 -0.053,-0.0422 -0.079,-0.0635 -0.2115,-0.0883 -0.4339,-0.19772 -0.5922,-0.35599 -0.2694,-0.26921 -0.4681,-0.49812 -0.6223,-0.69573 -0.1678,-0.0101 -0.3194,-0.22147 -0.4656,-0.3268 -0.6534,-0.4708 -1.0184,-0.87276 -1.3968,-1.32978 0,-0.002 -0.034,-0.0413 -0.038,-0.045 0,-0.0179 -0.027,-0.0741 -0.094,-0.17301 -0.7628,-0.39423 -0.256,-0.24012 -0.6635,-0.36487 l -0.7854,-1.01172 c 0.021,0.04 0.056,0.10014 0.071,0.12975 0,0.009 -4e-4,0.011 0,0.0132 -0.01,-0.004 -0.027,-0.0218 -0.039,-0.0318 0.035,0.061 0.1281,0.22763 0.094,0.17301 -0.039,-0.0625 -0.079,-0.12858 -0.121,-0.18979 -0.046,-0.0401 -0.098,-0.0965 -0.1293,-0.12362 -0.1703,-0.14863 -0.3269,-0.29901 -0.4935,-0.45122 0.1612,0.13227 0.3472,0.28577 0.5001,0.39828 -0.115,-0.16772 -0.2212,-0.33096 -0.2826,-0.51902 -0.078,-0.23744 0.222,0.2724 0.39,0.58615 0.01,0.004 0.01,0.0118 0.013,0.015 0.332,0.20404 0.2751,-0.0746 -1.4004,-2.23068 -0.1518,-0.19539 0.075,0.21699 0.2015,0.58955 0.1834,0.212 0.3219,0.50428 0.1642,0.42365 -0.037,-0.0188 -0.06,-0.0542 -0.091,-0.0786 -5e-4,0.0124 0,0.0285 -0.01,0.0397 -0.022,0.16366 -0.32,-0.28132 -0.373,-0.48997 -0.044,-0.0668 -0.085,-0.132 -0.1352,-0.19156 0.043,0.0494 0.055,0.0678 0.1259,0.15009 -4e-4,-0.0131 0,-0.0312 0.01,-0.0397 -0.365,-0.43069 -0.8643,-1.01604 -1.0083,-1.4292 -0.038,-0.10874 -0.061,-0.22238 -0.089,-0.3336 -0.19,-0.15763 -0.4199,-0.48178 -0.4414,-0.75384 -0.013,-0.16508 0.1116,0.0503 0.2536,0.28694 -0.07,-0.26196 -0.1441,-0.59959 -0.1345,-0.66187 l -0.3515,-1.01142 c 0.001,0.0249 -0.02,-0.0295 -0.049,-0.0733 0.037,0.27805 0.088,0.56424 0.054,0.84005 -0.018,0.14641 -0.1182,-0.27668 -0.1499,-0.42187 -0.06,-0.27622 -0.1142,-0.55485 -0.1274,-0.83568 -0.2301,-0.57943 -0.2226,-1.1254 -0.1342,-1.71012 -0.1962,-0.43462 -0.387,-0.93317 -0.3109,-1.2214 -0.035,-0.30433 -0.068,-0.60894 -0.1032,-0.91331 0.042,-0.13465 0.081,-0.26684 0.1223,-0.40139 -0.02,-0.23243 -0.037,-0.46764 -0.087,-0.69625 -0.031,-0.14208 0.061,0.55834 -0.01,0.42881 -0.2401,-0.43617 -0.048,-1.58124 0.064,-2.02144 0.1898,-0.7473 0.4365,-1.0593 0.7007,-1.09542 0.382,-1.48054 2.27,-2.67301 5.4814,-2.19334 1.211,0.18086 2.4304,0.11533 3.6218,0.42421 0.3241,0.12604 0.6463,0.2396 0.9659,0.37566 0.024,0.01 0.074,0.026 0.1107,0.0407 0.2615,0.0448 0.5447,0.12922 0.8257,0.2238 0.4903,-0.0686 1.0615,-0.0617 1.7024,0.0373 0.3655,0.0565 0.1675,0.0309 0.5967,0.0877 0.9285,0.0738 1.9151,0.0184 2.6755,0.5886 0.013,0.002 0.031,0.005 0.043,0.005 0.8706,0.0512 1.7166,0.18822 2.3948,0.6343 l 1.0828,0.13485 c 0.644,0.0802 1.2934,0.16106 1.9374,0.24133 0.6522,0.0813 1.2995,0.16228 1.9517,0.2431 0.6872,0.0856 1.3782,0.17468 2.0657,0.25729 0.7007,0.0842 1.397,0.15335 2.0926,0.27405 0.4464,0.0683 0.9032,0.0102 1.3506,0.0742 0.914,0.13067 0.8841,0.17934 1.6826,0.54556 0.01,0.005 0.01,0.0107 0.013,0.015 0.422,0.007 0.4235,0.0109 1.1825,0.14728 0.025,0.008 0.4138,0.13267 0.7352,0.25286 2.4045,-4.90321 4.0356,-10.21511 4.737,-15.84664 3.8289,-30.74002 -21.3454,-59.18581 -56.2341,-63.53141 z m 22.2824,90.805 -0.137,-0.17833 c 0.027,0.0471 0.038,0.0668 0.083,0.14476 0.02,0.0136 0.036,0.0222 0.054,0.0336 z m 7.094,-7.12641 c 0,0.0131 0,0.0265 0,0.0397 0.01,0.005 0.018,0.0113 0.027,0.0168 0.01,-0.0119 0.014,-0.0252 0.019,-0.0379 -0.012,-0.002 -0.031,-0.0173 -0.041,-0.0185 z m -9.8017,3.07981 c 0.012,0.0682 0.01,0.0933 0.012,0.13589 0.01,0.0168 0.028,0.0293 0.038,0.045 -0.014,-0.0613 -0.034,-0.12002 -0.05,-0.18093 z m 3.4012,4.40178 c -0.043,-0.005 0.3927,0.69629 0.6101,0.90925 0.026,0.0252 0.078,0.0532 0.12,0.0822 -0.2254,-0.32557 -0.5946,-0.84707 -0.678,-0.94459 -0.028,-0.0328 -0.046,-0.0461 -0.052,-0.0468 z m 0.986,1.14421 c 0.2744,0.1502 0.5514,0.27549 0.3807,0.19526 -0.1953,-0.0918 -0.2475,-0.12928 -0.3807,-0.19526 z m 1.3629,1.13741 c 0.01,0.0164 0.05,0.11013 0.097,0.26743 0.028,0.0257 0.087,0.0539 0.1342,0.0839 -0.1465,-0.21933 -0.2415,-0.37519 -0.2311,-0.35134 z m 3.1559,2.42249 c 0.066,0.0948 0.152,0.22892 0.1949,0.29307 0.025,0.0146 0.056,0.0237 0.082,0.0371 -0.087,-0.11399 -0.1845,-0.22005 -0.2771,-0.33019 z m 2.0416,1.6117 c -0.064,-0.0527 0.1097,0.12137 0.1655,0.18188 0.028,0.0157 0.077,0.0458 0.1216,0.069 -0.089,-0.0755 -0.1566,-0.14392 -0.2871,-0.25079 z m 0.6416,0.30838 c -0.3248,-0.0185 0.564,0.50695 0.991,0.75509 -0.08,-0.0873 -0.1527,-0.20711 -0.2361,-0.31163 -0.1203,-0.0672 -0.2237,-0.1363 -0.4799,-0.32857 -0.019,-0.0312 -0.018,-0.0281 -0.036,-0.0582 -0.094,-0.0247 -0.1947,-0.0542 -0.2389,-0.0567 z"
       id="path3763-7"
       inkscape:connector-curvature="0" />
    <path
       style="display:inline;fill:#b90400;fill-opacity:1;fill-rule:evenodd;stroke:none"
       d="m 275.90579,361.41877 c -13.8863,-1.72964 -26.5303,7.99506 -28.2401,21.72213 -0.3021,2.42499 -0.2381,4.81728 0.1411,7.1137 0.039,-0.12611 0.08,-0.24884 0.1191,-0.37492 -0.02,-0.23244 -0.037,-0.46763 -0.087,-0.69625 -0.031,-0.14208 0.061,0.55834 -0.01,0.42881 -0.2402,-0.43617 -0.048,-1.58124 0.064,-2.02144 0.1897,-0.7473 0.4364,-1.0593 0.7006,-1.09542 0.382,-1.48054 2.27,-2.67301 5.4814,-2.19334 1.211,0.18086 2.4304,0.11533 3.6218,0.42421 0.3241,0.12603 0.6463,0.2396 0.9659,0.37566 0.024,0.01 0.074,0.026 0.1107,0.0407 0.2615,0.0448 0.5447,0.12922 0.8257,0.2238 0.4903,-0.0686 1.0615,-0.0617 1.7024,0.0373 0.3655,0.0565 0.1675,0.0309 0.5967,0.0877 0.9285,0.0738 1.9151,0.0184 2.6755,0.5886 0.013,0.002 0.031,0.005 0.043,0.005 0.8707,0.0512 1.7166,0.18822 2.3949,0.6343 l 1.0827,0.13485 c 0.6441,0.0802 1.2934,0.16105 1.9374,0.24133 0.6522,0.0813 1.2995,0.16228 1.9518,0.2431 0.6871,0.0856 1.3781,0.17468 2.0657,0.25729 0.7006,0.0842 1.3969,0.15335 2.0925,0.27405 0.4464,0.0683 0.9032,0.0101 1.3507,0.0742 0.9139,0.13067 0.884,0.17934 1.6825,0.54556 0.01,0.005 0.01,0.0107 0.013,0.015 0.422,0.007 0.4235,0.0109 1.1825,0.14728 0.04,0.014 1.0409,0.33103 1.1461,0.43844 0.059,0.0605 -0.3294,-0.044 -0.2614,0.008 0.1207,0.0919 0.7394,0.0427 0.9118,0.11356 l 2.3079,0.28746 1.8377,0.22891 2.3364,0.29101 2.2651,0.28214 1.909,0.23777 3.0772,0.38328 c 0.6791,0.0846 1.2555,0.24073 1.7226,0.45648 0.1377,-0.6462 0.2495,-1.30661 0.3327,-1.97451 1.7098,-13.72706 -8.1623,-26.2563 -22.0487,-27.98594 z m -16.9218,31.78702 c 0,0.0131 0,0.0265 0,0.0397 0.01,0.005 0.018,0.0113 0.027,0.0168 0.01,-0.0119 0.014,-0.0252 0.019,-0.0379 -0.012,-0.002 -0.031,-0.0173 -0.041,-0.0185 z m -8.3953,5.02902 c 0.2857,0.51514 0.5905,1.01783 0.9113,1.51124 -0.075,-0.22945 0.1929,0.23962 0.3648,0.55613 l 0.025,0.0301 c 0.01,0.004 0.01,0.0118 0.012,0.015 l 0.013,0.015 c 0.3072,0.1811 0.2217,-0.12703 -1.3264,-2.1274 z m 1.3264,2.1274 c 3.1828,4.59478 7.8868,8.13684 13.502,9.83962 -0.088,-0.1155 -0.1645,-0.23751 -0.2453,-0.35311 -0.1214,-0.0418 -0.2465,-0.0886 -0.3731,-0.14059 -0.2015,-0.0701 -0.3991,-0.1399 -0.5945,-0.22188 -0.09,-0.0377 -0.1748,-0.0869 -0.2575,-0.13959 0,-10e-4 -0.01,-2.6e-4 -0.014,-0.002 -0.9025,-0.36786 -1.5096,-0.5943 -2.1053,-1.21645 -0.7792,-0.37027 -0.9124,-0.46914 -1.2776,-0.77734 -0.8004,-0.25722 -0.8902,-0.44536 -1.6517,-1.02556 -0.031,-0.0236 -0.083,-0.0379 -0.1074,-0.0671 -0.05,-0.0584 -0.09,-0.11847 -0.1369,-0.17833 -0.068,-0.0334 -0.1413,-0.0727 -0.1912,-0.091 -0.758,-0.27757 -1.2997,-0.79243 -1.8232,-1.27538 -0.026,-0.0213 -0.053,-0.0422 -0.079,-0.0635 -0.2114,-0.0883 -0.4338,-0.19772 -0.5922,-0.356 -0.2693,-0.2692 -0.468,-0.49811 -0.6222,-0.69572 -0.1679,-0.0101 -0.3195,-0.22148 -0.4657,-0.3268 -0.6534,-0.4708 -1.0184,-0.87276 -1.3968,-1.32979 0,-0.002 -0.034,-0.0413 -0.038,-0.045 0,-0.0179 -0.027,-0.0741 -0.094,-0.17301 -0.7628,-0.39422 -0.2559,-0.24011 -0.6634,-0.36487 l -0.7728,-0.99671 z m 0.6684,0.32517 c -0.043,-0.005 0.3927,0.69629 0.6101,0.90925 0.026,0.0252 0.078,0.0532 0.12,0.0822 -0.2254,-0.32557 -0.5946,-0.84707 -0.678,-0.94459 -0.028,-0.0328 -0.046,-0.0461 -0.052,-0.0468 z m 0.986,1.14421 c 0.2744,0.1502 0.5514,0.27549 0.3807,0.19526 -0.1953,-0.0918 -0.2475,-0.12928 -0.3807,-0.19526 z m 1.3629,1.13741 c 0.01,0.0164 0.05,0.11013 0.097,0.26743 0.028,0.0257 0.087,0.0539 0.1342,0.0839 -0.1465,-0.21933 -0.2415,-0.37519 -0.2311,-0.35134 z m 3.1559,2.42249 c 0.066,0.0948 0.152,0.22892 0.1949,0.29307 0.025,0.0146 0.056,0.0237 0.082,0.0371 -0.087,-0.11399 -0.1845,-0.22005 -0.2771,-0.33019 z m 2.0416,1.6117 c -0.064,-0.0527 0.1097,0.12137 0.1655,0.18188 0.028,0.0157 0.077,0.0458 0.1216,0.069 -0.089,-0.0755 -0.1566,-0.14392 -0.2871,-0.25079 z m 0.6416,0.30838 c -0.3248,-0.0185 0.564,0.50695 0.991,0.75509 -0.08,-0.0873 -0.1527,-0.20711 -0.2361,-0.31163 -0.1203,-0.0672 -0.2237,-0.1363 -0.4799,-0.32857 -0.019,-0.0312 -0.018,-0.0281 -0.036,-0.0582 -0.094,-0.0247 -0.1947,-0.0542 -0.2389,-0.0567 z"
       id="path3525"
       inkscape:connector-curvature="0" />
    <path
       style="display:inline;fill:#b90400;fill-opacity:1;fill-rule:evenodd;stroke:none"
       d="m 273.58939,358.99333 c -13.8864,-1.72964 -26.5304,7.99508 -28.2402,21.72214 -1.1914,9.56524 3.2509,18.53852 10.7498,23.68905 -0.046,-0.0332 -0.091,-0.0708 -0.1309,-0.11033 -0.2693,-0.2692 -0.468,-0.49812 -0.6223,-0.69572 -0.1678,-0.0101 -0.3194,-0.22148 -0.4656,-0.3268 -0.6534,-0.4708 -1.0184,-0.87276 -1.3968,-1.32979 0,-0.002 -0.034,-0.0413 -0.038,-0.045 0,-0.0179 -0.027,-0.0741 -0.094,-0.173 -0.7628,-0.39423 -0.256,-0.24012 -0.6635,-0.36488 l -0.7854,-1.01171 c 0.021,0.04 0.056,0.10013 0.071,0.12975 0,0.009 -4e-4,0.011 0,0.0132 -0.01,-0.004 -0.027,-0.0218 -0.039,-0.0318 0.035,0.061 0.1281,0.22762 0.094,0.17301 -0.039,-0.0625 -0.079,-0.12858 -0.121,-0.1898 -0.046,-0.0401 -0.098,-0.0965 -0.1293,-0.12361 -0.1703,-0.14863 -0.3269,-0.29901 -0.4935,-0.45123 0.1612,0.13227 0.3472,0.28578 0.5001,0.39828 -0.115,-0.16772 -0.2212,-0.33095 -0.2826,-0.51901 -0.078,-0.23744 0.222,0.2724 0.39,0.58615 0.01,0.004 0.01,0.0118 0.013,0.015 0.332,0.20403 0.2751,-0.0746 -1.4004,-2.23068 -0.1518,-0.1954 0.075,0.21699 0.2015,0.58955 0.1834,0.21199 0.3219,0.50428 0.1642,0.42364 -0.037,-0.0188 -0.06,-0.0542 -0.091,-0.0786 -5e-4,0.0124 0,0.0285 -0.01,0.0397 -0.022,0.16365 -0.32,-0.28133 -0.373,-0.48997 -0.044,-0.0667 -0.085,-0.132 -0.1352,-0.19157 0.043,0.0494 0.055,0.0678 0.1259,0.15009 -4e-4,-0.0131 0,-0.0312 0.01,-0.0397 -0.365,-0.43069 -0.8643,-1.01605 -1.0083,-1.42921 -0.038,-0.10873 -0.061,-0.22238 -0.089,-0.3336 -0.19,-0.15762 -0.4199,-0.48178 -0.4414,-0.75383 -0.013,-0.16508 0.1116,0.0503 0.2536,0.28693 -0.07,-0.26195 -0.1441,-0.59958 -0.1345,-0.66186 l -0.3515,-1.01143 c 0.001,0.0249 -0.02,-0.0295 -0.049,-0.0733 0.037,0.27805 0.088,0.56424 0.054,0.84005 -0.018,0.1464 -0.1182,-0.27668 -0.15,-0.42188 -0.06,-0.27621 -0.1141,-0.55485 -0.1274,-0.83568 -0.23,-0.57942 -0.2225,-1.12539 -0.1342,-1.71011 -0.1961,-0.43462 -0.387,-0.93317 -0.3108,-1.2214 -0.035,-0.30434 -0.068,-0.60894 -0.1032,-0.91332 0.042,-0.13464 0.081,-0.26684 0.1223,-0.40138 -0.02,-0.23244 -0.037,-0.46764 -0.087,-0.69625 -0.031,-0.14208 0.061,0.55834 -0.01,0.42881 -0.2401,-0.43618 -0.048,-1.58125 0.064,-2.02145 0.1898,-0.7473 0.4365,-1.0593 0.7007,-1.09541 0.382,-1.48054 2.27,-2.67301 5.4814,-2.19335 1.2109,0.18087 2.4304,0.11533 3.6218,0.42422 0.3241,0.12603 0.6463,0.23959 0.9659,0.37566 0.024,0.01 0.074,0.026 0.1107,0.0407 0.2615,0.0448 0.5447,0.12921 0.8256,0.2238 0.4903,-0.0686 1.0616,-0.0617 1.7025,0.0373 0.3655,0.0565 0.1675,0.0309 0.5967,0.0877 0.9285,0.0738 1.9151,0.0184 2.6755,0.58859 0.013,0.002 0.031,0.005 0.043,0.005 0.8706,0.0512 1.7166,0.18822 2.3948,0.63429 l 1.0828,0.13486 c 0.644,0.0802 1.2934,0.16105 1.9374,0.24132 0.6522,0.0813 1.2995,0.16228 1.9517,0.2431 0.6872,0.0856 1.3782,0.17469 2.0657,0.2573 0.7007,0.0842 1.397,0.15334 2.0926,0.27404 0.4464,0.0683 0.9031,0.0101 1.3506,0.0742 0.914,0.13067 0.884,0.17934 1.6826,0.54556 0.01,0.005 0.01,0.0107 0.013,0.015 0.422,0.007 0.4234,0.0109 1.1824,0.14728 0.04,0.014 1.041,0.33103 1.1462,0.43844 0.059,0.0605 -0.3294,-0.044 -0.2614,0.008 0.1207,0.0919 0.7393,0.0427 0.9118,0.11357 l 2.3078,0.28746 1.8378,0.2289 2.3364,0.29101 2.2651,0.28214 1.909,0.23778 2.0229,0.25197 c 0.3591,-1.23061 0.63,-2.50269 0.7931,-3.81215 1.7098,-13.72706 -8.1623,-26.25629 -22.0487,-27.98593 z m -21.6994,41.33887 -0.137,-0.17833 c 0.027,0.0471 0.038,0.0668 0.083,0.14476 0.02,0.0136 0.036,0.0222 0.054,0.0336 z m 7.094,-7.12641 c 0,0.0131 0,0.0265 0,0.0397 0.01,0.005 0.018,0.0113 0.027,0.0168 0.01,-0.0119 0.014,-0.0252 0.019,-0.0379 -0.012,-0.002 -0.031,-0.0173 -0.041,-0.0185 z m -9.8017,3.07981 c 0.012,0.0682 0.01,0.0933 0.012,0.13589 0.01,0.0168 0.028,0.0293 0.038,0.045 -0.014,-0.0613 -0.034,-0.12002 -0.05,-0.18093 z m 3.4012,4.40178 c -0.043,-0.005 0.3927,0.69629 0.6101,0.90925 0.026,0.0252 0.078,0.0532 0.12,0.0822 -0.2254,-0.32557 -0.5946,-0.84707 -0.678,-0.94459 -0.028,-0.0328 -0.046,-0.0461 -0.052,-0.0468 z m 0.986,1.14421 c 0.2744,0.1502 0.5514,0.27549 0.3807,0.19526 -0.1953,-0.0918 -0.2475,-0.12928 -0.3807,-0.19526 z m 1.3629,1.13741 c 0.01,0.0164 0.05,0.11013 0.097,0.26743 0.028,0.0257 0.087,0.0539 0.1342,0.0839 -0.1465,-0.21933 -0.2415,-0.37519 -0.2311,-0.35134 z m 1.3134,1.53445 c 0.1902,0.12869 0.3807,0.25695 0.5747,0.3807 -0.062,-0.0575 -0.1197,-0.11357 -0.1813,-0.17043 -0.026,-0.0213 -0.053,-0.0422 -0.079,-0.0635 -0.1057,-0.0442 -0.2139,-0.0904 -0.3145,-0.14669 z m 1.8425,0.88804 c 0.066,0.0948 0.152,0.22892 0.1949,0.29307 0.025,0.0146 0.056,0.0237 0.082,0.0371 -0.087,-0.11399 -0.1845,-0.22005 -0.2771,-0.33019 z"
       id="path3525-9"
       inkscape:connector-curvature="0" />
    <ellipse
       style="display:inline;fill:#800000;fill-opacity:1;stroke:none"
       id="path5967"
       transform="matrix(0.99233194,0.12360147,-0.12360147,0.99233194,0,0)"
       cx="333.38519"
       cy="340.09521"
       rx="3.2157924"
       ry="3.6275485" />
    <ellipse
       style="display:inline;fill:#800000;fill-opacity:1"
       id="path3938-4"
       transform="matrix(0.99233194,0.12360148,-0.12360148,0.99233194,0,0)"
       cx="275.20016"
       cy="317.40005"
       rx="34.783058"
       ry="31.093273" />
    <ellipse
       style="display:inline;fill:#ffffff;fill-opacity:1"
       id="path3938-1-0"
       transform="matrix(0.99233194,0.12360147,-0.12360148,0.99233194,0,0)"
       cx="275.85648"
       cy="318.61938"
       rx="32.157925"
       ry="28.044914" />
    <ellipse
       style="display:inline;fill:#b90400;fill-opacity:1;stroke:none"
       id="path4800-8"
       transform="matrix(-0.70462413,0.70958075,-0.50902918,-0.86074926,0,0)"
       cx="11.781921"
       cy="-362.4588"
       rx="19.27503"
       ry="33.818916" />
    <ellipse
       style="display:inline;fill:#b90400;fill-opacity:1;stroke:none"
       id="path4800-7-2"
       transform="matrix(-0.70462413,0.70958075,-0.50902918,-0.86074926,0,0)"
       cx="11.905861"
       cy="-365.80228"
       rx="19.27503"
       ry="33.818916" />
    <ellipse
       style="display:inline;fill:#800000;fill-opacity:1;stroke:none"
       id="path4800-1-4"
       transform="matrix(-0.72228148,0.6915992,-0.53055806,-0.8476486,0,0)"
       cx="17.862186"
       cy="-348.21378"
       rx="8.3779573"
       ry="14.699507" />
    <path
       sodipodi:type="arc"
       style="display:inline;fill:#800000;fill-opacity:1;stroke:none"
       id="path4942-2-5"
       sodipodi:cx="241.91563"
       sodipodi:cy="278.96304"
       sodipodi:rx="13.976146"
       sodipodi:ry="15.17453"
       d="m 254.0021,286.58263 a 13.976146,15.17453 0 0 1 -17.96516,6.14728 13.976146,15.17453 0 0 1 -7.28708,-18.8589 13.976146,15.17453 0 0 1 16.62728,-9.60972 l -3.46151,14.70175 z"
       sodipodi:start="0.52605967"
       sodipodi:end="4.962666"
       transform="matrix(0.99233194,0.12360148,-0.12360148,0.99233194,0,0)" />
    <path
       sodipodi:type="arc"
       style="display:inline;fill:#800000;fill-opacity:1;fill-rule:evenodd;stroke:none"
       id="path3525-3-2"
       sodipodi:cx="318.28317"
       sodipodi:cy="351.36118"
       sodipodi:rx="25.337837"
       sodipodi:ry="25.047096"
       d="m 343.62101,351.36118 a 25.337837,25.047096 0 0 1 -13.55759,22.17542 25.337837,25.047096 0 0 1 -26.16417,-1.55552 25.337837,25.047096 0 0 1 -10.77128,-23.62182 l 25.1552,3.00192 z"
       transform="matrix(0.99233194,0.12360147,-0.12360147,0.99233194,0,0)"
       sodipodi:start="0"
       sodipodi:end="3.2617321" />
    <path
       sodipodi:type="arc"
       style="display:inline;fill:#b90400;fill-opacity:1;fill-rule:evenodd;stroke:none"
       id="path3525-3-8-7"
       sodipodi:cx="316.44559"
       sodipodi:cy="352.73062"
       sodipodi:rx="23.959641"
       sodipodi:ry="21.617233"
       d="m 340.40523,352.73062 a 23.959641,21.617233 0 0 1 -12.82016,19.1388 23.959641,21.617233 0 0 1 -24.74102,-1.34251 23.959641,21.617233 0 0 1 -10.1854,-20.38713 l 23.78694,2.59084 z"
       transform="matrix(0.99233194,0.12360148,-0.12360149,0.99233194,0,0)"
       sodipodi:start="0"
       sodipodi:end="3.2617321" />
    <ellipse
       transform="matrix(0.99233194,0.12360147,-0.12360147,0.99233194,0,0)"
       style="display:inline;fill:#00b904;fill-opacity:1"
       id="path3959-9-1"
       cx="286.59824"
       cy="325.23798"
       rx="18.269119"
       ry="17.070816" />
    <ellipse
       transform="matrix(0.99233194,0.12360147,-0.12360147,0.99233194,0,0)"
       style="display:inline;fill:#000000;fill-opacity:1"
       id="path3959-7-4-1"
       cx="290.07809"
       cy="323.68607"
       rx="15.659244"
       ry="13.967031" />
    <ellipse
       ry="5.1732388"
       rx="5.5687561"
       transform="matrix(0.99233194,0.12360147,-0.12360147,0.99233194,0,0)"
       style="display:inline;fill:#ffffff;fill-opacity:1"
       id="path3979-8-5"
       cx="285.79767"
       cy="315.77216" />
    <ellipse
       ry="11.084906"
       rx="25.235849"
       cy="389.4321"
       cx="264.07181"
       style="fill:#b90400;fill-opacity:1;stroke:none"
       id="path3586" />
    <path
       style="fill:none;stroke:#800000;stroke-width:1.26666617px;stroke-linecap:butt;stroke-linejoin:miter;stroke-opacity:1"
       d="m 291.19447,391.31887 c 0,0 -19.81132,-6.81133 -19.81132,-2.27045"
       id="path3588"
       inkscape:connector-curvature="0" />
    <path
       sodipodi:type="arc"
       style="fill:#800000;fill-opacity:1;stroke:none"
       id="path4407"
       sodipodi:cx="-194.55849"
       sodipodi:cy="-428.73907"
       sodipodi:rx="18.946615"
       sodipodi:ry="10.155811"
       d="m -175.61187,-428.73907 a 18.946615,10.155811 0 0 1 -18.87135,10.15573 18.946615,10.155811 0 0 1 -19.02128,-10.07505"
       sodipodi:start="0"
       sodipodi:end="3.1336479"
       sodipodi:open="true"
       transform="matrix(-0.87596353,0.48237733,-0.11526308,-0.993335,0,0)" />
    <path
       sodipodi:type="arc"
       style="opacity:0.63274387;fill:#00ffff;fill-opacity:0.5744681;stroke:none"
       id="path5857"
       sodipodi:cx="192.51346"
       sodipodi:cy="404.13937"
       sodipodi:rx="125.89613"
       sodipodi:ry="128.91621"
       d="M 66.640369,406.60584 A 125.89613,128.91621 0 0 1 188.84362,275.27794 125.89613,128.91621 0 0 1 318.313,399.09047 125.89613,128.91621 0 0 1 198.70438,532.89962 125.89613,128.91621 0 0 1 66.837983,411.76869"
       sodipodi:start="3.1224592"
       sodipodi:end="3.0823776"
       sodipodi:open="true" />
    <path
       sodipodi:type="arc"
       style="opacity:0.63274387;fill:#00ffff;fill-opacity:0.20238096;stroke:none"
       id="path5857-1"
       sodipodi:cx="189.08186"
       sodipodi:cy="404.3494"
       sodipodi:rx="128.68427"
       sodipodi:ry="131.64569"
       d="M 60.421152,406.86808 A 128.68427,131.64569 0 0 1 185.33075,272.75965 128.68427,131.64569 0 0 1 317.6674,399.19359 128.68427,131.64569 0 0 1 195.40989,535.83582 128.68427,131.64569 0 0 1 60.623143,412.14025"
       sodipodi:start="3.1224592"
       sodipodi:end="3.0823776"
       sodipodi:open="true" />
    <ellipse
       ry="24.698515"
       rx="16.428307"
       cy="-230.87578"
       cx="-278.49902"
       style="opacity:0.63274387;fill:#eeeeee;fill-opacity:0.91747574;stroke:none"
       id="path6368"
       transform="matrix(-0.87056833,-0.49204754,0.50799485,-0.86136011,0,0)" />
  </g>
</svg>
