<?xml version="1.0" encoding="UTF-8" standalone="no"?>
<!-- Created with Inkscape (http://www.inkscape.org/) -->

<svg
   xmlns:dc="http://purl.org/dc/elements/1.1/"
   xmlns:cc="http://creativecommons.org/ns#"
   xmlns:rdf="http://www.w3.org/1999/02/22-rdf-syntax-ns#"
   xmlns:svg="http://www.w3.org/2000/svg"
   xmlns="http://www.w3.org/2000/svg"
   xmlns:xlink="http://www.w3.org/1999/xlink"
   xmlns:sodipodi="http://sodipodi.sourceforge.net/DTD/sodipodi-0.dtd"
   xmlns:inkscape="http://www.inkscape.org/namespaces/inkscape"
   width="210mm"
   height="297mm"
   viewBox="0 0 744.09448819 1052.3622047"
   id="svg5537"
   version="1.1"
   inkscape:version="0.91 r13725"
   sodipodi:docname="Story2.0.svg"
   inkscape:export-filename="C:\Users\wolfi_000\Source\Repos\NEWDatRepo\manda's Art\Story2.png"
   inkscape:export-xdpi="90"
   inkscape:export-ydpi="90">
  <defs
     id="defs5539">
    <linearGradient
       inkscape:collect="always"
       id="linearGradient6527">
      <stop
         style="stop-color:#494949;stop-opacity:1;"
         offset="0"
         id="stop6529" />
      <stop
         style="stop-color:#494949;stop-opacity:0;"
         offset="1"
         id="stop6531" />
    </linearGradient>
    <linearGradient
       inkscape:collect="always"
       id="linearGradient6484">
      <stop
         style="stop-color:#1a1a1a;stop-opacity:1;"
         offset="0"
         id="stop6486" />
      <stop
         style="stop-color:#1a1a1a;stop-opacity:0;"
         offset="1"
         id="stop6488" />
    </linearGradient>
    <inkscape:path-effect
       effect="spiro"
       id="path-effect9875-2-5"
       is_visible="true" />
    <inkscape:path-effect
       effect="spiro"
       id="path-effect9875-4"
       is_visible="true" />
    <inkscape:path-effect
       effect="spiro"
       id="path-effect9875-2-4"
       is_visible="true" />
    <inkscape:path-effect
       effect="spiro"
       id="path-effect9875-0"
       is_visible="true" />
    <radialGradient
       inkscape:collect="always"
       xlink:href="#linearGradient6567"
       id="radialGradient6573"
       cx="428.57144"
       cy="483.80356"
       fx="428.57144"
       fy="483.80356"
       r="552.85712"
       gradientTransform="matrix(1.4242862,-0.050436,0.02095566,0.69378762,-202.04894,-621.20759)"
       gradientUnits="userSpaceOnUse" />
    <linearGradient
       inkscape:collect="always"
       id="linearGradient6567">
      <stop
         style="stop-color:#e1e100;stop-opacity:1;"
         offset="0"
         id="stop6569" />
      <stop
         style="stop-color:#e1e100;stop-opacity:0;"
         offset="1"
         id="stop6571" />
    </linearGradient>
    <linearGradient
       inkscape:collect="always"
       xlink:href="#linearGradient6484"
       id="linearGradient6490"
       x1="388.73239"
       y1="572.08051"
       x2="571.83099"
       y2="591.79883"
       gradientUnits="userSpaceOnUse"
       gradientTransform="matrix(1,0,0,1.0422961,-1125.3521,-54.429514)" />
    <radialGradient
       inkscape:collect="always"
       xlink:href="#linearGradient6527"
       id="radialGradient6533"
       cx="421.12677"
       cy="822.25073"
       fx="421.12677"
       fy="822.25073"
       r="35.915493"
       gradientTransform="matrix(2.1176478,-1.9215642,4.4140447,4.8644703,-4100.123,-2343.8639)"
       gradientUnits="userSpaceOnUse" />
  </defs>
  <sodipodi:namedview
     id="base"
     pagecolor="#ffffff"
     bordercolor="#666666"
     borderopacity="1.0"
     inkscape:pageopacity="0.0"
     inkscape:pageshadow="2"
     inkscape:zoom="0.71"
     inkscape:cx="223.20771"
     inkscape:cy="475.65685"
     inkscape:document-units="px"
     inkscape:current-layer="layer6"
     showgrid="false"
     inkscape:window-width="1920"
     inkscape:window-height="1017"
     inkscape:window-x="-8"
     inkscape:window-y="-8"
     inkscape:window-maximized="1" />
  <metadata
     id="metadata5542">
    <rdf:RDF>
      <cc:Work
         rdf:about="">
        <dc:format>image/svg+xml</dc:format>
        <dc:type
           rdf:resource="http://purl.org/dc/dcmitype/StillImage" />
        <dc:title></dc:title>
      </cc:Work>
    </rdf:RDF>
  </metadata>
  <g
     inkscape:groupmode="layer"
     id="layer5"
     inkscape:label="Layer 3">
    <rect
       style="fill:#e18600;fill-opacity:1;stroke:none"
       id="rect6024"
       width="1054.0778"
       height="746.79669"
       x="2.3894615"
       y="-742.66797"
       rx="31.851198"
       ry="11.354966"
       transform="matrix(0.00111645,0.99999938,-0.99999944,0.0010579,0,0)" />
    <rect
       style="fill:url(#radialGradient6573);fill-opacity:1;stroke:none"
       id="rect6557"
       width="1048.9989"
       height="767.54108"
       x="-1.6437941"
       y="-760.64636"
       rx="32.066307"
       ry="12.049725"
       transform="matrix(0.00110896,0.99999939,-0.99999943,0.00106504,0,0)" />
  </g>
  <g
     inkscape:groupmode="layer"
     id="layer4"
     inkscape:label="Layer 2"
     style="display:inline;opacity:1"
     sodipodi:insensitive="true">
    <rect
       style="opacity:1;fill:#323232;fill-opacity:1;stroke:none;stroke-opacity:1"
       id="rect6400"
       width="745.07043"
       height="70.422562"
       x="-1.4084207"
       y="983.34814"
       rx="118.88825"
       ry="1.5785993" />
  </g>
  <g
     inkscape:label="Layer 1"
     inkscape:groupmode="layer"
     id="layer1"
     sodipodi:insensitive="true">
    <rect
       style="opacity:1;fill:#646464;fill-opacity:1;stroke:none;stroke-opacity:1"
       id="rect5545"
       width="369.01407"
       height="1056.338"
       x="378.87323"
       y="-2.5673728"
       rx="55.578732"
       ry="11.4922" />
    <rect
       style="opacity:1;fill:#1b1b1b;fill-opacity:1;stroke:none;stroke-opacity:1"
       id="rect6087"
       width="71.830986"
       height="469.01407"
       x="378.87323"
       y="583.34808"
       rx="54.730202"
       ry="7.8581161" />
    <path
       style="fill:#803300;fill-opacity:1;stroke:none"
       d="M 74.373179,954.89459 113.97298,990.2933 62.793869,979.83584 74.373179,954.89459 Z"
       id="path9873"
       inkscape:path-effect="#path-effect9875-0"
       inkscape:original-d="m 74.373179,954.89459 c -12.217419,24.514 39.599801,35.39871 39.599801,35.39871 L 62.793869,979.83584 Z"
       inkscape:connector-curvature="0"
       inkscape:transform-center-x="-16.077912"
       inkscape:transform-center-y="-8.323931" />
    <path
       style="fill:#a05a2c;fill-opacity:1;stroke:none"
       d="m 77.562724,957.52532 34.471146,31.64732 -44.686286,-9.19869 10.21514,-22.44863 z"
       id="path9873-7"
       inkscape:path-effect="#path-effect9875-2-4"
       inkscape:original-d="m 77.562724,957.52532 c -10.771162,22.06727 34.471146,31.64732 34.471146,31.64732 l -44.686286,-9.19869 z"
       inkscape:connector-curvature="0"
       inkscape:transform-center-x="-17.385211"
       inkscape:transform-center-y="-7.568896" />
    <rect
       style="fill:#999999;fill-opacity:1;fill-rule:evenodd;stroke:none"
       id="rect10406"
       width="13.808389"
       height="3.3241506"
       x="-445.8959"
       y="-922.2702"
       ry="0"
       transform="matrix(-0.95250622,-0.30451912,0.36455763,-0.93118083,0,0)"
       inkscape:transform-center-x="1.8904896"
       inkscape:transform-center-y="-4.5629355" />
    <rect
       style="fill:#999999;fill-opacity:1;fill-rule:evenodd;stroke:none"
       id="rect10406-9"
       width="13.771481"
       height="3.3330595"
       x="913.72235"
       y="-438.51028"
       ry="0"
       transform="matrix(-0.36455763,0.93118083,-0.95250622,-0.30451912,0,0)"
       inkscape:transform-center-x="3.9364243"
       inkscape:transform-center-y="-5.2170449" />
    <path
       style="display:inline;fill:#800000;fill-opacity:1;stroke:#b90400;stroke-width:0.29632485px;stroke-linecap:butt;stroke-linejoin:miter;stroke-opacity:1"
       d="m 82.041192,1012.0575 c -23.641133,9.8162 -33.435321,-21.75466 -33.435321,-21.75466 0,0 17.899722,15.91806 30.058021,14.06096 8.44326,4.7754 3.3773,7.6937 3.3773,7.6937 z"
       id="path4779-3"
       inkscape:connector-curvature="0" />
    <path
       style="display:inline;fill:#b90400;fill-opacity:1;stroke:#b90400;stroke-width:0.24632908px;stroke-linecap:butt;stroke-linejoin:miter;stroke-opacity:1"
       d="m 78.71943,1011.3174 c -19.337819,8.2927 -27.349208,-18.3785 -27.349208,-18.3785 0,0 14.641502,13.4477 24.58667,11.8788 6.906358,4.0343 2.762538,6.4997 2.762538,6.4997 z"
       id="path4779-2-0"
       inkscape:connector-curvature="0" />
    <ellipse
       style="display:inline;fill:#800000;fill-opacity:1"
       id="path4291"
       cx="111.17461"
       cy="1001.4488"
       rx="40.266941"
       ry="30.253214" />
    <ellipse
       style="display:inline;fill:#b90400;fill-opacity:1"
       id="path4291-9"
       cx="110.25095"
       cy="1002.1038"
       rx="38.1423"
       ry="29.222916" />
    <ellipse
       transform="matrix(0.96181923,0.27368553,-0.27544022,0.9613182,0,0)"
       style="display:inline;fill:#800000;fill-opacity:1"
       id="path4208"
       cx="366.81766"
       cy="948.76672"
       rx="21.645445"
       ry="19.487038"
       inkscape:transform-center-x="2.0776328"
       inkscape:transform-center-y="-2.4453466" />
    <ellipse
       transform="matrix(0.96181923,0.27368553,-0.27544022,0.9613182,0,0)"
       style="display:inline;fill:#800000;fill-opacity:1"
       id="path4210"
       cx="375.314"
       cy="966.19263"
       rx="15.374334"
       ry="9.9308949"
       inkscape:transform-center-x="-1.2944988"
       inkscape:transform-center-y="16.631844" />
    <ellipse
       transform="matrix(0.96181923,0.27368553,-0.27544022,0.9613182,0,0)"
       style="display:inline;fill:#b90400;fill-opacity:1"
       id="path4208-2"
       cx="366.31192"
       cy="948.1109"
       rx="20.937416"
       ry="18.643848"
       inkscape:transform-center-x="2.3834251"
       inkscape:transform-center-y="-3.2142086" />
    <ellipse
       transform="matrix(0.96181923,0.27368553,-0.27544022,0.9613182,0,0)"
       style="display:inline;fill:#b90400;fill-opacity:1"
       id="path4210-6"
       cx="374.70712"
       cy="966.28632"
       rx="13.958277"
       ry="8.3382034"
       inkscape:transform-center-x="-0.68500192"
       inkscape:transform-center-y="16.555814" />
    <ellipse
       transform="matrix(0.99989661,-0.01437965,0.01447934,0.99989517,0,0)"
       style="display:inline;fill:#800000;fill-opacity:1"
       id="path3399"
       cx="116.56028"
       cy="1008.7471"
       rx="17.502953"
       ry="17.234041" />
    <ellipse
       transform="matrix(0.99989661,-0.01437965,0.01447934,0.99989517,0,0)"
       style="display:inline;fill:#800000;fill-opacity:1"
       id="path3401"
       cx="113.12038"
       cy="1021.579"
       rx="14.670105"
       ry="16.391073" />
    <ellipse
       transform="matrix(0.99989661,-0.01437965,0.01447934,0.99989517,0,0)"
       style="display:inline;fill:#800000;fill-opacity:1"
       id="path3403"
       cx="121.11306"
       cy="1032.8186"
       rx="15.175971"
       ry="9.8346434" />
    <ellipse
       transform="matrix(0.99989661,-0.01437965,0.01447934,0.99989517,0,0)"
       style="display:inline;fill:#b90400;fill-opacity:1"
       id="path3399-9"
       cx="116.59058"
       cy="1008.1526"
       rx="16.847761"
       ry="17.107784" />
    <ellipse
       transform="matrix(0.99989661,-0.01437965,0.01447934,0.99989517,0,0)"
       style="display:inline;fill:#b90400;fill-opacity:1"
       id="path3401-5"
       cx="113.27944"
       cy="1020.8904"
       rx="14.120956"
       ry="16.270992" />
    <ellipse
       transform="matrix(0.99989661,-0.01437965,0.01447934,0.99989517,0,0)"
       style="display:inline;fill:#b90400;fill-opacity:1"
       id="path3403-4"
       cx="119.35416"
       cy="1032.4222"
       rx="14.607887"
       ry="9.7625942" />
    <ellipse
       style="display:inline;fill:#9b2d27;fill-opacity:0.56078384;stroke:none"
       id="path4937"
       transform="matrix(0.88434581,0.46683239,-0.44168166,0.89717184,0,0)"
       cx="499.64816"
       cy="765.97369"
       rx="8.7135105"
       ry="14.132662" />
    <ellipse
       style="display:inline;fill:#800000;fill-opacity:1;stroke:none"
       id="path4937-5"
       transform="matrix(0.88434581,0.46683239,-0.44168166,0.89717184,0,0)"
       cx="500.65057"
       cy="767.28284"
       rx="8.7135105"
       ry="14.132662" />
    <path
       style="display:inline;fill:#800000;fill-opacity:1"
       d="m 129.76427,921.15907 c -22.18036,-2.75318 -42.172661,11.16083 -44.661371,31.07247 -2.48871,19.91165 13.468739,38.27964 35.649081,41.03281 12.34737,1.53264 24.00127,-2.10948 32.34942,-9.06593 -0.0243,-0.0204 -0.0392,-0.0367 -0.0648,-0.0581 -0.3284,-0.10427 -0.66825,-0.23521 -0.7815,-0.38065 -0.0646,-0.083 -0.11704,-0.17209 -0.17535,-0.25536 -0.0756,-0.0259 -0.15348,-0.055 -0.2324,-0.0873 -0.12545,-0.0435 -0.2486,-0.0869 -0.37025,-0.13774 -0.0561,-0.0234 -0.10895,-0.0539 -0.1604,-0.0867 0,-6.2e-4 -0.006,-1.5e-4 -0.009,-0.001 -0.56217,-0.22836 -0.94034,-0.36892 -1.31146,-0.75512 -0.48531,-0.22985 -0.56834,-0.29122 -0.79576,-0.48254 -0.49857,-0.15967 -0.55457,-0.27646 -1.02891,-0.63661 -0.0193,-0.0146 -0.0517,-0.0235 -0.0668,-0.0417 -0.0305,-0.0362 -0.0554,-0.0735 -0.0853,-0.1107 -0.0424,-0.0207 -0.088,-0.0451 -0.1191,-0.0565 -0.47216,-0.1723 -0.80959,-0.4919 -1.13561,-0.7917 -0.0162,-0.0132 -0.033,-0.0262 -0.0492,-0.0394 -0.13175,-0.0548 -0.27028,-0.12273 -0.36889,-0.22099 -0.16774,-0.1671 -0.29151,-0.3092 -0.38763,-0.43187 -0.10452,-0.006 -0.19895,-0.13748 -0.29002,-0.20285 -0.40701,-0.29226 -0.63437,-0.54178 -0.87007,-0.82548 0,-10e-4 -0.0212,-0.0256 -0.0237,-0.0279 -0.006,-0.0111 -0.0168,-0.046 -0.0586,-0.10739 -0.47515,-0.24471 -0.15946,-0.14905 -0.41329,-0.22648 l -0.48923,-0.62804 c 0.0131,0.0248 0.0349,0.0622 0.0442,0.0805 0,0.006 -2.4e-4,0.007 0,0.008 -0.006,-0.002 -0.0168,-0.0135 -0.0243,-0.0197 0.0218,0.0379 0.0798,0.14129 0.0585,0.10739 -0.0243,-0.0388 -0.0492,-0.0798 -0.0754,-0.11782 -0.0286,-0.0249 -0.061,-0.0599 -0.0805,-0.0767 -0.10608,-0.0923 -0.20363,-0.18561 -0.3074,-0.2801 0.10041,0.0821 0.21627,0.1774 0.31151,0.24724 -0.0716,-0.10412 -0.13778,-0.20545 -0.17603,-0.32218 -0.048,-0.1474 0.13829,0.16909 0.24293,0.36385 0.006,0.002 0.006,0.007 0.008,0.009 0.2068,0.12665 0.17136,-0.0463 -0.87231,-1.38471 -0.0946,-0.12129 0.0467,0.1347 0.12551,0.36597 0.11424,0.13159 0.20051,0.31303 0.10228,0.26298 -0.023,-0.0117 -0.0374,-0.0336 -0.0567,-0.0488 -3.1e-4,0.008 0,0.0177 0,0.0246 -0.0137,0.1016 -0.19933,-0.17463 -0.23234,-0.30415 -0.0274,-0.0415 -0.0529,-0.0819 -0.0843,-0.11891 0.0268,0.0307 0.0343,0.0421 0.0785,0.0932 -2.5e-4,-0.008 0,-0.0194 0,-0.0246 -0.22736,-0.26735 -0.53837,-0.63072 -0.62807,-0.88719 -0.0237,-0.0675 -0.038,-0.13804 -0.0554,-0.20708 -0.11835,-0.0978 -0.26156,-0.29907 -0.27495,-0.46795 -0.008,-0.10248 0.0695,0.0312 0.15797,0.17812 -0.0436,-0.16261 -0.0898,-0.37219 -0.0838,-0.41086 l -0.21889,-0.62784 c 5.6e-4,0.0154 -0.0125,-0.0183 -0.0305,-0.0455 0.023,0.1726 0.0548,0.35026 0.0336,0.52147 -0.0112,0.0909 -0.0736,-0.17175 -0.0934,-0.26189 -0.0374,-0.17145 -0.0711,-0.34442 -0.0794,-0.51875 -0.14327,-0.35967 -0.1386,-0.69859 -0.0836,-1.06156 -0.12216,-0.26979 -0.24107,-0.57926 -0.1936,-0.75819 -0.0218,-0.18892 -0.0424,-0.378 -0.0643,-0.56694 0.0262,-0.0836 0.0505,-0.16564 0.0762,-0.24917 -0.0125,-0.14428 -0.023,-0.29027 -0.0542,-0.43219 -0.0193,-0.0882 0.038,0.34659 -0.006,0.26619 -0.14956,-0.27077 -0.0299,-0.98157 0.0399,-1.25483 0.11816,-0.46389 0.2719,-0.65756 0.43647,-0.67998 0.23795,-0.91905 1.41399,-1.65928 3.41432,-1.36153 0.75433,0.11228 1.51396,0.0716 2.25609,0.26334 0.20188,0.0782 0.40258,0.14873 0.60166,0.23319 0.0149,0.006 0.0461,0.0161 0.0689,0.0253 0.16295,0.0278 0.33929,0.0802 0.51433,0.13892 0.30541,-0.0426 0.66127,-0.0383 1.06049,0.0232 0.22761,0.0351 0.10427,0.0192 0.37169,0.0544 0.5783,0.0458 1.19286,0.0114 1.66651,0.36537 0.008,10e-4 0.0193,0.003 0.0268,0.003 0.54236,0.0318 1.06933,0.11684 1.49179,0.39374 l 0.67441,0.0837 c 0.40122,0.0498 0.80567,0.1 1.20688,0.1498 0.40626,0.0505 0.80946,0.10073 1.21572,0.1509 0.42806,0.0531 0.85849,0.10844 1.28673,0.15972 0.43647,0.0523 0.8702,0.0952 1.30343,0.17011 0.27812,0.0424 0.5626,0.006 0.84135,0.0461 0.56933,0.0811 0.55065,0.11133 1.0481,0.33866 0.006,0.003 0.006,0.007 0.008,0.009 0.26286,0.004 0.26373,0.007 0.73652,0.0914 0.0249,0.009 0.64844,0.20548 0.71397,0.27215 0.0367,0.0376 -0.20519,-0.0273 -0.16283,0.005 0.0751,0.0571 0.46051,0.0265 0.5679,0.0705 l 0.4792,0.0595 c 1.12029,-2.69208 1.90129,-5.54997 2.27653,-8.55236 2.48868,-19.91165 -13.47658,-38.28895 -35.65692,-41.04212 z m 14.04217,56.43781 -0.0853,-0.1107 c 0.0168,0.0292 0.0237,0.0415 0.0517,0.0899 0.0125,0.008 0.0224,0.0138 0.0336,0.0209 z m 4.41894,-4.42375 c 0,0.008 0,0.0164 -0.006,0.0246 0.006,0.003 0.0112,0.007 0.0168,0.0104 0.006,-0.007 0.009,-0.0156 0.0118,-0.0235 -0.007,-10e-4 -0.0193,-0.0107 -0.0255,-0.0115 z m -6.10558,1.91181 c 0.007,0.0423 0.006,0.0579 0.007,0.0844 0.006,0.0104 0.0174,0.0182 0.0237,0.0279 -0.009,-0.038 -0.0212,-0.0745 -0.0311,-0.11231 z m 2.11868,2.73242 c -0.0268,-0.003 0.24462,0.43222 0.38004,0.56442 0.0162,0.0156 0.0486,0.033 0.0747,0.051 -0.14047,-0.2021 -0.37045,-0.52583 -0.4224,-0.58636 -0.0174,-0.0204 -0.0286,-0.0286 -0.0324,-0.029 z m 0.61412,0.71027 c 0.17093,0.0933 0.34347,0.17101 0.23721,0.12121 -0.12166,-0.057 -0.15424,-0.0803 -0.23721,-0.12121 z m 0.84896,0.70606 c 0.006,0.0102 0.0311,0.0684 0.0604,0.166 0.0174,0.0159 0.0542,0.0335 0.0836,0.0521 -0.0912,-0.13615 -0.15036,-0.2329 -0.14395,-0.21809 z m 1.96582,1.50377 c 0.0411,0.0588 0.0947,0.14211 0.12147,0.18192 0.0156,0.009 0.0349,0.0147 0.0511,0.023 -0.0542,-0.0708 -0.11492,-0.1366 -0.1726,-0.20497 z m 1.27178,1.00047 c -0.0399,-0.0327 0.0683,0.0753 0.10303,0.1129 0.0174,0.01 0.048,0.0284 0.0757,0.0428 -0.0554,-0.0469 -0.0975,-0.0893 -0.17877,-0.15568 z m 0.39966,0.19142 c -0.20232,-0.0115 0.35131,0.3147 0.61723,0.46873 -0.0498,-0.0542 -0.0951,-0.12856 -0.14701,-0.19345 -0.075,-0.0417 -0.13934,-0.0846 -0.29893,-0.20396 -0.0118,-0.0194 -0.0112,-0.0174 -0.0224,-0.0361 -0.0585,-0.0153 -0.12128,-0.0336 -0.14881,-0.0352 z"
       id="path2985-1-6"
       inkscape:connector-curvature="0" />
    <path
       style="display:inline;opacity:0.47000002;fill:#b90400;fill-opacity:1"
       d="m 132.96051,920.0008 c -21.73226,-2.69756 -41.280918,10.58732 -43.665933,29.66932 -2.385016,19.08199 13.297193,36.73163 35.029443,39.42918 10.48757,1.30179 20.45633,-1.131 28.24268,-6.13015 -0.17927,-0.10159 -0.34964,-0.2228 -0.51801,-0.398 -0.4853,-0.22986 -0.56833,-0.29122 -0.79582,-0.48255 -0.49851,-0.15967 -0.55451,-0.27646 -1.02885,-0.63662 -0.0193,-0.0147 -0.0511,-0.0235 -0.0668,-0.0417 -0.0311,-0.0362 -0.0561,-0.0735 -0.0853,-0.1107 -0.0424,-0.0207 -0.088,-0.0451 -0.1191,-0.0565 -0.47216,-0.1723 -0.80959,-0.4919 -1.13562,-0.7917 -0.0162,-0.0132 -0.033,-0.0262 -0.0492,-0.0394 -0.13174,-0.0548 -0.27027,-0.12274 -0.36888,-0.22099 -0.16781,-0.16711 -0.29158,-0.30921 -0.38763,-0.43187 -0.10452,-0.006 -0.19896,-0.13748 -0.29003,-0.20287 -0.407,-0.29225 -0.63436,-0.54177 -0.87007,-0.82546 0,-10e-4 -0.0212,-0.0256 -0.0237,-0.0279 0,-0.0111 -0.0168,-0.046 -0.0585,-0.10739 -0.47515,-0.24472 -0.15946,-0.14906 -0.4133,-0.2265 l -0.48922,-0.62803 c 0.0131,0.0248 0.0349,0.0622 0.0442,0.0806 0,0.006 -2.5e-4,0.007 0,0.008 -0.006,-0.002 -0.0168,-0.0135 -0.0243,-0.0197 0.0218,0.0379 0.0798,0.1413 0.0585,0.1074 -0.0243,-0.0388 -0.0492,-0.0798 -0.0754,-0.11782 -0.0286,-0.0249 -0.061,-0.0599 -0.0805,-0.0767 -0.10608,-0.0923 -0.20363,-0.18562 -0.3074,-0.2801 0.10041,0.0821 0.21627,0.17739 0.31151,0.24723 -0.0716,-0.10411 -0.13779,-0.20544 -0.17603,-0.32218 -0.0486,-0.14739 0.13828,0.16909 0.24293,0.36385 0.006,0.002 0.006,0.007 0.008,0.009 0.2068,0.12666 0.17136,-0.0463 -0.87232,-1.3847 -0.0945,-0.12129 0.0467,0.1347 0.12552,0.36597 0.11424,0.1316 0.20051,0.31303 0.10228,0.26298 -0.023,-0.0117 -0.0374,-0.0336 -0.0567,-0.0488 -3.2e-4,0.008 0,0.0177 -0.006,0.0246 -0.0137,0.10159 -0.19933,-0.17463 -0.23235,-0.30415 -0.0274,-0.0415 -0.0529,-0.0819 -0.0842,-0.11891 0.0268,0.0307 0.0343,0.0421 0.0784,0.0932 -2.5e-4,-0.008 0,-0.0194 0.006,-0.0247 -0.22736,-0.26735 -0.53838,-0.63071 -0.62807,-0.88718 -0.0237,-0.0675 -0.038,-0.13804 -0.0554,-0.20708 -0.11835,-0.0978 -0.26156,-0.29907 -0.27495,-0.46795 -0.008,-0.10248 0.0695,0.0312 0.15797,0.17812 -0.0436,-0.16261 -0.0898,-0.3722 -0.0838,-0.41086 l -0.21895,-0.62784 c 6.2e-4,0.0154 -0.0125,-0.0183 -0.0305,-0.0455 0.0231,0.1726 0.0548,0.35025 0.0336,0.52146 -0.0112,0.0909 -0.0736,-0.17175 -0.0934,-0.26188 -0.0374,-0.17146 -0.0711,-0.34442 -0.0794,-0.51875 -0.14333,-0.35968 -0.13866,-0.6986 -0.0836,-1.06156 -0.12222,-0.2698 -0.24107,-0.57927 -0.19367,-0.75819 -0.0218,-0.18892 -0.0423,-0.37801 -0.0643,-0.56694 0.0262,-0.0836 0.0505,-0.16565 0.0762,-0.24917 -0.0125,-0.14428 -0.023,-0.29029 -0.0542,-0.4322 -0.0193,-0.0882 0.038,0.34659 -0.006,0.26619 -0.14956,-0.27076 -0.0299,-0.98157 0.0399,-1.25482 0.11822,-0.46389 0.27189,-0.65757 0.43646,-0.67999 0.23795,-0.91905 1.414,-1.65928 3.41439,-1.36152 0.75433,0.11227 1.5139,0.0716 2.25603,0.26333 0.20188,0.0782 0.40258,0.14873 0.60166,0.23319 0.0149,0.006 0.0461,0.0161 0.069,0.0253 0.16288,0.0278 0.33929,0.0802 0.51433,0.13893 0.30541,-0.0426 0.66121,-0.0383 1.06043,0.0231 0.22767,0.0351 0.10433,0.0192 0.37168,0.0544 0.57837,0.0458 1.19293,0.0114 1.66658,0.36538 0.008,10e-4 0.0193,0.003 0.0268,0.003 0.5423,0.0318 1.06927,0.11684 1.49172,0.39375 l 0.67448,0.0837 c 0.40115,0.0498 0.80567,0.1 1.20682,0.1498 0.40625,0.0505 0.80946,0.10074 1.21572,0.15091 0.42806,0.0531 0.85848,0.10843 1.28673,0.15971 0.43647,0.0523 0.87019,0.0952 1.30349,0.17012 0.27806,0.0424 0.5626,0.006 0.84129,0.0461 0.56933,0.0811 0.55071,0.11133 1.0481,0.33866 0.006,0.003 0.006,0.007 0.008,0.009 0.26287,0.004 0.2638,0.007 0.73659,0.0914 0.023,0.008 0.55588,0.17428 0.68046,0.25133 1.91891,-3.43673 3.211,-7.23268 3.71854,-11.29331 2.38497,-19.082 -13.30509,-36.74094 -35.03731,-39.4385 z m 12.89833,57.73077 -0.0853,-0.1107 c 0.0168,0.0292 0.0237,0.0415 0.0517,0.0899 0.0125,0.008 0.0224,0.0138 0.0336,0.0209 z m 18.29205,-6.98152 c 0,10e-4 -0.006,0.004 0,0.008 0.0174,0.0131 0.0529,0.0228 0.0956,0.0286 0.006,5e-4 0.006,6.2e-4 0.009,10e-4 0.006,-0.008 0.007,-0.0159 0.0118,-0.0235 -0.0467,-0.006 -0.10539,-0.0198 -0.11536,-0.0143 z m -13.87317,2.55777 c 0,0.008 0,0.0165 0,0.0247 0.006,0.003 0.0112,0.007 0.0168,0.0104 0.006,-0.007 0.009,-0.0156 0.0118,-0.0235 -0.007,-0.001 -0.0193,-0.0107 -0.0255,-0.0115 z m -6.10551,1.91181 c 0.007,0.0423 0.006,0.0579 0.007,0.0843 0.006,0.0104 0.0174,0.0182 0.0237,0.0279 -0.009,-0.0381 -0.0212,-0.0745 -0.0311,-0.11232 z m 2.11862,2.73242 c -0.0268,-0.003 0.24461,0.43223 0.38003,0.56442 0.0162,0.0156 0.0486,0.033 0.0747,0.051 -0.14041,-0.2021 -0.37038,-0.52582 -0.42233,-0.58636 -0.0174,-0.0204 -0.0287,-0.0286 -0.0324,-0.029 z m 0.61418,0.71027 c 0.17092,0.0932 0.34347,0.17102 0.23714,0.12121 -0.12166,-0.057 -0.15417,-0.0802 -0.23714,-0.12121 z m 0.84895,0.70606 c 0.006,0.0102 0.0311,0.0684 0.0604,0.166 0.0174,0.016 0.0542,0.0335 0.0836,0.0521 -0.0913,-0.13615 -0.15043,-0.2329 -0.14396,-0.2181 z m 1.96582,1.50377 c 0.0411,0.0589 0.0947,0.1421 0.12141,0.18192 0.0156,0.009 0.0349,0.0147 0.0511,0.023 -0.0542,-0.0708 -0.11492,-0.1366 -0.1726,-0.20496 z m 1.27172,1.00047 c -0.0399,-0.0327 0.0683,0.0753 0.10309,0.1129 0.0174,0.01 0.048,0.0284 0.0757,0.0428 -0.0554,-0.0469 -0.0975,-0.0893 -0.17884,-0.15568 z m 0.39966,0.19143 c -0.20232,-0.0115 0.35131,0.31469 0.61729,0.46872 -0.0498,-0.0542 -0.0951,-0.12856 -0.14706,-0.19344 -0.0749,-0.0417 -0.13935,-0.0846 -0.29893,-0.20397 -0.0118,-0.0194 -0.0112,-0.0174 -0.0224,-0.0361 -0.0585,-0.0153 -0.12128,-0.0336 -0.14881,-0.0352 z"
       id="path3763-9"
       inkscape:connector-curvature="0" />
    <path
       sodipodi:type="arc"
       style="display:inline;fill:#800000;fill-opacity:1;stroke:none"
       id="path4942-2-8"
       sodipodi:cx="-236.55573"
       sodipodi:cy="905.88788"
       sodipodi:rx="8.7102041"
       sodipodi:ry="9.4201536"
       d="m -229.02321,910.61802 a 8.7102041,9.4201536 0 0 1 -11.19623,3.81616 8.7102041,9.4201536 0 0 1 -4.54145,-11.70737 8.7102041,9.4201536 0 0 1 10.36244,-5.96559 l -2.15728,9.12666 z"
       sodipodi:start="0.52605967"
       sodipodi:end="4.962666"
       transform="matrix(-0.99587412,-0.09074548,-0.1240228,0.99227937,0,0)" />
    <path
       style="display:inline;fill:#b90400;fill-opacity:1"
       d="m 131.81661,921.29376 c -22.18032,-2.75318 -42.172635,11.16082 -44.661345,31.07248 -2.488716,19.91165 13.468735,38.27963 35.649055,41.0328 12.34744,1.53265 24.00127,-2.10947 32.34942,-9.06593 -0.0243,-0.0204 -0.0392,-0.0367 -0.0648,-0.0581 -0.32846,-0.10427 -0.66831,-0.23521 -0.78149,-0.38065 -0.0647,-0.083 -0.11711,-0.17209 -0.17535,-0.25536 -0.0756,-0.0259 -0.15355,-0.055 -0.23241,-0.0873 -0.12551,-0.0435 -0.2486,-0.0869 -0.37031,-0.13774 -0.0561,-0.0234 -0.10889,-0.0539 -0.1604,-0.0866 0,-6.2e-4 -0.006,-1.6e-4 -0.009,-10e-4 -0.56217,-0.22835 -0.94034,-0.36891 -1.3114,-0.75512 -0.48537,-0.22984 -0.56834,-0.29122 -0.79582,-0.48253 -0.49857,-0.15967 -0.55451,-0.27646 -1.02885,-0.63662 -0.0193,-0.0146 -0.0517,-0.0235 -0.0669,-0.0417 -0.0311,-0.0362 -0.0561,-0.0735 -0.0853,-0.1107 -0.0423,-0.0207 -0.088,-0.0451 -0.11909,-0.0565 -0.47217,-0.17231 -0.80959,-0.49191 -1.13568,-0.79171 -0.0162,-0.0132 -0.033,-0.0262 -0.0492,-0.0394 -0.13168,-0.0548 -0.27022,-0.12273 -0.36888,-0.22098 -0.16775,-0.16711 -0.29152,-0.30921 -0.38757,-0.43188 -0.10453,-0.006 -0.19902,-0.13748 -0.29009,-0.20286 -0.40701,-0.29225 -0.63437,-0.54177 -0.87007,-0.82547 0,-0.001 -0.0212,-0.0256 -0.0237,-0.0279 0,-0.0111 -0.0168,-0.046 -0.0586,-0.1074 -0.47515,-0.24471 -0.1594,-0.14905 -0.41323,-0.2265 l -0.48923,-0.62802 c 0.0131,0.0248 0.0349,0.0622 0.0442,0.0805 0,0.006 -3.1e-4,0.007 0,0.008 -0.006,-0.002 -0.0168,-0.0135 -0.0243,-0.0197 0.0218,0.0379 0.0797,0.14129 0.0585,0.10739 -0.0243,-0.0388 -0.0492,-0.0798 -0.0754,-0.11781 -0.0286,-0.0249 -0.061,-0.0599 -0.0805,-0.0767 -0.10608,-0.0923 -0.20369,-0.18561 -0.30747,-0.2801 0.10041,0.0821 0.21627,0.1774 0.31158,0.24723 -0.0717,-0.10411 -0.13779,-0.20543 -0.17604,-0.32217 -0.0486,-0.14739 0.13829,0.16908 0.24287,0.36385 0.006,0.002 0.006,0.007 0.008,0.009 0.20687,0.12666 0.17136,-0.0463 -0.87225,-1.3847 -0.0946,-0.1213 0.0467,0.1347 0.12545,0.36597 0.11424,0.13159 0.20058,0.31302 0.10235,0.26297 -0.0231,-0.0117 -0.0374,-0.0336 -0.0567,-0.0488 -3.7e-4,0.008 0,0.0177 -0.006,0.0246 -0.0137,0.10159 -0.19933,-0.17463 -0.23234,-0.30415 -0.0274,-0.0414 -0.053,-0.0819 -0.0843,-0.11891 0.0268,0.0307 0.0343,0.0421 0.0785,0.0932 -2.5e-4,-0.008 0,-0.0194 0.006,-0.0246 -0.22743,-0.26735 -0.53844,-0.63072 -0.62814,-0.88719 -0.0237,-0.0675 -0.038,-0.13804 -0.0554,-0.20708 -0.11835,-0.0978 -0.26155,-0.29907 -0.27488,-0.46795 -0.008,-0.10248 0.0694,0.0312 0.15796,0.17812 -0.0436,-0.16261 -0.0898,-0.37219 -0.0838,-0.41086 l -0.21889,-0.62784 c 5.6e-4,0.0154 -0.0125,-0.0183 -0.0305,-0.0455 0.0231,0.17259 0.0548,0.35024 0.0336,0.52145 -0.0112,0.0909 -0.0737,-0.17174 -0.0934,-0.26187 -0.0374,-0.17147 -0.0711,-0.34443 -0.0794,-0.51876 -0.14326,-0.35968 -0.13865,-0.69859 -0.0836,-1.06155 -0.12215,-0.2698 -0.24106,-0.57927 -0.1936,-0.7582 -0.0218,-0.18891 -0.0424,-0.378 -0.0643,-0.56694 0.0262,-0.0836 0.0504,-0.16564 0.0762,-0.24917 -0.0125,-0.14428 -0.023,-0.29028 -0.0542,-0.4322 -0.0193,-0.0882 0.038,0.3466 -0.006,0.2662 -0.14962,-0.27076 -0.0299,-0.98157 0.0399,-1.25483 0.11817,-0.46389 0.2719,-0.65756 0.43641,-0.67998 0.23795,-0.91906 1.41405,-1.65928 3.41438,-1.36153 0.75434,0.11228 1.51391,0.0716 2.25603,0.26334 0.20195,0.0782 0.40258,0.14872 0.60166,0.23318 0.0149,0.006 0.0461,0.0161 0.069,0.0253 0.16289,0.0278 0.3393,0.0802 0.51433,0.13892 0.30541,-0.0426 0.66121,-0.0383 1.06049,0.0232 0.22761,0.0351 0.10428,0.0192 0.37169,0.0544 0.5783,0.0458 1.19286,0.0114 1.66652,0.36537 0.008,10e-4 0.0193,0.003 0.0268,0.003 0.54236,0.0318 1.06928,0.11685 1.49179,0.39375 l 0.67442,0.0837 c 0.40121,0.0498 0.80566,0.1 1.20687,0.1498 0.40626,0.0505 0.8094,0.10074 1.21572,0.15091 0.428,0.0531 0.85843,0.10843 1.28673,0.15972 0.43641,0.0523 0.87014,0.0952 1.30343,0.17011 0.27806,0.0424 0.56261,0.006 0.84136,0.0461 0.56933,0.0811 0.55064,0.11132 1.04803,0.33866 0.006,0.003 0,0.007 0.008,0.009 0.26286,0.004 0.2638,0.007 0.73658,0.0914 0.0249,0.009 0.64838,0.20549 0.71391,0.27217 0.0368,0.0376 -0.20512,-0.0274 -0.16276,0.005 0.0751,0.0571 0.46051,0.0265 0.5679,0.0705 l 0.4792,0.0595 c 1.12029,-2.69208 1.90122,-5.54997 2.27652,-8.55236 2.48869,-19.91165 -13.47657,-38.28895 -35.65691,-41.04212 z m 14.04223,56.43781 -0.0853,-0.1107 c 0.0168,0.0292 0.0237,0.0415 0.0517,0.0899 0.0125,0.008 0.0224,0.0138 0.0336,0.0209 z m 4.41888,-4.42375 c 0,0.008 0,0.0165 0,0.0247 0.006,0.003 0.0112,0.007 0.0168,0.0104 0.006,-0.007 0.009,-0.0156 0.0118,-0.0235 -0.007,-0.001 -0.0193,-0.0107 -0.0255,-0.0115 z m -6.10551,1.91181 c 0.007,0.0423 0.006,0.0579 0.007,0.0843 0.006,0.0104 0.0174,0.0182 0.0237,0.0279 -0.009,-0.0381 -0.0212,-0.0745 -0.0311,-0.11232 z m 2.11862,2.73242 c -0.0268,-0.003 0.24461,0.43223 0.38003,0.56442 0.0162,0.0156 0.0486,0.033 0.0747,0.051 -0.14041,-0.2021 -0.37038,-0.52582 -0.42233,-0.58636 -0.0174,-0.0204 -0.0287,-0.0286 -0.0324,-0.029 z m 0.61418,0.71027 c 0.17092,0.0932 0.34347,0.17102 0.23714,0.12121 -0.12166,-0.057 -0.15417,-0.0802 -0.23714,-0.12121 z m 0.84895,0.70606 c 0.006,0.0102 0.0311,0.0684 0.0604,0.166 0.0174,0.016 0.0542,0.0335 0.0836,0.0521 -0.0913,-0.13615 -0.15043,-0.2329 -0.14396,-0.2181 z m 1.96582,1.50377 c 0.0411,0.0589 0.0947,0.1421 0.12141,0.18192 0.0156,0.009 0.0349,0.0147 0.0511,0.023 -0.0542,-0.0708 -0.11492,-0.1366 -0.1726,-0.20496 z m 1.27172,1.00047 c -0.0399,-0.0327 0.0683,0.0753 0.10309,0.1129 0.0174,0.01 0.048,0.0284 0.0757,0.0428 -0.0554,-0.0469 -0.0975,-0.0893 -0.17884,-0.15568 z m 0.39966,0.19143 c -0.20232,-0.0115 0.35131,0.31469 0.61729,0.46872 -0.0498,-0.0542 -0.0951,-0.12856 -0.14706,-0.19344 -0.0749,-0.0417 -0.13935,-0.0846 -0.29893,-0.20397 -0.0118,-0.0194 -0.0112,-0.0174 -0.0224,-0.0361 -0.0585,-0.0153 -0.12128,-0.0336 -0.14881,-0.0352 z"
       id="path2985-1"
       inkscape:connector-curvature="0" />
    <path
       style="display:inline;opacity:0.47000002;fill:#b90400;fill-opacity:1"
       d="m 131.97906,921.36398 c -21.73223,-2.69756 -41.280896,10.58732 -43.665911,29.66932 -2.385016,19.082 13.296171,36.73984 35.028431,39.4374 11.22079,1.3928 21.852,-1.48839 29.84721,-7.21576 -0.46979,-0.19068 -0.80547,-0.33554 -1.1401,-0.68379 -0.4853,-0.22986 -0.56833,-0.29122 -0.79582,-0.48255 -0.49851,-0.15967 -0.55451,-0.27646 -1.02885,-0.63662 -0.0193,-0.0147 -0.0511,-0.0235 -0.0668,-0.0417 -0.0311,-0.0362 -0.0561,-0.0735 -0.0853,-0.1107 -0.0424,-0.0207 -0.088,-0.0451 -0.1191,-0.0565 -0.47216,-0.1723 -0.80959,-0.4919 -1.13562,-0.7917 -0.0162,-0.0132 -0.033,-0.0262 -0.0492,-0.0394 -0.13174,-0.0548 -0.27027,-0.12274 -0.36888,-0.22099 -0.16781,-0.16711 -0.29158,-0.30921 -0.38763,-0.43187 -0.10452,-0.006 -0.19896,-0.13748 -0.29003,-0.20287 -0.407,-0.29225 -0.63436,-0.54177 -0.87007,-0.82546 0,-10e-4 -0.0212,-0.0256 -0.0237,-0.0279 0,-0.0111 -0.0168,-0.046 -0.0585,-0.10739 -0.47515,-0.24472 -0.15946,-0.14906 -0.4133,-0.2265 l -0.48922,-0.62803 c 0.0131,0.0248 0.0349,0.0622 0.0442,0.0806 0,0.006 -2.5e-4,0.007 0,0.008 -0.006,-0.002 -0.0168,-0.0135 -0.0243,-0.0197 0.0218,0.0379 0.0798,0.1413 0.0585,0.1074 -0.0243,-0.0388 -0.0492,-0.0798 -0.0754,-0.11782 -0.0286,-0.0249 -0.061,-0.0599 -0.0805,-0.0767 -0.10608,-0.0923 -0.20363,-0.18562 -0.3074,-0.2801 0.10041,0.0821 0.21627,0.17739 0.31151,0.24723 -0.0716,-0.10411 -0.13779,-0.20544 -0.17603,-0.32218 -0.0486,-0.14739 0.13828,0.16909 0.24293,0.36385 0.006,0.002 0.006,0.007 0.008,0.009 0.2068,0.12666 0.17136,-0.0463 -0.87232,-1.3847 -0.0945,-0.12129 0.0467,0.1347 0.12552,0.36597 0.11424,0.1316 0.20051,0.31303 0.10228,0.26298 -0.023,-0.0117 -0.0374,-0.0336 -0.0567,-0.0488 -3.2e-4,0.008 0,0.0177 -0.006,0.0246 -0.0137,0.10159 -0.19933,-0.17463 -0.23235,-0.30415 -0.0274,-0.0415 -0.0529,-0.0819 -0.0842,-0.11891 0.0268,0.0307 0.0343,0.0421 0.0784,0.0932 -2.5e-4,-0.008 0,-0.0194 0.006,-0.0247 -0.22736,-0.26735 -0.53838,-0.63071 -0.62807,-0.88718 -0.0237,-0.0675 -0.038,-0.13804 -0.0554,-0.20708 -0.11835,-0.0978 -0.26156,-0.29907 -0.27495,-0.46795 -0.008,-0.10248 0.0695,0.0312 0.15797,0.17812 -0.0436,-0.16261 -0.0898,-0.3722 -0.0838,-0.41086 l -0.21895,-0.62784 c 6.2e-4,0.0154 -0.0125,-0.0183 -0.0305,-0.0455 0.0231,0.1726 0.0548,0.35025 0.0336,0.52146 -0.0112,0.0909 -0.0736,-0.17175 -0.0934,-0.26188 -0.0374,-0.17146 -0.0711,-0.34442 -0.0794,-0.51875 -0.14333,-0.35968 -0.13866,-0.6986 -0.0836,-1.06156 -0.12222,-0.2698 -0.24107,-0.57927 -0.19367,-0.75819 -0.0218,-0.18892 -0.0423,-0.37801 -0.0643,-0.56694 0.0262,-0.0836 0.0505,-0.16565 0.0762,-0.24917 -0.0125,-0.14428 -0.023,-0.29029 -0.0542,-0.4322 -0.0193,-0.0882 0.038,0.34659 -0.006,0.26619 -0.14956,-0.27076 -0.0299,-0.98157 0.0399,-1.25482 0.11822,-0.46389 0.27189,-0.65757 0.43646,-0.67999 0.23795,-0.91905 1.414,-1.65928 3.41439,-1.36152 0.75433,0.11227 1.5139,0.0716 2.25603,0.26333 0.20188,0.0782 0.40258,0.14873 0.60166,0.23319 0.0149,0.006 0.0461,0.0161 0.069,0.0253 0.16288,0.0278 0.33929,0.0802 0.51433,0.13893 0.30541,-0.0426 0.66121,-0.0383 1.06043,0.0231 0.22767,0.0351 0.10433,0.0192 0.37168,0.0544 0.57837,0.0458 1.19293,0.0114 1.66658,0.36538 0.008,10e-4 0.0193,0.003 0.0268,0.003 0.5423,0.0318 1.06927,0.11684 1.49172,0.39375 l 0.67448,0.0837 c 0.40115,0.0498 0.80567,0.1 1.20682,0.1498 0.40625,0.0505 0.80946,0.10074 1.21572,0.15091 0.42806,0.0531 0.85848,0.10843 1.28673,0.15971 0.43647,0.0523 0.87019,0.0952 1.30349,0.17012 0.27806,0.0424 0.5626,0.006 0.84129,0.0461 0.56933,0.0811 0.55071,0.11133 1.0481,0.33866 0.006,0.003 0.006,0.007 0.008,0.009 0.26287,0.004 0.2638,0.007 0.73659,0.0914 0.0156,0.005 0.25775,0.0824 0.45795,0.15697 1.49778,-3.04369 2.51379,-6.34107 2.9507,-9.83687 2.38503,-19.082 -13.29612,-36.73985 -35.02841,-39.4374 z m 13.87978,56.36759 -0.0853,-0.1107 c 0.0168,0.0292 0.0237,0.0415 0.0517,0.0899 0.0125,0.008 0.0224,0.0138 0.0336,0.0209 z m 4.41888,-4.42375 c 0,0.008 0,0.0165 0,0.0247 0.006,0.003 0.0112,0.007 0.0168,0.0104 0.006,-0.007 0.009,-0.0156 0.0118,-0.0235 -0.007,-0.001 -0.0193,-0.0107 -0.0255,-0.0115 z m -6.10551,1.91181 c 0.007,0.0423 0.006,0.0579 0.007,0.0843 0.006,0.0104 0.0174,0.0182 0.0237,0.0279 -0.009,-0.0381 -0.0212,-0.0745 -0.0311,-0.11232 z m 2.11862,2.73242 c -0.0268,-0.003 0.24461,0.43223 0.38003,0.56442 0.0162,0.0156 0.0486,0.033 0.0747,0.051 -0.14041,-0.2021 -0.37038,-0.52582 -0.42233,-0.58636 -0.0174,-0.0204 -0.0287,-0.0286 -0.0324,-0.029 z m 0.61418,0.71027 c 0.17092,0.0932 0.34347,0.17102 0.23714,0.12121 -0.12166,-0.057 -0.15417,-0.0802 -0.23714,-0.12121 z m 0.84895,0.70606 c 0.006,0.0102 0.0311,0.0684 0.0604,0.166 0.0174,0.016 0.0542,0.0335 0.0836,0.0521 -0.0913,-0.13615 -0.15043,-0.2329 -0.14396,-0.2181 z m 1.96582,1.50377 c 0.0411,0.0589 0.0947,0.1421 0.12141,0.18192 0.0156,0.009 0.0349,0.0147 0.0511,0.023 -0.0542,-0.0708 -0.11492,-0.1366 -0.1726,-0.20496 z m 1.27172,1.00047 c -0.0399,-0.0327 0.0683,0.0753 0.10309,0.1129 0.0174,0.01 0.048,0.0284 0.0757,0.0428 -0.0554,-0.0469 -0.0975,-0.0893 -0.17884,-0.15568 z m 0.39966,0.19143 c -0.20232,-0.0115 0.35131,0.31469 0.61729,0.46872 -0.0498,-0.0542 -0.0951,-0.12856 -0.14706,-0.19344 -0.0749,-0.0417 -0.13935,-0.0846 -0.29893,-0.20397 -0.0118,-0.0194 -0.0112,-0.0174 -0.0224,-0.0361 -0.0585,-0.0153 -0.12128,-0.0336 -0.14881,-0.0352 z"
       id="path3763-7"
       inkscape:connector-curvature="0" />
    <path
       style="display:inline;fill:#b90400;fill-opacity:1;fill-rule:evenodd;stroke:none"
       d="m 160.81836,953.57589 c -8.64982,-1.07368 -16.52581,4.96297 -17.59085,13.48411 -0.18818,1.50532 -0.14831,2.99035 0.0879,4.41586 0.0243,-0.0783 0.0498,-0.15447 0.0742,-0.23273 -0.0125,-0.14429 -0.0231,-0.29029 -0.0542,-0.43221 -0.0193,-0.0882 0.038,0.3466 -0.006,0.26619 -0.14962,-0.27075 -0.0299,-0.98156 0.0399,-1.25482 0.11816,-0.46389 0.27183,-0.65756 0.4364,-0.67998 0.23795,-0.91906 1.41399,-1.65929 3.41438,-1.36153 0.75434,0.11227 1.51391,0.0716 2.25603,0.26333 0.20189,0.0782 0.40259,0.14873 0.60167,0.23319 0.0149,0.006 0.0461,0.0161 0.069,0.0253 0.16289,0.0278 0.3393,0.0802 0.51433,0.13892 0.30541,-0.0426 0.66121,-0.0383 1.06043,0.0232 0.22767,0.0351 0.10434,0.0192 0.37169,0.0544 0.57837,0.0458 1.19292,0.0114 1.66658,0.36537 0.008,10e-4 0.0193,0.003 0.0268,0.003 0.54236,0.0318 1.06928,0.11684 1.49179,0.39374 l 0.67442,0.0837 c 0.40121,0.0498 0.80566,0.1 1.20681,0.14981 0.40626,0.0505 0.80947,0.10073 1.21579,0.1509 0.42799,0.0531 0.85842,0.10844 1.28673,0.15972 0.4364,0.0523 0.87013,0.0952 1.30342,0.17011 0.27807,0.0424 0.56261,0.006 0.84136,0.0461 0.56927,0.0811 0.55064,0.11133 1.04803,0.33866 0.006,0.003 0.006,0.007 0.008,0.009 0.26286,0.004 0.2638,0.007 0.73658,0.0914 0.0249,0.009 0.64838,0.20549 0.71391,0.27216 0.0367,0.0376 -0.20518,-0.0273 -0.16282,0.005 0.0752,0.0571 0.46057,0.0265 0.56796,0.0705 l 1.4376,0.17844 1.14471,0.1421 1.45535,0.18065 1.41094,0.17514 1.18912,0.14759 1.9168,0.23792 c 0.42301,0.0525 0.78205,0.14944 1.07301,0.28337 0.0858,-0.40113 0.15541,-0.81109 0.20724,-1.22569 1.06504,-8.52113 -5.08432,-16.29871 -13.73421,-17.37239 z m -10.54064,19.73193 c 0,0.008 0,0.0165 0,0.0247 0.006,0.003 0.0112,0.007 0.0168,0.0104 0.006,-0.007 0.009,-0.0156 0.0118,-0.0235 -0.007,-0.001 -0.0193,-0.0107 -0.0255,-0.0115 z m -5.22946,3.12179 c 0.17796,0.31977 0.36782,0.63182 0.56765,0.93811 -0.0467,-0.14244 0.12016,0.14874 0.22723,0.34522 l 0.0156,0.0187 c 0.006,0.002 0.006,0.007 0.007,0.009 l 0.008,0.009 c 0.19136,0.11242 0.1381,-0.0788 -0.82622,-1.32059 z m 0.82622,1.32059 c 1.98257,2.85223 4.91271,5.05098 8.41044,6.10799 -0.0548,-0.0717 -0.10247,-0.14744 -0.1528,-0.2192 -0.0756,-0.0259 -0.15355,-0.055 -0.23241,-0.0873 -0.12551,-0.0435 -0.2486,-0.0868 -0.37031,-0.13773 -0.0561,-0.0234 -0.10889,-0.0539 -0.1604,-0.0866 0,-6.2e-4 -0.006,-1.7e-4 -0.009,-10e-4 -0.56217,-0.22835 -0.94034,-0.36891 -1.3114,-0.75511 -0.48537,-0.22985 -0.56834,-0.29122 -0.79582,-0.48254 -0.49857,-0.15967 -0.55451,-0.27646 -1.02885,-0.63662 -0.0193,-0.0146 -0.0517,-0.0235 -0.0669,-0.0417 -0.0311,-0.0362 -0.0561,-0.0735 -0.0853,-0.1107 -0.0423,-0.0207 -0.088,-0.0451 -0.11909,-0.0565 -0.47217,-0.1723 -0.80959,-0.4919 -1.13568,-0.7917 -0.0162,-0.0132 -0.033,-0.0262 -0.0492,-0.0394 -0.13168,-0.0548 -0.27022,-0.12273 -0.36888,-0.22098 -0.16775,-0.16711 -0.29152,-0.30921 -0.38757,-0.43188 -0.10459,-0.006 -0.19902,-0.13748 -0.29009,-0.20286 -0.40701,-0.29225 -0.63437,-0.54177 -0.87007,-0.82547 0,-10e-4 -0.0212,-0.0256 -0.0237,-0.0279 0,-0.0111 -0.0168,-0.046 -0.0586,-0.1074 -0.47515,-0.24471 -0.1594,-0.14905 -0.41323,-0.2265 l -0.48138,-0.61871 z m 0.41635,0.20185 c -0.0268,-0.003 0.24461,0.43223 0.38003,0.56442 0.0162,0.0156 0.0486,0.033 0.0747,0.051 -0.14041,-0.2021 -0.37038,-0.52582 -0.42233,-0.58636 -0.0174,-0.0204 -0.0287,-0.0286 -0.0324,-0.029 z m 0.61418,0.71027 c 0.17092,0.0932 0.34347,0.17102 0.23714,0.12121 -0.12166,-0.057 -0.15417,-0.0802 -0.23714,-0.12121 z m 0.84895,0.70606 c 0.006,0.0102 0.0311,0.0684 0.0604,0.166 0.0174,0.016 0.0542,0.0335 0.0836,0.0521 -0.0913,-0.13615 -0.15043,-0.2329 -0.14396,-0.2181 z m 1.96582,1.50377 c 0.0411,0.0589 0.0947,0.1421 0.12141,0.18192 0.0156,0.009 0.0349,0.0147 0.0511,0.023 -0.0542,-0.0708 -0.11492,-0.1366 -0.1726,-0.20496 z m 1.27172,1.00047 c -0.0399,-0.0327 0.0683,0.0753 0.10309,0.1129 0.0174,0.01 0.048,0.0284 0.0757,0.0428 -0.0554,-0.0469 -0.0975,-0.0893 -0.17884,-0.15568 z m 0.39966,0.19143 c -0.20232,-0.0115 0.35131,0.31469 0.61729,0.46872 -0.0498,-0.0542 -0.0951,-0.12856 -0.14706,-0.19344 -0.0749,-0.0417 -0.13935,-0.0846 -0.29893,-0.20397 -0.0118,-0.0194 -0.0112,-0.0174 -0.0224,-0.0361 -0.0585,-0.0153 -0.12128,-0.0336 -0.14881,-0.0352 z"
       id="path3525"
       inkscape:connector-curvature="0" />
    <path
       style="display:inline;fill:#b90400;fill-opacity:1;fill-rule:evenodd;stroke:none"
       d="m 159.37547,952.07029 c -8.64989,-1.07368 -16.52587,4.96298 -17.59091,13.48411 -0.74213,5.93767 2.02499,11.50787 6.69608,14.70508 -0.0286,-0.0206 -0.0567,-0.0439 -0.0815,-0.0685 -0.16774,-0.1671 -0.29152,-0.30921 -0.38763,-0.43187 -0.10452,-0.006 -0.19895,-0.13748 -0.29002,-0.20286 -0.40701,-0.29225 -0.63437,-0.54177 -0.87007,-0.82547 0,-10e-4 -0.0212,-0.0256 -0.0237,-0.0279 0,-0.0111 -0.0168,-0.046 -0.0586,-0.10739 -0.47515,-0.24472 -0.15946,-0.14905 -0.41329,-0.2265 l -0.48923,-0.62802 c 0.0131,0.0248 0.0349,0.0621 0.0442,0.0805 0,0.006 -2.5e-4,0.007 0,0.008 -0.006,-0.002 -0.0168,-0.0135 -0.0243,-0.0197 0.0218,0.0379 0.0798,0.14129 0.0585,0.10739 -0.0243,-0.0388 -0.0492,-0.0798 -0.0754,-0.11782 -0.0286,-0.0249 -0.061,-0.0599 -0.0805,-0.0767 -0.10608,-0.0923 -0.20363,-0.18561 -0.3074,-0.2801 0.10041,0.0821 0.21627,0.1774 0.31151,0.24723 -0.0716,-0.10411 -0.13778,-0.20544 -0.17603,-0.32217 -0.0486,-0.1474 0.13828,0.16909 0.24293,0.36385 0.006,0.002 0.006,0.007 0.008,0.009 0.2068,0.12665 0.17136,-0.0463 -0.87231,-1.3847 -0.0946,-0.1213 0.0467,0.13469 0.12551,0.36596 0.11424,0.1316 0.20051,0.31304 0.10228,0.26298 -0.0231,-0.0117 -0.0374,-0.0336 -0.0567,-0.0488 -3.1e-4,0.008 0,0.0177 -0.006,0.0246 -0.0137,0.10159 -0.19933,-0.17463 -0.23234,-0.30415 -0.0274,-0.0414 -0.053,-0.0819 -0.0842,-0.11892 0.0268,0.0307 0.0343,0.0421 0.0784,0.0932 -2.5e-4,-0.008 0,-0.0194 0.006,-0.0246 -0.22736,-0.26735 -0.53837,-0.63072 -0.62807,-0.88719 -0.0237,-0.0675 -0.038,-0.13804 -0.0554,-0.20708 -0.11835,-0.0978 -0.26156,-0.29907 -0.27495,-0.46795 -0.008,-0.10247 0.0695,0.0312 0.15797,0.17812 -0.0436,-0.16261 -0.0898,-0.3722 -0.0838,-0.41086 l -0.21895,-0.62785 c 6.2e-4,0.0155 -0.0125,-0.0183 -0.0305,-0.0455 0.023,0.1726 0.0548,0.35026 0.0336,0.52147 -0.0112,0.0909 -0.0736,-0.17175 -0.0934,-0.26189 -0.0374,-0.17145 -0.0711,-0.34442 -0.0794,-0.51875 -0.14327,-0.35968 -0.1386,-0.69859 -0.0836,-1.06156 -0.12216,-0.26979 -0.24107,-0.57927 -0.1936,-0.75819 -0.0218,-0.18892 -0.0424,-0.378 -0.0643,-0.56694 0.0262,-0.0836 0.0505,-0.16564 0.0762,-0.24916 -0.0125,-0.14429 -0.023,-0.29029 -0.0542,-0.4322 -0.0193,-0.0882 0.038,0.34659 -0.006,0.26618 -0.14956,-0.27076 -0.0299,-0.98156 0.0399,-1.25482 0.11823,-0.46389 0.2719,-0.65756 0.43647,-0.67998 0.23795,-0.91905 1.41399,-1.65928 3.41438,-1.36153 0.75427,0.11227 1.5139,0.0716 2.25603,0.26334 0.20188,0.0782 0.40258,0.14872 0.60166,0.23319 0.0149,0.006 0.0461,0.0161 0.069,0.0253 0.16289,0.0278 0.33929,0.0802 0.51427,0.13893 0.30541,-0.0426 0.66127,-0.0383 1.06049,0.0231 0.22767,0.0351 0.10434,0.0192 0.37169,0.0544 0.57836,0.0458 1.19292,0.0114 1.66657,0.36537 0.008,10e-4 0.0193,0.003 0.0268,0.003 0.5423,0.0318 1.06927,0.11683 1.49173,0.39373 l 0.67448,0.0837 c 0.40115,0.0498 0.80566,0.1 1.20681,0.1498 0.40626,0.0505 0.80946,0.10073 1.21572,0.1509 0.42806,0.0531 0.85848,0.10844 1.28673,0.15972 0.43647,0.0523 0.8702,0.0952 1.30349,0.17012 0.27806,0.0424 0.56254,0.006 0.84129,0.0461 0.56933,0.0811 0.55065,0.11132 1.0481,0.33865 0.006,0.003 0.006,0.007 0.008,0.009 0.26286,0.004 0.26373,0.007 0.73652,0.0914 0.0249,0.009 0.64844,0.20549 0.71397,0.27216 0.0367,0.0376 -0.20519,-0.0273 -0.16283,0.005 0.0752,0.0571 0.46051,0.0265 0.56796,0.0705 l 1.43754,0.17844 1.14477,0.14209 1.45535,0.18065 1.41094,0.17514 1.18912,0.1476 1.26007,0.15641 c 0.22369,-0.76391 0.39243,-1.55355 0.49403,-2.36641 1.06504,-8.52113 -5.08432,-16.2987 -13.73421,-17.37238 z m -13.51663,25.66128 -0.0853,-0.1107 c 0.0168,0.0292 0.0237,0.0415 0.0517,0.0899 0.0125,0.008 0.0224,0.0138 0.0336,0.0209 z m 4.41888,-4.42375 c 0,0.008 0,0.0165 0,0.0247 0.006,0.003 0.0112,0.007 0.0168,0.0104 0.006,-0.007 0.009,-0.0156 0.0118,-0.0235 -0.007,-0.001 -0.0193,-0.0107 -0.0255,-0.0115 z m -6.10551,1.91181 c 0.007,0.0423 0.006,0.0579 0.007,0.0843 0.006,0.0104 0.0174,0.0182 0.0237,0.0279 -0.009,-0.0381 -0.0212,-0.0745 -0.0311,-0.11232 z m 2.11862,2.73242 c -0.0268,-0.003 0.24461,0.43223 0.38003,0.56442 0.0162,0.0156 0.0486,0.033 0.0747,0.051 -0.14041,-0.2021 -0.37038,-0.52582 -0.42233,-0.58636 -0.0174,-0.0204 -0.0287,-0.0286 -0.0324,-0.029 z m 0.61418,0.71027 c 0.17092,0.0932 0.34347,0.17102 0.23714,0.12121 -0.12166,-0.057 -0.15417,-0.0802 -0.23714,-0.12121 z m 0.84895,0.70606 c 0.006,0.0102 0.0311,0.0684 0.0604,0.166 0.0174,0.016 0.0542,0.0335 0.0836,0.0521 -0.0913,-0.13615 -0.15043,-0.2329 -0.14396,-0.2181 z m 0.81812,0.95251 c 0.11848,0.0799 0.23714,0.15951 0.35799,0.23632 -0.0386,-0.0357 -0.0746,-0.0705 -0.11294,-0.10579 -0.0162,-0.0132 -0.033,-0.0262 -0.0492,-0.0394 -0.0658,-0.0274 -0.13323,-0.0561 -0.1959,-0.0911 z m 1.1477,0.55126 c 0.0411,0.0589 0.0947,0.1421 0.12141,0.18192 0.0156,0.009 0.0349,0.0147 0.0511,0.023 -0.0542,-0.0708 -0.11492,-0.1366 -0.1726,-0.20496 z"
       id="path3525-9"
       inkscape:connector-curvature="0" />
    <ellipse
       style="display:inline;fill:#800000;fill-opacity:1;stroke:none"
       id="path5967"
       transform="matrix(0.99238415,0.12318154,-0.12402279,0.99227937,0,0)"
       cx="287.13718"
       cy="936.15747"
       rx="2.0030222"
       ry="2.2519355" />
    <ellipse
       style="display:inline;fill:#800000;fill-opacity:1"
       id="path3938-4"
       transform="matrix(0.99238415,0.12318155,-0.1240228,0.99227937,0,0)"
       cx="250.89545"
       cy="922.0686"
       rx="21.665339"
       ry="19.302305" />
    <ellipse
       style="display:inline;fill:#ffffff;fill-opacity:1"
       id="path3938-1-0"
       transform="matrix(0.99238415,0.12318154,-0.1240228,0.99227937,0,0)"
       cx="251.30424"
       cy="922.82556"
       rx="20.030222"
       ry="17.409924" />
    <ellipse
       style="display:inline;fill:#b90400;fill-opacity:1;stroke:none"
       id="path4800-8"
       transform="matrix(-0.70584917,0.70836216,-0.51033301,-0.85997687,0,0)"
       cx="401.37787"
       cy="-748.57721"
       rx="11.985641"
       ry="21.012093" />
    <ellipse
       style="display:inline;fill:#b90400;fill-opacity:1;stroke:none"
       id="path4800-7-2"
       transform="matrix(-0.70584917,0.70836216,-0.51033301,-0.85997687,0,0)"
       cx="401.45493"
       cy="-750.6546"
       rx="11.985641"
       ry="21.012093" />
    <ellipse
       style="display:inline;fill:#800000;fill-opacity:1;stroke:none"
       id="path4800-1-4"
       transform="matrix(-0.72347423,0.69035139,-0.53187582,-0.84682236,0,0)"
       cx="416.49142"
       cy="-747.01654"
       rx="5.210053"
       ry="9.1336851" />
    <path
       sodipodi:type="arc"
       style="display:inline;fill:#800000;fill-opacity:1;stroke:none"
       id="path4942-2-5"
       sodipodi:cx="230.1635"
       sodipodi:cy="898.2074"
       sodipodi:rx="8.705328"
       sodipodi:ry="9.4201536"
       d="m 237.6918,902.93754 a 8.705328,9.4201536 0 0 1 -11.18996,3.81615 8.705328,9.4201536 0 0 1 -4.53891,-11.70736 8.705328,9.4201536 0 0 1 10.35664,-5.96559 l -2.15607,9.12666 z"
       sodipodi:start="0.52605967"
       sodipodi:end="4.962666"
       transform="matrix(0.99238415,0.12318155,-0.1240228,0.99227937,0,0)" />
    <path
       sodipodi:type="arc"
       style="display:inline;fill:#800000;fill-opacity:1;fill-rule:evenodd;stroke:none"
       id="path3525-3-2"
       sodipodi:cx="277.73059"
       sodipodi:cy="943.15125"
       sodipodi:rx="15.78219"
       sodipodi:ry="15.548916"
       d="m 293.51278,943.15125 a 15.78219,15.548916 0 0 1 -8.44462,13.76621 15.78219,15.548916 0 0 1 -16.29689,-0.96564 15.78219,15.548916 0 0 1 -6.70911,-14.66412 l 15.66843,1.86355 z"
       transform="matrix(0.99238415,0.12318154,-0.12402279,0.99227937,0,0)"
       sodipodi:start="0"
       sodipodi:end="3.2617321" />
    <path
       sodipodi:type="arc"
       style="display:inline;fill:#b90400;fill-opacity:1;fill-rule:evenodd;stroke:none"
       id="path3525-3-8-7"
       sodipodi:cx="276.586"
       sodipodi:cy="944.0014"
       sodipodi:rx="14.923752"
       sodipodi:ry="13.419701"
       d="m 291.50975,944.0014 a 14.923752,13.419701 0 0 1 -7.98529,11.88112 14.923752,13.419701 0 0 1 -15.41046,-0.83341 14.923752,13.419701 0 0 1 -6.34418,-12.65607 l 14.81618,1.60836 z"
       transform="matrix(0.99238415,0.12318155,-0.12402281,0.99227937,0,0)"
       sodipodi:start="0"
       sodipodi:end="3.2617321" />
    <ellipse
       transform="matrix(0.99238415,0.12318154,-0.12402279,0.99227937,0,0)"
       style="display:inline;fill:#00b904;fill-opacity:1"
       id="path3959-9-1"
       cx="255.34636"
       cy="915.88824"
       rx="11.379294"
       ry="10.597343" />
    <ellipse
       transform="matrix(0.99238415,0.12318154,-0.12402279,0.99227937,0,0)"
       style="display:inline;fill:#000000;fill-opacity:1"
       id="path3959-7-4-1"
       cx="257.51389"
       cy="914.92487"
       rx="9.7536802"
       ry="8.6705532" />
    <ellipse
       ry="3.2114801"
       rx="3.4686136"
       transform="matrix(0.99238415,0.12318154,-0.12402279,0.99227937,0,0)"
       style="display:inline;fill:#ffffff;fill-opacity:1"
       id="path3979-8-5"
       cx="254.84772"
       cy="910.01202" />
    <ellipse
       ry="6.8810024"
       rx="15.719492"
       cy="970.96527"
       cx="153.44693"
       style="fill:#b90400;fill-opacity:1;stroke:none"
       id="path3586" />
    <path
       style="fill:none;stroke:#800000;stroke-width:0.78764826px;stroke-linecap:butt;stroke-linejoin:miter;stroke-opacity:1"
       d="m 170.34173,972.13651 c 0,0 -12.34054,-4.22816 -12.34054,-1.40939"
       id="path3588"
       inkscape:connector-curvature="0" />
    <path
       sodipodi:type="arc"
       style="fill:#800000;fill-opacity:1;stroke:none"
       id="path4407"
       sodipodi:cx="-407.26065"
       sodipodi:cy="-1017.5901"
       sodipodi:rx="11.800857"
       sodipodi:ry="6.3102207"
       d="m -395.46145,-1017.4843 a 11.800857,6.3102207 0 0 1 -6.12247,5.4264 11.800857,6.3102207 0 0 1 -11.84832,-0.1537 11.800857,6.3102207 0 0 1 -5.62333,-5.5787 l 11.79492,0.2002 z"
       sodipodi:start="0.016763829"
       sodipodi:end="3.1733249"
       transform="matrix(0.98707317,-0.16027029,-0.52345347,-0.85205426,0,0)" />
    <path
       style="fill:#803300;fill-opacity:1;stroke:none"
       d="M 67.070336,955.94864 106.67013,991.34736 55.491026,980.8899 67.070336,955.94864 Z"
       id="path9873-3"
       inkscape:path-effect="#path-effect9875-4"
       inkscape:original-d="m 67.070336,955.94864 c -12.217412,24.514 39.599794,35.39872 39.599794,35.39872 L 55.491026,980.8899 Z"
       inkscape:connector-curvature="0"
       inkscape:transform-center-x="-8.7750665"
       inkscape:transform-center-y="-7.269876" />
    <path
       style="fill:#a05a2c;fill-opacity:1;stroke:none"
       d="m 70.259875,958.57938 34.471155,31.64731 -44.686295,-9.19868 10.21514,-22.44863 z"
       id="path9873-7-1"
       inkscape:path-effect="#path-effect9875-2-5"
       inkscape:original-d="m 70.259875,958.57938 c -10.771156,22.06727 34.471155,31.64731 34.471155,31.64731 l -44.686295,-9.19868 z"
       inkscape:connector-curvature="0"
       inkscape:transform-center-x="-10.082369"
       inkscape:transform-center-y="-6.514841" />
    <rect
       style="fill:#999999;fill-opacity:1;fill-rule:evenodd;stroke:none"
       id="rect10406-3"
       width="13.783296"
       height="3.3304415"
       x="-846.01202"
       y="-545.11798"
       ry="0"
       transform="matrix(-0.61762653,-0.78647153,0.8248373,-0.56537017,0,0)"
       inkscape:transform-center-x="2.3026628"
       inkscape:transform-center-y="-13.721612" />
    <rect
       style="fill:#999999;fill-opacity:1;fill-rule:evenodd;stroke:none"
       id="rect10406-9-4"
       width="13.797544"
       height="3.3270023"
       x="537.50787"
       y="-839.59277"
       ry="0"
       transform="matrix(-0.8248373,0.56537017,-0.61762653,-0.78647153,0,0)"
       inkscape:transform-center-x="3.8251048"
       inkscape:transform-center-y="-14.119094" />
    <rect
       style="opacity:1;fill:#646464;fill-opacity:1;stroke:none;stroke-width:9.60400009;stroke-miterlimit:4;stroke-dasharray:none;stroke-opacity:1"
       id="rect6404"
       width="176.5079"
       height="99.082375"
       x="327.8251"
       y="187.1859"
       rx="56.627289"
       ry="15.253941"
       transform="matrix(0.85908479,-0.5118333,0.26899986,0.96314022,0,0)" />
    <path
       style="fill:none;fill-rule:evenodd;stroke:#000000;stroke-width:23.20036888;stroke-linecap:butt;stroke-linejoin:miter;stroke-miterlimit:4;stroke-dasharray:none;stroke-opacity:1"
       d="m 372.19237,106.82085 c 0,0 121.31822,-89.800602 386.42103,-22.450156"
       id="path6402"
       inkscape:connector-curvature="0" />
  </g>
  <g
     inkscape:groupmode="layer"
     id="layer6"
     inkscape:label="Layer 4"
     sodipodi:insensitive="true">
    <rect
       style="opacity:1;fill:url(#linearGradient6490);fill-opacity:1;stroke:none;stroke-width:9.60400009;stroke-miterlimit:4;stroke-dasharray:none;stroke-opacity:1"
       id="rect6482"
       width="354.92957"
       height="971.83099"
       x="-746.47888"
       y="72.080513"
       rx="32.066299"
       ry="12.559355"
       transform="scale(-1,1)" />
    <rect
       style="opacity:1;fill:url(#radialGradient6533);fill-opacity:1;stroke:none;stroke-width:9.60400009;stroke-miterlimit:4;stroke-dasharray:none;stroke-opacity:1"
       id="rect6523"
       width="71.830986"
       height="471.83096"
       x="380.28171"
       y="581.93964"
       rx="47.152958"
       ry="11.060911" />
  </g>
</svg>
