<?xml version="1.0" encoding="UTF-8" standalone="no"?>
<!-- Created with Inkscape (http://www.inkscape.org/) -->

<svg
   xmlns:dc="http://purl.org/dc/elements/1.1/"
   xmlns:cc="http://creativecommons.org/ns#"
   xmlns:rdf="http://www.w3.org/1999/02/22-rdf-syntax-ns#"
   xmlns:svg="http://www.w3.org/2000/svg"
   xmlns="http://www.w3.org/2000/svg"
   xmlns:xlink="http://www.w3.org/1999/xlink"
   xmlns:sodipodi="http://sodipodi.sourceforge.net/DTD/sodipodi-0.dtd"
   xmlns:inkscape="http://www.inkscape.org/namespaces/inkscape"
   width="1052.3622"
   height="744.09448"
   id="svg6016"
   version="1.1"
   inkscape:version="0.48.5 r10040"
   sodipodi:docname="sunset.svg">
  <defs
     id="defs6018">
    <inkscape:perspective
       sodipodi:type="inkscape:persp3d"
       inkscape:vp_x="0 : 372.04724 : 1"
       inkscape:vp_y="0 : 1000 : 0"
       inkscape:vp_z="1052.3622 : 372.04724 : 1"
       inkscape:persp3d-origin="526.18109 : 248.03149 : 1"
       id="perspective6735" />
    <linearGradient
       inkscape:collect="always"
       id="linearGradient6567">
      <stop
         style="stop-color:#e1e100;stop-opacity:1;"
         offset="0"
         id="stop6569" />
      <stop
         style="stop-color:#e1e100;stop-opacity:0;"
         offset="1"
         id="stop6571" />
    </linearGradient>
    <linearGradient
       id="linearGradient6547">
      <stop
         id="stop6555"
         offset="0"
         style="stop-color:#e1e100;stop-opacity:0.49803922;" />
      <stop
         style="stop-color:#e1e100;stop-opacity:0;"
         offset="1"
         id="stop6551" />
    </linearGradient>
    <radialGradient
       inkscape:collect="always"
       xlink:href="#linearGradient6567"
       id="radialGradient6573"
       cx="428.57144"
       cy="483.80356"
       fx="428.57144"
       fy="483.80356"
       r="552.85712"
       gradientTransform="matrix(1.501292,-0.05209955,0.02208865,0.7166711,-232.66887,427.82869)"
       gradientUnits="userSpaceOnUse" />
  </defs>
  <sodipodi:namedview
     id="base"
     pagecolor="#ffffff"
     bordercolor="#666666"
     borderopacity="1.0"
     inkscape:pageopacity="0.0"
     inkscape:pageshadow="2"
     inkscape:zoom="0.98994949"
     inkscape:cx="546.18753"
     inkscape:cy="357.43774"
     inkscape:document-units="px"
     inkscape:current-layer="layer8"
     showgrid="false"
     inkscape:window-width="1920"
     inkscape:window-height="1017"
     inkscape:window-x="-8"
     inkscape:window-y="-8"
     inkscape:window-maximized="1" />
  <metadata
     id="metadata6021">
    <rdf:RDF>
      <cc:Work
         rdf:about="">
        <dc:format>image/svg+xml</dc:format>
        <dc:type
           rdf:resource="http://purl.org/dc/dcmitype/StillImage" />
        <dc:title></dc:title>
      </cc:Work>
    </rdf:RDF>
  </metadata>
  <g
     inkscape:label="sky"
     inkscape:groupmode="layer"
     id="layer1"
     transform="translate(0,-308.2677)"
     sodipodi:insensitive="true">
    <rect
       style="fill:#e18600;fill-opacity:1;stroke:none"
       id="rect6024"
       width="1118.5714"
       height="771.42859"
       x="-17.142857"
       y="302.36218"
       rx="33.800011"
       ry="11.729492" />
    <rect
       style="fill:url(#radialGradient6573);fill-opacity:1;stroke:none"
       id="rect6557"
       width="1105.7142"
       height="792.85718"
       x="-21.428572"
       y="283.79074"
       rx="33.800011"
       ry="12.447166" />
  </g>
  <g
     inkscape:groupmode="layer"
     id="layer8"
     inkscape:label="ground">
    <rect
       style="fill:#1a1a1a;fill-opacity:1;stroke:none"
       id="rect6578"
       width="44.285713"
       height="70"
       x="441.42856"
       y="384.09448"
       rx="33.800011"
       ry="12.447166" />
    <rect
       style="fill:#1a1a1a;fill-opacity:1;stroke:none"
       id="rect6578-6"
       width="44.285713"
       height="70"
       x="605.66693"
       y="383.02304"
       rx="33.800011"
       ry="12.447166" />
    <rect
       style="fill:#1a1a1a;fill-opacity:1;stroke:none"
       id="rect6665"
       width="204.28572"
       height="25.71427"
       x="445.71429"
       y="429.80875"
       rx="33.800011"
       ry="11.428571" />
    <rect
       style="fill:#1a1a1a;fill-opacity:1;stroke:none"
       id="rect6689"
       width="91.428574"
       height="117.14285"
       x="498.74475"
       y="336.95163"
       rx="33.800011"
       ry="16.264482" />
    <rect
       style="fill:#1a1a1a;fill-opacity:1;stroke:none"
       id="rect6689-4"
       width="51.428574"
       height="65.714279"
       x="518.74475"
       y="294.09451"
       rx="19.012506"
       ry="9.1239777" />
    <rect
       style="fill:#1a1a1a;fill-opacity:1;stroke:none"
       id="rect6689-4-6"
       width="34.285717"
       height="54.285709"
       x="527.31616"
       y="258.38022"
       rx="12.675005"
       ry="7.5371985" />
    <rect
       style="fill:#1a1a1a;fill-opacity:1;stroke:none"
       id="rect6729"
       width="165.71428"
       height="31.428572"
       x="465.71429"
       y="408.38019"
       rx="12.675005"
       ry="7.5371985" />
    <rect
       style="fill:#1a1a1a;fill-opacity:1;stroke:none"
       id="rect6689-4-6-0"
       width="5.7142882"
       height="15.714281"
       x="536.03546"
       y="251.44655"
       rx="2.1125016"
       ry="2.1818202" />
    <rect
       style="fill:#1a1a1a;fill-opacity:1;stroke:none"
       id="rect6689-4-6-0-3"
       width="5.7142882"
       height="15.714281"
       x="527.31616"
       y="252.66591"
       rx="2.1125016"
       ry="2.1818202" />
    <rect
       style="fill:#1a1a1a;fill-opacity:1;stroke:none"
       id="rect6689-4-6-0-4"
       width="5.7142882"
       height="15.714281"
       x="546.13489"
       y="251.38528"
       rx="2.1125016"
       ry="2.1818202" />
    <rect
       style="fill:#1a1a1a;fill-opacity:1;stroke:none"
       id="rect6689-4-6-0-8"
       width="5.7142882"
       height="15.714281"
       x="555.73438"
       y="251.96432"
       rx="2.1125016"
       ry="2.1818202" />
    <rect
       style="fill:#1a1a1a;fill-opacity:1;stroke:none"
       id="rect6689-4-6-0-1"
       width="5.7142882"
       height="15.714281"
       x="450.2623"
       y="379.07446"
       rx="2.1125016"
       ry="2.1818202" />
    <rect
       style="fill:#1a1a1a;fill-opacity:1;stroke:none"
       id="rect6689-4-6-0-3-2"
       width="5.7142882"
       height="15.714281"
       x="441.543"
       y="380.29382"
       rx="2.1125016"
       ry="2.1818202" />
    <rect
       style="fill:#1a1a1a;fill-opacity:1;stroke:none"
       id="rect6689-4-6-0-4-1"
       width="5.7142882"
       height="15.714281"
       x="460.36172"
       y="379.01318"
       rx="2.1125016"
       ry="2.1818202" />
    <rect
       style="fill:#1a1a1a;fill-opacity:1;stroke:none"
       id="rect6689-4-6-0-8-4"
       width="5.7142882"
       height="15.714281"
       x="469.96121"
       y="379.59222"
       rx="2.1125016"
       ry="2.1818202" />
    <rect
       style="fill:#1a1a1a;fill-opacity:1;stroke:none"
       id="rect6689-4-6-0-4-1-9"
       width="5.7142882"
       height="15.714281"
       x="470.14529"
       y="378.35382"
       rx="2.1125016"
       ry="2.1818202" />
    <rect
       style="fill:#1a1a1a;fill-opacity:1;stroke:none"
       id="rect6689-4-6-0-8-4-8"
       width="5.7142882"
       height="15.714281"
       x="479.74478"
       y="378.93286"
       rx="2.1125016"
       ry="2.1818202" />
    <rect
       style="fill:#1a1a1a;fill-opacity:1;stroke:none"
       id="rect6578-66"
       width="44.285713"
       height="70"
       x="-650.35718"
       y="380.63477"
       rx="33.800011"
       ry="12.447166"
       transform="scale(-1,1)" />
    <rect
       style="fill:#1a1a1a;fill-opacity:1;stroke:none"
       id="rect6689-4-6-0-1-2"
       width="5.7142882"
       height="15.714281"
       x="-641.52344"
       y="375.61475"
       rx="2.1125016"
       ry="2.1818202"
       transform="scale(-1,1)" />
    <rect
       style="fill:#1a1a1a;fill-opacity:1;stroke:none"
       id="rect6689-4-6-0-3-2-3"
       width="5.7142882"
       height="15.714281"
       x="-650.24274"
       y="376.83411"
       rx="2.1125016"
       ry="2.1818202"
       transform="scale(-1,1)" />
    <rect
       style="fill:#1a1a1a;fill-opacity:1;stroke:none"
       id="rect6689-4-6-0-4-1-8"
       width="5.7142882"
       height="15.714281"
       x="-631.42401"
       y="375.55347"
       rx="2.1125016"
       ry="2.1818202"
       transform="scale(-1,1)" />
    <rect
       style="fill:#1a1a1a;fill-opacity:1;stroke:none"
       id="rect6689-4-6-0-8-4-2"
       width="5.7142882"
       height="15.714281"
       x="-621.82452"
       y="376.13251"
       rx="2.1125016"
       ry="2.1818202"
       transform="scale(-1,1)" />
    <rect
       style="fill:#1a1a1a;fill-opacity:1;stroke:none"
       id="rect6689-4-6-0-4-1-9-6"
       width="5.7142882"
       height="15.714281"
       x="-621.64044"
       y="374.8941"
       rx="2.1125016"
       ry="2.1818202"
       transform="scale(-1,1)" />
    <rect
       style="fill:#1a1a1a;fill-opacity:1;stroke:none"
       id="rect6689-4-6-0-8-4-8-2"
       width="5.7142882"
       height="15.714281"
       x="-612.04095"
       y="375.47314"
       rx="2.1125016"
       ry="2.1818202"
       transform="scale(-1,1)" />
    <path
       sodipodi:type="arc"
       style="fill:#1a1a1a;fill-opacity:1;stroke:none"
       id="path6983"
       sodipodi:cx="276.27673"
       sodipodi:cy="696.11224"
       sodipodi:rx="350.01785"
       sodipodi:ry="184.35284"
       d="m -73.694857,693.11503 a 350.01785,184.35284 0 0 1 699.979027,1.575 l -350.00744,1.42221 z"
       sodipodi:start="3.1578514"
       sodipodi:end="6.2754706"
       transform="translate(274.76149,-74.751288)" />
    <path
       sodipodi:type="arc"
       style="fill:#1a1a1a;fill-opacity:1;stroke:none"
       id="path6985"
       sodipodi:cx="237.89093"
       sodipodi:cy="620.8559"
       sodipodi:rx="121.72338"
       sodipodi:ry="128.28937"
       d="m 116.18364,618.77016 a 121.72338,128.28937 0 0 1 243.42705,1.09603 l -121.71976,0.98971 z"
       sodipodi:start="3.1578514"
       sodipodi:end="6.2754706" />
    <path
       transform="matrix(1.3112286,0,0,1.3858257,630.73486,-239.89084)"
       sodipodi:type="arc"
       style="fill:#1a1a1a;fill-opacity:1;stroke:none"
       id="path6985-7"
       sodipodi:cx="237.89093"
       sodipodi:cy="620.8559"
       sodipodi:rx="121.72338"
       sodipodi:ry="128.28937"
       d="m 116.18364,618.77016 a 121.72338,128.28937 0 0 1 243.42705,1.09603 l -121.71976,0.98971 z"
       sodipodi:start="3.1578514"
       sodipodi:end="6.2754706" />
    <path
       style="fill:#1a1a1a;fill-opacity:1;stroke:none"
       id="path7007"
       d="m 232.05142,194.34212 c -0.41419,-1.99937 -1.61399,-3.57852 -3.05376,-4.72041 -1.62016,-1.20404 -3.2398,-0.83347 -4.98145,-0.27277 -0.33844,0.16353 -0.68782,0.29991 -1.01532,0.49061 -0.3369,0.19616 -1.30201,0.88027 -0.97301,0.66713 1.77461,-1.14962 3.52088,-2.3574 5.31007,-3.47676 0.30716,-0.19218 -0.57384,0.4597 -0.85916,0.69213 -0.93772,0.76391 -0.63631,0.51008 -1.4963,1.29485 -0.20027,0.19954 -0.40053,0.39909 -0.6008,0.59863 0,0 -6.86783,3.20515 -6.86783,3.20515 l 0,0 c 0.20453,-0.20437 0.40908,-0.40874 0.61362,-0.61311 1.19233,-1.2488 0.14425,-0.21695 1.50137,-1.3602 3.16207,-2.66377 6.53656,-5.15648 10.24586,-6.64784 2.02042,-0.51309 3.59358,-0.53378 5.365,0.86903 1.52178,1.33381 2.78714,3.06563 3.37592,5.19284 0,0 -6.56421,4.08072 -6.56421,4.08072 z"
       inkscape:connector-curvature="0" />
    <path
       style="fill:#1a1a1a;fill-opacity:1;stroke:none"
       id="path7009"
       d="m 232.82139,191.80584 c 3.17222,-4.00163 7.55098,-6.1706 11.59169,-8.78726 2.09916,-1.23202 4.39108,-1.61362 6.71072,-1.79352 2.73588,-0.13841 5.4755,-0.11269 8.21337,-0.12494 0.35515,-0.002 0.7103,-0.003 1.06546,-0.005 0,0 -5.96488,4.97859 -5.96488,4.97859 l 0,0 c -0.34776,-0.004 -0.69552,-0.008 -1.04329,-0.0122 -2.72483,-0.0215 -5.4539,-0.0365 -8.17371,0.18208 -2.28086,0.27081 -4.50578,0.77823 -6.5459,2.04961 1.73981,-1.18014 3.48606,-2.34782 5.21941,-3.54044 0.35019,-0.24094 -0.72493,0.43372 -1.06951,0.68514 -1.14512,0.83552 -2.13922,1.96208 -3.13107,3.01084 0,0 -6.87229,3.35658 -6.87229,3.35658 z"
       inkscape:connector-curvature="0" />
    <path
       style="fill:#1a1a1a;fill-opacity:1;stroke:none"
       id="path7011"
       d="m 311.74559,242.10244 c 1.38194,-2.28042 2.87805,-4.475 4.55204,-6.48099 3.26351,-3.50104 7.14334,-6.57149 11.46417,-7.98737 1.47339,-0.40988 2.92367,-0.32265 4.38487,0.0715 1.03457,0.38148 0.5197,0.19373 1.54457,0.56339 0,0 -6.12531,4.80102 -6.12531,4.80102 l 0,0 c -1.00427,-0.34933 -0.50103,-0.18834 -1.50958,-0.4836 -1.40097,-0.25587 -2.78852,-0.24306 -4.15271,0.27066 -2.39825,1.00964 -6.01315,3.58422 3.91553,-2.93076 0.31072,-0.20389 -0.60228,0.44504 -0.89133,0.68743 -0.80574,0.67566 -1.10613,1.01887 -1.85767,1.78407 -1.70545,1.86939 -3.11482,4.03174 -4.50689,6.21103 0,0 -6.81769,3.49361 -6.81769,3.49361 z"
       inkscape:connector-curvature="0" />
    <path
       style="fill:#1a1a1a;fill-opacity:1;stroke:none"
       id="path7013"
       d="m 311.36354,241.16703 c -1.54532,-1.20419 -3.27236,-1.81121 -5.09263,-2.15822 -1.81943,-0.28937 -3.66548,-0.009 -5.48848,0.13147 -0.71352,0.10672 -1.40179,0.27954 -2.08558,0.53025 0,0 5.89935,-5.20064 5.89935,-5.20064 l 0,0 c 0.71044,-0.17446 1.42309,-0.33003 2.15052,-0.37842 1.85329,-0.13084 3.72938,-0.35362 5.56874,0.059 1.89044,0.43542 3.64605,1.19777 5.30642,2.33994 0,0 -6.25834,4.67664 -6.25834,4.67664 z"
       inkscape:connector-curvature="0" />
    <path
       style="fill:#1a1a1a;fill-opacity:1;stroke:none"
       id="path7015"
       d="m 259.42415,246.06423 c 2.07882,-1.0284 4.18087,-1.99298 6.26144,-3.01703 2.27991,-1.03746 4.59075,-1.94255 6.98934,-2.53236 1.20346,-0.26786 2.42495,-0.36008 3.64638,-0.43101 0,0 -5.96923,5.0467 -5.96923,5.0467 l 0,0 c -1.18853,0.0902 -2.37662,0.21446 -3.54187,0.5136 -2.3568,0.63681 -4.63446,1.57573 -6.87541,2.62494 -2.12581,1.03314 -4.26544,2.02971 -6.37036,3.11882 0,0 5.85971,-5.32366 5.85971,-5.32366 z"
       inkscape:connector-curvature="0" />
    <path
       style="fill:#1a1a1a;fill-opacity:1;stroke:none"
       id="path7017"
       d="m 254.03166,250.99523 c -1.75493,-1.39092 -3.54386,-2.73807 -5.39778,-3.94901 -0.82692,-0.45047 -1.66236,-0.87226 -2.51322,-1.25847 0,0 6.15826,-4.72974 6.15826,-4.72974 l 0,0 c 0.85811,0.42877 1.71204,0.86855 2.53726,1.37747 1.83983,1.26604 3.62209,2.63949 5.47382,3.88311 0,0 -6.25834,4.67664 -6.25834,4.67664 z"
       inkscape:connector-curvature="0" />
    <path
       sodipodi:type="arc"
       style="fill:#1a1a1a;fill-opacity:1;fill-rule:nonzero;stroke:none"
       id="path5222"
       sodipodi:cx="156.82619"
       sodipodi:cy="598.29858"
       sodipodi:rx="12.374369"
       sodipodi:ry="35.355339"
       d="m 169.20056,598.29858 a 12.374369,35.355339 0 1 1 -24.74874,0 12.374369,35.355339 0 1 1 24.74874,0 z"
       transform="matrix(0.11330399,0,0,0.10608614,962.85951,193.61416)" />
    <path
       sodipodi:type="arc"
       style="fill:#1a1a1a;fill-opacity:1;fill-rule:nonzero;stroke:none"
       id="path5222-0"
       sodipodi:cx="156.82619"
       sodipodi:cy="598.29858"
       sodipodi:rx="12.374369"
       sodipodi:ry="35.355339"
       d="m 169.20056,598.29858 a 12.374369,35.355339 0 1 1 -24.74874,0 12.374369,35.355339 0 1 1 24.74874,0 z"
       transform="matrix(0.11330399,0,0,0.10608614,966.73581,193.86092)" />
    <path
       sodipodi:type="arc"
       style="fill:#1a1a1a;fill-opacity:1;fill-rule:nonzero;stroke:none"
       id="path5222-9"
       sodipodi:cx="156.82619"
       sodipodi:cy="598.29858"
       sodipodi:rx="12.374369"
       sodipodi:ry="35.355339"
       d="m 169.20056,598.29858 a 12.374369,35.355339 0 1 1 -24.74874,0 12.374369,35.355339 0 1 1 24.74874,0 z"
       transform="matrix(0.11330399,0,0,0.10608614,973.11383,193.46611)" />
    <path
       sodipodi:type="arc"
       style="fill:#1a1a1a;fill-opacity:1;fill-rule:nonzero;stroke:none"
       id="path5222-7"
       sodipodi:cx="156.82619"
       sodipodi:cy="598.29858"
       sodipodi:rx="12.374369"
       sodipodi:ry="35.355339"
       d="m 169.20056,598.29858 a 12.374369,35.355339 0 1 1 -24.74874,0 12.374369,35.355339 0 1 1 24.74874,0 z"
       transform="matrix(0.11330399,0,0,0.10608614,976.46779,193.41676)" />
    <path
       sodipodi:type="arc"
       style="fill:#1a1a1a;fill-opacity:1;fill-rule:nonzero;stroke:none"
       id="path5222-3"
       sodipodi:cx="156.82619"
       sodipodi:cy="598.29858"
       sodipodi:rx="12.374369"
       sodipodi:ry="35.355339"
       d="m 169.20056,598.29858 a 12.374369,35.355339 0 1 1 -24.74874,0 12.374369,35.355339 0 1 1 24.74874,0 z"
       transform="matrix(0.11330399,0,0,0.10608614,962.7358,193.24402)" />
    <path
       sodipodi:type="arc"
       style="fill:#1a1a1a;fill-opacity:1;fill-rule:nonzero;stroke:none"
       id="path5222-0-7"
       sodipodi:cx="156.82619"
       sodipodi:cy="598.29858"
       sodipodi:rx="12.374369"
       sodipodi:ry="35.355339"
       d="m 169.20056,598.29858 a 12.374369,35.355339 0 1 1 -24.74874,0 12.374369,35.355339 0 1 1 24.74874,0 z"
       transform="matrix(0.11330399,0,0,0.10608614,966.6121,193.49078)" />
    <path
       sodipodi:type="arc"
       style="fill:#1a1a1a;fill-opacity:1;fill-rule:nonzero;stroke:none"
       id="path5222-9-2"
       sodipodi:cx="156.82619"
       sodipodi:cy="598.29858"
       sodipodi:rx="12.374369"
       sodipodi:ry="35.355339"
       d="m 169.20056,598.29858 a 12.374369,35.355339 0 1 1 -24.74874,0 12.374369,35.355339 0 1 1 24.74874,0 z"
       transform="matrix(0.11330399,0,0,0.10608614,972.99012,193.09597)" />
    <path
       sodipodi:type="arc"
       style="fill:#1a1a1a;fill-opacity:1;fill-rule:nonzero;stroke:none"
       id="path5222-7-6"
       sodipodi:cx="156.82619"
       sodipodi:cy="598.29858"
       sodipodi:rx="12.374369"
       sodipodi:ry="35.355339"
       d="m 169.20056,598.29858 a 12.374369,35.355339 0 1 1 -24.74874,0 12.374369,35.355339 0 1 1 24.74874,0 z"
       transform="matrix(0.11330399,0,0,0.10608614,976.34408,193.04662)" />
    <path
       style="fill:#1a1a1a;fill-opacity:1;stroke:none"
       id="path3299"
       d="m 995.10503,249.83637 c 0.10328,-0.13791 0.2082,-0.27476 0.3168,-0.40937 0.0717,-0.0944 0.14884,-0.18286 0.25181,-0.25093 0.19553,-0.088 0.58432,-0.4425 0.91971,-0.37935 0.002,3e-4 0.11074,0.0302 0.11387,0.0311 0.094,0.0338 0.19537,0.0573 0.28726,0.0957 0.0928,0.026 0.13832,0.0996 0.18309,0.17096 0.0423,0.0809 0.0609,0.16917 0.0453,0.25747 -0.12982,0.30762 -0.72642,0.65706 -0.85062,0.2927 -0.0218,-0.1067 -0.0279,-0.2162 -0.0207,-0.32438 0.0158,-0.10981 0.0642,-0.19946 0.15377,-0.27428 0.30935,-0.20446 0.63093,-0.42327 1.01549,-0.4615 0.11138,-0.008 0.22323,-0.007 0.33487,-0.007 0,0 -0.66028,0.43066 -0.66028,0.43066 l 0,0 c -0.10928,4.9e-4 -0.21919,3e-4 -0.32742,0.0157 -0.0539,0.01 -0.10543,0.0206 -0.15576,0.0411 -0.0168,0.007 -0.065,0.0311 -0.0491,0.0228 0.75961,-0.40108 0.85283,-0.45409 0.60115,-0.31264 -0.10002,0.0517 -0.15561,0.117 -0.18228,0.21918 -0.0168,0.0989 -0.005,0.20056 0.009,0.29937 0.003,0.014 7.6e-4,0.0344 0.0151,0.0409 0.002,7.8e-4 0.0263,-0.0255 0.0161,-0.0201 -0.89532,0.47102 -0.89086,0.4683 -0.64079,0.34831 0.0471,-0.0598 0.0141,-0.13916 -0.0128,-0.20193 -0.0388,-0.0618 -0.0733,-0.10973 -0.15376,-0.12986 -0.0934,-0.03 -0.18444,-0.0658 -0.28018,-0.0891 -0.0684,-0.0152 -0.1328,-0.0258 -0.20196,-0.007 -0.0166,0.005 -0.0634,0.0249 -0.0485,0.0169 0.21561,-0.11549 0.43414,-0.22654 0.65121,-0.3398 -0.11597,0.0489 -0.19845,0.13051 -0.26721,0.22662 -0.11521,0.12793 -0.21828,0.26573 -0.31429,0.40578 0,0 -0.74861,0.29141 -0.74861,0.29141 z"
       inkscape:connector-curvature="0" />
    <path
       sodipodi:type="arc"
       style="fill:#1a1a1a;fill-opacity:1;stroke:none"
       id="path3239"
       sodipodi:cx="222.99118"
       sodipodi:cy="537.43695"
       sodipodi:rx="86.620583"
       sodipodi:ry="60.356613"
       d="m 309.61176,537.43695 a 86.620583,60.356613 0 1 1 -173.24116,0 86.620583,60.356613 0 1 1 173.24116,0 z"
       transform="matrix(0.1088607,0,0,0.09771092,962.62163,199.41467)" />
    <path
       sodipodi:type="arc"
       style="fill:#1a1a1a;fill-opacity:1;stroke:none"
       id="path3239-0"
       sodipodi:cx="222.99118"
       sodipodi:cy="537.43695"
       sodipodi:rx="86.620583"
       sodipodi:ry="60.356613"
       d="m 309.61176,537.43695 a 86.620583,60.356613 0 1 1 -173.24116,0 86.620583,60.356613 0 1 1 173.24116,0 z"
       transform="matrix(0.10568692,0,0,0.09198727,962.91698,202.46609)" />
    <path
       sodipodi:type="arc"
       style="fill:#1a1a1a;fill-opacity:1;fill-rule:nonzero;stroke:none"
       id="path5386-5"
       sodipodi:cx="175.26146"
       sodipodi:cy="499.05112"
       sodipodi:rx="26.263966"
       sodipodi:ry="20.455589"
       d="m 201.52542,499.05112 a 26.263966,20.455589 0 1 1 -52.52793,0 26.263966,20.455589 0 1 1 52.52793,0 z"
       transform="matrix(0.06129691,0.05461833,-0.04560202,0.04957349,986.23778,211.00283)" />
    <path
       sodipodi:type="arc"
       style="fill:#1a1a1a;fill-opacity:1;fill-rule:nonzero;stroke:none"
       id="path4303"
       sodipodi:cx="157.85715"
       sodipodi:cy="490.93362"
       sodipodi:rx="83.571426"
       sodipodi:ry="105.71429"
       d="m 241.42857,490.93362 a 83.571426,105.71429 0 1 1 -167.142849,0 83.571426,105.71429 0 1 1 167.142849,0 z"
       transform="matrix(0.06546587,0.0117143,-0.01274161,0.05736764,973.49861,219.37363)" />
    <path
       sodipodi:type="arc"
       style="fill:#1a1a1a;fill-opacity:1;fill-rule:nonzero;stroke:none"
       id="path4303-8"
       sodipodi:cx="157.85715"
       sodipodi:cy="490.93362"
       sodipodi:rx="83.571426"
       sodipodi:ry="105.71429"
       d="m 241.42857,490.93362 a 83.571426,105.71429 0 1 1 -167.142849,0 83.571426,105.71429 0 1 1 167.142849,0 z"
       transform="matrix(0.06083023,0.01047193,-0.01183938,0.05128348,973.53525,222.3734)" />
    <path
       sodipodi:type="arc"
       style="fill:#1a1a1a;fill-opacity:1;fill-rule:nonzero;stroke:none"
       id="path5303"
       sodipodi:cx="105.05586"
       sodipodi:cy="517.99152"
       sodipodi:rx="11.111678"
       sodipodi:ry="11.616755"
       d="m 116.16754,517.99152 a 11.111678,11.616755 0 1 1 -22.223356,0 11.111678,11.616755 0 1 1 22.223356,0 z"
       transform="matrix(0.1088607,0,0,0.09771092,963.14228,197.32078)" />
    <path
       transform="matrix(0.1088607,0,0,0.09771092,966.44126,197.56753)"
       sodipodi:type="arc"
       style="fill:#1a1a1a;fill-opacity:1;fill-rule:nonzero;stroke:none"
       id="path5303-0"
       sodipodi:cx="105.05586"
       sodipodi:cy="517.99152"
       sodipodi:rx="11.111678"
       sodipodi:ry="11.616755"
       d="m 116.16754,517.99152 a 11.111678,11.616755 0 1 1 -22.223356,0 11.111678,11.616755 0 1 1 22.223356,0 z" />
    <path
       transform="matrix(0.1925997,0,0,0.11166962,955.86973,185.69448)"
       sodipodi:type="arc"
       style="fill:#1a1a1a;fill-opacity:1;fill-rule:nonzero;stroke:none"
       id="path5330-5"
       sodipodi:cx="95.711952"
       sodipodi:cy="553.59937"
       sodipodi:rx="3.2829957"
       sodipodi:ry="5.3033009"
       d="m 98.994948,553.59937 a 3.2829957,5.3033009 0 1 1 -6.565991,0 3.2829957,5.3033009 0 1 1 6.565991,0 z" />
    <path
       transform="matrix(0.1925997,0,0,0.11166962,959.16871,185.91656)"
       sodipodi:type="arc"
       style="fill:#1a1a1a;fill-opacity:1;fill-rule:nonzero;stroke:none"
       id="path5330-5-7"
       sodipodi:cx="95.711952"
       sodipodi:cy="553.59937"
       sodipodi:rx="3.2829957"
       sodipodi:ry="5.3033009"
       d="m 98.994948,553.59937 a 3.2829957,5.3033009 0 1 1 -6.565991,0 3.2829957,5.3033009 0 1 1 6.565991,0 z" />
    <path
       sodipodi:type="arc"
       style="fill:#1a1a1a;fill-opacity:1;fill-rule:nonzero;stroke:none"
       id="path5386"
       sodipodi:cx="175.26146"
       sodipodi:cy="499.05112"
       sodipodi:rx="26.263966"
       sodipodi:ry="20.455589"
       d="m 201.52542,499.05112 a 26.263966,20.455589 0 1 1 -52.52793,0 26.263966,20.455589 0 1 1 52.52793,0 z"
       transform="matrix(0.06133379,-0.04293514,0.03467556,0.05127975,953.6722,227.96783)" />
    <path
       sodipodi:type="arc"
       style="fill:#1a1a1a;fill-opacity:1;stroke:none"
       id="path3259"
       sodipodi:cx="103.03556"
       sodipodi:cy="540.46741"
       sodipodi:rx="7.5761442"
       sodipodi:ry="7.323606"
       d="m 110.6117,540.46741 a 7.5761442,7.323606 0 1 1 -15.152284,0 7.5761442,7.323606 0 1 1 15.152284,0 z"
       transform="matrix(0.17417712,0,0,0.15835907,956.99137,165.30383)" />
    <path
       transform="matrix(0.1088607,0,0,0.09771092,964.79345,196.62631)"
       sodipodi:type="arc"
       style="fill:#1a1a1a;fill-opacity:1;fill-rule:nonzero;stroke:none"
       id="path5330-6"
       sodipodi:cx="95.711952"
       sodipodi:cy="553.59937"
       sodipodi:rx="3.2829957"
       sodipodi:ry="5.3033009"
       d="m 98.994948,553.59937 a 3.2829957,5.3033009 0 1 1 -6.565991,0 3.2829957,5.3033009 0 1 1 6.565991,0 z" />
    <path
       transform="matrix(0.1088607,0,0,0.09771092,963.91373,196.62631)"
       sodipodi:type="arc"
       style="fill:#1a1a1a;fill-opacity:1;fill-rule:nonzero;stroke:none"
       id="path5330-6-9"
       sodipodi:cx="95.711952"
       sodipodi:cy="553.59937"
       sodipodi:rx="3.2829957"
       sodipodi:ry="5.3033009"
       d="m 98.994948,553.59937 a 3.2829957,5.3033009 0 1 1 -6.565991,0 3.2829957,5.3033009 0 1 1 6.565991,0 z" />
    <path
       style="fill:#1a1a1a;fill-opacity:1;stroke:none"
       d="m 986.61427,257.86727 0.91593,-0.0525 c 0,0 2.21348,-9.46828 0.36255,-11.77847 l -0.8396,0 c 0,0 1.58379,2.74773 -0.43888,11.83097 z"
       id="path3840"
       inkscape:connector-curvature="0"
       sodipodi:nodetypes="ccccc" />
    <path
       style="fill:#1a1a1a;fill-opacity:1;stroke:none"
       d="m 986.38154,257.882 0.91592,-0.0525 c 0,0 2.21349,-9.46828 0.36256,-11.77847 l -0.8396,0 c 0,0 1.58378,2.74773 -0.43888,11.83098 z"
       id="path3840-7"
       inkscape:connector-curvature="0"
       sodipodi:nodetypes="ccccc" />
    <path
       style="fill:#1a1a1a;fill-opacity:1;stroke:none"
       d="m 987.79526,234.65869 c -0.32408,0.76816 0.0997,11.42637 0.0997,11.42637 l -1.1218,0 c 0,0 0.59829,-10.37015 0.12464,-11.39436 z"
       id="path3881"
       inkscape:connector-curvature="0" />
    <path
       style="fill:#1a1a1a;fill-opacity:1;stroke:none"
       d="m 987.65011,234.65288 c -0.29038,0.76816 0.0893,11.42636 0.0893,11.42636 l -1.00517,0 c 0,0 0.53609,-10.37014 0.11169,-11.39435 z"
       id="path3881-9"
       inkscape:connector-curvature="0" />
    <path
       sodipodi:type="arc"
       style="fill:#1a1a1a;fill-opacity:1;stroke:none"
       id="path3901"
       sodipodi:cx="228.75"
       sodipodi:cy="376.29077"
       sodipodi:rx="28.75"
       sodipodi:ry="41.42857"
       d="m 257.5,376.29077 a 28.75,41.42857 0 1 1 -57.5,0 28.75,41.42857 0 1 1 57.5,0 z"
       transform="matrix(0.17011829,0,0,0.14860763,948.52949,173.30451)" />
    <path
       sodipodi:type="arc"
       style="fill:#1a1a1a;fill-opacity:1;stroke:none"
       id="path3901-4"
       sodipodi:cx="228.75"
       sodipodi:cy="376.29077"
       sodipodi:rx="28.75"
       sodipodi:ry="41.42857"
       d="m 257.5,376.29077 a 28.75,41.42857 0 1 1 -57.5,0 28.75,41.42857 0 1 1 57.5,0 z"
       transform="matrix(0.17011829,0,0,0.14860763,948.13457,173.25143)" />
  </g>
</svg>
