<?xml version="1.0" encoding="UTF-8" standalone="no"?>
<!-- Created with Inkscape (http://www.inkscape.org/) -->

<svg
   xmlns:dc="http://purl.org/dc/elements/1.1/"
   xmlns:cc="http://creativecommons.org/ns#"
   xmlns:rdf="http://www.w3.org/1999/02/22-rdf-syntax-ns#"
   xmlns:svg="http://www.w3.org/2000/svg"
   xmlns="http://www.w3.org/2000/svg"
   xmlns:sodipodi="http://sodipodi.sourceforge.net/DTD/sodipodi-0.dtd"
   xmlns:inkscape="http://www.inkscape.org/namespaces/inkscape"
   width="744.09448819"
   height="1052.3622047"
   id="svg7779"
   version="1.1"
   inkscape:version="0.48.5 r10040"
   sodipodi:docname="New document 40">
  <defs
     id="defs7781" />
  <sodipodi:namedview
     id="base"
     pagecolor="#ffffff"
     bordercolor="#666666"
     borderopacity="1.0"
     inkscape:pageopacity="0.0"
     inkscape:pageshadow="2"
     inkscape:zoom="2"
     inkscape:cx="208.71092"
     inkscape:cy="717.36078"
     inkscape:document-units="px"
     inkscape:current-layer="layer9"
     showgrid="false"
     inkscape:window-width="1920"
     inkscape:window-height="1017"
     inkscape:window-x="-8"
     inkscape:window-y="-8"
     inkscape:window-maximized="1" />
  <metadata
     id="metadata7784">
    <rdf:RDF>
      <cc:Work
         rdf:about="">
        <dc:format>image/svg+xml</dc:format>
        <dc:type
           rdf:resource="http://purl.org/dc/dcmitype/StillImage" />
        <dc:title></dc:title>
      </cc:Work>
    </rdf:RDF>
  </metadata>
  <g
     inkscape:groupmode="layer"
     id="layer9"
     inkscape:label="back"
     style="display:inline">
    <path
       sodipodi:type="arc"
       style="fill:#622b1a;fill-opacity:1;stroke:none"
       id="path7793-6"
       sodipodi:cx="301"
       sodipodi:cy="345.86218"
       sodipodi:rx="234"
       sodipodi:ry="96.5"
       d="m 535,345.86218 a 234,96.5 0 1 1 -468,0 234,96.5 0 1 1 468,0 z"
       transform="matrix(0.90521994,-0.33029412,0.44590803,0.95722861,-129.233,109.85076)" />
  </g>
  <g
     inkscape:label="Layer 1"
     inkscape:groupmode="layer"
     id="layer1"
     sodipodi:insensitive="true">
    <path
       sodipodi:type="arc"
       style="fill:#772b1a;fill-opacity:1;stroke:none"
       id="path7793"
       sodipodi:cx="301"
       sodipodi:cy="345.86218"
       sodipodi:rx="234"
       sodipodi:ry="96.5"
       d="m 535,345.86218 a 234,96.5 0 1 1 -468,0 234,96.5 0 1 1 468,0 z"
       transform="matrix(0.90417315,-0.32618069,0.44539239,0.94530744,-125.2005,117.09648)" />
    <path
       style="fill:#270018;fill-opacity:1;stroke:#270018;stroke-width:1px;stroke-linecap:butt;stroke-linejoin:miter;stroke-opacity:1"
       d="m 211,464.36218 c -86,-70 -53,-159 -53,-159 l 47,-27 c 0,0 -42,141 59,180 0,0 -51,5 -53,6 z"
       id="path8305"
       inkscape:connector-curvature="0" />
    <path
       style="fill:#270018;fill-opacity:1;stroke:#270018;stroke-width:1.00288332px;stroke-linecap:butt;stroke-linejoin:miter;stroke-opacity:1"
       d="m 252.01045,258.36218 c 0,0 -20.1155,143 73.42156,186"
       id="path8327"
       inkscape:connector-curvature="0" />
    <path
       style="fill:#270018;fill-opacity:1;stroke:#270018;stroke-width:1px;stroke-linecap:butt;stroke-linejoin:miter;stroke-opacity:1"
       d="M 251.37646,258.98837 283.90337,246.614 c 0,0 -15.55635,146.72466 86.97413,179.95868 l -46.31549,17.67767"
       id="path8339"
       inkscape:connector-curvature="0"
       sodipodi:nodetypes="cccc" />
    <path
       style="fill:#270018;fill-opacity:1;stroke:#270018;stroke-width:1px;stroke-linecap:butt;stroke-linejoin:miter;stroke-opacity:1"
       d="m 386.43386,227.16857 -44.54773,5.3033 c 0,0 -26.16295,117.73328 67.17514,174.65537 l 39.59799,-23.68807 c 0,0 -98.6414,-60.81118 -62.2254,-156.2706 z"
       id="path8341"
       inkscape:connector-curvature="0"
       sodipodi:nodetypes="ccccc" />
    <path
       style="fill:#e6e6e6;stroke:none"
       d="m 100.40916,360.10464 c 0,0 -50.204579,65.05383 27.57717,94.04521 -22.27386,-26.16295 -27.57717,-94.04521 -27.57717,-94.04521 z"
       id="path8345"
       inkscape:connector-curvature="0" />
  </g>
</svg>
