<?xml version="1.0" encoding="UTF-8" standalone="no"?>
<!-- Created with Inkscape (http://www.inkscape.org/) -->

<svg
   xmlns:dc="http://purl.org/dc/elements/1.1/"
   xmlns:cc="http://creativecommons.org/ns#"
   xmlns:rdf="http://www.w3.org/1999/02/22-rdf-syntax-ns#"
   xmlns:svg="http://www.w3.org/2000/svg"
   xmlns="http://www.w3.org/2000/svg"
   xmlns:sodipodi="http://sodipodi.sourceforge.net/DTD/sodipodi-0.dtd"
   xmlns:inkscape="http://www.inkscape.org/namespaces/inkscape"
   width="210mm"
   height="297mm"
   viewBox="0 0 744.09448819 1052.3622047"
   id="svg7482"
   version="1.1"
   inkscape:version="0.91 r13725"
   enable-background="new"
   sodipodi:docname="teal princessa.svg">
  <defs
     id="defs7484">
    <filter
       inkscape:collect="always"
       style="color-interpolation-filters:sRGB"
       id="filter8300">
      <feBlend
         inkscape:collect="always"
         mode="lighten"
         in2="BackgroundImage"
         id="feBlend8302" />
    </filter>
  </defs>
  <sodipodi:namedview
     id="base"
     pagecolor="#ffffff"
     bordercolor="#666666"
     borderopacity="1.0"
     inkscape:pageopacity="0.0"
     inkscape:pageshadow="2"
     inkscape:zoom="2"
     inkscape:cx="271.53954"
     inkscape:cy="660"
     inkscape:document-units="px"
     inkscape:current-layer="layer11"
     showgrid="false"
     inkscape:window-width="1920"
     inkscape:window-height="1017"
     inkscape:window-x="-8"
     inkscape:window-y="-8"
     inkscape:window-maximized="1" />
  <metadata
     id="metadata7487">
    <rdf:RDF>
      <cc:Work
         rdf:about="">
        <dc:format>image/svg+xml</dc:format>
        <dc:type
           rdf:resource="http://purl.org/dc/dcmitype/StillImage" />
        <dc:title></dc:title>
      </cc:Work>
    </rdf:RDF>
  </metadata>
  <g
     inkscape:groupmode="layer"
     id="layer7"
     inkscape:label="Layer 2" />
  <g
     inkscape:groupmode="layer"
     id="layer10"
     inkscape:label="Layer 5">
    <rect
       style="opacity:1;fill:#2ca02c;fill-opacity:1;stroke:none;stroke-opacity:1"
       id="rect8320"
       width="45.5"
       height="13.5"
       x="310.5"
       y="423.36221"
       rx="0"
       ry="6.75" />
  </g>
  <g
     inkscape:groupmode="layer"
     id="layer8"
     inkscape:label="Layer 3"
     style="filter:url(#filter8300);opacity:1">
    <rect
       style="opacity:1;fill:#5fd3bc;fill-opacity:1;stroke:none;stroke-opacity:1"
       id="rect8096"
       width="53.5"
       height="49.5"
       x="306.5"
       y="376.36221"
       rx="21.9359"
       ry="21" />
    <rect
       style="opacity:1;fill:#ffccaa;fill-opacity:1;stroke:none;stroke-opacity:1"
       id="rect8130"
       width="25.5"
       height="32.5"
       x="321.5"
       y="358.11221"
       rx="18.044046"
       ry="7" />
    <rect
       style="opacity:1;fill:#5fd3bc;fill-opacity:1;stroke:none;stroke-opacity:1"
       id="rect8193"
       width="90"
       height="104"
       x="291.5"
       y="434.36221"
       rx="22.872679"
       ry="7.0679612" />
    <path
       style="opacity:1;fill:#ffccaa;fill-opacity:1;stroke:none;stroke-opacity:1"
       id="path8195"
       sodipodi:type="arc"
       sodipodi:cx="473.00934"
       sodipodi:cy="228.38586"
       sodipodi:rx="20.209837"
       sodipodi:ry="7.127542"
       sodipodi:start="3.1415927"
       sodipodi:end="3.0909956"
       sodipodi:open="true"
       d="m 452.7995,228.38586 a 20.209837,7.127542 0 0 1 19.95421,-7.12697 20.209837,7.127542 0 0 1 20.459,6.94668 20.209837,7.127542 0 0 1 -19.43664,7.3027 20.209837,7.127542 0 0 1 -20.9507,-6.76193"
       transform="matrix(0.86602541,0.5,-0.5,0.86602541,0,0)" />
    <rect
       style="opacity:1;fill:#ffccaa;fill-opacity:1;stroke:none;stroke-opacity:1"
       id="rect8239"
       width="15.304537"
       height="17.278891"
       x="486.54797"
       y="220.39438"
       rx="17.951593"
       ry="6.1063251"
       transform="matrix(0.86602541,0.5,-0.5,0.86602541,0,0)" />
    <path
       style="opacity:1;fill:#ffccaa;fill-opacity:1;stroke:none;stroke-opacity:1"
       id="path8195-7"
       sodipodi:type="arc"
       sodipodi:cx="-4.6551952"
       sodipodi:cy="575.82587"
       sodipodi:rx="20.209837"
       sodipodi:ry="7.127542"
       sodipodi:start="3.1415927"
       sodipodi:end="3.0909956"
       sodipodi:open="true"
       d="m -24.865032,575.82587 a 20.209837,7.127542 0 0 1 19.9542047,-7.12698 20.209837,7.127542 0 0 1 20.4590023,6.94668 20.209837,7.127542 0 0 1 -19.4366359,7.30271 20.209837,7.127542 0 0 1 -20.9507071,-6.76193"
       transform="matrix(-0.76604445,0.6427876,0.6427876,0.76604445,0,0)" />
    <rect
       style="opacity:1;fill:#ffccaa;fill-opacity:1;stroke:none;stroke-opacity:1"
       id="rect8239-6"
       width="15.304537"
       height="17.278891"
       x="8.8834372"
       y="567.83435"
       rx="17.951593"
       ry="6.1063251"
       transform="matrix(-0.76604445,0.6427876,0.6427876,0.76604445,0,0)" />
    <path
       style="opacity:1;fill:#5fd3bc;fill-opacity:1;stroke:none;stroke-opacity:1"
       id="path7426-7"
       sodipodi:type="arc"
       sodipodi:cx="-368.55856"
       sodipodi:cy="382.89886"
       sodipodi:rx="17.897827"
       sodipodi:ry="19.548832"
       sodipodi:start="3.1415927"
       sodipodi:end="3.0909956"
       sodipodi:open="true"
       d="m -386.45639,382.89886 a 17.897827,19.548832 0 0 1 17.67144,-19.54726 17.897827,19.548832 0 0 1 18.11849,19.05276 17.897827,19.548832 0 0 1 -17.21308,20.02926 17.897827,19.548832 0 0 1 -18.55395,-18.54606"
       transform="scale(-1,1)" />
    <rect
       style="opacity:1;fill:#5fd3bc;fill-opacity:1;stroke:none;stroke-opacity:1"
       id="rect8098-1"
       width="15.990987"
       height="50.596256"
       x="-198.21774"
       y="512.69507"
       rx="17.538834"
       ry="17.857502"
       transform="matrix(-0.88964354,0.45665565,0.39006091,0.92078906,0,0)" />
  </g>
  <g
     inkscape:label="Layer 1"
     inkscape:groupmode="layer"
     id="layer1">
    <path
       style="opacity:1;fill:#ffccaa;fill-opacity:1;stroke:none;stroke-opacity:1"
       id="path7136"
       sodipodi:type="arc"
       sodipodi:cx="334.07947"
       sodipodi:cy="327.50504"
       sodipodi:rx="29"
       sodipodi:ry="41.5"
       sodipodi:start="3.1415927"
       sodipodi:end="3.0909912"
       sodipodi:open="true"
       d="m 305.07947,327.50503 a 29,41.5 0 0 1 28.63315,-41.49667 29,41.5 0 0 1 29.35757,40.44681 29,41.5 0 0 1 -27.89041,42.51998 29,41.5 0 0 1 -30.06319,-39.37105" />
    <path
       style="opacity:1;fill:#552200;fill-opacity:1;stroke:none;stroke-opacity:1"
       id="path7200"
       sodipodi:type="arc"
       sodipodi:cx="332.57947"
       sodipodi:cy="298.00504"
       sodipodi:rx="41.5"
       sodipodi:ry="19.5"
       sodipodi:start="3.1415927"
       sodipodi:end="3.0909956"
       sodipodi:open="true"
       d="m 291.07947,298.00503 a 41.5,19.5 0 0 1 40.97507,-19.49843 41.5,19.5 0 0 1 42.01165,19.00517 41.5,19.5 0 0 1 -39.91227,19.97923 41.5,19.5 0 0 1 -43.02134,-18.49974" />
    <path
       style="opacity:1;fill:#ffffff;fill-opacity:1;stroke:none;stroke-opacity:1"
       id="path7254-7"
       sodipodi:type="arc"
       sodipodi:cx="338.07947"
       sodipodi:cy="329.50504"
       sodipodi:rx="7"
       sodipodi:ry="9.5"
       sodipodi:start="3.1415927"
       sodipodi:end="3.0909956"
       sodipodi:open="true"
       d="m 331.07947,329.50503 a 7,9.5 0 0 1 6.91146,-9.49923 7,9.5 0 0 1 7.0863,9.25893 7,9.5 0 0 1 -6.73219,9.73347 7,9.5 0 0 1 -7.25661,-9.0127" />
    <path
       style="opacity:1;fill:#ffffff;fill-opacity:1;stroke:none;stroke-opacity:1"
       id="path7254-7-9"
       sodipodi:type="arc"
       sodipodi:cx="317.97778"
       sodipodi:cy="328.84824"
       sodipodi:rx="7"
       sodipodi:ry="9.5"
       sodipodi:start="3.1415927"
       sodipodi:end="3.0909956"
       sodipodi:open="true"
       d="m 310.97778,328.84824 a 7,9.5 0 0 1 6.91146,-9.49924 7,9.5 0 0 1 7.0863,9.25893 7,9.5 0 0 1 -6.73219,9.73347 7,9.5 0 0 1 -7.25661,-9.0127" />
    <path
       style="opacity:1;fill:#55ddff;fill-opacity:1;stroke:none;stroke-opacity:1"
       id="path7271-3-2-9"
       sodipodi:type="arc"
       sodipodi:cx="316.26086"
       sodipodi:cy="325.58481"
       sodipodi:rx="5"
       sodipodi:ry="6.5"
       sodipodi:start="3.1415927"
       sodipodi:end="3.0909956"
       sodipodi:open="true"
       d="m 311.26086,325.58481 a 5,6.5 0 0 1 4.93676,-6.49948 5,6.5 0 0 1 5.06164,6.33506 5,6.5 0 0 1 -4.8087,6.65974 5,6.5 0 0 1 -5.1833,-6.16658" />
    <path
       style="opacity:1;fill:#1c241f;fill-opacity:1;stroke:none;stroke-opacity:1"
       id="path7271-3-6-3-3"
       sodipodi:type="arc"
       sodipodi:cx="315.60474"
       sodipodi:cy="324.02756"
       sodipodi:rx="4.0815363"
       sodipodi:ry="5.0553069"
       sodipodi:start="3.1415927"
       sodipodi:end="3.0909956"
       sodipodi:open="true"
       d="m 311.5232,324.02756 a 4.0815363,5.0553069 0 0 1 4.02991,-5.05491 4.0815363,5.0553069 0 0 1 4.13186,4.92703 4.0815363,5.0553069 0 0 1 -3.92539,5.17954 4.0815363,5.0553069 0 0 1 -4.23116,-4.79599" />
    <path
       style="opacity:1;fill:#ffffff;fill-opacity:1;stroke:none;stroke-opacity:1"
       id="path7351-7-1"
       sodipodi:type="arc"
       sodipodi:cx="316.88074"
       sodipodi:cy="322.66287"
       sodipodi:rx="1.5909903"
       sodipodi:ry="1.9445436"
       sodipodi:start="3.1415927"
       sodipodi:end="3.0909956"
       sodipodi:open="true"
       d="m 315.28975,322.66287 a 1.5909903,1.9445436 0 0 1 1.57086,-1.94439 1.5909903,1.9445436 0 0 1 1.61061,1.8952 1.5909903,1.9445436 0 0 1 -1.53012,1.99234 1.5909903,1.9445436 0 0 1 -1.64932,-1.8448" />
    <path
       style="opacity:1;fill:#ff8080;fill-opacity:1;stroke:none;stroke-opacity:1"
       id="path7394"
       d="m 327.1246,338.1164 c -0.7706,0.62253 -1.319,1.41821 -1.6716,2.33579 -0.2363,0.60369 -0.497,1.20697 -0.5196,1.86269 -9e-4,0.33739 0.099,0.53458 0.3835,0.69935 0,0 -2.9613,1.88134 -2.9613,1.88134 l 0,0 c -0.3233,-0.26694 -0.5275,-0.54869 -0.5422,-0.98573 -0.036,-0.69508 0.1949,-1.35441 0.4803,-1.98131 0.3157,-0.96389 0.8277,-1.816 1.5863,-2.50251 0,0 3.2446,-1.30962 3.2446,-1.30962 z"
       inkscape:connector-curvature="0" />
    <path
       style="opacity:1;fill:#ff8080;fill-opacity:1;stroke:none;stroke-opacity:1"
       id="path7396"
       d="m 330.6913,353.44161 c 1.0756,0.0133 2.1514,0.008 3.2271,0.005 0.7952,-0.002 1.5904,-0.003 2.3856,-0.004 0.4595,-2e-4 0.2408,0.0242 0.6573,-0.0628 0,0 -2.8041,2.09559 -2.8041,2.09559 l 0,0 c -0.4428,0.03 -0.2158,0.022 -0.6811,0.0218 -0.7915,-5.5e-4 -1.5831,-0.002 -2.3746,-0.004 -1.0801,-0.003 -2.1602,-0.008 -3.2402,0.005 0,0 2.83,-2.0561 2.83,-2.0561 z"
       inkscape:connector-curvature="0" />
    <path
       style="opacity:1;fill:#ffffff;fill-opacity:1;stroke:none;stroke-opacity:1"
       id="path7424"
       sodipodi:type="arc"
       sodipodi:cx="333.71094"
       sodipodi:cy="380.27902"
       sodipodi:rx="24.57196"
       sodipodi:ry="11.667262"
       sodipodi:start="3.1415927"
       sodipodi:end="3.0909956"
       sodipodi:open="true"
       d="m 309.13898,380.27902 a 24.57196,11.667262 0 0 1 24.26115,-11.66633 24.57196,11.667262 0 0 1 24.87491,11.3712 24.57196,11.667262 0 0 1 -23.63187,11.95399 24.57196,11.667262 0 0 1 -25.47275,-11.06878" />
    <path
       style="opacity:1;fill:#5fd3bc;fill-opacity:1;stroke:none;stroke-opacity:1"
       id="path7426"
       sodipodi:type="arc"
       sodipodi:cx="298.99432"
       sodipodi:cy="381.38672"
       sodipodi:rx="17.897827"
       sodipodi:ry="19.548832"
       sodipodi:start="3.1415927"
       sodipodi:end="3.0909956"
       sodipodi:open="true"
       d="m 281.0965,381.38672 a 17.897827,19.548832 0 0 1 17.67144,-19.54727 17.897827,19.548832 0 0 1 18.11848,19.05277 17.897827,19.548832 0 0 1 -17.21308,20.02926 17.897827,19.548832 0 0 1 -18.55394,-18.54607" />
    <path
       style="opacity:1;fill:#ffffff;fill-opacity:1;stroke:none;stroke-opacity:1"
       id="path7254-7-9-3"
       sodipodi:type="arc"
       sodipodi:cx="339"
       sodipodi:cy="328.5502"
       sodipodi:rx="7"
       sodipodi:ry="9.5"
       sodipodi:start="3.1415927"
       sodipodi:end="3.0909956"
       sodipodi:open="true"
       d="m 332,328.5502 a 7,9.5 0 0 1 6.91146,-9.49924 7,9.5 0 0 1 7.0863,9.25893 7,9.5 0 0 1 -6.73219,9.73347 7,9.5 0 0 1 -7.25661,-9.01269" />
    <path
       style="opacity:1;fill:#55ddff;fill-opacity:1;stroke:none;stroke-opacity:1"
       id="path7271-3-2-9-3"
       sodipodi:type="arc"
       sodipodi:cx="337.28308"
       sodipodi:cy="325.28677"
       sodipodi:rx="5"
       sodipodi:ry="6.5"
       sodipodi:start="3.1415927"
       sodipodi:end="3.0909956"
       sodipodi:open="true"
       d="m 332.28308,325.28677 a 5,6.5 0 0 1 4.93676,-6.49948 5,6.5 0 0 1 5.06164,6.33506 5,6.5 0 0 1 -4.80871,6.65974 5,6.5 0 0 1 -5.18329,-6.16658" />
    <path
       style="opacity:1;fill:#1c241f;fill-opacity:1;stroke:none;stroke-opacity:1"
       id="path7271-3-6-3-3-0"
       sodipodi:type="arc"
       sodipodi:cx="336.62695"
       sodipodi:cy="323.72952"
       sodipodi:rx="4.0815363"
       sodipodi:ry="5.0553069"
       sodipodi:start="3.1415927"
       sodipodi:end="3.0909956"
       sodipodi:open="true"
       d="m 332.54542,323.72952 a 4.0815363,5.0553069 0 0 1 4.02991,-5.0549 4.0815363,5.0553069 0 0 1 4.13185,4.92702 4.0815363,5.0553069 0 0 1 -3.92538,5.17955 4.0815363,5.0553069 0 0 1 -4.23116,-4.79599" />
    <path
       style="opacity:1;fill:#ffffff;fill-opacity:1;stroke:none;stroke-opacity:1"
       id="path7351-7-1-5"
       sodipodi:type="arc"
       sodipodi:cx="337.90295"
       sodipodi:cy="322.36484"
       sodipodi:rx="1.5909903"
       sodipodi:ry="1.9445436"
       sodipodi:start="3.1415927"
       sodipodi:end="3.0909956"
       sodipodi:open="true"
       d="m 336.31196,322.36484 a 1.5909903,1.9445436 0 0 1 1.57087,-1.94439 1.5909903,1.9445436 0 0 1 1.61061,1.8952 1.5909903,1.9445436 0 0 1 -1.53013,1.99233 1.5909903,1.9445436 0 0 1 -1.64931,-1.8448" />
    <rect
       style="opacity:1;fill:#5fd3bc;fill-opacity:1;stroke:none;stroke-opacity:1"
       id="rect8098"
       width="15.990987"
       height="50.596256"
       x="417.53186"
       y="205.67828"
       rx="17.538834"
       ry="17.857502"
       transform="matrix(0.88964354,0.45665565,-0.39006091,0.92078906,0,0)" />
    <path
       style="opacity:1;fill:#552200;fill-opacity:1;stroke:none;stroke-opacity:1"
       id="path7200-7"
       sodipodi:type="arc"
       sodipodi:cx="-784.08282"
       sodipodi:cy="429.30499"
       sodipodi:rx="41.262463"
       sodipodi:ry="25.160038"
       sodipodi:start="3.1415927"
       sodipodi:end="3.0909956"
       sodipodi:open="true"
       d="m -825.34529,429.30499 a 41.262463,25.160038 0 0 1 40.74054,-25.15802 41.262463,25.160038 0 0 1 41.77118,24.52158 41.262463,25.160038 0 0 1 -39.68381,25.77837 41.262463,25.160038 0 0 1 -42.7751,-23.86945"
       transform="matrix(-0.30946411,-0.95091112,0.30946411,-0.95091112,0,0)" />
  </g>
  <g
     inkscape:groupmode="layer"
     id="layer9"
     inkscape:label="Layer 4">
    <path
       style="opacity:1;fill:#ffffff;fill-opacity:1;stroke:none;stroke-opacity:1"
       id="path7407"
       d="m 471.10079,193.06998 c -0.4324,4.11121 4.8679,5.67838 4.8679,5.67838 0.397,2.98757 0.2646,1.99171 0.397,2.98757 0.5289,0.99283 0.9091,2.04397 1.5868,2.97851 3.7754,5.20677 10.6071,8.39184 17.0343,11.20566 0.9644,0.48169 2.0021,0.88182 2.8931,1.44506 5.7356,3.6255 7.3127,9.64428 8.9199,14.98641 1.2872,3.53108 0.8749,9.25152 3.6132,12.28505 0.5911,0.65478 1.4413,1.13541 2.1619,1.70311 6.2464,3.22432 13.6359,4.38862 20.8381,5.50926 l -7.4314,4.09544 0,0 c -7.3766,-1.22269 -14.9919,-2.36287 -21.3562,-5.75178 -0.7896,-0.63376 -1.7159,-1.17667 -2.3688,-1.90132 -0.5782,-0.64155 -0.9283,-1.39937 -1.2719,-2.13893 -1.5458,-3.32634 -1.1621,-6.96513 -2.2228,-10.3765 -1.233,-4.4039 -2.4749,-9.00748 -6.2334,-12.5715 -1.8146,-1.72077 -2.946,-2.10948 -5.2716,-3.30715 -6.4683,-3.00959 -13.338,-6.38903 -17.2839,-11.63207 -0.743,-0.98721 -1.1843,-2.0983 -1.7765,-3.14747 -0.1407,-1.01287 -0.3258,-2.02249 -0.4222,-3.03861 -0.3884,-4.0947 -0.053,-8.20073 -0.048,-12.29913 l 5.1422,2.93646 z"
       inkscape:connector-curvature="0"
       sodipodi:nodetypes="cccscscsccccccscsccccccc" />
  </g>
  <g
     inkscape:groupmode="layer"
     id="layer11"
     inkscape:label="Layer 6"
     style="">
    <path
       style="opacity:1;fill:#ac9393;fill-opacity:1;stroke:none;stroke-opacity:1"
       id="path8501"
       sodipodi:type="arc"
       sodipodi:cx="322.25"
       sodipodi:cy="283.11221"
       sodipodi:rx="14.25"
       sodipodi:ry="14.75"
       sodipodi:start="3.1415927"
       sodipodi:end="0.032147121"
       d="m 308,283.11221 a 14.25,14.75 0 0 1 7.25765,-12.85217 14.25,14.75 0 0 1 14.38018,0.23928 14.25,14.75 0 0 1 6.85481,13.08698 L 322.25,283.11221 Z" />
    <path
       style="opacity:1;fill:#ac9393;fill-opacity:1;stroke:none;stroke-opacity:1"
       id="path8501-3"
       sodipodi:type="arc"
       sodipodi:cx="312.78955"
       sodipodi:cy="280.28217"
       sodipodi:rx="4.5"
       sodipodi:ry="21.532015"
       sodipodi:start="3.1415927"
       sodipodi:end="0.032147121"
       d="m 308.28955,280.28216 a 4.5,21.532015 0 0 1 2.29189,-18.76156 4.5,21.532015 0 0 1 4.54111,0.34929 4.5,21.532015 0 0 1 2.16468,19.10435 l -4.49768,-0.69207 z" />
    <path
       style="opacity:1;fill:#ac9393;fill-opacity:1;stroke:none;stroke-opacity:1"
       id="path8501-3-4"
       sodipodi:type="arc"
       sodipodi:cx="331.5"
       sodipodi:cy="280.78217"
       sodipodi:rx="4.5"
       sodipodi:ry="21.532015"
       sodipodi:start="3.1415927"
       sodipodi:end="0.032147121"
       d="m 327,280.78216 a 4.5,21.532015 0 0 1 2.29189,-18.76156 4.5,21.532015 0 0 1 4.54111,0.34929 4.5,21.532015 0 0 1 2.16467,19.10435 L 331.5,280.78217 Z" />
    <path
       style="opacity:1;fill:#ac9393;fill-opacity:1;stroke:none;stroke-opacity:1"
       id="path8501-3-8"
       sodipodi:type="arc"
       sodipodi:cx="321.5"
       sodipodi:cy="281.01749"
       sodipodi:rx="4.5"
       sodipodi:ry="29.767321"
       sodipodi:start="3.1415927"
       sodipodi:end="0.032147121"
       d="m 317,281.01749 a 4.5,29.767321 0 0 1 2.29189,-25.93727 4.5,29.767321 0 0 1 4.54111,0.48288 4.5,29.767321 0 0 1 2.16467,26.41116 L 321.5,281.01749 Z" />
    <path
       style="opacity:1;fill:#0000ff;fill-opacity:1;stroke:none;stroke-opacity:1"
       id="path8539"
       sodipodi:type="arc"
       sodipodi:cx="321.5"
       sodipodi:cy="276.36221"
       sodipodi:rx="5"
       sodipodi:ry="6.5"
       sodipodi:start="3.1415927"
       sodipodi:end="3.0040165"
       d="m 316.5,276.36221 a 5,6.5 0 0 1 4.82806,-6.49615 5,6.5 0 0 1 5.16012,6.04938 5,6.5 0 0 1 -4.47318,6.9122 5,6.5 0 0 1 -5.46776,-5.574"
       sodipodi:open="true" />
  </g>
  <g
     inkscape:groupmode="layer"
     id="layer12"
     inkscape:label="Layer 7" />
</svg>
