<?xml version="1.0" encoding="UTF-8" standalone="no"?>
<!-- Created with Inkscape (http://www.inkscape.org/) -->

<svg
   xmlns:dc="http://purl.org/dc/elements/1.1/"
   xmlns:cc="http://creativecommons.org/ns#"
   xmlns:rdf="http://www.w3.org/1999/02/22-rdf-syntax-ns#"
   xmlns:svg="http://www.w3.org/2000/svg"
   xmlns="http://www.w3.org/2000/svg"
   xmlns:sodipodi="http://sodipodi.sourceforge.net/DTD/sodipodi-0.dtd"
   xmlns:inkscape="http://www.inkscape.org/namespaces/inkscape"
   width="210mm"
   height="297mm"
   viewBox="0 0 744.09448819 1052.3622047"
   id="svg6199"
   version="1.1"
   inkscape:version="0.91 r13725"
   sodipodi:docname="tower.svg">
  <defs
     id="defs6201" />
  <sodipodi:namedview
     id="base"
     pagecolor="#ffffff"
     bordercolor="#666666"
     borderopacity="1.0"
     inkscape:pageopacity="0.0"
     inkscape:pageshadow="2"
     inkscape:zoom="1"
     inkscape:cx="418.85714"
     inkscape:cy="446.7687"
     inkscape:document-units="px"
     inkscape:current-layer="layer3"
     showgrid="false"
     inkscape:window-width="1920"
     inkscape:window-height="1017"
     inkscape:window-x="-8"
     inkscape:window-y="-8"
     inkscape:window-maximized="1" />
  <metadata
     id="metadata6204">
    <rdf:RDF>
      <cc:Work
         rdf:about="">
        <dc:format>image/svg+xml</dc:format>
        <dc:type
           rdf:resource="http://purl.org/dc/dcmitype/StillImage" />
        <dc:title></dc:title>
      </cc:Work>
    </rdf:RDF>
  </metadata>
  <g
     inkscape:label="Layer 1"
     inkscape:groupmode="layer"
     id="layer1"
     sodipodi:insensitive="true">
    <rect
       style="opacity:1;fill:#483737;fill-opacity:1;stroke:none;stroke-opacity:1"
       id="rect6751"
       width="281"
       height="778"
       x="241"
       y="245.36218"
       rx="23"
       ry="500.90411" />
    <rect
       style="opacity:1;fill:#483737;fill-opacity:1;stroke:none;stroke-opacity:1"
       id="rect6770"
       width="294"
       height="68"
       x="238"
       y="186.3622"
       rx="17.864693"
       ry="68" />
    <rect
       style="opacity:1;fill:#483737;fill-opacity:1;stroke:none;stroke-opacity:1"
       id="rect6774"
       width="41"
       height="54"
       x="250"
       y="143.3622"
       rx="0.86468506"
       ry="27" />
    <rect
       style="opacity:1;fill:#483737;fill-opacity:1;stroke:none;stroke-opacity:1"
       id="rect6774-6"
       width="41"
       height="54"
       x="396.5"
       y="141.36221"
       rx="0.86468506"
       ry="27" />
    <rect
       style="opacity:1;fill:#483737;fill-opacity:1;stroke:none;stroke-opacity:1"
       id="rect6774-2"
       width="41"
       height="54"
       x="476.5"
       y="141.3622"
       rx="0.86468506"
       ry="27" />
    <rect
       style="opacity:1;fill:#483737;fill-opacity:1;stroke:none;stroke-opacity:1"
       id="rect6774-64"
       width="41"
       height="54"
       x="320.5"
       y="143.3622"
       rx="0.86468506"
       ry="27" />
    <rect
       style="opacity:1;fill:#6c5353;fill-opacity:1;stroke:none;stroke-opacity:1"
       id="rect6751-3"
       width="271.44217"
       height="776.23584"
       x="258.89795"
       y="244.12637"
       rx="22.217688"
       ry="499.76828" />
    <rect
       style="opacity:1;fill:#6c5353;fill-opacity:1;stroke:none;stroke-opacity:1"
       id="rect6770-5"
       width="284"
       height="67.845802"
       x="256"
       y="185.26018"
       rx="17.25705"
       ry="67.845802" />
    <rect
       style="opacity:1;fill:#6c5353;fill-opacity:1;stroke:none;stroke-opacity:1"
       id="rect6774-4"
       width="39.605442"
       height="53.877552"
       x="267.59183"
       y="142.35768"
       rx="0.83527398"
       ry="26.938776" />
    <rect
       style="opacity:1;fill:#6c5353;fill-opacity:1;stroke:none;stroke-opacity:1"
       id="rect6774-6-8"
       width="39.605442"
       height="53.877552"
       x="409.10886"
       y="140.36224"
       rx="0.83527398"
       ry="26.938776" />
    <rect
       style="opacity:1;fill:#6c5353;fill-opacity:1;stroke:none;stroke-opacity:1"
       id="rect6774-2-4"
       width="39.605442"
       height="53.877552"
       x="486.38776"
       y="140.36221"
       rx="0.83527398"
       ry="26.938776" />
    <rect
       style="opacity:1;fill:#6c5353;fill-opacity:1;stroke:none;stroke-opacity:1"
       id="rect6774-64-4"
       width="39.605442"
       height="53.877552"
       x="335.69388"
       y="142.35768"
       rx="0.83527398"
       ry="26.938776" />
  </g>
  <g
     inkscape:groupmode="layer"
     id="layer3"
     inkscape:label="stone">
    <path
       style="opacity:1;fill:#483737;fill-opacity:1;stroke:none;stroke-opacity:1"
       id="path6860"
       sodipodi:type="arc"
       sodipodi:cx="381.25085"
       sodipodi:cy="296.48718"
       sodipodi:rx="36.5"
       sodipodi:ry="51.5"
       sodipodi:start="3.1415927"
       sodipodi:end="6.2695368"
       sodipodi:open="true"
       d="m 344.75085,296.48718 a 36.5,51.5 0 0 1 36.25092,-51.4988 36.5,51.5 0 0 1 36.74568,50.79593" />
    <path
       style="opacity:1;fill:#483737;fill-opacity:1;stroke:none;stroke-opacity:1"
       id="path6860-3"
       sodipodi:type="arc"
       sodipodi:cx="308.75256"
       sodipodi:cy="299.73718"
       sodipodi:rx="36.5"
       sodipodi:ry="51.5"
       sodipodi:start="3.1415927"
       sodipodi:end="6.2695368"
       sodipodi:open="true"
       d="m 272.25256,299.73718 a 36.5,51.5 0 0 1 36.25092,-51.4988 36.5,51.5 0 0 1 36.74568,50.79593" />
    <path
       style="opacity:1;fill:#483737;fill-opacity:1;stroke:none;stroke-opacity:1"
       id="path6860-0"
       sodipodi:type="arc"
       sodipodi:cx="463.25085"
       sodipodi:cy="302.48721"
       sodipodi:rx="36.5"
       sodipodi:ry="51.5"
       sodipodi:start="3.1415927"
       sodipodi:end="6.2695368"
       sodipodi:open="true"
       d="m 426.75085,302.48721 a 36.5,51.5 0 0 1 36.25092,-51.4988 36.5,51.5 0 0 1 36.74568,50.79593" />
    <path
       style="opacity:1;fill:#483737;fill-opacity:1;stroke:none;stroke-opacity:1"
       id="path6860-3-5"
       sodipodi:type="arc"
       sodipodi:cx="303.75256"
       sodipodi:cy="360.73721"
       sodipodi:rx="36.5"
       sodipodi:ry="51.5"
       sodipodi:start="3.1415927"
       sodipodi:end="6.2695368"
       sodipodi:open="true"
       d="m 267.25256,360.73721 a 36.5,51.5 0 0 1 36.25092,-51.4988 36.5,51.5 0 0 1 36.74568,50.79593" />
    <path
       style="opacity:1;fill:#483737;fill-opacity:1;stroke:none;stroke-opacity:1"
       id="path6860-9"
       sodipodi:type="arc"
       sodipodi:cx="460.25085"
       sodipodi:cy="362.48721"
       sodipodi:rx="36.5"
       sodipodi:ry="51.5"
       sodipodi:start="3.1415927"
       sodipodi:end="6.2695368"
       sodipodi:open="true"
       d="m 423.75085,362.48721 a 36.5,51.5 0 0 1 36.25092,-51.4988 36.5,51.5 0 0 1 36.74568,50.79593" />
    <path
       style="opacity:1;fill:#483737;fill-opacity:1;stroke:none;stroke-opacity:1"
       id="path6860-3-4"
       sodipodi:type="arc"
       sodipodi:cx="379.75256"
       sodipodi:cy="358.73721"
       sodipodi:rx="36.5"
       sodipodi:ry="51.5"
       sodipodi:start="3.1415927"
       sodipodi:end="6.2695368"
       sodipodi:open="true"
       d="m 343.25256,358.73721 a 36.5,51.5 0 0 1 36.25092,-51.4988 36.5,51.5 0 0 1 36.74568,50.79593" />
    <path
       style="opacity:1;fill:#483737;fill-opacity:1;stroke:none;stroke-opacity:1"
       id="path6860-04"
       sodipodi:type="arc"
       sodipodi:cx="380.25085"
       sodipodi:cy="420.48721"
       sodipodi:rx="36.5"
       sodipodi:ry="51.5"
       sodipodi:start="3.1415927"
       sodipodi:end="6.2695368"
       sodipodi:open="true"
       d="m 343.75085,420.48721 a 36.5,51.5 0 0 1 36.25092,-51.4988 36.5,51.5 0 0 1 36.74568,50.79593" />
    <path
       style="opacity:1;fill:#483737;fill-opacity:1;stroke:none;stroke-opacity:1"
       id="path6860-3-0"
       sodipodi:type="arc"
       sodipodi:cx="296.75256"
       sodipodi:cy="424.73721"
       sodipodi:rx="36.5"
       sodipodi:ry="51.5"
       sodipodi:start="3.1415927"
       sodipodi:end="6.2695368"
       sodipodi:open="true"
       d="m 260.25256,424.73721 a 36.5,51.5 0 0 1 36.25092,-51.4988 36.5,51.5 0 0 1 36.74568,50.79593" />
    <path
       style="opacity:1;fill:#483737;fill-opacity:1;stroke:none;stroke-opacity:1"
       id="path6860-3-7"
       sodipodi:type="arc"
       sodipodi:cx="472.75256"
       sodipodi:cy="425.73721"
       sodipodi:rx="36.5"
       sodipodi:ry="51.5"
       sodipodi:start="3.1415927"
       sodipodi:end="6.2695368"
       sodipodi:open="true"
       d="m 436.25256,425.73721 a 36.5,51.5 0 0 1 36.25092,-51.4988 36.5,51.5 0 0 1 36.74568,50.79593" />
    <path
       style="opacity:1;fill:#483737;fill-opacity:1;stroke:none;stroke-opacity:1"
       id="path6860-6"
       sodipodi:type="arc"
       sodipodi:cx="392"
       sodipodi:cy="672.48718"
       sodipodi:rx="36.5"
       sodipodi:ry="51.5"
       sodipodi:start="3.1415927"
       sodipodi:end="6.2695368"
       sodipodi:open="true"
       d="m 355.5,672.48718 a 36.5,51.5 0 0 1 36.25092,-51.4988 36.5,51.5 0 0 1 36.74568,50.79593" />
    <path
       style="opacity:1;fill:#483737;fill-opacity:1;stroke:none;stroke-opacity:1"
       id="path6860-3-1"
       sodipodi:type="arc"
       sodipodi:cx="319.50171"
       sodipodi:cy="675.73718"
       sodipodi:rx="36.5"
       sodipodi:ry="51.5"
       sodipodi:start="3.1415927"
       sodipodi:end="6.2695368"
       sodipodi:open="true"
       d="m 283.00171,675.73718 a 36.5,51.5 0 0 1 36.25092,-51.4988 36.5,51.5 0 0 1 36.74568,50.79593" />
    <path
       style="opacity:1;fill:#483737;fill-opacity:1;stroke:none;stroke-opacity:1"
       id="path6860-0-1"
       sodipodi:type="arc"
       sodipodi:cx="461"
       sodipodi:cy="678.48724"
       sodipodi:rx="36.5"
       sodipodi:ry="51.5"
       sodipodi:start="3.1415927"
       sodipodi:end="6.2695368"
       sodipodi:open="true"
       d="m 424.5,678.48724 a 36.5,51.5 0 0 1 36.25092,-51.4988 36.5,51.5 0 0 1 36.74568,50.79593" />
    <path
       style="opacity:1;fill:#483737;fill-opacity:1;stroke:none;stroke-opacity:1"
       id="path6860-3-5-7"
       sodipodi:type="arc"
       sodipodi:cx="304.50171"
       sodipodi:cy="733.73724"
       sodipodi:rx="36.5"
       sodipodi:ry="51.5"
       sodipodi:start="3.1415927"
       sodipodi:end="6.2695368"
       sodipodi:open="true"
       d="m 268.00171,733.73724 a 36.5,51.5 0 0 1 36.25092,-51.4988 36.5,51.5 0 0 1 36.74568,50.79593" />
    <path
       style="opacity:1;fill:#483737;fill-opacity:1;stroke:none;stroke-opacity:1"
       id="path6860-9-4"
       sodipodi:type="arc"
       sodipodi:cx="471"
       sodipodi:cy="738.48724"
       sodipodi:rx="36.5"
       sodipodi:ry="51.5"
       sodipodi:start="3.1415927"
       sodipodi:end="6.2695368"
       sodipodi:open="true"
       d="m 434.5,738.48724 a 36.5,51.5 0 0 1 36.25092,-51.4988 36.5,51.5 0 0 1 36.74568,50.79593" />
    <path
       style="opacity:1;fill:#483737;fill-opacity:1;stroke:none;stroke-opacity:1"
       id="path6860-3-4-9"
       sodipodi:type="arc"
       sodipodi:cx="390.50171"
       sodipodi:cy="734.73724"
       sodipodi:rx="36.5"
       sodipodi:ry="51.5"
       sodipodi:start="3.1415927"
       sodipodi:end="6.2695368"
       sodipodi:open="true"
       d="m 354.00171,734.73724 a 36.5,51.5 0 0 1 36.25092,-51.4988 36.5,51.5 0 0 1 36.74568,50.79593" />
    <path
       style="opacity:1;fill:#483737;fill-opacity:1;stroke:none;stroke-opacity:1"
       id="path6860-04-2"
       sodipodi:type="arc"
       sodipodi:cx="391"
       sodipodi:cy="796.48724"
       sodipodi:rx="36.5"
       sodipodi:ry="51.5"
       sodipodi:start="3.1415927"
       sodipodi:end="6.2695368"
       sodipodi:open="true"
       d="m 354.5,796.48724 a 36.5,51.5 0 0 1 36.25092,-51.4988 36.5,51.5 0 0 1 36.74568,50.79593" />
    <path
       style="opacity:1;fill:#483737;fill-opacity:1;stroke:none;stroke-opacity:1"
       id="path6860-3-0-5"
       sodipodi:type="arc"
       sodipodi:cx="307.50171"
       sodipodi:cy="800.73724"
       sodipodi:rx="36.5"
       sodipodi:ry="51.5"
       sodipodi:start="3.1415927"
       sodipodi:end="6.2695368"
       sodipodi:open="true"
       d="m 271.00171,800.73724 a 36.5,51.5 0 0 1 36.25092,-51.4988 36.5,51.5 0 0 1 36.74568,50.79593" />
    <path
       style="opacity:1;fill:#483737;fill-opacity:1;stroke:none;stroke-opacity:1"
       id="path6860-3-7-0"
       sodipodi:type="arc"
       sodipodi:cx="483.50171"
       sodipodi:cy="801.73724"
       sodipodi:rx="36.5"
       sodipodi:ry="51.5"
       sodipodi:start="3.1415927"
       sodipodi:end="6.2695368"
       sodipodi:open="true"
       d="m 447.00171,801.73724 a 36.5,51.5 0 0 1 36.25092,-51.4988 36.5,51.5 0 0 1 36.74568,50.79593" />
    <path
       style="opacity:1;fill:#483737;fill-opacity:1;stroke:none;stroke-opacity:1"
       id="path6860-65"
       sodipodi:type="arc"
       sodipodi:cx="390"
       sodipodi:cy="868.48718"
       sodipodi:rx="36.5"
       sodipodi:ry="51.5"
       sodipodi:start="3.1415927"
       sodipodi:end="6.2695368"
       sodipodi:open="true"
       d="m 353.5,868.48718 a 36.5,51.5 0 0 1 36.25092,-51.4988 36.5,51.5 0 0 1 36.74568,50.79593" />
    <path
       style="opacity:1;fill:#483737;fill-opacity:1;stroke:none;stroke-opacity:1"
       id="path6860-3-43"
       sodipodi:type="arc"
       sodipodi:cx="317.50171"
       sodipodi:cy="871.73718"
       sodipodi:rx="36.5"
       sodipodi:ry="51.5"
       sodipodi:start="3.1415927"
       sodipodi:end="6.2695368"
       sodipodi:open="true"
       d="m 281.00171,871.73718 a 36.5,51.5 0 0 1 36.25092,-51.4988 36.5,51.5 0 0 1 36.74568,50.79593" />
    <path
       style="opacity:1;fill:#483737;fill-opacity:1;stroke:none;stroke-opacity:1"
       id="path6860-0-3"
       sodipodi:type="arc"
       sodipodi:cx="459"
       sodipodi:cy="874.48724"
       sodipodi:rx="36.5"
       sodipodi:ry="51.5"
       sodipodi:start="3.1415927"
       sodipodi:end="6.2695368"
       sodipodi:open="true"
       d="m 422.5,874.48724 a 36.5,51.5 0 0 1 36.25092,-51.4988 36.5,51.5 0 0 1 36.74568,50.79593" />
    <path
       style="opacity:1;fill:#483737;fill-opacity:1;stroke:none;stroke-opacity:1"
       id="path6860-3-5-6"
       sodipodi:type="arc"
       sodipodi:cx="302.50171"
       sodipodi:cy="929.73724"
       sodipodi:rx="36.5"
       sodipodi:ry="51.5"
       sodipodi:start="3.1415927"
       sodipodi:end="6.2695368"
       sodipodi:open="true"
       d="m 266.00171,929.73724 a 36.5,51.5 0 0 1 36.25092,-51.4988 36.5,51.5 0 0 1 36.74568,50.79593" />
    <path
       style="opacity:1;fill:#483737;fill-opacity:1;stroke:none;stroke-opacity:1"
       id="path6860-9-9"
       sodipodi:type="arc"
       sodipodi:cx="469"
       sodipodi:cy="934.48724"
       sodipodi:rx="36.5"
       sodipodi:ry="51.5"
       sodipodi:start="3.1415927"
       sodipodi:end="6.2695368"
       sodipodi:open="true"
       d="m 432.5,934.48724 a 36.5,51.5 0 0 1 36.25092,-51.4988 36.5,51.5 0 0 1 36.74568,50.79593" />
    <path
       style="opacity:1;fill:#483737;fill-opacity:1;stroke:none;stroke-opacity:1"
       id="path6860-3-4-4"
       sodipodi:type="arc"
       sodipodi:cx="388.50171"
       sodipodi:cy="930.73724"
       sodipodi:rx="36.5"
       sodipodi:ry="51.5"
       sodipodi:start="3.1415927"
       sodipodi:end="6.2695368"
       sodipodi:open="true"
       d="m 352.00171,930.73724 a 36.5,51.5 0 0 1 36.25092,-51.4988 36.5,51.5 0 0 1 36.74568,50.79593" />
    <path
       style="opacity:1;fill:#483737;fill-opacity:1;stroke:none;stroke-opacity:1"
       id="path6860-04-9"
       sodipodi:type="arc"
       sodipodi:cx="389"
       sodipodi:cy="992.48724"
       sodipodi:rx="36.5"
       sodipodi:ry="51.5"
       sodipodi:start="3.1415927"
       sodipodi:end="6.2695368"
       sodipodi:open="true"
       d="m 352.5,992.48724 a 36.5,51.5 0 0 1 36.25092,-51.4988 36.5,51.5 0 0 1 36.74568,50.79593" />
    <path
       style="opacity:1;fill:#483737;fill-opacity:1;stroke:none;stroke-opacity:1"
       id="path6860-3-0-50"
       sodipodi:type="arc"
       sodipodi:cx="305.50171"
       sodipodi:cy="996.73724"
       sodipodi:rx="36.5"
       sodipodi:ry="51.5"
       sodipodi:start="3.1415927"
       sodipodi:end="6.2695368"
       sodipodi:open="true"
       d="m 269.00171,996.73724 a 36.5,51.5 0 0 1 36.25092,-51.4988 36.5,51.5 0 0 1 36.74568,50.79593" />
    <path
       style="opacity:1;fill:#483737;fill-opacity:1;stroke:none;stroke-opacity:1"
       id="path6860-3-7-7"
       sodipodi:type="arc"
       sodipodi:cx="471.50171"
       sodipodi:cy="995.73724"
       sodipodi:rx="36.5"
       sodipodi:ry="51.5"
       sodipodi:start="3.1415927"
       sodipodi:end="6.2695368"
       sodipodi:open="true"
       d="m 435.00171,995.73724 a 36.5,51.5 0 0 1 36.25092,-51.4988 36.5,51.5 0 0 1 36.74568,50.79593" />
    <path
       style="opacity:1;fill:#916f6f;fill-opacity:1;stroke:none;stroke-opacity:1"
       id="path6860-8"
       sodipodi:type="arc"
       sodipodi:cx="384.62543"
       sodipodi:cy="302.48718"
       sodipodi:rx="36.5"
       sodipodi:ry="51.5"
       sodipodi:start="3.1415927"
       sodipodi:end="6.2695368"
       sodipodi:open="true"
       d="m 348.12543,302.48718 a 36.5,51.5 0 0 1 36.25091,-51.4988 36.5,51.5 0 0 1 36.74569,50.79593" />
    <path
       style="opacity:1;fill:#916f6f;fill-opacity:1;stroke:none;stroke-opacity:1"
       id="path6860-3-11"
       sodipodi:type="arc"
       sodipodi:cx="312.12714"
       sodipodi:cy="305.73718"
       sodipodi:rx="36.5"
       sodipodi:ry="51.5"
       sodipodi:start="3.1415927"
       sodipodi:end="6.2695368"
       sodipodi:open="true"
       d="m 275.62714,305.73718 a 36.5,51.5 0 0 1 36.25091,-51.4988 36.5,51.5 0 0 1 36.74569,50.79593" />
    <path
       style="opacity:1;fill:#916f6f;fill-opacity:1;stroke:none;stroke-opacity:1"
       id="path6860-0-6"
       sodipodi:type="arc"
       sodipodi:cx="466.62543"
       sodipodi:cy="308.48718"
       sodipodi:rx="36.5"
       sodipodi:ry="51.5"
       sodipodi:start="3.1415927"
       sodipodi:end="6.2695368"
       sodipodi:open="true"
       d="m 430.12543,308.48718 a 36.5,51.5 0 0 1 36.25091,-51.4988 36.5,51.5 0 0 1 36.74569,50.79593" />
    <path
       style="opacity:1;fill:#916f6f;fill-opacity:1;stroke:none;stroke-opacity:1"
       id="path6860-3-5-62"
       sodipodi:type="arc"
       sodipodi:cx="307.12714"
       sodipodi:cy="366.73718"
       sodipodi:rx="36.5"
       sodipodi:ry="51.5"
       sodipodi:start="3.1415927"
       sodipodi:end="6.2695368"
       sodipodi:open="true"
       d="m 270.62714,366.73718 a 36.5,51.5 0 0 1 36.25091,-51.4988 36.5,51.5 0 0 1 36.74569,50.79593" />
    <path
       style="opacity:1;fill:#6c5353;fill-opacity:1;stroke:none;stroke-opacity:1"
       id="path6860-9-94"
       sodipodi:type="arc"
       sodipodi:cx="463.62543"
       sodipodi:cy="368.48718"
       sodipodi:rx="36.5"
       sodipodi:ry="51.5"
       sodipodi:start="3.1415927"
       sodipodi:end="6.2695368"
       sodipodi:open="true"
       d="m 427.12543,368.48718 a 36.5,51.5 0 0 1 36.25091,-51.4988 36.5,51.5 0 0 1 36.74569,50.79593" />
    <path
       style="opacity:1;fill:#916f6f;fill-opacity:1;stroke:none;stroke-opacity:1"
       id="path6860-3-4-0"
       sodipodi:type="arc"
       sodipodi:cx="383.12714"
       sodipodi:cy="364.73718"
       sodipodi:rx="36.5"
       sodipodi:ry="51.5"
       sodipodi:start="3.1415927"
       sodipodi:end="6.2695368"
       sodipodi:open="true"
       d="m 346.62714,364.73718 a 36.5,51.5 0 0 1 36.25091,-51.4988 36.5,51.5 0 0 1 36.74569,50.79593" />
    <path
       style="opacity:1;fill:#916f6f;fill-opacity:1;stroke:none;stroke-opacity:1"
       id="path6860-04-1"
       sodipodi:type="arc"
       sodipodi:cx="383.62543"
       sodipodi:cy="426.48718"
       sodipodi:rx="36.5"
       sodipodi:ry="51.5"
       sodipodi:start="3.1415927"
       sodipodi:end="6.2695368"
       sodipodi:open="true"
       d="m 347.12543,426.48718 a 36.5,51.5 0 0 1 36.25091,-51.4988 36.5,51.5 0 0 1 36.74569,50.79593" />
    <path
       style="opacity:1;fill:#916f6f;fill-opacity:1;stroke:none;stroke-opacity:1"
       id="path6860-3-0-2"
       sodipodi:type="arc"
       sodipodi:cx="300.12714"
       sodipodi:cy="430.73718"
       sodipodi:rx="36.5"
       sodipodi:ry="51.5"
       sodipodi:start="3.1415927"
       sodipodi:end="6.2695368"
       sodipodi:open="true"
       d="m 263.62714,430.73718 a 36.5,51.5 0 0 1 36.25091,-51.4988 36.5,51.5 0 0 1 36.74569,50.79593" />
    <path
       style="opacity:1;fill:#916f6f;fill-opacity:1;stroke:none;stroke-opacity:1"
       id="path6860-3-7-9"
       sodipodi:type="arc"
       sodipodi:cx="476.12714"
       sodipodi:cy="431.73718"
       sodipodi:rx="36.5"
       sodipodi:ry="51.5"
       sodipodi:start="3.1415927"
       sodipodi:end="6.2695368"
       sodipodi:open="true"
       d="m 439.62714,431.73718 a 36.5,51.5 0 0 1 36.25091,-51.4988 36.5,51.5 0 0 1 36.74569,50.79593" />
    <path
       style="opacity:1;fill:#916f6f;fill-opacity:1;stroke:none;stroke-opacity:1"
       id="path6860-6-8"
       sodipodi:type="arc"
       sodipodi:cx="395.37457"
       sodipodi:cy="678.48718"
       sodipodi:rx="36.5"
       sodipodi:ry="51.5"
       sodipodi:start="3.1415927"
       sodipodi:end="6.2695368"
       sodipodi:open="true"
       d="m 358.87457,678.48718 a 36.5,51.5 0 0 1 36.25092,-51.4988 36.5,51.5 0 0 1 36.74568,50.79593" />
    <path
       style="opacity:1;fill:#6c5353;fill-opacity:1;stroke:none;stroke-opacity:1"
       id="path6860-3-1-6"
       sodipodi:type="arc"
       sodipodi:cx="322.87628"
       sodipodi:cy="681.73718"
       sodipodi:rx="36.5"
       sodipodi:ry="51.5"
       sodipodi:start="3.1415927"
       sodipodi:end="6.2695368"
       sodipodi:open="true"
       d="m 286.37628,681.73718 a 36.5,51.5 0 0 1 36.25092,-51.4988 36.5,51.5 0 0 1 36.74568,50.79593" />
    <path
       style="opacity:1;fill:#6c5353;fill-opacity:1;stroke:none;stroke-opacity:1"
       id="path6860-0-1-0"
       sodipodi:type="arc"
       sodipodi:cx="464.37457"
       sodipodi:cy="684.48718"
       sodipodi:rx="36.5"
       sodipodi:ry="51.5"
       sodipodi:start="3.1415927"
       sodipodi:end="6.2695368"
       sodipodi:open="true"
       d="m 427.87457,684.48718 a 36.5,51.5 0 0 1 36.25092,-51.4988 36.5,51.5 0 0 1 36.74568,50.79593" />
    <path
       style="opacity:1;fill:#916f6f;fill-opacity:1;stroke:none;stroke-opacity:1"
       id="path6860-3-5-7-2"
       sodipodi:type="arc"
       sodipodi:cx="307.87628"
       sodipodi:cy="739.73718"
       sodipodi:rx="36.5"
       sodipodi:ry="51.5"
       sodipodi:start="3.1415927"
       sodipodi:end="6.2695368"
       sodipodi:open="true"
       d="m 271.37628,739.73718 a 36.5,51.5 0 0 1 36.25092,-51.4988 36.5,51.5 0 0 1 36.74568,50.79593" />
    <path
       style="opacity:1;fill:#916f6f;fill-opacity:1;stroke:none;stroke-opacity:1"
       id="path6860-9-4-7"
       sodipodi:type="arc"
       sodipodi:cx="474.37457"
       sodipodi:cy="744.48718"
       sodipodi:rx="36.5"
       sodipodi:ry="51.5"
       sodipodi:start="3.1415927"
       sodipodi:end="6.2695368"
       sodipodi:open="true"
       d="m 437.87457,744.48718 a 36.5,51.5 0 0 1 36.25092,-51.4988 36.5,51.5 0 0 1 36.74568,50.79593" />
    <path
       style="opacity:1;fill:#916f6f;fill-opacity:1;stroke:none;stroke-opacity:1"
       id="path6860-3-4-9-0"
       sodipodi:type="arc"
       sodipodi:cx="393.87628"
       sodipodi:cy="740.73718"
       sodipodi:rx="36.5"
       sodipodi:ry="51.5"
       sodipodi:start="3.1415927"
       sodipodi:end="6.2695368"
       sodipodi:open="true"
       d="m 357.37628,740.73718 a 36.5,51.5 0 0 1 36.25092,-51.4988 36.5,51.5 0 0 1 36.74568,50.79593" />
    <path
       style="opacity:1;fill:#916f6f;fill-opacity:1;stroke:none;stroke-opacity:1"
       id="path6860-04-2-4"
       sodipodi:type="arc"
       sodipodi:cx="394.37457"
       sodipodi:cy="802.48718"
       sodipodi:rx="36.5"
       sodipodi:ry="51.5"
       sodipodi:start="3.1415927"
       sodipodi:end="6.2695368"
       sodipodi:open="true"
       d="m 357.87457,802.48718 a 36.5,51.5 0 0 1 36.25092,-51.4988 36.5,51.5 0 0 1 36.74568,50.79593" />
    <path
       style="opacity:1;fill:#916f6f;fill-opacity:1;stroke:none;stroke-opacity:1"
       id="path6860-3-0-5-1"
       sodipodi:type="arc"
       sodipodi:cx="310.87628"
       sodipodi:cy="806.73718"
       sodipodi:rx="36.5"
       sodipodi:ry="51.5"
       sodipodi:start="3.1415927"
       sodipodi:end="6.2695368"
       sodipodi:open="true"
       d="m 274.37628,806.73718 a 36.5,51.5 0 0 1 36.25092,-51.4988 36.5,51.5 0 0 1 36.74568,50.79593" />
    <path
       style="opacity:1;fill:#916f6f;fill-opacity:1;stroke:none;stroke-opacity:1"
       id="path6860-3-7-0-3"
       sodipodi:type="arc"
       sodipodi:cx="486.87628"
       sodipodi:cy="807.73718"
       sodipodi:rx="36.5"
       sodipodi:ry="51.5"
       sodipodi:start="3.1415927"
       sodipodi:end="6.2695368"
       sodipodi:open="true"
       d="m 450.37628,807.73718 a 36.5,51.5 0 0 1 36.25092,-51.4988 36.5,51.5 0 0 1 36.74568,50.79593" />
    <path
       style="opacity:1;fill:#916f6f;fill-opacity:1;stroke:none;stroke-opacity:1"
       id="path6860-65-3"
       sodipodi:type="arc"
       sodipodi:cx="393.37457"
       sodipodi:cy="874.48718"
       sodipodi:rx="36.5"
       sodipodi:ry="51.5"
       sodipodi:start="3.1415927"
       sodipodi:end="6.2695368"
       sodipodi:open="true"
       d="m 356.87457,874.48718 a 36.5,51.5 0 0 1 36.25092,-51.4988 36.5,51.5 0 0 1 36.74568,50.79593" />
    <path
       style="opacity:1;fill:#6c5353;fill-opacity:1;stroke:none;stroke-opacity:1"
       id="path6860-3-43-7"
       sodipodi:type="arc"
       sodipodi:cx="320.87628"
       sodipodi:cy="877.73718"
       sodipodi:rx="36.5"
       sodipodi:ry="51.5"
       sodipodi:start="3.1415927"
       sodipodi:end="6.2695368"
       sodipodi:open="true"
       d="m 284.37628,877.73718 a 36.5,51.5 0 0 1 36.25092,-51.4988 36.5,51.5 0 0 1 36.74568,50.79593" />
    <path
       style="opacity:1;fill:#916f6f;fill-opacity:1;stroke:none;stroke-opacity:1"
       id="path6860-0-3-4"
       sodipodi:type="arc"
       sodipodi:cx="462.37457"
       sodipodi:cy="880.48718"
       sodipodi:rx="36.5"
       sodipodi:ry="51.5"
       sodipodi:start="3.1415927"
       sodipodi:end="6.2695368"
       sodipodi:open="true"
       d="m 425.87457,880.48718 a 36.5,51.5 0 0 1 36.25092,-51.4988 36.5,51.5 0 0 1 36.74568,50.79593" />
    <path
       style="opacity:1;fill:#916f6f;fill-opacity:1;stroke:none;stroke-opacity:1"
       id="path6860-3-5-6-5"
       sodipodi:type="arc"
       sodipodi:cx="305.87628"
       sodipodi:cy="935.73718"
       sodipodi:rx="36.5"
       sodipodi:ry="51.5"
       sodipodi:start="3.1415927"
       sodipodi:end="6.2695368"
       sodipodi:open="true"
       d="m 269.37628,935.73718 a 36.5,51.5 0 0 1 36.25092,-51.4988 36.5,51.5 0 0 1 36.74568,50.79593" />
    <path
       style="opacity:1;fill:#916f6f;fill-opacity:1;stroke:none;stroke-opacity:1"
       id="path6860-9-9-6"
       sodipodi:type="arc"
       sodipodi:cx="472.37457"
       sodipodi:cy="940.48718"
       sodipodi:rx="36.5"
       sodipodi:ry="51.5"
       sodipodi:start="3.1415927"
       sodipodi:end="6.2695368"
       sodipodi:open="true"
       d="m 435.87457,940.48718 a 36.5,51.5 0 0 1 36.25092,-51.4988 36.5,51.5 0 0 1 36.74568,50.79593" />
    <path
       style="opacity:1;fill:#916f6f;fill-opacity:1;stroke:none;stroke-opacity:1"
       id="path6860-3-4-4-6"
       sodipodi:type="arc"
       sodipodi:cx="391.87628"
       sodipodi:cy="936.73718"
       sodipodi:rx="36.5"
       sodipodi:ry="51.5"
       sodipodi:start="3.1415927"
       sodipodi:end="6.2695368"
       sodipodi:open="true"
       d="m 355.37628,936.73718 a 36.5,51.5 0 0 1 36.25092,-51.4988 36.5,51.5 0 0 1 36.74568,50.79593" />
    <path
       style="opacity:1;fill:#916f6f;fill-opacity:1;stroke:none;stroke-opacity:1"
       id="path6860-04-9-3"
       sodipodi:type="arc"
       sodipodi:cx="392.37457"
       sodipodi:cy="998.48718"
       sodipodi:rx="36.5"
       sodipodi:ry="51.5"
       sodipodi:start="3.1415927"
       sodipodi:end="6.2695368"
       sodipodi:open="true"
       d="m 355.87457,998.48718 a 36.5,51.5 0 0 1 36.25092,-51.4988 36.5,51.5 0 0 1 36.74568,50.79593" />
    <path
       style="opacity:1;fill:#916f6f;fill-opacity:1;stroke:none;stroke-opacity:1"
       id="path6860-3-0-50-7"
       sodipodi:type="arc"
       sodipodi:cx="308.87628"
       sodipodi:cy="1002.7372"
       sodipodi:rx="36.5"
       sodipodi:ry="51.5"
       sodipodi:start="3.1415927"
       sodipodi:end="6.2695368"
       sodipodi:open="true"
       d="m 272.37628,1002.7372 a 36.5,51.5 0 0 1 36.25092,-51.49882 36.5,51.5 0 0 1 36.74568,50.79592" />
    <path
       style="opacity:1;fill:#916f6f;fill-opacity:1;stroke:none;stroke-opacity:1"
       id="path6860-3-7-7-0"
       sodipodi:type="arc"
       sodipodi:cx="474.87628"
       sodipodi:cy="1001.7372"
       sodipodi:rx="36.5"
       sodipodi:ry="51.5"
       sodipodi:start="3.1415927"
       sodipodi:end="6.2695368"
       sodipodi:open="true"
       d="m 438.37628,1001.7372 a 36.5,51.5 0 0 1 36.25092,-51.49882 36.5,51.5 0 0 1 36.74568,50.79592" />
  </g>
  <g
     inkscape:groupmode="layer"
     id="layer4"
     inkscape:label="window"
     sodipodi:insensitive="true">
    <path
       style="opacity:1;fill:#483737;fill-opacity:1;stroke:none;stroke-opacity:1"
       id="path7132"
       sodipodi:type="arc"
       sodipodi:cx="392.00122"
       sodipodi:cy="619.36218"
       sodipodi:rx="118.00124"
       sodipodi:ry="179"
       sodipodi:start="3.1415927"
       sodipodi:end="6.2695368"
       sodipodi:open="true"
       d="M 273.99998,619.36217 A 118.00124,179 0 0 1 391.19596,440.36635 118.00124,179 0 0 1 509.99147,616.91918" />
    <rect
       style="opacity:1;fill:#916f6f;fill-opacity:1;stroke:none;stroke-opacity:1"
       id="rect7134"
       width="232"
       height="21"
       x="276"
       y="591.36218"
       rx="21.9359"
       ry="21" />
  </g>
</svg>
