<?xml version="1.0" encoding="UTF-8" standalone="no"?>
<!-- Created with Inkscape (http://www.inkscape.org/) -->

<svg
   xmlns:osb="http://www.openswatchbook.org/uri/2009/osb"
   xmlns:dc="http://purl.org/dc/elements/1.1/"
   xmlns:cc="http://creativecommons.org/ns#"
   xmlns:rdf="http://www.w3.org/1999/02/22-rdf-syntax-ns#"
   xmlns:svg="http://www.w3.org/2000/svg"
   xmlns="http://www.w3.org/2000/svg"
   xmlns:sodipodi="http://sodipodi.sourceforge.net/DTD/sodipodi-0.dtd"
   xmlns:inkscape="http://www.inkscape.org/namespaces/inkscape"
   width="744.09448819"
   height="1052.3622047"
   id="svg2"
   version="1.1"
   inkscape:version="0.48.5 r10040"
   sodipodi:docname="reddragonwithpogo.svg">
  <defs
     id="defs4">
    <linearGradient
       id="linearGradient4148"
       osb:paint="solid">
      <stop
         style="stop-color:#004800;stop-opacity:1;"
         offset="0"
         id="stop4150" />
    </linearGradient>
  </defs>
  <sodipodi:namedview
     id="base"
     pagecolor="#ffffff"
     bordercolor="#666666"
     borderopacity="1.0"
     inkscape:pageopacity="0.0"
     inkscape:pageshadow="2"
     inkscape:zoom="1"
     inkscape:cx="171.33246"
     inkscape:cy="698.37125"
     inkscape:document-units="px"
     inkscape:current-layer="layer2"
     showgrid="false"
     inkscape:window-width="1920"
     inkscape:window-height="1017"
     inkscape:window-x="-8"
     inkscape:window-y="-8"
     inkscape:window-maximized="1" />
  <metadata
     id="metadata7">
    <rdf:RDF>
      <cc:Work
         rdf:about="">
        <dc:format>image/svg+xml</dc:format>
        <dc:type
           rdf:resource="http://purl.org/dc/dcmitype/StillImage" />
        <dc:title></dc:title>
      </cc:Work>
    </rdf:RDF>
  </metadata>
  <g
     inkscape:groupmode="layer"
     id="layer3"
     inkscape:label="background"
     style="display:inline"
     sodipodi:insensitive="true">
    <rect
       style="opacity:0.18000004;fill:#00fff0;fill-opacity:0.95767194"
       id="rect2993"
       width="942.85718"
       height="1148.5714"
       x="-88.571426"
       y="-67.637817" />
  </g>
  <g
     inkscape:groupmode="layer"
     id="layer1"
     inkscape:label="pogo">
    <rect
       style="fill:#999999;fill-opacity:1;stroke:none"
       id="rect8463"
       width="18.053631"
       height="188.45563"
       x="365.30661"
       y="442.45016"
       ry="15.363229"
       transform="matrix(0.99935136,-0.03601206,-0.01498249,0.99988776,0,0)" />
    <rect
       style="fill:#000000;fill-opacity:1;stroke:none"
       id="rect8463-4"
       width="23.018709"
       height="64.981529"
       x="354.34146"
       y="602.92596"
       ry="5.2974072"
       transform="matrix(0.99987599,-0.01574787,-0.00113227,0.99999936,0,0)" />
    <rect
       style="fill:#1a1a1a;fill-opacity:1;stroke:none"
       id="rect8414"
       width="199.90714"
       height="13.577478"
       x="289.08673"
       y="323.93954"
       ry="6.2505021"
       transform="matrix(0.99967129,0.02563821,-0.03029589,0.99954097,0,0)" />
    <rect
       style="fill:#1a1a1a;fill-opacity:1;stroke:none"
       id="rect8441"
       width="33.953239"
       height="204.94142"
       x="348.93274"
       y="305.74615"
       ry="6.3145251"
       transform="matrix(0.99896539,0.04547688,-0.00618225,0.99998089,0,0)" />
    <rect
       style="fill:#1a1a1a;fill-opacity:1;stroke:none"
       id="rect8414-8"
       width="174.79861"
       height="18.08922"
       x="297.06839"
       y="504.7381"
       ry="8.3275185"
       transform="matrix(0.99991395,0.01311866,-0.04072351,0.99917045,0,0)" />
    <rect
       style="fill:#4d4d4d;fill-opacity:1;stroke:none"
       id="rect8414-7"
       width="199.90714"
       height="13.577478"
       x="294.14276"
       y="325.33719"
       ry="6.2505021"
       transform="matrix(0.99967129,0.02563821,-0.03029589,0.99954097,0,0)" />
    <rect
       style="fill:#4d4d4d;fill-opacity:1;stroke:none"
       id="rect8441-8"
       width="33.953239"
       height="204.94142"
       x="355.42377"
       y="307.14709"
       ry="6.3145251"
       transform="matrix(0.99896539,0.04547688,-0.00618225,0.99998089,0,0)" />
    <rect
       style="fill:#4d4d4d;fill-opacity:1;stroke:none"
       id="rect8414-8-8"
       width="174.79861"
       height="18.08922"
       x="302.98605"
       y="506.60025"
       ry="8.3275185"
       transform="matrix(0.99991395,0.01311866,-0.04072351,0.99917045,0,0)" />
    <rect
       style="fill:#000000;fill-opacity:1;stroke:none"
       id="rect8392-1"
       width="73.895645"
       height="23.960257"
       x="446.60306"
       y="318.34879"
       ry="6.2505021"
       transform="matrix(0.99967129,0.02563821,-0.03029589,0.99954097,0,0)" />
    <rect
       style="fill:#000000;fill-opacity:1;stroke:none"
       id="rect8392-1-2"
       width="73.895645"
       height="23.960257"
       x="240.47124"
       y="319.14749"
       ry="6.2505021"
       transform="matrix(0.99967129,0.02563821,-0.03029589,0.99954097,0,0)" />
  </g>
  <g
     inkscape:groupmode="layer"
     id="layer17"
     inkscape:label="NEW wing1"
     sodipodi:insensitive="true">
    <path
       sodipodi:type="star"
       style="fill:#800000;fill-opacity:1"
       id="path4362"
       sodipodi:sides="5"
       sodipodi:cx="93.338097"
       sodipodi:cy="394.04578"
       sodipodi:r1="107.52906"
       sodipodi:r2="88.344704"
       sodipodi:arg1="0.16514868"
       sodipodi:arg2="0.567871"
       inkscape:flatsided="false"
       inkscape:rounded="0"
       inkscape:randomized="0"
       d="m 199.40411,411.72345 -31.58719,29.8375 -58.51509,58.8223 L 71.1637,479.56234 -2.8617825,442.08828 5.1547453,399.38274 17.919564,317.4002 l 43.092621,-5.57256 81.914575,-13.19394 18.61618,39.26151 z"
       inkscape:transform-center-x="5.2124393"
       inkscape:transform-center-y="2.0481572"
       transform="matrix(0.47446915,-0.58315181,0.59897111,0.48734019,-155.69351,250.96869)" />
    <path
       sodipodi:type="star"
       style="fill:#b90400;fill-opacity:1"
       id="path4362-3"
       sodipodi:sides="5"
       sodipodi:cx="93.338097"
       sodipodi:cy="394.04578"
       sodipodi:r1="107.52906"
       sodipodi:r2="88.344704"
       sodipodi:arg1="0.16514868"
       sodipodi:arg2="0.567871"
       inkscape:flatsided="false"
       inkscape:rounded="0"
       inkscape:randomized="0"
       d="m 199.40411,411.72345 -31.58719,29.8375 -58.51509,58.8223 L 71.1637,479.56234 -2.8617825,442.08828 5.1547453,399.38274 17.919564,317.4002 l 43.092621,-5.57256 81.914575,-13.19394 18.61618,39.26151 z"
       inkscape:transform-center-x="5.2073829"
       inkscape:transform-center-y="2.15129"
       transform="matrix(0.4634374,-0.56959312,0.57722168,0.46964422,-140.51113,256.52758)" />
  </g>
  <g
     inkscape:groupmode="layer"
     id="layer19"
     inkscape:label="NEW tail"
     sodipodi:insensitive="true">
    <path
       style="fill:#800000;fill-opacity:1;stroke:#b90400;stroke-width:1.07623172px;stroke-linecap:butt;stroke-linejoin:miter;stroke-opacity:1;display:inline"
       d="m 214.86288,443.63126 c -23.3981,87.46817 -137.438514,38.80533 -137.438514,38.80533 0,0 86.085524,-10.59826 107.462674,-47.97949 32.60383,-11.51028 29.97584,9.17416 29.97584,9.17416 z"
       id="path4779-3"
       inkscape:connector-curvature="0" />
    <path
       style="fill:#b90400;fill-opacity:1;stroke:#b90400;stroke-width:0.89465052px;stroke-linecap:butt;stroke-linejoin:miter;stroke-opacity:1;display:inline"
       d="m 205.36958,450.87207 c -18.36786,72.17409 -114.130123,30.35121 -114.130123,30.35121 0,0 71.666203,-7.65165 89.006253,-38.3472 27.04423,-9.10986 25.12387,7.99599 25.12387,7.99599 z"
       id="path4779-2-0"
       inkscape:connector-curvature="0" />
  </g>
  <g
     inkscape:groupmode="layer"
     id="layer16"
     inkscape:label="NEW body"
     style="display:inline"
     sodipodi:insensitive="true">
    <ellipse
       style="fill:#800000;fill-opacity:1"
       id="path4291"
       cx="258.09399"
       cy="465.81711"
       rx="140.71425"
       ry="114.19773"
       sodipodi:cx="258.09399"
       sodipodi:cy="465.81711"
       sodipodi:rx="140.71425"
       sodipodi:ry="114.19773"
       transform="matrix(0.63111993,-0.77568527,0.77568527,0.63111993,-255.44233,239.99844)" />
    <ellipse
       style="fill:#b90400;fill-opacity:1"
       id="path4291-9"
       cx="254.86623"
       cy="468.28967"
       rx="133.28963"
       ry="110.30864"
       sodipodi:cx="254.86623"
       sodipodi:cy="468.28967"
       sodipodi:rx="133.28963"
       sodipodi:ry="110.30864"
       transform="matrix(0.63111993,-0.77568527,0.77568527,0.63111993,-255.44233,239.99844)" />
  </g>
  <g
     inkscape:groupmode="layer"
     id="layer18"
     inkscape:label="NEW wing2"
     sodipodi:insensitive="true">
    <path
       sodipodi:type="star"
       style="fill:#800000;fill-opacity:1"
       id="path4362-0"
       sodipodi:sides="5"
       sodipodi:cx="93.338097"
       sodipodi:cy="394.04578"
       sodipodi:r1="107.52906"
       sodipodi:r2="88.344704"
       sodipodi:arg1="0.16514868"
       sodipodi:arg2="0.567871"
       inkscape:flatsided="false"
       inkscape:rounded="0"
       inkscape:randomized="0"
       d="m 199.40411,411.72345 -31.58719,29.8375 -58.51509,58.8223 L 71.1637,479.56234 -2.8617825,442.08828 5.1547453,399.38274 17.919564,317.4002 l 43.092621,-5.57256 81.914575,-13.19394 18.61618,39.26151 z"
       inkscape:transform-center-x="5.2124454"
       inkscape:transform-center-y="2.0481596"
       transform="matrix(0.47446915,-0.58315181,0.59897111,0.48734019,-147.60566,240.90195)" />
    <path
       sodipodi:type="star"
       style="fill:#b90400;fill-opacity:1"
       id="path4362-3-2"
       sodipodi:sides="5"
       sodipodi:cx="93.338097"
       sodipodi:cy="394.04578"
       sodipodi:r1="107.52906"
       sodipodi:r2="88.344704"
       sodipodi:arg1="0.16514868"
       sodipodi:arg2="0.567871"
       inkscape:flatsided="false"
       inkscape:rounded="0"
       inkscape:randomized="0"
       d="m 199.40411,411.72345 -31.58719,29.8375 -58.51509,58.8223 L 71.1637,479.56234 -2.8617825,442.08828 5.1547453,399.38274 17.919564,317.4002 l 43.092621,-5.57256 81.914575,-13.19394 18.61618,39.26151 z"
       inkscape:transform-center-x="5.0610589"
       inkscape:transform-center-y="2.1587921"
       transform="matrix(0.44358026,-0.54518747,0.5473162,0.44531226,-123.54932,253.79701)" />
  </g>
  <g
     inkscape:groupmode="layer"
     id="layer7"
     inkscape:label="NEW leg 3"
     style="display:inline"
     sodipodi:insensitive="true">
    <ellipse
       style="fill:#800000;fill-opacity:1"
       id="path4208"
       cx="181.72644"
       cy="529.81024"
       rx="75.660423"
       ry="73.539101"
       sodipodi:cx="181.72644"
       sodipodi:cy="529.81024"
       sodipodi:rx="75.660423"
       sodipodi:ry="73.539101"
       transform="matrix(0.99854588,0.05390857,-0.05390857,0.99854588,125.5236,-121.55383)" />
    <ellipse
       style="fill:#800000;fill-opacity:1"
       id="path4210"
       cx="211.42493"
       cy="595.57129"
       rx="53.740112"
       ry="37.476658"
       sodipodi:cx="211.42493"
       sodipodi:cy="595.57129"
       sodipodi:rx="53.740112"
       sodipodi:ry="37.476658"
       transform="matrix(0.99854588,0.05390857,-0.05390857,0.99854588,125.5236,-121.55383)" />
    <ellipse
       style="fill:#b90400;fill-opacity:1"
       id="path4208-2"
       cx="179.95868"
       cy="527.33551"
       rx="73.185547"
       ry="70.357117"
       sodipodi:cx="179.95868"
       sodipodi:cy="527.33551"
       sodipodi:rx="73.185547"
       sodipodi:ry="70.357117"
       transform="matrix(0.99854588,0.05390857,-0.05390857,0.99854588,125.5236,-121.55383)" />
    <ellipse
       style="fill:#b90400;fill-opacity:1"
       id="path4210-6"
       cx="209.3036"
       cy="595.9248"
       rx="48.790363"
       ry="31.466249"
       sodipodi:cx="209.3036"
       sodipodi:cy="595.9248"
       sodipodi:rx="48.790363"
       sodipodi:ry="31.466249"
       transform="matrix(0.99854588,0.05390857,-0.05390857,0.99854588,125.5236,-121.55383)" />
  </g>
  <g
     inkscape:groupmode="layer"
     id="layer2"
     inkscape:label="NEW leg 1"
     style="display:inline"
     sodipodi:insensitive="true">
    <ellipse
       style="fill:#800000;fill-opacity:1"
       id="path3399"
       cx="318.55161"
       cy="506.4758"
       rx="61.164734"
       ry="65.053818"
       sodipodi:cx="318.55161"
       sodipodi:cy="506.4758"
       sodipodi:rx="61.164734"
       sodipodi:ry="65.053818"
       transform="matrix(-0.111046,-0.99381527,0.99381527,-0.111046,-124.12072,662.26293)"
       inkscape:transform-center-x="-32.192707"
       inkscape:transform-center-y="-4.8242519" />
    <ellipse
       style="fill:#800000;fill-opacity:1"
       id="path3401"
       cx="306.53079"
       cy="554.9126"
       rx="51.26524"
       ry="61.871841"
       sodipodi:cx="306.53079"
       sodipodi:cy="554.9126"
       sodipodi:rx="51.26524"
       sodipodi:ry="61.871841"
       transform="matrix(-0.111046,-0.99381527,0.99381527,-0.111046,-124.12072,662.26293)"
       inkscape:transform-center-x="-81.6648"
       inkscape:transform-center-y="1.7435026" />
    <ellipse
       style="fill:#800000;fill-opacity:1"
       id="path3403"
       cx="334.46149"
       cy="597.33899"
       rx="53.033009"
       ry="37.123104"
       sodipodi:cx="334.46149"
       sodipodi:cy="597.33899"
       sodipodi:rx="53.033009"
       sodipodi:ry="37.123104"
       transform="matrix(-0.111046,-0.99381527,0.99381527,-0.111046,-124.12072,662.26293)"
       inkscape:transform-center-x="-120.72721"
       inkscape:transform-center-y="-30.72573" />
    <ellipse
       style="fill:#b90400;fill-opacity:1"
       id="path3399-9"
       cx="318.6575"
       cy="504.23141"
       rx="58.875145"
       ry="64.577232"
       sodipodi:cx="318.6575"
       sodipodi:cy="504.23141"
       sodipodi:rx="58.875145"
       sodipodi:ry="64.577232"
       transform="matrix(-0.111046,-0.99381527,0.99381527,-0.111046,-124.12072,662.26293)"
       inkscape:transform-center-x="-29.950444"
       inkscape:transform-center-y="-4.6802634" />
    <ellipse
       style="fill:#b90400;fill-opacity:1"
       id="path3401-5"
       cx="307.08667"
       cy="552.31335"
       rx="49.346218"
       ry="61.418568"
       sodipodi:cx="307.08667"
       sodipodi:cy="552.31335"
       sodipodi:rx="49.346218"
       sodipodi:ry="61.418568"
       transform="matrix(-0.111046,-0.99381527,0.99381527,-0.111046,-124.12072,662.26293)"
       inkscape:transform-center-x="-79.019905"
       inkscape:transform-center-y="1.4796988" />
    <ellipse
       style="fill:#b90400;fill-opacity:1"
       id="path3403-4"
       cx="328.31494"
       cy="595.8432"
       rx="51.047817"
       ry="36.851139"
       sodipodi:cx="328.31494"
       sodipodi:cy="595.8432"
       sodipodi:rx="51.047817"
       sodipodi:ry="36.851139"
       transform="matrix(-0.111046,-0.99381527,0.99381527,-0.111046,-124.12072,662.26293)"
       inkscape:transform-center-x="-119.92321"
       inkscape:transform-center-y="-24.451095" />
  </g>
  <g
     inkscape:groupmode="layer"
     id="layer13"
     inkscape:label="2ndear"
     style="display:inline"
     sodipodi:insensitive="true">
    <ellipse
       style="fill:#9b2d27;fill-opacity:0.56078384;stroke:none"
       id="path4937"
       transform="matrix(1.845072,-1.0066314,1.9266048,2.9556063,-766.89102,116.71771)"
       cx="296.78571"
       cy="122.36218"
       rx="14.642858"
       ry="15"
       sodipodi:cx="296.78571"
       sodipodi:cy="122.36218"
       sodipodi:rx="14.642858"
       sodipodi:ry="15" />
    <ellipse
       style="fill:#800000;fill-opacity:1;stroke:none;display:inline"
       id="path4937-5"
       transform="matrix(1.845072,-1.0066314,1.9266048,2.9556063,-761.10588,119.1287)"
       cx="296.78571"
       cy="122.36218"
       rx="14.642858"
       ry="15"
       sodipodi:cx="296.78571"
       sodipodi:cy="122.36218"
       sodipodi:rx="14.642858"
       sodipodi:ry="15" />
    <path
       style="fill:#800000;fill-opacity:1;display:inline"
       d="m 66.58546,102.81229 c -49.296046,60.58787 -41.606104,148.44656 17.14578,196.24879 58.75188,47.80222 146.3141,37.44345 195.61014,-23.14443 27.44229,-33.72825 37.16573,-75.88099 30.31016,-114.89281 -0.10924,0.0313 -0.18879,0.0433 -0.30322,0.0756 -0.93183,0.76836 -1.96933,1.51675 -2.63864,1.55953 -0.38198,0.0244 -0.76108,3e-4 -1.13234,0.005 -0.22077,0.17295 -0.45543,0.34642 -0.70219,0.51643 -0.36775,0.2861 -0.73054,0.56544 -1.11471,0.82538 -0.17667,0.11954 -0.37059,0.21551 -0.56865,0.30278 -0.008,0.005 -0.0115,0.019 -0.0197,0.0242 -1.75353,1.21404 -2.89168,2.05724 -4.79776,2.38116 -1.61781,0.98172 -1.96466,1.10496 -2.98868,1.39558 -1.41891,1.16358 -1.89249,1.0937 -3.90452,1.77847 -0.0818,0.0278 -0.16884,0.10579 -0.25474,0.11503 -0.17154,0.0184 -0.33574,0.0173 -0.50783,0.03 -0.14321,0.0844 -0.30433,0.17094 -0.39732,0.24075 -1.41083,1.05922 -3.04365,1.41775 -4.59271,1.78254 -0.0713,0.0208 -0.14402,0.046 -0.2153,0.0666 -0.41508,0.28181 -0.88419,0.55739 -1.37683,0.6524 -0.8379,0.16161 -1.51589,0.2427 -2.08145,0.28053 -0.21113,0.29911 -0.80081,0.31489 -1.17509,0.45396 -1.67308,0.62158 -2.88194,0.79393 -4.21468,0.9218 -0.007,0.002 -0.12001,0.0109 -0.13182,0.0135 -0.0408,-0.0136 -0.17682,-0.0432 -0.44866,-0.0427 -1.64653,0.92131 -0.7653,0.17338 -1.47545,0.77359 l -2.89085,0.186 c 0.10319,0.0109 0.26165,0.0213 0.3365,0.0321 0.0227,0.003 0.0213,0.0147 0.0242,0.0197 -0.0162,0.009 -0.0739,0.023 -0.10762,0.0332 0.16023,0.0116 0.59503,0.0486 0.44866,0.0427 -0.16734,-0.007 -0.34341,-0.0154 -0.51234,-0.014 -0.13121,0.0347 -0.30234,0.061 -0.39115,0.0846 -0.48721,0.12936 -0.96233,0.23119 -1.45242,0.34918 0.44458,-0.13309 0.95929,-0.28549 1.35546,-0.42807 -0.46195,0.003 -0.90495,-0.006 -1.34599,-0.12824 -0.55681,-0.15485 0.79032,-0.0696 1.60073,0.0132 0.0127,-0.006 0.0317,0.001 0.0439,-0.005 0.78073,-0.36022 0.16597,-0.60515 -5.99655,-0.20568 -0.55847,0.0362 0.51351,0.13396 1.39281,0.36778 0.62718,-0.074 1.36172,0.0365 1.02305,0.22807 -0.0791,0.0447 -0.17491,0.0427 -0.25926,0.0711 0.0245,0.016 0.0523,0.0422 0.0727,0.0591 0.29768,0.24736 -0.91951,0.24051 -1.3916,0.0764 -0.18184,-0.002 -0.35705,-0.009 -0.53207,0.0103 0.14673,-0.018 0.19629,-0.0166 0.43963,-0.0452 -0.0265,-0.0151 -0.0599,-0.0423 -0.0727,-0.0591 -1.26557,0.1362 -2.98929,0.32729 -3.96856,0.0747 -0.25772,-0.0665 -0.50803,-0.16701 -0.75927,-0.25518 -0.52744,0.15472 -1.42892,0.17393 -1.99022,-0.12869 -0.34057,-0.18363 0.22628,-0.14405 0.85501,-0.11007 -0.5967,-0.19961 -1.34736,-0.4869 -1.45936,-0.58308 l -2.39614,-0.62009 c 0.0504,0.0294 -0.0807,-4.5e-4 -0.20009,-0.002 0.59084,0.28126 1.21391,0.54637 1.71984,0.95616 0.26856,0.21752 -0.68065,-0.12852 -1.00332,-0.25231 -0.61383,-0.2355 -1.22492,-0.48635 -1.79421,-0.81523 -1.40536,-0.3019 -2.47429,-1.00302 -3.5276,-1.90328 -1.08099,-0.18264 -2.28218,-0.45549 -2.76425,-0.95989 -0.64084,-0.31741 -1.27953,-0.63949 -1.91993,-0.9578 -0.21842,-0.24669 -0.43499,-0.48541 -0.65283,-0.7326 -0.48191,-0.25472 -0.96501,-0.51983 -1.47292,-0.71497 -0.31567,-0.12126 1.17163,0.58893 0.83482,0.55844 -1.1342,-0.10278 -3.17522,-1.90114 -3.91666,-2.66298 -1.25867,-1.29331 -1.59348,-2.14457 -1.36396,-2.68094 -2.48684,-2.57353 -2.69034,-7.58318 1.91271,-12.94708 1.73581,-2.02265 2.99488,-4.37133 4.96103,-6.19644 0.61783,-0.44368 1.20873,-0.89945 1.84114,-1.32209 0.047,-0.0314 0.13531,-0.1045 0.20626,-0.15447 0.38615,-0.42961 0.87525,-0.84951 1.38179,-1.25267 0.42286,-0.9975 1.08683,-2.05037 2.01213,-3.11673 0.52755,-0.60799 0.25142,-0.27241 0.85255,-0.9984 1.20283,-1.63237 2.21676,-3.53562 4.20784,-4.2309 0.0186,-0.0215 0.0442,-0.0511 0.0591,-0.0727 1.09241,-1.55355 2.32603,-2.95312 3.97855,-3.65201 l 1.49891,-1.84225 c 0.89167,-1.09593 1.79051,-2.20082 2.68226,-3.29666 0.90307,-1.10963 1.79985,-2.21054 2.70198,-3.32091 0.9514,-1.16914 1.91467,-2.34057 2.85977,-3.51482 0.96329,-1.19663 1.89321,-2.40294 2.92341,-3.54361 0.64301,-0.74372 1.04839,-1.66561 1.68423,-2.41664 1.2986,-1.53394 1.36046,-1.41701 2.99243,-2.43999 0.0182,-0.008 0.0264,0.003 0.0439,-0.005 0.49456,-0.77523 0.5037,-0.77309 1.63696,-2.01194 0.0719,-0.0566 1.83852,-1.51774 2.17026,-1.57804 0.18668,-0.0339 -0.46194,0.55665 -0.28233,0.49546 0.31869,-0.10856 0.926,-1.32021 1.26224,-1.55137 l 1.06502,-1.30897 C 278.75621,94.996411 271.09826,86.871224 262.23932,79.663335 203.48743,31.861107 115.88126,42.224401 66.58521,102.81228 z m 205.08889,72.55447 -0.50783,0.03 c 0.12364,0.009 0.17496,0.0137 0.38046,0.0275 0.0493,-0.0194 0.0847,-0.0387 0.12737,-0.0575 z m -5.98619,-22.15364 c 0.0236,0.0205 0.0496,0.0378 0.0727,0.0591 0.0208,-0.01 0.043,-0.0191 0.0637,-0.0288 -0.0178,-0.0248 -0.0342,-0.0571 -0.053,-0.0833 -0.0183,0.0193 -0.0697,0.0362 -0.0833,0.053 z m -5.08249,22.09154 c 0.14785,0.064 0.19075,0.10622 0.28184,0.14875 0.045,0.002 0.0896,-0.0149 0.13182,-0.0135 -0.13745,-0.0501 -0.27534,-0.0882 -0.41373,-0.13519 z m 12.55933,-0.7797 c -0.0585,0.075 1.8212,0.14673 2.48901,0.0108 0.0788,-0.0161 0.19436,-0.0788 0.29871,-0.11955 -0.89917,0.009 -2.34874,0.0387 -2.63611,0.071 -0.0968,0.0109 -0.14323,0.0271 -0.15157,0.0378 z m 3.3806,-0.39182 c 0.60886,-0.32086 1.17151,-0.67793 0.81888,-0.46178 -0.4035,0.24732 -0.53696,0.29733 -0.81888,0.46178 z m 3.79644,-1.10096 c 0.0403,0.007 0.27374,0.0465 0.63806,0.15657 0.0824,-0.0196 0.20599,-0.0945 0.31843,-0.14379 -0.59966,-0.004 -1.01534,-0.0236 -0.95649,-0.0128 z m 8.37394,-2.8153 c 0.26287,-0.004 0.62489,0.006 0.80036,0.007 0.0575,-0.0282 0.11008,-0.0736 0.16682,-0.10599 -0.32427,0.0186 -0.64439,0.0659 -0.96718,0.0994 z m 5.50524,-1.76526 c -0.1772,0.0532 0.36432,-0.0509 0.54728,-0.0785 0.0625,-0.0317 0.17793,-0.085 0.27446,-0.13927 -0.25069,0.071 -0.46224,0.10978 -0.82174,0.21772 z m 1.33904,-0.804 c -0.40625,0.58028 1.64263,-0.40999 2.61848,-0.89106 -0.26353,0.039 -0.58254,0.023 -0.88377,0.0464 -0.26966,0.13902 -0.52369,0.24413 -1.19482,0.4782 -0.0831,-0.004 -0.0759,-0.002 -0.15609,-0.006 -0.15503,0.14284 -0.32857,0.29371 -0.38377,0.37264 z"
       id="path2985-1-6"
       inkscape:connector-curvature="0" />
  </g>
  <g
     inkscape:groupmode="layer"
     id="layer8"
     inkscape:label="head2"
     style="display:inline"
     sodipodi:insensitive="true">
    <path
       style="opacity:0.47000002;fill:#b90400;fill-opacity:1;display:inline"
       d="M 68.745618,90.928123 C 20.445455,150.292 26.946312,235.55137 83.250195,281.36184 139.55408,327.1723 224.32948,316.17793 272.62964,256.81405 c 23.30874,-28.64788 33.79664,-63.32123 32.13651,-96.68774 -0.65062,0.32875 -1.3474,0.59127 -2.21213,0.73823 -1.61781,0.98172 -1.96466,1.10496 -2.98868,1.39558 -1.41891,1.16357 -1.89249,1.09369 -3.90452,1.77846 -0.0818,0.0278 -0.16884,0.1058 -0.25474,0.11504 -0.17154,0.0184 -0.33574,0.0173 -0.50783,0.03 -0.14321,0.0844 -0.30433,0.17094 -0.39731,0.24075 -1.41083,1.05923 -3.04365,1.41775 -4.59272,1.78255 -0.0713,0.0208 -0.14402,0.046 -0.21529,0.0666 -0.41509,0.2818 -0.8842,0.55738 -1.37684,0.65239 -0.83789,0.16161 -1.51589,0.2427 -2.08145,0.28053 -0.21113,0.29911 -0.8008,0.31489 -1.17509,0.45396 -1.67307,0.62158 -2.88194,0.79393 -4.21468,0.9218 -0.007,0.002 -0.12001,0.0109 -0.13182,0.0136 -0.0408,-0.0136 -0.17682,-0.0432 -0.44866,-0.0428 -1.64653,0.92131 -0.76529,0.17338 -1.47545,0.7736 l -2.89085,0.186 c 0.1032,0.0109 0.26165,0.0213 0.3365,0.0321 0.0227,0.003 0.0213,0.0147 0.0242,0.0197 -0.0162,0.009 -0.0739,0.023 -0.10761,0.0332 0.16023,0.0116 0.59502,0.0485 0.44866,0.0427 -0.16734,-0.007 -0.34341,-0.0155 -0.51235,-0.014 -0.13121,0.0347 -0.30233,0.061 -0.39115,0.0846 -0.48721,0.12936 -0.96233,0.2312 -1.45242,0.34918 0.44458,-0.13308 0.9593,-0.28549 1.35546,-0.42807 -0.46195,0.003 -0.90495,-0.006 -1.34598,-0.12824 -0.55681,-0.15485 0.79031,-0.0696 1.60072,0.0132 0.0127,-0.006 0.0317,0.001 0.0439,-0.005 0.78072,-0.36022 0.16596,-0.60515 -5.99656,-0.20568 -0.55847,0.0362 0.51352,0.13396 1.39282,0.36778 0.62717,-0.074 1.36171,0.0365 1.02304,0.22807 -0.0791,0.0447 -0.17491,0.0426 -0.25926,0.0711 0.0245,0.016 0.0523,0.0422 0.0727,0.0591 0.29768,0.24736 -0.91951,0.24051 -1.3916,0.0764 -0.18184,-0.002 -0.35704,-0.009 -0.53207,0.0102 0.14674,-0.018 0.19629,-0.0166 0.43963,-0.0452 -0.0265,-0.0151 -0.0599,-0.0423 -0.0727,-0.0591 -1.26555,0.13616 -2.98927,0.32725 -3.96854,0.0747 -0.25772,-0.0665 -0.50802,-0.16701 -0.75926,-0.25518 -0.52744,0.15472 -1.42893,0.17394 -1.99022,-0.12868 -0.34058,-0.18364 0.22627,-0.14406 0.85501,-0.11008 -0.59671,-0.1996 -1.34737,-0.48689 -1.45937,-0.58308 l -2.39613,-0.62009 c 0.0504,0.0294 -0.0807,-4.5e-4 -0.20009,-0.002 0.59083,0.28126 1.2139,0.54636 1.71984,0.95615 0.26856,0.21752 -0.68065,-0.12852 -1.00332,-0.25231 -0.61384,-0.2355 -1.22493,-0.48635 -1.79421,-0.81523 -1.40536,-0.3019 -2.4743,-1.00302 -3.5276,-1.90327 -1.081,-0.18265 -2.28219,-0.4555 -2.76426,-0.9599 -0.64083,-0.31741 -1.27953,-0.63949 -1.91993,-0.9578 -0.21842,-0.24668 -0.43498,-0.4854 -0.65283,-0.7326 -0.4819,-0.25471 -0.965,-0.51983 -1.47292,-0.71497 -0.31566,-0.12126 1.17163,0.58893 0.83482,0.55844 -1.1342,-0.10278 -3.17522,-1.90114 -3.91665,-2.66297 -1.25868,-1.29332 -1.59348,-2.14458 -1.36396,-2.68095 -2.48684,-2.57352 -2.69035,-7.58318 1.9127,-12.94707 1.73581,-2.02266 2.99488,-4.37134 4.96104,-6.19645 0.61783,-0.44368 1.20872,-0.89945 1.84113,-1.32208 0.047,-0.0314 0.13531,-0.10451 0.20626,-0.15448 0.38616,-0.42961 0.87526,-0.84951 1.38179,-1.25267 0.42287,-0.99749 1.08683,-2.05036 2.01214,-3.11673 0.52754,-0.60798 0.25142,-0.27241 0.85254,-0.99839 1.20284,-1.63238 2.21676,-3.53562 4.20784,-4.23091 0.0186,-0.0214 0.0442,-0.0511 0.0591,-0.0727 1.0924,-1.55354 2.32603,-2.95311 3.97855,-3.65201 l 1.49891,-1.84225 c 0.89166,-1.09592 1.79051,-2.20082 2.68226,-3.29666 0.90306,-1.10962 1.79984,-2.21054 2.70198,-3.3209 0.95139,-1.16915 1.91467,-2.34057 2.85976,-3.51483 0.9633,-1.19662 1.89322,-2.40293 2.92341,-3.54361 0.64301,-0.74372 1.0484,-1.66561 1.68423,-2.41663 1.2986,-1.53395 1.36046,-1.41702 2.99243,-2.44 0.0182,-0.008 0.0264,0.003 0.0439,-0.005 0.49456,-0.77523 0.5037,-0.77309 1.63697,-2.01193 0.0672,-0.053 1.57014,-1.30505 2.04288,-1.52053 C 279.85608,87.676596 270.15025,76.124277 258.16882,66.375841 201.86493,20.565376 117.04557,31.564269 68.745407,90.928145 z m 207.108442,78.588917 -0.50783,0.03 c 0.12364,0.009 0.17497,0.0137 0.38046,0.0275 0.0493,-0.0194 0.0847,-0.0387 0.12737,-0.0575 z m 11.24125,-68.72849 c -4e-4,0.01 0.002,0.0273 0.0242,0.0197 0.0731,-0.0249 0.16894,-0.11162 0.26543,-0.22719 0.009,-0.0102 0.0111,-0.0136 0.0197,-0.0242 -0.0165,-0.0284 -0.0364,-0.055 -0.053,-0.0833 -0.10317,0.12707 -0.2556,0.27437 -0.2564,0.31512 z m -17.22744,46.57485 c 0.0236,0.0205 0.0496,0.0378 0.0727,0.0591 0.0208,-0.01 0.043,-0.0191 0.0636,-0.0288 -0.0178,-0.0248 -0.0342,-0.0571 -0.053,-0.0833 -0.0183,0.0193 -0.0697,0.0362 -0.0833,0.053 z m -5.08249,22.09155 c 0.14786,0.064 0.19076,0.10621 0.28185,0.14874 0.045,0.002 0.0896,-0.0149 0.13182,-0.0135 -0.13746,-0.0501 -0.27534,-0.0882 -0.41374,-0.13519 z m 12.55933,-0.77971 c -0.0585,0.075 1.8212,0.14673 2.48902,0.0108 0.0788,-0.0161 0.19435,-0.0788 0.2987,-0.11955 -0.89917,0.009 -2.34873,0.0387 -2.63611,0.071 -0.0968,0.0109 -0.14323,0.0271 -0.15157,0.0378 z m 3.38061,-0.39182 c 0.60885,-0.32085 1.17151,-0.67793 0.81887,-0.46178 -0.4035,0.24732 -0.53696,0.29733 -0.81887,0.46178 z m 3.79643,-1.10096 c 0.0404,0.007 0.27374,0.0465 0.63807,0.15657 0.0824,-0.0196 0.20599,-0.0945 0.31842,-0.14379 -0.59965,-0.004 -1.01533,-0.0236 -0.95649,-0.0128 z m 8.37394,-2.8153 c 0.26287,-0.004 0.62489,0.006 0.80037,0.007 0.0575,-0.0282 0.11007,-0.0737 0.16681,-0.106 -0.32426,0.0186 -0.64439,0.0659 -0.96718,0.0994 z m 5.50525,-1.76525 c -0.17721,0.0532 0.36432,-0.0509 0.54727,-0.0785 0.0625,-0.0316 0.17793,-0.085 0.27446,-0.13927 -0.25068,0.071 -0.46224,0.10978 -0.82173,0.21773 z m 1.33904,-0.80401 c -0.40626,0.58028 1.64263,-0.40999 2.61847,-0.89105 -0.26353,0.039 -0.58254,0.023 -0.88377,0.0464 -0.26965,0.13902 -0.52368,0.24412 -1.19481,0.47819 -0.0831,-0.004 -0.0759,-0.002 -0.1561,-0.006 -0.15502,0.14284 -0.32857,0.2937 -0.38376,0.37263 z"
       id="path3763-9"
       inkscape:connector-curvature="0" />
    <path
       sodipodi:type="arc"
       style="fill:#800000;fill-opacity:1;stroke:none;display:inline"
       id="path4942-2-8"
       sodipodi:cx="167.5"
       sodipodi:cy="420.21933"
       sodipodi:rx="28.214285"
       sodipodi:ry="37.857143"
       d="M 191.8995,439.22853 A 28.214285,37.857143 0 1 1 174.4879,383.54167 L 167.5,420.21933 z"
       sodipodi:start="0.52605967"
       sodipodi:end="4.962666"
       transform="matrix(-0.65103567,0.86038841,0.72854882,0.59276836,-145.00188,-272.51884)" />
    <path
       style="fill:#b90400;fill-opacity:1;display:inline"
       d="M 70.765174,96.962571 C 21.469129,157.55045 29.15907,245.40913 87.910954,293.21136 146.66284,341.01359 234.22505,330.65481 283.5211,270.06693 c 27.44228,-33.72825 37.16573,-75.88099 30.31015,-114.8928 -0.10924,0.0313 -0.18879,0.0433 -0.30322,0.0756 -0.93183,0.76836 -1.96933,1.51675 -2.63863,1.55953 -0.38198,0.0244 -0.76109,3.1e-4 -1.13235,0.005 -0.22077,0.17295 -0.45542,0.34641 -0.70218,0.51642 -0.36776,0.2861 -0.73054,0.56544 -1.11471,0.82538 -0.17668,0.11955 -0.3706,0.21552 -0.56865,0.30279 -0.008,0.005 -0.0116,0.019 -0.0197,0.0242 -1.75354,1.21405 -2.89169,2.05724 -4.79776,2.38117 -1.61782,0.98172 -1.96467,1.10496 -2.98869,1.39558 -1.41891,1.16357 -1.89248,1.09369 -3.90452,1.77847 -0.0818,0.0278 -0.16884,0.10579 -0.25474,0.11503 -0.17154,0.0184 -0.33574,0.0173 -0.50783,0.03 -0.14321,0.0844 -0.30433,0.17094 -0.39731,0.24075 -1.41083,1.05923 -3.04365,1.41775 -4.59272,1.78255 -0.0713,0.0208 -0.14401,0.046 -0.21529,0.0666 -0.41509,0.2818 -0.8842,0.55738 -1.37684,0.65239 -0.83789,0.16161 -1.51589,0.2427 -2.08145,0.28054 -0.21113,0.2991 -0.8008,0.31489 -1.17509,0.45395 -1.67307,0.62158 -2.88193,0.79393 -4.21468,0.9218 -0.007,0.002 -0.12,0.0109 -0.13182,0.0136 -0.0408,-0.0136 -0.17682,-0.0432 -0.44866,-0.0428 -1.64653,0.92131 -0.76529,0.17338 -1.47545,0.7736 l -2.89084,0.186 c 0.10319,0.0109 0.26164,0.0213 0.33649,0.0321 0.0227,0.003 0.0213,0.0147 0.0242,0.0197 -0.0162,0.009 -0.0739,0.023 -0.10761,0.0332 0.16023,0.0116 0.59502,0.0485 0.44866,0.0428 -0.16734,-0.007 -0.34341,-0.0154 -0.51235,-0.014 -0.13121,0.0347 -0.30233,0.0611 -0.39114,0.0846 -0.48721,0.12936 -0.96234,0.23119 -1.45242,0.34917 0.44457,-0.13308 0.95929,-0.28549 1.35545,-0.42806 -0.46194,0.003 -0.90495,-0.006 -1.34598,-0.12825 -0.55681,-0.15485 0.79031,-0.0696 1.60073,0.0132 0.0127,-0.006 0.0317,0.001 0.0439,-0.005 0.78072,-0.36022 0.16596,-0.60515 -5.99656,-0.20568 -0.55847,0.0362 0.51352,0.13396 1.39282,0.36778 0.62717,-0.074 1.36171,0.0365 1.02304,0.22808 -0.0791,0.0447 -0.17491,0.0426 -0.25926,0.0711 0.0245,0.016 0.0523,0.0422 0.0727,0.0591 0.29768,0.24736 -0.91951,0.24051 -1.3916,0.0764 -0.18183,-0.002 -0.35704,-0.009 -0.53207,0.0103 0.14674,-0.018 0.19629,-0.0166 0.43963,-0.0452 -0.0265,-0.0151 -0.0599,-0.0423 -0.0727,-0.0591 -1.26558,0.1362 -2.9893,0.32729 -3.96857,0.0747 -0.25772,-0.0665 -0.50802,-0.16701 -0.75926,-0.25518 -0.52744,0.15472 -1.42893,0.17394 -1.99022,-0.12868 -0.34058,-0.18364 0.22627,-0.14406 0.85501,-0.11008 -0.59671,-0.1996 -1.34737,-0.48689 -1.45937,-0.58308 l -2.39613,-0.62009 c 0.0504,0.0294 -0.0807,-4.5e-4 -0.20009,-0.002 0.59083,0.28126 1.2139,0.54636 1.71984,0.95615 0.26856,0.21752 -0.68065,-0.12852 -1.00332,-0.25231 -0.61384,-0.2355 -1.22493,-0.48635 -1.79421,-0.81523 -1.40536,-0.3019 -2.4743,-1.00302 -3.5276,-1.90327 -1.081,-0.18265 -2.28219,-0.4555 -2.76426,-0.9599 -0.64083,-0.31741 -1.27953,-0.63949 -1.91993,-0.9578 -0.21842,-0.24668 -0.43498,-0.4854 -0.65283,-0.7326 -0.4819,-0.25471 -0.965,-0.51983 -1.47292,-0.71497 -0.31566,-0.12126 1.17163,0.58893 0.83482,0.55844 -1.1342,-0.10278 -3.17522,-1.90114 -3.91665,-2.66297 -1.25868,-1.29332 -1.59348,-2.14458 -1.36396,-2.68095 -2.48684,-2.57352 -2.69035,-7.58318 1.9127,-12.94707 1.73581,-2.02266 2.99488,-4.37134 4.96104,-6.19645 0.61783,-0.44368 1.20872,-0.89945 1.84113,-1.32208 0.047,-0.0314 0.13531,-0.10451 0.20626,-0.15448 0.38616,-0.42961 0.87526,-0.84951 1.38179,-1.25267 0.42287,-0.99749 1.08683,-2.05036 2.01214,-3.11673 0.52754,-0.60798 0.25142,-0.27241 0.85254,-0.99839 1.20284,-1.63238 2.21676,-3.53562 4.20784,-4.23091 0.0186,-0.0214 0.0442,-0.0511 0.0591,-0.0727 1.0924,-1.55354 2.32603,-2.95311 3.97855,-3.65201 l 1.49891,-1.84225 c 0.89166,-1.09592 1.79051,-2.20082 2.68226,-3.29666 0.90306,-1.10962 1.79984,-2.21054 2.70198,-3.3209 0.95139,-1.16915 1.91467,-2.34057 2.85976,-3.51483 0.9633,-1.19662 1.89322,-2.40293 2.92341,-3.54361 0.64301,-0.74372 1.0484,-1.66561 1.68423,-2.41663 1.2986,-1.53395 1.36046,-1.41702 2.99243,-2.44 0.0182,-0.008 0.0264,0.003 0.0439,-0.005 0.49456,-0.77523 0.5037,-0.77309 1.63697,-2.01193 0.0719,-0.0567 1.83851,-1.51775 2.17025,-1.57804 0.18668,-0.0339 -0.46193,0.55665 -0.28232,0.49546 0.31868,-0.10857 0.92599,-1.320213 1.26224,-1.551375 l 1.06501,-1.308969 C 282.93593,89.146694 275.27797,81.021507 266.41903,73.813619 207.66715,26.01139 120.06097,36.374684 70.764925,96.962561 z m 205.088886,72.554469 -0.50783,0.03 c 0.12364,0.009 0.17497,0.0137 0.38046,0.0275 0.0493,-0.0194 0.0847,-0.0387 0.12737,-0.0575 z m -5.98619,-22.15364 c 0.0236,0.0205 0.0496,0.0378 0.0727,0.0591 0.0208,-0.01 0.043,-0.0191 0.0636,-0.0288 -0.0178,-0.0248 -0.0342,-0.0571 -0.053,-0.0833 -0.0183,0.0193 -0.0697,0.0362 -0.0833,0.053 z m -5.08249,22.09155 c 0.14786,0.064 0.19076,0.10621 0.28185,0.14874 0.045,0.002 0.0896,-0.0149 0.13182,-0.0135 -0.13746,-0.0501 -0.27534,-0.0882 -0.41374,-0.13519 z m 12.55933,-0.77971 c -0.0585,0.075 1.8212,0.14673 2.48902,0.0108 0.0788,-0.0161 0.19435,-0.0788 0.2987,-0.11955 -0.89917,0.009 -2.34873,0.0387 -2.63611,0.071 -0.0968,0.0109 -0.14323,0.0271 -0.15157,0.0378 z m 3.38061,-0.39182 c 0.60885,-0.32085 1.17151,-0.67793 0.81887,-0.46178 -0.4035,0.24732 -0.53696,0.29733 -0.81887,0.46178 z m 3.79643,-1.10096 c 0.0404,0.007 0.27374,0.0465 0.63807,0.15657 0.0824,-0.0196 0.20599,-0.0945 0.31842,-0.14379 -0.59965,-0.004 -1.01533,-0.0236 -0.95649,-0.0128 z m 8.37394,-2.8153 c 0.26287,-0.004 0.62489,0.006 0.80037,0.007 0.0575,-0.0282 0.11007,-0.0737 0.16681,-0.106 -0.32426,0.0186 -0.64439,0.0659 -0.96718,0.0994 z m 5.50525,-1.76525 c -0.17721,0.0532 0.36432,-0.0509 0.54727,-0.0785 0.0625,-0.0316 0.17793,-0.085 0.27446,-0.13927 -0.25068,0.071 -0.46224,0.10978 -0.82173,0.21773 z m 1.33904,-0.80401 c -0.40626,0.58028 1.64263,-0.40999 2.61847,-0.89105 -0.26353,0.039 -0.58254,0.023 -0.88377,0.0464 -0.26965,0.13902 -0.52368,0.24412 -1.19481,0.47819 -0.0831,-0.004 -0.0759,-0.002 -0.1561,-0.006 -0.15502,0.14284 -0.32857,0.2937 -0.38376,0.37263 z"
       id="path2985-1"
       inkscape:connector-curvature="0" />
    <path
       style="opacity:0.47000002;fill:#b90400;fill-opacity:1;display:inline"
       d="M 71.285343,96.620343 C 22.985179,155.98422 29.486037,241.24359 85.78992,287.05406 c 56.30388,45.81046 141.10352,34.83581 189.40369,-24.52807 24.93832,-30.65073 35.21171,-68.20974 31.61828,-103.67615 -1.46492,1.0149 -2.53908,1.7226 -4.25787,2.0147 -1.61781,0.98172 -1.96466,1.10496 -2.98868,1.39558 -1.41891,1.16357 -1.89249,1.09369 -3.90452,1.77846 -0.0818,0.0278 -0.16884,0.1058 -0.25474,0.11504 -0.17154,0.0184 -0.33574,0.0173 -0.50783,0.03 -0.14321,0.0844 -0.30433,0.17094 -0.39731,0.24075 -1.41083,1.05923 -3.04365,1.41775 -4.59272,1.78255 -0.0713,0.0208 -0.14402,0.046 -0.21529,0.0666 -0.41509,0.2818 -0.8842,0.55738 -1.37684,0.65239 -0.83789,0.16161 -1.51589,0.2427 -2.08145,0.28053 -0.21113,0.29911 -0.8008,0.31489 -1.17509,0.45396 -1.67307,0.62158 -2.88194,0.79393 -4.21468,0.9218 -0.007,0.002 -0.12001,0.0109 -0.13182,0.0136 -0.0408,-0.0136 -0.17682,-0.0432 -0.44866,-0.0428 -1.64653,0.92131 -0.76529,0.17338 -1.47545,0.7736 l -2.89085,0.186 c 0.1032,0.0109 0.26165,0.0213 0.3365,0.0321 0.0227,0.003 0.0213,0.0147 0.0242,0.0197 -0.0162,0.009 -0.0739,0.023 -0.10761,0.0332 0.16023,0.0116 0.59502,0.0485 0.44866,0.0427 -0.16734,-0.007 -0.34341,-0.0155 -0.51235,-0.014 -0.13121,0.0347 -0.30233,0.061 -0.39115,0.0846 -0.48721,0.12936 -0.96233,0.2312 -1.45242,0.34918 0.44458,-0.13308 0.9593,-0.28549 1.35546,-0.42807 -0.46195,0.003 -0.90495,-0.006 -1.34598,-0.12824 -0.55681,-0.15485 0.79031,-0.0696 1.60072,0.0132 0.0127,-0.006 0.0317,0.001 0.0439,-0.005 0.78072,-0.36022 0.16596,-0.60515 -5.99656,-0.20568 -0.55847,0.0362 0.51352,0.13396 1.39282,0.36778 0.62717,-0.074 1.36171,0.0365 1.02304,0.22807 -0.0791,0.0447 -0.17491,0.0426 -0.25926,0.0711 0.0245,0.016 0.0523,0.0422 0.0727,0.0591 0.29768,0.24736 -0.91951,0.24051 -1.3916,0.0764 -0.18184,-0.002 -0.35704,-0.009 -0.53207,0.0102 0.14674,-0.018 0.19629,-0.0166 0.43963,-0.0452 -0.0265,-0.0151 -0.0599,-0.0423 -0.0727,-0.0591 -1.26555,0.13616 -2.98927,0.32725 -3.96854,0.0747 -0.25772,-0.0665 -0.50802,-0.16701 -0.75926,-0.25518 -0.52744,0.15472 -1.42893,0.17394 -1.99022,-0.12868 -0.34058,-0.18364 0.22627,-0.14406 0.85501,-0.11008 -0.59671,-0.1996 -1.34737,-0.48689 -1.45937,-0.58308 l -2.39613,-0.62009 c 0.0504,0.0294 -0.0807,-4.5e-4 -0.20009,-0.002 0.59083,0.28126 1.2139,0.54636 1.71984,0.95615 0.26856,0.21752 -0.68065,-0.12852 -1.00332,-0.25231 -0.61384,-0.2355 -1.22493,-0.48635 -1.79421,-0.81523 -1.40536,-0.3019 -2.4743,-1.00302 -3.5276,-1.90327 -1.081,-0.18265 -2.28219,-0.4555 -2.76426,-0.9599 -0.64083,-0.31741 -1.27953,-0.63949 -1.91993,-0.9578 -0.21842,-0.24668 -0.43498,-0.4854 -0.65283,-0.7326 -0.4819,-0.25471 -0.965,-0.51983 -1.47292,-0.71497 -0.31566,-0.12126 1.17163,0.58893 0.83482,0.55844 -1.1342,-0.10278 -3.17522,-1.90114 -3.91665,-2.66297 -1.25868,-1.29332 -1.59348,-2.14458 -1.36396,-2.68095 -2.48684,-2.57352 -2.69035,-7.58318 1.9127,-12.94707 1.73581,-2.02266 2.99488,-4.37134 4.96104,-6.19645 0.61783,-0.44368 1.20872,-0.89945 1.84113,-1.32208 0.047,-0.0314 0.13531,-0.10451 0.20626,-0.15448 0.38616,-0.42961 0.87526,-0.84951 1.38179,-1.25267 0.42287,-0.99749 1.08683,-2.05036 2.01214,-3.11673 0.52754,-0.60798 0.25142,-0.27241 0.85254,-0.99839 1.20284,-1.63238 2.21676,-3.53562 4.20784,-4.23091 0.0186,-0.0214 0.0442,-0.0511 0.0591,-0.0727 1.0924,-1.55354 2.32603,-2.95311 3.97855,-3.65201 l 1.49891,-1.84225 c 0.89166,-1.09592 1.79051,-2.20082 2.68226,-3.29666 0.90306,-1.10962 1.79984,-2.21054 2.70198,-3.3209 0.95139,-1.16915 1.91467,-2.34057 2.85976,-3.51483 0.9633,-1.19662 1.89322,-2.40293 2.92341,-3.54361 0.64301,-0.74372 1.0484,-1.66561 1.68423,-2.41663 1.2986,-1.53395 1.36046,-1.41702 2.99243,-2.44 0.0182,-0.008 0.0264,0.003 0.0439,-0.005 0.49456,-0.77523 0.5037,-0.77309 1.63697,-2.01193 0.0446,-0.0352 0.73307,-0.60211 1.33617,-1.04806 C 279.62914,90.202367 271.00363,80.484725 260.68882,72.0923 204.38494,26.281835 119.5853,37.256488 71.285132,96.620364 z m 204.568717,72.896697 -0.50783,0.03 c 0.12364,0.009 0.17497,0.0137 0.38046,0.0275 0.0493,-0.0194 0.0847,-0.0387 0.12737,-0.0575 z m -5.98619,-22.15364 c 0.0236,0.0205 0.0496,0.0378 0.0727,0.0591 0.0208,-0.01 0.043,-0.0191 0.0636,-0.0288 -0.0178,-0.0248 -0.0342,-0.0571 -0.053,-0.0833 -0.0183,0.0193 -0.0697,0.0362 -0.0833,0.053 z m -5.08249,22.09155 c 0.14786,0.064 0.19076,0.10621 0.28185,0.14874 0.045,0.002 0.0896,-0.0149 0.13182,-0.0135 -0.13746,-0.0501 -0.27534,-0.0882 -0.41374,-0.13519 z m 12.55933,-0.77971 c -0.0585,0.075 1.8212,0.14673 2.48902,0.0108 0.0788,-0.0161 0.19435,-0.0788 0.2987,-0.11955 -0.89917,0.009 -2.34873,0.0387 -2.63611,0.071 -0.0968,0.0109 -0.14323,0.0271 -0.15157,0.0378 z m 3.38061,-0.39182 c 0.60885,-0.32085 1.17151,-0.67793 0.81887,-0.46178 -0.4035,0.24732 -0.53696,0.29733 -0.81887,0.46178 z m 3.79643,-1.10096 c 0.0404,0.007 0.27374,0.0465 0.63807,0.15657 0.0824,-0.0196 0.20599,-0.0945 0.31842,-0.14379 -0.59965,-0.004 -1.01533,-0.0236 -0.95649,-0.0128 z m 8.37394,-2.8153 c 0.26287,-0.004 0.62489,0.006 0.80037,0.007 0.0575,-0.0282 0.11007,-0.0737 0.16681,-0.106 -0.32426,0.0186 -0.64439,0.0659 -0.96718,0.0994 z m 5.50525,-1.76525 c -0.17721,0.0532 0.36432,-0.0509 0.54727,-0.0785 0.0625,-0.0316 0.17793,-0.085 0.27446,-0.13927 -0.25068,0.071 -0.46224,0.10978 -0.82173,0.21773 z m 1.33904,-0.80401 c -0.40626,0.58028 1.64263,-0.40999 2.61847,-0.89105 -0.26353,0.039 -0.58254,0.023 -0.88377,0.0464 -0.26965,0.13902 -0.52368,0.24412 -1.19481,0.47819 -0.0831,-0.004 -0.0759,-0.002 -0.1561,-0.006 -0.15502,0.14284 -0.32857,0.2937 -0.38376,0.37263 z"
       id="path3763-7"
       inkscape:connector-curvature="0" />
    <path
       style="fill:#b90400;fill-opacity:1;fill-rule:evenodd;stroke:none;display:inline"
       d="m 226.40554,75.904075 c -19.22448,23.628063 -14.42987,59.365925 10.71282,79.822745 4.44166,3.61386 9.23548,6.50646 14.1991,8.69242 -0.20433,-0.23148 -0.40021,-0.4615 -0.60435,-0.69315 -0.4819,-0.25471 -0.965,-0.51983 -1.47292,-0.71497 -0.31566,-0.12126 1.17163,0.58893 0.83482,0.55844 -1.1342,-0.10278 -3.17522,-1.90114 -3.91665,-2.66297 -1.25868,-1.29332 -1.59348,-2.14458 -1.36396,-2.68095 -2.48684,-2.57352 -2.69035,-7.58318 1.9127,-12.94707 1.73581,-2.02266 2.99488,-4.37134 4.96104,-6.19645 0.61783,-0.44368 1.20872,-0.89945 1.84113,-1.32208 0.047,-0.0314 0.13531,-0.10451 0.20626,-0.15448 0.38616,-0.42961 0.87526,-0.84951 1.38179,-1.25267 0.42287,-0.99749 1.08683,-2.05036 2.01214,-3.11673 0.52754,-0.60798 0.25142,-0.27241 0.85254,-0.99839 1.20284,-1.63238 2.21676,-3.53562 4.20784,-4.23091 0.0186,-0.0214 0.0442,-0.0511 0.0591,-0.0727 1.0924,-1.55354 2.32603,-2.95311 3.97855,-3.65201 l 1.49891,-1.84225 c 0.89166,-1.09592 1.79051,-2.20082 2.68226,-3.29666 0.90306,-1.10962 1.79984,-2.21054 2.70198,-3.3209 0.95139,-1.16915 1.91467,-2.34057 2.85976,-3.51483 0.9633,-1.19662 1.89322,-2.40293 2.92341,-3.54361 0.64301,-0.74372 1.0484,-1.66561 1.68423,-2.41663 1.2986,-1.53395 1.36046,-1.41702 2.99243,-2.44 0.0182,-0.008 0.0264,0.003 0.0439,-0.005 0.49456,-0.77523 0.5037,-0.77309 1.63697,-2.01193 0.0719,-0.0567 1.83851,-1.51775 2.17025,-1.57804 0.18668,-0.0339 -0.46193,0.55665 -0.28232,0.49546 0.31868,-0.10857 0.92599,-1.320213 1.26224,-1.551375 l 3.19504,-3.926907 2.5442,-3.126981 3.23449,-3.975387 3.13588,-3.854186 2.64282,-3.248182 4.26005,-5.235876 c 0.94021,-1.155569 1.90455,-2.030132 2.86219,-2.626535 -1.11845,-1.06931 -2.29434,-2.10847 -3.51768,-3.103816 -25.14269,-20.456818 -61.10877,-17.883024 -80.33324,5.74504 z m 43.46233,71.459325 c 0.0236,0.0205 0.0496,0.0378 0.0727,0.0591 0.0208,-0.01 0.043,-0.0191 0.0636,-0.0288 -0.0178,-0.0248 -0.0342,-0.0571 -0.053,-0.0833 -0.0183,0.0193 -0.0697,0.0362 -0.0833,0.053 z m 0.36558,21.93154 c 1.34179,0.11764 2.68095,0.1839 4.01988,0.20889 -0.53807,-0.14964 0.69249,-0.0567 1.51281,0.0223 l 0.0879,-0.009 c 0.0127,-0.006 0.0317,0.001 0.0439,-0.005 l 0.0439,-0.005 c 0.70723,-0.34298 0.002,-0.57193 -5.70854,-0.21307 z m 5.70854,0.21307 c 12.69144,-0.13079 25.03745,-4.41356 34.79128,-12.70494 -0.32856,0.0189 -0.65599,0.007 -0.97622,0.0115 -0.22077,0.17295 -0.45542,0.34641 -0.70218,0.51642 -0.36776,0.2861 -0.73054,0.56544 -1.11471,0.82538 -0.17668,0.11955 -0.3706,0.21552 -0.56865,0.30279 -0.008,0.005 -0.0116,0.019 -0.0197,0.0242 -1.75354,1.21405 -2.89169,2.05724 -4.79776,2.38117 -1.61782,0.98172 -1.96467,1.10496 -2.98869,1.39558 -1.41891,1.16357 -1.89248,1.09369 -3.90452,1.77847 -0.0818,0.0278 -0.16884,0.10579 -0.25474,0.11503 -0.17154,0.0184 -0.33574,0.0173 -0.50783,0.03 -0.14321,0.0844 -0.30433,0.17094 -0.39731,0.24075 -1.41083,1.05923 -3.04365,1.41775 -4.59272,1.78255 -0.0713,0.0208 -0.14401,0.046 -0.21529,0.0666 -0.41509,0.2818 -0.8842,0.55738 -1.37684,0.65239 -0.83789,0.16161 -1.51589,0.2427 -2.08145,0.28054 -0.21113,0.2991 -0.8008,0.31489 -1.17509,0.45395 -1.67307,0.62158 -2.88193,0.79393 -4.21468,0.9218 -0.007,0.002 -0.12,0.0109 -0.13182,0.0136 -0.0408,-0.0136 -0.17682,-0.0432 -0.44866,-0.0428 -1.64653,0.92131 -0.76529,0.17338 -1.47545,0.7736 l -2.84688,0.18148 z m 1.40272,-0.83277 c -0.0585,0.075 1.8212,0.14673 2.48902,0.0108 0.0788,-0.0161 0.19435,-0.0788 0.2987,-0.11955 -0.89917,0.009 -2.34873,0.0387 -2.63611,0.071 -0.0968,0.0109 -0.14323,0.0271 -0.15157,0.0378 z m 3.38061,-0.39182 c 0.60885,-0.32085 1.17151,-0.67793 0.81887,-0.46178 -0.4035,0.24732 -0.53696,0.29733 -0.81887,0.46178 z m 3.79643,-1.10096 c 0.0404,0.007 0.27374,0.0465 0.63807,0.15657 0.0824,-0.0196 0.20599,-0.0945 0.31842,-0.14379 -0.59965,-0.004 -1.01533,-0.0236 -0.95649,-0.0128 z m 8.37394,-2.8153 c 0.26287,-0.004 0.62489,0.006 0.80037,0.007 0.0575,-0.0282 0.11007,-0.0737 0.16681,-0.106 -0.32426,0.0186 -0.64439,0.0659 -0.96718,0.0994 z m 5.50525,-1.76525 c -0.17721,0.0532 0.36432,-0.0509 0.54727,-0.0785 0.0625,-0.0316 0.17793,-0.085 0.27446,-0.13927 -0.25068,0.071 -0.46224,0.10978 -0.82173,0.21773 z m 1.33904,-0.80401 c -0.40626,0.58028 1.64263,-0.40999 2.61847,-0.89105 -0.26353,0.039 -0.58254,0.023 -0.88377,0.0464 -0.26965,0.13902 -0.52368,0.24412 -1.19481,0.47819 -0.0831,-0.004 -0.0759,-0.002 -0.1561,-0.006 -0.15502,0.14284 -0.32857,0.2937 -0.38376,0.37263 z"
       id="path3525"
       inkscape:connector-curvature="0" />
    <path
       style="fill:#b90400;fill-opacity:1;fill-rule:evenodd;stroke:none;display:inline"
       d="m 218.98158,77.155667 c -19.22448,23.628063 -14.42987,59.365923 10.71282,79.822743 17.51984,14.25465 40.28605,17.29496 58.9886,9.84308 -0.11784,0.0436 -0.24375,0.0806 -0.36691,0.10434 -0.83789,0.16161 -1.51589,0.2427 -2.08145,0.28053 -0.21113,0.29911 -0.8008,0.31489 -1.17509,0.45396 -1.67307,0.62158 -2.88194,0.79393 -4.21468,0.9218 -0.007,0.002 -0.12001,0.0109 -0.13182,0.0136 -0.0408,-0.0136 -0.17682,-0.0432 -0.44866,-0.0428 -1.64653,0.92131 -0.76529,0.17338 -1.47545,0.7736 l -2.89085,0.186 c 0.1032,0.0109 0.26165,0.0213 0.3365,0.0321 0.0227,0.003 0.0213,0.0147 0.0242,0.0197 -0.0162,0.009 -0.0739,0.023 -0.10761,0.0332 0.16023,0.0116 0.59502,0.0485 0.44866,0.0427 -0.16734,-0.007 -0.34341,-0.0155 -0.51235,-0.014 -0.13121,0.0347 -0.30233,0.061 -0.39115,0.0846 -0.48721,0.12936 -0.96233,0.2312 -1.45242,0.34918 0.44458,-0.13308 0.9593,-0.28549 1.35546,-0.42807 -0.46195,0.003 -0.90495,-0.006 -1.34598,-0.12824 -0.55681,-0.15485 0.79031,-0.0696 1.60072,0.0132 0.0127,-0.006 0.0317,0.001 0.0439,-0.005 0.78072,-0.36022 0.16596,-0.60515 -5.99656,-0.20568 -0.55847,0.0362 0.51352,0.13396 1.39282,0.36778 0.62717,-0.074 1.36171,0.0365 1.02304,0.22807 -0.0791,0.0447 -0.17491,0.0426 -0.25926,0.0711 0.0245,0.016 0.0523,0.0422 0.0727,0.0591 0.29768,0.24736 -0.91951,0.24051 -1.3916,0.0764 -0.18184,-0.002 -0.35704,-0.009 -0.53207,0.0102 0.14674,-0.018 0.19629,-0.0166 0.43963,-0.0452 -0.0265,-0.0151 -0.0599,-0.0423 -0.0727,-0.0591 -1.26555,0.13616 -2.98927,0.32725 -3.96854,0.0747 -0.25772,-0.0665 -0.50802,-0.16701 -0.75926,-0.25518 -0.52744,0.15472 -1.42893,0.17394 -1.99022,-0.12868 -0.34058,-0.18364 0.22627,-0.14406 0.85501,-0.11008 -0.59671,-0.1996 -1.34737,-0.48689 -1.45937,-0.58308 l -2.39613,-0.62009 c 0.0504,0.0294 -0.0807,-4.5e-4 -0.20009,-0.002 0.59083,0.28126 1.2139,0.54636 1.71984,0.95615 0.26856,0.21752 -0.68065,-0.12852 -1.00332,-0.25231 -0.61384,-0.2355 -1.22493,-0.48635 -1.79421,-0.81523 -1.40536,-0.3019 -2.4743,-1.00302 -3.5276,-1.90327 -1.081,-0.18265 -2.28219,-0.4555 -2.76426,-0.9599 -0.64083,-0.31741 -1.27953,-0.63949 -1.91993,-0.9578 -0.21842,-0.24668 -0.43498,-0.4854 -0.65283,-0.7326 -0.4819,-0.25471 -0.965,-0.51983 -1.47292,-0.71497 -0.31566,-0.12126 1.17163,0.58893 0.83482,0.55844 -1.1342,-0.10278 -3.17522,-1.90114 -3.91665,-2.66297 -1.25868,-1.29332 -1.59348,-2.14458 -1.36396,-2.68095 -2.48684,-2.57352 -2.69035,-7.58318 1.9127,-12.94707 1.73581,-2.02266 2.99488,-4.37134 4.96104,-6.19645 0.61783,-0.44368 1.20872,-0.89945 1.84113,-1.32208 0.047,-0.0314 0.13531,-0.10451 0.20626,-0.15448 0.38616,-0.42961 0.87526,-0.84951 1.38179,-1.25267 0.42287,-0.99749 1.08683,-2.05036 2.01214,-3.11673 0.52754,-0.60798 0.25142,-0.27241 0.85254,-0.99839 1.20284,-1.63238 2.21676,-3.53562 4.20784,-4.23091 0.0186,-0.0214 0.0442,-0.0511 0.0591,-0.0727 1.0924,-1.55354 2.32603,-2.95311 3.97855,-3.65201 l 1.49891,-1.84225 c 0.89166,-1.09592 1.79051,-2.20082 2.68226,-3.29666 0.90306,-1.10962 1.79984,-2.21054 2.70198,-3.3209 0.95139,-1.16915 1.91467,-2.34057 2.85976,-3.51483 0.9633,-1.19662 1.89322,-2.40293 2.92341,-3.54361 0.64301,-0.74372 1.0484,-1.66561 1.68423,-2.41663 1.2986,-1.53395 1.36046,-1.41702 2.99243,-2.44 0.0182,-0.008 0.0264,0.003 0.0439,-0.005 0.49456,-0.77523 0.5037,-0.77309 1.63697,-2.01193 0.0719,-0.0567 1.83851,-1.51775 2.17025,-1.57804 0.18668,-0.0339 -0.46193,0.55665 -0.28232,0.49546 0.31868,-0.10857 0.92599,-1.320213 1.26224,-1.551375 l 3.19504,-3.926907 2.5442,-3.126981 3.23449,-3.975387 3.13588,-3.854186 2.64282,-3.248182 2.80059,-3.442104 c -2.01968,-2.216336 -4.22157,-4.321101 -6.61999,-6.27253 C 274.17188,50.9538 238.2058,53.527594 218.98133,77.155658 z m 56.87248,92.361373 -0.50783,0.03 c 0.12364,0.009 0.17497,0.0137 0.38046,0.0275 0.0493,-0.0194 0.0847,-0.0387 0.12737,-0.0575 z m -5.98619,-22.15364 c 0.0236,0.0205 0.0496,0.0378 0.0727,0.0591 0.0208,-0.01 0.043,-0.0191 0.0636,-0.0288 -0.0178,-0.0248 -0.0342,-0.0571 -0.053,-0.0833 -0.0183,0.0193 -0.0697,0.0362 -0.0833,0.053 z m -5.08249,22.09155 c 0.14786,0.064 0.19076,0.10621 0.28185,0.14874 0.045,0.002 0.0896,-0.0149 0.13182,-0.0135 -0.13746,-0.0501 -0.27534,-0.0882 -0.41374,-0.13519 z m 12.55933,-0.77971 c -0.0585,0.075 1.8212,0.14673 2.48902,0.0108 0.0788,-0.0161 0.19435,-0.0788 0.2987,-0.11955 -0.89917,0.009 -2.34873,0.0387 -2.63611,0.071 -0.0968,0.0109 -0.14323,0.0271 -0.15157,0.0378 z m 3.38061,-0.39182 c 0.60885,-0.32085 1.17151,-0.67793 0.81887,-0.46178 -0.4035,0.24732 -0.53696,0.29733 -0.81887,0.46178 z m 3.79643,-1.10096 c 0.0404,0.007 0.27374,0.0465 0.63807,0.15657 0.0824,-0.0196 0.20599,-0.0945 0.31842,-0.14379 -0.59965,-0.004 -1.01533,-0.0236 -0.95649,-0.0128 z m 4.52364,-0.50928 c 0.47054,-0.19147 0.94045,-0.38388 1.40559,-0.58871 -0.18448,0.0435 -0.36037,0.0795 -0.54276,0.12242 -0.0713,0.0208 -0.14402,0.046 -0.21529,0.0666 -0.20758,0.14087 -0.42191,0.28373 -0.64754,0.39974 z m 3.8503,-2.30602 c 0.26287,-0.004 0.62489,0.006 0.80037,0.007 0.0575,-0.0282 0.11007,-0.0737 0.16681,-0.106 -0.32426,0.0186 -0.64439,0.0659 -0.96718,0.0994 z"
       id="path3525-9"
       inkscape:connector-curvature="0" />
    <ellipse
       style="fill:#800000;fill-opacity:1;stroke:none;display:inline"
       id="path5967"
       transform="matrix(0.63111993,-0.77568527,0.77568527,0.63111993,-167.85543,174.77146)"
       cx="358"
       cy="279.86218"
       rx="7"
       ry="8.5"
       sodipodi:cx="358"
       sodipodi:cy="279.86218"
       sodipodi:rx="7"
       sodipodi:ry="8.5" />
    <ellipse
       style="fill:#800000;fill-opacity:1;display:inline"
       id="path3938-4"
       transform="matrix(0.85767583,-1.0541364,0.96487684,0.78505166,-340.22954,279.38617)"
       cx="310"
       cy="236.6479"
       rx="55.714283"
       ry="58.571426"
       sodipodi:cx="310"
       sodipodi:cy="236.6479"
       sodipodi:rx="55.714283"
       sodipodi:ry="58.571426" />
    <ellipse
       style="fill:#ffffff;fill-opacity:1;display:inline"
       id="path3938-1-0"
       transform="matrix(0.79294558,-0.97457896,0.87028109,0.70808583,-294.65941,273.63218)"
       cx="310"
       cy="236.6479"
       rx="55.714283"
       ry="58.571426"
       sodipodi:cx="310"
       sodipodi:cy="236.6479"
       sodipodi:rx="55.714283"
       sodipodi:ry="58.571426" />
    <ellipse
       style="fill:#b90400;fill-opacity:1;stroke:none;display:inline"
       id="path4800-8"
       transform="matrix(0.35467415,1.3063297,-1.2188202,-0.07359559,139.58763,-61.639069)"
       cx="216.07143"
       cy="151.29076"
       rx="32.5"
       ry="63.214287"
       sodipodi:cx="216.07143"
       sodipodi:cy="151.29076"
       sodipodi:rx="32.5"
       sodipodi:ry="63.214287" />
    <ellipse
       style="fill:#b90400;fill-opacity:1;stroke:none;display:inline"
       id="path4800-7-2"
       transform="matrix(0.35467415,1.3063297,-1.2188202,-0.07359559,147.27898,-60.906233)"
       cx="216.07143"
       cy="151.29076"
       rx="32.5"
       ry="63.214287"
       sodipodi:cx="216.07143"
       sodipodi:cy="151.29076"
       sodipodi:rx="32.5"
       sodipodi:ry="63.214287" />
    <ellipse
       style="fill:#800000;fill-opacity:1;stroke:none;display:inline"
       id="path4800-1-4"
       transform="matrix(0.1398301,0.57042433,-0.52945265,-0.01885073,51.437515,81.027756)"
       cx="216.07143"
       cy="151.29076"
       rx="32.5"
       ry="63.214287"
       sodipodi:cx="216.07143"
       sodipodi:cy="151.29076"
       sodipodi:rx="32.5"
       sodipodi:ry="63.214287" />
    <path
       sodipodi:type="arc"
       style="fill:#800000;fill-opacity:1;stroke:none;display:inline"
       id="path4942-2-5"
       sodipodi:cx="167.5"
       sodipodi:cy="420.21933"
       sodipodi:rx="28.214285"
       sodipodi:ry="37.857143"
       d="M 191.8995,439.22853 A 28.214285,37.857143 0 1 1 174.4879,383.54167 L 167.5,420.21933 z"
       sodipodi:start="0.52605967"
       sodipodi:end="4.962666"
       transform="matrix(0.68051908,-0.83639986,0.72854882,0.59276836,-381.73924,28.747486)" />
  </g>
  <g
     inkscape:groupmode="layer"
     id="layer12"
     inkscape:label="mouth"
     style="display:inline"
     sodipodi:insensitive="true">
    <path
       sodipodi:type="arc"
       style="fill:#800000;fill-opacity:1;fill-rule:evenodd;stroke:none;display:inline"
       id="path3525-3-2"
       sodipodi:cx="369.10974"
       sodipodi:cy="302.12189"
       sodipodi:rx="55.154327"
       sodipodi:ry="58.689861"
       d="m 424.26407,302.12189 a 55.154327,58.689861 0 1 1 -109.9111,-7.03402 l 54.75677,7.03402 z"
       transform="matrix(0.63111993,-0.77568527,0.77568527,0.63111993,-192.40388,211.50049)"
       sodipodi:start="0"
       sodipodi:end="3.2617321" />
    <path
       sodipodi:type="arc"
       style="fill:#b90400;fill-opacity:1;fill-rule:evenodd;stroke:none;display:inline"
       id="path3525-3-8-7"
       sodipodi:cx="369.10974"
       sodipodi:cy="302.12189"
       sodipodi:rx="55.154327"
       sodipodi:ry="58.689861"
       d="m 424.26407,302.12189 a 55.154327,58.689861 0 1 1 -109.9111,-7.03402 l 54.75677,7.03402 z"
       transform="matrix(0.59679152,-0.73349354,0.66946562,0.54469656,-147.67707,227.16543)"
       sodipodi:start="0"
       sodipodi:end="3.2617321" />
  </g>
  <g
     inkscape:groupmode="layer"
     id="layer10"
     inkscape:label="pupil"
     style="display:inline"
     sodipodi:insensitive="true">
    <ellipse
       style="fill:#00b904;fill-opacity:1;display:inline"
       id="path3959-9-1"
       cx="357.3313"
       cy="239.43326"
       rx="39.767441"
       ry="40"
       sodipodi:cx="357.3313"
       sodipodi:cy="239.43326"
       sodipodi:rx="39.767441"
       sodipodi:ry="40"
       transform="matrix(0.63111993,-0.77568527,0.77568527,0.63111993,-229.44233,265.99844)" />
    <ellipse
       style="fill:#000000;fill-opacity:1;display:inline"
       id="path3959-7-4-1"
       cx="364.90613"
       cy="235.79688"
       rx="34.086376"
       ry="32.727272"
       sodipodi:cx="364.90613"
       sodipodi:cy="235.79688"
       sodipodi:rx="34.086376"
       sodipodi:ry="32.727272"
       transform="matrix(0.63111993,-0.77568527,0.77568527,0.63111993,-229.44233,265.99844)" />
    <circle
       style="fill:#ffffff;fill-opacity:1;display:inline"
       id="path3979-8-5"
       cx="355.58865"
       cy="217.25317"
       r="12.121831"
       sodipodi:cx="355.58865"
       sodipodi:cy="217.25317"
       sodipodi:rx="12.121831"
       sodipodi:ry="12.121831"
       transform="matrix(0.63111993,-0.77568527,0.77568527,0.63111993,-229.44233,265.99844)" />
  </g>
</svg>
