<?xml version="1.0" encoding="UTF-8" standalone="no"?>
<!-- Created with Inkscape (http://www.inkscape.org/) -->

<svg
   xmlns:dc="http://purl.org/dc/elements/1.1/"
   xmlns:cc="http://creativecommons.org/ns#"
   xmlns:rdf="http://www.w3.org/1999/02/22-rdf-syntax-ns#"
   xmlns:svg="http://www.w3.org/2000/svg"
   xmlns="http://www.w3.org/2000/svg"
   xmlns:sodipodi="http://sodipodi.sourceforge.net/DTD/sodipodi-0.dtd"
   xmlns:inkscape="http://www.inkscape.org/namespaces/inkscape"
   width="744.09448819"
   height="1052.3622047"
   id="svg5792"
   version="1.1"
   inkscape:version="0.48.5 r10040"
   sodipodi:docname="New document 20">
  <defs
     id="defs5794" />
  <sodipodi:namedview
     id="base"
     pagecolor="#ffffff"
     bordercolor="#666666"
     borderopacity="1.0"
     inkscape:pageopacity="0.0"
     inkscape:pageshadow="2"
     inkscape:zoom="0.70710678"
     inkscape:cx="546.38267"
     inkscape:cy="513.72199"
     inkscape:document-units="px"
     inkscape:current-layer="layer4"
     showgrid="false"
     inkscape:window-width="1920"
     inkscape:window-height="1017"
     inkscape:window-x="-8"
     inkscape:window-y="-8"
     inkscape:window-maximized="1" />
  <metadata
     id="metadata5797">
    <rdf:RDF>
      <cc:Work
         rdf:about="">
        <dc:format>image/svg+xml</dc:format>
        <dc:type
           rdf:resource="http://purl.org/dc/dcmitype/StillImage" />
        <dc:title></dc:title>
      </cc:Work>
    </rdf:RDF>
  </metadata>
  <g
     inkscape:label="Layer 1"
     inkscape:groupmode="layer"
     id="layer1"
     sodipodi:insensitive="true">
    <rect
       style="fill:#535d6c;fill-opacity:1;fill-rule:nonzero;stroke:none"
       id="rect5800"
       width="378"
       height="844.84998"
       x="185"
       y="167.51218"
       ry="26.519955" />
    <rect
       style="fill:#535d6c;fill-opacity:1;fill-rule:nonzero;stroke:none"
       id="rect6310"
       width="438"
       height="98"
       x="155"
       y="132.36218"
       ry="26.519955" />
    <rect
       style="fill:#535d6c;fill-opacity:1;fill-rule:nonzero;stroke:none"
       id="rect6312"
       width="59"
       height="76"
       x="187"
       y="79.362183"
       ry="14.519955" />
    <rect
       style="fill:#535d6c;fill-opacity:1;fill-rule:nonzero;stroke:none"
       id="rect6312-0"
       width="59"
       height="76"
       x="252.25"
       y="182.36218"
       ry="14.519955" />
    <rect
       style="fill:#535d6c;fill-opacity:1;fill-rule:nonzero;stroke:none"
       id="rect6312-9-0"
       width="59"
       height="76"
       x="336.75"
       y="180.36218"
       ry="14.519955" />
    <rect
       style="fill:#535d6c;fill-opacity:1;fill-rule:nonzero;stroke:none"
       id="rect6312-9-2"
       width="59"
       height="76"
       x="287.75"
       y="73.362183"
       ry="14.519955" />
    <rect
       style="fill:#535d6c;fill-opacity:1;fill-rule:nonzero;stroke:none"
       id="rect6312-9-5"
       width="59"
       height="76"
       x="389.75"
       y="73.362183"
       ry="14.519955" />
    <rect
       style="fill:#535d6c;fill-opacity:1;fill-rule:nonzero;stroke:none"
       id="rect6312-9-1"
       width="59"
       height="76"
       x="492.75"
       y="73.362183"
       ry="14.519955" />
    <rect
       style="fill:#6f7c91;fill-opacity:1;fill-rule:nonzero;stroke:none"
       id="rect5800-4"
       width="378"
       height="844.84998"
       x="200"
       y="167.01221"
       ry="26.519955" />
    <rect
       style="fill:#6f7c91;fill-opacity:1;fill-rule:nonzero;stroke:none"
       id="rect6310-8"
       width="438"
       height="98"
       x="170"
       y="131.86218"
       ry="26.519955" />
    <rect
       style="fill:#6f7c91;fill-opacity:1;fill-rule:nonzero;stroke:none"
       id="rect6312-6"
       width="59"
       height="76"
       x="202"
       y="78.862198"
       ry="14.519955" />
    <rect
       style="fill:#6f7c91;fill-opacity:1;fill-rule:nonzero;stroke:none"
       id="rect6312-0-4"
       width="59"
       height="76"
       x="267.25"
       y="181.86218"
       ry="14.519955" />
    <rect
       style="fill:#6f7c91;fill-opacity:1;fill-rule:nonzero;stroke:none"
       id="rect6312-9-0-6"
       width="59"
       height="76"
       x="351.75"
       y="179.86218"
       ry="14.519955" />
    <rect
       style="fill:#6f7c91;fill-opacity:1;fill-rule:nonzero;stroke:none"
       id="rect6312-9-2-8"
       width="59"
       height="76"
       x="302.75"
       y="72.862198"
       ry="14.519955" />
    <rect
       style="fill:#6f7c91;fill-opacity:1;fill-rule:nonzero;stroke:none"
       id="rect6312-9-5-9"
       width="59"
       height="76"
       x="404.75"
       y="72.862198"
       ry="14.519955" />
    <rect
       style="fill:#6f7c91;fill-opacity:1;fill-rule:nonzero;stroke:none"
       id="rect6312-9-1-8"
       width="59"
       height="76"
       x="507.75"
       y="72.862198"
       ry="14.519955" />
  </g>
  <g
     inkscape:groupmode="layer"
     id="layer4"
     inkscape:label="stone"
     style="opacity:0.98000004"
     sodipodi:insensitive="true">
    <path
       sodipodi:type="arc"
       style="fill:#535d6c;fill-opacity:1;fill-rule:nonzero;stroke:none"
       id="path6419-1"
       sodipodi:cx="283"
       sodipodi:cy="263.86218"
       sodipodi:rx="71"
       sodipodi:ry="32.5"
       d="m 354,263.86218 a 71,32.5 0 1 1 -142,0 71,32.5 0 1 1 142,0 z"
       transform="matrix(0.66197183,0,0,0.75384615,109.16197,116.32569)" />
    <path
       sodipodi:type="arc"
       style="fill:#535d6c;fill-opacity:1;fill-rule:nonzero;stroke:none"
       id="path6419-3-55"
       sodipodi:cx="283"
       sodipodi:cy="263.86218"
       sodipodi:rx="71"
       sodipodi:ry="32.5"
       d="m 354,263.86218 a 71,32.5 0 1 1 -142,0 71,32.5 0 1 1 142,0 z"
       transform="matrix(0.66197183,0,0,0.75384615,213.16197,115.82569)" />
    <path
       sodipodi:type="arc"
       style="fill:#535d6c;fill-opacity:1;fill-rule:nonzero;stroke:none"
       id="path6419-5-8"
       sodipodi:cx="283"
       sodipodi:cy="263.86218"
       sodipodi:rx="71"
       sodipodi:ry="32.5"
       d="m 354,263.86218 a 71,32.5 0 1 1 -142,0 71,32.5 0 1 1 142,0 z"
       transform="matrix(0.66197183,0,0,0.75384615,212.16197,115.07569)" />
    <path
       sodipodi:type="arc"
       style="fill:#535d6c;fill-opacity:1;fill-rule:nonzero;stroke:none"
       id="path6419-3-5-4"
       sodipodi:cx="283"
       sodipodi:cy="263.86218"
       sodipodi:rx="71"
       sodipodi:ry="32.5"
       d="m 354,263.86218 a 71,32.5 0 1 1 -142,0 71,32.5 0 1 1 142,0 z"
       transform="matrix(0.66197183,0,0,0.75384615,316.16197,114.57569)" />
    <path
       sodipodi:type="arc"
       style="fill:#535d6c;fill-opacity:1;fill-rule:nonzero;stroke:none"
       id="path6419-0"
       sodipodi:cx="283"
       sodipodi:cy="263.86218"
       sodipodi:rx="71"
       sodipodi:ry="32.5"
       d="m 354,263.86218 a 71,32.5 0 1 1 -142,0 71,32.5 0 1 1 142,0 z"
       transform="matrix(0.66197183,0,0,0.75384615,65.16197,174.32569)" />
    <path
       sodipodi:type="arc"
       style="fill:#535d6c;fill-opacity:1;fill-rule:nonzero;stroke:none"
       id="path6419-3-54"
       sodipodi:cx="283"
       sodipodi:cy="263.86218"
       sodipodi:rx="71"
       sodipodi:ry="32.5"
       d="m 354,263.86218 a 71,32.5 0 1 1 -142,0 71,32.5 0 1 1 142,0 z"
       transform="matrix(0.66197183,0,0,0.75384615,169.16197,173.82569)" />
    <path
       sodipodi:type="arc"
       style="fill:#535d6c;fill-opacity:1;fill-rule:nonzero;stroke:none"
       id="path6419-5-7"
       sodipodi:cx="283"
       sodipodi:cy="263.86218"
       sodipodi:rx="71"
       sodipodi:ry="32.5"
       d="m 354,263.86218 a 71,32.5 0 1 1 -142,0 71,32.5 0 1 1 142,0 z"
       transform="matrix(0.66197183,0,0,0.75384615,168.16197,173.07569)" />
    <path
       sodipodi:type="arc"
       style="fill:#535d6c;fill-opacity:1;fill-rule:nonzero;stroke:none"
       id="path6419-3-5-2"
       sodipodi:cx="283"
       sodipodi:cy="263.86218"
       sodipodi:rx="71"
       sodipodi:ry="32.5"
       d="m 354,263.86218 a 71,32.5 0 1 1 -142,0 71,32.5 0 1 1 142,0 z"
       transform="matrix(0.66197183,0,0,0.75384615,272.16197,172.57569)" />
    <path
       sodipodi:type="arc"
       style="fill:#535d6c;fill-opacity:1;fill-rule:nonzero;stroke:none"
       id="path6419-1-1"
       sodipodi:cx="283"
       sodipodi:cy="263.86218"
       sodipodi:rx="71"
       sodipodi:ry="32.5"
       d="m 354,263.86218 a 71,32.5 0 1 1 -142,0 71,32.5 0 1 1 142,0 z"
       transform="matrix(0.66197183,0,0,0.75384615,115.16197,227.32569)" />
    <path
       sodipodi:type="arc"
       style="fill:#535d6c;fill-opacity:1;fill-rule:nonzero;stroke:none"
       id="path6419-3-55-4"
       sodipodi:cx="283"
       sodipodi:cy="263.86218"
       sodipodi:rx="71"
       sodipodi:ry="32.5"
       d="m 354,263.86218 a 71,32.5 0 1 1 -142,0 71,32.5 0 1 1 142,0 z"
       transform="matrix(0.66197183,0,0,0.75384615,219.16197,226.82569)" />
    <path
       sodipodi:type="arc"
       style="fill:#535d6c;fill-opacity:1;fill-rule:nonzero;stroke:none"
       id="path6419-5-8-9"
       sodipodi:cx="283"
       sodipodi:cy="263.86218"
       sodipodi:rx="71"
       sodipodi:ry="32.5"
       d="m 354,263.86218 a 71,32.5 0 1 1 -142,0 71,32.5 0 1 1 142,0 z"
       transform="matrix(0.66197183,0,0,0.75384615,218.16197,226.07569)" />
    <path
       sodipodi:type="arc"
       style="fill:#535d6c;fill-opacity:1;fill-rule:nonzero;stroke:none"
       id="path6419-3-5-4-9"
       sodipodi:cx="283"
       sodipodi:cy="263.86218"
       sodipodi:rx="71"
       sodipodi:ry="32.5"
       d="m 354,263.86218 a 71,32.5 0 1 1 -142,0 71,32.5 0 1 1 142,0 z"
       transform="matrix(0.66197183,0,0,0.75384615,322.16197,225.57569)" />
    <path
       sodipodi:type="arc"
       style="fill:#535d6c;fill-opacity:1;fill-rule:nonzero;stroke:none"
       id="path6419-1-5"
       sodipodi:cx="283"
       sodipodi:cy="263.86218"
       sodipodi:rx="71"
       sodipodi:ry="32.5"
       d="m 354,263.86218 a 71,32.5 0 1 1 -142,0 71,32.5 0 1 1 142,0 z"
       transform="matrix(0.66197183,0,0,0.75384615,108.16197,684.32569)" />
    <path
       sodipodi:type="arc"
       style="fill:#535d6c;fill-opacity:1;fill-rule:nonzero;stroke:none"
       id="path6419-3-55-0"
       sodipodi:cx="283"
       sodipodi:cy="263.86218"
       sodipodi:rx="71"
       sodipodi:ry="32.5"
       d="m 354,263.86218 a 71,32.5 0 1 1 -142,0 71,32.5 0 1 1 142,0 z"
       transform="matrix(0.66197183,0,0,0.75384615,212.16197,683.82569)" />
    <path
       sodipodi:type="arc"
       style="fill:#535d6c;fill-opacity:1;fill-rule:nonzero;stroke:none"
       id="path6419-5-8-7"
       sodipodi:cx="283"
       sodipodi:cy="263.86218"
       sodipodi:rx="71"
       sodipodi:ry="32.5"
       d="m 354,263.86218 a 71,32.5 0 1 1 -142,0 71,32.5 0 1 1 142,0 z"
       transform="matrix(0.66197183,0,0,0.75384615,211.16197,683.07569)" />
    <path
       sodipodi:type="arc"
       style="fill:#535d6c;fill-opacity:1;fill-rule:nonzero;stroke:none"
       id="path6419-3-5-4-6"
       sodipodi:cx="283"
       sodipodi:cy="263.86218"
       sodipodi:rx="71"
       sodipodi:ry="32.5"
       d="m 354,263.86218 a 71,32.5 0 1 1 -142,0 71,32.5 0 1 1 142,0 z"
       transform="matrix(0.66197183,0,0,0.75384615,315.16197,682.57569)" />
    <path
       sodipodi:type="arc"
       style="fill:#535d6c;fill-opacity:1;fill-rule:nonzero;stroke:none"
       id="path6419-0-7"
       sodipodi:cx="283"
       sodipodi:cy="263.86218"
       sodipodi:rx="71"
       sodipodi:ry="32.5"
       d="m 354,263.86218 a 71,32.5 0 1 1 -142,0 71,32.5 0 1 1 142,0 z"
       transform="matrix(0.66197183,0,0,0.75384615,64.16197,742.32569)" />
    <path
       sodipodi:type="arc"
       style="fill:#535d6c;fill-opacity:1;fill-rule:nonzero;stroke:none"
       id="path6419-3-54-8"
       sodipodi:cx="283"
       sodipodi:cy="263.86218"
       sodipodi:rx="71"
       sodipodi:ry="32.5"
       d="m 354,263.86218 a 71,32.5 0 1 1 -142,0 71,32.5 0 1 1 142,0 z"
       transform="matrix(0.66197183,0,0,0.75384615,168.16197,741.82569)" />
    <path
       sodipodi:type="arc"
       style="fill:#535d6c;fill-opacity:1;fill-rule:nonzero;stroke:none"
       id="path6419-5-7-3"
       sodipodi:cx="283"
       sodipodi:cy="263.86218"
       sodipodi:rx="71"
       sodipodi:ry="32.5"
       d="m 354,263.86218 a 71,32.5 0 1 1 -142,0 71,32.5 0 1 1 142,0 z"
       transform="matrix(0.66197183,0,0,0.75384615,167.16197,741.07569)" />
    <path
       sodipodi:type="arc"
       style="fill:#535d6c;fill-opacity:1;fill-rule:nonzero;stroke:none"
       id="path6419-3-5-2-6"
       sodipodi:cx="283"
       sodipodi:cy="263.86218"
       sodipodi:rx="71"
       sodipodi:ry="32.5"
       d="m 354,263.86218 a 71,32.5 0 1 1 -142,0 71,32.5 0 1 1 142,0 z"
       transform="matrix(0.66197183,0,0,0.75384615,271.16197,740.57569)" />
    <path
       sodipodi:type="arc"
       style="fill:#535d6c;fill-opacity:1;fill-rule:nonzero;stroke:none"
       id="path6419-1-4"
       sodipodi:cx="283"
       sodipodi:cy="263.86218"
       sodipodi:rx="71"
       sodipodi:ry="32.5"
       d="m 354,263.86218 a 71,32.5 0 1 1 -142,0 71,32.5 0 1 1 142,0 z"
       transform="matrix(0.66197183,0,0,0.75384615,105.16197,572.32569)" />
    <path
       sodipodi:type="arc"
       style="fill:#535d6c;fill-opacity:1;fill-rule:nonzero;stroke:none"
       id="path6419-3-55-41"
       sodipodi:cx="283"
       sodipodi:cy="263.86218"
       sodipodi:rx="71"
       sodipodi:ry="32.5"
       d="m 354,263.86218 a 71,32.5 0 1 1 -142,0 71,32.5 0 1 1 142,0 z"
       transform="matrix(0.66197183,0,0,0.75384615,209.16197,571.82569)" />
    <path
       sodipodi:type="arc"
       style="fill:#535d6c;fill-opacity:1;fill-rule:nonzero;stroke:none"
       id="path6419-5-8-95"
       sodipodi:cx="283"
       sodipodi:cy="263.86218"
       sodipodi:rx="71"
       sodipodi:ry="32.5"
       d="m 354,263.86218 a 71,32.5 0 1 1 -142,0 71,32.5 0 1 1 142,0 z"
       transform="matrix(0.66197183,0,0,0.75384615,208.16197,571.07569)" />
    <path
       sodipodi:type="arc"
       style="fill:#535d6c;fill-opacity:1;fill-rule:nonzero;stroke:none"
       id="path6419-3-5-4-5"
       sodipodi:cx="283"
       sodipodi:cy="263.86218"
       sodipodi:rx="71"
       sodipodi:ry="32.5"
       d="m 354,263.86218 a 71,32.5 0 1 1 -142,0 71,32.5 0 1 1 142,0 z"
       transform="matrix(0.66197183,0,0,0.75384615,312.16197,570.57569)" />
    <path
       sodipodi:type="arc"
       style="fill:#535d6c;fill-opacity:1;fill-rule:nonzero;stroke:none"
       id="path6419-0-74"
       sodipodi:cx="283"
       sodipodi:cy="263.86218"
       sodipodi:rx="71"
       sodipodi:ry="32.5"
       d="m 354,263.86218 a 71,32.5 0 1 1 -142,0 71,32.5 0 1 1 142,0 z"
       transform="matrix(0.66197183,0,0,0.75384615,61.16197,630.32569)" />
    <path
       sodipodi:type="arc"
       style="fill:#535d6c;fill-opacity:1;fill-rule:nonzero;stroke:none"
       id="path6419-3-54-7"
       sodipodi:cx="283"
       sodipodi:cy="263.86218"
       sodipodi:rx="71"
       sodipodi:ry="32.5"
       d="m 354,263.86218 a 71,32.5 0 1 1 -142,0 71,32.5 0 1 1 142,0 z"
       transform="matrix(0.66197183,0,0,0.75384615,165.16197,629.82569)" />
    <path
       sodipodi:type="arc"
       style="fill:#535d6c;fill-opacity:1;fill-rule:nonzero;stroke:none"
       id="path6419-5-7-34"
       sodipodi:cx="283"
       sodipodi:cy="263.86218"
       sodipodi:rx="71"
       sodipodi:ry="32.5"
       d="m 354,263.86218 a 71,32.5 0 1 1 -142,0 71,32.5 0 1 1 142,0 z"
       transform="matrix(0.66197183,0,0,0.75384615,164.16197,629.07569)" />
    <path
       sodipodi:type="arc"
       style="fill:#535d6c;fill-opacity:1;fill-rule:nonzero;stroke:none"
       id="path6419-3-5-2-0"
       sodipodi:cx="283"
       sodipodi:cy="263.86218"
       sodipodi:rx="71"
       sodipodi:ry="32.5"
       d="m 354,263.86218 a 71,32.5 0 1 1 -142,0 71,32.5 0 1 1 142,0 z"
       transform="matrix(0.66197183,0,0,0.75384615,268.16197,628.57569)" />
    <path
       sodipodi:type="arc"
       style="fill:#535d6c;fill-opacity:1;fill-rule:nonzero;stroke:none"
       id="path6419-1-8"
       sodipodi:cx="283"
       sodipodi:cy="263.86218"
       sodipodi:rx="71"
       sodipodi:ry="32.5"
       d="m 354,263.86218 a 71,32.5 0 1 1 -142,0 71,32.5 0 1 1 142,0 z"
       transform="matrix(0.66197183,0,0,0.75384615,108.16197,459.32569)" />
    <path
       sodipodi:type="arc"
       style="fill:#535d6c;fill-opacity:1;fill-rule:nonzero;stroke:none"
       id="path6419-3-55-8"
       sodipodi:cx="283"
       sodipodi:cy="263.86218"
       sodipodi:rx="71"
       sodipodi:ry="32.5"
       d="m 354,263.86218 a 71,32.5 0 1 1 -142,0 71,32.5 0 1 1 142,0 z"
       transform="matrix(0.66197183,0,0,0.75384615,212.16197,458.82569)" />
    <path
       sodipodi:type="arc"
       style="fill:#535d6c;fill-opacity:1;fill-rule:nonzero;stroke:none"
       id="path6419-5-8-1"
       sodipodi:cx="283"
       sodipodi:cy="263.86218"
       sodipodi:rx="71"
       sodipodi:ry="32.5"
       d="m 354,263.86218 a 71,32.5 0 1 1 -142,0 71,32.5 0 1 1 142,0 z"
       transform="matrix(0.66197183,0,0,0.75384615,211.16197,458.07569)" />
    <path
       sodipodi:type="arc"
       style="fill:#535d6c;fill-opacity:1;fill-rule:nonzero;stroke:none"
       id="path6419-3-5-4-52"
       sodipodi:cx="283"
       sodipodi:cy="263.86218"
       sodipodi:rx="71"
       sodipodi:ry="32.5"
       d="m 354,263.86218 a 71,32.5 0 1 1 -142,0 71,32.5 0 1 1 142,0 z"
       transform="matrix(0.66197183,0,0,0.75384615,315.16197,457.57569)" />
    <path
       sodipodi:type="arc"
       style="fill:#535d6c;fill-opacity:1;fill-rule:nonzero;stroke:none"
       id="path6419-0-3"
       sodipodi:cx="283"
       sodipodi:cy="263.86218"
       sodipodi:rx="71"
       sodipodi:ry="32.5"
       d="m 354,263.86218 a 71,32.5 0 1 1 -142,0 71,32.5 0 1 1 142,0 z"
       transform="matrix(0.66197183,0,0,0.75384615,64.16197,517.32569)" />
    <path
       sodipodi:type="arc"
       style="fill:#535d6c;fill-opacity:1;fill-rule:nonzero;stroke:none"
       id="path6419-3-54-2"
       sodipodi:cx="283"
       sodipodi:cy="263.86218"
       sodipodi:rx="71"
       sodipodi:ry="32.5"
       d="m 354,263.86218 a 71,32.5 0 1 1 -142,0 71,32.5 0 1 1 142,0 z"
       transform="matrix(0.66197183,0,0,0.75384615,168.16197,516.82569)" />
    <path
       sodipodi:type="arc"
       style="fill:#535d6c;fill-opacity:1;fill-rule:nonzero;stroke:none"
       id="path6419-5-7-4"
       sodipodi:cx="283"
       sodipodi:cy="263.86218"
       sodipodi:rx="71"
       sodipodi:ry="32.5"
       d="m 354,263.86218 a 71,32.5 0 1 1 -142,0 71,32.5 0 1 1 142,0 z"
       transform="matrix(0.66197183,0,0,0.75384615,167.16197,516.07569)" />
    <path
       sodipodi:type="arc"
       style="fill:#535d6c;fill-opacity:1;fill-rule:nonzero;stroke:none"
       id="path6419-3-5-2-66"
       sodipodi:cx="283"
       sodipodi:cy="263.86218"
       sodipodi:rx="71"
       sodipodi:ry="32.5"
       d="m 354,263.86218 a 71,32.5 0 1 1 -142,0 71,32.5 0 1 1 142,0 z"
       transform="matrix(0.66197183,0,0,0.75384615,271.16197,515.57569)" />
    <path
       sodipodi:type="arc"
       style="fill:#535d6c;fill-opacity:1;fill-rule:nonzero;stroke:none"
       id="path6419-1-6"
       sodipodi:cx="283"
       sodipodi:cy="263.86218"
       sodipodi:rx="71"
       sodipodi:ry="32.5"
       d="m 354,263.86218 a 71,32.5 0 1 1 -142,0 71,32.5 0 1 1 142,0 z"
       transform="matrix(0.66197183,0,0,0.75384615,65.161971,63.325692)" />
    <path
       sodipodi:type="arc"
       style="fill:#535d6c;fill-opacity:1;fill-rule:nonzero;stroke:none"
       id="path6419-3-55-2"
       sodipodi:cx="283"
       sodipodi:cy="263.86218"
       sodipodi:rx="71"
       sodipodi:ry="32.5"
       d="m 354,263.86218 a 71,32.5 0 1 1 -142,0 71,32.5 0 1 1 142,0 z"
       transform="matrix(0.66197183,0,0,0.75384615,169.16197,62.825692)" />
    <path
       sodipodi:type="arc"
       style="fill:#535d6c;fill-opacity:1;fill-rule:nonzero;stroke:none"
       id="path6419-5-8-90"
       sodipodi:cx="283"
       sodipodi:cy="263.86218"
       sodipodi:rx="71"
       sodipodi:ry="32.5"
       d="m 354,263.86218 a 71,32.5 0 1 1 -142,0 71,32.5 0 1 1 142,0 z"
       transform="matrix(0.66197183,0,0,0.75384615,168.16197,62.075692)" />
    <path
       sodipodi:type="arc"
       style="fill:#535d6c;fill-opacity:1;fill-rule:nonzero;stroke:none"
       id="path6419-3-5-4-4"
       sodipodi:cx="283"
       sodipodi:cy="263.86218"
       sodipodi:rx="71"
       sodipodi:ry="32.5"
       d="m 354,263.86218 a 71,32.5 0 1 1 -142,0 71,32.5 0 1 1 142,0 z"
       transform="matrix(0.66197183,0,0,0.75384615,272.16197,61.575692)" />
    <path
       sodipodi:type="arc"
       style="fill:#6f7c91;fill-opacity:1;fill-rule:nonzero;stroke:none"
       id="path6419-1-9"
       sodipodi:cx="283"
       sodipodi:cy="263.86218"
       sodipodi:rx="71"
       sodipodi:ry="32.5"
       d="m 354,263.86218 a 71,32.5 0 1 1 -142,0 71,32.5 0 1 1 142,0 z"
       transform="matrix(0.66197183,0,0,0.75384615,108.16197,108.82569)" />
    <path
       sodipodi:type="arc"
       style="fill:#6f7c91;fill-opacity:1;fill-rule:nonzero;stroke:none"
       id="path6419-3-55-3"
       sodipodi:cx="283"
       sodipodi:cy="263.86218"
       sodipodi:rx="71"
       sodipodi:ry="32.5"
       d="m 354,263.86218 a 71,32.5 0 1 1 -142,0 71,32.5 0 1 1 142,0 z"
       transform="matrix(0.66197183,0,0,0.75384615,212.16197,108.32569)" />
    <path
       sodipodi:type="arc"
       style="fill:#6f7c91;fill-opacity:1;fill-rule:nonzero;stroke:none"
       id="path6419-5-8-11"
       sodipodi:cx="283"
       sodipodi:cy="263.86218"
       sodipodi:rx="71"
       sodipodi:ry="32.5"
       d="m 354,263.86218 a 71,32.5 0 1 1 -142,0 71,32.5 0 1 1 142,0 z"
       transform="matrix(0.66197183,0,0,0.75384615,211.16197,107.57569)" />
    <path
       sodipodi:type="arc"
       style="fill:#6f7c91;fill-opacity:1;fill-rule:nonzero;stroke:none"
       id="path6419-3-5-4-99"
       sodipodi:cx="283"
       sodipodi:cy="263.86218"
       sodipodi:rx="71"
       sodipodi:ry="32.5"
       d="m 354,263.86218 a 71,32.5 0 1 1 -142,0 71,32.5 0 1 1 142,0 z"
       transform="matrix(0.66197183,0,0,0.75384615,315.16197,107.07569)" />
    <path
       sodipodi:type="arc"
       style="fill:#6f7c91;fill-opacity:1;fill-rule:nonzero;stroke:none"
       id="path6419-0-5"
       sodipodi:cx="283"
       sodipodi:cy="263.86218"
       sodipodi:rx="71"
       sodipodi:ry="32.5"
       d="m 354,263.86218 a 71,32.5 0 1 1 -142,0 71,32.5 0 1 1 142,0 z"
       transform="matrix(0.66197183,0,0,0.75384615,64.16197,166.82569)" />
    <path
       sodipodi:type="arc"
       style="fill:#6f7c91;fill-opacity:1;fill-rule:nonzero;stroke:none"
       id="path6419-3-54-5"
       sodipodi:cx="283"
       sodipodi:cy="263.86218"
       sodipodi:rx="71"
       sodipodi:ry="32.5"
       d="m 354,263.86218 a 71,32.5 0 1 1 -142,0 71,32.5 0 1 1 142,0 z"
       transform="matrix(0.66197183,0,0,0.75384615,168.16197,166.32569)" />
    <path
       sodipodi:type="arc"
       style="fill:#6f7c91;fill-opacity:1;fill-rule:nonzero;stroke:none"
       id="path6419-5-7-5"
       sodipodi:cx="283"
       sodipodi:cy="263.86218"
       sodipodi:rx="71"
       sodipodi:ry="32.5"
       d="m 354,263.86218 a 71,32.5 0 1 1 -142,0 71,32.5 0 1 1 142,0 z"
       transform="matrix(0.66197183,0,0,0.75384615,167.16197,165.57569)" />
    <path
       sodipodi:type="arc"
       style="fill:#6f7c91;fill-opacity:1;fill-rule:nonzero;stroke:none"
       id="path6419-3-5-2-60"
       sodipodi:cx="283"
       sodipodi:cy="263.86218"
       sodipodi:rx="71"
       sodipodi:ry="32.5"
       d="m 354,263.86218 a 71,32.5 0 1 1 -142,0 71,32.5 0 1 1 142,0 z"
       transform="matrix(0.66197183,0,0,0.75384615,271.16197,165.07569)" />
    <path
       sodipodi:type="arc"
       style="fill:#6f7c91;fill-opacity:1;fill-rule:nonzero;stroke:none"
       id="path6419-1-1-5"
       sodipodi:cx="283"
       sodipodi:cy="263.86218"
       sodipodi:rx="71"
       sodipodi:ry="32.5"
       d="m 354,263.86218 a 71,32.5 0 1 1 -142,0 71,32.5 0 1 1 142,0 z"
       transform="matrix(0.66197183,0,0,0.75384615,114.16197,219.82569)" />
    <path
       sodipodi:type="arc"
       style="fill:#6f7c91;fill-opacity:1;fill-rule:nonzero;stroke:none"
       id="path6419-3-55-4-9"
       sodipodi:cx="283"
       sodipodi:cy="263.86218"
       sodipodi:rx="71"
       sodipodi:ry="32.5"
       d="m 354,263.86218 a 71,32.5 0 1 1 -142,0 71,32.5 0 1 1 142,0 z"
       transform="matrix(0.66197183,0,0,0.75384615,218.16197,219.32569)" />
    <path
       sodipodi:type="arc"
       style="fill:#6f7c91;fill-opacity:1;fill-rule:nonzero;stroke:none"
       id="path6419-5-8-9-4"
       sodipodi:cx="283"
       sodipodi:cy="263.86218"
       sodipodi:rx="71"
       sodipodi:ry="32.5"
       d="m 354,263.86218 a 71,32.5 0 1 1 -142,0 71,32.5 0 1 1 142,0 z"
       transform="matrix(0.66197183,0,0,0.75384615,217.16197,218.57569)" />
    <path
       sodipodi:type="arc"
       style="fill:#6f7c91;fill-opacity:1;fill-rule:nonzero;stroke:none"
       id="path6419-3-5-4-9-6"
       sodipodi:cx="283"
       sodipodi:cy="263.86218"
       sodipodi:rx="71"
       sodipodi:ry="32.5"
       d="m 354,263.86218 a 71,32.5 0 1 1 -142,0 71,32.5 0 1 1 142,0 z"
       transform="matrix(0.66197183,0,0,0.75384615,321.16197,218.07569)" />
    <path
       sodipodi:type="arc"
       style="fill:#6f7c91;fill-opacity:1;fill-rule:nonzero;stroke:none"
       id="path6419-1-5-3"
       sodipodi:cx="283"
       sodipodi:cy="263.86218"
       sodipodi:rx="71"
       sodipodi:ry="32.5"
       d="m 354,263.86218 a 71,32.5 0 1 1 -142,0 71,32.5 0 1 1 142,0 z"
       transform="matrix(0.66197183,0,0,0.75384615,107.16197,676.82569)" />
    <path
       sodipodi:type="arc"
       style="fill:#6f7c91;fill-opacity:1;fill-rule:nonzero;stroke:none"
       id="path6419-3-55-0-4"
       sodipodi:cx="283"
       sodipodi:cy="263.86218"
       sodipodi:rx="71"
       sodipodi:ry="32.5"
       d="m 354,263.86218 a 71,32.5 0 1 1 -142,0 71,32.5 0 1 1 142,0 z"
       transform="matrix(0.66197183,0,0,0.75384615,211.16197,676.32569)" />
    <path
       sodipodi:type="arc"
       style="fill:#6f7c91;fill-opacity:1;fill-rule:nonzero;stroke:none"
       id="path6419-5-8-7-9"
       sodipodi:cx="283"
       sodipodi:cy="263.86218"
       sodipodi:rx="71"
       sodipodi:ry="32.5"
       d="m 354,263.86218 a 71,32.5 0 1 1 -142,0 71,32.5 0 1 1 142,0 z"
       transform="matrix(0.66197183,0,0,0.75384615,210.16197,675.57569)" />
    <path
       sodipodi:type="arc"
       style="fill:#6f7c91;fill-opacity:1;fill-rule:nonzero;stroke:none"
       id="path6419-3-5-4-6-0"
       sodipodi:cx="283"
       sodipodi:cy="263.86218"
       sodipodi:rx="71"
       sodipodi:ry="32.5"
       d="m 354,263.86218 a 71,32.5 0 1 1 -142,0 71,32.5 0 1 1 142,0 z"
       transform="matrix(0.66197183,0,0,0.75384615,314.16197,675.07569)" />
    <path
       sodipodi:type="arc"
       style="fill:#6f7c91;fill-opacity:1;fill-rule:nonzero;stroke:none"
       id="path6419-0-7-5"
       sodipodi:cx="283"
       sodipodi:cy="263.86218"
       sodipodi:rx="71"
       sodipodi:ry="32.5"
       d="m 354,263.86218 a 71,32.5 0 1 1 -142,0 71,32.5 0 1 1 142,0 z"
       transform="matrix(0.66197183,0,0,0.75384615,63.16197,734.8257)" />
    <path
       sodipodi:type="arc"
       style="fill:#6f7c91;fill-opacity:1;fill-rule:nonzero;stroke:none"
       id="path6419-3-54-8-3"
       sodipodi:cx="283"
       sodipodi:cy="263.86218"
       sodipodi:rx="71"
       sodipodi:ry="32.5"
       d="m 354,263.86218 a 71,32.5 0 1 1 -142,0 71,32.5 0 1 1 142,0 z"
       transform="matrix(0.66197183,0,0,0.75384615,167.16197,734.3257)" />
    <path
       sodipodi:type="arc"
       style="fill:#6f7c91;fill-opacity:1;fill-rule:nonzero;stroke:none"
       id="path6419-5-7-3-9"
       sodipodi:cx="283"
       sodipodi:cy="263.86218"
       sodipodi:rx="71"
       sodipodi:ry="32.5"
       d="m 354,263.86218 a 71,32.5 0 1 1 -142,0 71,32.5 0 1 1 142,0 z"
       transform="matrix(0.66197183,0,0,0.75384615,166.16197,733.5757)" />
    <path
       sodipodi:type="arc"
       style="fill:#6f7c91;fill-opacity:1;fill-rule:nonzero;stroke:none"
       id="path6419-3-5-2-6-1"
       sodipodi:cx="283"
       sodipodi:cy="263.86218"
       sodipodi:rx="71"
       sodipodi:ry="32.5"
       d="m 354,263.86218 a 71,32.5 0 1 1 -142,0 71,32.5 0 1 1 142,0 z"
       transform="matrix(0.66197183,0,0,0.75384615,270.16197,733.0757)" />
    <path
       sodipodi:type="arc"
       style="fill:#6f7c91;fill-opacity:1;fill-rule:nonzero;stroke:none"
       id="path6419-1-4-2"
       sodipodi:cx="283"
       sodipodi:cy="263.86218"
       sodipodi:rx="71"
       sodipodi:ry="32.5"
       d="m 354,263.86218 a 71,32.5 0 1 1 -142,0 71,32.5 0 1 1 142,0 z"
       transform="matrix(0.66197183,0,0,0.75384615,104.16197,564.82569)" />
    <path
       sodipodi:type="arc"
       style="fill:#6f7c91;fill-opacity:1;fill-rule:nonzero;stroke:none"
       id="path6419-3-55-41-8"
       sodipodi:cx="283"
       sodipodi:cy="263.86218"
       sodipodi:rx="71"
       sodipodi:ry="32.5"
       d="m 354,263.86218 a 71,32.5 0 1 1 -142,0 71,32.5 0 1 1 142,0 z"
       transform="matrix(0.66197183,0,0,0.75384615,208.16197,564.32569)" />
    <path
       sodipodi:type="arc"
       style="fill:#6f7c91;fill-opacity:1;fill-rule:nonzero;stroke:none"
       id="path6419-5-8-95-8"
       sodipodi:cx="283"
       sodipodi:cy="263.86218"
       sodipodi:rx="71"
       sodipodi:ry="32.5"
       d="m 354,263.86218 a 71,32.5 0 1 1 -142,0 71,32.5 0 1 1 142,0 z"
       transform="matrix(0.66197183,0,0,0.75384615,207.16197,563.57569)" />
    <path
       sodipodi:type="arc"
       style="fill:#6f7c91;fill-opacity:1;fill-rule:nonzero;stroke:none"
       id="path6419-3-5-4-5-1"
       sodipodi:cx="283"
       sodipodi:cy="263.86218"
       sodipodi:rx="71"
       sodipodi:ry="32.5"
       d="m 354,263.86218 a 71,32.5 0 1 1 -142,0 71,32.5 0 1 1 142,0 z"
       transform="matrix(0.66197183,0,0,0.75384615,311.16197,563.07569)" />
    <path
       sodipodi:type="arc"
       style="fill:#6f7c91;fill-opacity:1;fill-rule:nonzero;stroke:none"
       id="path6419-0-74-8"
       sodipodi:cx="283"
       sodipodi:cy="263.86218"
       sodipodi:rx="71"
       sodipodi:ry="32.5"
       d="m 354,263.86218 a 71,32.5 0 1 1 -142,0 71,32.5 0 1 1 142,0 z"
       transform="matrix(0.66197183,0,0,0.75384615,60.16197,622.82569)" />
    <path
       sodipodi:type="arc"
       style="fill:#6f7c91;fill-opacity:1;fill-rule:nonzero;stroke:none"
       id="path6419-3-54-7-6"
       sodipodi:cx="283"
       sodipodi:cy="263.86218"
       sodipodi:rx="71"
       sodipodi:ry="32.5"
       d="m 354,263.86218 a 71,32.5 0 1 1 -142,0 71,32.5 0 1 1 142,0 z"
       transform="matrix(0.66197183,0,0,0.75384615,164.16197,622.32569)" />
    <path
       sodipodi:type="arc"
       style="fill:#6f7c91;fill-opacity:1;fill-rule:nonzero;stroke:none"
       id="path6419-5-7-34-0"
       sodipodi:cx="283"
       sodipodi:cy="263.86218"
       sodipodi:rx="71"
       sodipodi:ry="32.5"
       d="m 354,263.86218 a 71,32.5 0 1 1 -142,0 71,32.5 0 1 1 142,0 z"
       transform="matrix(0.66197183,0,0,0.75384615,163.16197,621.57569)" />
    <path
       sodipodi:type="arc"
       style="fill:#6f7c91;fill-opacity:1;fill-rule:nonzero;stroke:none"
       id="path6419-3-5-2-0-2"
       sodipodi:cx="283"
       sodipodi:cy="263.86218"
       sodipodi:rx="71"
       sodipodi:ry="32.5"
       d="m 354,263.86218 a 71,32.5 0 1 1 -142,0 71,32.5 0 1 1 142,0 z"
       transform="matrix(0.66197183,0,0,0.75384615,267.16197,621.07569)" />
    <path
       sodipodi:type="arc"
       style="fill:#6f7c91;fill-opacity:1;fill-rule:nonzero;stroke:none"
       id="path6419-1-8-4"
       sodipodi:cx="283"
       sodipodi:cy="263.86218"
       sodipodi:rx="71"
       sodipodi:ry="32.5"
       d="m 354,263.86218 a 71,32.5 0 1 1 -142,0 71,32.5 0 1 1 142,0 z"
       transform="matrix(0.66197183,0,0,0.75384615,107.16197,451.82569)" />
    <path
       sodipodi:type="arc"
       style="fill:#6f7c91;fill-opacity:1;fill-rule:nonzero;stroke:none"
       id="path6419-3-55-8-9"
       sodipodi:cx="283"
       sodipodi:cy="263.86218"
       sodipodi:rx="71"
       sodipodi:ry="32.5"
       d="m 354,263.86218 a 71,32.5 0 1 1 -142,0 71,32.5 0 1 1 142,0 z"
       transform="matrix(0.66197183,0,0,0.75384615,211.16197,451.32569)" />
    <path
       sodipodi:type="arc"
       style="fill:#6f7c91;fill-opacity:1;fill-rule:nonzero;stroke:none"
       id="path6419-5-8-1-0"
       sodipodi:cx="283"
       sodipodi:cy="263.86218"
       sodipodi:rx="71"
       sodipodi:ry="32.5"
       d="m 354,263.86218 a 71,32.5 0 1 1 -142,0 71,32.5 0 1 1 142,0 z"
       transform="matrix(0.66197183,0,0,0.75384615,210.16197,450.57569)" />
    <path
       sodipodi:type="arc"
       style="fill:#6f7c91;fill-opacity:1;fill-rule:nonzero;stroke:none"
       id="path6419-3-5-4-52-2"
       sodipodi:cx="283"
       sodipodi:cy="263.86218"
       sodipodi:rx="71"
       sodipodi:ry="32.5"
       d="m 354,263.86218 a 71,32.5 0 1 1 -142,0 71,32.5 0 1 1 142,0 z"
       transform="matrix(0.66197183,0,0,0.75384615,314.16197,450.07569)" />
    <path
       sodipodi:type="arc"
       style="fill:#6f7c91;fill-opacity:1;fill-rule:nonzero;stroke:none"
       id="path6419-0-3-2"
       sodipodi:cx="283"
       sodipodi:cy="263.86218"
       sodipodi:rx="71"
       sodipodi:ry="32.5"
       d="m 354,263.86218 a 71,32.5 0 1 1 -142,0 71,32.5 0 1 1 142,0 z"
       transform="matrix(0.66197183,0,0,0.75384615,63.16197,509.82569)" />
    <path
       sodipodi:type="arc"
       style="fill:#6f7c91;fill-opacity:1;fill-rule:nonzero;stroke:none"
       id="path6419-3-54-2-1"
       sodipodi:cx="283"
       sodipodi:cy="263.86218"
       sodipodi:rx="71"
       sodipodi:ry="32.5"
       d="m 354,263.86218 a 71,32.5 0 1 1 -142,0 71,32.5 0 1 1 142,0 z"
       transform="matrix(0.66197183,0,0,0.75384615,167.16197,509.32569)" />
    <path
       sodipodi:type="arc"
       style="fill:#6f7c91;fill-opacity:1;fill-rule:nonzero;stroke:none"
       id="path6419-5-7-4-5"
       sodipodi:cx="283"
       sodipodi:cy="263.86218"
       sodipodi:rx="71"
       sodipodi:ry="32.5"
       d="m 354,263.86218 a 71,32.5 0 1 1 -142,0 71,32.5 0 1 1 142,0 z"
       transform="matrix(0.66197183,0,0,0.75384615,166.16197,508.57569)" />
    <path
       sodipodi:type="arc"
       style="fill:#6f7c91;fill-opacity:1;fill-rule:nonzero;stroke:none"
       id="path6419-3-5-2-66-4"
       sodipodi:cx="283"
       sodipodi:cy="263.86218"
       sodipodi:rx="71"
       sodipodi:ry="32.5"
       d="m 354,263.86218 a 71,32.5 0 1 1 -142,0 71,32.5 0 1 1 142,0 z"
       transform="matrix(0.66197183,0,0,0.75384615,270.16197,508.07569)" />
    <path
       sodipodi:type="arc"
       style="fill:#6f7c91;fill-opacity:1;fill-rule:nonzero;stroke:none"
       id="path6419-1-6-4"
       sodipodi:cx="283"
       sodipodi:cy="263.86218"
       sodipodi:rx="71"
       sodipodi:ry="32.5"
       d="m 354,263.86218 a 71,32.5 0 1 1 -142,0 71,32.5 0 1 1 142,0 z"
       transform="matrix(0.66197183,0,0,0.75384615,64.16197,55.82569)" />
    <path
       sodipodi:type="arc"
       style="fill:#6f7c91;fill-opacity:1;fill-rule:nonzero;stroke:none"
       id="path6419-3-55-2-4"
       sodipodi:cx="283"
       sodipodi:cy="263.86218"
       sodipodi:rx="71"
       sodipodi:ry="32.5"
       d="m 354,263.86218 a 71,32.5 0 1 1 -142,0 71,32.5 0 1 1 142,0 z"
       transform="matrix(0.66197183,0,0,0.75384615,168.16197,55.32569)" />
    <path
       sodipodi:type="arc"
       style="fill:#6f7c91;fill-opacity:1;fill-rule:nonzero;stroke:none"
       id="path6419-5-8-90-2"
       sodipodi:cx="283"
       sodipodi:cy="263.86218"
       sodipodi:rx="71"
       sodipodi:ry="32.5"
       d="m 354,263.86218 a 71,32.5 0 1 1 -142,0 71,32.5 0 1 1 142,0 z"
       transform="matrix(0.66197183,0,0,0.75384615,167.16197,54.57569)" />
    <path
       sodipodi:type="arc"
       style="fill:#6f7c91;fill-opacity:1;fill-rule:nonzero;stroke:none"
       id="path6419-3-5-4-4-5"
       sodipodi:cx="283"
       sodipodi:cy="263.86218"
       sodipodi:rx="71"
       sodipodi:ry="32.5"
       d="m 354,263.86218 a 71,32.5 0 1 1 -142,0 71,32.5 0 1 1 142,0 z"
       transform="matrix(0.66197183,0,0,0.75384615,271.16197,54.07569)" />
    <path
       sodipodi:type="arc"
       style="fill:#535d6c;fill-opacity:1;fill-rule:nonzero;stroke:none"
       id="path6805"
       sodipodi:cx="392"
       sodipodi:cy="546.36218"
       sodipodi:rx="113"
       sodipodi:ry="89"
       d="M 504.99849,546.82303 A 113,89 0 0 1 279.00029,546.5652 L 392,546.36218 z"
       sodipodi:start="0.0051780757"
       sodipodi:end="3.1393116"
       transform="matrix(1,0,0,-1.9801404,0,1711.6449)" />
    <rect
       style="fill:#6f7c91;fill-opacity:1;fill-rule:nonzero;stroke:none"
       id="rect6809"
       width="224"
       height="20"
       x="279"
       y="606.36218"
       ry="10" />
  </g>
</svg>
