<?xml version="1.0" encoding="UTF-8" standalone="no"?>
<!-- Created with Inkscape (http://www.inkscape.org/) -->

<svg
   xmlns:dc="http://purl.org/dc/elements/1.1/"
   xmlns:cc="http://creativecommons.org/ns#"
   xmlns:rdf="http://www.w3.org/1999/02/22-rdf-syntax-ns#"
   xmlns:svg="http://www.w3.org/2000/svg"
   xmlns="http://www.w3.org/2000/svg"
   xmlns:sodipodi="http://sodipodi.sourceforge.net/DTD/sodipodi-0.dtd"
   xmlns:inkscape="http://www.inkscape.org/namespaces/inkscape"
   width="744.09448819"
   height="1052.3622047"
   id="svg4095"
   version="1.1"
   inkscape:version="0.48.5 r10040"
   sodipodi:docname="tree2.svg">
  <defs
     id="defs4097" />
  <sodipodi:namedview
     id="base"
     pagecolor="#ffffff"
     bordercolor="#666666"
     borderopacity="1.0"
     inkscape:pageopacity="0.0"
     inkscape:pageshadow="2"
     inkscape:zoom="0.98994949"
     inkscape:cx="375"
     inkscape:cy="513.06741"
     inkscape:document-units="px"
     inkscape:current-layer="layer1"
     showgrid="false"
     inkscape:window-width="1920"
     inkscape:window-height="1017"
     inkscape:window-x="-8"
     inkscape:window-y="-8"
     inkscape:window-maximized="1" />
  <metadata
     id="metadata4100">
    <rdf:RDF>
      <cc:Work
         rdf:about="">
        <dc:format>image/svg+xml</dc:format>
        <dc:type
           rdf:resource="http://purl.org/dc/dcmitype/StillImage" />
        <dc:title></dc:title>
      </cc:Work>
    </rdf:RDF>
  </metadata>
  <g
     inkscape:label="Layer 1"
     inkscape:groupmode="layer"
     id="layer1">
    <rect
       style="fill:#2b1100;fill-opacity:1;stroke:none"
       id="rect4103"
       width="77.781746"
       height="276.83517"
       x="263.64981"
       y="429.04468"
       rx="10.882771" />
    <rect
       style="fill:#552200;fill-opacity:1;stroke:none"
       id="rect4103-1"
       width="69.700523"
       height="271.14679"
       x="271.22595"
       y="433.785"
       rx="9.7520933" />
    <path
       sodipodi:type="arc"
       style="fill:#222b00;fill-opacity:1;stroke:none"
       id="path4123"
       sodipodi:cx="197.9899"
       sodipodi:cy="414.95593"
       sodipodi:rx="73.741135"
       sodipodi:ry="111.11678"
       d="m 271.73103,414.95593 a 73.741135,111.11678 0 1 1 -147.48227,0 73.741135,111.11678 0 1 1 147.48227,0 z"
       transform="matrix(0.88356167,0,0,0.58445272,52.853119,182.25626)" />
    <path
       sodipodi:type="arc"
       style="fill:#222b00;fill-opacity:1;stroke:none"
       id="path4123-7"
       sodipodi:cx="197.9899"
       sodipodi:cy="414.95593"
       sodipodi:rx="73.741135"
       sodipodi:ry="111.11678"
       d="m 271.73103,414.95593 a 73.741135,111.11678 0 1 1 -147.48227,0 73.741135,111.11678 0 1 1 147.48227,0 z"
       transform="matrix(0.88356167,0,0,0.58445272,114.97749,196.0032)" />
    <path
       sodipodi:type="arc"
       style="fill:#222b00;fill-opacity:1;stroke:none"
       id="path4123-4"
       sodipodi:cx="197.9899"
       sodipodi:cy="414.95593"
       sodipodi:rx="73.741135"
       sodipodi:ry="111.11678"
       d="m 271.73103,414.95593 a 73.741135,111.11678 0 1 1 -147.48227,0 73.741135,111.11678 0 1 1 147.48227,0 z"
       transform="matrix(0.88356167,0,0,0.58445272,110.17927,142.67451)" />
    <path
       sodipodi:type="arc"
       style="fill:#222b00;fill-opacity:1;stroke:none"
       id="path4123-7-0"
       sodipodi:cx="197.9899"
       sodipodi:cy="414.95593"
       sodipodi:rx="73.741135"
       sodipodi:ry="111.11678"
       d="m 271.73103,414.95593 a 73.741135,111.11678 0 1 1 -147.48227,0 73.741135,111.11678 0 1 1 147.48227,0 z"
       transform="matrix(0.88356167,0,0,0.58445272,172.30365,156.42146)" />
    <path
       sodipodi:type="arc"
       style="fill:#222b00;fill-opacity:1;stroke:none"
       id="path4123-9"
       sodipodi:cx="197.9899"
       sodipodi:cy="414.95593"
       sodipodi:rx="73.741135"
       sodipodi:ry="111.11678"
       d="m 271.73103,414.95593 a 73.741135,111.11678 0 1 1 -147.48227,0 73.741135,111.11678 0 1 1 147.48227,0 z"
       transform="matrix(-0.84061545,0.25539058,-0.19178491,-0.55604492,621.68795,600.42905)" />
    <path
       sodipodi:type="arc"
       style="fill:#222b00;fill-opacity:1;stroke:none"
       id="path4123-4-4"
       sodipodi:cx="197.9899"
       sodipodi:cy="414.95593"
       sodipodi:rx="73.741135"
       sodipodi:ry="111.11678"
       d="m 271.73103,414.95593 a 73.741135,111.11678 0 1 1 -147.48227,0 73.741135,111.11678 0 1 1 147.48227,0 z"
       transform="matrix(-0.84061545,0.25539058,-0.19178491,-0.55604492,580.1367,654.65683)" />
    <path
       sodipodi:type="arc"
       style="fill:#222b00;fill-opacity:1;stroke:none"
       id="path4123-7-0-8"
       sodipodi:cx="197.9899"
       sodipodi:cy="414.95593"
       sodipodi:rx="73.741135"
       sodipodi:ry="111.11678"
       d="m 271.73103,414.95593 a 73.741135,111.11678 0 1 1 -147.48227,0 73.741135,111.11678 0 1 1 147.48227,0 z"
       transform="matrix(-0.84061545,0.25539058,-0.19178491,-0.55604492,516.52094,659.53491)" />
    <path
       sodipodi:type="arc"
       style="fill:#445500;fill-opacity:1;stroke:none"
       id="path4123-8"
       sodipodi:cx="197.9899"
       sodipodi:cy="414.95593"
       sodipodi:rx="73.741135"
       sodipodi:ry="111.11678"
       d="m 271.73103,414.95593 a 73.741135,111.11678 0 1 1 -147.48227,0 73.741135,111.11678 0 1 1 147.48227,0 z"
       transform="matrix(0.82589718,0,0,0.56216201,77.289314,195.82631)" />
    <path
       sodipodi:type="arc"
       style="fill:#445500;fill-opacity:1;stroke:none"
       id="path4123-7-2"
       sodipodi:cx="197.9899"
       sodipodi:cy="414.95593"
       sodipodi:rx="73.741135"
       sodipodi:ry="111.11678"
       d="m 271.73103,414.95593 a 73.741135,111.11678 0 1 1 -147.48227,0 73.741135,111.11678 0 1 1 147.48227,0 z"
       transform="matrix(0.82589718,0,0,0.56216201,135.35923,209.04895)" />
    <path
       sodipodi:type="arc"
       style="fill:#445500;fill-opacity:1;stroke:none"
       id="path4123-4-45"
       sodipodi:cx="197.9899"
       sodipodi:cy="414.95593"
       sodipodi:rx="73.741135"
       sodipodi:ry="111.11678"
       d="m 271.73103,414.95593 a 73.741135,111.11678 0 1 1 -147.48227,0 73.741135,111.11678 0 1 1 147.48227,0 z"
       transform="matrix(0.82589718,0,0,0.56216201,130.87416,157.7542)" />
    <path
       sodipodi:type="arc"
       style="fill:#445500;fill-opacity:1;stroke:none"
       id="path4123-7-0-5"
       sodipodi:cx="197.9899"
       sodipodi:cy="414.95593"
       sodipodi:rx="73.741135"
       sodipodi:ry="111.11678"
       d="m 271.73103,414.95593 a 73.741135,111.11678 0 1 1 -147.48227,0 73.741135,111.11678 0 1 1 147.48227,0 z"
       transform="matrix(0.82589718,0,0,0.56216201,188.94407,170.97683)" />
    <path
       sodipodi:type="arc"
       style="fill:#445500;fill-opacity:1;stroke:none"
       id="path4123-9-1"
       sodipodi:cx="197.9899"
       sodipodi:cy="414.95593"
       sodipodi:rx="73.741135"
       sodipodi:ry="111.11678"
       d="m 271.73103,414.95593 a 73.741135,111.11678 0 1 1 -147.48227,0 73.741135,111.11678 0 1 1 147.48227,0 z"
       transform="matrix(-0.78575379,0.24565012,-0.17926832,-0.53483767,608.9999,598.05022)" />
    <path
       sodipodi:type="arc"
       style="fill:#445500;fill-opacity:1;stroke:none"
       id="path4123-4-4-7"
       sodipodi:cx="197.9899"
       sodipodi:cy="414.95593"
       sodipodi:rx="73.741135"
       sodipodi:ry="111.11678"
       d="m 271.73103,414.95593 a 73.741135,111.11678 0 1 1 -147.48227,0 73.741135,111.11678 0 1 1 147.48227,0 z"
       transform="matrix(-0.78575379,0.24565012,-0.17926832,-0.53483767,570.16043,650.20979)" />
    <path
       sodipodi:type="arc"
       style="fill:#445500;fill-opacity:1;stroke:none"
       id="path4123-7-0-8-1"
       sodipodi:cx="197.9899"
       sodipodi:cy="414.95593"
       sodipodi:rx="73.741135"
       sodipodi:ry="111.11678"
       d="m 271.73103,414.95593 a 73.741135,111.11678 0 1 1 -147.48227,0 73.741135,111.11678 0 1 1 147.48227,0 z"
       transform="matrix(-0.78575379,0.24565012,-0.17926832,-0.53483767,510.69647,654.90182)" />
    <path
       sodipodi:type="arc"
       style="fill:#800000;fill-opacity:1;stroke:none"
       id="path4224"
       sodipodi:cx="235.36554"
       sodipodi:cy="440.20975"
       sodipodi:rx="17.172594"
       sodipodi:ry="25.253813"
       d="m 252.53813,440.20975 a 17.172594,25.253813 0 1 1 -34.34518,0 17.172594,25.253813 0 1 1 34.34518,0 z"
       transform="matrix(1,0,0,0.65999999,0,141.08502)" />
    <path
       sodipodi:type="arc"
       style="fill:#ff0000;fill-opacity:1;stroke:none"
       id="path4224-1"
       sodipodi:cx="235.36554"
       sodipodi:cy="440.20975"
       sodipodi:rx="17.172594"
       sodipodi:ry="25.253813"
       d="m 252.53813,440.20975 a 17.172594,25.253813 0 1 1 -34.34518,0 17.172594,25.253813 0 1 1 34.34518,0 z"
       transform="matrix(0.82352942,0,0,0.55999999,40.524946,187.1263)" />
    <path
       sodipodi:type="arc"
       style="fill:#800000;fill-opacity:1;stroke:none"
       id="path4224-7"
       sodipodi:cx="235.36554"
       sodipodi:cy="440.20975"
       sodipodi:rx="17.172594"
       sodipodi:ry="25.253813"
       d="m 252.53813,440.20975 a 17.172594,25.253813 0 1 1 -34.34518,0 17.172594,25.253813 0 1 1 34.34518,0 z"
       transform="matrix(1,0,0,0.65999999,56.568547,152.70177)" />
    <path
       sodipodi:type="arc"
       style="fill:#ff0000;fill-opacity:1;stroke:none"
       id="path4224-1-6"
       sodipodi:cx="235.36554"
       sodipodi:cy="440.20975"
       sodipodi:rx="17.172594"
       sodipodi:ry="25.253813"
       d="m 252.53813,440.20975 a 17.172594,25.253813 0 1 1 -34.34518,0 17.172594,25.253813 0 1 1 34.34518,0 z"
       transform="matrix(0.82352942,0,0,0.55999999,97.093497,198.74305)" />
    <path
       sodipodi:type="arc"
       style="fill:#800000;fill-opacity:1;stroke:none"
       id="path4224-14"
       sodipodi:cx="235.36554"
       sodipodi:cy="440.20975"
       sodipodi:rx="17.172594"
       sodipodi:ry="25.253813"
       d="m 252.53813,440.20975 a 17.172594,25.253813 0 1 1 -34.34518,0 17.172594,25.253813 0 1 1 34.34518,0 z"
       transform="matrix(1,0,0,0.65999999,100.00511,102.19414)" />
    <path
       sodipodi:type="arc"
       style="fill:#ff0000;fill-opacity:1;stroke:none"
       id="path4224-1-23"
       sodipodi:cx="235.36554"
       sodipodi:cy="440.20975"
       sodipodi:rx="17.172594"
       sodipodi:ry="25.253813"
       d="m 252.53813,440.20975 a 17.172594,25.253813 0 1 1 -34.34518,0 17.172594,25.253813 0 1 1 34.34518,0 z"
       transform="matrix(0.82352942,0,0,0.55999999,140.53005,148.23542)" />
    <path
       sodipodi:type="arc"
       style="fill:#800000;fill-opacity:1;stroke:none"
       id="path4224-57"
       sodipodi:cx="235.36554"
       sodipodi:cy="440.20975"
       sodipodi:rx="17.172594"
       sodipodi:ry="25.253813"
       d="m 252.53813,440.20975 a 17.172594,25.253813 0 1 1 -34.34518,0 17.172594,25.253813 0 1 1 34.34518,0 z"
       transform="matrix(1,0,0,0.65999999,39.395948,202.19924)" />
    <path
       sodipodi:type="arc"
       style="fill:#ff0000;fill-opacity:1;stroke:none"
       id="path4224-1-61"
       sodipodi:cx="235.36554"
       sodipodi:cy="440.20975"
       sodipodi:rx="17.172594"
       sodipodi:ry="25.253813"
       d="m 252.53813,440.20975 a 17.172594,25.253813 0 1 1 -34.34518,0 17.172594,25.253813 0 1 1 34.34518,0 z"
       transform="matrix(0.82352942,0,0,0.55999999,79.920898,248.24052)" />
    <path
       sodipodi:type="arc"
       style="fill:#800000;fill-opacity:1;stroke:none"
       id="path4224-8"
       sodipodi:cx="235.36554"
       sodipodi:cy="440.20975"
       sodipodi:rx="17.172594"
       sodipodi:ry="25.253813"
       d="m 252.53813,440.20975 a 17.172594,25.253813 0 1 1 -34.34518,0 17.172594,25.253813 0 1 1 34.34518,0 z"
       transform="matrix(1,0,0,0.65999999,124.24877,192.09772)" />
    <path
       sodipodi:type="arc"
       style="fill:#ff0000;fill-opacity:1;stroke:none"
       id="path4224-1-9"
       sodipodi:cx="235.36554"
       sodipodi:cy="440.20975"
       sodipodi:rx="17.172594"
       sodipodi:ry="25.253813"
       d="m 252.53813,440.20975 a 17.172594,25.253813 0 1 1 -34.34518,0 17.172594,25.253813 0 1 1 34.34518,0 z"
       transform="matrix(0.82352942,0,0,0.55999999,164.77372,238.139)" />
  </g>
</svg>
