<?xml version="1.0" encoding="UTF-8" standalone="no"?>
<!-- Created with Inkscape (http://www.inkscape.org/) -->

<svg
   xmlns:dc="http://purl.org/dc/elements/1.1/"
   xmlns:cc="http://creativecommons.org/ns#"
   xmlns:rdf="http://www.w3.org/1999/02/22-rdf-syntax-ns#"
   xmlns:svg="http://www.w3.org/2000/svg"
   xmlns="http://www.w3.org/2000/svg"
   xmlns:sodipodi="http://sodipodi.sourceforge.net/DTD/sodipodi-0.dtd"
   xmlns:inkscape="http://www.inkscape.org/namespaces/inkscape"
   width="744.09448819"
   height="1052.3622047"
   id="svg2"
   version="1.1"
   inkscape:version="0.48.5 r10040"
   sodipodi:docname="butter.svg">
  <defs
     id="defs4" />
  <sodipodi:namedview
     id="base"
     pagecolor="#ffffff"
     bordercolor="#666666"
     borderopacity="1.0"
     inkscape:pageopacity="0.0"
     inkscape:pageshadow="2"
     inkscape:zoom="1"
     inkscape:cx="416.37177"
     inkscape:cy="741.09243"
     inkscape:document-units="px"
     inkscape:current-layer="layer3"
     showgrid="false"
     inkscape:window-width="1920"
     inkscape:window-height="1017"
     inkscape:window-x="-8"
     inkscape:window-y="-8"
     inkscape:window-maximized="1" />
  <metadata
     id="metadata7">
    <rdf:RDF>
      <cc:Work
         rdf:about="">
        <dc:format>image/svg+xml</dc:format>
        <dc:type
           rdf:resource="http://purl.org/dc/dcmitype/StillImage" />
        <dc:title></dc:title>
      </cc:Work>
    </rdf:RDF>
  </metadata>
  <g
     inkscape:label="Layer 1"
     inkscape:groupmode="layer"
     id="layer1"
     style="display:inline">
    <path
       style="fill:#440055;fill-opacity:1;stroke:none"
       d="m 370,266.36218 c 0,0 58,-140 158,-123 100,17 75,-81 75,-81 0,0 194,205 -25,223 -219,18 -208,-19 -208,-19 z"
       id="path2989"
       inkscape:connector-curvature="0" />
    <path
       style="fill:#8800aa;fill-opacity:1;stroke:none"
       d="m 382.9104,270.7082 c 0,0 56.51453,-138.15739 153.95337,-121.38114 97.43884,16.77626 73.07913,-79.93392 73.07913,-79.93392 0,0 189.03134,202.3019 -24.35971,220.06499 C 372.19213,307.22123 382.9104,270.7082 382.9104,270.7082 z"
       id="path2989-1"
       inkscape:connector-curvature="0" />
  </g>
  <g
     inkscape:groupmode="layer"
     id="layer2"
     inkscape:label="feath">
    <path
       style="fill:#440055;fill-opacity:1;stroke:none"
       d="m 579.57541,295.9918 c 0,0 -37.89098,103.18474 -103.22027,90.65517 -65.32928,-12.52958 -48.99696,59.69974 -48.99696,59.69974 0,0 -126.7388,-151.09195 16.33233,-164.35855 143.07112,-13.26661 135.8849,14.00364 135.8849,14.00364 z"
       id="path2989-12-3"
       inkscape:connector-curvature="0" />
    <path
       style="fill:#8800aa;fill-opacity:1;stroke:none"
       d="m 571.14114,292.78863 c 0,0 -36.92054,101.82668 -100.57663,89.46202 -63.6561,-12.36467 -47.74208,58.91401 -47.74208,58.91401 0,0 -123.49281,-149.10336 15.91403,-162.19536 139.40684,-13.092 132.40468,13.81933 132.40468,13.81933 z"
       id="path2989-1-3-4"
       inkscape:connector-curvature="0" />
    <path
       sodipodi:type="arc"
       style="fill:#25082b;fill-opacity:0;stroke:none"
       id="path4170"
       sodipodi:cx="635.5"
       sodipodi:cy="184.36218"
       sodipodi:rx="28.5"
       sodipodi:ry="52"
       d="m 664,184.36218 a 28.5,52 0 1 1 -57,0 28.5,52 0 1 1 57,0 z" />
    <path
       transform="translate(935.5,-281.5)"
       sodipodi:type="arc"
       style="fill:#25082b;fill-opacity:0;stroke:none"
       id="path4172"
       sodipodi:cx="119.5"
       sodipodi:cy="159.86218"
       sodipodi:rx="61.5"
       sodipodi:ry="96.5"
       d="m 181,159.86218 a 61.5,96.5 0 1 1 -123,0 61.5,96.5 0 1 1 123,0 z" />
  </g>
  <g
     inkscape:groupmode="layer"
     id="layer3"
     inkscape:label="Layer">
    <path
       sodipodi:type="arc"
       style="fill:#00340b;fill-opacity:0;stroke:none;stroke-opacity:1"
       id="path4193"
       sodipodi:cx="531"
       sodipodi:cy="209.36218"
       sodipodi:rx="43"
       sodipodi:ry="47"
       d="m 574,209.36218 a 43,47 0 1 1 -86,0 43,47 0 1 1 86,0 z" />
    <path
       sodipodi:type="arc"
       style="fill:#440055;fill-opacity:1;fill-rule:nonzero;stroke:#4f0064;stroke-width:3.70000005;stroke-miterlimit:4;stroke-opacity:1;stroke-dasharray:none"
       id="path5691"
       sodipodi:cx="94.5"
       sodipodi:cy="139.36218"
       sodipodi:rx="79.5"
       sodipodi:ry="88"
       d="m 174,139.36218 a 79.5,88 0 1 1 -159,0 79.5,88 0 1 1 159,0 z"
       transform="matrix(0.56345853,0,0,0.57721538,557.75317,129.92019)" />
    <path
       sodipodi:type="arc"
       style="fill:#f6d5ff;fill-opacity:1;fill-rule:nonzero;stroke:#4f0064;stroke-width:3.70000005;stroke-miterlimit:4;stroke-opacity:1;stroke-dasharray:none"
       id="path5691-2"
       sodipodi:cx="94.5"
       sodipodi:cy="139.36218"
       sodipodi:rx="79.5"
       sodipodi:ry="88"
       d="m 174,139.36218 a 79.5,88 0 1 1 -159,0 79.5,88 0 1 1 159,0 z"
       transform="matrix(0.32400712,0,0,0.31543825,581.88133,163.90202)" />
    <path
       sodipodi:type="arc"
       style="fill:#440055;fill-opacity:1;fill-rule:nonzero;stroke:#4f0064;stroke-width:3.70000005;stroke-miterlimit:4;stroke-opacity:1;stroke-dasharray:none"
       id="path5691-0"
       sodipodi:cx="94.5"
       sodipodi:cy="139.36218"
       sodipodi:rx="79.5"
       sodipodi:ry="88"
       d="m 174,139.36218 a 79.5,88 0 1 1 -159,0 79.5,88 0 1 1 159,0 z"
       transform="matrix(0.56345853,0,0,0.57721538,430.75317,228.92019)" />
    <path
       sodipodi:type="arc"
       style="fill:#f6d5ff;fill-opacity:1;fill-rule:nonzero;stroke:#4f0064;stroke-width:3.70000005;stroke-miterlimit:4;stroke-opacity:1;stroke-dasharray:none"
       id="path5691-2-5"
       sodipodi:cx="94.5"
       sodipodi:cy="139.36218"
       sodipodi:rx="79.5"
       sodipodi:ry="88"
       d="m 174,139.36218 a 79.5,88 0 1 1 -159,0 79.5,88 0 1 1 159,0 z"
       transform="matrix(0.32400712,0,0,0.31543825,454.88133,263.90202)" />
    <path
       sodipodi:type="arc"
       style="fill:#440055;fill-opacity:1;fill-rule:nonzero;stroke:#4f0064;stroke-width:3.70000005;stroke-miterlimit:4;stroke-opacity:1;stroke-dasharray:none"
       id="path5691-5"
       sodipodi:cx="94.5"
       sodipodi:cy="139.36218"
       sodipodi:rx="79.5"
       sodipodi:ry="88"
       d="m 174,139.36218 a 79.5,88 0 1 1 -159,0 79.5,88 0 1 1 159,0 z"
       transform="matrix(0.52670156,0,0,0.52702057,456.2267,129.41545)" />
    <path
       sodipodi:type="arc"
       style="fill:#f6d5ff;fill-opacity:1;fill-rule:nonzero;stroke:#4f0064;stroke-width:3.70000005;stroke-miterlimit:4;stroke-opacity:1;stroke-dasharray:none"
       id="path5691-2-2"
       sodipodi:cx="94.5"
       sodipodi:cy="139.36218"
       sodipodi:rx="79.5"
       sodipodi:ry="88"
       d="m 174,139.36218 a 79.5,88 0 1 1 -159,0 79.5,88 0 1 1 159,0 z"
       transform="matrix(0.30287066,0,0,0.28800765,476.91134,163.92045)" />
    <path
       style="fill:#440055;fill-opacity:1;stroke:none;display:inline"
       d="m 349.54363,270.36992 c 0,0 -58,-140 -158.00001,-123 -100,17 -75,-81 -75,-81 0,0 -193.999995,205 25,223 219.00001,18 208.00001,-19 208.00001,-19 z"
       id="path2989-7"
       inkscape:connector-curvature="0" />
    <path
       style="fill:#8800aa;fill-opacity:1;stroke:none;display:inline"
       d="m 336.63323,274.71594 c 0,0 -56.51453,-138.15739 -153.95338,-121.38114 -97.43884,16.77626 -73.07913,-79.93392 -73.07913,-79.93392 0,0 -189.031335,202.3019 24.35971,220.06499 213.39107,17.7631 202.6728,-18.74993 202.6728,-18.74993 z"
       id="path2989-1-6"
       inkscape:connector-curvature="0" />
    <path
       style="fill:#440055;fill-opacity:1;stroke:none"
       d="m 139.96821,299.99954 c 0,0 37.89098,103.18474 103.22027,90.65517 65.32929,-12.52958 48.99697,59.69974 48.99697,59.69974 0,0 126.7388,-151.09195 -16.33233,-164.35855 -143.07113,-13.26661 -135.88491,14.00364 -135.88491,14.00364 z"
       id="path2989-12-3-7"
       inkscape:connector-curvature="0" />
    <path
       style="fill:#8800aa;fill-opacity:1;stroke:none"
       d="m 148.40248,296.79637 c 0,0 36.92054,101.82668 100.57663,89.46202 63.65611,-12.36467 47.74209,58.91401 47.74209,58.91401 0,0 123.49281,-149.10336 -15.91403,-162.19536 -139.40685,-13.092 -132.40469,13.81933 -132.40469,13.81933 z"
       id="path2989-1-3-4-8"
       inkscape:connector-curvature="0" />
    <path
       transform="matrix(-1,0,0,1,719.54362,4.00774)"
       sodipodi:type="arc"
       style="fill:#25082b;fill-opacity:0;stroke:none"
       id="path4170-7"
       sodipodi:cx="635.5"
       sodipodi:cy="184.36218"
       sodipodi:rx="28.5"
       sodipodi:ry="52"
       d="m 664,184.36218 a 28.5,52 0 1 1 -57,0 28.5,52 0 1 1 57,0 z" />
    <path
       transform="matrix(-1,0,0,1,719.54362,4.00774)"
       sodipodi:type="arc"
       style="fill:#00340b;fill-opacity:0;stroke:none"
       id="path4193-8"
       sodipodi:cx="531"
       sodipodi:cy="209.36218"
       sodipodi:rx="43"
       sodipodi:ry="47"
       d="m 574,209.36218 a 43,47 0 1 1 -86,0 43,47 0 1 1 86,0 z" />
    <path
       sodipodi:type="arc"
       style="fill:#440055;fill-opacity:1;fill-rule:nonzero;stroke:#4f0064;stroke-width:3.70000005;stroke-miterlimit:4;stroke-opacity:1;stroke-dasharray:none"
       id="path5691-1"
       sodipodi:cx="94.5"
       sodipodi:cy="139.36218"
       sodipodi:rx="79.5"
       sodipodi:ry="88"
       d="m 174,139.36218 a 79.5,88 0 1 1 -159,0 79.5,88 0 1 1 159,0 z"
       transform="matrix(-0.56345853,0,0,0.57721538,161.79045,133.92793)" />
    <path
       sodipodi:type="arc"
       style="fill:#f6d5ff;fill-opacity:1;fill-rule:nonzero;stroke:#4f0064;stroke-width:3.70000005;stroke-miterlimit:4;stroke-opacity:1;stroke-dasharray:none"
       id="path5691-2-6"
       sodipodi:cx="94.5"
       sodipodi:cy="139.36218"
       sodipodi:rx="79.5"
       sodipodi:ry="88"
       d="m 174,139.36218 a 79.5,88 0 1 1 -159,0 79.5,88 0 1 1 159,0 z"
       transform="matrix(-0.32400712,0,0,0.31543825,137.66229,167.90976)" />
    <path
       sodipodi:type="arc"
       style="fill:#440055;fill-opacity:1;fill-rule:nonzero;stroke:#4f0064;stroke-width:3.70000005;stroke-miterlimit:4;stroke-opacity:1;stroke-dasharray:none"
       id="path5691-0-0"
       sodipodi:cx="94.5"
       sodipodi:cy="139.36218"
       sodipodi:rx="79.5"
       sodipodi:ry="88"
       d="m 174,139.36218 a 79.5,88 0 1 1 -159,0 79.5,88 0 1 1 159,0 z"
       transform="matrix(-0.56345853,0,0,0.57721538,288.79046,232.92793)" />
    <path
       sodipodi:type="arc"
       style="fill:#f6d5ff;fill-opacity:1;fill-rule:nonzero;stroke:#4f0064;stroke-width:3.70000005;stroke-miterlimit:4;stroke-opacity:1;stroke-dasharray:none"
       id="path5691-2-5-9"
       sodipodi:cx="94.5"
       sodipodi:cy="139.36218"
       sodipodi:rx="79.5"
       sodipodi:ry="88"
       d="m 174,139.36218 a 79.5,88 0 1 1 -159,0 79.5,88 0 1 1 159,0 z"
       transform="matrix(-0.32400712,0,0,0.31543825,264.6623,267.90976)" />
    <path
       sodipodi:type="arc"
       style="fill:#440055;fill-opacity:1;fill-rule:nonzero;stroke:#4f0064;stroke-width:3.70000005;stroke-miterlimit:4;stroke-opacity:1;stroke-dasharray:none"
       id="path5691-5-5"
       sodipodi:cx="94.5"
       sodipodi:cy="139.36218"
       sodipodi:rx="79.5"
       sodipodi:ry="88"
       d="m 174,139.36218 a 79.5,88 0 1 1 -159,0 79.5,88 0 1 1 159,0 z"
       transform="matrix(-0.52670156,0,0,0.52702057,263.31693,133.42319)" />
    <path
       sodipodi:type="arc"
       style="fill:#f6d5ff;fill-opacity:1;fill-rule:nonzero;stroke:#4f0064;stroke-width:3.70000005;stroke-miterlimit:4;stroke-opacity:1;stroke-dasharray:none"
       id="path5691-2-2-8"
       sodipodi:cx="94.5"
       sodipodi:cy="139.36218"
       sodipodi:rx="79.5"
       sodipodi:ry="88"
       d="m 174,139.36218 a 79.5,88 0 1 1 -159,0 79.5,88 0 1 1 159,0 z"
       transform="matrix(-0.30287066,0,0,0.28800765,242.63228,167.92819)" />
  </g>
</svg>
