<?xml version="1.0" encoding="UTF-8" standalone="no"?>
<!-- Created with Inkscape (http://www.inkscape.org/) -->

<svg
   xmlns:dc="http://purl.org/dc/elements/1.1/"
   xmlns:cc="http://creativecommons.org/ns#"
   xmlns:rdf="http://www.w3.org/1999/02/22-rdf-syntax-ns#"
   xmlns:svg="http://www.w3.org/2000/svg"
   xmlns="http://www.w3.org/2000/svg"
   xmlns:sodipodi="http://sodipodi.sourceforge.net/DTD/sodipodi-0.dtd"
   xmlns:inkscape="http://www.inkscape.org/namespaces/inkscape"
   width="744.09448819"
   height="1052.3622047"
   id="svg4440"
   version="1.1"
   inkscape:version="0.48.5 r10040"
   sodipodi:docname="New document 21">
  <defs
     id="defs4442" />
  <sodipodi:namedview
     id="base"
     pagecolor="#ffffff"
     bordercolor="#666666"
     borderopacity="1.0"
     inkscape:pageopacity="0.0"
     inkscape:pageshadow="2"
     inkscape:zoom="0.98994949"
     inkscape:cx="217.4162"
     inkscape:cy="681.62441"
     inkscape:document-units="px"
     inkscape:current-layer="layer1"
     showgrid="false"
     inkscape:window-width="1920"
     inkscape:window-height="1017"
     inkscape:window-x="-8"
     inkscape:window-y="-8"
     inkscape:window-maximized="1" />
  <metadata
     id="metadata4445">
    <rdf:RDF>
      <cc:Work
         rdf:about="">
        <dc:format>image/svg+xml</dc:format>
        <dc:type
           rdf:resource="http://purl.org/dc/dcmitype/StillImage" />
        <dc:title></dc:title>
      </cc:Work>
    </rdf:RDF>
  </metadata>
  <g
     inkscape:label="Layer 1"
     inkscape:groupmode="layer"
     id="layer1">
    <rect
       style="fill:#1a1a1a;fill-opacity:1;stroke:none"
       id="rect4448"
       width="345.47217"
       height="149.50258"
       x="249.27115"
       y="184.22331"
       rx="17.951593"
       transform="matrix(0.92110789,0.38930739,-0.38930739,0.92110789,0,0)" />
    <path
       sodipodi:type="arc"
       style="fill:#1a1a1a;fill-opacity:1;stroke:none"
       id="path4450"
       sodipodi:cx="434.3656"
       sodipodi:cy="442.23004"
       sodipodi:rx="96.974648"
       sodipodi:ry="107.07617"
       d="m 531.34025,442.23004 a 96.974648,107.07617 0 1 1 -193.9493,0 96.974648,107.07617 0 1 1 193.9493,0 z"
       transform="matrix(0.99717929,0.27910065,-0.13695498,0.89505597,37.5472,-49.568511)" />
    <rect
       style="fill:#333333;fill-opacity:1;stroke:none"
       id="rect4448-3"
       width="336.11981"
       height="147.52046"
       x="257.27057"
       y="186.48076"
       rx="17.465622"
       transform="matrix(0.91823912,0.39602642,-0.38266207,0.92388838,0,0)" />
    <path
       sodipodi:type="arc"
       style="fill:#333333;fill-opacity:1;stroke:none"
       id="path4450-8"
       sodipodi:cx="434.3656"
       sodipodi:cy="442.23004"
       sodipodi:rx="96.974648"
       sodipodi:ry="107.07617"
       d="m 531.34025,442.23004 a 96.974648,107.07617 0 1 1 -193.9493,0 96.974648,107.07617 0 1 1 193.9493,0 z"
       transform="matrix(0.96716279,0.27623163,-0.13283244,0.88585523,48.160202,-38.876381)" />
    <path
       sodipodi:type="arc"
       style="fill:#2b1100;fill-opacity:1;stroke:none"
       id="path4985"
       sodipodi:cx="390.92905"
       sodipodi:cy="547.28589"
       sodipodi:rx="51.51778"
       sodipodi:ry="56.568542"
       d="m 442.44683,547.28589 a 51.51778,56.568542 0 1 1 -103.03556,0 51.51778,56.568542 0 1 1 103.03556,0 z"
       transform="matrix(1.9019608,0,0,1.6357582,-376.84631,-375.61719)" />
    <path
       sodipodi:type="arc"
       style="fill:#552200;fill-opacity:1;stroke:none"
       id="path4985-7"
       sodipodi:cx="390.92905"
       sodipodi:cy="547.28589"
       sodipodi:rx="51.51778"
       sodipodi:ry="56.568542"
       d="m 442.44683,547.28589 a 51.51778,56.568542 0 1 1 -103.03556,0 51.51778,56.568542 0 1 1 103.03556,0 z"
       transform="matrix(1.7423556,0,0,1.6122222,-313.76687,-358.07626)" />
    <path
       sodipodi:type="arc"
       style="fill:#1a1a1a;fill-opacity:1;stroke:none"
       id="path5005"
       sodipodi:cx="68.690376"
       sodipodi:cy="258.38229"
       sodipodi:rx="62.629459"
       sodipodi:ry="59.598999"
       d="m 131.31984,258.38229 a 62.629459,59.598999 0 1 1 -125.2589231,0 62.629459,59.598999 0 1 1 125.2589231,0 z" />
    <path
       transform="matrix(0.86290323,0,0,0.95762712,1.8410814,8.4230049)"
       sodipodi:type="arc"
       style="fill:#333333;fill-opacity:1;stroke:none"
       id="path5005-4"
       sodipodi:cx="68.690376"
       sodipodi:cy="258.38229"
       sodipodi:rx="62.629459"
       sodipodi:ry="59.598999"
       d="m 131.31984,258.38229 a 62.629459,59.598999 0 1 1 -125.2589231,0 62.629459,59.598999 0 1 1 125.2589231,0 z" />
    <path
       style="fill:#808080;fill-opacity:1;stroke:none"
       id="path5025"
       d="m 478.11971,424.41201 c -0.4152,-3.22829 -0.50207,-6.39936 0.28291,-9.56924 0.50696,-1.25508 1.15295,-2.67507 2.3757,-3.40595 10.58742,-6.32848 9.28952,-5.61687 14.68528,-8.51443 2.38374,-1.20182 4.89058,-2.04376 7.36917,-3.01166 2.53258,-1.10946 5.05874,-2.24822 7.60718,-3.32687 1.08236,-0.50907 2.11314,-1.03581 3.13353,-1.65109 0.28885,-0.17417 1.17743,-0.65866 0.88532,-0.49001 -12.49101,7.21174 -15.78082,9.40572 -11.1795,6.36895 1.62328,-1.16216 2.44671,-2.74445 2.90051,-4.63762 0.34494,-1.94746 0.32665,-3.934 0.33185,-5.90477 -9.2e-4,-1.01195 -0.007,-2.02388 -0.0121,-3.03582 0,0 13.34981,-6.81066 13.34981,-6.81066 l 0,0 c 0.005,1.0143 0.0109,2.02859 0.0155,3.04289 0.005,2.05353 0.0285,4.11435 -0.20047,6.15836 -0.31761,2.09122 -0.86318,4.10405 -2.47269,5.5938 -5.065,4.94002 -12.1401,7.52453 -18.47031,10.63657 -2.52779,1.12649 -5.08158,2.19368 -7.63631,3.25722 -2.49388,0.90979 -4.93129,1.95746 -7.27601,3.20722 -4.83684,2.71591 -2.90922,1.64119 10.89817,-6.40275 0.42066,-0.24507 -1.26338,0.50726 -2.19175,1.76187 -0.19528,0.26391 -0.39411,0.52517 -0.59117,0.78775 -1.1436,2.90383 -1.07178,5.95738 -0.53925,9.00124 0,0 -13.26536,6.945 -13.26536,6.945 z"
       inkscape:connector-curvature="0" />
  </g>
</svg>
