<?xml version="1.0" encoding="UTF-8" standalone="no"?>
<!-- Created with Inkscape (http://www.inkscape.org/) -->

<svg
   xmlns:dc="http://purl.org/dc/elements/1.1/"
   xmlns:cc="http://creativecommons.org/ns#"
   xmlns:rdf="http://www.w3.org/1999/02/22-rdf-syntax-ns#"
   xmlns:svg="http://www.w3.org/2000/svg"
   xmlns="http://www.w3.org/2000/svg"
   xmlns:sodipodi="http://sodipodi.sourceforge.net/DTD/sodipodi-0.dtd"
   xmlns:inkscape="http://www.inkscape.org/namespaces/inkscape"
   width="744.09448819"
   height="1052.3622047"
   id="svg4295"
   version="1.1"
   inkscape:version="0.48.5 r10040"
   sodipodi:docname="pig.svg">
  <defs
     id="defs4297" />
  <sodipodi:namedview
     id="base"
     pagecolor="#ffffff"
     bordercolor="#666666"
     borderopacity="1.0"
     inkscape:pageopacity="0.0"
     inkscape:pageshadow="2"
     inkscape:zoom="1.979899"
     inkscape:cx="238.12433"
     inkscape:cy="518.26685"
     inkscape:document-units="px"
     inkscape:current-layer="layer1"
     showgrid="false"
     inkscape:window-width="1920"
     inkscape:window-height="1017"
     inkscape:window-x="-8"
     inkscape:window-y="-8"
     inkscape:window-maximized="1" />
  <metadata
     id="metadata4300">
    <rdf:RDF>
      <cc:Work
         rdf:about="">
        <dc:format>image/svg+xml</dc:format>
        <dc:type
           rdf:resource="http://purl.org/dc/dcmitype/StillImage" />
        <dc:title></dc:title>
      </cc:Work>
    </rdf:RDF>
  </metadata>
  <g
     inkscape:groupmode="layer"
     id="layer3"
     inkscape:label="leg"
     sodipodi:insensitive="true">
    <path
       sodipodi:type="arc"
       style="fill:#ff8080;fill-opacity:1;fill-rule:nonzero;stroke:none"
       id="path5222"
       sodipodi:cx="156.82619"
       sodipodi:cy="598.29858"
       sodipodi:rx="12.374369"
       sodipodi:ry="35.355339"
       d="m 169.20056,598.29858 a 12.374369,35.355339 0 1 1 -24.74874,0 12.374369,35.355339 0 1 1 24.74874,0 z"
       transform="matrix(1.0408163,0,0,1.0857143,-5.8959926,-48.252278)" />
    <path
       sodipodi:type="arc"
       style="fill:#ff8080;fill-opacity:1;fill-rule:nonzero;stroke:none"
       id="path5222-0"
       sodipodi:cx="156.82619"
       sodipodi:cy="598.29858"
       sodipodi:rx="12.374369"
       sodipodi:ry="35.355339"
       d="m 169.20056,598.29858 a 12.374369,35.355339 0 1 1 -24.74874,0 12.374369,35.355339 0 1 1 24.74874,0 z"
       transform="matrix(1.0408163,0,0,1.0857143,29.711884,-45.726876)" />
    <path
       sodipodi:type="arc"
       style="fill:#ff8080;fill-opacity:1;fill-rule:nonzero;stroke:none"
       id="path5222-9"
       sodipodi:cx="156.82619"
       sodipodi:cy="598.29858"
       sodipodi:rx="12.374369"
       sodipodi:ry="35.355339"
       d="m 169.20056,598.29858 a 12.374369,35.355339 0 1 1 -24.74874,0 12.374369,35.355339 0 1 1 24.74874,0 z"
       transform="matrix(1.0408163,0,0,1.0857143,88.300732,-49.767486)" />
    <path
       sodipodi:type="arc"
       style="fill:#ff8080;fill-opacity:1;fill-rule:nonzero;stroke:none"
       id="path5222-7"
       sodipodi:cx="156.82619"
       sodipodi:cy="598.29858"
       sodipodi:rx="12.374369"
       sodipodi:ry="35.355339"
       d="m 169.20056,598.29858 a 12.374369,35.355339 0 1 1 -24.74874,0 12.374369,35.355339 0 1 1 24.74874,0 z"
       transform="matrix(1.0408163,0,0,1.0857143,119.11039,-50.272563)" />
    <path
       sodipodi:type="arc"
       style="fill:#ffaaaa;fill-opacity:1;fill-rule:nonzero;stroke:none"
       id="path5222-3"
       sodipodi:cx="156.82619"
       sodipodi:cy="598.29858"
       sodipodi:rx="12.374369"
       sodipodi:ry="35.355339"
       d="m 169.20056,598.29858 a 12.374369,35.355339 0 1 1 -24.74874,0 12.374369,35.355339 0 1 1 24.74874,0 z"
       transform="matrix(1.0408163,0,0,1.0857143,-7.0324137,-52.040357)" />
    <path
       sodipodi:type="arc"
       style="fill:#ffaaaa;fill-opacity:1;fill-rule:nonzero;stroke:none"
       id="path5222-0-7"
       sodipodi:cx="156.82619"
       sodipodi:cy="598.29858"
       sodipodi:rx="12.374369"
       sodipodi:ry="35.355339"
       d="m 169.20056,598.29858 a 12.374369,35.355339 0 1 1 -24.74874,0 12.374369,35.355339 0 1 1 24.74874,0 z"
       transform="matrix(1.0408163,0,0,1.0857143,28.575462,-49.514947)" />
    <path
       sodipodi:type="arc"
       style="fill:#ffaaaa;fill-opacity:1;fill-rule:nonzero;stroke:none"
       id="path5222-9-2"
       sodipodi:cx="156.82619"
       sodipodi:cy="598.29858"
       sodipodi:rx="12.374369"
       sodipodi:ry="35.355339"
       d="m 169.20056,598.29858 a 12.374369,35.355339 0 1 1 -24.74874,0 12.374369,35.355339 0 1 1 24.74874,0 z"
       transform="matrix(1.0408163,0,0,1.0857143,87.164309,-53.555557)" />
    <path
       sodipodi:type="arc"
       style="fill:#ffaaaa;fill-opacity:1;fill-rule:nonzero;stroke:none"
       id="path5222-7-6"
       sodipodi:cx="156.82619"
       sodipodi:cy="598.29858"
       sodipodi:rx="12.374369"
       sodipodi:ry="35.355339"
       d="m 169.20056,598.29858 a 12.374369,35.355339 0 1 1 -24.74874,0 12.374369,35.355339 0 1 1 24.74874,0 z"
       transform="matrix(1.0408163,0,0,1.0857143,117.97397,-54.060637)" />
    <path
       style="fill:#ff8080;fill-opacity:1;stroke:none"
       id="path3299"
       d="m 290.313,527.14102 c 0.94877,-1.41145 1.9125,-2.81199 2.91011,-4.18959 0.65872,-0.96657 1.36724,-1.87148 2.31317,-2.5681 1.79611,-0.90079 5.3676,-4.52871 8.44851,-3.88235 0.0165,0.003 1.01721,0.30935 1.046,0.31814 0.86324,0.3458 1.7947,0.58687 2.63882,0.9794 0.85254,0.2659 1.27055,1.01915 1.68182,1.74966 0.3889,0.82771 0.55954,1.73134 0.41575,2.63508 -1.19246,3.14825 -6.67287,6.72447 -7.81378,2.99553 -0.20001,-1.09197 -0.25603,-2.21269 -0.19006,-3.31982 0.14542,-1.12377 0.58992,-2.04129 1.41249,-2.80706 2.84171,-2.09244 5.79582,-4.33186 9.32838,-4.72305 1.02309,-0.0825 2.05063,-0.0715 3.07615,-0.0685 0,0 -6.06538,4.40754 -6.06538,4.40754 l 0,0 c -1.00386,0.005 -2.01348,0.003 -3.00767,0.16069 -0.49471,0.10024 -0.96852,0.2107 -1.43084,0.42095 -0.15411,0.0701 -0.59722,0.31883 -0.4513,0.23299 6.97779,-4.10475 7.83413,-4.64726 5.52218,-3.19968 -0.91882,0.52881 -1.42942,1.19743 -1.67444,2.24318 -0.15383,1.01197 -0.0462,2.05255 0.081,3.06386 0.032,0.14326 0.007,0.35194 0.1384,0.41809 0.0157,0.008 0.24151,-0.26065 0.14748,-0.20554 -8.22449,4.82048 -8.18347,4.79264 -5.88636,3.56464 0.43255,-0.61155 0.12995,-1.4242 -0.11742,-2.06654 -0.35603,-0.63207 -0.6734,-1.12309 -1.41249,-1.32902 -0.85762,-0.30714 -1.69426,-0.67321 -2.57374,-0.91231 -0.62783,-0.15587 -1.21988,-0.26438 -1.85524,-0.0685 -0.15218,0.0469 -0.58191,0.25497 -0.44517,0.17336 1.98061,-1.18196 3.98804,-2.31839 5.98206,-3.47759 -1.06529,0.5003 -1.82292,1.33565 -2.45461,2.31934 -1.05832,1.30925 -2.00511,2.7195 -2.88705,4.15279 0,0 -6.87678,2.98244 -6.87678,2.98244 z"
       inkscape:connector-curvature="0" />
  </g>
  <g
     inkscape:groupmode="layer"
     id="layer2"
     inkscape:label="fluff"
     sodipodi:insensitive="true">
    <path
       sodipodi:type="arc"
       style="fill:#ff8080;fill-opacity:1;stroke:none"
       id="path3239"
       sodipodi:cx="222.99118"
       sodipodi:cy="537.43695"
       sodipodi:rx="86.620583"
       sodipodi:ry="60.356613"
       d="m 309.61176,537.43695 a 86.620583,60.356613 0 1 1 -173.24116,0 86.620583,60.356613 0 1 1 173.24116,0 z"
       transform="translate(-8.0812204,11.111678)" />
    <path
       sodipodi:type="arc"
       style="fill:#ffaaaa;fill-opacity:1;stroke:none"
       id="path3239-0"
       sodipodi:cx="222.99118"
       sodipodi:cy="537.43695"
       sodipodi:rx="86.620583"
       sodipodi:ry="60.356613"
       d="m 309.61176,537.43695 a 86.620583,60.356613 0 1 1 -173.24116,0 86.620583,60.356613 0 1 1 173.24116,0 z"
       transform="matrix(0.97084548,0,0,0.94142259,-5.3680979,42.340775)" />
  </g>
  <g
     inkscape:label="Layer 1"
     inkscape:groupmode="layer"
     id="layer1">
    <path
       sodipodi:type="arc"
       style="fill:#ff8080;fill-opacity:1;fill-rule:nonzero;stroke:none"
       id="path5386-5"
       sodipodi:cx="175.26146"
       sodipodi:cy="499.05112"
       sodipodi:rx="26.263966"
       sodipodi:ry="20.455589"
       d="m 201.52542,499.05112 a 26.263966,20.455589 0 1 1 -52.52793,0 26.263966,20.455589 0 1 1 52.52793,0 z"
       transform="matrix(0.56307656,0.55897874,-0.41890249,0.50734852,208.858,129.7081)" />
    <path
       sodipodi:type="arc"
       style="fill:#ff8080;fill-opacity:1;fill-rule:nonzero;stroke:none"
       id="path4303"
       sodipodi:cx="157.85715"
       sodipodi:cy="490.93362"
       sodipodi:rx="83.571426"
       sodipodi:ry="105.71429"
       d="m 241.42857,490.93362 a 83.571426,105.71429 0 1 1 -167.142849,0 83.571426,105.71429 0 1 1 167.142849,0 z"
       transform="matrix(0.60137288,0.11988733,-0.11704513,0.58711597,91.835296,215.37713)" />
    <path
       sodipodi:type="arc"
       style="fill:#ffaaaa;fill-opacity:1;fill-rule:nonzero;stroke:none"
       id="path4303-8"
       sodipodi:cx="157.85715"
       sodipodi:cy="490.93362"
       sodipodi:rx="83.571426"
       sodipodi:ry="105.71429"
       d="m 241.42857,490.93362 a 83.571426,105.71429 0 1 1 -167.142849,0 83.571426,105.71429 0 1 1 167.142849,0 z"
       transform="matrix(0.55878962,0.10717261,-0.10875715,0.52484903,92.17188,246.07757)" />
    <path
       sodipodi:type="arc"
       style="fill:#f2f2f2;fill-opacity:1;fill-rule:nonzero;stroke:none"
       id="path5303"
       sodipodi:cx="105.05586"
       sodipodi:cy="517.99152"
       sodipodi:rx="11.111678"
       sodipodi:ry="11.616755"
       d="m 116.16754,517.99152 a 11.111678,11.616755 0 1 1 -22.223356,0 11.111678,11.616755 0 1 1 22.223356,0 z"
       transform="translate(-3.2984266,-10.317781)" />
    <path
       transform="translate(27.006151,-7.7924311)"
       sodipodi:type="arc"
       style="fill:#f2f2f2;fill-opacity:1;fill-rule:nonzero;stroke:none"
       id="path5303-0"
       sodipodi:cx="105.05586"
       sodipodi:cy="517.99152"
       sodipodi:rx="11.111678"
       sodipodi:ry="11.616755"
       d="m 116.16754,517.99152 a 11.111678,11.616755 0 1 1 -22.223356,0 11.111678,11.616755 0 1 1 22.223356,0 z" />
    <path
       transform="matrix(1.7692308,0,0,1.1428571,-70.104478,-129.30443)"
       sodipodi:type="arc"
       style="fill:#2d2d2d;fill-opacity:1;fill-rule:nonzero;stroke:none"
       id="path5330-5"
       sodipodi:cx="95.711952"
       sodipodi:cy="553.59937"
       sodipodi:rx="3.2829957"
       sodipodi:ry="5.3033009"
       d="m 98.994948,553.59937 a 3.2829957,5.3033009 0 1 1 -6.565991,0 3.2829957,5.3033009 0 1 1 6.565991,0 z" />
    <path
       transform="matrix(1.7692308,0,0,1.1428571,-39.799899,-127.03156)"
       sodipodi:type="arc"
       style="fill:#2d2d2d;fill-opacity:1;fill-rule:nonzero;stroke:none"
       id="path5330-5-7"
       sodipodi:cx="95.711952"
       sodipodi:cy="553.59937"
       sodipodi:rx="3.2829957"
       sodipodi:ry="5.3033009"
       d="m 98.994948,553.59937 a 3.2829957,5.3033009 0 1 1 -6.565991,0 3.2829957,5.3033009 0 1 1 6.565991,0 z" />
    <path
       sodipodi:type="arc"
       style="fill:#ff8080;fill-opacity:1;fill-rule:nonzero;stroke:none"
       id="path5386"
       sodipodi:cx="175.26146"
       sodipodi:cy="499.05112"
       sodipodi:rx="26.263966"
       sodipodi:ry="20.455589"
       d="m 201.52542,499.05112 a 26.263966,20.455589 0 1 1 -52.52793,0 26.263966,20.455589 0 1 1 52.52793,0 z"
       transform="matrix(0.56341535,-0.43940985,0.31853144,0.52481079,-90.291115,303.33247)" />
    <path
       sodipodi:type="arc"
       style="fill:#ff8080;fill-opacity:1;stroke:none"
       id="path3259"
       sodipodi:cx="103.03556"
       sodipodi:cy="540.46741"
       sodipodi:rx="7.5761442"
       sodipodi:ry="7.323606"
       d="m 110.6117,540.46741 a 7.5761442,7.323606 0 1 1 -15.152284,0 7.5761442,7.323606 0 1 1 15.152284,0 z"
       transform="matrix(1.6,0,0,1.6206896,-59.80103,-337.98791)" />
    <path
       transform="translate(11.869298,-17.425133)"
       sodipodi:type="arc"
       style="fill:#ffaaaa;fill-opacity:1;fill-rule:nonzero;stroke:none"
       id="path5330-6"
       sodipodi:cx="95.711952"
       sodipodi:cy="553.59937"
       sodipodi:rx="3.2829957"
       sodipodi:ry="5.3033009"
       d="m 98.994948,553.59937 a 3.2829957,5.3033009 0 1 1 -6.565991,0 3.2829957,5.3033009 0 1 1 6.565991,0 z" />
    <path
       transform="translate(3.7880732,-17.425133)"
       sodipodi:type="arc"
       style="fill:#ffaaaa;fill-opacity:1;fill-rule:nonzero;stroke:none"
       id="path5330-6-9"
       sodipodi:cx="95.711952"
       sodipodi:cy="553.59937"
       sodipodi:rx="3.2829957"
       sodipodi:ry="5.3033009"
       d="m 98.994948,553.59937 a 3.2829957,5.3033009 0 1 1 -6.565991,0 3.2829957,5.3033009 0 1 1 6.565991,0 z" />
  </g>
</svg>
