<?xml version="1.0" encoding="UTF-8" standalone="no"?>
<!-- Created with Inkscape (http://www.inkscape.org/) -->

<svg
   xmlns:dc="http://purl.org/dc/elements/1.1/"
   xmlns:cc="http://creativecommons.org/ns#"
   xmlns:rdf="http://www.w3.org/1999/02/22-rdf-syntax-ns#"
   xmlns:svg="http://www.w3.org/2000/svg"
   xmlns="http://www.w3.org/2000/svg"
   xmlns:xlink="http://www.w3.org/1999/xlink"
   xmlns:sodipodi="http://sodipodi.sourceforge.net/DTD/sodipodi-0.dtd"
   xmlns:inkscape="http://www.inkscape.org/namespaces/inkscape"
   width="210mm"
   height="297mm"
   viewBox="0 0 744.09448819 1052.3622047"
   id="svg2"
   version="1.1"
   inkscape:version="0.91 r13725"
   sodipodi:docname="Story2.2.svg"
   inkscape:export-filename="C:\Users\wolfi_000\Source\Repos\NEWDatRepo\manda's Art\Story2.2.png"
   inkscape:export-xdpi="90"
   inkscape:export-ydpi="90">
  <defs
     id="defs4">
    <linearGradient
       inkscape:collect="always"
       id="linearGradient4666">
      <stop
         style="stop-color:#000000;stop-opacity:1;"
         offset="0"
         id="stop4668" />
      <stop
         style="stop-color:#000000;stop-opacity:0;"
         offset="1"
         id="stop4670" />
    </linearGradient>
    <linearGradient
       inkscape:collect="always"
       id="linearGradient4655">
      <stop
         style="stop-color:#000000;stop-opacity:1;"
         offset="0"
         id="stop4657" />
      <stop
         style="stop-color:#000000;stop-opacity:0;"
         offset="1"
         id="stop4659" />
    </linearGradient>
    <linearGradient
       inkscape:collect="always"
       id="linearGradient4645">
      <stop
         style="stop-color:#ececec;stop-opacity:1;"
         offset="0"
         id="stop4647" />
      <stop
         style="stop-color:#ececec;stop-opacity:0;"
         offset="1"
         id="stop4649" />
    </linearGradient>
    <inkscape:path-effect
       effect="spiro"
       id="path-effect9875-2-5-5"
       is_visible="true" />
    <inkscape:path-effect
       effect="spiro"
       id="path-effect9875-4-0"
       is_visible="true" />
    <inkscape:path-effect
       effect="spiro"
       id="path-effect9875-2-4-6"
       is_visible="true" />
    <inkscape:path-effect
       effect="spiro"
       id="path-effect9875-0-1"
       is_visible="true" />
    <radialGradient
       inkscape:collect="always"
       xlink:href="#linearGradient6567"
       id="radialGradient6573"
       cx="428.57144"
       cy="483.80356"
       fx="428.57144"
       fy="483.80356"
       r="552.85712"
       gradientTransform="matrix(0.40874869,-0.02572122,0.00601396,0.35381602,-95.597462,82.421222)"
       gradientUnits="userSpaceOnUse" />
    <linearGradient
       inkscape:collect="always"
       id="linearGradient6567">
      <stop
         style="stop-color:#e1e100;stop-opacity:1;"
         offset="0"
         id="stop6569" />
      <stop
         style="stop-color:#e1e100;stop-opacity:0;"
         offset="1"
         id="stop6571" />
    </linearGradient>
    <clipPath
       clipPathUnits="userSpaceOnUse"
       id="clipPath4540">
      <g
         id="g4542">
        <a
           id="a4544">
          <path
             style="fill:#000000;fill-opacity:1;fill-rule:evenodd;stroke:none;stroke-width:0.89878571px;stroke-linecap:butt;stroke-linejoin:miter;stroke-opacity:1"
             d="m 83.145944,246.04587 c 0,0 80.240346,-303.780182 170.850966,-1.01015 z"
             id="path4546"
             inkscape:connector-curvature="0"
             sodipodi:nodetypes="ccc" />
        </a>
        <rect
           ry="0"
           rx="0"
           y="242.96419"
           x="83.21003"
           height="59.598999"
           width="170.71579"
           id="rect4548"
           style="opacity:1;fill:#000000;fill-opacity:1;stroke:none;stroke-opacity:1" />
      </g>
    </clipPath>
    <clipPath
       clipPathUnits="userSpaceOnUse"
       id="clipPath4550">
      <g
         id="g4552">
        <a
           id="a4554">
          <path
             style="fill:#000000;fill-opacity:1;fill-rule:evenodd;stroke:none;stroke-width:0.89878571px;stroke-linecap:butt;stroke-linejoin:miter;stroke-opacity:1"
             d="m 83.145944,246.04587 c 0,0 80.240346,-303.780182 170.850966,-1.01015 z"
             id="path4556"
             inkscape:connector-curvature="0"
             sodipodi:nodetypes="ccc" />
        </a>
        <rect
           ry="0"
           rx="0"
           y="242.96419"
           x="83.21003"
           height="59.598999"
           width="170.71579"
           id="rect4558"
           style="opacity:1;fill:#000000;fill-opacity:1;stroke:none;stroke-opacity:1" />
      </g>
    </clipPath>
    <linearGradient
       inkscape:collect="always"
       xlink:href="#linearGradient4645"
       id="linearGradient4651"
       x1="114.28571"
       y1="299.50507"
       x2="457.14285"
       y2="550.93365"
       gradientUnits="userSpaceOnUse" />
    <linearGradient
       inkscape:collect="always"
       xlink:href="#linearGradient4655"
       id="linearGradient4661"
       x1="-57.957157"
       y1="754.84125"
       x2="-272.61508"
       y2="763.69574"
       gradientUnits="userSpaceOnUse"
       gradientTransform="translate(-16.106451,3.6710161)" />
    <linearGradient
       inkscape:collect="always"
       xlink:href="#linearGradient4666"
       id="linearGradient4672"
       x1="-292.85715"
       y1="818.07648"
       x2="568.57141"
       y2="173.79077"
       gradientUnits="userSpaceOnUse"
       gradientTransform="matrix(0.95876289,0,0,1.0161943,-713.60826,-11.559365)" />
  </defs>
  <sodipodi:namedview
     id="base"
     pagecolor="#ffffff"
     bordercolor="#666666"
     borderopacity="1.0"
     inkscape:pageopacity="0.0"
     inkscape:pageshadow="2"
     inkscape:zoom="0.7"
     inkscape:cx="188.69385"
     inkscape:cy="528.47838"
     inkscape:document-units="px"
     inkscape:current-layer="layer4"
     showgrid="false"
     inkscape:window-width="1920"
     inkscape:window-height="1017"
     inkscape:window-x="-8"
     inkscape:window-y="-8"
     inkscape:window-maximized="1" />
  <metadata
     id="metadata7">
    <rdf:RDF>
      <cc:Work
         rdf:about="">
        <dc:format>image/svg+xml</dc:format>
        <dc:type
           rdf:resource="http://purl.org/dc/dcmitype/StillImage" />
        <dc:title></dc:title>
      </cc:Work>
    </rdf:RDF>
  </metadata>
  <g
     inkscape:label="Layer 1"
     inkscape:groupmode="layer"
     id="layer1"
     sodipodi:insensitive="true">
    <rect
       style="opacity:1;fill:#1a1a1a;fill-opacity:1;stroke:#000000;stroke-width:0.88337684;stroke-opacity:1"
       id="rect3336"
       width="792.42285"
       height="600.14728"
       x="-28.342585"
       y="534.09564"
       rx="60.350685"
       ry="16.884195" />
    <rect
       style="opacity:1;fill:#4d4d4d;fill-opacity:1;stroke:none;stroke-opacity:1"
       id="rect3336-4"
       width="798.02051"
       height="712.24677"
       x="-32.324867"
       y="-4.2573695"
       rx="60.777"
       ry="20.037939" />
    <ellipse
       style="opacity:1;fill:url(#linearGradient4661);fill-opacity:1;stroke:none;stroke-opacity:1"
       id="path4653"
       cx="-166.17778"
       cy="770.12354"
       rx="98.750565"
       ry="37.373642"
       transform="matrix(0.94973109,-0.31306686,0.27542328,0.96132306,0,0)" />
  </g>
  <g
     inkscape:groupmode="layer"
     id="layer4"
     inkscape:label="Layer 4"
     style="display:inline">
    <rect
       style="opacity:1;fill:url(#linearGradient4672);fill-opacity:1;stroke:none;stroke-opacity:1"
       id="rect4664"
       width="797.14288"
       height="717.14288"
       x="-764.28577"
       y="-3.352082"
       rx="33.758518"
       ry="18.477156"
       transform="scale(-1,1)" />
  </g>
  <g
     inkscape:groupmode="layer"
     id="layer2"
     inkscape:label="Layer 2"
     style="display:inline"
     sodipodi:insensitive="true">
    <rect
       style="opacity:1;fill:#552200;fill-opacity:1;stroke:none;stroke-opacity:1"
       id="rect4154-1"
       width="20.825768"
       height="272.46533"
       x="540.42334"
       y="595.22125"
       rx="63.286385"
       ry="41.997181"
       transform="matrix(0.96025126,-0.27913708,-0.01418523,0.99989938,0,0)" />
    <rect
       style="opacity:1;fill:#803300;fill-opacity:1;stroke:none;stroke-opacity:1"
       id="rect4154-8-9"
       width="20.825768"
       height="272.46533"
       x="540.08929"
       y="592.49713"
       rx="63.286385"
       ry="41.997181"
       transform="matrix(0.96025126,-0.27913708,-0.01418523,0.99989938,0,0)" />
    <rect
       style="opacity:1;fill:#552200;fill-opacity:1;stroke:none;stroke-opacity:1"
       id="rect4154-5"
       width="20.825768"
       height="272.46533"
       x="506.95337"
       y="593.724"
       rx="63.286385"
       ry="41.997181"
       transform="matrix(0.96025126,-0.27913708,-0.01418523,0.99989938,0,0)" />
    <rect
       style="opacity:1;fill:#803300;fill-opacity:1;stroke:none;stroke-opacity:1"
       id="rect4154-8-0"
       width="20.825768"
       height="272.46533"
       x="508.19632"
       y="590.93518"
       rx="63.286385"
       ry="41.997181"
       transform="matrix(0.96025126,-0.27913708,-0.01418523,0.99989938,0,0)" />
    <rect
       style="opacity:1;fill:#552200;fill-opacity:1;stroke:none;stroke-opacity:1"
       id="rect4154-4"
       width="20.825768"
       height="272.46533"
       x="474.22714"
       y="592.22705"
       rx="63.286385"
       ry="41.997181"
       transform="matrix(0.96025126,-0.27913708,-0.01418523,0.99989938,0,0)" />
    <rect
       style="opacity:1;fill:#803300;fill-opacity:1;stroke:none;stroke-opacity:1"
       id="rect4154-8-7"
       width="20.825768"
       height="272.46533"
       x="475.47009"
       y="589.43811"
       rx="63.286385"
       ry="41.997181"
       transform="matrix(0.96025126,-0.27913708,-0.01418523,0.99989938,0,0)" />
    <rect
       style="opacity:1;fill:#552200;fill-opacity:1;stroke:none;stroke-opacity:1"
       id="rect4154-1-1"
       width="20.825768"
       height="272.46533"
       x="437.41016"
       y="590.91693"
       rx="63.286385"
       ry="41.997181"
       transform="matrix(0.96025126,-0.27913708,-0.01418523,0.99989938,0,0)" />
    <rect
       style="opacity:1;fill:#803300;fill-opacity:1;stroke:none;stroke-opacity:1"
       id="rect4154-8-9-5"
       width="20.825768"
       height="272.46533"
       x="438.65311"
       y="588.12793"
       rx="63.286385"
       ry="41.997181"
       transform="matrix(0.96025126,-0.27913708,-0.01418523,0.99989938,0,0)" />
    <rect
       style="opacity:1;fill:#552200;fill-opacity:1;stroke:none;stroke-opacity:1"
       id="rect4154-4-3"
       width="20"
       height="271.28687"
       x="-575.23962"
       y="437.3309"
       rx="60.777"
       ry="41.815533"
       transform="scale(-1,1)" />
    <rect
       style="opacity:1;fill:#803300;fill-opacity:1;stroke:none;stroke-opacity:1"
       id="rect4154-8-7-9"
       width="20"
       height="271.28687"
       x="-574.04596"
       y="434.55405"
       rx="60.777"
       ry="41.815533"
       transform="scale(-1,1)" />
    <rect
       style="opacity:1;fill:#552200;fill-opacity:1;stroke:none;stroke-opacity:1"
       id="rect4154-1-6"
       width="20"
       height="271.28687"
       x="-621.66827"
       y="440.31216"
       rx="60.777"
       ry="41.815533"
       transform="scale(-1,1)" />
    <rect
       style="opacity:1;fill:#803300;fill-opacity:1;stroke:none;stroke-opacity:1"
       id="rect4154-8-9-1"
       width="20"
       height="271.28687"
       x="-620.47461"
       y="437.53525"
       rx="60.777"
       ry="41.815533"
       transform="scale(-1,1)" />
    <rect
       style="opacity:1;fill:#552200;fill-opacity:1;stroke:none;stroke-opacity:1"
       id="rect4154-5-9"
       width="20"
       height="271.28687"
       x="-672.38251"
       y="440.24994"
       rx="60.777"
       ry="41.815533"
       transform="scale(-1,1)" />
    <rect
       style="opacity:1;fill:#803300;fill-opacity:1;stroke:none;stroke-opacity:1"
       id="rect4154-8-0-81"
       width="20"
       height="271.28687"
       x="-671.18884"
       y="437.47321"
       rx="60.777"
       ry="41.815533"
       transform="scale(-1,1)" />
    <rect
       style="opacity:1;fill:#552200;fill-opacity:1;stroke:none;stroke-opacity:1"
       id="rect4154-4-9"
       width="20"
       height="271.28687"
       x="-703.8111"
       y="438.75946"
       rx="60.777"
       ry="41.815533"
       transform="scale(-1,1)" />
    <rect
       style="opacity:1;fill:#803300;fill-opacity:1;stroke:none;stroke-opacity:1"
       id="rect4154-8-7-7"
       width="20"
       height="271.28687"
       x="-702.61743"
       y="435.9826"
       rx="60.777"
       ry="41.815533"
       transform="scale(-1,1)" />
    <rect
       style="opacity:1;fill:#552200;fill-opacity:1;stroke:none;stroke-opacity:1"
       id="rect4154-7"
       width="20.00346"
       height="204.18494"
       x="689.39435"
       y="527.31451"
       rx="60.787521"
       ry="31.472595"
       transform="matrix(-0.02412015,0.99970907,0.99995219,0.00977832,0,0)" />
    <rect
       style="opacity:1;fill:#803300;fill-opacity:1;stroke:none;stroke-opacity:1"
       id="rect4154-8-2"
       width="20.004259"
       height="217.75562"
       x="691.06348"
       y="511.31677"
       rx="60.789948"
       ry="33.56435"
       transform="matrix(-0.02572236,0.99966913,0.99995796,0.00916893,0,0)" />
    <rect
       style="opacity:1;fill:#552200;fill-opacity:1;stroke:none;stroke-opacity:1"
       id="rect4154-7-6"
       width="20.014311"
       height="345.60818"
       x="431.75122"
       y="388.45309"
       rx="60.820492"
       ry="53.271252"
       transform="matrix(-0.04080546,0.99916711,0.99998331,0.00577702,0,0)" />
    <rect
       style="opacity:1;fill:#803300;fill-opacity:1;stroke:none;stroke-opacity:1"
       id="rect4154-8-2-2"
       width="20.014311"
       height="345.60818"
       x="432.94568"
       y="384.91559"
       rx="60.820492"
       ry="53.271252"
       transform="matrix(-0.04080546,0.99916711,0.99998331,0.00577702,0,0)" />
    <rect
       style="opacity:1;fill:#552200;fill-opacity:1;stroke:none;stroke-opacity:1"
       id="rect4154-7-2"
       width="19.982132"
       height="152.88162"
       x="595.01477"
       y="-563.82672"
       rx="60.722706"
       ry="23.564819"
       transform="matrix(0.0030353,0.99999539,-0.95667484,0.29115845,0,0)" />
    <rect
       style="opacity:1;fill:#803300;fill-opacity:1;stroke:none;stroke-opacity:1"
       id="rect4154-8-2-4"
       width="19.982132"
       height="152.88162"
       x="596.20734"
       y="-565.39154"
       rx="60.722706"
       ry="23.564819"
       transform="matrix(0.0030353,0.99999539,-0.95667484,0.29115845,0,0)" />
    <rect
       style="opacity:1;fill:#552200;fill-opacity:1;stroke:none;stroke-opacity:1"
       id="rect4154-7-2-2"
       width="19.982132"
       height="152.88162"
       x="846.20856"
       y="-560.7785"
       rx="60.722706"
       ry="23.564819"
       transform="matrix(0.0030353,0.99999539,-0.95667484,0.29115845,0,0)" />
    <rect
       style="opacity:1;fill:#803300;fill-opacity:1;stroke:none;stroke-opacity:1"
       id="rect4154-8-2-4-2"
       width="19.982132"
       height="152.88162"
       x="847.40112"
       y="-562.34338"
       rx="60.722706"
       ry="23.564819"
       transform="matrix(0.0030353,0.99999539,-0.95667484,0.29115845,0,0)" />
    <rect
       style="opacity:1;fill:#552200;fill-opacity:1;stroke:none;stroke-opacity:1"
       id="rect4154-7-2-5"
       width="13.033566"
       height="31.039951"
       x="601.52563"
       y="-423.99829"
       rx="39.607048"
       ry="4.7844262"
       transform="matrix(0.00562287,0.99998419,-0.99912088,0.04192224,0,0)" />
    <rect
       style="opacity:1;fill:#803300;fill-opacity:1;stroke:none;stroke-opacity:1"
       id="rect4154-8-2-4-3"
       width="13.033566"
       height="31.039951"
       x="602.30341"
       y="-424.31601"
       rx="39.607048"
       ry="4.7844262"
       transform="matrix(0.00562287,0.99998419,-0.99912088,0.04192224,0,0)" />
    <path
       style="display:inline;fill:#800000;fill-opacity:1;stroke:#b90400;stroke-width:0.30550709px;stroke-linecap:butt;stroke-linejoin:miter;stroke-opacity:1"
       d="m 80.657516,733.44071 c -24.191169,-10.19669 -34.213229,22.59808 -34.213229,22.59808 0,0 18.316177,-16.53518 30.757349,-14.60607 8.6397,-4.96055 3.45588,-7.99201 3.45588,-7.99201 z"
       id="path4779-3"
       inkscape:connector-curvature="0" />
    <path
       style="display:inline;fill:#b90400;fill-opacity:1;stroke:#b90400;stroke-width:0.2539621px;stroke-linecap:butt;stroke-linejoin:miter;stroke-opacity:1"
       d="m 77.258466,734.20959 c -19.78773,-8.61421 -27.985512,19.09095 -27.985512,19.09095 0,0 14.982151,-13.96898 25.158702,-12.33927 7.06704,-4.1907 2.82681,-6.75168 2.82681,-6.75168 z"
       id="path4779-2-0"
       inkscape:connector-curvature="0" />
    <ellipse
       style="display:inline;fill:#800000;fill-opacity:1"
       id="path4291"
       cx="111.74354"
       cy="728.86719"
       rx="41.203789"
       ry="31.426022" />
    <ellipse
       style="display:inline;fill:#b90400;fill-opacity:1"
       id="path4291-9"
       cx="110.79839"
       cy="729.54755"
       rx="39.029716"
       ry="30.355783" />
    <ellipse
       transform="matrix(0.96072152,0.27751425,-0.27163549,0.96240021,0,0)"
       style="display:inline;fill:#800000;fill-opacity:1"
       id="path4208"
       cx="289.24902"
       cy="685.82056"
       rx="22.174355"
       ry="20.219723"
       inkscape:transform-center-x="2.1259825"
       inkscape:transform-center-y="-2.5401427" />
    <ellipse
       transform="matrix(0.96072152,0.27751425,-0.27163549,0.96240021,0,0)"
       style="display:inline;fill:#800000;fill-opacity:1"
       id="path4210"
       cx="297.95297"
       cy="703.90167"
       rx="15.750009"
       ry="10.304282"
       inkscape:transform-center-x="-1.32463"
       inkscape:transform-center-y="17.276593" />
    <ellipse
       transform="matrix(0.96072152,0.27751425,-0.27163549,0.96240021,0,0)"
       style="display:inline;fill:#b90400;fill-opacity:1"
       id="path4208-2"
       cx="288.73093"
       cy="685.14008"
       rx="21.449024"
       ry="19.34483"
       inkscape:transform-center-x="2.4388723"
       inkscape:transform-center-y="-3.338806" />
    <ellipse
       transform="matrix(0.96072152,0.27751425,-0.27163549,0.96240021,0,0)"
       style="display:inline;fill:#b90400;fill-opacity:1"
       id="path4210-6"
       cx="297.33127"
       cy="703.9989"
       rx="14.29935"
       ry="8.6517076"
       inkscape:transform-center-x="-0.70092672"
       inkscape:transform-center-y="17.197626" />
    <ellipse
       transform="matrix(0.99989345,-0.01459743,0.01426333,0.99989827,0,0)"
       style="display:inline;fill:#800000;fill-opacity:1"
       id="path3399"
       cx="121.69673"
       cy="736.44891"
       rx="17.910233"
       ry="17.902088" />
    <ellipse
       transform="matrix(0.99989345,-0.01459743,0.01426333,0.99989827,0,0)"
       style="display:inline;fill:#800000;fill-opacity:1"
       id="path3401"
       cx="118.17682"
       cy="749.77814"
       rx="15.011466"
       ry="17.026443" />
    <ellipse
       transform="matrix(0.99989345,-0.01459743,0.01426333,0.99989827,0,0)"
       style="display:inline;fill:#800000;fill-opacity:1"
       id="path3403"
       cx="126.35547"
       cy="761.45343"
       rx="15.529103"
       ry="10.215866" />
    <ellipse
       transform="matrix(0.99989345,-0.01459743,0.01426333,0.99989827,0,0)"
       style="display:inline;fill:#b90400;fill-opacity:1"
       id="path3399-9"
       cx="121.72775"
       cy="735.8313"
       rx="17.239796"
       ry="17.770937" />
    <ellipse
       transform="matrix(0.99989345,-0.01459743,0.01426333,0.99989827,0,0)"
       style="display:inline;fill:#b90400;fill-opacity:1"
       id="path3401-5"
       cx="118.33958"
       cy="749.06287"
       rx="14.44954"
       ry="16.901709" />
    <ellipse
       transform="matrix(0.99989345,-0.01459743,0.01426333,0.99989827,0,0)"
       style="display:inline;fill:#b90400;fill-opacity:1"
       id="path3403-4"
       cx="124.55563"
       cy="761.04181"
       rx="14.947801"
       ry="10.141024" />
    <ellipse
       style="display:inline;fill:#9b2d27;fill-opacity:0.56078384;stroke:none"
       id="path4937"
       transform="matrix(0.88141885,0.47233549,-0.43635346,0.89977534,0,0)"
       cx="375.16055"
       cy="519.61761"
       rx="8.9458475"
       ry="14.638057" />
    <ellipse
       style="display:inline;fill:#800000;fill-opacity:1;stroke:none"
       id="path4937-5"
       transform="matrix(0.88141885,0.47233549,-0.43635346,0.89977534,0,0)"
       cx="376.18973"
       cy="520.97357"
       rx="8.9458475"
       ry="14.638057" />
    <path
       style="display:inline;fill:#800000;fill-opacity:1"
       d="m 130.7657,645.46489 c -22.69639,-2.85991 -43.153844,11.59349 -45.700454,32.27705 -2.54661,20.68354 13.7821,39.76359 36.478484,42.62349 12.63465,1.59206 24.55968,-2.19125 33.10206,-9.41738 -0.0249,-0.0211 -0.0402,-0.0381 -0.0663,-0.0604 -0.33604,-0.10831 -0.6838,-0.24432 -0.79968,-0.39541 -0.0661,-0.0862 -0.11977,-0.17876 -0.17943,-0.26525 -0.0774,-0.027 -0.15705,-0.0571 -0.23781,-0.0907 -0.12837,-0.0452 -0.25438,-0.0902 -0.37887,-0.14307 -0.0574,-0.0243 -0.11148,-0.056 -0.16413,-0.09 0,-6.5e-4 -0.006,-1.6e-4 -0.009,-10e-4 -0.57525,-0.23721 -0.96221,-0.38322 -1.34197,-0.7844 -0.4966,-0.23875 -0.58156,-0.30251 -0.81428,-0.50124 -0.51017,-0.16586 -0.56747,-0.28718 -1.05285,-0.66129 -0.0198,-0.0152 -0.0529,-0.0244 -0.0684,-0.0433 -0.0312,-0.0377 -0.0567,-0.0764 -0.0873,-0.11499 -0.0433,-0.0215 -0.09,-0.0469 -0.12187,-0.0587 -0.48315,-0.17898 -0.82843,-0.51097 -1.16204,-0.8224 -0.0166,-0.0137 -0.0338,-0.0272 -0.0503,-0.0409 -0.13481,-0.0569 -0.27657,-0.1275 -0.37747,-0.22956 -0.17165,-0.17358 -0.2983,-0.32119 -0.39665,-0.44861 -0.10695,-0.007 -0.20358,-0.14282 -0.29677,-0.21072 -0.41648,-0.30359 -0.64912,-0.56278 -0.89032,-0.85748 0,-0.001 -0.0217,-0.0266 -0.0242,-0.029 -0.006,-0.0115 -0.0172,-0.0478 -0.0599,-0.11155 -0.48621,-0.2542 -0.16317,-0.15484 -0.42291,-0.23527 l -0.50061,-0.65238 c 0.0134,0.0258 0.0357,0.0646 0.0453,0.0837 0,0.006 -2.5e-4,0.007 0,0.009 -0.006,-0.003 -0.0172,-0.014 -0.0249,-0.0205 0.0223,0.0393 0.0816,0.14677 0.0599,0.11156 -0.0249,-0.0403 -0.0504,-0.0829 -0.0771,-0.12239 -0.0293,-0.0259 -0.0625,-0.0622 -0.0824,-0.0797 -0.10855,-0.0958 -0.20837,-0.19281 -0.31456,-0.29097 0.10275,0.0853 0.22131,0.18428 0.31876,0.25683 -0.0733,-0.10816 -0.14099,-0.21341 -0.18012,-0.33467 -0.0491,-0.15311 0.1415,0.17564 0.24858,0.37796 0.006,0.003 0.006,0.008 0.008,0.01 0.21161,0.13155 0.17534,-0.0481 -0.89261,-1.43839 -0.0968,-0.126 0.0478,0.13992 0.12843,0.38016 0.1169,0.13669 0.20518,0.32516 0.10466,0.27317 -0.0236,-0.0121 -0.0382,-0.0349 -0.058,-0.0507 -3.2e-4,0.008 0,0.0184 0,0.0256 -0.014,0.10554 -0.20397,-0.1814 -0.23775,-0.31594 -0.028,-0.0431 -0.0542,-0.0851 -0.0862,-0.12352 0.0274,0.0319 0.0351,0.0437 0.0803,0.0968 -2.5e-4,-0.008 0,-0.0201 0,-0.0256 -0.23265,-0.27772 -0.5509,-0.65517 -0.64268,-0.92158 -0.0242,-0.0701 -0.0389,-0.1434 -0.0567,-0.21512 -0.12111,-0.10163 -0.26764,-0.31066 -0.28135,-0.48608 -0.008,-0.10645 0.0711,0.0324 0.16165,0.18502 -0.0446,-0.16891 -0.0918,-0.38662 -0.0858,-0.42678 l -0.22398,-0.65219 c 5.8e-4,0.0161 -0.0127,-0.019 -0.0312,-0.0473 0.0236,0.17929 0.0561,0.36384 0.0344,0.54168 -0.0115,0.0944 -0.0753,-0.1784 -0.0956,-0.27203 -0.0382,-0.17811 -0.0727,-0.35778 -0.0812,-0.53886 -0.1466,-0.37363 -0.14182,-0.72568 -0.0855,-1.10272 -0.125,-0.28025 -0.24667,-0.60172 -0.1981,-0.78758 -0.0223,-0.19624 -0.0433,-0.39265 -0.0658,-0.58892 0.0268,-0.0868 0.0516,-0.17207 0.078,-0.25883 -0.0128,-0.14987 -0.0236,-0.30153 -0.0555,-0.44895 -0.0198,-0.0916 0.0389,0.36003 -0.006,0.27651 -0.15304,-0.28126 -0.0306,-1.01962 0.0408,-1.30347 0.12091,-0.48187 0.27822,-0.68305 0.44662,-0.70633 0.24348,-0.95468 1.44689,-1.72361 3.49376,-1.41432 0.77188,0.11663 1.54919,0.0744 2.30858,0.27355 0.20658,0.0813 0.41195,0.1545 0.61566,0.24224 0.0153,0.006 0.0472,0.0167 0.0705,0.0262 0.16674,0.0289 0.34718,0.0833 0.52629,0.14431 0.31252,-0.0442 0.67666,-0.0398 1.08517,0.024 0.2329,0.0364 0.1067,0.0199 0.38033,0.0566 0.59176,0.0476 1.22062,0.0119 1.70529,0.37954 0.008,10e-4 0.0198,0.003 0.0274,0.003 0.55498,0.033 1.09422,0.12137 1.5265,0.409 l 0.69011,0.087 c 0.41054,0.0517 0.8244,0.10385 1.23495,0.15561 0.41571,0.0524 0.8283,0.10464 1.24401,0.15675 0.43801,0.0552 0.87845,0.11264 1.31666,0.16591 0.44663,0.0543 0.89045,0.0989 1.33375,0.17671 0.2846,0.044 0.5757,0.007 0.86093,0.0478 0.58258,0.0843 0.56346,0.11565 1.07249,0.35179 0.006,0.003 0.006,0.007 0.008,0.01 0.26898,0.005 0.26988,0.007 0.75366,0.095 0.0255,0.009 0.66353,0.21345 0.73058,0.28271 0.0376,0.039 -0.20996,-0.0284 -0.16661,0.005 0.0769,0.0593 0.47122,0.0275 0.58111,0.0732 l 0.49035,0.0618 c 1.14636,-2.79644 1.94552,-5.76512 2.32949,-8.8839 2.54659,-20.68355 -13.79012,-39.77328 -36.4865,-42.63318 z m 14.36887,58.6257 -0.0873,-0.11499 c 0.0172,0.0304 0.0242,0.0431 0.0529,0.0933 0.0127,0.009 0.0229,0.0143 0.0344,0.0217 z m 4.52175,-4.59524 c 0,0.008 0,0.0171 -0.006,0.0256 0.006,0.003 0.0115,0.007 0.0172,0.0108 0.006,-0.008 0.009,-0.0163 0.0121,-0.0244 -0.008,-10e-4 -0.0198,-0.0112 -0.0261,-0.0119 z m -6.24763,1.98592 c 0.008,0.044 0.006,0.0602 0.008,0.0876 0.006,0.0108 0.0178,0.0189 0.0242,0.029 -0.009,-0.0395 -0.0217,-0.0774 -0.0319,-0.11667 z m 2.16798,2.83835 c -0.0274,-0.003 0.2503,0.44898 0.38887,0.5863 0.0166,0.0163 0.0497,0.0343 0.0765,0.053 -0.14373,-0.20993 -0.37906,-0.54621 -0.43222,-0.60909 -0.0178,-0.0212 -0.0293,-0.0297 -0.0331,-0.0302 z m 0.62841,0.7378 c 0.1749,0.0969 0.35146,0.17765 0.24272,0.12591 -0.12449,-0.0592 -0.15782,-0.0834 -0.24272,-0.12591 z m 0.8687,0.73343 c 0.006,0.0106 0.0319,0.071 0.0618,0.17244 0.0178,0.0165 0.0554,0.0348 0.0855,0.0541 -0.0933,-0.14143 -0.15387,-0.24193 -0.1473,-0.22655 z m 2.01156,1.56206 c 0.0421,0.0611 0.0969,0.14762 0.12429,0.18898 0.0159,0.009 0.0357,0.0153 0.0523,0.0239 -0.0554,-0.0735 -0.1176,-0.14189 -0.17662,-0.21291 z m 1.30137,1.03926 c -0.0408,-0.0339 0.0699,0.0783 0.10543,0.11728 0.0178,0.0101 0.0491,0.0295 0.0775,0.0445 -0.0567,-0.0487 -0.0998,-0.0928 -0.18293,-0.16171 z m 0.40895,0.19885 c -0.20702,-0.0119 0.3595,0.32689 0.6316,0.48689 -0.051,-0.0563 -0.0973,-0.13354 -0.15043,-0.20094 -0.0767,-0.0433 -0.14258,-0.0879 -0.30588,-0.21187 -0.0121,-0.0201 -0.0115,-0.0181 -0.023,-0.0375 -0.0599,-0.0159 -0.1241,-0.0349 -0.15227,-0.0366 z"
       id="path2985-1-6"
       inkscape:connector-curvature="0" />
    <path
       style="display:inline;opacity:0.47000002;fill:#b90400;fill-opacity:1"
       d="m 134.0363,644.26172 c -22.23788,-2.80213 -42.241344,10.99775 -44.681854,30.81949 -2.4405,19.82174 13.606564,38.15558 35.844424,40.95771 10.73158,1.35225 20.93227,-1.17485 28.89978,-6.3678 -0.18344,-0.10553 -0.35777,-0.23143 -0.53006,-0.41343 -0.49659,-0.23876 -0.58156,-0.30251 -0.81434,-0.50125 -0.5101,-0.16586 -0.56741,-0.28718 -1.05278,-0.6613 -0.0198,-0.0152 -0.0523,-0.0244 -0.0684,-0.0433 -0.0319,-0.0377 -0.0574,-0.0764 -0.0873,-0.11499 -0.0433,-0.0215 -0.09,-0.0469 -0.12187,-0.0587 -0.48314,-0.17898 -0.82842,-0.51097 -1.16203,-0.82239 -0.0166,-0.0137 -0.0338,-0.0272 -0.0504,-0.0409 -0.13481,-0.0569 -0.27656,-0.1275 -0.37746,-0.22955 -0.17172,-0.17359 -0.29837,-0.3212 -0.39666,-0.44862 -0.10695,-0.007 -0.20358,-0.14281 -0.29677,-0.21073 -0.41647,-0.30358 -0.64912,-0.56277 -0.89031,-0.85746 0,-10e-4 -0.0217,-0.0266 -0.0242,-0.029 0,-0.0115 -0.0172,-0.0478 -0.0599,-0.11156 -0.4862,-0.25421 -0.16317,-0.15484 -0.42291,-0.23528 l -0.50061,-0.65237 c 0.0134,0.0258 0.0357,0.0646 0.0453,0.0837 0,0.006 -2.5e-4,0.007 0,0.009 -0.006,-0.003 -0.0172,-0.014 -0.0248,-0.0205 0.0223,0.0393 0.0816,0.14678 0.0599,0.11156 -0.0249,-0.0403 -0.0504,-0.0829 -0.0771,-0.12238 -0.0293,-0.0259 -0.0625,-0.0622 -0.0824,-0.0797 -0.10855,-0.0958 -0.20836,-0.19281 -0.31455,-0.29096 0.10275,0.0853 0.2213,0.18427 0.31876,0.25682 -0.0733,-0.10815 -0.14099,-0.21341 -0.18013,-0.33467 -0.0497,-0.15311 0.1415,0.17564 0.24858,0.37796 0.006,0.003 0.006,0.008 0.008,0.01 0.21162,0.13157 0.17535,-0.0481 -0.89261,-1.43839 -0.0968,-0.12599 0.0478,0.13992 0.12844,0.38016 0.1169,0.1367 0.20517,0.32517 0.10466,0.27317 -0.0236,-0.0121 -0.0383,-0.0349 -0.058,-0.0507 -3.1e-4,0.008 0,0.0184 -0.006,0.0256 -0.014,0.10553 -0.20397,-0.1814 -0.23775,-0.31594 -0.028,-0.0431 -0.0542,-0.0851 -0.0862,-0.12352 0.0274,0.0319 0.0351,0.0437 0.0802,0.0968 -2.5e-4,-0.008 0,-0.0201 0.006,-0.0256 -0.23265,-0.27772 -0.5509,-0.65516 -0.64269,-0.92158 -0.0242,-0.0701 -0.0389,-0.14339 -0.0567,-0.21511 -0.1211,-0.10164 -0.26764,-0.31066 -0.28134,-0.48609 -0.008,-0.10644 0.0711,0.0324 0.16164,0.18503 -0.0446,-0.16892 -0.0918,-0.38663 -0.0857,-0.42679 l -0.22404,-0.65218 c 6.3e-4,0.016 -0.0127,-0.019 -0.0312,-0.0473 0.0236,0.1793 0.0561,0.36384 0.0344,0.54168 -0.0115,0.0944 -0.0753,-0.17841 -0.0955,-0.27203 -0.0383,-0.17811 -0.0728,-0.35777 -0.0812,-0.53886 -0.14666,-0.37363 -0.14188,-0.72568 -0.0855,-1.10272 -0.12506,-0.28025 -0.24668,-0.60172 -0.19817,-0.78758 -0.0223,-0.19623 -0.0433,-0.39265 -0.0658,-0.58892 0.0268,-0.0868 0.0516,-0.17206 0.0779,-0.25882 -0.0127,-0.14988 -0.0236,-0.30154 -0.0555,-0.44896 -0.0198,-0.0916 0.0389,0.36003 -0.006,0.27651 -0.15304,-0.28125 -0.0306,-1.01961 0.0408,-1.30346 0.12098,-0.48188 0.27822,-0.68305 0.44662,-0.70634 0.24349,-0.95468 1.44689,-1.72361 3.49382,-1.41431 0.77189,0.11662 1.54913,0.0744 2.30852,0.27354 0.20658,0.0813 0.41195,0.1545 0.61566,0.24223 0.0153,0.006 0.0472,0.0168 0.0706,0.0262 0.16668,0.0289 0.34719,0.0833 0.5263,0.14432 0.31252,-0.0442 0.6766,-0.0398 1.0851,0.0241 0.23297,0.0364 0.10677,0.0199 0.38034,0.0565 0.59182,0.0476 1.22067,0.0119 1.70535,0.37954 0.008,10e-4 0.0198,0.003 0.0274,0.003 0.55491,0.033 1.09415,0.12137 1.52643,0.409 l 0.69017,0.087 c 0.41049,0.0517 0.82441,0.10385 1.23489,0.15561 0.41571,0.0524 0.8283,0.10464 1.24401,0.15676 0.43802,0.0552 0.87846,0.11263 1.31667,0.1659 0.44662,0.0543 0.89044,0.0989 1.33381,0.17672 0.28454,0.044 0.5757,0.007 0.86087,0.0478 0.58258,0.0843 0.56352,0.11564 1.07248,0.35179 0.006,0.003 0.006,0.007 0.008,0.01 0.26898,0.005 0.26993,0.007 0.75372,0.095 0.0236,0.008 0.56881,0.18103 0.69629,0.26107 1.96356,-3.56995 3.28571,-7.51306 3.80506,-11.73111 2.44046,-19.82174 -13.61464,-38.16526 -35.85249,-40.96739 z m 13.19843,59.96878 -0.0873,-0.11499 c 0.0172,0.0304 0.0242,0.0431 0.0529,0.0933 0.0127,0.009 0.0229,0.0143 0.0344,0.0217 z m 18.71763,-7.25217 c 0,10e-4 -0.006,0.005 0,0.009 0.0179,0.0136 0.0542,0.0237 0.0978,0.0297 0.006,5.2e-4 0.006,6.5e-4 0.009,10e-4 0.006,-0.008 0.008,-0.0165 0.0121,-0.0244 -0.0478,-0.006 -0.10785,-0.0206 -0.11805,-0.0149 z m -14.19595,2.65693 c 0,0.008 0,0.0171 0,0.0256 0.006,0.003 0.0115,0.007 0.0172,0.0108 0.006,-0.008 0.009,-0.0163 0.0121,-0.0244 -0.008,-10e-4 -0.0198,-0.0111 -0.0261,-0.0119 z m -6.24756,1.98592 c 0.008,0.044 0.006,0.0602 0.008,0.0876 0.006,0.0108 0.0179,0.0189 0.0242,0.029 -0.009,-0.0395 -0.0217,-0.0774 -0.0319,-0.11667 z m 2.16791,2.83835 c -0.0274,-0.003 0.25031,0.44898 0.38888,0.5863 0.0166,0.0163 0.0497,0.0343 0.0765,0.053 -0.14367,-0.20993 -0.37899,-0.5462 -0.43215,-0.60909 -0.0178,-0.0212 -0.0293,-0.0297 -0.0332,-0.0302 z m 0.62847,0.73781 c 0.1749,0.0968 0.35146,0.17764 0.24266,0.1259 -0.12448,-0.0592 -0.15776,-0.0834 -0.24266,-0.1259 z m 0.86871,0.73342 c 0.006,0.0106 0.0319,0.071 0.0618,0.17244 0.0178,0.0166 0.0555,0.0348 0.0855,0.0541 -0.0934,-0.14142 -0.15393,-0.24193 -0.1473,-0.22655 z m 2.01156,1.56207 c 0.0421,0.0611 0.0969,0.14761 0.12422,0.18897 0.0159,0.009 0.0357,0.0153 0.0523,0.0239 -0.0554,-0.0735 -0.1176,-0.1419 -0.17662,-0.21292 z m 1.3013,1.03925 c -0.0408,-0.034 0.0699,0.0783 0.10549,0.11728 0.0179,0.0101 0.0491,0.0295 0.0775,0.0445 -0.0567,-0.0487 -0.0998,-0.0928 -0.183,-0.16171 z m 0.40896,0.19885 c -0.20703,-0.0119 0.35949,0.32689 0.63165,0.4869 -0.051,-0.0563 -0.0973,-0.13355 -0.15048,-0.20095 -0.0767,-0.0433 -0.14259,-0.0879 -0.30589,-0.21187 -0.0121,-0.0201 -0.0115,-0.0181 -0.023,-0.0375 -0.0599,-0.0159 -0.1241,-0.0349 -0.15227,-0.0366 z"
       id="path3763-9"
       inkscape:connector-curvature="0" />
    <path
       sodipodi:type="arc"
       style="display:inline;fill:#800000;fill-opacity:1;stroke:none"
       id="path4942-2-8"
       sodipodi:cx="-202.01535"
       sodipodi:cy="630.75488"
       sodipodi:rx="8.9139757"
       sodipodi:ry="9.7831097"
       d="m -194.30661,635.66727 a 8.9139757,9.7831097 0 0 1 -11.45817,3.9632 8.9139757,9.7831097 0 0 1 -4.64769,-12.15845 8.9139757,9.7831097 0 0 1 10.60487,-6.19544 l -2.20775,9.4783 z"
       sodipodi:start="0.52605967"
       sodipodi:end="4.962666"
       transform="matrix(-0.99574897,-0.09210852,-0.12219997,0.9925055,0,0)" />
    <path
       style="display:inline;fill:#b90400;fill-opacity:1"
       d="m 132.86579,645.6048 c -22.69637,-2.8599 -43.153814,11.59349 -45.700424,32.27705 -2.54662,20.68355 13.782094,39.76359 36.478454,42.6235 12.63471,1.59205 24.55968,-2.19126 33.10206,-9.41739 -0.0249,-0.0211 -0.0402,-0.0381 -0.0663,-0.0603 -0.3361,-0.10831 -0.68386,-0.24433 -0.79968,-0.39541 -0.0662,-0.0862 -0.11983,-0.17877 -0.17942,-0.26526 -0.0774,-0.0269 -0.15712,-0.0571 -0.23781,-0.0907 -0.12844,-0.0452 -0.25439,-0.0902 -0.37894,-0.14307 -0.0574,-0.0243 -0.11141,-0.056 -0.16413,-0.09 0,-6.4e-4 -0.006,-1.7e-4 -0.009,-10e-4 -0.57525,-0.2372 -0.96221,-0.38321 -1.34191,-0.78439 -0.49666,-0.23876 -0.58156,-0.30251 -0.81433,-0.50124 -0.51018,-0.16586 -0.56741,-0.28718 -1.05279,-0.6613 -0.0198,-0.0152 -0.0529,-0.0244 -0.0685,-0.0433 -0.0319,-0.0377 -0.0574,-0.0764 -0.0873,-0.11499 -0.0433,-0.0215 -0.0901,-0.0469 -0.12187,-0.0587 -0.48314,-0.17898 -0.82842,-0.51097 -1.1621,-0.82239 -0.0166,-0.0137 -0.0338,-0.0272 -0.0504,-0.0409 -0.13475,-0.0569 -0.2765,-0.12749 -0.37747,-0.22956 -0.17165,-0.17358 -0.2983,-0.32119 -0.39658,-0.44861 -0.10696,-0.007 -0.20365,-0.14281 -0.29684,-0.21073 -0.41647,-0.30358 -0.64912,-0.56277 -0.89031,-0.85747 0,-10e-4 -0.0217,-0.0266 -0.0242,-0.029 0,-0.0115 -0.0172,-0.0478 -0.0599,-0.11156 -0.48621,-0.2542 -0.16311,-0.15482 -0.42285,-0.23527 l -0.50061,-0.65237 c 0.0134,0.0258 0.0357,0.0646 0.0453,0.0837 0,0.006 -3.2e-4,0.007 0,0.009 -0.006,-0.003 -0.0172,-0.0141 -0.0249,-0.0205 0.0223,0.0393 0.0816,0.14678 0.0599,0.11156 -0.0249,-0.0403 -0.0503,-0.0829 -0.0772,-0.12239 -0.0293,-0.0259 -0.0625,-0.0622 -0.0824,-0.0797 -0.10855,-0.0958 -0.20843,-0.1928 -0.31462,-0.29095 0.10275,0.0853 0.22131,0.18427 0.31883,0.25682 -0.0734,-0.10815 -0.14099,-0.21341 -0.18013,-0.33467 -0.0497,-0.15311 0.1415,0.17564 0.24852,0.37796 0.006,0.003 0.006,0.008 0.008,0.01 0.21168,0.13156 0.17535,-0.0481 -0.89255,-1.43838 -0.0968,-0.126 0.0478,0.13992 0.12837,0.38015 0.1169,0.13669 0.20525,0.32516 0.10473,0.27317 -0.0236,-0.0121 -0.0382,-0.0349 -0.058,-0.0507 -3.9e-4,0.008 0,0.0184 -0.006,0.0256 -0.014,0.10552 -0.20396,-0.18141 -0.23775,-0.31594 -0.028,-0.043 -0.0542,-0.0851 -0.0862,-0.12353 0.0274,0.0319 0.0351,0.0437 0.0803,0.0968 -2.6e-4,-0.008 0,-0.0201 0.006,-0.0256 -0.23271,-0.27772 -0.55097,-0.65517 -0.64275,-0.92158 -0.0242,-0.0701 -0.0389,-0.1434 -0.0567,-0.21511 -0.1211,-0.10165 -0.26764,-0.31066 -0.28128,-0.48609 -0.008,-0.10645 0.0711,0.0324 0.16164,0.18502 -0.0446,-0.16891 -0.0919,-0.38662 -0.0858,-0.42679 l -0.22398,-0.65218 c 5.7e-4,0.0161 -0.0127,-0.019 -0.0312,-0.0473 0.0236,0.17928 0.0561,0.36382 0.0344,0.54167 -0.0115,0.0944 -0.0754,-0.1784 -0.0956,-0.27203 -0.0382,-0.17811 -0.0728,-0.35778 -0.0812,-0.53886 -0.1466,-0.37363 -0.14188,-0.72567 -0.0855,-1.10271 -0.12499,-0.28026 -0.24667,-0.60173 -0.1981,-0.78759 -0.0223,-0.19624 -0.0433,-0.39266 -0.0658,-0.58892 0.0268,-0.0868 0.0516,-0.17206 0.078,-0.25882 -0.0127,-0.14988 -0.0236,-0.30155 -0.0555,-0.44896 -0.0198,-0.0916 0.0389,0.36003 -0.006,0.27651 -0.15311,-0.28125 -0.0306,-1.01962 0.0408,-1.30347 0.12091,-0.48187 0.27822,-0.68305 0.44656,-0.70634 0.24349,-0.95468 1.44695,-1.7236 3.49382,-1.4143 0.77189,0.11662 1.54913,0.0744 2.30852,0.27354 0.20664,0.0813 0.41195,0.15449 0.61566,0.24223 0.0153,0.006 0.0472,0.0168 0.0706,0.0262 0.16668,0.0289 0.34719,0.0833 0.5263,0.14431 0.31251,-0.0442 0.67659,-0.0398 1.08516,0.024 0.23291,0.0364 0.1067,0.0199 0.38034,0.0566 0.59176,0.0476 1.22061,0.0119 1.70529,0.37954 0.008,10e-4 0.0198,0.003 0.0274,0.003 0.55498,0.033 1.09416,0.12138 1.5265,0.409 l 0.69011,0.087 c 0.41055,0.0517 0.82441,0.10385 1.23496,0.15561 0.41571,0.0524 0.82823,0.10464 1.244,0.15676 0.43796,0.0552 0.8784,0.11263 1.31667,0.16591 0.44656,0.0543 0.89038,0.0989 1.33375,0.17671 0.28453,0.044 0.5757,0.007 0.86093,0.0478 0.58258,0.0843 0.56346,0.11564 1.07242,0.35179 0.006,0.003 0,0.007 0.008,0.01 0.26899,0.005 0.26994,0.007 0.75372,0.095 0.0255,0.009 0.66347,0.21345 0.73052,0.28271 0.0376,0.039 -0.20989,-0.0284 -0.16655,0.005 0.0769,0.0593 0.47123,0.0275 0.58112,0.0732 l 0.49034,0.0618 c 1.14636,-2.79644 1.94546,-5.76511 2.32949,-8.8839 2.54659,-20.68355 -13.79011,-39.77328 -36.4865,-42.63318 z m 14.36894,58.6257 -0.0873,-0.11499 c 0.0172,0.0304 0.0242,0.0431 0.0529,0.0933 0.0127,0.009 0.0229,0.0143 0.0344,0.0217 z m 4.52168,-4.59524 c 0,0.008 0,0.0171 0,0.0256 0.006,0.003 0.0115,0.007 0.0172,0.0108 0.006,-0.008 0.009,-0.0163 0.0121,-0.0244 -0.008,-10e-4 -0.0198,-0.0111 -0.0261,-0.0119 z m -6.24756,1.98592 c 0.008,0.044 0.006,0.0602 0.008,0.0876 0.006,0.0108 0.0179,0.0189 0.0242,0.029 -0.009,-0.0395 -0.0217,-0.0774 -0.0319,-0.11667 z m 2.16791,2.83835 c -0.0274,-0.003 0.25031,0.44898 0.38888,0.5863 0.0166,0.0163 0.0497,0.0343 0.0765,0.053 -0.14367,-0.20993 -0.37899,-0.5462 -0.43215,-0.60909 -0.0178,-0.0212 -0.0293,-0.0297 -0.0332,-0.0302 z m 0.62847,0.73781 c 0.1749,0.0968 0.35146,0.17764 0.24266,0.1259 -0.12448,-0.0592 -0.15776,-0.0834 -0.24266,-0.1259 z m 0.86871,0.73342 c 0.006,0.0106 0.0319,0.071 0.0618,0.17244 0.0178,0.0166 0.0555,0.0348 0.0855,0.0541 -0.0934,-0.14142 -0.15393,-0.24193 -0.1473,-0.22655 z m 2.01156,1.56207 c 0.0421,0.0611 0.0969,0.14761 0.12422,0.18897 0.0159,0.009 0.0357,0.0153 0.0523,0.0239 -0.0554,-0.0735 -0.1176,-0.1419 -0.17662,-0.21292 z m 1.3013,1.03925 c -0.0408,-0.034 0.0699,0.0783 0.10549,0.11728 0.0179,0.0101 0.0491,0.0295 0.0775,0.0445 -0.0567,-0.0487 -0.0998,-0.0928 -0.183,-0.16171 z m 0.40896,0.19885 c -0.20703,-0.0119 0.35949,0.32689 0.63165,0.4869 -0.051,-0.0563 -0.0973,-0.13355 -0.15048,-0.20095 -0.0767,-0.0433 -0.14259,-0.0879 -0.30589,-0.21187 -0.0121,-0.0201 -0.0115,-0.0181 -0.023,-0.0375 -0.0599,-0.0159 -0.1241,-0.0349 -0.15227,-0.0366 z"
       id="path2985-1"
       inkscape:connector-curvature="0" />
    <path
       style="display:inline;opacity:0.47000002;fill:#b90400;fill-opacity:1"
       d="m 133.03202,645.67775 c -22.23785,-2.80214 -42.241334,10.99775 -44.681834,30.81949 -2.44051,19.82173 13.605524,38.16411 35.843384,40.96624 11.48186,1.44679 22.36042,-1.54608 30.54165,-7.49549 -0.48073,-0.19807 -0.82422,-0.34855 -1.16663,-0.7103 -0.49659,-0.23876 -0.58156,-0.30251 -0.81434,-0.50125 -0.5101,-0.16586 -0.56741,-0.28718 -1.05278,-0.6613 -0.0198,-0.0152 -0.0523,-0.0244 -0.0684,-0.0433 -0.0319,-0.0377 -0.0574,-0.0764 -0.0873,-0.11499 -0.0433,-0.0215 -0.09,-0.0469 -0.12187,-0.0587 -0.48314,-0.17898 -0.82842,-0.51097 -1.16203,-0.82239 -0.0166,-0.0137 -0.0338,-0.0272 -0.0504,-0.0409 -0.13481,-0.0569 -0.27656,-0.1275 -0.37746,-0.22955 -0.17172,-0.17359 -0.29837,-0.3212 -0.39666,-0.44862 -0.10695,-0.007 -0.20358,-0.14281 -0.29677,-0.21073 -0.41647,-0.30358 -0.64912,-0.56277 -0.89031,-0.85746 0,-10e-4 -0.0217,-0.0266 -0.0242,-0.029 0,-0.0115 -0.0172,-0.0478 -0.0599,-0.11156 -0.4862,-0.25421 -0.16317,-0.15484 -0.42291,-0.23528 l -0.50061,-0.65237 c 0.0134,0.0258 0.0357,0.0646 0.0453,0.0837 0,0.006 -2.5e-4,0.007 0,0.009 -0.006,-0.003 -0.0172,-0.014 -0.0248,-0.0205 0.0223,0.0393 0.0816,0.14678 0.0599,0.11156 -0.0249,-0.0403 -0.0504,-0.0829 -0.0771,-0.12238 -0.0293,-0.0259 -0.0625,-0.0622 -0.0824,-0.0797 -0.10855,-0.0958 -0.20836,-0.19281 -0.31455,-0.29096 0.10275,0.0853 0.2213,0.18427 0.31876,0.25682 -0.0733,-0.10815 -0.14099,-0.21341 -0.18013,-0.33467 -0.0497,-0.15311 0.1415,0.17564 0.24858,0.37796 0.006,0.003 0.006,0.008 0.008,0.01 0.21162,0.13157 0.17535,-0.0481 -0.89261,-1.43839 -0.0968,-0.12599 0.0478,0.13992 0.12844,0.38016 0.1169,0.1367 0.20517,0.32517 0.10466,0.27317 -0.0236,-0.0121 -0.0383,-0.0349 -0.058,-0.0507 -3.1e-4,0.008 0,0.0184 -0.006,0.0256 -0.014,0.10553 -0.20397,-0.1814 -0.23775,-0.31594 -0.028,-0.0431 -0.0542,-0.0851 -0.0862,-0.12352 0.0274,0.0319 0.0351,0.0437 0.0802,0.0968 -2.5e-4,-0.008 0,-0.0201 0.006,-0.0256 -0.23265,-0.27772 -0.5509,-0.65516 -0.64269,-0.92158 -0.0242,-0.0701 -0.0389,-0.14339 -0.0567,-0.21511 -0.1211,-0.10164 -0.26764,-0.31066 -0.28134,-0.48609 -0.008,-0.10644 0.0711,0.0324 0.16164,0.18503 -0.0446,-0.16892 -0.0918,-0.38663 -0.0857,-0.42679 l -0.22404,-0.65218 c 6.3e-4,0.016 -0.0127,-0.019 -0.0312,-0.0473 0.0236,0.1793 0.0561,0.36384 0.0344,0.54168 -0.0115,0.0944 -0.0753,-0.17841 -0.0955,-0.27203 -0.0383,-0.17811 -0.0728,-0.35777 -0.0812,-0.53886 -0.14666,-0.37363 -0.14188,-0.72568 -0.0855,-1.10272 -0.12506,-0.28025 -0.24668,-0.60172 -0.19817,-0.78758 -0.0223,-0.19623 -0.0433,-0.39265 -0.0658,-0.58892 0.0268,-0.0868 0.0516,-0.17206 0.0779,-0.25882 -0.0127,-0.14988 -0.0236,-0.30154 -0.0555,-0.44896 -0.0198,-0.0916 0.0389,0.36003 -0.006,0.27651 -0.15304,-0.28125 -0.0306,-1.01961 0.0408,-1.30346 0.12098,-0.48188 0.27822,-0.68305 0.44662,-0.70634 0.24349,-0.95468 1.44689,-1.72361 3.49382,-1.41431 0.77189,0.11662 1.54913,0.0744 2.30852,0.27354 0.20658,0.0813 0.41195,0.1545 0.61566,0.24223 0.0153,0.006 0.0472,0.0168 0.0706,0.0262 0.16668,0.0289 0.34719,0.0833 0.5263,0.14432 0.31252,-0.0442 0.6766,-0.0398 1.0851,0.0241 0.23297,0.0364 0.10677,0.0199 0.38034,0.0565 0.59182,0.0476 1.22067,0.0119 1.70535,0.37954 0.008,10e-4 0.0198,0.003 0.0274,0.003 0.55491,0.033 1.09415,0.12137 1.52643,0.409 l 0.69017,0.087 c 0.41049,0.0517 0.82441,0.10385 1.23489,0.15561 0.41571,0.0524 0.8283,0.10464 1.24401,0.15676 0.43802,0.0552 0.87846,0.11263 1.31667,0.1659 0.44662,0.0543 0.89044,0.0989 1.33381,0.17672 0.28454,0.044 0.5757,0.007 0.86087,0.0478 0.58258,0.0843 0.56352,0.11564 1.07248,0.35179 0.006,0.003 0.006,0.007 0.008,0.01 0.26898,0.005 0.26993,0.007 0.75372,0.095 0.0159,0.005 0.26375,0.0856 0.46861,0.16305 1.53262,-3.16168 2.57227,-6.58689 3.01934,-10.21821 2.44053,-19.82174 -13.60546,-38.16411 -35.84337,-40.96624 z m 14.20271,58.55275 -0.0873,-0.11499 c 0.0172,0.0304 0.0242,0.0431 0.0529,0.0933 0.0127,0.009 0.0229,0.0143 0.0344,0.0217 z m 4.52168,-4.59524 c 0,0.008 0,0.0171 0,0.0256 0.006,0.003 0.0115,0.007 0.0172,0.0108 0.006,-0.008 0.009,-0.0163 0.0121,-0.0244 -0.008,-10e-4 -0.0198,-0.0111 -0.0261,-0.0119 z m -6.24756,1.98592 c 0.008,0.044 0.006,0.0602 0.008,0.0876 0.006,0.0108 0.0179,0.0189 0.0242,0.029 -0.009,-0.0395 -0.0217,-0.0774 -0.0319,-0.11667 z m 2.16791,2.83835 c -0.0274,-0.003 0.25031,0.44898 0.38888,0.5863 0.0166,0.0163 0.0497,0.0343 0.0765,0.053 -0.14367,-0.20993 -0.37899,-0.5462 -0.43215,-0.60909 -0.0178,-0.0212 -0.0293,-0.0297 -0.0332,-0.0302 z m 0.62847,0.73781 c 0.1749,0.0968 0.35146,0.17764 0.24266,0.1259 -0.12448,-0.0592 -0.15776,-0.0834 -0.24266,-0.1259 z m 0.86871,0.73342 c 0.006,0.0106 0.0319,0.071 0.0618,0.17244 0.0178,0.0166 0.0555,0.0348 0.0855,0.0541 -0.0934,-0.14142 -0.15393,-0.24193 -0.1473,-0.22655 z m 2.01156,1.56207 c 0.0421,0.0611 0.0969,0.14761 0.12422,0.18897 0.0159,0.009 0.0357,0.0153 0.0523,0.0239 -0.0554,-0.0735 -0.1176,-0.1419 -0.17662,-0.21292 z m 1.3013,1.03925 c -0.0408,-0.034 0.0699,0.0783 0.10549,0.11728 0.0179,0.0101 0.0491,0.0295 0.0775,0.0445 -0.0567,-0.0487 -0.0998,-0.0928 -0.183,-0.16171 z m 0.40896,0.19885 c -0.20703,-0.0119 0.35949,0.32689 0.63165,0.4869 -0.051,-0.0563 -0.0973,-0.13355 -0.15048,-0.20095 -0.0767,-0.0433 -0.14259,-0.0879 -0.30589,-0.21187 -0.0121,-0.0201 -0.0115,-0.0181 -0.023,-0.0375 -0.0599,-0.0159 -0.1241,-0.0349 -0.15227,-0.0366 z"
       id="path3763-7"
       inkscape:connector-curvature="0" />
    <path
       style="display:inline;fill:#b90400;fill-opacity:1;fill-rule:evenodd;stroke:none"
       d="m 162.54229,679.1384 c -8.85106,-1.1153 -16.9103,5.15536 -18.00011,14.00684 -0.19256,1.56368 -0.15177,3.10626 0.0899,4.58704 0.0249,-0.0813 0.051,-0.16046 0.0759,-0.24176 -0.0128,-0.14988 -0.0236,-0.30154 -0.0555,-0.44895 -0.0198,-0.0916 0.0389,0.36002 -0.006,0.2765 -0.1531,-0.28125 -0.0306,-1.01961 0.0408,-1.30346 0.12092,-0.48187 0.27816,-0.68305 0.44656,-0.70634 0.24349,-0.95468 1.44689,-1.72361 3.49382,-1.41431 0.77189,0.11662 1.54913,0.0744 2.30852,0.27354 0.20658,0.0813 0.41195,0.1545 0.61566,0.24223 0.0153,0.006 0.0472,0.0168 0.0706,0.0263 0.16668,0.0289 0.34719,0.0833 0.5263,0.14431 0.31251,-0.0442 0.67659,-0.0398 1.0851,0.024 0.23297,0.0364 0.10677,0.0199 0.38034,0.0566 0.59182,0.0476 1.22067,0.0119 1.70535,0.37954 0.008,10e-4 0.0198,0.003 0.0274,0.003 0.55498,0.033 1.09415,0.12137 1.52649,0.40901 l 0.69011,0.087 c 0.41055,0.0517 0.82441,0.10385 1.23489,0.15561 0.41571,0.0524 0.8283,0.10464 1.24407,0.15676 0.43796,0.0552 0.8784,0.11264 1.31667,0.1659 0.44656,0.0543 0.89038,0.0989 1.33375,0.17672 0.28453,0.044 0.5757,0.007 0.86093,0.0478 0.58252,0.0843 0.56346,0.11564 1.07242,0.35179 0.006,0.003 0.006,0.007 0.008,0.01 0.26898,0.005 0.26993,0.007 0.75372,0.095 0.0255,0.009 0.66346,0.21346 0.73052,0.28272 0.0376,0.039 -0.20996,-0.0284 -0.16662,0.005 0.0769,0.0593 0.47129,0.0275 0.58118,0.0732 l 1.47104,0.18536 1.17134,0.1476 1.48922,0.18765 1.44376,0.18193 1.21679,0.15332 1.96139,0.24715 c 0.43286,0.0545 0.80025,0.15522 1.09798,0.29434 0.0878,-0.41668 0.15903,-0.84252 0.21206,-1.2732 1.08982,-8.85146 -5.20261,-16.93054 -14.05374,-18.04585 z m -10.78588,20.49686 c 0,0.008 0,0.0171 0,0.0256 0.006,0.003 0.0115,0.007 0.0172,0.0108 0.006,-0.008 0.009,-0.0163 0.0121,-0.0244 -0.008,-10e-4 -0.0198,-0.0111 -0.0261,-0.0119 z m -5.35113,3.24281 c 0.18211,0.33217 0.37639,0.65631 0.58086,0.97447 -0.0478,-0.14795 0.12296,0.15451 0.23252,0.3586 l 0.0159,0.0194 c 0.006,0.003 0.006,0.008 0.008,0.01 l 0.008,0.01 c 0.19581,0.11677 0.14131,-0.0819 -0.84544,-1.37179 z m 0.84544,1.37178 c 2.02871,2.9628 5.02702,5.24679 8.60612,6.34477 -0.0561,-0.0745 -0.10485,-0.15315 -0.15635,-0.22769 -0.0774,-0.027 -0.15712,-0.0571 -0.23781,-0.0906 -0.12844,-0.0452 -0.25439,-0.0902 -0.37894,-0.14308 -0.0574,-0.0243 -0.11141,-0.056 -0.16413,-0.09 0,-6.4e-4 -0.006,-1.6e-4 -0.009,-10e-4 -0.57525,-0.2372 -0.96221,-0.38321 -1.34191,-0.78438 -0.49666,-0.23876 -0.58156,-0.30252 -0.81433,-0.50125 -0.51018,-0.16586 -0.56741,-0.28717 -1.05279,-0.6613 -0.0198,-0.0152 -0.0529,-0.0244 -0.0685,-0.0433 -0.0319,-0.0376 -0.0574,-0.0764 -0.0873,-0.11499 -0.0433,-0.0215 -0.0901,-0.0469 -0.12187,-0.0587 -0.48314,-0.17899 -0.82842,-0.51098 -1.1621,-0.82239 -0.0166,-0.0137 -0.0338,-0.0272 -0.0504,-0.0409 -0.13475,-0.0569 -0.2765,-0.12749 -0.37747,-0.22956 -0.17165,-0.17358 -0.2983,-0.32119 -0.39658,-0.44861 -0.10702,-0.007 -0.20365,-0.14281 -0.29684,-0.21073 -0.41647,-0.30358 -0.64912,-0.56277 -0.89031,-0.85747 0,-0.001 -0.0217,-0.0266 -0.0242,-0.029 0,-0.0115 -0.0172,-0.0478 -0.0599,-0.11156 -0.48621,-0.2542 -0.16311,-0.15482 -0.42285,-0.23527 l -0.49258,-0.6427 z m 0.42604,0.20968 c -0.0274,-0.003 0.25031,0.44898 0.38888,0.5863 0.0166,0.0163 0.0497,0.0343 0.0765,0.053 -0.14367,-0.20993 -0.37899,-0.5462 -0.43215,-0.60909 -0.0178,-0.0212 -0.0293,-0.0297 -0.0332,-0.0302 z m 0.62847,0.73781 c 0.1749,0.0968 0.35146,0.17764 0.24266,0.1259 -0.12448,-0.0592 -0.15776,-0.0834 -0.24266,-0.1259 z m 0.86871,0.73342 c 0.006,0.0106 0.0319,0.071 0.0618,0.17244 0.0178,0.0166 0.0555,0.0348 0.0855,0.0541 -0.0934,-0.14142 -0.15393,-0.24193 -0.1473,-0.22655 z m 2.01156,1.56207 c 0.0421,0.0611 0.0969,0.14761 0.12422,0.18897 0.0159,0.009 0.0357,0.0153 0.0523,0.0239 -0.0554,-0.0735 -0.1176,-0.1419 -0.17662,-0.21292 z m 1.3013,1.03925 c -0.0408,-0.034 0.0699,0.0783 0.10549,0.11728 0.0179,0.0101 0.0491,0.0295 0.0775,0.0445 -0.0567,-0.0487 -0.0998,-0.0928 -0.183,-0.16171 z m 0.40896,0.19885 c -0.20703,-0.0119 0.35949,0.32689 0.63165,0.4869 -0.051,-0.0563 -0.0973,-0.13355 -0.15048,-0.20095 -0.0767,-0.0433 -0.14259,-0.0879 -0.30589,-0.21187 -0.0121,-0.0201 -0.0115,-0.0181 -0.023,-0.0375 -0.0599,-0.0159 -0.1241,-0.0349 -0.15227,-0.0366 z"
       id="path3525"
       inkscape:connector-curvature="0" />
    <path
       style="display:inline;fill:#b90400;fill-opacity:1;fill-rule:evenodd;stroke:none"
       d="m 161.06583,677.57443 c -8.85113,-1.1153 -16.91036,5.15538 -18.00018,14.00684 -0.75939,6.16784 2.07211,11.95398 6.85187,15.27514 -0.0293,-0.0214 -0.058,-0.0457 -0.0834,-0.0711 -0.17165,-0.17359 -0.2983,-0.3212 -0.39665,-0.44862 -0.10696,-0.007 -0.20359,-0.14281 -0.29677,-0.21072 -0.41648,-0.30358 -0.64913,-0.56277 -0.89032,-0.85748 0,-0.001 -0.0217,-0.0266 -0.0242,-0.029 0,-0.0116 -0.0172,-0.0478 -0.0599,-0.11156 -0.48621,-0.2542 -0.16318,-0.15483 -0.42292,-0.23528 l -0.50061,-0.65237 c 0.0134,0.0258 0.0357,0.0646 0.0453,0.0837 0,0.006 -2.6e-4,0.007 0,0.009 -0.006,-0.003 -0.0172,-0.0141 -0.0249,-0.0205 0.0223,0.0393 0.0816,0.14678 0.0599,0.11156 -0.0249,-0.0403 -0.0504,-0.0829 -0.0771,-0.12238 -0.0293,-0.0259 -0.0625,-0.0622 -0.0824,-0.0797 -0.10855,-0.0958 -0.20837,-0.19281 -0.31456,-0.29096 0.10275,0.0853 0.2213,0.18428 0.31876,0.25682 -0.0733,-0.10815 -0.14099,-0.2134 -0.18013,-0.33467 -0.0497,-0.1531 0.14151,0.17565 0.24859,0.37796 0.006,0.003 0.006,0.008 0.008,0.01 0.21162,0.13157 0.17535,-0.0481 -0.8926,-1.43838 -0.0968,-0.126 0.0478,0.13992 0.12843,0.38015 0.1169,0.1367 0.20518,0.32517 0.10466,0.27317 -0.0236,-0.0121 -0.0382,-0.035 -0.058,-0.0507 -3.2e-4,0.008 0,0.0184 -0.006,0.0256 -0.014,0.10552 -0.20396,-0.18141 -0.23774,-0.31594 -0.0281,-0.043 -0.0542,-0.0851 -0.0862,-0.12353 0.0274,0.0318 0.0351,0.0437 0.0802,0.0968 -2.6e-4,-0.008 0,-0.0201 0.006,-0.0256 -0.23265,-0.27772 -0.5509,-0.65517 -0.64268,-0.92158 -0.0242,-0.0701 -0.0389,-0.14339 -0.0567,-0.21511 -0.12111,-0.10164 -0.26764,-0.31066 -0.28135,-0.48608 -0.008,-0.10645 0.0711,0.0324 0.16164,0.18501 -0.0446,-0.16891 -0.0918,-0.38662 -0.0857,-0.42678 l -0.22405,-0.65219 c 6.4e-4,0.0161 -0.0128,-0.019 -0.0312,-0.0473 0.0236,0.17929 0.0561,0.36383 0.0344,0.54168 -0.0115,0.0944 -0.0753,-0.17841 -0.0956,-0.27204 -0.0383,-0.1781 -0.0727,-0.35777 -0.0812,-0.53886 -0.1466,-0.37362 -0.14182,-0.72567 -0.0855,-1.10271 -0.125,-0.28025 -0.24668,-0.60173 -0.19811,-0.78758 -0.0223,-0.19625 -0.0433,-0.39266 -0.0658,-0.58893 0.0268,-0.0868 0.0516,-0.17206 0.078,-0.25881 -0.0127,-0.14989 -0.0236,-0.30155 -0.0555,-0.44896 -0.0198,-0.0916 0.0389,0.36003 -0.006,0.2765 -0.15304,-0.28125 -0.0306,-1.01961 0.0408,-1.30346 0.12098,-0.48188 0.27823,-0.68305 0.44663,-0.70634 0.24348,-0.95468 1.44688,-1.72361 3.49382,-1.41431 0.77182,0.11663 1.54912,0.0744 2.30852,0.27354 0.20658,0.0813 0.41195,0.1545 0.61566,0.24224 0.0153,0.006 0.0472,0.0168 0.0706,0.0262 0.16668,0.0289 0.34719,0.0833 0.52623,0.14431 0.31252,-0.0442 0.67666,-0.0398 1.08517,0.024 0.23296,0.0364 0.10676,0.0199 0.38033,0.0566 0.59182,0.0476 1.22068,0.0119 1.70535,0.37954 0.008,0.001 0.0198,0.003 0.0274,0.003 0.55492,0.033 1.09415,0.12137 1.52644,0.409 l 0.69017,0.087 c 0.41048,0.0517 0.82441,0.10384 1.23489,0.1556 0.41571,0.0524 0.82829,0.10465 1.244,0.15676 0.43802,0.0552 0.87846,0.11264 1.31667,0.16591 0.44662,0.0543 0.89044,0.0989 1.33382,0.17671 0.28453,0.044 0.57563,0.007 0.86086,0.0478 0.58258,0.0843 0.56346,0.11565 1.07248,0.35179 0.006,0.003 0.006,0.007 0.008,0.01 0.26898,0.005 0.26987,0.007 0.75366,0.095 0.0255,0.009 0.66353,0.21346 0.73058,0.28272 0.0376,0.039 -0.20996,-0.0284 -0.16662,0.005 0.0769,0.0593 0.47123,0.0275 0.58118,0.0732 l 1.47098,0.18536 1.17141,0.1476 1.48921,0.18764 1.44377,0.18193 1.21678,0.15333 1.28939,0.16247 c 0.22889,-0.79352 0.40156,-1.61378 0.50552,-2.45814 1.08982,-8.85146 -5.20261,-16.93054 -14.05375,-18.04585 z m -13.8311,26.65607 -0.0873,-0.11499 c 0.0172,0.0304 0.0242,0.0431 0.0529,0.0933 0.0127,0.009 0.0229,0.0143 0.0344,0.0217 z m 4.52168,-4.59524 c 0,0.008 0,0.0171 0,0.0256 0.006,0.003 0.0115,0.007 0.0172,0.0108 0.006,-0.008 0.009,-0.0163 0.0121,-0.0244 -0.008,-10e-4 -0.0198,-0.0111 -0.0261,-0.0119 z m -6.24756,1.98592 c 0.008,0.044 0.006,0.0602 0.008,0.0876 0.006,0.0108 0.0179,0.0189 0.0242,0.029 -0.009,-0.0395 -0.0217,-0.0774 -0.0319,-0.11667 z m 2.16791,2.83835 c -0.0274,-0.003 0.25031,0.44898 0.38888,0.5863 0.0166,0.0163 0.0497,0.0343 0.0765,0.053 -0.14367,-0.20993 -0.37899,-0.5462 -0.43215,-0.60909 -0.0178,-0.0212 -0.0293,-0.0297 -0.0332,-0.0302 z m 0.62847,0.73781 c 0.1749,0.0968 0.35146,0.17764 0.24266,0.1259 -0.12448,-0.0592 -0.15776,-0.0834 -0.24266,-0.1259 z m 0.86871,0.73342 c 0.006,0.0106 0.0319,0.071 0.0618,0.17244 0.0178,0.0166 0.0555,0.0348 0.0855,0.0541 -0.0934,-0.14142 -0.15393,-0.24193 -0.1473,-0.22655 z m 0.83715,0.98944 c 0.12124,0.083 0.24266,0.16569 0.36632,0.24548 -0.0395,-0.0371 -0.0763,-0.0732 -0.11556,-0.10989 -0.0166,-0.0137 -0.0338,-0.0272 -0.0504,-0.0409 -0.0674,-0.0285 -0.13634,-0.0583 -0.20046,-0.0946 z m 1.17441,0.57263 c 0.0421,0.0611 0.0969,0.14761 0.12422,0.18897 0.0159,0.009 0.0357,0.0153 0.0523,0.0239 -0.0554,-0.0735 -0.1176,-0.1419 -0.17662,-0.21292 z"
       id="path3525-9"
       inkscape:connector-curvature="0" />
    <ellipse
       style="display:inline;fill:#800000;fill-opacity:1;stroke:none"
       id="path5967"
       transform="matrix(0.9921544,0.12501855,-0.12219996,0.9925055,0,0)"
       cx="253.82947"
       cy="663.51733"
       rx="2.0500989"
       ry="2.338702" />
    <ellipse
       style="display:inline;fill:#800000;fill-opacity:1"
       id="path3938-4"
       transform="matrix(0.9921544,0.12501856,-0.12219997,0.9925055,0,0)"
       cx="216.73593"
       cy="648.88556"
       rx="22.174538"
       ry="20.046019" />
    <ellipse
       style="display:inline;fill:#ffffff;fill-opacity:1"
       id="path3938-1-0"
       transform="matrix(0.9921544,0.12501855,-0.12219997,0.9925055,0,0)"
       cx="217.15434"
       cy="649.67169"
       rx="20.50099"
       ry="18.080723" />
    <ellipse
       style="display:inline;fill:#b90400;fill-opacity:1;stroke:none"
       id="path4800-8"
       transform="matrix(-0.70050473,0.71364776,-0.50466823,-0.86331337,0,0)"
       cx="252.78413"
       cy="-547.02655"
       rx="12.358069"
       ry="21.742302" />
    <ellipse
       style="display:inline;fill:#b90400;fill-opacity:1;stroke:none"
       id="path4800-7-2"
       transform="matrix(-0.70050473,0.71364776,-0.50466823,-0.86331337,0,0)"
       cx="252.8636"
       cy="-549.17609"
       rx="12.358069"
       ry="21.742302" />
    <ellipse
       style="display:inline;fill:#800000;fill-opacity:1;stroke:none"
       id="path4800-1-4"
       transform="matrix(-0.7182684,0.69576613,-0.52614827,-0.85039285,0,0)"
       cx="263.3053"
       cy="-542.31665"
       rx="5.3699098"
       ry="9.4479294" />
    <path
       sodipodi:type="arc"
       style="display:inline;fill:#800000;fill-opacity:1;stroke:none"
       id="path4942-2-5"
       sodipodi:cx="195.51672"
       sodipodi:cy="624.10504"
       sodipodi:rx="8.9099293"
       sodipodi:ry="9.7831097"
       d="m 203.22196,629.01743 a 8.9099293,9.7831097 0 0 1 -11.45296,3.9632 8.9099293,9.7831097 0 0 1 -4.64558,-12.15845 8.9099293,9.7831097 0 0 1 10.60005,-6.19544 l -2.20675,9.4783 z"
       sodipodi:start="0.52605967"
       sodipodi:end="4.962666"
       transform="matrix(0.9921544,0.12501856,-0.12219997,0.9925055,0,0)" />
    <path
       sodipodi:type="arc"
       style="display:inline;fill:#800000;fill-opacity:1;fill-rule:evenodd;stroke:none"
       id="path3525-3-2"
       sodipodi:cx="244.20175"
       sodipodi:cy="670.78058"
       sodipodi:rx="16.153118"
       sodipodi:ry="16.148012"
       d="m 260.35487,670.78058 a 16.153118,16.148012 0 0 1 -8.6431,14.29662 16.153118,16.148012 0 0 1 -16.67991,-1.00284 16.153118,16.148012 0 0 1 -6.86679,-15.22913 l 16.03668,1.93535 z"
       transform="matrix(0.9921544,0.12501855,-0.12219996,0.9925055,0,0)"
       sodipodi:start="0"
       sodipodi:end="3.2617321" />
    <path
       sodipodi:type="arc"
       style="display:inline;fill:#b90400;fill-opacity:1;fill-rule:evenodd;stroke:none"
       id="path3525-3-8-7"
       sodipodi:cx="243.0303"
       sodipodi:cy="671.66345"
       sodipodi:rx="15.274504"
       sodipodi:ry="13.936759"
       d="m 258.30481,671.66345 a 15.274504,13.936759 0 0 1 -8.17298,12.3389 15.274504,13.936759 0 0 1 -15.77264,-0.86552 15.274504,13.936759 0 0 1 -6.49329,-13.14371 l 15.1644,1.67033 z"
       transform="matrix(0.9921544,0.12501856,-0.12219998,0.9925055,0,0)"
       sodipodi:start="0"
       sodipodi:end="3.2617321" />
    <ellipse
       transform="matrix(0.9921544,0.12501855,-0.12219996,0.9925055,0,0)"
       style="display:inline;fill:#00b904;fill-opacity:1"
       id="path3959-9-1"
       cx="222.21645"
       cy="643.88507"
       rx="11.646741"
       ry="11.005656" />
    <ellipse
       transform="matrix(0.9921544,0.12501855,-0.12219996,0.9925055,0,0)"
       style="display:inline;fill:#000000;fill-opacity:1"
       id="path3959-7-4-1"
       cx="224.43491"
       cy="642.88452"
       rx="9.9829197"
       ry="9.0046272" />
    <ellipse
       ry="3.3352177"
       rx="3.5501361"
       transform="matrix(0.9921544,0.12501855,-0.12219996,0.9925055,0,0)"
       style="display:inline;fill:#ffffff;fill-opacity:1"
       id="path3979-8-5"
       cx="221.70607"
       cy="637.78241" />
    <ellipse
       ry="7.1477547"
       rx="16.08522"
       cy="697.2019"
       cx="154.99936"
       style="fill:#b90400;fill-opacity:1;stroke:none"
       id="path3586" />
    <path
       style="fill:none;stroke:#800000;stroke-width:0.81205517px;stroke-linecap:butt;stroke-linejoin:miter;stroke-opacity:1"
       d="m 172.28723,698.41854 c 0,0 -12.62765,-4.39207 -12.62765,-1.46403"
       id="path3588"
       inkscape:connector-curvature="0" />
    <path
       sodipodi:type="arc"
       style="fill:#800000;fill-opacity:1;stroke:none"
       id="path4407"
       sodipodi:cx="431.3811"
       sodipodi:cy="-382.82526"
       sodipodi:rx="12.19866"
       sodipodi:ry="6.5091338"
       d="m 443.57976,-382.82526 a 12.19866,6.5091338 0 0 1 -12.1502,6.50909 12.19866,6.5091338 0 0 1 -12.24673,-6.45737"
       sodipodi:start="0"
       sodipodi:end="3.1336479"
       sodipodi:open="true"
       transform="matrix(-0.35967883,0.93307617,-0.72106631,-0.69286606,0,0)" />
    <path
       style="fill:#803300;fill-opacity:1;stroke:none"
       d="m 10.149365,753.96877 57.520672,25.50082 -57.315915,3.16868 -0.204757,-28.6695 z"
       id="path9873"
       inkscape:path-effect="#path-effect9875-0-1"
       inkscape:original-d="m 10.149365,753.96877 c -0.6530793,28.40513 57.520672,25.50082 57.520672,25.50082 l -57.315915,3.16868 z"
       inkscape:connector-curvature="0"
       inkscape:transform-center-x="-18.318978"
       inkscape:transform-center-y="-12.864009" />
    <path
       style="fill:#a05a2c;fill-opacity:1;stroke:none"
       d="m 14.676013,755.79709 50.472926,23.051 -50.077279,2.69717 -0.395647,-25.74817 z"
       id="path9873-7"
       inkscape:path-effect="#path-effect9875-2-4-6"
       inkscape:original-d="m 14.676013,755.79709 c -0.356208,25.50852 50.472926,23.051 50.472926,23.051 l -50.077279,2.69717 z"
       inkscape:connector-curvature="0"
       inkscape:transform-center-x="-19.321747"
       inkscape:transform-center-y="-12.496353" />
    <path
       style="fill:#803300;fill-opacity:1;stroke:none"
       d="m 97.192003,795.26849 62.174037,-9.65966 -46.49635,33.66368 -15.677687,-24.00402 z"
       id="path9873-3"
       inkscape:path-effect="#path-effect9875-4-0"
       inkscape:original-d="m 97.192003,795.26849 c 14.813157,24.24557 62.174037,-9.65966 62.174037,-9.65966 l -46.49635,33.66368 z"
       inkscape:connector-curvature="0"
       inkscape:transform-center-x="-3.4025803"
       inkscape:transform-center-y="-3.7268586" />
    <path
       style="fill:#a05a2c;fill-opacity:1;stroke:none"
       d="m 101.9883,794.35817 54.92105,-7.90864 -40.66276,29.35221 -14.25829,-21.44357 z"
       id="path9873-7-1"
       inkscape:path-effect="#path-effect9875-2-5-5"
       inkscape:original-d="m 101.9883,794.35817 c 13.49629,21.64863 54.92105,-7.90864 54.92105,-7.90864 l -40.66276,29.35221 z"
       inkscape:connector-curvature="0"
       inkscape:transform-center-x="-4.5723835"
       inkscape:transform-center-y="-5.0418915" />
    <rect
       style="fill:#999999;fill-opacity:1;fill-rule:evenodd;stroke:none"
       id="rect10406-3"
       width="16.465466"
       height="3.2772269"
       x="-155.20753"
       y="-803.44958"
       ry="0"
       transform="matrix(-0.99996489,0.00838,0.04601806,-0.99894061,0,0)"
       inkscape:transform-center-x="14.804547"
       inkscape:transform-center-y="-6.4376182" />
    <rect
       style="fill:#999999;fill-opacity:1;fill-rule:evenodd;stroke:none"
       id="rect10406-9-4"
       width="13.577084"
       height="3.9744229"
       x="795.96106"
       y="-147.53914"
       ry="0"
       transform="matrix(-0.04601806,0.99894061,-0.99996489,0.00838,0,0)"
       inkscape:transform-center-x="16.270573"
       inkscape:transform-center-y="-5.488068" />
  </g>
  <g
     inkscape:groupmode="layer"
     id="layer3"
     inkscape:label="Layer 3"
     sodipodi:insensitive="true"
     style="display:inline">
    <rect
       style="fill:#e18600;fill-opacity:1;stroke:none"
       id="rect6024"
       width="304.54742"
       height="380.84946"
       x="19.651184"
       y="20.479214"
       rx="9.2025471"
       ry="5.7907767"
       clip-path="url(#clipPath4550)" />
    <rect
       style="fill:url(#radialGradient6573);fill-opacity:1;stroke:none"
       id="rect6557"
       width="301.04684"
       height="391.42862"
       x="-38.084229"
       y="11.310573"
       rx="9.2025471"
       ry="6.1450877"
       clip-path="url(#clipPath4540)" />
    <path
       style="fill:url(#linearGradient4651);fill-opacity:1;fill-rule:evenodd;stroke:none;stroke-width:1px;stroke-linecap:butt;stroke-linejoin:miter;stroke-opacity:1"
       d="m 85.714286,302.3622 168.571424,0 290,172.85715 -191.42857,85.71428 z"
       id="path4643"
       inkscape:connector-curvature="0" />
  </g>
</svg>
