<?xml version="1.0" encoding="UTF-8" standalone="no"?>
<!-- Created with Inkscape (http://www.inkscape.org/) -->

<svg
   xmlns:dc="http://purl.org/dc/elements/1.1/"
   xmlns:cc="http://creativecommons.org/ns#"
   xmlns:rdf="http://www.w3.org/1999/02/22-rdf-syntax-ns#"
   xmlns:svg="http://www.w3.org/2000/svg"
   xmlns="http://www.w3.org/2000/svg"
   xmlns:sodipodi="http://sodipodi.sourceforge.net/DTD/sodipodi-0.dtd"
   xmlns:inkscape="http://www.inkscape.org/namespaces/inkscape"
   width="744.09448819"
   height="1052.3622047"
   id="svg4295"
   version="1.1"
   inkscape:version="0.48.5 r10040"
   sodipodi:docname="New document 4">
  <defs
     id="defs4297" />
  <sodipodi:namedview
     id="base"
     pagecolor="#ffffff"
     bordercolor="#666666"
     borderopacity="1.0"
     inkscape:pageopacity="0.0"
     inkscape:pageshadow="2"
     inkscape:zoom="1.4"
     inkscape:cx="296.2081"
     inkscape:cy="491.42857"
     inkscape:document-units="px"
     inkscape:current-layer="layer1"
     showgrid="false"
     inkscape:window-width="1920"
     inkscape:window-height="1017"
     inkscape:window-x="-8"
     inkscape:window-y="-8"
     inkscape:window-maximized="1" />
  <metadata
     id="metadata4300">
    <rdf:RDF>
      <cc:Work
         rdf:about="">
        <dc:format>image/svg+xml</dc:format>
        <dc:type
           rdf:resource="http://purl.org/dc/dcmitype/StillImage" />
        <dc:title></dc:title>
      </cc:Work>
    </rdf:RDF>
  </metadata>
  <g
     inkscape:groupmode="layer"
     id="layer3"
     inkscape:label="leg"
     sodipodi:insensitive="true">
    <path
       sodipodi:type="arc"
       style="fill:#2d2d2d;fill-opacity:1;fill-rule:nonzero;stroke:none"
       id="path5222"
       sodipodi:cx="156.82619"
       sodipodi:cy="598.29858"
       sodipodi:rx="12.374369"
       sodipodi:ry="35.355339"
       d="m 169.20056,598.29858 a 12.374369,35.355339 0 1 1 -24.74874,0 12.374369,35.355339 0 1 1 24.74874,0 z"
       transform="matrix(1.0408163,0,0,1.0857143,-5.8959926,-48.252278)" />
    <path
       sodipodi:type="arc"
       style="fill:#2d2d2d;fill-opacity:1;fill-rule:nonzero;stroke:none"
       id="path5222-0"
       sodipodi:cx="156.82619"
       sodipodi:cy="598.29858"
       sodipodi:rx="12.374369"
       sodipodi:ry="35.355339"
       d="m 169.20056,598.29858 a 12.374369,35.355339 0 1 1 -24.74874,0 12.374369,35.355339 0 1 1 24.74874,0 z"
       transform="matrix(1.0408163,0,0,1.0857143,29.711884,-45.726876)" />
    <path
       sodipodi:type="arc"
       style="fill:#2d2d2d;fill-opacity:1;fill-rule:nonzero;stroke:none"
       id="path5222-9"
       sodipodi:cx="156.82619"
       sodipodi:cy="598.29858"
       sodipodi:rx="12.374369"
       sodipodi:ry="35.355339"
       d="m 169.20056,598.29858 a 12.374369,35.355339 0 1 1 -24.74874,0 12.374369,35.355339 0 1 1 24.74874,0 z"
       transform="matrix(1.0408163,0,0,1.0857143,88.300732,-49.767486)" />
    <path
       sodipodi:type="arc"
       style="fill:#2d2d2d;fill-opacity:1;fill-rule:nonzero;stroke:none"
       id="path5222-7"
       sodipodi:cx="156.82619"
       sodipodi:cy="598.29858"
       sodipodi:rx="12.374369"
       sodipodi:ry="35.355339"
       d="m 169.20056,598.29858 a 12.374369,35.355339 0 1 1 -24.74874,0 12.374369,35.355339 0 1 1 24.74874,0 z"
       transform="matrix(1.0408163,0,0,1.0857143,119.11039,-50.272563)" />
    <path
       sodipodi:type="arc"
       style="fill:#474747;fill-opacity:1;fill-rule:nonzero;stroke:none"
       id="path5222-3"
       sodipodi:cx="156.82619"
       sodipodi:cy="598.29858"
       sodipodi:rx="12.374369"
       sodipodi:ry="35.355339"
       d="m 169.20056,598.29858 a 12.374369,35.355339 0 1 1 -24.74874,0 12.374369,35.355339 0 1 1 24.74874,0 z"
       transform="matrix(1.0408163,0,0,1.0857143,-7.0324137,-52.040357)" />
    <path
       sodipodi:type="arc"
       style="fill:#474747;fill-opacity:1;fill-rule:nonzero;stroke:none"
       id="path5222-0-7"
       sodipodi:cx="156.82619"
       sodipodi:cy="598.29858"
       sodipodi:rx="12.374369"
       sodipodi:ry="35.355339"
       d="m 169.20056,598.29858 a 12.374369,35.355339 0 1 1 -24.74874,0 12.374369,35.355339 0 1 1 24.74874,0 z"
       transform="matrix(1.0408163,0,0,1.0857143,28.575462,-49.514947)" />
    <path
       sodipodi:type="arc"
       style="fill:#474747;fill-opacity:1;fill-rule:nonzero;stroke:none"
       id="path5222-9-2"
       sodipodi:cx="156.82619"
       sodipodi:cy="598.29858"
       sodipodi:rx="12.374369"
       sodipodi:ry="35.355339"
       d="m 169.20056,598.29858 a 12.374369,35.355339 0 1 1 -24.74874,0 12.374369,35.355339 0 1 1 24.74874,0 z"
       transform="matrix(1.0408163,0,0,1.0857143,87.164309,-53.555557)" />
    <path
       sodipodi:type="arc"
       style="fill:#474747;fill-opacity:1;fill-rule:nonzero;stroke:none"
       id="path5222-7-6"
       sodipodi:cx="156.82619"
       sodipodi:cy="598.29858"
       sodipodi:rx="12.374369"
       sodipodi:ry="35.355339"
       d="m 169.20056,598.29858 a 12.374369,35.355339 0 1 1 -24.74874,0 12.374369,35.355339 0 1 1 24.74874,0 z"
       transform="matrix(1.0408163,0,0,1.0857143,117.97397,-54.060637)" />
  </g>
  <g
     inkscape:groupmode="layer"
     id="layer2"
     inkscape:label="fluff"
     sodipodi:insensitive="true">
    <path
       sodipodi:type="arc"
       style="fill:#cccccc;fill-opacity:1;fill-rule:nonzero;stroke:none"
       id="path4979"
       sodipodi:cx="243.6993"
       sodipodi:cy="483.6463"
       sodipodi:rx="32.072342"
       sodipodi:ry="30.809652"
       d="m 275.77164,483.6463 a 32.072342,30.809652 0 1 1 -64.14469,0 32.072342,30.809652 0 1 1 64.14469,0 z"
       transform="translate(-62.124382,40.406102)" />
    <path
       transform="translate(-20.960663,49.497472)"
       sodipodi:type="arc"
       style="fill:#cccccc;fill-opacity:1;fill-rule:nonzero;stroke:none"
       id="path4979-3"
       sodipodi:cx="243.6993"
       sodipodi:cy="483.6463"
       sodipodi:rx="32.072342"
       sodipodi:ry="30.809652"
       d="m 275.77164,483.6463 a 32.072342,30.809652 0 1 1 -64.14469,0 32.072342,30.809652 0 1 1 64.14469,0 z" />
    <path
       transform="translate(-50.255083,79.802049)"
       sodipodi:type="arc"
       style="fill:#cccccc;fill-opacity:1;fill-rule:nonzero;stroke:none"
       id="path4979-34"
       sodipodi:cx="243.6993"
       sodipodi:cy="483.6463"
       sodipodi:rx="32.072342"
       sodipodi:ry="30.809652"
       d="m 275.77164,483.6463 a 32.072342,30.809652 0 1 1 -64.14469,0 32.072342,30.809652 0 1 1 64.14469,0 z" />
    <path
       transform="translate(-92.555223,-12.62691)"
       sodipodi:type="arc"
       style="fill:#cccccc;fill-opacity:1;fill-rule:nonzero;stroke:none"
       id="path4979-1"
       sodipodi:cx="243.6993"
       sodipodi:cy="483.6463"
       sodipodi:rx="32.072342"
       sodipodi:ry="30.809652"
       d="m 275.77164,483.6463 a 32.072342,30.809652 0 1 1 -64.14469,0 32.072342,30.809652 0 1 1 64.14469,0 z" />
    <path
       transform="translate(-51.391503,-3.5355396)"
       sodipodi:type="arc"
       style="fill:#cccccc;fill-opacity:1;fill-rule:nonzero;stroke:none"
       id="path4979-3-1"
       sodipodi:cx="243.6993"
       sodipodi:cy="483.6463"
       sodipodi:rx="32.072342"
       sodipodi:ry="30.809652"
       d="m 275.77164,483.6463 a 32.072342,30.809652 0 1 1 -64.14469,0 32.072342,30.809652 0 1 1 64.14469,0 z" />
    <path
       transform="translate(-80.685923,26.76904)"
       sodipodi:type="arc"
       style="fill:#cccccc;fill-opacity:1;fill-rule:nonzero;stroke:none"
       id="path4979-34-3"
       sodipodi:cx="243.6993"
       sodipodi:cy="483.6463"
       sodipodi:rx="32.072342"
       sodipodi:ry="30.809652"
       d="m 275.77164,483.6463 a 32.072342,30.809652 0 1 1 -64.14469,0 32.072342,30.809652 0 1 1 64.14469,0 z" />
    <path
       transform="translate(-89.019688,80.307125)"
       sodipodi:type="arc"
       style="fill:#cccccc;fill-opacity:1;fill-rule:nonzero;stroke:none"
       id="path4979-8"
       sodipodi:cx="243.6993"
       sodipodi:cy="483.6463"
       sodipodi:rx="32.072342"
       sodipodi:ry="30.809652"
       d="m 275.77164,483.6463 a 32.072342,30.809652 0 1 1 -64.14469,0 32.072342,30.809652 0 1 1 64.14469,0 z" />
    <path
       transform="translate(-47.855968,89.398495)"
       sodipodi:type="arc"
       style="fill:#cccccc;fill-opacity:1;fill-rule:nonzero;stroke:none"
       id="path4979-3-7"
       sodipodi:cx="243.6993"
       sodipodi:cy="483.6463"
       sodipodi:rx="32.072342"
       sodipodi:ry="30.809652"
       d="m 275.77164,483.6463 a 32.072342,30.809652 0 1 1 -64.14469,0 32.072342,30.809652 0 1 1 64.14469,0 z" />
    <path
       transform="translate(-16.288705,-7.5761461)"
       sodipodi:type="arc"
       style="fill:#cccccc;fill-opacity:1;fill-rule:nonzero;stroke:none"
       id="path4979-2"
       sodipodi:cx="243.6993"
       sodipodi:cy="483.6463"
       sodipodi:rx="32.072342"
       sodipodi:ry="30.809652"
       d="m 275.77164,483.6463 a 32.072342,30.809652 0 1 1 -64.14469,0 32.072342,30.809652 0 1 1 64.14469,0 z" />
    <path
       transform="translate(24.875015,1.5152239)"
       sodipodi:type="arc"
       style="fill:#cccccc;fill-opacity:1;fill-rule:nonzero;stroke:none"
       id="path4979-3-77"
       sodipodi:cx="243.6993"
       sodipodi:cy="483.6463"
       sodipodi:rx="32.072342"
       sodipodi:ry="30.809652"
       d="m 275.77164,483.6463 a 32.072342,30.809652 0 1 1 -64.14469,0 32.072342,30.809652 0 1 1 64.14469,0 z" />
    <path
       transform="translate(-4.4194048,31.819801)"
       sodipodi:type="arc"
       style="fill:#cccccc;fill-opacity:1;fill-rule:nonzero;stroke:none"
       id="path4979-34-9"
       sodipodi:cx="243.6993"
       sodipodi:cy="483.6463"
       sodipodi:rx="32.072342"
       sodipodi:ry="30.809652"
       d="m 275.77164,483.6463 a 32.072342,30.809652 0 1 1 -64.14469,0 32.072342,30.809652 0 1 1 64.14469,0 z" />
    <path
       transform="translate(-3.6617982,36.36549)"
       sodipodi:type="arc"
       style="fill:#cccccc;fill-opacity:1;fill-rule:nonzero;stroke:none"
       id="path4979-31"
       sodipodi:cx="243.6993"
       sodipodi:cy="483.6463"
       sodipodi:rx="32.072342"
       sodipodi:ry="30.809652"
       d="m 275.77164,483.6463 a 32.072342,30.809652 0 1 1 -64.14469,0 32.072342,30.809652 0 1 1 64.14469,0 z" />
    <path
       transform="translate(37.501922,45.45686)"
       sodipodi:type="arc"
       style="fill:#cccccc;fill-opacity:1;fill-rule:nonzero;stroke:none"
       id="path4979-3-9"
       sodipodi:cx="243.6993"
       sodipodi:cy="483.6463"
       sodipodi:rx="32.072342"
       sodipodi:ry="30.809652"
       d="m 275.77164,483.6463 a 32.072342,30.809652 0 1 1 -64.14469,0 32.072342,30.809652 0 1 1 64.14469,0 z" />
    <path
       transform="translate(8.2075018,75.76144)"
       sodipodi:type="arc"
       style="fill:#cccccc;fill-opacity:1;fill-rule:nonzero;stroke:none"
       id="path4979-34-8"
       sodipodi:cx="243.6993"
       sodipodi:cy="483.6463"
       sodipodi:rx="32.072342"
       sodipodi:ry="30.809652"
       d="m 275.77164,483.6463 a 32.072342,30.809652 0 1 1 -64.14469,0 32.072342,30.809652 0 1 1 64.14469,0 z" />
    <path
       transform="translate(-18.814086,83.337583)"
       sodipodi:type="arc"
       style="fill:#cccccc;fill-opacity:1;fill-rule:nonzero;stroke:none"
       id="path4979-6"
       sodipodi:cx="243.6993"
       sodipodi:cy="483.6463"
       sodipodi:rx="32.072342"
       sodipodi:ry="30.809652"
       d="m 275.77164,483.6463 a 32.072342,30.809652 0 1 1 -64.14469,0 32.072342,30.809652 0 1 1 64.14469,0 z" />
    <path
       transform="translate(22.349634,92.428953)"
       sodipodi:type="arc"
       style="fill:#cccccc;fill-opacity:1;fill-rule:nonzero;stroke:none"
       id="path4979-3-5"
       sodipodi:cx="243.6993"
       sodipodi:cy="483.6463"
       sodipodi:rx="32.072342"
       sodipodi:ry="30.809652"
       d="m 275.77164,483.6463 a 32.072342,30.809652 0 1 1 -64.14469,0 32.072342,30.809652 0 1 1 64.14469,0 z" />
    <path
       transform="translate(35.734151,54.548239)"
       sodipodi:type="arc"
       style="fill:#cccccc;fill-opacity:1;fill-rule:nonzero;stroke:none"
       id="path4979-0"
       sodipodi:cx="243.6993"
       sodipodi:cy="483.6463"
       sodipodi:rx="32.072342"
       sodipodi:ry="30.809652"
       d="m 275.77164,483.6463 a 32.072342,30.809652 0 1 1 -64.14469,0 32.072342,30.809652 0 1 1 64.14469,0 z" />
    <path
       transform="translate(76.897875,63.639609)"
       sodipodi:type="arc"
       style="fill:#cccccc;fill-opacity:1;fill-rule:nonzero;stroke:none"
       id="path4979-3-6"
       sodipodi:cx="243.6993"
       sodipodi:cy="483.6463"
       sodipodi:rx="32.072342"
       sodipodi:ry="30.809652"
       d="m 275.77164,483.6463 a 32.072342,30.809652 0 1 1 -64.14469,0 32.072342,30.809652 0 1 1 64.14469,0 z" />
    <path
       transform="translate(47.603451,93.944189)"
       sodipodi:type="arc"
       style="fill:#cccccc;fill-opacity:1;fill-rule:nonzero;stroke:none"
       id="path4979-34-1"
       sodipodi:cx="243.6993"
       sodipodi:cy="483.6463"
       sodipodi:rx="32.072342"
       sodipodi:ry="30.809652"
       d="m 275.77164,483.6463 a 32.072342,30.809652 0 1 1 -64.14469,0 32.072342,30.809652 0 1 1 64.14469,0 z" />
    <path
       transform="translate(29.168159,7.5761419)"
       sodipodi:type="arc"
       style="fill:#cccccc;fill-opacity:1;fill-rule:nonzero;stroke:none"
       id="path4979-38"
       sodipodi:cx="243.6993"
       sodipodi:cy="483.6463"
       sodipodi:rx="32.072342"
       sodipodi:ry="30.809652"
       d="m 275.77164,483.6463 a 32.072342,30.809652 0 1 1 -64.14469,0 32.072342,30.809652 0 1 1 64.14469,0 z" />
    <path
       transform="translate(70.331876,16.667512)"
       sodipodi:type="arc"
       style="fill:#cccccc;fill-opacity:1;fill-rule:nonzero;stroke:none"
       id="path4979-3-93"
       sodipodi:cx="243.6993"
       sodipodi:cy="483.6463"
       sodipodi:rx="32.072342"
       sodipodi:ry="30.809652"
       d="m 275.77164,483.6463 a 32.072342,30.809652 0 1 1 -64.14469,0 32.072342,30.809652 0 1 1 64.14469,0 z" />
    <path
       transform="translate(41.037459,46.972087)"
       sodipodi:type="arc"
       style="fill:#cccccc;fill-opacity:1;fill-rule:nonzero;stroke:none"
       id="path4979-34-44"
       sodipodi:cx="243.6993"
       sodipodi:cy="483.6463"
       sodipodi:rx="32.072342"
       sodipodi:ry="30.809652"
       d="m 275.77164,483.6463 a 32.072342,30.809652 0 1 1 -64.14469,0 32.072342,30.809652 0 1 1 64.14469,0 z" />
    <path
       sodipodi:type="arc"
       style="fill:#f2f2f2;fill-opacity:1;fill-rule:nonzero;stroke:none"
       id="path4979-4"
       sodipodi:cx="243.6993"
       sodipodi:cy="483.6463"
       sodipodi:rx="32.072342"
       sodipodi:ry="30.809652"
       d="m 275.77164,483.6463 a 32.072342,30.809652 0 1 1 -64.14469,0 32.072342,30.809652 0 1 1 64.14469,0 z"
       transform="translate(-59.093926,44.699246)" />
    <path
       transform="translate(-17.930206,53.790616)"
       sodipodi:type="arc"
       style="fill:#f2f2f2;fill-opacity:1;fill-rule:nonzero;stroke:none"
       id="path4979-3-96"
       sodipodi:cx="243.6993"
       sodipodi:cy="483.6463"
       sodipodi:rx="32.072342"
       sodipodi:ry="30.809652"
       d="m 275.77164,483.6463 a 32.072342,30.809652 0 1 1 -64.14469,0 32.072342,30.809652 0 1 1 64.14469,0 z" />
    <path
       transform="translate(-47.224626,84.095196)"
       sodipodi:type="arc"
       style="fill:#f2f2f2;fill-opacity:1;fill-rule:nonzero;stroke:none"
       id="path4979-34-37"
       sodipodi:cx="243.6993"
       sodipodi:cy="483.6463"
       sodipodi:rx="32.072342"
       sodipodi:ry="30.809652"
       d="m 275.77164,483.6463 a 32.072342,30.809652 0 1 1 -64.14469,0 32.072342,30.809652 0 1 1 64.14469,0 z" />
    <path
       transform="translate(-89.524766,-8.333759)"
       sodipodi:type="arc"
       style="fill:#f2f2f2;fill-opacity:1;fill-rule:nonzero;stroke:none"
       id="path4979-1-8"
       sodipodi:cx="243.6993"
       sodipodi:cy="483.6463"
       sodipodi:rx="32.072342"
       sodipodi:ry="30.809652"
       d="m 275.77164,483.6463 a 32.072342,30.809652 0 1 1 -64.14469,0 32.072342,30.809652 0 1 1 64.14469,0 z" />
    <path
       transform="translate(-48.361046,0.75761104)"
       sodipodi:type="arc"
       style="fill:#f2f2f2;fill-opacity:1;fill-rule:nonzero;stroke:none"
       id="path4979-3-1-8"
       sodipodi:cx="243.6993"
       sodipodi:cy="483.6463"
       sodipodi:rx="32.072342"
       sodipodi:ry="30.809652"
       d="m 275.77164,483.6463 a 32.072342,30.809652 0 1 1 -64.14469,0 32.072342,30.809652 0 1 1 64.14469,0 z" />
    <path
       transform="translate(-77.655466,31.062186)"
       sodipodi:type="arc"
       style="fill:#f2f2f2;fill-opacity:1;fill-rule:nonzero;stroke:none"
       id="path4979-34-3-2"
       sodipodi:cx="243.6993"
       sodipodi:cy="483.6463"
       sodipodi:rx="32.072342"
       sodipodi:ry="30.809652"
       d="m 275.77164,483.6463 a 32.072342,30.809652 0 1 1 -64.14469,0 32.072342,30.809652 0 1 1 64.14469,0 z" />
    <path
       transform="translate(-85.989236,84.600276)"
       sodipodi:type="arc"
       style="fill:#f2f2f2;fill-opacity:1;fill-rule:nonzero;stroke:none"
       id="path4979-8-9"
       sodipodi:cx="243.6993"
       sodipodi:cy="483.6463"
       sodipodi:rx="32.072342"
       sodipodi:ry="30.809652"
       d="m 275.77164,483.6463 a 32.072342,30.809652 0 1 1 -64.14469,0 32.072342,30.809652 0 1 1 64.14469,0 z" />
    <path
       transform="translate(-44.825516,93.691646)"
       sodipodi:type="arc"
       style="fill:#f2f2f2;fill-opacity:1;fill-rule:nonzero;stroke:none"
       id="path4979-3-7-1"
       sodipodi:cx="243.6993"
       sodipodi:cy="483.6463"
       sodipodi:rx="32.072342"
       sodipodi:ry="30.809652"
       d="m 275.77164,483.6463 a 32.072342,30.809652 0 1 1 -64.14469,0 32.072342,30.809652 0 1 1 64.14469,0 z" />
    <path
       transform="translate(-13.258256,-3.282999)"
       sodipodi:type="arc"
       style="fill:#f2f2f2;fill-opacity:1;fill-rule:nonzero;stroke:none"
       id="path4979-2-3"
       sodipodi:cx="243.6993"
       sodipodi:cy="483.6463"
       sodipodi:rx="32.072342"
       sodipodi:ry="30.809652"
       d="m 275.77164,483.6463 a 32.072342,30.809652 0 1 1 -64.14469,0 32.072342,30.809652 0 1 1 64.14469,0 z" />
    <path
       transform="translate(27.905474,5.808366)"
       sodipodi:type="arc"
       style="fill:#f2f2f2;fill-opacity:1;fill-rule:nonzero;stroke:none"
       id="path4979-3-77-5"
       sodipodi:cx="243.6993"
       sodipodi:cy="483.6463"
       sodipodi:rx="32.072342"
       sodipodi:ry="30.809652"
       d="m 275.77164,483.6463 a 32.072342,30.809652 0 1 1 -64.14469,0 32.072342,30.809652 0 1 1 64.14469,0 z" />
    <path
       transform="translate(-1.3889465,36.112946)"
       sodipodi:type="arc"
       style="fill:#f2f2f2;fill-opacity:1;fill-rule:nonzero;stroke:none"
       id="path4979-34-9-9"
       sodipodi:cx="243.6993"
       sodipodi:cy="483.6463"
       sodipodi:rx="32.072342"
       sodipodi:ry="30.809652"
       d="m 275.77164,483.6463 a 32.072342,30.809652 0 1 1 -64.14469,0 32.072342,30.809652 0 1 1 64.14469,0 z" />
    <path
       transform="translate(-0.63134649,40.658636)"
       sodipodi:type="arc"
       style="fill:#f2f2f2;fill-opacity:1;fill-rule:nonzero;stroke:none"
       id="path4979-31-8"
       sodipodi:cx="243.6993"
       sodipodi:cy="483.6463"
       sodipodi:rx="32.072342"
       sodipodi:ry="30.809652"
       d="m 275.77164,483.6463 a 32.072342,30.809652 0 1 1 -64.14469,0 32.072342,30.809652 0 1 1 64.14469,0 z" />
    <path
       transform="translate(40.532377,49.750006)"
       sodipodi:type="arc"
       style="fill:#f2f2f2;fill-opacity:1;fill-rule:nonzero;stroke:none"
       id="path4979-3-9-4"
       sodipodi:cx="243.6993"
       sodipodi:cy="483.6463"
       sodipodi:rx="32.072342"
       sodipodi:ry="30.809652"
       d="m 275.77164,483.6463 a 32.072342,30.809652 0 1 1 -64.14469,0 32.072342,30.809652 0 1 1 64.14469,0 z" />
    <path
       transform="translate(11.237954,80.054586)"
       sodipodi:type="arc"
       style="fill:#f2f2f2;fill-opacity:1;fill-rule:nonzero;stroke:none"
       id="path4979-34-8-0"
       sodipodi:cx="243.6993"
       sodipodi:cy="483.6463"
       sodipodi:rx="32.072342"
       sodipodi:ry="30.809652"
       d="m 275.77164,483.6463 a 32.072342,30.809652 0 1 1 -64.14469,0 32.072342,30.809652 0 1 1 64.14469,0 z" />
    <path
       transform="translate(-15.783636,87.630726)"
       sodipodi:type="arc"
       style="fill:#f2f2f2;fill-opacity:1;fill-rule:nonzero;stroke:none"
       id="path4979-6-7"
       sodipodi:cx="243.6993"
       sodipodi:cy="483.6463"
       sodipodi:rx="32.072342"
       sodipodi:ry="30.809652"
       d="m 275.77164,483.6463 a 32.072342,30.809652 0 1 1 -64.14469,0 32.072342,30.809652 0 1 1 64.14469,0 z" />
    <path
       transform="translate(25.380094,96.722096)"
       sodipodi:type="arc"
       style="fill:#f2f2f2;fill-opacity:1;fill-rule:nonzero;stroke:none"
       id="path4979-3-5-6"
       sodipodi:cx="243.6993"
       sodipodi:cy="483.6463"
       sodipodi:rx="32.072342"
       sodipodi:ry="30.809652"
       d="m 275.77164,483.6463 a 32.072342,30.809652 0 1 1 -64.14469,0 32.072342,30.809652 0 1 1 64.14469,0 z" />
    <path
       transform="translate(38.764606,58.841386)"
       sodipodi:type="arc"
       style="fill:#f2f2f2;fill-opacity:1;fill-rule:nonzero;stroke:none"
       id="path4979-0-3"
       sodipodi:cx="243.6993"
       sodipodi:cy="483.6463"
       sodipodi:rx="32.072342"
       sodipodi:ry="30.809652"
       d="m 275.77164,483.6463 a 32.072342,30.809652 0 1 1 -64.14469,0 32.072342,30.809652 0 1 1 64.14469,0 z" />
    <path
       transform="translate(79.92833,67.932756)"
       sodipodi:type="arc"
       style="fill:#f2f2f2;fill-opacity:1;fill-rule:nonzero;stroke:none"
       id="path4979-3-6-6"
       sodipodi:cx="243.6993"
       sodipodi:cy="483.6463"
       sodipodi:rx="32.072342"
       sodipodi:ry="30.809652"
       d="m 275.77164,483.6463 a 32.072342,30.809652 0 1 1 -64.14469,0 32.072342,30.809652 0 1 1 64.14469,0 z" />
    <path
       transform="translate(50.633906,98.237336)"
       sodipodi:type="arc"
       style="fill:#f2f2f2;fill-opacity:1;fill-rule:nonzero;stroke:none"
       id="path4979-34-1-1"
       sodipodi:cx="243.6993"
       sodipodi:cy="483.6463"
       sodipodi:rx="32.072342"
       sodipodi:ry="30.809652"
       d="m 275.77164,483.6463 a 32.072342,30.809652 0 1 1 -64.14469,0 32.072342,30.809652 0 1 1 64.14469,0 z" />
    <path
       transform="translate(32.198614,11.869286)"
       sodipodi:type="arc"
       style="fill:#f2f2f2;fill-opacity:1;fill-rule:nonzero;stroke:none"
       id="path4979-38-5"
       sodipodi:cx="243.6993"
       sodipodi:cy="483.6463"
       sodipodi:rx="32.072342"
       sodipodi:ry="30.809652"
       d="m 275.77164,483.6463 a 32.072342,30.809652 0 1 1 -64.14469,0 32.072342,30.809652 0 1 1 64.14469,0 z" />
    <path
       transform="translate(73.362331,20.960656)"
       sodipodi:type="arc"
       style="fill:#f2f2f2;fill-opacity:1;fill-rule:nonzero;stroke:none"
       id="path4979-3-93-4"
       sodipodi:cx="243.6993"
       sodipodi:cy="483.6463"
       sodipodi:rx="32.072342"
       sodipodi:ry="30.809652"
       d="m 275.77164,483.6463 a 32.072342,30.809652 0 1 1 -64.14469,0 32.072342,30.809652 0 1 1 64.14469,0 z" />
    <path
       transform="translate(44.067914,51.265236)"
       sodipodi:type="arc"
       style="fill:#f2f2f2;fill-opacity:1;fill-rule:nonzero;stroke:none"
       id="path4979-34-44-2"
       sodipodi:cx="243.6993"
       sodipodi:cy="483.6463"
       sodipodi:rx="32.072342"
       sodipodi:ry="30.809652"
       d="m 275.77164,483.6463 a 32.072342,30.809652 0 1 1 -64.14469,0 32.072342,30.809652 0 1 1 64.14469,0 z" />
  </g>
  <g
     inkscape:label="Layer 1"
     inkscape:groupmode="layer"
     id="layer1">
    <path
       sodipodi:type="arc"
       style="fill:#2d2d2d;fill-opacity:1;fill-rule:nonzero;stroke:none"
       id="path5386-5"
       sodipodi:cx="175.26146"
       sodipodi:cy="499.05112"
       sodipodi:rx="26.263966"
       sodipodi:ry="20.455589"
       d="m 201.52542,499.05112 a 26.263966,20.455589 0 1 1 -52.52793,0 26.263966,20.455589 0 1 1 52.52793,0 z"
       transform="matrix(0.71280608,0.64533999,-0.53029421,0.58573299,233.66066,72.676528)" />
    <path
       sodipodi:type="arc"
       style="fill:#2d2d2d;fill-opacity:1;fill-rule:nonzero;stroke:none"
       id="path4303"
       sodipodi:cx="157.85715"
       sodipodi:cy="490.93362"
       sodipodi:rx="83.571426"
       sodipodi:ry="105.71429"
       d="m 241.42857,490.93362 a 83.571426,105.71429 0 1 1 -167.142849,0 83.571426,105.71429 0 1 1 167.142849,0 z"
       transform="matrix(0.60137288,0.11988733,-0.11704513,0.58711597,91.835296,215.37713)" />
    <path
       sodipodi:type="arc"
       style="fill:#474747;fill-opacity:1;fill-rule:nonzero;stroke:none"
       id="path4303-8"
       sodipodi:cx="157.85715"
       sodipodi:cy="490.93362"
       sodipodi:rx="83.571426"
       sodipodi:ry="105.71429"
       d="m 241.42857,490.93362 a 83.571426,105.71429 0 1 1 -167.142849,0 83.571426,105.71429 0 1 1 167.142849,0 z"
       transform="matrix(0.55878962,0.10717261,-0.10875715,0.52484903,92.17188,246.07757)" />
    <path
       sodipodi:type="arc"
       style="fill:#f2f2f2;fill-opacity:1;fill-rule:nonzero;stroke:none"
       id="path5303"
       sodipodi:cx="105.05586"
       sodipodi:cy="517.99152"
       sodipodi:rx="11.111678"
       sodipodi:ry="11.616755"
       d="m 116.16754,517.99152 a 11.111678,11.616755 0 1 1 -22.223356,0 11.111678,11.616755 0 1 1 22.223356,0 z"
       transform="translate(-3.2984266,-10.317781)" />
    <path
       transform="translate(27.006151,-7.7924311)"
       sodipodi:type="arc"
       style="fill:#f2f2f2;fill-opacity:1;fill-rule:nonzero;stroke:none"
       id="path5303-0"
       sodipodi:cx="105.05586"
       sodipodi:cy="517.99152"
       sodipodi:rx="11.111678"
       sodipodi:ry="11.616755"
       d="m 116.16754,517.99152 a 11.111678,11.616755 0 1 1 -22.223356,0 11.111678,11.616755 0 1 1 22.223356,0 z" />
    <path
       transform="translate(1.2472594,-8.8025511)"
       sodipodi:type="arc"
       style="fill:#2d2d2d;fill-opacity:1;fill-rule:nonzero;stroke:none"
       id="path5330"
       sodipodi:cx="95.711952"
       sodipodi:cy="553.59937"
       sodipodi:rx="3.2829957"
       sodipodi:ry="5.3033009"
       d="m 98.994948,553.59937 a 3.2829957,5.3033009 0 1 1 -6.565991,0 3.2829957,5.3033009 0 1 1 6.565991,0 z" />
    <path
       transform="translate(20.187622,-6.5297111)"
       sodipodi:type="arc"
       style="fill:#2d2d2d;fill-opacity:1;fill-rule:nonzero;stroke:none"
       id="path5330-6"
       sodipodi:cx="95.711952"
       sodipodi:cy="553.59937"
       sodipodi:rx="3.2829957"
       sodipodi:ry="5.3033009"
       d="m 98.994948,553.59937 a 3.2829957,5.3033009 0 1 1 -6.565991,0 3.2829957,5.3033009 0 1 1 6.565991,0 z" />
    <path
       transform="matrix(1.7692308,0,0,1.1428571,-70.104478,-129.30443)"
       sodipodi:type="arc"
       style="fill:#2d2d2d;fill-opacity:1;fill-rule:nonzero;stroke:none"
       id="path5330-5"
       sodipodi:cx="95.711952"
       sodipodi:cy="553.59937"
       sodipodi:rx="3.2829957"
       sodipodi:ry="5.3033009"
       d="m 98.994948,553.59937 a 3.2829957,5.3033009 0 1 1 -6.565991,0 3.2829957,5.3033009 0 1 1 6.565991,0 z" />
    <path
       transform="matrix(1.7692308,0,0,1.1428571,-39.799899,-127.03156)"
       sodipodi:type="arc"
       style="fill:#2d2d2d;fill-opacity:1;fill-rule:nonzero;stroke:none"
       id="path5330-5-7"
       sodipodi:cx="95.711952"
       sodipodi:cy="553.59937"
       sodipodi:rx="3.2829957"
       sodipodi:ry="5.3033009"
       d="m 98.994948,553.59937 a 3.2829957,5.3033009 0 1 1 -6.565991,0 3.2829957,5.3033009 0 1 1 6.565991,0 z" />
    <path
       sodipodi:type="arc"
       style="fill:#2d2d2d;fill-opacity:1;fill-rule:nonzero;stroke:none"
       id="path5386"
       sodipodi:cx="175.26146"
       sodipodi:cy="499.05112"
       sodipodi:rx="26.263966"
       sodipodi:ry="20.455589"
       d="m 201.52542,499.05112 a 26.263966,20.455589 0 1 1 -52.52793,0 26.263966,20.455589 0 1 1 52.52793,0 z"
       transform="matrix(0.79215901,-0.54501405,0.44785352,0.65093956,-188.3534,255.10804)" />
  </g>
</svg>
