<?xml version="1.0" encoding="UTF-8" standalone="no"?>
<!-- Created with Inkscape (http://www.inkscape.org/) -->

<svg
   xmlns:dc="http://purl.org/dc/elements/1.1/"
   xmlns:cc="http://creativecommons.org/ns#"
   xmlns:rdf="http://www.w3.org/1999/02/22-rdf-syntax-ns#"
   xmlns:svg="http://www.w3.org/2000/svg"
   xmlns="http://www.w3.org/2000/svg"
   xmlns:sodipodi="http://sodipodi.sourceforge.net/DTD/sodipodi-0.dtd"
   xmlns:inkscape="http://www.inkscape.org/namespaces/inkscape"
   width="210mm"
   height="297mm"
   viewBox="0 0 744.09448819 1052.3622047"
   id="svg2"
   version="1.1"
   inkscape:version="0.91 r13725"
   sodipodi:docname="arrows.svg">
  <defs
     id="defs4" />
  <sodipodi:namedview
     id="base"
     pagecolor="#ffffff"
     bordercolor="#666666"
     borderopacity="1.0"
     inkscape:pageopacity="0.0"
     inkscape:pageshadow="2"
     inkscape:zoom="1"
     inkscape:cx="30.857143"
     inkscape:cy="680"
     inkscape:document-units="px"
     inkscape:current-layer="layer2"
     showgrid="false"
     inkscape:window-width="1920"
     inkscape:window-height="1017"
     inkscape:window-x="-8"
     inkscape:window-y="-8"
     inkscape:window-maximized="1" />
  <metadata
     id="metadata7">
    <rdf:RDF>
      <cc:Work
         rdf:about="">
        <dc:format>image/svg+xml</dc:format>
        <dc:type
           rdf:resource="http://purl.org/dc/dcmitype/StillImage" />
        <dc:title></dc:title>
      </cc:Work>
    </rdf:RDF>
  </metadata>
  <g
     inkscape:label="Layer 1"
     inkscape:groupmode="layer"
     id="layer1">
    <rect
       style="opacity:1;fill:#008000;fill-opacity:1;stroke:none;stroke-opacity:1"
       id="rect3338"
       width="108"
       height="104"
       x="-134.86629"
       y="187.25821"
       ry="12.020815"
       transform="matrix(0.70710678,-0.70710678,0.70710678,0.70710678,0,0)" />
    <rect
       style="opacity:1;fill:#008000;fill-opacity:1;stroke:none;stroke-opacity:1"
       id="rect3342"
       width="124"
       height="111"
       x="106"
       y="173.3622"
       ry="13" />
    <rect
       style="opacity:1;fill:#00b400;fill-opacity:1;stroke:none;stroke-opacity:1"
       id="rect3338-3"
       width="102.71418"
       height="98.90995"
       x="-140.16681"
       y="187.17497"
       ry="11.432483"
       transform="matrix(0.70789984,-0.70631283,0.70789984,0.70631283,0,0)" />
    <rect
       style="opacity:1;fill:#00b400;fill-opacity:1;stroke:none;stroke-opacity:1"
       id="rect3342-8"
       width="118.06335"
       height="105.44881"
       x="98.929176"
       y="179.51276"
       ry="12.349861" />
  </g>
  <g
     inkscape:groupmode="layer"
     id="layer2"
     inkscape:label="right">
    <rect
       style="opacity:1;fill:#800000;fill-opacity:1;stroke:none;stroke-opacity:1"
       id="rect3338-6"
       width="108"
       height="104"
       x="-652.47107"
       y="-311.96182"
       ry="12.020815"
       transform="matrix(-0.70710678,-0.70710678,-0.70710678,0.70710678,0,0)" />
    <rect
       style="opacity:1;fill:#800000;fill-opacity:1;stroke:none;stroke-opacity:1"
       id="rect3342-6"
       width="124"
       height="111"
       x="-613.00372"
       y="186.36221"
       ry="13"
       transform="scale(-1,1)" />
    <rect
       style="opacity:1;fill:#eb0000;fill-opacity:1;stroke:none;stroke-opacity:1"
       id="rect3338-3-9"
       width="102.71418"
       height="98.90995"
       x="-657.21234"
       y="-311.46518"
       ry="11.432483"
       transform="matrix(-0.70789984,-0.70631283,-0.70789984,0.70631283,0,0)" />
    <rect
       style="opacity:1;fill:#eb0000;fill-opacity:1;stroke:none;stroke-opacity:1"
       id="rect3342-8-7"
       width="118.06335"
       height="105.44881"
       x="-620.07458"
       y="192.51277"
       ry="12.349861"
       transform="scale(-1,1)" />
  </g>
  <g
     inkscape:groupmode="layer"
     id="layer3"
     inkscape:label="up">
    <rect
       style="opacity:1;fill:#008080;fill-opacity:1;stroke:none;stroke-opacity:1"
       id="rect3338-7"
       width="108"
       height="104"
       x="-361.13785"
       y="140.07953"
       ry="12.020815"
       transform="matrix(-0.70710678,-0.70710678,0.70710678,-0.70710678,0,0)" />
    <rect
       style="opacity:1;fill:#008080;fill-opacity:1;stroke:none;stroke-opacity:1"
       id="rect3342-1"
       width="124"
       height="111"
       x="-199.35851"
       y="295.00003"
       ry="13"
       transform="matrix(0,-1,1,0,0,0)" />
    <rect
       style="opacity:1;fill:#00e5ff;fill-opacity:1;stroke:none;stroke-opacity:1"
       id="rect3338-3-6"
       width="102.71418"
       height="98.90995"
       x="-351.03625"
       y="145.68912"
       ry="11.432483"
       transform="matrix(-0.70631283,-0.70789984,0.70631283,-0.70789984,0,0)" />
    <rect
       style="opacity:1;fill:#00e5ff;fill-opacity:1;stroke:none;stroke-opacity:1"
       id="rect3342-8-4"
       width="118.06335"
       height="105.44881"
       x="-186.35103"
       y="294.40067"
       ry="12.349861"
       transform="matrix(0,-1,1,0,0,0)" />
  </g>
  <g
     inkscape:groupmode="layer"
     id="layer4"
     inkscape:label="down">
    <rect
       style="opacity:1;fill:#808000;fill-opacity:1;stroke:none;stroke-opacity:1"
       id="rect3338-7-3"
       width="108"
       height="104"
       x="486.76303"
       y="1.8874272"
       ry="12.020815"
       transform="matrix(0.70710678,0.70710678,-0.70710678,0.70710678,0,0)" />
    <rect
       style="opacity:1;fill:#808000;fill-opacity:1;stroke:none;stroke-opacity:1"
       id="rect3342-1-1"
       width="124"
       height="111"
       x="302.48138"
       y="-402.27304"
       ry="13"
       transform="matrix(0,1,-1,0,0,0)" />
    <rect
       style="opacity:1;fill:#ffe500;fill-opacity:1;stroke:none;stroke-opacity:1"
       id="rect3338-3-6-7"
       width="102.71418"
       height="98.90995"
       x="497.02133"
       y="6.5452185"
       ry="11.432483"
       transform="matrix(0.70631283,0.70789984,-0.70631283,0.70789984,0,0)" />
    <rect
       style="opacity:1;fill:#ffe500;fill-opacity:1;stroke:none;stroke-opacity:1"
       id="rect3342-8-4-4"
       width="118.06335"
       height="105.44881"
       x="315.48883"
       y="-402.87241"
       ry="12.349861"
       transform="matrix(0,1,-1,0,0,0)" />
  </g>
</svg>
