<?xml version="1.0" encoding="UTF-8" standalone="no"?>
<!-- Created with Inkscape (http://www.inkscape.org/) -->

<svg
   xmlns:dc="http://purl.org/dc/elements/1.1/"
   xmlns:cc="http://creativecommons.org/ns#"
   xmlns:rdf="http://www.w3.org/1999/02/22-rdf-syntax-ns#"
   xmlns:svg="http://www.w3.org/2000/svg"
   xmlns="http://www.w3.org/2000/svg"
   xmlns:sodipodi="http://sodipodi.sourceforge.net/DTD/sodipodi-0.dtd"
   xmlns:inkscape="http://www.inkscape.org/namespaces/inkscape"
   width="744.09448819"
   height="1052.3622047"
   id="svg2"
   version="1.1"
   inkscape:version="0.48.5 r10040"
   sodipodi:docname="gemPurple.svg">
  <defs
     id="defs4" />
  <sodipodi:namedview
     id="base"
     pagecolor="#ffffff"
     bordercolor="#666666"
     borderopacity="1.0"
     inkscape:pageopacity="0.0"
     inkscape:pageshadow="2"
     inkscape:zoom="1"
     inkscape:cx="298.94633"
     inkscape:cy="641.42928"
     inkscape:document-units="px"
     inkscape:current-layer="layer1"
     showgrid="false"
     inkscape:window-width="1920"
     inkscape:window-height="1017"
     inkscape:window-x="-8"
     inkscape:window-y="-8"
     inkscape:window-maximized="1" />
  <metadata
     id="metadata7">
    <rdf:RDF>
      <cc:Work
         rdf:about="">
        <dc:format>image/svg+xml</dc:format>
        <dc:type
           rdf:resource="http://purl.org/dc/dcmitype/StillImage" />
        <dc:title></dc:title>
      </cc:Work>
    </rdf:RDF>
  </metadata>
  <g
     inkscape:label="Layer 1"
     inkscape:groupmode="layer"
     id="layer1">
    <path
       style="fill:#008080;stroke:none;fill-opacity:1"
       d="M 267.91365,188.66878 486.11978,183.36218 533,249.16407 393.2117,408.36218 227,255.53199 z"
       id="path2989"
       inkscape:connector-curvature="0"
       sodipodi:nodetypes="cccccc" />
    <path
       style="fill:#005454;stroke:none;fill-opacity:1"
       d="m 398.55055,399.40512 c 0.002,-0.53472 14.7763,-33.82222 32.83105,-73.97222 l 32.82683,-73 18.91895,-0.75448 c 10.40542,-0.41496 24.94803,-0.63996 32.3169,-0.5 l 13.39795,0.25448 -63.27517,72.5 c -69.60479,79.7524 -67.02247,76.84426 -67.01651,75.47222 z"
       id="path3822"
       inkscape:connector-curvature="0" />
    <path
       style="fill:#005454;fill-opacity:1;stroke:none"
       d="m 451.80019,217.72352 c -6.69264,-17.16516 -12.00204,-31.37577 -11.79869,-31.57912 0.20336,-0.20336 10.69105,-0.62654 23.30599,-0.94042 l 22.93625,-0.57069 6.97738,9.89981 c 13.68087,19.41099 35.30885,51.19358 35.91884,52.7832 0.56356,1.46861 -2.39106,1.6166 -32.2755,1.6166 l -32.89586,0 -12.16841,-31.20938 z"
       id="path3824"
       inkscape:connector-curvature="0" />
    <path
       style="fill:#00b1b1;fill-opacity:1;stroke:none"
       d="m 231.64148,249.24881 c 1.32267,-2.20735 10.04313,-16.42748 19.3788,-31.6003 l 16.97396,-27.58694 7.02604,-0.52957 c 14.40582,-1.08579 54.52605,-1.46991 54.52605,-0.52204 0,1.05155 -18.86941,62.12569 -19.33955,62.59583 -0.162,0.162 -18.44655,0.60095 -40.63234,0.97545 l -40.33781,0.68091 2.40485,-4.01334 z"
       id="path3834"
       inkscape:connector-curvature="0" />
  </g>
  <g
     inkscape:groupmode="layer"
     id="layer2"
     inkscape:label="detail">
    <path
       style="fill:none;stroke:#000000;stroke-width:1px;stroke-linecap:butt;stroke-linejoin:miter;stroke-opacity:1"
       d="m 228,254.36218 c 105.33749,-0.33126 202.41667,-2.41667 303.75,-4.75 l -138.5,158.5 z"
       id="path3760"
       inkscape:connector-curvature="0"
       sodipodi:nodetypes="cccc" />
    <path
       style="fill:none;stroke:#000000;stroke-width:1px;stroke-linecap:butt;stroke-linejoin:miter;stroke-opacity:1"
       d="m 311,253.36218 c 28.22167,50.66667 57.57367,103.83333 82.25,154.5 l 70.5,-156.75 z"
       id="path3792"
       inkscape:connector-curvature="0"
       sodipodi:nodetypes="cccc" />
    <path
       style="fill:none;stroke:#000000;stroke-width:1px;stroke-linecap:butt;stroke-linejoin:miter;stroke-opacity:1"
       d="m 311,253.36218 20.5,-66.5 106,-2 26,65.75 z"
       id="path3798"
       inkscape:connector-curvature="0"
       sodipodi:nodetypes="ccccc" />
    <path
       style="fill:none;stroke:#000000;stroke-width:1px;stroke-linecap:butt;stroke-linejoin:miter;stroke-opacity:1"
       d="m 227.5,253.86218 40.25,-65.25 63.75,-1.5 -20.5,66 z"
       id="path3818"
       inkscape:connector-curvature="0"
       sodipodi:nodetypes="ccccc" />
    <path
       style="fill:none;stroke:#000000;stroke-width:1px;stroke-linecap:butt;stroke-linejoin:miter;stroke-opacity:1"
       d="m 438,184.86218 49,-1.25 45.25,65.75 -68.75,1 z"
       id="path3820"
       inkscape:connector-curvature="0"
       sodipodi:nodetypes="ccccc" />
    <path
       style="fill:#00b1b1;fill-opacity:1;stroke:none"
       d="m 310.50976,329.81203 c -42.60489,-39.61504 -78.12755,-72.67419 -78.93925,-73.46478 -1.28383,-1.25042 3.78971,-1.4034 38.99851,-1.17588 l 40.47435,0.26153 9.32357,17 c 5.12796,9.35 16.10676,29.375 24.39734,44.5 16.45292,30.01607 44.24297,83.87241 43.60673,84.50865 -0.2188,0.21881 -35.25637,-32.01448 -77.86125,-71.62952 l 0,0 z"
       id="path3836"
       inkscape:connector-curvature="0" />
  </g>
</svg>
