<?xml version="1.0" encoding="UTF-8" standalone="no"?>
<!-- Created with Inkscape (http://www.inkscape.org/) -->

<svg
   xmlns:osb="http://www.openswatchbook.org/uri/2009/osb"
   xmlns:dc="http://purl.org/dc/elements/1.1/"
   xmlns:cc="http://creativecommons.org/ns#"
   xmlns:rdf="http://www.w3.org/1999/02/22-rdf-syntax-ns#"
   xmlns:svg="http://www.w3.org/2000/svg"
   xmlns="http://www.w3.org/2000/svg"
   xmlns:sodipodi="http://sodipodi.sourceforge.net/DTD/sodipodi-0.dtd"
   xmlns:inkscape="http://www.inkscape.org/namespaces/inkscape"
   width="744.09448819"
   height="1052.3622047"
   id="svg2"
   version="1.1"
   inkscape:version="0.48.5 r10040"
   sodipodi:docname="greenbabydragon2.svg">
  <defs
     id="defs4">
    <linearGradient
       id="linearGradient4148"
       osb:paint="solid">
      <stop
         style="stop-color:#004800;stop-opacity:1;"
         offset="0"
         id="stop4150" />
    </linearGradient>
  </defs>
  <sodipodi:namedview
     id="base"
     pagecolor="#ffffff"
     bordercolor="#666666"
     borderopacity="1.0"
     inkscape:pageopacity="0.0"
     inkscape:pageshadow="2"
     inkscape:zoom="1.4142136"
     inkscape:cx="305.42434"
     inkscape:cy="663.8668"
     inkscape:document-units="px"
     inkscape:current-layer="layer13"
     showgrid="false"
     inkscape:window-width="1248"
     inkscape:window-height="976"
     inkscape:window-x="1942"
     inkscape:window-y="7"
     inkscape:window-maximized="0" />
  <metadata
     id="metadata7">
    <rdf:RDF>
      <cc:Work
         rdf:about="">
        <dc:format>image/svg+xml</dc:format>
        <dc:type
           rdf:resource="http://purl.org/dc/dcmitype/StillImage" />
        <dc:title></dc:title>
      </cc:Work>
    </rdf:RDF>
  </metadata>
  <g
     inkscape:groupmode="layer"
     id="layer3"
     inkscape:label="background"
     sodipodi:insensitive="true"
     style="display:inline">
    <rect
       style="opacity:0.18000004;fill:#00fff0;fill-opacity:0.95767194"
       id="rect2993"
       width="942.85718"
       height="1148.5714"
       x="-88.571426"
       y="-67.637817" />
  </g>
  <g
     inkscape:groupmode="layer"
     id="layer15"
     inkscape:label="wing2"
     sodipodi:insensitive="true">
    <path
       sodipodi:type="arc"
       style="fill:#008000;fill-opacity:1;stroke:none"
       id="path4942-4"
       sodipodi:cx="167.5"
       sodipodi:cy="420.21933"
       sodipodi:rx="28.214285"
       sodipodi:ry="37.857143"
       d="M 195.71428,420.21933 A 28.214285,37.857143 0 1 1 160.0738,383.69705 l 7.4262,36.52228 z"
       sodipodi:start="0"
       sodipodi:end="4.4460441"
       transform="matrix(-0.83544308,0,0,-0.67348875,328.15101,671.18183)" />
  </g>
  <g
     inkscape:groupmode="layer"
     id="layer4"
     inkscape:label="body"
     style="display:inline"
     sodipodi:insensitive="true">
    <path
       sodipodi:type="arc"
       style="fill:#008000;fill-opacity:1"
       id="path3790"
       sodipodi:cx="312.85715"
       sodipodi:cy="472.36218"
       sodipodi:rx="124.28571"
       sodipodi:ry="117.14286"
       d="m 437.14286,472.36218 a 124.28571,117.14286 0 1 1 -248.57143,0 124.28571,117.14286 0 1 1 248.57143,0 z"
       transform="matrix(0.89632764,0,0,1.0853658,-11.878927,-30.3236)" />
    <path
       sodipodi:type="arc"
       style="fill:#00b904;fill-opacity:1"
       id="path3790-4"
       sodipodi:cx="312.85715"
       sodipodi:cy="472.36218"
       sodipodi:rx="124.28571"
       sodipodi:ry="117.14286"
       d="m 437.14286,472.36218 a 124.28571,117.14286 0 1 1 -248.57143,0 124.28571,117.14286 0 1 1 248.57143,0 z"
       transform="matrix(0.89632764,0,0,1.0853658,2.8910532,-35.466433)" />
    <path
       sodipodi:type="arc"
       style="fill:#008000;fill-opacity:1;stroke:none"
       id="path4939"
       sodipodi:cx="364.64285"
       sodipodi:cy="499.50504"
       sodipodi:rx="55.357143"
       sodipodi:ry="74.285713"
       d="m 420,499.50504 a 55.357143,74.285713 0 1 1 -110.71429,0 55.357143,74.285713 0 1 1 110.71429,0 z"
       transform="matrix(1.0401169,0,0,1.2259615,-49.394645,-129.65465)" />
  </g>
  <g
     inkscape:groupmode="layer"
     id="layer14"
     inkscape:label="wing"
     sodipodi:insensitive="true">
    <path
       sodipodi:type="arc"
       style="fill:#008000;fill-opacity:1;stroke:none"
       id="path4942"
       sodipodi:cx="167.5"
       sodipodi:cy="420.21933"
       sodipodi:rx="28.214285"
       sodipodi:ry="37.857143"
       d="M 195.71428,420.21933 A 28.214285,37.857143 0 1 1 160.0738,383.69705 l 7.4262,36.52228 z"
       sodipodi:start="0"
       sodipodi:end="4.4460441"
       transform="matrix(0.94936713,0,0,0.97119015,9.9095841,4.625669)" />
  </g>
  <g
     inkscape:groupmode="layer"
     id="layer11"
     inkscape:label="tail"
     sodipodi:insensitive="true">
    <path
       style="fill:#008000;fill-opacity:1;stroke:#008000;stroke-width:1px;stroke-linecap:butt;stroke-linejoin:miter;stroke-opacity:1"
       d="M 174.07183,513.3258 C 103.36116,550.70144 74.066739,430.49329 74.066739,430.49329 c 0,0 53.538081,60.60915 89.903571,53.53808 25.25382,18.18274 10.10152,29.29443 10.10152,29.29443 z"
       id="path4779"
       inkscape:connector-curvature="0" />
    <path
       style="fill:#00b904;fill-opacity:1;stroke:#008000;stroke-width:0.83128059px;stroke-linecap:butt;stroke-linejoin:miter;stroke-opacity:1"
       d="m 164.13644,510.5075 c -57.83945,31.5751 -81.801523,-69.97724 -81.801523,-69.97724 0,0 43.792743,51.20285 73.538753,45.22919 20.65695,15.36086 8.26277,24.74805 8.26277,24.74805 z"
       id="path4779-2"
       inkscape:connector-curvature="0" />
  </g>
  <g
     inkscape:groupmode="layer"
     id="layer5"
     inkscape:label="leg"
     sodipodi:insensitive="true"
     style="display:inline">
    <path
       sodipodi:type="arc"
       style="fill:#009c02;fill-opacity:1"
       id="path3829-0"
       sodipodi:cx="275.71429"
       sodipodi:cy="596.64789"
       sodipodi:rx="78.571426"
       sodipodi:ry="64.285713"
       d="m 354.28572,596.64789 a 78.571426,64.285713 0 1 1 -157.14285,0 78.571426,64.285713 0 1 1 157.14285,0 z"
       transform="matrix(0.8073266,0,0,1.2122606,-37.950392,-171.57092)" />
    <path
       sodipodi:type="arc"
       style="fill:#009c02;fill-opacity:1"
       id="path3849-9"
       sodipodi:cx="335.71429"
       sodipodi:cy="609.50507"
       sodipodi:rx="47.142857"
       sodipodi:ry="40"
       d="m 382.85715,609.50507 a 47.142857,40 0 1 1 -94.28571,0 47.142857,40 0 1 1 94.28571,0 z"
       transform="matrix(0.87064633,0,0,1.2988506,-59.761776,-208.39072)" />
    <path
       sodipodi:type="arc"
       style="fill:#00b904;fill-opacity:1"
       id="path3829-0-8"
       sodipodi:cx="275.71429"
       sodipodi:cy="596.64789"
       sodipodi:rx="78.571426"
       sodipodi:ry="64.285713"
       d="m 354.28572,596.64789 a 78.571426,64.285713 0 1 1 -157.14285,0 78.571426,64.285713 0 1 1 157.14285,0 z"
       transform="matrix(0.72271595,0,0,1.0653199,-24.264007,-84.376993)" />
    <path
       sodipodi:type="arc"
       style="fill:#00b904;fill-opacity:1"
       id="path3849-9-8"
       sodipodi:cx="335.71429"
       sodipodi:cy="609.50507"
       sodipodi:rx="47.142857"
       sodipodi:ry="40"
       d="m 382.85715,609.50507 a 47.142857,40 0 1 1 -94.28571,0 47.142857,40 0 1 1 94.28571,0 z"
       transform="matrix(0.77939956,0,0,1.1414141,-43.789452,-116.73378)" />
  </g>
  <g
     inkscape:groupmode="layer"
     id="layer6"
     inkscape:label="LEG2"
     style="display:inline"
     sodipodi:insensitive="true">
    <path
       sodipodi:type="arc"
       style="fill:#009c02;fill-opacity:1"
       id="path3829-0-2"
       sodipodi:cx="275.71429"
       sodipodi:cy="596.64789"
       sodipodi:rx="78.571426"
       sodipodi:ry="64.285713"
       d="m 354.28572,596.64789 a 78.571426,64.285713 0 1 1 -157.14285,0 78.571426,64.285713 0 1 1 157.14285,0 z"
       transform="matrix(-0.37274509,0.75893756,-0.77036691,-0.82796855,887.18577,796.17495)" />
    <path
       sodipodi:type="arc"
       style="fill:#009c02;fill-opacity:1"
       id="path3849-9-4"
       sodipodi:cx="335.71429"
       sodipodi:cy="609.50507"
       sodipodi:rx="47.142857"
       sodipodi:ry="40"
       d="m 382.85715,609.50507 a 47.142857,40 0 1 1 -94.28571,0 47.142857,40 0 1 1 94.28571,0 z"
       transform="matrix(-0.40198,0.8184621,-0.82539309,-0.88710916,978.67513,839.70574)" />
    <path
       sodipodi:type="arc"
       style="fill:#00b904;fill-opacity:1"
       id="path3829-0-8-5"
       sodipodi:cx="275.71429"
       sodipodi:cy="596.64789"
       sodipodi:rx="78.571426"
       sodipodi:ry="64.285713"
       d="m 354.28572,596.64789 a 78.571426,64.285713 0 1 1 -157.14285,0 78.571426,64.285713 0 1 1 157.14285,0 z"
       transform="matrix(-0.3336801,0.67939826,-0.67698906,-0.72760866,814.79471,751.19079)" />
    <path
       sodipodi:type="arc"
       style="fill:#00b904;fill-opacity:1"
       id="path3849-9-8-5"
       sodipodi:cx="335.71429"
       sodipodi:cy="609.50507"
       sodipodi:rx="47.142857"
       sodipodi:ry="40"
       d="m 382.85715,609.50507 a 47.142857,40 0 1 1 -94.28571,0 47.142857,40 0 1 1 94.28571,0 z"
       transform="matrix(-0.35985109,0.73268442,-0.72534542,-0.77958071,896.2218,788.90667)" />
  </g>
  <g
     inkscape:groupmode="layer"
     id="layer13"
     inkscape:label="2ndear"
     style="display:inline"
     sodipodi:insensitive="true">
    <path
       sodipodi:type="arc"
       style="fill:#00df1d;fill-opacity:1;stroke:none"
       id="path4937"
       sodipodi:cx="296.78571"
       sodipodi:cy="122.36218"
       sodipodi:rx="14.642858"
       sodipodi:ry="15"
       d="m 311.42856,122.36218 a 14.642858,15 0 1 1 -29.28571,0 14.642858,15 0 1 1 29.28571,0 z"
       transform="matrix(1.9452909,0.79589001,-1.0767016,3.359781,-227.15842,-474.52814)" />
    <path
       sodipodi:type="arc"
       style="fill:#00b904;fill-opacity:1;stroke:none;display:inline"
       id="path4937-5"
       sodipodi:cx="296.78571"
       sodipodi:cy="122.36218"
       sodipodi:rx="14.642858"
       sodipodi:ry="15"
       d="m 311.42856,122.36218 a 14.642858,15 0 1 1 -29.28571,0 14.642858,15 0 1 1 29.28571,0 z"
       transform="matrix(1.9452909,0.79589001,-1.0767016,3.359781,-225.37747,-468.51906)" />
  </g>
  <g
     inkscape:groupmode="layer"
     id="layer8"
     inkscape:label="head2"
     style="display:inline"
     sodipodi:insensitive="true">
    <path
       style="opacity:0.47000002;fill:#00ff09;fill-opacity:0.95767194;display:inline"
       d="m 320.23312,157.38657 c -76.53088,0 -138.5625,58.85151 -138.5625,131.4375 0,72.58599 62.03162,131.40625 138.5625,131.40625 36.93235,0 70.44708,-13.74774 95.28125,-36.09375 -0.66563,-0.29719 -1.30901,-0.67199 -1.96875,-1.25 -1.78254,-0.63533 -2.09704,-0.8266 -2.96875,-1.4375 -1.79807,-0.36627 -2.04275,-0.77772 -3.84375,-1.90625 -0.0732,-0.0459 -0.18862,-0.0642 -0.25,-0.125 -0.12255,-0.12144 -0.22529,-0.24953 -0.34375,-0.375 -0.15588,-0.0578 -0.32467,-0.12818 -0.4375,-0.15625 -1.71203,-0.42586 -3.02064,-1.46614 -4.28125,-2.4375 -0.0611,-0.0422 -0.12655,-0.0827 -0.1875,-0.125 -0.48056,-0.14412 -0.99039,-0.33408 -1.375,-0.65625 -0.65417,-0.54795 -1.14497,-1.02268 -1.53125,-1.4375 -0.36526,0.025 -0.74966,-0.42244 -1.09375,-0.625 -1.53806,-0.90549 -2.43469,-1.73441 -3.375,-2.6875 -0.006,-0.004 -0.0842,-0.0862 -0.0937,-0.0937 -0.0152,-0.0402 -0.0781,-0.16441 -0.25,-0.375 -1.7538,-0.69573 -0.61748,-0.4842 -1.53125,-0.65625 l -1.96875,-2.125 c 0.0567,0.0869 0.14858,0.21642 0.1875,0.28125 0.0118,0.0197 0.002,0.0258 0,0.0312 -0.0171,-0.007 -0.0645,-0.0428 -0.0937,-0.0625 0.0921,0.13163 0.33788,0.49219 0.25,0.375 -0.10048,-0.13398 -0.20475,-0.27613 -0.3125,-0.40625 -0.1097,-0.0799 -0.23816,-0.19599 -0.3125,-0.25 -0.40783,-0.29628 -0.78668,-0.60056 -1.1875,-0.90625 0.38381,0.26086 0.82688,0.56393 1.1875,0.78125 -0.29357,-0.35668 -0.56679,-0.70549 -0.75,-1.125 -0.2313,-0.52964 0.55279,0.56909 1,1.25 0.0127,0.006 0.0191,0.0253 0.0312,0.0312 0.77215,0.37825 0.57415,-0.25319 -3.625,-4.78125 -0.38054,-0.41035 0.22018,0.48287 0.59375,1.3125 0.45321,0.4398 0.83109,1.0793 0.46875,0.9375 -0.0846,-0.0331 -0.14347,-0.10876 -0.21875,-0.15625 0.003,0.0291 2.7e-4,0.0672 0,0.0937 -0.004,0.38702 -0.76688,-0.56146 -0.9375,-1.03125 -0.11294,-0.14253 -0.21867,-0.28238 -0.34375,-0.40625 0.10657,0.10246 0.13676,0.14178 0.3125,0.3125 -0.005,-0.0301 -0.005,-0.0732 0,-0.0937 -0.90433,-0.89573 -2.14043,-2.11219 -2.56255,-3.0312 -0.11109,-0.24186 -0.19108,-0.49947 -0.28125,-0.75 -0.45289,-0.31148 -1.03674,-0.99862 -1.15625,-1.625 -0.0725,-0.38007 0.25455,0.0846 0.625,0.59375 -0.22176,-0.58883 -0.47267,-1.35242 -0.46875,-1.5 l -1.03125,-2.25 c 0.009,0.0577 -0.0506,-0.0629 -0.125,-0.15625 0.15472,0.63581 0.34231,1.28643 0.34375,1.9375 7.7e-4,0.3456 -0.32988,-0.60908 -0.4375,-0.9375 -0.20473,-0.62477 -0.39582,-1.2571 -0.5,-1.90625 -0.65277,-1.28065 -0.78355,-2.5523 -0.75,-3.9375 -0.54056,-0.95378 -1.08701,-2.05773 -1,-2.75 -0.15823,-0.69741 -0.31149,-1.39611 -0.46875,-2.09375 0.0535,-0.32511 0.10199,-0.64376 0.15625,-0.96875 -0.10656,-0.53456 -0.20581,-1.07661 -0.375,-1.59375 -0.10516,-0.32139 0.28262,1.2805 0.0937,1 -0.63609,-0.94465 -0.52926,-3.66282 -0.40625,-4.71875 0.20883,-1.79257 0.65784,-2.58952 1.21875,-2.75 0.42675,-3.55321 4.18423,-6.87276 11.25,-6.6875 2.66445,0.0699 5.28091,-0.43575 7.9375,-0.0625 0.73408,0.19923 1.46054,0.36993 2.1875,0.59375 0.054,0.0166 0.16646,0.039 0.25,0.0625 0.57695,0.0284 1.21134,0.14278 1.84375,0.28125 1.04062,-0.30153 2.27636,-0.45099 3.6875,-0.40625 0.80455,0.0255 0.36998,0.0231 1.3125,0.0312 2.02534,-0.0972 4.14157,-0.51189 5.9375,0.59375 0.0284,9.1e-4 0.0675,0.002 0.0937,0 1.8945,-0.13311 3.75869,-0.0595 5.34375,0.78125 l 2.375,0 c 1.41284,-1e-5 2.83717,-1.1e-4 4.25,0 1.43066,1.9e-4 2.8506,10e-4 4.28125,0 1.50733,1.1e-4 3.02393,0.008 4.53125,0 1.53616,-0.008 3.05877,-0.048 4.59375,0.0312 0.98271,0.0294 1.95365,-0.23797 2.9375,-0.21875 2.00943,0.0392 1.95777,0.16098 3.78125,0.78125 0.0177,0.009 0.0141,0.0225 0.0312,0.0312 0.91346,-0.10564 0.91757,-0.0972 2.59375,0 0.0835,0.0187 2.00325,0.3943 2.46875,0.625 5.16458,-13.76543 8,-28.585 8,-44.03125 0,-72.58599 -62.06287,-131.4375 -138.59375,-131.4375 z m 69.75,210.25 -0.34375,-0.375 c 0.0709,0.10171 0.0998,0.14436 0.21875,0.3125 0.0461,0.026 0.0835,0.0413 0.125,0.0625 z m 60.40625,-34.65625 c -0.008,0.006 -0.0201,0.0186 0,0.0312 0.0655,0.041 0.19321,0.0606 0.34375,0.0625 0.0133,1.7e-4 0.0175,5e-5 0.0312,0 0.0116,-0.0307 0.0197,-0.063 0.0312,-0.0937 -0.16368,1.7e-4 -0.37414,-0.0251 -0.40625,0 z m -47,16.03125 c -10e-4,0.0312 0.002,0.0623 0,0.0937 0.0205,0.0101 0.0419,0.0213 0.0625,0.0312 0.008,-0.0294 0.0227,-0.0626 0.0312,-0.0937 -0.0265,-0.002 -0.0721,-0.0312 -0.0937,-0.0312 z m -20.34375,10 c 0.0437,0.15506 0.038,0.215 0.0625,0.3125 0.0269,0.0361 0.0681,0.0601 0.0937,0.0937 -0.0479,-0.13823 -0.10532,-0.26927 -0.15625,-0.40625 z m 8.53125,9.25 c -0.0951,0.002 1.03558,1.50528 1.5625,1.9375 0.0622,0.051 0.18378,0.10103 0.28125,0.15625 -0.57453,-0.69174 -1.51239,-1.79742 -1.71875,-2 -0.0695,-0.0682 -0.11141,-0.094 -0.125,-0.0937 z m 2.4375,2.375 c 0.63314,0.26978 1.26522,0.48087 0.875,0.34375 -0.4465,-0.1569 -0.56952,-0.22886 -0.875,-0.34375 z m 3.25,2.25 c 0.0197,0.036 0.1367,0.24168 0.28125,0.59375 0.0672,0.0516 0.20331,0.10014 0.3125,0.15625 -0.37546,-0.46758 -0.6225,-0.80247 -0.59375,-0.75 z m 7.46875,4.71875 c 0.16919,0.20123 0.38999,0.48829 0.5,0.625 0.0582,0.0268 0.1266,0.0389 0.1875,0.0625 -0.21905,-0.23981 -0.45784,-0.45822 -0.6875,-0.6875 z m 4.84375,3.15625 c -0.15311,-0.10387 0.26942,0.25047 0.40625,0.375 0.064,0.0285 0.1782,0.0844 0.28125,0.125 -0.21329,-0.14964 -0.37688,-0.28927 -0.6875,-0.5 z m 1.46875,0.53125 c -0.70651,0.0511 1.35472,1.01541 2.34375,1.46875 -0.1966,-0.17978 -0.38547,-0.43737 -0.59375,-0.65625 -0.27802,-0.12143 -0.51987,-0.25214 -1.125,-0.625 -0.0493,-0.067 -0.0461,-0.0603 -0.0937,-0.125 -0.20864,-0.0301 -0.43519,-0.0695 -0.53125,-0.0625 z"
       id="path3763-9"
       inkscape:connector-curvature="0" />
    <path
       sodipodi:type="arc"
       style="fill:#008000;fill-opacity:1;stroke:none;display:inline"
       id="path4942-2-8"
       sodipodi:cx="167.5"
       sodipodi:cy="420.21933"
       sodipodi:rx="28.214285"
       sodipodi:ry="37.857143"
       d="M 191.8995,439.22853 A 28.214285,37.857143 0 1 1 174.4879,383.54167 L 167.5,420.21933 z"
       sodipodi:start="0.52605967"
       sodipodi:end="4.962666"
       transform="matrix(-1.0782722,0.0380095,0,0.93923251,467.25327,-237.79284)" />
    <path
       style="fill:#008000;display:inline"
       d="m 316.82687,162.76157 c -78.10884,0 -141.40625,61.41434 -141.40625,137.15625 0,75.74191 63.29741,137.125 141.40625,137.125 43.48188,0 82.3158,-19.0611 108.25,-49 -0.0932,-0.065 -0.15274,-0.11911 -0.25,-0.1875 -1.1841,-0.23788 -2.4194,-0.57033 -2.875,-1.0625 -0.26001,-0.28089 -0.48057,-0.59017 -0.71875,-0.875 -0.27349,-0.0621 -0.55614,-0.13464 -0.84375,-0.21875 -0.45402,-0.1047 -0.89966,-0.20981 -1.34375,-0.34375 -0.20423,-0.0616 -0.40106,-0.15145 -0.59375,-0.25 -0.009,-0.003 -0.022,0.003 -0.0312,0 -2.04841,-0.59398 -3.42077,-0.94467 -4.875,-2.21875 -1.78254,-0.63533 -2.09704,-0.8266 -2.96875,-1.4375 -1.79807,-0.36627 -2.04275,-0.77772 -3.84375,-1.90625 -0.0732,-0.0459 -0.18862,-0.0642 -0.25,-0.125 -0.12255,-0.12144 -0.22529,-0.24953 -0.34375,-0.375 -0.15588,-0.0578 -0.32467,-0.12818 -0.4375,-0.15625 -1.71203,-0.42586 -3.02064,-1.46614 -4.28125,-2.4375 -0.0611,-0.0422 -0.12655,-0.0827 -0.1875,-0.125 -0.48056,-0.14412 -0.99039,-0.33408 -1.375,-0.65625 -0.65417,-0.54795 -1.14497,-1.02268 -1.53125,-1.4375 -0.36526,0.025 -0.74966,-0.42244 -1.09375,-0.625 -1.53806,-0.90549 -2.43469,-1.73441 -3.375,-2.6875 -0.006,-0.004 -0.0842,-0.0862 -0.0937,-0.0937 -0.0152,-0.0402 -0.0781,-0.16441 -0.25,-0.375 -1.7538,-0.69573 -0.61748,-0.4842 -1.53125,-0.65625 l -1.96875,-2.125 c 0.0567,0.0869 0.14858,0.21642 0.1875,0.28125 0.0118,0.0197 0.002,0.0258 0,0.0312 -0.0171,-0.007 -0.0645,-0.0428 -0.0937,-0.0625 0.0921,0.13163 0.33788,0.49219 0.25,0.375 -0.10048,-0.13398 -0.20475,-0.27613 -0.3125,-0.40625 -0.1097,-0.0799 -0.23816,-0.19599 -0.3125,-0.25 -0.40783,-0.29628 -0.78668,-0.60056 -1.1875,-0.90625 0.38381,0.26086 0.82688,0.56393 1.1875,0.78125 -0.29357,-0.35668 -0.56679,-0.70549 -0.75,-1.125 -0.2313,-0.52964 0.55279,0.56909 1,1.25 0.0127,0.006 0.0191,0.0253 0.0312,0.0312 0.77215,0.37825 0.57415,-0.25319 -3.625,-4.78125 -0.38054,-0.41035 0.22018,0.48287 0.59375,1.3125 0.45321,0.4398 0.83109,1.0793 0.46875,0.9375 -0.0846,-0.0331 -0.14347,-0.10876 -0.21875,-0.15625 0.003,0.0291 2.7e-4,0.0672 0,0.0937 -0.004,0.38702 -0.76688,-0.56146 -0.9375,-1.03125 -0.11294,-0.14253 -0.21867,-0.28238 -0.34375,-0.40625 0.10657,0.10246 0.13676,0.14178 0.3125,0.3125 -0.005,-0.0301 -0.005,-0.0732 0,-0.0937 -0.90438,-0.89573 -2.14048,-2.11219 -2.5626,-3.0312 -0.11109,-0.24186 -0.19108,-0.49947 -0.28125,-0.75 -0.45289,-0.31148 -1.03674,-0.99862 -1.15625,-1.625 -0.0725,-0.38007 0.25455,0.0846 0.625,0.59375 -0.22176,-0.58883 -0.47267,-1.35242 -0.46875,-1.5 l -1.03125,-2.25 c 0.009,0.0577 -0.0506,-0.0629 -0.125,-0.15625 0.15472,0.63581 0.34231,1.28643 0.34375,1.9375 7.7e-4,0.3456 -0.32988,-0.60908 -0.4375,-0.9375 -0.20473,-0.62477 -0.39582,-1.2571 -0.5,-1.90625 -0.65277,-1.28065 -0.78355,-2.5523 -0.75,-3.9375 -0.54056,-0.95378 -1.08701,-2.05773 -1,-2.75 -0.15823,-0.69741 -0.31149,-1.39611 -0.46875,-2.09375 0.0535,-0.32511 0.10199,-0.64376 0.15625,-0.96875 -0.10656,-0.53456 -0.20581,-1.07661 -0.375,-1.59375 -0.10516,-0.32139 0.28262,1.2805 0.0937,1 -0.63609,-0.94465 -0.52926,-3.66282 -0.40625,-4.71875 0.20883,-1.79257 0.65784,-2.58952 1.21875,-2.75 0.42675,-3.55321 4.18423,-6.87276 11.25,-6.6875 2.66445,0.0699 5.28091,-0.43575 7.9375,-0.0625 0.73408,0.19923 1.46054,0.36993 2.1875,0.59375 0.054,0.0166 0.16646,0.039 0.25,0.0625 0.57695,0.0284 1.21134,0.14278 1.84375,0.28125 1.04062,-0.30153 2.27636,-0.45099 3.6875,-0.40625 0.80455,0.0255 0.36998,0.0231 1.3125,0.0312 2.02534,-0.0972 4.14157,-0.51189 5.9375,0.59375 0.0284,9.1e-4 0.0675,0.002 0.0937,0 1.8945,-0.13311 3.75869,-0.0595 5.34375,0.78125 l 2.375,0 c 1.41284,-1e-5 2.83717,-1.1e-4 4.25,0 1.43066,1.9e-4 2.8506,10e-4 4.28125,0 1.50733,1.1e-4 3.02393,0.008 4.53125,0 1.53616,-0.008 3.05877,-0.048 4.59375,0.0312 0.98271,0.0294 1.95365,-0.23797 2.9375,-0.21875 2.00943,0.0392 1.95777,0.16098 3.78125,0.78125 0.0177,0.009 0.0141,0.0225 0.0312,0.0312 0.91346,-0.10564 0.91757,-0.0972 2.59375,0 0.0893,0.02 2.33761,0.46823 2.59375,0.6875 0.14414,0.12339 -0.72332,-0.007 -0.5625,0.0937 0.28534,0.17868 1.60848,-0.11493 2,0 l 1.6875,0 c 2.718,-10.60483 4.1875,-21.67296 4.1875,-33.09375 0,-75.74191 -63.32866,-137.15625 -141.4375,-137.15625 z m 73.15625,204.875 -0.34375,-0.375 c 0.0709,0.10171 0.0998,0.14436 0.21875,0.3125 0.0461,0.026 0.0835,0.0413 0.125,0.0625 z m 13.40625,-18.625 c -10e-4,0.0312 0.002,0.0623 0,0.0937 0.0205,0.0101 0.0419,0.0213 0.0625,0.0312 0.008,-0.0294 0.0227,-0.0626 0.0312,-0.0937 -0.0265,-0.002 -0.0721,-0.0312 -0.0937,-0.0312 z m -20.34375,10 c 0.0437,0.15506 0.038,0.215 0.0625,0.3125 0.0269,0.0361 0.0681,0.0601 0.0937,0.0937 -0.0479,-0.13823 -0.10532,-0.26927 -0.15625,-0.40625 z m 8.53125,9.25 c -0.0951,0.002 1.03558,1.50528 1.5625,1.9375 0.0622,0.051 0.18378,0.10103 0.28125,0.15625 -0.57453,-0.69174 -1.51239,-1.79742 -1.71875,-2 -0.0695,-0.0682 -0.11141,-0.094 -0.125,-0.0937 z m 2.4375,2.375 c 0.63314,0.26978 1.26522,0.48087 0.875,0.34375 -0.4465,-0.1569 -0.56952,-0.22886 -0.875,-0.34375 z m 3.25,2.25 c 0.0197,0.036 0.1367,0.24168 0.28125,0.59375 0.0672,0.0516 0.20331,0.10014 0.3125,0.15625 -0.37546,-0.46758 -0.6225,-0.80247 -0.59375,-0.75 z m 7.46875,4.71875 c 0.16919,0.20123 0.38999,0.48829 0.5,0.625 0.0582,0.0268 0.1266,0.0389 0.1875,0.0625 -0.21905,-0.23981 -0.45784,-0.45822 -0.6875,-0.6875 z m 4.84375,3.15625 c -0.15311,-0.10387 0.26942,0.25047 0.40625,0.375 0.064,0.0285 0.1782,0.0844 0.28125,0.125 -0.21329,-0.14964 -0.37688,-0.28927 -0.6875,-0.5 z m 1.46875,0.53125 c -0.70651,0.0511 1.35472,1.01541 2.34375,1.46875 -0.1966,-0.17978 -0.38547,-0.43737 -0.59375,-0.65625 -0.27802,-0.12143 -0.51987,-0.25214 -1.125,-0.625 -0.0493,-0.067 -0.0461,-0.0603 -0.0937,-0.125 -0.20864,-0.0301 -0.43519,-0.0695 -0.53125,-0.0625 z"
       id="path2985-1"
       inkscape:connector-curvature="0" />
    <path
       style="opacity:0.47000002;fill:#00ff09;fill-opacity:0.95767194;display:inline"
       d="m 317.42062,162.94907 c -76.53088,0 -138.5625,58.85151 -138.5625,131.4375 0,72.58599 62.03162,131.4375 138.5625,131.4375 39.5144,0 75.13211,-15.73532 100.375,-40.90625 -1.71179,-0.4958 -2.93866,-0.88236 -4.25,-2.03125 -1.78254,-0.63533 -2.09704,-0.8266 -2.96875,-1.4375 -1.79807,-0.36627 -2.04275,-0.77772 -3.84375,-1.90625 -0.0732,-0.0459 -0.18862,-0.0642 -0.25,-0.125 -0.12255,-0.12144 -0.22529,-0.24953 -0.34375,-0.375 -0.15588,-0.0578 -0.32467,-0.12818 -0.4375,-0.15625 -1.71203,-0.42586 -3.02064,-1.46614 -4.28125,-2.4375 -0.0611,-0.0422 -0.12655,-0.0827 -0.1875,-0.125 -0.48056,-0.14412 -0.99039,-0.33408 -1.375,-0.65625 -0.65417,-0.54795 -1.14497,-1.02268 -1.53125,-1.4375 -0.36526,0.025 -0.74966,-0.42244 -1.09375,-0.625 -1.53806,-0.90549 -2.43469,-1.73441 -3.375,-2.6875 -0.006,-0.004 -0.0842,-0.0862 -0.0937,-0.0937 -0.0152,-0.0402 -0.0781,-0.16441 -0.25,-0.375 -1.7538,-0.69573 -0.61748,-0.4842 -1.53125,-0.65625 l -1.96875,-2.125 c 0.0567,0.0869 0.14858,0.21642 0.1875,0.28125 0.0118,0.0197 0.002,0.0258 0,0.0312 -0.0171,-0.007 -0.0645,-0.0428 -0.0937,-0.0625 0.0921,0.13163 0.33788,0.49219 0.25,0.375 -0.10048,-0.13398 -0.20475,-0.27613 -0.3125,-0.40625 -0.1097,-0.0799 -0.23816,-0.19599 -0.3125,-0.25 -0.40783,-0.29628 -0.78668,-0.60056 -1.1875,-0.90625 0.38381,0.26086 0.82688,0.56393 1.1875,0.78125 -0.29357,-0.35668 -0.56679,-0.70549 -0.75,-1.125 -0.2313,-0.52964 0.55279,0.56909 1,1.25 0.0127,0.006 0.0191,0.0253 0.0312,0.0312 0.77215,0.37825 0.57415,-0.25319 -3.625,-4.78125 -0.38054,-0.41035 0.22018,0.48287 0.59375,1.3125 0.45321,0.4398 0.83109,1.0793 0.46875,0.9375 -0.0846,-0.0331 -0.14347,-0.10876 -0.21875,-0.15625 0.003,0.0291 2.7e-4,0.0672 0,0.0937 -0.004,0.38702 -0.76688,-0.56146 -0.9375,-1.03125 -0.11294,-0.14253 -0.21867,-0.28238 -0.34375,-0.40625 0.10657,0.10246 0.13676,0.14178 0.3125,0.3125 -0.005,-0.0301 -0.005,-0.0732 0,-0.0937 -0.90433,-0.89573 -2.14043,-2.11219 -2.56255,-3.0312 -0.11109,-0.24186 -0.19108,-0.49947 -0.28125,-0.75 -0.45289,-0.31148 -1.03674,-0.99862 -1.15625,-1.625 -0.0725,-0.38007 0.25455,0.0846 0.625,0.59375 -0.22176,-0.58883 -0.47267,-1.35242 -0.46875,-1.5 l -1.03125,-2.25 c 0.009,0.0577 -0.0506,-0.0629 -0.125,-0.15625 0.15472,0.63581 0.34231,1.28643 0.34375,1.9375 7.7e-4,0.3456 -0.32988,-0.60908 -0.4375,-0.9375 -0.20473,-0.62477 -0.39582,-1.2571 -0.5,-1.90625 -0.65277,-1.28065 -0.78355,-2.5523 -0.75,-3.9375 -0.54056,-0.95378 -1.08701,-2.05773 -1,-2.75 -0.15823,-0.69741 -0.31149,-1.39611 -0.46875,-2.09375 0.0535,-0.32511 0.10199,-0.64376 0.15625,-0.96875 -0.10656,-0.53456 -0.20581,-1.07661 -0.375,-1.59375 -0.10516,-0.32139 0.28262,1.2805 0.0937,1 -0.63609,-0.94465 -0.52926,-3.66282 -0.40625,-4.71875 0.20883,-1.79257 0.65784,-2.58952 1.21875,-2.75 0.42675,-3.55321 4.18423,-6.87276 11.25,-6.6875 2.66445,0.0699 5.28091,-0.43575 7.9375,-0.0625 0.73408,0.19923 1.46054,0.36993 2.1875,0.59375 0.054,0.0166 0.16646,0.039 0.25,0.0625 0.57695,0.0284 1.21134,0.14278 1.84375,0.28125 1.04062,-0.30153 2.27636,-0.45099 3.6875,-0.40625 0.80455,0.0255 0.36998,0.0231 1.3125,0.0312 2.02534,-0.0972 4.14157,-0.51189 5.9375,0.59375 0.0284,9.1e-4 0.0675,0.002 0.0937,0 1.8945,-0.13311 3.75869,-0.0595 5.34375,0.78125 l 2.375,0 c 1.41284,-1e-5 2.83717,-1.1e-4 4.25,0 1.43066,1.9e-4 2.8506,10e-4 4.28125,0 1.50733,1.1e-4 3.02393,0.008 4.53125,0 1.53616,-0.008 3.05877,-0.048 4.59375,0.0312 0.98271,0.0294 1.95365,-0.23797 2.9375,-0.21875 2.00943,0.0392 1.95777,0.16098 3.78125,0.78125 0.0177,0.009 0.0141,0.0225 0.0312,0.0312 0.91346,-0.10564 0.91757,-0.0972 2.59375,0 0.0554,0.0124 0.9297,0.18863 1.65625,0.375 3.87465,-12.0974 5.96875,-24.92108 5.96875,-38.21875 0,-72.58599 -62.03162,-131.4375 -138.5625,-131.4375 z m 72.5625,204.6875 -0.34375,-0.375 c 0.0709,0.10171 0.0998,0.14436 0.21875,0.3125 0.0461,0.026 0.0835,0.0413 0.125,0.0625 z m 13.40625,-18.625 c -10e-4,0.0312 0.002,0.0623 0,0.0937 0.0205,0.0101 0.0419,0.0213 0.0625,0.0312 0.008,-0.0294 0.0227,-0.0626 0.0312,-0.0937 -0.0265,-0.002 -0.0721,-0.0312 -0.0937,-0.0312 z m -20.34375,10 c 0.0437,0.15506 0.038,0.215 0.0625,0.3125 0.0269,0.0361 0.0681,0.0601 0.0937,0.0937 -0.0479,-0.13823 -0.10532,-0.26927 -0.15625,-0.40625 z m 8.53125,9.25 c -0.0951,0.002 1.03558,1.50528 1.5625,1.9375 0.0622,0.051 0.18378,0.10103 0.28125,0.15625 -0.57453,-0.69174 -1.51239,-1.79742 -1.71875,-2 -0.0695,-0.0682 -0.11141,-0.094 -0.125,-0.0937 z m 2.4375,2.375 c 0.63314,0.26978 1.26522,0.48087 0.875,0.34375 -0.4465,-0.1569 -0.56952,-0.22886 -0.875,-0.34375 z m 3.25,2.25 c 0.0197,0.036 0.1367,0.24168 0.28125,0.59375 0.0672,0.0516 0.20331,0.10014 0.3125,0.15625 -0.37546,-0.46758 -0.6225,-0.80247 -0.59375,-0.75 z m 7.46875,4.71875 c 0.16919,0.20123 0.38999,0.48829 0.5,0.625 0.0582,0.0268 0.1266,0.0389 0.1875,0.0625 -0.21905,-0.23981 -0.45784,-0.45822 -0.6875,-0.6875 z m 4.84375,3.15625 c -0.15311,-0.10387 0.26942,0.25047 0.40625,0.375 0.064,0.0285 0.1782,0.0844 0.28125,0.125 -0.21329,-0.14964 -0.37688,-0.28927 -0.6875,-0.5 z m 1.46875,0.53125 c -0.70651,0.0511 1.35472,1.01541 2.34375,1.46875 -0.1966,-0.17978 -0.38547,-0.43737 -0.59375,-0.65625 -0.27802,-0.12143 -0.51987,-0.25214 -1.125,-0.625 -0.0493,-0.067 -0.0461,-0.0603 -0.0937,-0.125 -0.20864,-0.0301 -0.43519,-0.0695 -0.53125,-0.0625 z"
       id="path3763-7"
       inkscape:connector-curvature="0" />
    <path
       style="fill:#008000;fill-opacity:1;fill-rule:evenodd;stroke:none;display:inline"
       d="m 431.38937,270.19907 c -30.46089,0 -55.15625,26.27398 -55.15625,58.6875 0,5.72611 0.78173,11.27018 2.21875,16.5 0.0506,-0.30459 0.1054,-0.6017 0.15625,-0.90625 -0.10656,-0.53456 -0.20581,-1.07661 -0.375,-1.59375 -0.10516,-0.32139 0.28262,1.2805 0.0937,1 -0.63609,-0.94465 -0.52926,-3.66282 -0.40625,-4.71875 0.20883,-1.79257 0.65784,-2.58952 1.21875,-2.75 0.42675,-3.55321 4.18423,-6.87276 11.25,-6.6875 2.66445,0.0699 5.28091,-0.43575 7.9375,-0.0625 0.73408,0.19923 1.46054,0.36993 2.1875,0.59375 0.054,0.0166 0.16646,0.039 0.25,0.0625 0.57695,0.0284 1.21134,0.14278 1.84375,0.28125 1.04062,-0.30153 2.27636,-0.45099 3.6875,-0.40625 0.80455,0.0255 0.36998,0.0231 1.3125,0.0312 2.02534,-0.0972 4.14157,-0.51189 5.9375,0.59375 0.0284,9.1e-4 0.0675,0.002 0.0937,0 1.8945,-0.13311 3.75869,-0.0595 5.34375,0.78125 l 2.375,0 c 1.41284,-1e-5 2.83717,-1.1e-4 4.25,0 1.43066,1.9e-4 2.8506,10e-4 4.28125,0 1.50733,1.1e-4 3.02393,0.008 4.53125,0 1.53616,-0.008 3.05877,-0.048 4.59375,0.0312 0.98271,0.0294 1.95365,-0.23797 2.9375,-0.21875 2.00943,0.0392 1.95777,0.16098 3.78125,0.78125 0.0177,0.009 0.0141,0.0225 0.0312,0.0312 0.91346,-0.10564 0.91757,-0.0972 2.59375,0 0.0893,0.02 2.33761,0.46823 2.59375,0.6875 0.14414,0.12339 -0.72332,-0.007 -0.5625,0.0937 0.28534,0.17868 1.60848,-0.11493 2,0 l 5.0625,0 4.03125,0 5.125,0 4.96875,0 4.1875,0 6.75,0 c 1.48974,0 2.77674,0.19607 3.84375,0.5625 0.12357,-1.54243 0.1875,-3.11039 0.1875,-4.6875 0,-32.41352 -24.69536,-58.6875 -55.15625,-58.6875 z m -28,78.8125 c -10e-4,0.0312 0.002,0.0623 0,0.0937 0.0205,0.0101 0.0419,0.0213 0.0625,0.0312 0.008,-0.0294 0.0227,-0.0626 0.0312,-0.0937 -0.0265,-0.002 -0.0721,-0.0312 -0.0937,-0.0312 z m -16.78125,14.125 c 0.75558,1.11506 1.54936,2.19564 2.375,3.25 -0.22352,-0.51182 0.48106,0.50134 0.9375,1.1875 l 0.0625,0.0625 c 0.0127,0.006 0.0191,0.0253 0.0312,0.0312 l 0.0312,0.0312 c 0.7124,0.33213 0.44476,-0.35958 -3.4375,-4.5625 z m 3.4375,4.5625 c 8.11127,9.76203 19.22517,16.6357 31.8125,18.96875 -0.22198,-0.24296 -0.41917,-0.50464 -0.625,-0.75 -0.27349,-0.0621 -0.55614,-0.13464 -0.84375,-0.21875 -0.45402,-0.1047 -0.89966,-0.20981 -1.34375,-0.34375 -0.20423,-0.0616 -0.40106,-0.15145 -0.59375,-0.25 -0.009,-0.003 -0.022,0.003 -0.0312,0 -2.04841,-0.59398 -3.42077,-0.94467 -4.875,-2.21875 -1.78254,-0.63533 -2.09704,-0.8266 -2.96875,-1.4375 -1.79807,-0.36627 -2.04275,-0.77772 -3.84375,-1.90625 -0.0732,-0.0459 -0.18862,-0.0642 -0.25,-0.125 -0.12255,-0.12144 -0.22529,-0.24953 -0.34375,-0.375 -0.15588,-0.0578 -0.32467,-0.12818 -0.4375,-0.15625 -1.71203,-0.42586 -3.02064,-1.46614 -4.28125,-2.4375 -0.0611,-0.0422 -0.12655,-0.0827 -0.1875,-0.125 -0.48056,-0.14412 -0.99039,-0.33408 -1.375,-0.65625 -0.65417,-0.54795 -1.14497,-1.02268 -1.53125,-1.4375 -0.36526,0.025 -0.74966,-0.42244 -1.09375,-0.625 -1.53806,-0.90549 -2.43469,-1.73441 -3.375,-2.6875 -0.006,-0.004 -0.0842,-0.0862 -0.0937,-0.0937 -0.0152,-0.0402 -0.0781,-0.16441 -0.25,-0.375 -1.7538,-0.69573 -0.61748,-0.4842 -1.53125,-0.65625 l -1.9375,-2.09375 z m 1.53125,0.5625 c -0.0951,0.002 1.03558,1.50528 1.5625,1.9375 0.0622,0.051 0.18378,0.10103 0.28125,0.15625 -0.57453,-0.69174 -1.51239,-1.79742 -1.71875,-2 -0.0695,-0.0682 -0.11141,-0.094 -0.125,-0.0937 z m 2.4375,2.375 c 0.63314,0.26978 1.26522,0.48087 0.875,0.34375 -0.4465,-0.1569 -0.56952,-0.22886 -0.875,-0.34375 z m 3.25,2.25 c 0.0197,0.036 0.1367,0.24168 0.28125,0.59375 0.0672,0.0516 0.20331,0.10014 0.3125,0.15625 -0.37546,-0.46758 -0.6225,-0.80247 -0.59375,-0.75 z m 7.46875,4.71875 c 0.16919,0.20123 0.38999,0.48829 0.5,0.625 0.0582,0.0268 0.1266,0.0389 0.1875,0.0625 -0.21905,-0.23981 -0.45784,-0.45822 -0.6875,-0.6875 z m 4.84375,3.15625 c -0.15311,-0.10387 0.26942,0.25047 0.40625,0.375 0.064,0.0285 0.1782,0.0844 0.28125,0.125 -0.21329,-0.14964 -0.37688,-0.28927 -0.6875,-0.5 z m 1.46875,0.53125 c -0.70651,0.0511 1.35472,1.01541 2.34375,1.46875 -0.1966,-0.17978 -0.38547,-0.43737 -0.59375,-0.65625 -0.27802,-0.12143 -0.51987,-0.25214 -1.125,-0.625 -0.0493,-0.067 -0.0461,-0.0603 -0.0937,-0.125 -0.20864,-0.0301 -0.43519,-0.0695 -0.53125,-0.0625 z"
       id="path3525"
       inkscape:connector-curvature="0" />
    <path
       style="fill:#00b904;fill-opacity:1;fill-rule:evenodd;stroke:none;display:inline"
       d="m 425.73312,265.23032 c -30.46089,0 -55.15625,26.27398 -55.15625,58.6875 0,22.58628 12.00988,42.16449 29.59375,51.96875 -0.10818,-0.0639 -0.21635,-0.13821 -0.3125,-0.21875 -0.65417,-0.54795 -1.14497,-1.02268 -1.53125,-1.4375 -0.36526,0.025 -0.74966,-0.42244 -1.09375,-0.625 -1.53806,-0.90549 -2.43469,-1.73441 -3.375,-2.6875 -0.006,-0.004 -0.0842,-0.0862 -0.0937,-0.0937 -0.0152,-0.0402 -0.0781,-0.16441 -0.25,-0.375 -1.7538,-0.69573 -0.61748,-0.4842 -1.53125,-0.65625 l -1.96875,-2.125 c 0.0567,0.0869 0.14858,0.21642 0.1875,0.28125 0.0118,0.0197 0.002,0.0258 0,0.0312 -0.0171,-0.007 -0.0645,-0.0428 -0.0937,-0.0625 0.0921,0.13163 0.33788,0.49219 0.25,0.375 -0.10048,-0.13398 -0.20475,-0.27613 -0.3125,-0.40625 -0.1097,-0.0799 -0.23816,-0.19599 -0.3125,-0.25 -0.40783,-0.29628 -0.78668,-0.60056 -1.1875,-0.90625 0.38381,0.26086 0.82688,0.56393 1.1875,0.78125 -0.29357,-0.35668 -0.56679,-0.70549 -0.75,-1.125 -0.2313,-0.52964 0.55279,0.56909 1,1.25 0.0127,0.006 0.0191,0.0253 0.0312,0.0312 0.77215,0.37825 0.57415,-0.25319 -3.625,-4.78125 -0.38054,-0.41035 0.22018,0.48287 0.59375,1.3125 0.45321,0.4398 0.83109,1.0793 0.46875,0.9375 -0.0846,-0.0331 -0.14347,-0.10876 -0.21875,-0.15625 0.003,0.0291 2.7e-4,0.0672 0,0.0937 -0.004,0.38702 -0.76688,-0.56146 -0.9375,-1.03125 -0.11294,-0.14253 -0.21867,-0.28238 -0.34375,-0.40625 0.10657,0.10246 0.13676,0.14178 0.3125,0.3125 -0.005,-0.0301 -0.005,-0.0732 0,-0.0937 -0.90433,-0.89573 -2.14043,-2.11219 -2.56255,-3.0312 -0.11109,-0.24186 -0.19108,-0.49947 -0.28125,-0.75 -0.45289,-0.31148 -1.03674,-0.99862 -1.15625,-1.625 -0.0725,-0.38007 0.25455,0.0846 0.625,0.59375 -0.22176,-0.58883 -0.47267,-1.35242 -0.46875,-1.5 l -1.03125,-2.25 c 0.009,0.0577 -0.0506,-0.0629 -0.125,-0.15625 0.15472,0.63581 0.34231,1.28643 0.34375,1.9375 7.7e-4,0.3456 -0.32988,-0.60908 -0.4375,-0.9375 -0.20473,-0.62477 -0.39582,-1.2571 -0.5,-1.90625 -0.65277,-1.28065 -0.78355,-2.5523 -0.75,-3.9375 -0.54056,-0.95378 -1.08701,-2.05773 -1,-2.75 -0.15823,-0.69741 -0.31149,-1.39611 -0.46875,-2.09375 0.0535,-0.32511 0.10199,-0.64376 0.15625,-0.96875 -0.10656,-0.53456 -0.20581,-1.07661 -0.375,-1.59375 -0.10516,-0.32139 0.28262,1.2805 0.0937,1 -0.63609,-0.94465 -0.52926,-3.66282 -0.40625,-4.71875 0.20883,-1.79257 0.65784,-2.58952 1.21875,-2.75 0.42675,-3.55321 4.18423,-6.87276 11.25,-6.6875 2.66445,0.0699 5.28091,-0.43575 7.9375,-0.0625 0.73408,0.19923 1.46054,0.36993 2.1875,0.59375 0.054,0.0166 0.16646,0.039 0.25,0.0625 0.57695,0.0284 1.21134,0.14278 1.84375,0.28125 1.04062,-0.30153 2.27636,-0.45099 3.6875,-0.40625 0.80455,0.0255 0.36998,0.0231 1.3125,0.0312 2.02534,-0.0972 4.14157,-0.51189 5.9375,0.59375 0.0284,9.1e-4 0.0675,0.002 0.0937,0 1.8945,-0.13311 3.75869,-0.0595 5.34375,0.78125 l 2.375,0 c 1.41284,-1e-5 2.83717,-1.1e-4 4.25,0 1.43066,1.9e-4 2.8506,10e-4 4.28125,0 1.50733,1.1e-4 3.02393,0.008 4.53125,0 1.53616,-0.008 3.05877,-0.048 4.59375,0.0312 0.98271,0.0294 1.95365,-0.23797 2.9375,-0.21875 2.00943,0.0392 1.95777,0.16098 3.78125,0.78125 0.0177,0.009 0.0141,0.0225 0.0312,0.0312 0.91346,-0.10564 0.91757,-0.0972 2.59375,0 0.0893,0.02 2.33761,0.46823 2.59375,0.6875 0.14414,0.12339 -0.72332,-0.007 -0.5625,0.0937 0.28534,0.17868 1.60848,-0.11493 2,0 l 5.0625,0 4.03125,0 5.125,0 4.96875,0 4.1875,0 4.4375,0 c 0.44452,-2.96541 0.6875,-6.00174 0.6875,-9.09375 0,-32.41352 -24.69536,-58.6875 -55.15625,-58.6875 z m -35.75,102.40625 -0.34375,-0.375 c 0.0709,0.10171 0.0998,0.14436 0.21875,0.3125 0.0461,0.026 0.0835,0.0413 0.125,0.0625 z m 13.40625,-18.625 c -10e-4,0.0312 0.002,0.0623 0,0.0937 0.0205,0.0101 0.0419,0.0213 0.0625,0.0312 0.008,-0.0294 0.0227,-0.0626 0.0312,-0.0937 -0.0265,-0.002 -0.0721,-0.0312 -0.0937,-0.0312 z m -20.34375,10 c 0.0437,0.15506 0.038,0.215 0.0625,0.3125 0.0269,0.0361 0.0681,0.0601 0.0937,0.0937 -0.0479,-0.13823 -0.10532,-0.26927 -0.15625,-0.40625 z m 8.53125,9.25 c -0.0951,0.002 1.03558,1.50528 1.5625,1.9375 0.0622,0.051 0.18378,0.10103 0.28125,0.15625 -0.57453,-0.69174 -1.51239,-1.79742 -1.71875,-2 -0.0695,-0.0682 -0.11141,-0.094 -0.125,-0.0937 z m 2.4375,2.375 c 0.63314,0.26978 1.26522,0.48087 0.875,0.34375 -0.4465,-0.1569 -0.56952,-0.22886 -0.875,-0.34375 z m 3.25,2.25 c 0.0197,0.036 0.1367,0.24168 0.28125,0.59375 0.0672,0.0516 0.20331,0.10014 0.3125,0.15625 -0.37546,-0.46758 -0.6225,-0.80247 -0.59375,-0.75 z m 3.25,3.1875 c 0.44549,0.24415 0.89131,0.48722 1.34375,0.71875 -0.15018,-0.11563 -0.28908,-0.22938 -0.4375,-0.34375 -0.0611,-0.0422 -0.12655,-0.0827 -0.1875,-0.125 -0.24028,-0.0721 -0.48636,-0.1482 -0.71875,-0.25 z m 4.21875,1.53125 c 0.16919,0.20123 0.38999,0.48829 0.5,0.625 0.0582,0.0268 0.1266,0.0389 0.1875,0.0625 -0.21905,-0.23981 -0.45784,-0.45822 -0.6875,-0.6875 z"
       id="path3525-9"
       inkscape:connector-curvature="0" />
    <path
       sodipodi:type="arc"
       style="fill:#008000;fill-opacity:1;stroke:none;display:inline"
       id="path5967"
       sodipodi:cx="358"
       sodipodi:cy="279.86218"
       sodipodi:rx="7"
       sodipodi:ry="8.5"
       d="m 365,279.86218 a 7,8.5 0 1 1 -14,0 7,8.5 0 1 1 14,0 z"
       transform="translate(105.87344,26.77382)" />
    <path
       sodipodi:type="arc"
       style="fill:#008000;fill-opacity:1;display:inline"
       id="path3938-4"
       sodipodi:cx="310"
       sodipodi:cy="236.6479"
       sodipodi:rx="55.714283"
       sodipodi:ry="58.571426"
       d="m 365.71428,236.6479 a 55.714283,58.571426 0 1 1 -111.42856,0 55.714283,58.571426 0 1 1 111.42856,0 z"
       transform="matrix(1.3589744,0,0,1.2439025,-84.06338,-40.909808)" />
    <path
       sodipodi:type="arc"
       style="fill:#ffffff;fill-opacity:1;display:inline"
       id="path3938-1-0"
       sodipodi:cx="310"
       sodipodi:cy="236.6479"
       sodipodi:rx="55.714283"
       sodipodi:ry="58.571426"
       d="m 365.71428,236.6479 a 55.714283,58.571426 0 1 1 -111.42856,0 55.714283,58.571426 0 1 1 111.42856,0 z"
       transform="matrix(1.2564103,0,0,1.1219513,-50.839879,-9.19319)" />
    <path
       sodipodi:type="arc"
       style="fill:#00b904;fill-opacity:1"
       id="path3959-9"
       sodipodi:cx="327.14285"
       sodipodi:cy="206.6479"
       sodipodi:rx="30"
       sodipodi:ry="31.428572"
       d="m 357.14285,206.6479 a 30,31.428572 0 1 1 -60,0 30,31.428572 0 1 1 60,0 z"
       transform="matrix(1.3255813,0,0,1.2727273,-83.24049,-30.762528)" />
    <path
       sodipodi:type="arc"
       style="fill:#000000;fill-opacity:1"
       id="path3959-7-4"
       sodipodi:cx="327.14285"
       sodipodi:cy="206.6479"
       sodipodi:rx="30"
       sodipodi:ry="31.428572"
       d="m 357.14285,206.6479 a 30,31.428572 0 1 1 -60,0 30,31.428572 0 1 1 60,0 z"
       transform="matrix(1.1362126,0,0,1.0413223,-13.715089,13.42045)" />
    <path
       sodipodi:type="arc"
       style="fill:#ffffff;fill-opacity:1"
       id="path3979-8"
       sodipodi:cx="325.26913"
       sodipodi:cy="187.6716"
       sodipodi:rx="12.121831"
       sodipodi:ry="12.121831"
       d="m 337.39097,187.6716 a 12.121831,12.121831 0 1 1 -24.24367,0 12.121831,12.121831 0 1 1 24.24367,0 z"
       transform="translate(23.40216,22.39222)" />
    <path
       sodipodi:type="arc"
       style="fill:#00ff32;fill-opacity:0.54509804;stroke:none;display:inline"
       id="path4800-8"
       sodipodi:cx="216.07143"
       sodipodi:cy="151.29076"
       sodipodi:rx="32.5"
       sodipodi:ry="63.214287"
       d="m 248.57143,151.29076 a 32.5,63.214287 0 1 1 -65,0 32.5,63.214287 0 1 1 65,0 z"
       transform="matrix(-0.78945875,1.0995662,-0.71213472,-0.99186853,483.28705,116.04948)" />
    <path
       sodipodi:type="arc"
       style="fill:#00b904;fill-opacity:1;stroke:none;display:inline"
       id="path4800-7-2"
       sodipodi:cx="216.07143"
       sodipodi:cy="151.29076"
       sodipodi:rx="32.5"
       sodipodi:ry="63.214287"
       d="m 248.57143,151.29076 a 32.5,63.214287 0 1 1 -65,0 32.5,63.214287 0 1 1 65,0 z"
       transform="matrix(-0.78945875,1.0995662,-0.71213472,-0.99186853,487.57276,122.47805)" />
    <path
       sodipodi:type="arc"
       style="fill:#00ff32;fill-opacity:0.54509804;stroke:none;display:inline"
       id="path4800-1-4"
       sodipodi:cx="216.07143"
       sodipodi:cy="151.29076"
       sodipodi:rx="32.5"
       sodipodi:ry="63.214287"
       d="m 248.57143,151.29076 a 32.5,63.214287 0 1 1 -65,0 32.5,63.214287 0 1 1 65,0 z"
       transform="matrix(-0.35422019,0.46847031,-0.31952589,-0.42258569,316.9892,137.71261)" />
    <path
       sodipodi:type="arc"
       style="fill:#008000;fill-opacity:1;stroke:none;display:inline"
       id="path4942-2-5"
       sodipodi:cx="167.5"
       sodipodi:cy="420.21933"
       sodipodi:rx="28.214285"
       sodipodi:ry="37.857143"
       d="M 191.8995,439.22853 A 28.214285,37.857143 0 1 1 174.4879,383.54167 L 167.5,420.21933 z"
       sodipodi:start="0.52605967"
       sodipodi:end="4.962666"
       transform="matrix(1.0782722,0,0,0.93923251,84.15575,-231.29134)" />
  </g>
  <g
     inkscape:groupmode="layer"
     id="layer12"
     inkscape:label="mouth"
     style="display:inline"
     sodipodi:insensitive="true">
    <path
       sodipodi:type="arc"
       style="fill:#008000;fill-opacity:1;fill-rule:evenodd;stroke:none;display:inline"
       id="path3525-3-2"
       sodipodi:cx="369.10974"
       sodipodi:cy="302.12189"
       sodipodi:rx="55.154327"
       sodipodi:ry="58.689861"
       d="m 424.26407,302.12189 a 55.154327,58.689861 0 1 1 -109.9111,-7.03402 l 54.75677,7.03402 z"
       transform="translate(61.890262,30.912373)"
       sodipodi:start="0"
       sodipodi:end="3.2617321" />
    <path
       sodipodi:type="arc"
       style="fill:#00b904;fill-opacity:1;fill-rule:evenodd;stroke:none;display:inline"
       id="path3525-3-8-7"
       sodipodi:cx="369.10974"
       sodipodi:cy="302.12189"
       sodipodi:rx="55.154327"
       sodipodi:ry="58.689861"
       d="m 424.26407,302.12189 a 55.154327,58.689861 0 1 1 -109.9111,-7.03402 l 54.75677,7.03402 z"
       transform="matrix(0.94560716,0,0,0.86306347,77.96718,75.49276)"
       sodipodi:start="0"
       sodipodi:end="3.2617321" />
  </g>
  <g
     inkscape:groupmode="layer"
     id="layer9"
     inkscape:label="eye"
     sodipodi:insensitive="true">
    <path
       sodipodi:type="arc"
       style="fill:#008000;fill-opacity:1;display:inline"
       id="path3938-4-1"
       sodipodi:cx="310"
       sodipodi:cy="236.6479"
       sodipodi:rx="55.714283"
       sodipodi:ry="58.571426"
       d="m 365.71428,236.6479 a 55.714283,58.571426 0 1 1 -111.42856,0 55.714283,58.571426 0 1 1 111.42856,0 z"
       transform="matrix(1.3589744,0,0,1.2439025,-84.78206,-41.504737)" />
    <path
       sodipodi:type="arc"
       style="fill:#ffffff;fill-opacity:1;display:inline"
       id="path3938-1-0-7"
       sodipodi:cx="310"
       sodipodi:cy="236.6479"
       sodipodi:rx="55.714283"
       sodipodi:ry="58.571426"
       d="m 365.71428,236.6479 a 55.714283,58.571426 0 1 1 -111.42856,0 55.714283,58.571426 0 1 1 111.42856,0 z"
       transform="matrix(1.2564103,0,0,1.1219513,-51.558564,-9.788126)" />
  </g>
  <g
     inkscape:groupmode="layer"
     id="layer10"
     inkscape:label="pupil"
     style="display:inline"
     sodipodi:insensitive="true">
    <path
       sodipodi:type="arc"
       style="fill:#00b904;fill-opacity:1;display:inline"
       id="path3959-9-1"
       sodipodi:cx="327.14285"
       sodipodi:cy="206.6479"
       sodipodi:rx="30"
       sodipodi:ry="31.428572"
       d="m 357.14285,206.6479 a 30,31.428572 0 1 1 -60,0 30,31.428572 0 1 1 60,0 z"
       transform="matrix(1.3255813,0,0,1.2727273,-84.101309,-30.64425)" />
    <path
       sodipodi:type="arc"
       style="fill:#000000;fill-opacity:1;display:inline"
       id="path3959-7-4-1"
       sodipodi:cx="327.14285"
       sodipodi:cy="206.6479"
       sodipodi:rx="30"
       sodipodi:ry="31.428572"
       d="m 357.14285,206.6479 a 30,31.428572 0 1 1 -60,0 30,31.428572 0 1 1 60,0 z"
       transform="matrix(1.1362126,0,0,1.0413223,-14.575909,13.53873)" />
    <path
       sodipodi:type="arc"
       style="fill:#ffffff;fill-opacity:1;display:inline"
       id="path3979-8-5"
       sodipodi:cx="325.26913"
       sodipodi:cy="187.6716"
       sodipodi:rx="12.121831"
       sodipodi:ry="12.121831"
       d="m 337.39097,187.6716 a 12.121831,12.121831 0 1 1 -24.24367,0 12.121831,12.121831 0 1 1 24.24367,0 z"
       transform="translate(22.541341,22.5105)" />
  </g>
</svg>
