<?xml version="1.0" encoding="UTF-8" standalone="no"?>
<!-- Created with Inkscape (http://www.inkscape.org/) -->

<svg
   xmlns:dc="http://purl.org/dc/elements/1.1/"
   xmlns:cc="http://creativecommons.org/ns#"
   xmlns:rdf="http://www.w3.org/1999/02/22-rdf-syntax-ns#"
   xmlns:svg="http://www.w3.org/2000/svg"
   xmlns="http://www.w3.org/2000/svg"
   xmlns:sodipodi="http://sodipodi.sourceforge.net/DTD/sodipodi-0.dtd"
   xmlns:inkscape="http://www.inkscape.org/namespaces/inkscape"
   width="744.09448819"
   height="1052.3622047"
   id="svg4958"
   version="1.1"
   inkscape:version="0.48.5 r10040"
   sodipodi:docname="jetpack.svg">
  <defs
     id="defs4960" />
  <sodipodi:namedview
     id="base"
     pagecolor="#ffffff"
     bordercolor="#666666"
     borderopacity="1.0"
     inkscape:pageopacity="0.0"
     inkscape:pageshadow="2"
     inkscape:zoom="0.70710678"
     inkscape:cx="209"
     inkscape:cy="378.8658"
     inkscape:document-units="px"
     inkscape:current-layer="layer5"
     showgrid="false"
     inkscape:window-width="1920"
     inkscape:window-height="1017"
     inkscape:window-x="-8"
     inkscape:window-y="-8"
     inkscape:window-maximized="1" />
  <metadata
     id="metadata4963">
    <rdf:RDF>
      <cc:Work
         rdf:about="">
        <dc:format>image/svg+xml</dc:format>
        <dc:type
           rdf:resource="http://purl.org/dc/dcmitype/StillImage" />
        <dc:title></dc:title>
      </cc:Work>
    </rdf:RDF>
  </metadata>
  <g
     inkscape:groupmode="layer"
     id="layer5"
     inkscape:label="smoke">
    <path
       sodipodi:type="arc"
       style="fill:#1a1a1a;fill-opacity:1;stroke:none;stroke-opacity:1"
       id="path5569-45"
       sodipodi:cx="247.48737"
       sodipodi:cy="703.75854"
       sodipodi:rx="43.840622"
       sodipodi:ry="57.27565"
       d="m 203.65477,704.85436 a 43.840622,57.27565 0 1 1 0.0159,0.79525 l 43.81672,-1.89107 z"
       sodipodi:start="3.1224592"
       sodipodi:end="9.3917551"
       transform="matrix(0.74589876,0,0,0.5709357,117.33407,374.94681)" />
    <path
       sodipodi:type="arc"
       style="fill:#1a1a1a;fill-opacity:1;stroke:none;stroke-opacity:1"
       id="path5569-4-5"
       sodipodi:cx="247.48737"
       sodipodi:cy="703.75854"
       sodipodi:rx="43.840622"
       sodipodi:ry="57.27565"
       d="m 203.65477,704.85436 a 43.840622,57.27565 0 1 1 0.0159,0.79525 l 43.81672,-1.89107 z"
       sodipodi:start="3.1224592"
       sodipodi:end="9.3917551"
       transform="matrix(0.74589876,0,0,0.83234673,138.54728,187.31772)" />
    <path
       sodipodi:type="arc"
       style="fill:#1a1a1a;fill-opacity:1;stroke:none;stroke-opacity:1"
       id="path5569-8-1"
       sodipodi:cx="247.48737"
       sodipodi:cy="703.75854"
       sodipodi:rx="43.840622"
       sodipodi:ry="57.27565"
       d="m 203.65477,704.85436 a 43.840622,57.27565 0 1 1 0.0159,0.79525 l 43.81672,-1.89107 z"
       sodipodi:start="3.1224592"
       sodipodi:end="9.3917551"
       transform="matrix(0.61775561,0,0,0.53457898,197.13115,418.21083)" />
    <path
       sodipodi:type="arc"
       style="fill:#1a1a1a;fill-opacity:1;stroke:none;stroke-opacity:1"
       id="path5569-82-7"
       sodipodi:cx="247.48737"
       sodipodi:cy="703.75854"
       sodipodi:rx="43.840622"
       sodipodi:ry="57.27565"
       d="m 203.65477,704.85436 a 43.840622,57.27565 0 1 1 0.0159,0.79525 l 43.81672,-1.89107 z"
       sodipodi:start="3.1224592"
       sodipodi:end="9.3917551"
       transform="matrix(0.74589876,0,0,0.5709357,169.65998,363.6331)" />
    <path
       sodipodi:type="arc"
       style="fill:#b3b3b3;fill-opacity:1;stroke:#b3b3b3;stroke-opacity:1"
       id="path5569"
       sodipodi:cx="247.48737"
       sodipodi:cy="703.75854"
       sodipodi:rx="43.840622"
       sodipodi:ry="57.27565"
       d="m 203.65477,704.85436 a 43.840622,57.27565 0 1 1 0.0159,0.79525 l 43.81672,-1.89107 z"
       sodipodi:start="3.1224592"
       sodipodi:end="9.3917551"
       transform="matrix(0.74589876,0,0,0.5709357,108.84879,380.60366)" />
    <path
       sodipodi:type="arc"
       style="fill:#b3b3b3;fill-opacity:1;stroke:#b3b3b3;stroke-opacity:1"
       id="path5569-4"
       sodipodi:cx="247.48737"
       sodipodi:cy="703.75854"
       sodipodi:rx="43.840622"
       sodipodi:ry="57.27565"
       d="m 203.65477,704.85436 a 43.840622,57.27565 0 1 1 0.0159,0.79525 l 43.81672,-1.89107 z"
       sodipodi:start="3.1224592"
       sodipodi:end="9.3917551"
       transform="matrix(0.74589876,0,0,0.83234673,130.062,192.97457)" />
    <path
       sodipodi:type="arc"
       style="fill:#b3b3b3;fill-opacity:1;stroke:#b3b3b3;stroke-opacity:1"
       id="path5569-8"
       sodipodi:cx="247.48737"
       sodipodi:cy="703.75854"
       sodipodi:rx="43.840622"
       sodipodi:ry="57.27565"
       d="m 203.65477,704.85436 a 43.840622,57.27565 0 1 1 0.0159,0.79525 l 43.81672,-1.89107 z"
       sodipodi:start="3.1224592"
       sodipodi:end="9.3917551"
       transform="matrix(0.61775561,0,0,0.53457898,188.64587,423.86768)" />
    <path
       sodipodi:type="arc"
       style="fill:#b3b3b3;fill-opacity:1;stroke:#b3b3b3;stroke-opacity:1"
       id="path5569-82"
       sodipodi:cx="247.48737"
       sodipodi:cy="703.75854"
       sodipodi:rx="43.840622"
       sodipodi:ry="57.27565"
       d="m 203.65477,704.85436 a 43.840622,57.27565 0 1 1 0.0159,0.79525 l 43.81672,-1.89107 z"
       sodipodi:start="3.1224592"
       sodipodi:end="9.3917551"
       transform="matrix(0.74589876,0,0,0.5709357,161.1747,369.28995)" />
    <path
       sodipodi:type="arc"
       style="fill:#1a1a1a;fill-opacity:1;stroke:none"
       id="path5569-45-1"
       sodipodi:cx="247.48737"
       sodipodi:cy="703.75854"
       sodipodi:rx="43.840622"
       sodipodi:ry="57.27565"
       d="m 203.65477,704.85436 a 43.840622,57.27565 0 1 1 0.0159,0.79525 l 43.81672,-1.89107 z"
       sodipodi:start="3.1224592"
       sodipodi:end="9.3917551"
       transform="matrix(0.49573248,0,0,0.40275311,257.41801,353.53094)" />
    <path
       sodipodi:type="arc"
       style="fill:#1a1a1a;fill-opacity:1;stroke:none"
       id="path5569-4-5-1"
       sodipodi:cx="247.48737"
       sodipodi:cy="703.75854"
       sodipodi:rx="43.840622"
       sodipodi:ry="57.27565"
       d="m 203.65477,704.85436 a 43.840622,57.27565 0 1 1 0.0159,0.79525 l 43.81672,-1.89107 z"
       sodipodi:start="3.1224592"
       sodipodi:end="9.3917551"
       transform="matrix(0.49573248,0,0,0.58715935,271.51654,221.17243)" />
    <path
       sodipodi:type="arc"
       style="fill:#1a1a1a;fill-opacity:1;stroke:none"
       id="path5569-8-1-5"
       sodipodi:cx="247.48737"
       sodipodi:cy="703.75854"
       sodipodi:rx="43.840622"
       sodipodi:ry="57.27565"
       d="m 203.65477,704.85436 a 43.840622,57.27565 0 1 1 0.0159,0.79525 l 43.81672,-1.89107 z"
       sodipodi:start="3.1224592"
       sodipodi:end="9.3917551"
       transform="matrix(0.41056714,0,0,0.37710612,310.45202,384.05052)" />
    <path
       sodipodi:type="arc"
       style="fill:#1a1a1a;fill-opacity:1;stroke:none"
       id="path5569-82-7-2"
       sodipodi:cx="247.48737"
       sodipodi:cy="703.75854"
       sodipodi:rx="43.840622"
       sodipodi:ry="57.27565"
       d="m 203.65477,704.85436 a 43.840622,57.27565 0 1 1 0.0159,0.79525 l 43.81672,-1.89107 z"
       sodipodi:start="3.1224592"
       sodipodi:end="9.3917551"
       transform="matrix(0.49573248,0,0,0.40275311,292.19438,345.54995)" />
    <path
       sodipodi:type="arc"
       style="fill:#1a1a1a;fill-opacity:1;stroke:none;stroke-opacity:1"
       id="path5569-82-2-3"
       sodipodi:cx="247.48737"
       sodipodi:cy="703.75854"
       sodipodi:rx="43.840622"
       sodipodi:ry="57.27565"
       d="m 203.65477,704.85436 a 43.840622,57.27565 0 1 1 0.0159,0.79525 l 43.81672,-1.89107 z"
       sodipodi:start="3.1224592"
       sodipodi:end="9.3917551"
       transform="matrix(0.49573248,0,0,0.40275311,307.2334,370.11301)" />
    <path
       sodipodi:type="arc"
       style="fill:#1a1a1a;fill-opacity:1;stroke:none"
       id="path5569-82-2"
       sodipodi:cx="247.48737"
       sodipodi:cy="703.75854"
       sodipodi:rx="43.840622"
       sodipodi:ry="57.27565"
       d="m 203.65477,704.85436 a 43.840622,57.27565 0 1 1 0.0159,0.79525 l 43.81672,-1.89107 z"
       sodipodi:start="3.1224592"
       sodipodi:end="9.3917551"
       transform="matrix(0.49573248,0,0,0.40275311,253.49328,368.6988)" />
    <path
       sodipodi:type="arc"
       style="fill:#1a1a1a;fill-opacity:1;stroke:none"
       id="path5569-82-2-2"
       sodipodi:cx="247.48737"
       sodipodi:cy="703.75854"
       sodipodi:rx="43.840622"
       sodipodi:ry="57.27565"
       d="m 203.65477,704.85436 a 43.840622,57.27565 0 1 1 0.0159,0.79525 l 43.81672,-1.89107 z"
       sodipodi:start="3.1224592"
       sodipodi:end="9.3917551"
       transform="matrix(0.49573248,0,0,0.40275311,280.36334,381.42673)" />
    <path
       sodipodi:type="arc"
       style="fill:#b3b3b3;fill-opacity:1;stroke:none"
       id="path5569-45-1-2"
       sodipodi:cx="247.48737"
       sodipodi:cy="703.75854"
       sodipodi:rx="43.840622"
       sodipodi:ry="57.27565"
       d="m 203.65477,704.85436 a 43.840622,57.27565 0 1 1 0.0159,0.79525 l 43.81672,-1.89107 z"
       sodipodi:start="3.1224592"
       sodipodi:end="9.3917551"
       transform="matrix(0.49573248,0,0,0.40275311,257.41801,361.32244)" />
    <path
       sodipodi:type="arc"
       style="fill:#b3b3b3;fill-opacity:1;stroke:none"
       id="path5569-4-5-1-1"
       sodipodi:cx="247.48737"
       sodipodi:cy="703.75854"
       sodipodi:rx="43.840622"
       sodipodi:ry="57.27565"
       d="m 203.65477,704.85436 a 43.840622,57.27565 0 1 1 0.0159,0.79525 l 43.81672,-1.89107 z"
       sodipodi:start="3.1224592"
       sodipodi:end="9.3917551"
       transform="matrix(0.49573248,0,0,0.58715935,271.51654,228.96393)" />
    <path
       sodipodi:type="arc"
       style="fill:#b3b3b3;fill-opacity:1;stroke:none"
       id="path5569-8-1-5-6"
       sodipodi:cx="247.48737"
       sodipodi:cy="703.75854"
       sodipodi:rx="43.840622"
       sodipodi:ry="57.27565"
       d="m 203.65477,704.85436 a 43.840622,57.27565 0 1 1 0.0159,0.79525 l 43.81672,-1.89107 z"
       sodipodi:start="3.1224592"
       sodipodi:end="9.3917551"
       transform="matrix(0.41056714,0,0,0.37710612,310.45202,391.84202)" />
    <path
       sodipodi:type="arc"
       style="fill:#b3b3b3;fill-opacity:1;stroke:none"
       id="path5569-82-7-2-8"
       sodipodi:cx="247.48737"
       sodipodi:cy="703.75854"
       sodipodi:rx="43.840622"
       sodipodi:ry="57.27565"
       d="m 203.65477,704.85436 a 43.840622,57.27565 0 1 1 0.0159,0.79525 l 43.81672,-1.89107 z"
       sodipodi:start="3.1224592"
       sodipodi:end="9.3917551"
       transform="matrix(0.49573248,0,0,0.40275311,292.19438,353.34145)" />
    <path
       sodipodi:type="arc"
       style="fill:#b3b3b3;fill-opacity:1;stroke:none"
       id="path5569-82-2-3-5"
       sodipodi:cx="247.48737"
       sodipodi:cy="703.75854"
       sodipodi:rx="43.840622"
       sodipodi:ry="57.27565"
       d="m 203.65477,704.85436 a 43.840622,57.27565 0 1 1 0.0159,0.79525 l 43.81672,-1.89107 z"
       sodipodi:start="3.1224592"
       sodipodi:end="9.3917551"
       transform="matrix(0.49573248,0,0,0.40275311,307.2334,377.90451)" />
    <path
       sodipodi:type="arc"
       style="fill:#b3b3b3;fill-opacity:1;stroke:none"
       id="path5569-82-2-7"
       sodipodi:cx="247.48737"
       sodipodi:cy="703.75854"
       sodipodi:rx="43.840622"
       sodipodi:ry="57.27565"
       d="m 203.65477,704.85436 a 43.840622,57.27565 0 1 1 0.0159,0.79525 l 43.81672,-1.89107 z"
       sodipodi:start="3.1224592"
       sodipodi:end="9.3917551"
       transform="matrix(0.49573248,0,0,0.40275311,253.49328,376.4903)" />
    <path
       sodipodi:type="arc"
       style="fill:#b3b3b3;fill-opacity:1;stroke:none"
       id="path5569-82-2-2-6"
       sodipodi:cx="247.48737"
       sodipodi:cy="703.75854"
       sodipodi:rx="43.840622"
       sodipodi:ry="57.27565"
       d="m 203.65477,704.85436 a 43.840622,57.27565 0 1 1 0.0159,0.79525 l 43.81672,-1.89107 z"
       sodipodi:start="3.1224592"
       sodipodi:end="9.3917551"
       transform="matrix(0.49573248,0,0,0.40275311,280.36334,389.21823)" />
    <path
       sodipodi:type="arc"
       style="fill:#1a1a1a;fill-opacity:1;stroke:none"
       id="path5569-8-1-5-9"
       sodipodi:cx="247.48737"
       sodipodi:cy="703.75854"
       sodipodi:rx="43.840622"
       sodipodi:ry="57.27565"
       d="m 203.65477,704.85436 a 43.840622,57.27565 0 1 1 0.0159,0.79525 l 43.81672,-1.89107 z"
       sodipodi:start="3.1224592"
       sodipodi:end="9.3917551"
       transform="matrix(0.41056714,0,0,0.37710612,430.66017,475.28063)" />
    <path
       sodipodi:type="arc"
       style="fill:#1a1a1a;fill-opacity:1;stroke:none"
       id="path5569-82-7-2-2"
       sodipodi:cx="247.48737"
       sodipodi:cy="703.75854"
       sodipodi:rx="43.840622"
       sodipodi:ry="57.27565"
       d="m 203.65477,704.85436 a 43.840622,57.27565 0 1 1 0.0159,0.79525 l 43.81672,-1.89107 z"
       sodipodi:start="3.1224592"
       sodipodi:end="9.3917551"
       transform="matrix(0.49573248,0,0,0.40275311,412.40253,436.78006)" />
    <path
       sodipodi:type="arc"
       style="fill:#1a1a1a;fill-opacity:1;stroke:none"
       id="path5569-82-2-3-7"
       sodipodi:cx="247.48737"
       sodipodi:cy="703.75854"
       sodipodi:rx="43.840622"
       sodipodi:ry="57.27565"
       d="m 203.65477,704.85436 a 43.840622,57.27565 0 1 1 0.0159,0.79525 l 43.81672,-1.89107 z"
       sodipodi:start="3.1224592"
       sodipodi:end="9.3917551"
       transform="matrix(0.49573248,0,0,0.40275311,427.44155,461.34312)" />
    <path
       sodipodi:type="arc"
       style="fill:#1a1a1a;fill-opacity:1;stroke:none"
       id="path5569-82-2-3-7-4"
       sodipodi:cx="247.48737"
       sodipodi:cy="703.75854"
       sodipodi:rx="43.840622"
       sodipodi:ry="57.27565"
       d="m 203.65477,704.85436 a 43.840622,57.27565 0 1 1 0.0159,0.79525 l 43.81672,-1.89107 z"
       sodipodi:start="3.1224592"
       sodipodi:end="9.3917551"
       transform="matrix(0.49573248,0,0,0.60028324,387.84357,313.12388)" />
    <path
       sodipodi:type="arc"
       style="fill:#1a1a1a;fill-opacity:1;stroke:none"
       id="path5569-82-2-3-7-3"
       sodipodi:cx="247.48737"
       sodipodi:cy="703.75854"
       sodipodi:rx="43.840622"
       sodipodi:ry="57.27565"
       d="m 203.65477,704.85436 a 43.840622,57.27565 0 1 1 0.0159,0.79525 l 43.81672,-1.89107 z"
       sodipodi:start="3.1224592"
       sodipodi:end="9.3917551"
       transform="matrix(0.49573248,0,0,0.40275311,363.80194,452.1374)" />
    <path
       sodipodi:type="arc"
       style="fill:#b3b3b3;fill-opacity:1;stroke:none"
       id="path5569-8-1-5-9-1"
       sodipodi:cx="247.48737"
       sodipodi:cy="703.75854"
       sodipodi:rx="43.840622"
       sodipodi:ry="57.27565"
       d="m 203.65477,704.85436 a 43.840622,57.27565 0 1 1 0.0159,0.79525 l 43.81672,-1.89107 z"
       sodipodi:start="3.1224592"
       sodipodi:end="9.3917551"
       transform="matrix(0.41056714,0,0,0.37710612,422.88199,478.71667)" />
    <path
       sodipodi:type="arc"
       style="fill:#b3b3b3;fill-opacity:1;stroke:none"
       id="path5569-82-7-2-2-2"
       sodipodi:cx="247.48737"
       sodipodi:cy="703.75854"
       sodipodi:rx="43.840622"
       sodipodi:ry="57.27565"
       d="m 203.65477,704.85436 a 43.840622,57.27565 0 1 1 0.0159,0.79525 l 43.81672,-1.89107 z"
       sodipodi:start="3.1224592"
       sodipodi:end="9.3917551"
       transform="matrix(0.49573248,0,0,0.40275311,404.62435,440.2161)" />
    <path
       sodipodi:type="arc"
       style="fill:#b3b3b3;fill-opacity:1;stroke:none"
       id="path5569-82-2-3-7-33"
       sodipodi:cx="247.48737"
       sodipodi:cy="703.75854"
       sodipodi:rx="43.840622"
       sodipodi:ry="57.27565"
       d="m 203.65477,704.85436 a 43.840622,57.27565 0 1 1 0.0159,0.79525 l 43.81672,-1.89107 z"
       sodipodi:start="3.1224592"
       sodipodi:end="9.3917551"
       transform="matrix(0.49573248,0,0,0.40275311,419.66337,464.77916)" />
    <path
       sodipodi:type="arc"
       style="fill:#b3b3b3;fill-opacity:1;stroke:none"
       id="path5569-82-2-3-7-4-4"
       sodipodi:cx="247.48737"
       sodipodi:cy="703.75854"
       sodipodi:rx="43.840622"
       sodipodi:ry="57.27565"
       d="m 203.65477,704.85436 a 43.840622,57.27565 0 1 1 0.0159,0.79525 l 43.81672,-1.89107 z"
       sodipodi:start="3.1224592"
       sodipodi:end="9.3917551"
       transform="matrix(0.49573248,0,0,0.60028324,380.06539,316.55992)" />
    <path
       sodipodi:type="arc"
       style="fill:#b3b3b3;fill-opacity:1;stroke:none"
       id="path5569-82-2-3-7-3-1"
       sodipodi:cx="247.48737"
       sodipodi:cy="703.75854"
       sodipodi:rx="43.840622"
       sodipodi:ry="57.27565"
       d="m 203.65477,704.85436 a 43.840622,57.27565 0 1 1 0.0159,0.79525 l 43.81672,-1.89107 z"
       sodipodi:start="3.1224592"
       sodipodi:end="9.3917551"
       transform="matrix(0.49573248,0,0,0.40275311,356.02377,455.57344)" />
  </g>
  <g
     inkscape:groupmode="layer"
     id="layer4"
     inkscape:label="fire"
     style="display:inline"
     sodipodi:insensitive="true">
    <path
       style="fill:#00d8d0;fill-opacity:1;stroke:none"
       d="M 125.86501,499.40468 33.941125,608.29912 94.752309,565.87272 19.79899,676.18138 106.06602,588.50013 74.953319,683.25244 155.56349,517.78946 z"
       id="path5544"
       inkscape:connector-curvature="0" />
    <path
       style="fill:#ffff00;fill-opacity:1;stroke:none"
       d="M 130.15184,502.23311 60.251393,584.32276 106.49323,552.33979 49.497473,635.49554 115.09636,569.39737 91.437743,640.82604 152.73506,516.09241 z"
       id="path5544-9"
       inkscape:connector-curvature="0" />
  </g>
  <g
     inkscape:label="Layer 1"
     inkscape:groupmode="layer"
     id="layer1"
     sodipodi:insensitive="true">
    <path
       style="fill:none;stroke:none"
       d="m 125,465.36218 67,49 80,-110 -71,-48 z"
       id="path4968"
       inkscape:connector-curvature="0" />
    <path
       sodipodi:type="arc"
       style="fill:#000000;fill-opacity:1;stroke:none"
       id="path4970"
       sodipodi:cx="241.5"
       sodipodi:cy="323.86218"
       sodipodi:rx="41.5"
       sodipodi:ry="33.5"
       d="m 283,323.86218 a 41.5,33.5 0 0 1 -82.97737,1.10607 L 241.5,323.86218 z"
       sodipodi:start="0"
       sodipodi:end="3.1085698"
       transform="matrix(-0.84428479,-0.55629809,0.59117458,-0.79447599,248.30564,775.00283)" />
    <rect
       style="fill:#000000;fill-opacity:1;stroke:none"
       id="rect4972"
       width="54"
       height="29"
       x="381.43488"
       y="307.28836"
       ry="9"
       transform="matrix(0.81915205,0.57357643,-0.57357643,0.81915205,0,0)" />
    <path
       style="fill:#333333;fill-opacity:1;stroke:none"
       d="m 184.15378,507.31802 c -3.82043,-2.94573 -7.25872,-6.18193 -7.64065,-7.19157 -0.38193,-1.00963 -1.75612,-2.77614 -3.05377,-3.92556 -4.95619,-4.39006 -29.31579,-20.80273 -32.50006,-21.89743 -3.5565,-1.22267 -14.46627,-8.63499 -14.086,-9.57032 0.12468,-0.30669 16.60017,-24.00907 36.61218,-52.67196 l 36.38548,-52.11436 19.11452,12.72337 c 10.51299,6.99784 26.21271,17.16815 34.88828,22.60067 8.67557,5.43252 15.65057,10.18884 15.5,10.5696 -0.5704,1.44243 -77.29721,106.8421 -77.77376,106.83787 -0.275,-0.002 -3.6258,-2.41458 -7.44622,-5.36031 l 0,0 z"
       id="path4974"
       inkscape:connector-curvature="0" />
    <path
       sodipodi:type="arc"
       style="fill:#000000;fill-opacity:1;stroke:none"
       id="path5484"
       sodipodi:cx="-455.5"
       sodipodi:cy="484.36218"
       sodipodi:rx="1.5"
       sodipodi:ry="2"
       d="m -454,484.36218 a 1.5,2 0 0 1 -2.99918,0.066 l 1.49918,-0.066 z"
       sodipodi:start="0"
       sodipodi:end="3.1085698" />
    <path
       style="fill:#4d4d4d;fill-opacity:1;stroke:none"
       d="m 189.37518,504.14061 c -3.51714,-2.83662 -6.68247,-5.95296 -7.03408,-6.92521 -0.35161,-0.97222 -1.61671,-2.67331 -2.81134,-3.78015 -4.56273,-4.22746 -26.98848,-20.03226 -29.91996,-21.08641 -3.27417,-1.17737 -13.31783,-8.31516 -12.96774,-9.21585 0.11477,-0.29533 15.28231,-23.11982 33.70562,-50.72109 l 33.49693,-50.18417 17.59707,12.25213 c 9.6784,6.73866 24.13176,16.53227 32.11859,21.76358 7.98685,5.23132 14.40811,9.81146 14.2695,10.17813 -0.52512,1.38901 -71.16078,102.88489 -71.59951,102.88082 -0.25316,-0.002 -3.33796,-2.32516 -6.85508,-5.16178 l 0,0 z"
       id="path4974-4"
       inkscape:connector-curvature="0" />
    <path
       sodipodi:type="arc"
       style="fill:#1a1a1a;fill-opacity:1;stroke:none"
       id="path4970-0"
       sodipodi:cx="241.5"
       sodipodi:cy="323.86218"
       sodipodi:rx="41.5"
       sodipodi:ry="33.5"
       d="m 283,323.86218 a 41.5,33.5 0 0 1 -82.97737,1.10607 L 241.5,323.86218 z"
       sodipodi:start="0"
       sodipodi:end="3.1085698"
       transform="matrix(-0.75137764,-0.53016623,0.5261203,-0.75715582,250.44164,758.57087)" />
  </g>
  <g
     inkscape:groupmode="layer"
     id="layer3"
     inkscape:label="strap"
     sodipodi:insensitive="true">
    <path
       style="fill:#000000;fill-opacity:1;stroke:none"
       id="path5486"
       d="m 266.57245,404.37663 c 4.07171,-1.38627 8.38764,-1.81605 12.65088,-2.16139 6.12355,-0.34122 12.26191,-0.32111 18.39322,-0.33978 5.08917,-0.0183 10.16869,-0.16348 15.24159,0.28677 4.96507,1.22356 7.97323,4.46212 11.06789,8.30703 3.00715,4.44561 5.46637,9.27649 7.65669,14.17335 1.13959,2.52844 1.67433,5.21419 1.87287,7.9615 0.0529,1.38068 0.0346,0.69457 0.0557,2.05829 0,0 -13.21143,6.74472 -13.21143,6.74472 l 0,0 c -1.7e-4,-1.32807 0.005,-0.66189 -0.0149,-1.99852 -0.10338,-2.60087 -0.47657,-5.1619 -1.48151,-7.58734 -1.99154,-4.83787 -4.35289,-9.58342 -7.35604,-13.87471 -2.85325,-3.42404 -5.9298,-6.5663 -10.54031,-7.25949 -4.98744,-0.4283 -9.99265,-0.26095 -14.99374,-0.30268 -6.13711,0.0231 -12.28444,0.016 -18.40611,0.5076 -4.31153,0.44066 -8.61094,1.05813 -12.70571,2.54764 0,0 11.77086,-9.06299 11.77086,-9.06299 z"
       inkscape:connector-curvature="0" />
  </g>
</svg>
