<?xml version="1.0" encoding="UTF-8" standalone="no"?>
<!-- Created with Inkscape (http://www.inkscape.org/) -->

<svg
   xmlns:dc="http://purl.org/dc/elements/1.1/"
   xmlns:cc="http://creativecommons.org/ns#"
   xmlns:rdf="http://www.w3.org/1999/02/22-rdf-syntax-ns#"
   xmlns:svg="http://www.w3.org/2000/svg"
   xmlns="http://www.w3.org/2000/svg"
   xmlns:sodipodi="http://sodipodi.sourceforge.net/DTD/sodipodi-0.dtd"
   xmlns:inkscape="http://www.inkscape.org/namespaces/inkscape"
   width="210mm"
   height="297mm"
   viewBox="0 0 744.09448819 1052.3622047"
   id="svg4984"
   version="1.1"
   inkscape:version="0.91 r13725"
   sodipodi:docname="mountains1.svg">
  <defs
     id="defs4986" />
  <sodipodi:namedview
     id="base"
     pagecolor="#ffffff"
     bordercolor="#666666"
     borderopacity="1.0"
     inkscape:pageopacity="0.0"
     inkscape:pageshadow="2"
     inkscape:zoom="1"
     inkscape:cx="323.66864"
     inkscape:cy="424.03401"
     inkscape:document-units="px"
     inkscape:current-layer="g5607"
     showgrid="false"
     inkscape:window-width="1920"
     inkscape:window-height="1017"
     inkscape:window-x="-8"
     inkscape:window-y="-8"
     inkscape:window-maximized="1" />
  <metadata
     id="metadata4989">
    <rdf:RDF>
      <cc:Work
         rdf:about="">
        <dc:format>image/svg+xml</dc:format>
        <dc:type
           rdf:resource="http://purl.org/dc/dcmitype/StillImage" />
        <dc:title></dc:title>
      </cc:Work>
    </rdf:RDF>
  </metadata>
  <g
     inkscape:label="Layer 1"
     inkscape:groupmode="layer"
     id="layer1"
     sodipodi:insensitive="true">
    <path
       style="opacity:1;fill:#483737;fill-opacity:1;stroke:none;stroke-opacity:1"
       d="M 228.86133,406.84766 -5.265625,1060.7018 c -7.645697,4.4347 -5.160223,5.4806 34.951172,-8.4924 25.744683,-8.9682 353.648633,23.2502 449.548833,-0.4153 0.081,-2.5171 0.12443,-4.9625 0.0215,-7.1088 -0.0772,-1.6108 -0.1152,-2.979 -0.1543,-4.3573 l -11.67968,-29.5731 c -1.27274,-1.148 -2.53901,-2.3533 -3.81641,-3.4545 1.91589,1.4518 2.53758,1.9484 3.52148,2.7152 l -1.14453,-2.9082 c -1.90526,-2.5209 -4.25421,-5.8713 -6.625,-10.16078 -0.73338,-1.32705 -0.90044,-4.16824 -1.35156,-6.25486 -0.58916,-2.72494 -1.00886,-5.05444 -1.35352,-7.2002 L 228.86133,406.84766 Z m 242.16406,583.20293 c -0.1483,0.0167 -0.24597,0.0167 -0.39062,0.0267 -0.008,0.17353 -0.0136,0.33767 -0.0215,0.51036 0.18265,-0.10384 0.36925,-0.18826 0.55274,-0.28793 -0.0475,-0.0838 -0.0928,-0.16414 -0.14063,-0.24856 z M 394.92578,1477.73 c -12.26147,1.948 -24.51143,4.0411 -36.75781,6.147 14.23925,-2.0265 26.15131,-4.0359 36.75781,-6.147 z"
       id="path4734"
       inkscape:connector-curvature="0" />
    <path
       style="opacity:1;fill:#483737;fill-opacity:1;stroke:none;stroke-opacity:1"
       d="M 367.40372,562.84755 200.44169,1058.8582 c -5.45234,3.3641 -3.67989,4.1576 24.92459,-6.4423 18.35921,-6.8032 252.19605,17.6375 320.58498,-0.315 0.0578,-1.9095 0.0887,-3.7646 0.0153,-5.3927 -0.055,-1.222 -0.0822,-2.2599 -0.11004,-3.3055 l -8.32908,-22.434 c -0.90762,-0.8709 -1.81063,-1.7852 -2.72158,-2.6205 1.36627,1.1013 1.80961,1.478 2.51126,2.0597 l -0.8162,-2.2062 c -1.35869,-1.9123 -3.03378,-4.4539 -4.72446,-7.7079 -0.52299,-1.0067 -0.64212,-3.162 -0.96383,-4.7449 -0.42014,-2.0671 -0.71944,-3.8343 -0.96523,-5.462 L 367.40372,562.84755 Z m 172.69349,442.41495 c -0.10575,0.013 -0.1754,0.013 -0.27856,0.02 -0.006,0.1317 -0.01,0.2562 -0.0153,0.3872 0.13025,-0.079 0.26332,-0.1428 0.39417,-0.2185 -0.0339,-0.063 -0.0662,-0.1245 -0.10028,-0.1885 z m -54.26861,369.9513 c -8.74397,1.4778 -17.47974,3.0656 -26.21295,4.6631 10.15438,-1.5373 18.64918,-3.0616 26.21295,-4.6631 z"
       id="path4734-2"
       inkscape:connector-curvature="0" />
    <path
       style="opacity:1;fill:#483737;fill-opacity:1;stroke:none;stroke-opacity:1"
       d="M 517.59623,482.84755 303.139,1059.6012 c -7.00336,3.9118 -4.72669,4.8344 32.01482,-7.491 23.5818,-7.9107 323.93751,20.5086 411.78084,-0.3663 0.0742,-2.2203 0.11398,-4.3774 0.0197,-6.2706 -0.0707,-1.4208 -0.10553,-2.6277 -0.14134,-3.8435 l -10.69843,-26.0859 c -1.16582,-1.0126 -2.3257,-2.0758 -3.49579,-3.0472 1.75493,1.2807 2.32439,1.7187 3.22563,2.3951 l -1.04837,-2.5653 c -1.74519,-2.2236 -3.8968,-5.179 -6.06841,-8.9627 -0.67177,-1.1705 -0.8248,-3.67668 -1.23802,-5.51726 -0.53966,-2.40362 -0.9241,-4.45843 -1.2398,-6.35117 L 517.59623,482.84755 Z m 221.81911,514.43343 c -0.13585,0.0147 -0.22531,0.0147 -0.35781,0.0236 -0.007,0.15307 -0.0125,0.29785 -0.0197,0.45018 0.1673,-0.0916 0.33823,-0.16606 0.5063,-0.25398 -0.0435,-0.0739 -0.085,-0.14478 -0.12881,-0.21925 z m -69.70625,430.17372 c -11.23135,1.7183 -22.45215,3.5646 -33.66967,5.4222 13.04296,-1.7875 23.95425,-3.56 33.66967,-5.4222 z"
       id="path4734-7"
       inkscape:connector-curvature="0" />
    <path
       style="opacity:1;fill:#483737;fill-opacity:1;stroke:none;stroke-opacity:1"
       d="M 114.19318,331.84755 -117.4553,1082.229 c -7.56476,5.0895 -5.1056,6.2897 34.581174,-9.746 25.472149,-10.2923 349.904896,26.6825 444.789896,-0.4766 0.0801,-2.8888 0.12311,-5.6951 0.0213,-8.1583 -0.0764,-1.8487 -0.11398,-3.4188 -0.15267,-5.0006 l -11.55603,-33.9389 c -1.25927,-1.3175 -2.51214,-2.7008 -3.77601,-3.9645 1.8956,1.6661 2.51071,2.2361 3.4842,3.116 l -1.13242,-3.3375 c -1.88509,-2.8931 -4.20917,-6.7381 -6.55486,-11.6608 -0.72562,-1.523 -0.89091,-4.7836 -1.33726,-7.1782 -0.58292,-3.12726 -0.99818,-5.80069 -1.33919,-8.26314 L 114.19318,331.84755 Z m 239.6005,669.30015 c -0.14673,0.019 -0.24337,0.019 -0.38649,0.031 -0.008,0.1992 -0.0135,0.3875 -0.0213,0.5857 0.18072,-0.1191 0.36534,-0.216 0.54689,-0.3304 -0.047,-0.097 -0.0918,-0.1883 -0.13914,-0.2853 z m -75.29402,559.6747 c -12.13167,2.2356 -24.25195,4.6377 -36.36869,7.0545 14.08851,-2.3256 25.87447,-4.6317 36.36869,-7.0545 z"
       id="path4734-26"
       inkscape:connector-curvature="0" />
    <path
       style="opacity:1;fill:#483737;fill-opacity:1;stroke:none;stroke-opacity:1"
       d="M 292.26895,463.55775 127.07439,958.64733 c -5.39462,3.35786 -3.64094,4.14988 24.66073,-6.43033 18.16486,-6.79057 249.5263,17.60474 317.19126,-0.31442 0.0572,-1.90595 0.0878,-3.75761 0.0151,-5.38269 -0.0544,-1.21973 -0.0813,-2.2557 -0.10888,-3.29936 l -8.2409,-22.39234 c -0.89802,-0.86928 -1.79147,-1.78188 -2.69277,-2.61563 1.3518,1.09925 1.79045,1.47525 2.48467,2.05587 l -0.80756,-2.2021 c -1.3443,-1.90875 -3.00166,-4.44563 -4.67444,-7.69359 -0.51746,-1.00483 -0.63533,-3.15612 -0.95363,-4.73609 -0.41569,-2.06326 -0.71183,-3.82718 -0.95501,-5.45185 L 292.26895,463.55775 Z M 463.1343,905.15116 c -0.10463,0.013 -0.17354,0.013 -0.27561,0.02 -0.006,0.13146 -0.01,0.25572 -0.0151,0.38648 0.12887,-0.0788 0.26054,-0.14253 0.39,-0.21809 -0.0335,-0.0629 -0.0655,-0.12427 -0.0992,-0.18815 z m -53.69412,369.26434 c -8.6514,1.475 -17.2947,3.0599 -25.93546,4.6544 10.04689,-1.5344 18.45176,-3.0559 25.93546,-4.6544 z"
       id="path4734-2-1"
       inkscape:connector-curvature="0" />
    <path
       style="opacity:1;fill:#483737;fill-opacity:1;stroke:none;stroke-opacity:1"
       d="M 440.87152,383.70631 228.68454,959.38895 c -6.92922,3.90454 -4.67665,4.82543 31.67591,-7.47709 23.33216,-7.89601 320.5083,20.47052 407.42171,-0.36562 0.0734,-2.21617 0.11278,-4.36927 0.0195,-6.25895 -0.0699,-1.41816 -0.10441,-2.62282 -0.13984,-3.83636 l -10.58518,-26.03746 c -1.15347,-1.01072 -2.30108,-2.07195 -3.45878,-3.04155 1.73635,1.27833 2.29979,1.71551 3.19148,2.39066 l -1.03727,-2.56054 c -1.72671,-2.21947 -3.85555,-5.16938 -6.00417,-8.94606 -0.66466,-1.16832 -0.81607,-3.66985 -1.22491,-5.50701 -0.53395,-2.39916 -0.91432,-4.45015 -1.22668,-6.33938 L 440.87152,383.70631 Z m 219.47092,513.47815 c -0.13441,0.0147 -0.22292,0.0147 -0.35402,0.0236 -0.007,0.15278 -0.0124,0.29729 -0.0195,0.44934 0.16553,-0.0914 0.33465,-0.16575 0.50094,-0.25351 -0.043,-0.0738 -0.0841,-0.14451 -0.12745,-0.21884 z m -68.96833,429.37494 c -11.11246,1.7151 -22.21447,3.558 -33.31325,5.4121 12.90489,-1.7842 23.70067,-3.5534 33.31325,-5.4121 z"
       id="path4734-7-7"
       inkscape:connector-curvature="0" />
  </g>
  <g
     id="g5607"
     inkscape:groupmode="layer"
     inkscape:label="Layer 1 copy">
    <path
       inkscape:connector-curvature="0"
       id="path5609"
       d="M 228.86133,406.84766 -5.265625,1060.7018 c -7.645697,4.4347 -5.160223,5.4806 34.951172,-8.4924 25.744683,-8.9682 353.648633,23.2502 449.548833,-0.4153 0.081,-2.5171 0.12443,-4.9625 0.0215,-7.1088 -0.0772,-1.6108 -0.1152,-2.979 -0.1543,-4.3573 l -11.67968,-29.5731 c -1.27274,-1.148 -2.53901,-2.3533 -3.81641,-3.4545 1.91589,1.4518 2.53758,1.9484 3.52148,2.7152 l -1.14453,-2.9082 c -1.90526,-2.5209 -4.25421,-5.8713 -6.625,-10.16078 -0.73338,-1.32705 -0.90044,-4.16824 -1.35156,-6.25486 -0.58916,-2.72494 -1.00886,-5.05444 -1.35352,-7.2002 L 228.86133,406.84766 Z m 242.16406,583.20293 c -0.1483,0.0167 -0.24597,0.0167 -0.39062,0.0267 -0.008,0.17353 -0.0136,0.33767 -0.0215,0.51036 0.18265,-0.10384 0.36925,-0.18826 0.55274,-0.28793 -0.0475,-0.0838 -0.0928,-0.16414 -0.14063,-0.24856 z M 394.92578,1477.73 c -12.26147,1.948 -24.51143,4.0411 -36.75781,6.147 14.23925,-2.0265 26.15131,-4.0359 36.75781,-6.147 z"
       style="opacity:1;fill:#483737;fill-opacity:1;stroke:none;stroke-opacity:1" />
    <path
       inkscape:connector-curvature="0"
       id="path5611"
       d="M 367.40372,562.84755 200.44169,1058.8582 c -5.45234,3.3641 -3.67989,4.1576 24.92459,-6.4423 18.35921,-6.8032 252.19605,17.6375 320.58498,-0.315 0.0578,-1.9095 0.0887,-3.7646 0.0153,-5.3927 -0.055,-1.222 -0.0822,-2.2599 -0.11004,-3.3055 l -8.32908,-22.434 c -0.90762,-0.8709 -1.81063,-1.7852 -2.72158,-2.6205 1.36627,1.1013 1.80961,1.478 2.51126,2.0597 l -0.8162,-2.2062 c -1.35869,-1.9123 -3.03378,-4.4539 -4.72446,-7.7079 -0.52299,-1.0067 -0.64212,-3.162 -0.96383,-4.7449 -0.42014,-2.0671 -0.71944,-3.8343 -0.96523,-5.462 L 367.40372,562.84755 Z m 172.69349,442.41495 c -0.10575,0.013 -0.1754,0.013 -0.27856,0.02 -0.006,0.1317 -0.01,0.2562 -0.0153,0.3872 0.13025,-0.079 0.26332,-0.1428 0.39417,-0.2185 -0.0339,-0.063 -0.0662,-0.1245 -0.10028,-0.1885 z m -54.26861,369.9513 c -8.74397,1.4778 -17.47974,3.0656 -26.21295,4.6631 10.15438,-1.5373 18.64918,-3.0616 26.21295,-4.6631 z"
       style="opacity:1;fill:#483737;fill-opacity:1;stroke:none;stroke-opacity:1" />
    <path
       inkscape:connector-curvature="0"
       id="path5613"
       d="M 517.59623,482.84755 303.139,1059.6012 c -7.00336,3.9118 -4.72669,4.8344 32.01482,-7.491 23.5818,-7.9107 323.93751,20.5086 411.78084,-0.3663 0.0742,-2.2203 0.11398,-4.3774 0.0197,-6.2706 -0.0707,-1.4208 -0.10553,-2.6277 -0.14134,-3.8435 l -10.69843,-26.0859 c -1.16582,-1.0126 -2.3257,-2.0758 -3.49579,-3.0472 1.75493,1.2807 2.32439,1.7187 3.22563,2.3951 l -1.04837,-2.5653 c -1.74519,-2.2236 -3.8968,-5.179 -6.06841,-8.9627 -0.67177,-1.1705 -0.8248,-3.67668 -1.23802,-5.51726 -0.53966,-2.40362 -0.9241,-4.45843 -1.2398,-6.35117 L 517.59623,482.84755 Z m 221.81911,514.43343 c -0.13585,0.0147 -0.22531,0.0147 -0.35781,0.0236 -0.007,0.15307 -0.0125,0.29785 -0.0197,0.45018 0.1673,-0.0916 0.33823,-0.16606 0.5063,-0.25398 -0.0435,-0.0739 -0.085,-0.14478 -0.12881,-0.21925 z m -69.70625,430.17372 c -11.23135,1.7183 -22.45215,3.5646 -33.66967,5.4222 13.04296,-1.7875 23.95425,-3.56 33.66967,-5.4222 z"
       style="opacity:1;fill:#483737;fill-opacity:1;stroke:none;stroke-opacity:1" />
    <path
       inkscape:connector-curvature="0"
       id="path5615"
       d="M 114.19318,331.84755 -117.4553,1082.229 c -7.56476,5.0895 -5.1056,6.2897 34.581174,-9.746 25.472149,-10.2923 349.904896,26.6825 444.789896,-0.4766 0.0801,-2.8888 0.12311,-5.6951 0.0213,-8.1583 -0.0764,-1.8487 -0.11398,-3.4188 -0.15267,-5.0006 l -11.55603,-33.9389 c -1.25927,-1.3175 -2.51214,-2.7008 -3.77601,-3.9645 1.8956,1.6661 2.51071,2.2361 3.4842,3.116 l -1.13242,-3.3375 c -1.88509,-2.8931 -4.20917,-6.7381 -6.55486,-11.6608 -0.72562,-1.523 -0.89091,-4.7836 -1.33726,-7.1782 -0.58292,-3.12726 -0.99818,-5.80069 -1.33919,-8.26314 L 114.19318,331.84755 Z m 239.6005,669.30015 c -0.14673,0.019 -0.24337,0.019 -0.38649,0.031 -0.008,0.1992 -0.0135,0.3875 -0.0213,0.5857 0.18072,-0.1191 0.36534,-0.216 0.54689,-0.3304 -0.047,-0.097 -0.0918,-0.1883 -0.13914,-0.2853 z m -75.29402,559.6747 c -12.13167,2.2356 -24.25195,4.6377 -36.36869,7.0545 14.08851,-2.3256 25.87447,-4.6317 36.36869,-7.0545 z"
       style="opacity:1;fill:#483737;fill-opacity:1;stroke:none;stroke-opacity:1" />
    <path
       inkscape:connector-curvature="0"
       id="path5617"
       d="M 292.26895,463.55775 127.07439,958.64733 c -5.39462,3.35786 -3.64094,4.14988 24.66073,-6.43033 18.16486,-6.79057 249.5263,17.60474 317.19126,-0.31442 0.0572,-1.90595 0.0878,-3.75761 0.0151,-5.38269 -0.0544,-1.21973 -0.0813,-2.2557 -0.10888,-3.29936 l -8.2409,-22.39234 c -0.89802,-0.86928 -1.79147,-1.78188 -2.69277,-2.61563 1.3518,1.09925 1.79045,1.47525 2.48467,2.05587 l -0.80756,-2.2021 c -1.3443,-1.90875 -3.00166,-4.44563 -4.67444,-7.69359 -0.51746,-1.00483 -0.63533,-3.15612 -0.95363,-4.73609 -0.41569,-2.06326 -0.71183,-3.82718 -0.95501,-5.45185 L 292.26895,463.55775 Z M 463.1343,905.15116 c -0.10463,0.013 -0.17354,0.013 -0.27561,0.02 -0.006,0.13146 -0.01,0.25572 -0.0151,0.38648 0.12887,-0.0788 0.26054,-0.14253 0.39,-0.21809 -0.0335,-0.0629 -0.0655,-0.12427 -0.0992,-0.18815 z m -53.69412,369.26434 c -8.6514,1.475 -17.2947,3.0599 -25.93546,4.6544 10.04689,-1.5344 18.45176,-3.0559 25.93546,-4.6544 z"
       style="opacity:1;fill:#483737;fill-opacity:1;stroke:none;stroke-opacity:1" />
    <path
       inkscape:connector-curvature="0"
       id="path5619"
       d="M 440.87152,383.70631 228.68454,959.38895 c -6.92922,3.90454 -4.67665,4.82543 31.67591,-7.47709 23.33216,-7.89601 320.5083,20.47052 407.42171,-0.36562 0.0734,-2.21617 0.11278,-4.36927 0.0195,-6.25895 -0.0699,-1.41816 -0.10441,-2.62282 -0.13984,-3.83636 l -10.58518,-26.03746 c -1.15347,-1.01072 -2.30108,-2.07195 -3.45878,-3.04155 1.73635,1.27833 2.29979,1.71551 3.19148,2.39066 l -1.03727,-2.56054 c -1.72671,-2.21947 -3.85555,-5.16938 -6.00417,-8.94606 -0.66466,-1.16832 -0.81607,-3.66985 -1.22491,-5.50701 -0.53395,-2.39916 -0.91432,-4.45015 -1.22668,-6.33938 L 440.87152,383.70631 Z m 219.47092,513.47815 c -0.13441,0.0147 -0.22292,0.0147 -0.35402,0.0236 -0.007,0.15278 -0.0124,0.29729 -0.0195,0.44934 0.16553,-0.0914 0.33465,-0.16575 0.50094,-0.25351 -0.043,-0.0738 -0.0841,-0.14451 -0.12745,-0.21884 z m -68.96833,429.37494 c -11.11246,1.7151 -22.21447,3.558 -33.31325,5.4121 12.90489,-1.7842 23.70067,-3.5534 33.31325,-5.4121 z"
       style="opacity:1;fill:#483737;fill-opacity:1;stroke:none;stroke-opacity:1" />
    <path
       inkscape:connector-curvature="0"
       id="path5609-7"
       d="M 242.53135,444.22148 13.260309,1062.1039 c -7.487119,4.1907 -5.0531965,5.1791 34.226271,-8.0251 25.210723,-8.4749 346.31377,21.9711 440.22495,-0.3925 0.0793,-2.3786 0.12184,-4.6895 0.021,-6.7177 -0.0755,-1.5222 -0.1128,-2.8151 -0.15109,-4.1176 l -11.43745,-27.9462 c -1.24633,-1.0848 -2.48633,-2.2238 -3.73724,-3.2645 1.87616,1.372 2.48494,1.8413 3.44844,2.5659 l -1.1208,-2.7482 c -1.86574,-2.3822 -4.16597,-5.5483 -6.48759,-9.6017 -0.71817,-1.2541 -0.88176,-3.939 -1.32353,-5.91082 -0.57693,-2.57503 -0.98794,-4.77637 -1.32544,-6.80408 L 242.53135,444.22148 Z M 479.6728,995.33959 c -0.14523,0.0158 -0.24086,0.0158 -0.38252,0.0252 -0.007,0.16398 -0.0133,0.3191 -0.021,0.48228 0.17886,-0.0981 0.36159,-0.1779 0.54127,-0.27208 -0.0465,-0.0792 -0.0908,-0.15511 -0.13771,-0.23489 z m -74.52126,460.84981 c -12.00716,1.8409 -24.00306,3.8188 -35.99544,5.8089 13.94392,-1.9151 25.60892,-3.8139 35.99544,-5.8089 z"
       style="opacity:1;fill:#6c5353;fill-opacity:1;stroke:none;stroke-opacity:1" />
    <path
       inkscape:connector-curvature="0"
       id="path5611-5"
       d="M 378.2003,591.63907 214.70115,1060.3617 c -5.33926,3.1791 -3.60357,3.9289 24.40764,-6.0879 17.97843,-6.4288 246.96536,16.6673 313.93588,-0.2976 0.0566,-1.8045 0.0869,-3.5576 0.015,-5.0961 -0.0539,-1.1547 -0.0804,-2.1355 -0.10775,-3.1236 l -8.15634,-21.1997 c -0.88879,-0.823 -1.77307,-1.6871 -2.66513,-2.4764 1.33793,1.0407 1.77207,1.3967 2.45917,1.9464 l -0.79926,-2.0848 c -1.33052,-1.8071 -2.97086,-4.2089 -4.62648,-7.2839 -0.51213,-0.9513 -0.6288,-2.9881 -0.94384,-4.4838 -0.41142,-1.9534 -0.70451,-3.6234 -0.94521,-5.1616 L 378.2003,591.63907 Z m 169.11174,418.07553 c -0.10353,0.012 -0.17176,0.012 -0.27279,0.019 -0.005,0.1244 -0.009,0.2421 -0.0149,0.3658 0.12755,-0.074 0.25786,-0.1349 0.386,-0.2064 -0.0332,-0.06 -0.0648,-0.1177 -0.0982,-0.1782 z m -53.14306,349.5986 c -8.56261,1.3964 -17.11719,2.8969 -25.66928,4.4065 9.94378,-1.4528 18.2624,-2.8932 25.66928,-4.4065 z"
       style="opacity:1;fill:#6c5353;fill-opacity:1;stroke:none;stroke-opacity:1" />
    <path
       inkscape:connector-curvature="0"
       id="path5613-5"
       d="M 525.27774,516.04026 315.26846,1061.0638 c -6.8581,3.6967 -4.62865,4.5685 31.35082,-7.0788 23.0927,-7.4755 317.21887,19.3803 403.24028,-0.3461 0.0726,-2.0981 0.11163,-4.1367 0.0193,-5.9257 -0.0692,-1.3426 -0.10331,-2.4831 -0.13842,-3.632 l -10.47653,-24.6508 c -1.14165,-0.9569 -2.27747,-1.9617 -3.42328,-2.8796 1.71852,1.2103 2.27617,1.6241 3.15872,2.2634 l -1.02662,-2.4242 c -1.70899,-2.1013 -3.81597,-4.8941 -5.94256,-8.4697 -0.65783,-1.106 -0.80768,-3.4744 -1.21234,-5.2137 -0.52846,-2.2713 -0.90492,-4.2131 -1.21409,-6.00171 L 525.27774,516.04026 Z m 217.21845,486.13194 c -0.13302,0.014 -0.22062,0.014 -0.35038,0.022 -0.006,0.1446 -0.0123,0.2815 -0.0193,0.4255 0.16383,-0.086 0.33121,-0.157 0.4958,-0.24 -0.0426,-0.07 -0.0832,-0.1369 -0.12615,-0.2073 z M 674.2357,1408.68 c -10.99841,1.6237 -21.98649,3.3685 -32.97135,5.1239 12.77244,-1.6891 23.45743,-3.3641 32.97135,-5.1239 z"
       style="opacity:1;fill:#6c5353;fill-opacity:1;stroke:none;stroke-opacity:1" />
    <path
       inkscape:connector-curvature="0"
       id="path5615-2"
       d="m 130.24148,373.3475 -226.843966,709.0993 c -7.407864,4.8095 -4.999714,5.9437 33.863942,-9.2098 24.943846,-9.7261 342.647684,25.2146 435.564714,-0.4504 0.0785,-2.7299 0.12057,-5.3818 0.0208,-7.7095 -0.0748,-1.7469 -0.11161,-3.2307 -0.14949,-4.7255 l -11.31636,-32.0717 c -1.23314,-1.245 -2.46003,-2.5522 -3.69769,-3.7464 1.85629,1.5744 2.45864,2.1131 3.41194,2.9446 l -1.10894,-3.1539 c -1.84599,-2.734 -4.12187,-6.3674 -6.4189,-11.0194 -0.71058,-1.4391 -0.87244,-4.5203 -1.30953,-6.7832 -0.57083,-2.9553 -0.97748,-5.4816 -1.31142,-7.80854 L 130.24148,373.3475 Z m 234.63106,632.4787 c -0.14369,0.018 -0.23833,0.018 -0.37848,0.029 -0.007,0.1882 -0.0132,0.3662 -0.0208,0.5535 0.17698,-0.1127 0.35776,-0.2041 0.53555,-0.3123 -0.0461,-0.091 -0.0899,-0.178 -0.13624,-0.2695 z m -73.73239,528.8843 c -11.88004,2.1126 -23.74895,4.3826 -35.61438,6.6664 13.79632,-2.1976 25.33782,-4.3769 35.61438,-6.6664 z"
       style="opacity:1;fill:#6c5353;fill-opacity:1;stroke:none;stroke-opacity:1" />
    <path
       inkscape:connector-curvature="0"
       id="path5617-9"
       d="M 304.62386,497.81169 142.85552,965.66397 c -5.28272,3.17314 -3.56541,3.92158 24.14926,-6.07657 17.78811,-6.41698 244.35099,16.63622 310.61254,-0.29712 0.056,-1.80109 0.0859,-3.55089 0.0148,-5.08657 -0.0533,-1.15262 -0.0796,-2.1316 -0.10662,-3.11784 l -8.06998,-21.16042 c -0.87939,-0.82147 -1.75431,-1.68386 -2.63691,-2.47173 1.32376,1.03877 1.75331,1.39408 2.43314,1.94276 l -0.79082,-2.08096 c -1.31643,-1.80373 -2.93941,-4.20104 -4.57749,-7.27032 -0.50672,-0.94955 -0.62215,-2.98249 -0.93385,-4.47554 -0.40707,-1.94974 -0.69706,-3.61662 -0.93521,-5.15191 L 304.62386,497.81169 Z m 167.32152,417.2992 c -0.10247,0.0123 -0.16994,0.0123 -0.2699,0.0189 -0.006,0.12423 -0.009,0.24165 -0.0148,0.3652 0.1262,-0.0744 0.25514,-0.13467 0.38191,-0.20608 -0.0328,-0.0595 -0.0642,-0.11743 -0.0972,-0.1778 z M 419.3649,1264.0602 c -8.47197,1.3938 -16.936,2.8915 -25.39755,4.3984 9.83852,-1.45 18.06906,-2.8879 25.39755,-4.3984 z"
       style="opacity:1;fill:#6c5353;fill-opacity:1;stroke:none;stroke-opacity:1" />
    <path
       inkscape:connector-curvature="0"
       id="path5619-0"
       d="M 450.14434,422.35325 242.35823,966.36479 c -6.7855,3.68973 -4.57965,4.55996 31.01893,-7.06575 22.84824,-7.4616 313.8608,19.34435 398.97157,-0.34549 0.0719,-2.09426 0.11044,-4.1289 0.019,-5.91462 -0.0685,-1.34014 -0.10225,-2.47852 -0.13694,-3.6253 l -10.36564,-24.60502 c -1.12954,-0.9551 -2.25335,-1.95796 -3.38704,-2.87422 1.70035,1.20802 2.2521,1.62114 3.12529,2.25915 l -1.01575,-2.41968 c -1.69091,-2.09737 -3.77559,-4.88498 -5.87965,-8.45389 -0.65087,-1.10405 -0.79914,-3.46796 -1.19951,-5.20405 -0.52287,-2.26717 -0.89535,-4.20532 -1.20123,-5.99061 L 450.14434,422.35325 Z m 214.91898,485.22922 c -0.13163,0.0139 -0.2183,0.0139 -0.34668,0.0224 -0.007,0.14438 -0.0122,0.28093 -0.019,0.42462 0.16209,-0.0863 0.32772,-0.15664 0.49055,-0.23957 -0.0421,-0.0697 -0.0824,-0.13656 -0.1248,-0.2068 z m -67.5379,405.75293 c -10.88197,1.6207 -21.75372,3.3623 -32.6223,5.1144 12.63723,-1.6861 23.2091,-3.3579 32.6223,-5.1144 z"
       style="opacity:1;fill:#6c5353;fill-opacity:1;stroke:none;stroke-opacity:1" />
  </g>
</svg>
